M48
; DRILL file {KiCad 9.0.6} date 2025-11-24T00:29:48-0500
; FORMAT={-:-/ absolute / metric / decimal}
; #@! TF.CreationDate,2025-11-24T00:29:48-05:00
; #@! TF.GenerationSoftware,Kicad,Pcbnew,9.0.6
; #@! TF.FileFunction,Plated,1,2,PTH
FMAT,2
METRIC
; #@! TA.AperFunction,Plated,PTH,ComponentDrill
T1C0.200
; #@! TA.AperFunction,Plated,PTH,ViaDrill
T2C0.300
; #@! TA.AperFunction,Plated,PTH,ComponentDrill
T3C0.500
; #@! TA.AperFunction,Plated,PTH,ComponentDrill
T4C0.750
%
G90
G05
T1
X126.954Y-61.485
X126.954Y-62.475
X127.944Y-60.495
X127.944Y-61.485
X127.944Y-62.475
X127.944Y-63.465
X128.934Y-60.495
X128.934Y-61.485
X128.934Y-62.475
X128.934Y-63.465
X129.924Y-61.485
X129.924Y-62.475
T2
X112.039Y-93.0
X114.439Y-66.5
X114.439Y-107.0
X114.939Y-67.5
X114.939Y-69.5
X114.939Y-84.0
X115.439Y-116.5
X115.939Y-84.0
X116.439Y-113.5
X116.939Y-84.0
X117.439Y-72.0
X119.939Y-72.5
X122.439Y-84.0
X123.439Y-84.0
X124.439Y-84.0
X124.939Y-70.5
X125.939Y-77.0
X126.439Y-80.0
X127.439Y-80.0
X129.439Y-73.0
X129.939Y-77.0
X130.439Y-122.5
X131.858Y-58.419
X131.939Y-139.5
X132.439Y-59.5
X132.889Y-129.0
X132.939Y-130.0
X133.939Y-60.5
X134.0Y-67.5
X134.439Y-130.0
X134.939Y-112.5
X135.439Y-65.5
X135.439Y-130.0
X135.939Y-64.5
X136.439Y-130.0
X137.439Y-128.5
X137.838Y-43.8
X138.937Y-44.201
X140.439Y-47.5
X141.439Y-127.5
X142.039Y-76.5
X142.439Y-95.0
X142.589Y-127.5
X143.389Y-127.5
X146.439Y-57.5
X146.939Y-114.5
X148.439Y-89.0
X148.939Y-108.0
X149.0Y-79.5
X149.939Y-100.5
X151.5Y-137.0
X152.0Y-110.0
X152.439Y-124.0
X152.939Y-132.5
X153.439Y-82.5
X154.439Y-124.5
X154.939Y-131.0
X154.939Y-144.0
X155.5Y-91.0
X158.439Y-117.5
X160.0Y-146.5
X161.439Y-137.0
X161.439Y-139.5
X161.939Y-138.0
X162.5Y-64.0
X163.398Y-143.8
X163.589Y-146.85
X165.439Y-118.0
X165.439Y-145.5
X166.939Y-139.0
X167.5Y-134.0
X167.939Y-55.5
X167.939Y-93.6
X168.837Y-93.0
T4
X159.939Y-105.55
X161.939Y-105.55
T3
G00X157.55Y-148.8
M15
G01X157.55Y-148.2
M16
G05
G00X157.91Y-142.85
M15
G01X157.91Y-142.25
M16
G05
G00X166.17Y-142.85
M15
G01X166.17Y-142.25
M16
G05
G00X166.53Y-148.8
M15
G01X166.53Y-148.2
M16
G05
M30
