%TF.GenerationSoftware,KiCad,Pcbnew,9.0.6*%
%TF.CreationDate,2025-11-24T16:31:49-05:00*%
%TF.ProjectId,EPD_HUB_ESP32,4550445f-4855-4425-9f45-535033322e6b,rev?*%
%TF.SameCoordinates,Original*%
%TF.FileFunction,Copper,L1,Top*%
%TF.FilePolarity,Positive*%
%FSLAX46Y46*%
G04 Gerber Fmt 4.6, Leading zero omitted, Abs format (unit mm)*
G04 Created by KiCad (PCBNEW 9.0.6) date 2025-11-24 16:31:49*
%MOMM*%
%LPD*%
G01*
G04 APERTURE LIST*
G04 Aperture macros list*
%AMRoundRect*
0 Rectangle with rounded corners*
0 $1 Rounding radius*
0 $2 $3 $4 $5 $6 $7 $8 $9 X,Y pos of 4 corners*
0 Add a 4 corners polygon primitive as box body*
4,1,4,$2,$3,$4,$5,$6,$7,$8,$9,$2,$3,0*
0 Add four circle primitives for the rounded corners*
1,1,$1+$1,$2,$3*
1,1,$1+$1,$4,$5*
1,1,$1+$1,$6,$7*
1,1,$1+$1,$8,$9*
0 Add four rect primitives between the rounded corners*
20,1,$1+$1,$2,$3,$4,$5,0*
20,1,$1+$1,$4,$5,$6,$7,0*
20,1,$1+$1,$6,$7,$8,$9,0*
20,1,$1+$1,$8,$9,$2,$3,0*%
G04 Aperture macros list end*
%TA.AperFunction,ComponentPad*%
%ADD10C,6.000000*%
%TD*%
%TA.AperFunction,SMDPad,CuDef*%
%ADD11RoundRect,0.250000X0.475000X-0.337500X0.475000X0.337500X-0.475000X0.337500X-0.475000X-0.337500X0*%
%TD*%
%TA.AperFunction,SMDPad,CuDef*%
%ADD12RoundRect,0.250000X-0.450000X0.350000X-0.450000X-0.350000X0.450000X-0.350000X0.450000X0.350000X0*%
%TD*%
%TA.AperFunction,SMDPad,CuDef*%
%ADD13RoundRect,0.250000X-0.275000X-0.750000X0.275000X-0.750000X0.275000X0.750000X-0.275000X0.750000X0*%
%TD*%
%TA.AperFunction,SMDPad,CuDef*%
%ADD14RoundRect,0.250000X-0.350000X-0.450000X0.350000X-0.450000X0.350000X0.450000X-0.350000X0.450000X0*%
%TD*%
%TA.AperFunction,SMDPad,CuDef*%
%ADD15RoundRect,0.250000X0.750000X-0.275000X0.750000X0.275000X-0.750000X0.275000X-0.750000X-0.275000X0*%
%TD*%
%TA.AperFunction,SMDPad,CuDef*%
%ADD16RoundRect,0.225000X-0.225000X-0.375000X0.225000X-0.375000X0.225000X0.375000X-0.225000X0.375000X0*%
%TD*%
%TA.AperFunction,SMDPad,CuDef*%
%ADD17RoundRect,0.250000X0.337500X0.475000X-0.337500X0.475000X-0.337500X-0.475000X0.337500X-0.475000X0*%
%TD*%
%TA.AperFunction,SMDPad,CuDef*%
%ADD18RoundRect,0.250000X0.350000X0.450000X-0.350000X0.450000X-0.350000X-0.450000X0.350000X-0.450000X0*%
%TD*%
%TA.AperFunction,SMDPad,CuDef*%
%ADD19RoundRect,0.225000X0.225000X0.375000X-0.225000X0.375000X-0.225000X-0.375000X0.225000X-0.375000X0*%
%TD*%
%TA.AperFunction,SMDPad,CuDef*%
%ADD20RoundRect,0.250000X-0.337500X-0.475000X0.337500X-0.475000X0.337500X0.475000X-0.337500X0.475000X0*%
%TD*%
%TA.AperFunction,SMDPad,CuDef*%
%ADD21RoundRect,0.250000X-0.750000X0.275000X-0.750000X-0.275000X0.750000X-0.275000X0.750000X0.275000X0*%
%TD*%
%TA.AperFunction,SMDPad,CuDef*%
%ADD22RoundRect,0.250000X0.275000X0.750000X-0.275000X0.750000X-0.275000X-0.750000X0.275000X-0.750000X0*%
%TD*%
%TA.AperFunction,SMDPad,CuDef*%
%ADD23RoundRect,0.200000X-0.200000X0.750000X-0.200000X-0.750000X0.200000X-0.750000X0.200000X0.750000X0*%
%TD*%
%TA.AperFunction,SMDPad,CuDef*%
%ADD24RoundRect,0.112500X0.112500X0.637500X-0.112500X0.637500X-0.112500X-0.637500X0.112500X-0.637500X0*%
%TD*%
%TA.AperFunction,SMDPad,CuDef*%
%ADD25RoundRect,0.150000X-0.587500X-0.150000X0.587500X-0.150000X0.587500X0.150000X-0.587500X0.150000X0*%
%TD*%
%TA.AperFunction,HeatsinkPad*%
%ADD26C,0.600000*%
%TD*%
%TA.AperFunction,ComponentPad*%
%ADD27RoundRect,0.250000X0.350000X0.625000X-0.350000X0.625000X-0.350000X-0.625000X0.350000X-0.625000X0*%
%TD*%
%TA.AperFunction,ComponentPad*%
%ADD28O,1.200000X1.750000*%
%TD*%
%TA.AperFunction,HeatsinkPad*%
%ADD29O,0.800000X1.400000*%
%TD*%
%TA.AperFunction,ViaPad*%
%ADD30C,0.600000*%
%TD*%
%TA.AperFunction,Conductor*%
%ADD31C,0.200000*%
%TD*%
G04 APERTURE END LIST*
D10*
%TO.P,REF_1,1*%
%TO.N,N/C*%
X165000000Y-48000000D03*
%TD*%
%TO.P,REF_2,1*%
%TO.N,N/C*%
X112000000Y-147500000D03*
%TD*%
D11*
%TO.P,C18,1*%
%TO.N,GND*%
X136938840Y-135537500D03*
%TO.P,C18,2*%
%TO.N,Net-(J3-Pin_18)*%
X136938840Y-133462500D03*
%TD*%
D12*
%TO.P,R15,1*%
%TO.N,GND*%
X146938840Y-105500000D03*
%TO.P,R15,2*%
%TO.N,/E_ink_HAT/GDR*%
X146938840Y-107500000D03*
%TD*%
D11*
%TO.P,C15,1*%
%TO.N,GND*%
X129438840Y-135537500D03*
%TO.P,C15,2*%
%TO.N,Net-(J3-Pin_22)*%
X129438840Y-133462500D03*
%TD*%
D13*
%TO.P,SW3,1,1*%
%TO.N,3V3*%
X121713840Y-47000000D03*
%TO.P,SW3,2,2*%
%TO.N,DPAD_RIGHT*%
X126163840Y-47000000D03*
%TD*%
D14*
%TO.P,R11,1*%
%TO.N,CHG_STATUS*%
X122500000Y-127000000D03*
%TO.P,R11,2*%
%TO.N,3V3*%
X124500000Y-127000000D03*
%TD*%
D15*
%TO.P,SW7,1,1*%
%TO.N,3V3*%
X111438840Y-111725000D03*
%TO.P,SW7,2,2*%
%TO.N,BUTTON_B*%
X111438840Y-107275000D03*
%TD*%
D16*
%TO.P,D6,1,K*%
%TO.N,GND*%
X134788840Y-103500000D03*
%TO.P,D6,2,A*%
%TO.N,Net-(D4-K)*%
X138088840Y-103500000D03*
%TD*%
D14*
%TO.P,R16,1*%
%TO.N,EPD_RST*%
X145438840Y-84000000D03*
%TO.P,R16,2*%
%TO.N,3V3*%
X147438840Y-84000000D03*
%TD*%
D17*
%TO.P,C10,1*%
%TO.N,GND*%
X147976340Y-102000000D03*
%TO.P,C10,2*%
%TO.N,/E_ink_HAT/VCC_EPD_OUT*%
X145901340Y-102000000D03*
%TD*%
D18*
%TO.P,R18,1*%
%TO.N,Net-(R18-Pad1)*%
X152438840Y-80500000D03*
%TO.P,R18,2*%
%TO.N,3V3*%
X150438840Y-80500000D03*
%TD*%
D19*
%TO.P,D5,1,K*%
%TO.N,Net-(D5-K)*%
X138088840Y-108000000D03*
%TO.P,D5,2,A*%
%TO.N,/E_ink_HAT/PREVGH*%
X134788840Y-108000000D03*
%TD*%
D20*
%TO.P,C11,1*%
%TO.N,Net-(D4-K)*%
X140901340Y-103500000D03*
%TO.P,C11,2*%
%TO.N,Net-(D5-K)*%
X142976340Y-103500000D03*
%TD*%
D11*
%TO.P,C13,1*%
%TO.N,GND*%
X132438840Y-135537500D03*
%TO.P,C13,2*%
%TO.N,Net-(J3-Pin_20)*%
X132438840Y-133462500D03*
%TD*%
D18*
%TO.P,R17,1*%
%TO.N,Net-(Q6-B)*%
X147438840Y-77500000D03*
%TO.P,R17,2*%
%TO.N,EPD_RST*%
X145438840Y-77500000D03*
%TD*%
D14*
%TO.P,R19,1*%
%TO.N,Net-(Q6-B)*%
X150438840Y-77500000D03*
%TO.P,R19,2*%
%TO.N,Net-(R18-Pad1)*%
X152438840Y-77500000D03*
%TD*%
D11*
%TO.P,C20,1*%
%TO.N,GND*%
X126938840Y-135537500D03*
%TO.P,C20,2*%
%TO.N,Net-(J3-Pin_24)*%
X126938840Y-133462500D03*
%TD*%
D21*
%TO.P,SW5,1,1*%
%TO.N,3V3*%
X111438840Y-128275000D03*
%TO.P,SW5,2,2*%
%TO.N,BUTTON_A*%
X111438840Y-132725000D03*
%TD*%
D11*
%TO.P,C19,1*%
%TO.N,GND*%
X134438840Y-135537500D03*
%TO.P,C19,2*%
%TO.N,Net-(J3-Pin_19)*%
X134438840Y-133462500D03*
%TD*%
D15*
%TO.P,SW4,1,1*%
%TO.N,3V3*%
X168438840Y-111725000D03*
%TO.P,SW4,2,2*%
%TO.N,DPAD_DOWN*%
X168438840Y-107275000D03*
%TD*%
D22*
%TO.P,SW2,1,1*%
%TO.N,3V3*%
X157663840Y-47000000D03*
%TO.P,SW2,2,2*%
%TO.N,DPAD_LEFT*%
X153213840Y-47000000D03*
%TD*%
D17*
%TO.P,C12,1*%
%TO.N,3V3*%
X147476340Y-81000000D03*
%TO.P,C12,2*%
%TO.N,GND*%
X145401340Y-81000000D03*
%TD*%
D12*
%TO.P,R14,1*%
%TO.N,GND*%
X146938840Y-110000000D03*
%TO.P,R14,2*%
%TO.N,/E_ink_HAT/RESE*%
X146938840Y-112000000D03*
%TD*%
D23*
%TO.P,Q5,1,G*%
%TO.N,Net-(Q5-G)*%
X147388840Y-93000000D03*
%TO.P,Q5,2,S*%
%TO.N,3V3*%
X145488840Y-93000000D03*
%TO.P,Q5,3,D*%
%TO.N,/E_ink_HAT/VCC_EPD_OUT*%
X146438840Y-96000000D03*
%TD*%
D21*
%TO.P,SW1,1,1*%
%TO.N,3V3*%
X168438840Y-127775000D03*
%TO.P,SW1,2,2*%
%TO.N,DPAD_UP*%
X168438840Y-132225000D03*
%TD*%
D19*
%TO.P,D4,1,K*%
%TO.N,Net-(D4-K)*%
X138088840Y-99500000D03*
%TO.P,D4,2,A*%
%TO.N,/E_ink_HAT/PREVGL*%
X134788840Y-99500000D03*
%TD*%
D24*
%TO.P,Q4,1,G*%
%TO.N,/E_ink_HAT/GDR*%
X144088840Y-108170000D03*
%TO.P,Q4,2,S*%
%TO.N,Net-(D5-K)*%
X142788840Y-108170000D03*
%TO.P,Q4,3,D*%
%TO.N,/E_ink_HAT/RESE*%
X143438840Y-110830000D03*
%TD*%
D12*
%TO.P,R20,1*%
%TO.N,3V3*%
X150438840Y-84000000D03*
%TO.P,R20,2*%
%TO.N,Net-(Q5-G)*%
X150438840Y-86000000D03*
%TD*%
D11*
%TO.P,C21,1*%
%TO.N,GND*%
X142438840Y-135537500D03*
%TO.P,C21,2*%
%TO.N,Net-(J3-Pin_4)*%
X142438840Y-133462500D03*
%TD*%
D25*
%TO.P,Q6,1,B*%
%TO.N,Net-(Q6-B)*%
X140501340Y-85050000D03*
%TO.P,Q6,2,E*%
%TO.N,GND*%
X140501340Y-86950000D03*
%TO.P,Q6,3,C*%
%TO.N,Net-(Q5-G)*%
X142376340Y-86000000D03*
%TD*%
D11*
%TO.P,C17,1*%
%TO.N,GND*%
X139938840Y-135537500D03*
%TO.P,C17,2*%
%TO.N,Net-(J3-Pin_5)*%
X139938840Y-133462500D03*
%TD*%
D26*
%TO.P,U4,41,GND*%
%TO.N,GND*%
X129923764Y-61484924D03*
X128933815Y-60494974D03*
X129923764Y-62474873D03*
X128933815Y-61484924D03*
X127943865Y-60494974D03*
X128933815Y-62474873D03*
X127943865Y-61484924D03*
X128933815Y-63464823D03*
X127943865Y-62474873D03*
X126953916Y-61484924D03*
X127943865Y-63464823D03*
X126953916Y-62474873D03*
%TD*%
D27*
%TO.P,J5,1,Pin_1*%
%TO.N,Net-(J5-Pin_1)*%
X161938840Y-105550000D03*
D28*
%TO.P,J5,2,Pin_2*%
%TO.N,GND*%
X159938840Y-105550000D03*
%TD*%
D29*
%TO.P,J1,S1,SHIELD*%
%TO.N,Net-(J1-SHIELD)*%
X166529840Y-148500000D03*
X166169840Y-142550000D03*
X157909840Y-142550000D03*
X157549840Y-148500000D03*
%TD*%
D30*
%TO.N,3V3*%
X124500000Y-108000000D03*
%TO.N,GND*%
X151000000Y-112500000D03*
%TO.N,BAT_MONIT*%
X118000000Y-115000000D03*
%TO.N,GND*%
X120000000Y-126500000D03*
%TO.N,VBat+*%
X118500000Y-141500000D03*
%TO.N,ESP32_IO0*%
X142500000Y-57500000D03*
%TO.N,ESP32_EN*%
X165500000Y-65000000D03*
%TO.N,SD_DAT2*%
X114500000Y-82500000D03*
%TO.N,SD_DAT3*%
X116000000Y-88000000D03*
%TO.N,SD_CMD*%
X122000000Y-92000000D03*
%TO.N,SD_DAT1*%
X125838840Y-97500000D03*
%TO.N,SD_DAT0*%
X125838840Y-96000000D03*
%TO.N,GND*%
X134000000Y-67500000D03*
X152438840Y-124000000D03*
X154438840Y-124500000D03*
X149000000Y-79500000D03*
X158438840Y-117500000D03*
X141438840Y-127500000D03*
X155500000Y-91000000D03*
X137438840Y-128500000D03*
X165438840Y-145500000D03*
X167500000Y-134000000D03*
X154938840Y-131000000D03*
X151500000Y-137000000D03*
%TO.N,Net-(J1-SHIELD)*%
X131938840Y-139500000D03*
X160000000Y-146500000D03*
%TO.N,VBat+*%
X166938840Y-139000000D03*
%TO.N,ESP32_EN*%
X168836840Y-93000000D03*
X138936840Y-44201000D03*
X167938840Y-55500000D03*
%TO.N,3V3*%
X153438840Y-82500000D03*
X167938840Y-93600000D03*
X137837840Y-43800000D03*
X116438840Y-113500000D03*
X148438840Y-89000000D03*
X165438840Y-118000000D03*
%TO.N,BAT_MONIT*%
X114438840Y-66500000D03*
%TO.N,/E_ink_HAT/VCC_EPD_OUT*%
X134500000Y-96500000D03*
X149938840Y-100500000D03*
%TO.N,Net-(D5-K)*%
X137000000Y-95600000D03*
%TO.N,Net-(J3-Pin_20)*%
X134438840Y-130000000D03*
%TO.N,/E_ink_HAT/PREVGH*%
X134938840Y-112500000D03*
%TO.N,Net-(J3-Pin_22)*%
X132938840Y-130000000D03*
%TO.N,/E_ink_HAT/PREVGL*%
X130438840Y-122500000D03*
%TO.N,Net-(J3-Pin_5)*%
X142588840Y-127500000D03*
%TO.N,Net-(J3-Pin_18)*%
X136438840Y-130000000D03*
%TO.N,Net-(J3-Pin_19)*%
X135438840Y-130000000D03*
%TO.N,Net-(J3-Pin_24)*%
X132888842Y-129000000D03*
%TO.N,Net-(J3-Pin_4)*%
X143388843Y-127500000D03*
%TO.N,ESP32_IO0*%
X129438840Y-73000000D03*
%TO.N,Net-(J7-VDD)*%
X122000000Y-93000000D03*
X144500000Y-87500000D03*
%TO.N,ESP32_DP*%
X161938840Y-138000000D03*
X163588658Y-146850182D03*
%TO.N,ESP32_DN*%
X163397840Y-143800000D03*
X161438840Y-139500000D03*
%TO.N,BUTTON_B*%
X132438840Y-59500000D03*
X114438840Y-107000000D03*
X126438840Y-80000000D03*
%TO.N,BUTTON_A*%
X115438840Y-116500000D03*
X133938840Y-60500000D03*
X127438840Y-80000000D03*
%TO.N,DPAD_RIGHT*%
X131858078Y-58419238D03*
%TO.N,DPAD_UP*%
X135438840Y-65500000D03*
%TO.N,DPAD_DOWN*%
X135938840Y-64500000D03*
%TO.N,DPAD_LEFT*%
X140438840Y-47500000D03*
%TO.N,Net-(J1-CC1)*%
X154938840Y-144000000D03*
X161438840Y-137000000D03*
%TO.N,/E_ink_HAT/GDR*%
X148938840Y-108000000D03*
%TO.N,EPD_RST*%
X142038840Y-76500000D03*
%TO.N,/E_ink_HAT/RESE*%
X146938840Y-114500000D03*
%TO.N,SD_DAT2*%
X114938840Y-69500000D03*
%TO.N,SD_DAT0*%
X125938840Y-77000000D03*
%TO.N,SD_CLK*%
X122438840Y-80000000D03*
X124938840Y-70500000D03*
%TO.N,SD_CMD*%
X119938840Y-72500000D03*
%TO.N,SD_DAT3*%
X117438840Y-72000000D03*
%TO.N,SD_DAT1*%
X129938840Y-77000000D03*
%TO.N,CHG_STATUS*%
X114938840Y-67500000D03*
X152938840Y-132500000D03*
%TD*%
D31*
%TO.N,3V3*%
X124500000Y-127000000D02*
X124500000Y-108000000D01*
%TO.N,CHG_STATUS*%
X111438840Y-71000000D02*
X114938840Y-67500000D01*
X111438840Y-92750057D02*
X111438840Y-71000000D01*
X111437840Y-93248943D02*
X111437840Y-92751057D01*
X111438840Y-93249943D02*
X111437840Y-93248943D01*
X111437840Y-92751057D02*
X111438840Y-92750057D01*
X111438840Y-100500000D02*
X111438840Y-93249943D01*
X111537840Y-100599000D02*
X111438840Y-100500000D01*
X111537840Y-101166100D02*
X111537840Y-100599000D01*
X111772740Y-101401000D02*
X111537840Y-101166100D01*
X122500000Y-111561160D02*
X112339840Y-101401000D01*
X112339840Y-101401000D02*
X111772740Y-101401000D01*
X122500000Y-127000000D02*
X122500000Y-111561160D01*
X122500000Y-137438840D02*
X122500000Y-127000000D01*
X122438840Y-137500000D02*
X122500000Y-137438840D01*
%TO.N,GND*%
X152000000Y-111500000D02*
X151000000Y-112500000D01*
X152000000Y-105550000D02*
X152000000Y-111500000D01*
X152000000Y-105550000D02*
X159938840Y-105550000D01*
%TO.N,BAT_MONIT*%
X118000000Y-114500000D02*
X118000000Y-115000000D01*
X118000000Y-108561160D02*
X118000000Y-114500000D01*
X110401340Y-100962500D02*
X118000000Y-108561160D01*
X110401340Y-70537500D02*
X110401340Y-100962500D01*
X114438840Y-66500000D02*
X110401340Y-70537500D01*
%TO.N,GND*%
X119938840Y-126561160D02*
X120000000Y-126500000D01*
X119938840Y-138798000D02*
X119938840Y-126561160D01*
%TO.N,VBat+*%
X118469420Y-141530580D02*
X118500000Y-141500000D01*
X118469420Y-148030580D02*
X118469420Y-141530580D01*
X118469420Y-148030580D02*
X121039840Y-150601000D01*
%TO.N,ESP32_IO0*%
X141938840Y-57500000D02*
X142500000Y-57500000D01*
%TO.N,ESP32_EN*%
X165500000Y-65000000D02*
X169436840Y-65000000D01*
X169436840Y-54000000D02*
X169436840Y-65000000D01*
%TO.N,SD_DAT2*%
X112469420Y-80469420D02*
X114500000Y-82500000D01*
X112469420Y-80030580D02*
X112469420Y-80469420D01*
%TO.N,SD_DAT3*%
X115938840Y-73500000D02*
X117438840Y-72000000D01*
X116000000Y-88000000D02*
X116000000Y-80061160D01*
X115938840Y-80000000D02*
X115938840Y-73500000D01*
X116000000Y-80061160D02*
X115938840Y-80000000D01*
%TO.N,SD_CMD*%
X119938840Y-89938840D02*
X122000000Y-92000000D01*
X119938840Y-79500000D02*
X119938840Y-89938840D01*
%TO.N,SD_DAT1*%
X126000000Y-97500000D02*
X125838840Y-97500000D01*
X126500000Y-97000000D02*
X126000000Y-97500000D01*
X126500000Y-83000000D02*
X126500000Y-97000000D01*
X128500000Y-81000000D02*
X126500000Y-83000000D01*
X129938840Y-79561160D02*
X128500000Y-81000000D01*
X129938840Y-78500000D02*
X129938840Y-79561160D01*
%TO.N,SD_DAT0*%
X125500000Y-95661160D02*
X125838840Y-96000000D01*
X125500000Y-77438840D02*
X125500000Y-95661160D01*
X125938840Y-77000000D02*
X125500000Y-77438840D01*
%TO.N,Net-(J7-VDD)*%
X143500000Y-88500000D02*
X144500000Y-87500000D01*
X140330808Y-88500000D02*
X143500000Y-88500000D01*
X138000000Y-89500000D02*
X139330808Y-89500000D01*
X139330808Y-89500000D02*
X140330808Y-88500000D01*
X133500000Y-94000000D02*
X138000000Y-89500000D01*
X133500000Y-98438840D02*
X133500000Y-94000000D01*
X111938840Y-101000000D02*
X130938840Y-101000000D01*
X111938840Y-93100000D02*
X111938840Y-101000000D01*
X122000000Y-93000000D02*
X112038840Y-93000000D01*
X130938840Y-101000000D02*
X133500000Y-98438840D01*
X112038840Y-93000000D02*
X111938840Y-93100000D01*
%TO.N,SD_CLK*%
X122438840Y-80000000D02*
X122438840Y-73000000D01*
X122438840Y-73000000D02*
X124938840Y-70500000D01*
%TO.N,SD_CMD*%
X119938840Y-79500000D02*
X119938840Y-72500000D01*
%TO.N,SD_DAT2*%
X112438840Y-80000000D02*
X112438840Y-72000000D01*
X112469420Y-80030580D02*
X112438840Y-80000000D01*
X112438840Y-72000000D02*
X114938840Y-69500000D01*
%TO.N,GND*%
X138438840Y-129500000D02*
X138438840Y-130500000D01*
X163837601Y-147451182D02*
X143390022Y-147451182D01*
X137000000Y-83448660D02*
X140501340Y-86950000D01*
X134000000Y-67500000D02*
X134000000Y-69000000D01*
X148938840Y-121000000D02*
X148938840Y-112000000D01*
X155500000Y-101000000D02*
X155500000Y-92000000D01*
X138438840Y-134037500D02*
X136938840Y-135537500D01*
X152438840Y-124000000D02*
X149438840Y-121000000D01*
X146500000Y-131000000D02*
X144438840Y-133061160D01*
X147976340Y-102000000D02*
X149000000Y-103023660D01*
X137438840Y-128500000D02*
X138438840Y-129500000D01*
X145401340Y-81000000D02*
X146901340Y-79500000D01*
X165438840Y-145849943D02*
X163837601Y-147451182D01*
X143390022Y-147451182D02*
X136469420Y-140530580D01*
X134000000Y-69000000D02*
X137000000Y-72000000D01*
X159938840Y-105550000D02*
X159938840Y-105438840D01*
X159938840Y-105438840D02*
X156000000Y-101500000D01*
X149000000Y-103023660D02*
X149000000Y-103438840D01*
X144438840Y-133061160D02*
X144438840Y-135500000D01*
X138438840Y-130500000D02*
X138438840Y-134037500D01*
X149438840Y-121000000D02*
X148938840Y-121000000D01*
X147969420Y-140530580D02*
X136469420Y-140530580D01*
X149000000Y-103438840D02*
X151111160Y-105550000D01*
X150938840Y-110000000D02*
X146938840Y-110000000D01*
X167500000Y-134000000D02*
X165500000Y-134000000D01*
X165500000Y-134000000D02*
X158438840Y-126938840D01*
X154438840Y-124500000D02*
X153938840Y-124000000D01*
X151469420Y-110530580D02*
X150938840Y-110000000D01*
X151500000Y-137000000D02*
X147969420Y-140530580D01*
X156000000Y-101500000D02*
X155500000Y-101000000D01*
X141438840Y-127500000D02*
X138438840Y-130500000D01*
X120039840Y-138899000D02*
X119938840Y-138798000D01*
X155500000Y-92000000D02*
X155500000Y-91000000D01*
X148938840Y-112000000D02*
X146938840Y-110000000D01*
X158438840Y-126938840D02*
X158438840Y-117500000D01*
X136469420Y-140530580D02*
X134837840Y-138899000D01*
X146901340Y-79500000D02*
X149000000Y-79500000D01*
X153938840Y-124000000D02*
X152438840Y-124000000D01*
X158438840Y-117500000D02*
X151469420Y-110530580D01*
X154938840Y-131000000D02*
X146500000Y-131000000D01*
X137000000Y-72000000D02*
X137000000Y-83448660D01*
X144438840Y-135500000D02*
X144401340Y-135537500D01*
X151111160Y-105550000D02*
X152000000Y-105550000D01*
X165438840Y-145500000D02*
X165438840Y-145849943D01*
X134837840Y-138899000D02*
X120039840Y-138899000D01*
X144401340Y-135537500D02*
X142438840Y-135537500D01*
X149000000Y-103438840D02*
X146938840Y-105500000D01*
%TO.N,Net-(J1-SHIELD)*%
X131938840Y-139500000D02*
X140938840Y-148500000D01*
X157549840Y-148500000D02*
X166529840Y-148500000D01*
X140938840Y-148500000D02*
X157549840Y-148500000D01*
X157909840Y-142550000D02*
X157909840Y-144409840D01*
X166529840Y-148029840D02*
X166169840Y-147669840D01*
X157909840Y-144409840D02*
X160000000Y-146500000D01*
X166529840Y-148500000D02*
X166529840Y-148029840D01*
X166169840Y-147669840D02*
X166169840Y-142550000D01*
%TO.N,VBat+*%
X167438840Y-139500000D02*
X166938840Y-139000000D01*
X121039840Y-150601000D02*
X167337840Y-150601000D01*
X167337840Y-150601000D02*
X167438840Y-150500000D01*
X167438840Y-150500000D02*
X167438840Y-139500000D01*
%TO.N,ESP32_EN*%
X169436840Y-92400000D02*
X168836840Y-93000000D01*
X167976340Y-55462500D02*
X167938840Y-55500000D01*
X139135840Y-44002000D02*
X168938840Y-44002000D01*
X169436840Y-44500000D02*
X169436840Y-54000000D01*
X167976340Y-54000000D02*
X169436840Y-54000000D01*
X169436840Y-65000000D02*
X169436840Y-92400000D01*
X168938840Y-44002000D02*
X169436840Y-44500000D01*
X138936840Y-44201000D02*
X139135840Y-44002000D01*
X167976340Y-54000000D02*
X167976340Y-55462500D01*
%TO.N,3V3*%
X136137840Y-45500000D02*
X123213840Y-45500000D01*
X157663840Y-47000000D02*
X155465840Y-44802000D01*
X148976340Y-82500000D02*
X147476340Y-81000000D01*
X169837840Y-93101000D02*
X169338840Y-93600000D01*
X138687897Y-44802000D02*
X137837840Y-43951943D01*
X114438840Y-115500000D02*
X116438840Y-113500000D01*
X147476340Y-81000000D02*
X149938840Y-81000000D01*
X147438840Y-84000000D02*
X147438840Y-81037500D01*
X111438840Y-115500000D02*
X114438840Y-115500000D01*
X155465840Y-44802000D02*
X138687897Y-44802000D01*
X168438840Y-118000000D02*
X165438840Y-118000000D01*
X123213840Y-45500000D02*
X121713840Y-47000000D01*
X138036840Y-43601000D02*
X169539840Y-43601000D01*
X137837840Y-43800000D02*
X136137840Y-45500000D01*
X149938840Y-81000000D02*
X150438840Y-80500000D01*
X145488840Y-93000000D02*
X145488840Y-91950000D01*
X145488840Y-91950000D02*
X148438840Y-89000000D01*
X137837840Y-43951943D02*
X137837840Y-43800000D01*
X111438840Y-115500000D02*
X111438840Y-111725000D01*
X169338840Y-93600000D02*
X167938840Y-93600000D01*
X137837840Y-43800000D02*
X138036840Y-43601000D01*
X169837840Y-43899000D02*
X169837840Y-93101000D01*
X147438840Y-84000000D02*
X150438840Y-84000000D01*
X169539840Y-43601000D02*
X169837840Y-43899000D01*
X153438840Y-82500000D02*
X148976340Y-82500000D01*
X168438840Y-118000000D02*
X168438840Y-127775000D01*
X111438840Y-128275000D02*
X111438840Y-115500000D01*
X168438840Y-111725000D02*
X168438840Y-118000000D01*
X147438840Y-81037500D02*
X147476340Y-81000000D01*
%TO.N,/E_ink_HAT/VCC_EPD_OUT*%
X134500000Y-96500000D02*
X137000000Y-94000000D01*
X145901340Y-102000000D02*
X145901340Y-97651340D01*
X146088840Y-96350000D02*
X146438840Y-96000000D01*
X146438840Y-96000000D02*
X146438840Y-97000000D01*
X146438840Y-97000000D02*
X149938840Y-100500000D01*
X137000000Y-94000000D02*
X144438840Y-94000000D01*
X144438840Y-94000000D02*
X146438840Y-96000000D01*
X146088840Y-101812500D02*
X145901340Y-102000000D01*
X146438840Y-97113840D02*
X146438840Y-96000000D01*
X145901340Y-97651340D02*
X146438840Y-97113840D01*
%TO.N,Net-(D4-K)*%
X140901340Y-103500000D02*
X138088840Y-103500000D01*
X138088840Y-99500000D02*
X138088840Y-103500000D01*
%TO.N,Net-(D5-K)*%
X142976340Y-103500000D02*
X142976340Y-107982500D01*
X142976340Y-107982500D02*
X142788840Y-108170000D01*
X142618840Y-108000000D02*
X142788840Y-108170000D01*
X142976340Y-101576340D02*
X142976340Y-103500000D01*
X137000000Y-95600000D02*
X142976340Y-101576340D01*
X138088840Y-108000000D02*
X142618840Y-108000000D01*
%TO.N,Net-(J3-Pin_20)*%
X132438840Y-132000000D02*
X132438840Y-133462500D01*
X134438840Y-130000000D02*
X132438840Y-132000000D01*
%TO.N,/E_ink_HAT/PREVGH*%
X134938840Y-112500000D02*
X134788840Y-112350000D01*
X134788840Y-112350000D02*
X134788840Y-108000000D01*
%TO.N,Net-(J3-Pin_22)*%
X132938840Y-130500000D02*
X129976340Y-133462500D01*
X129976340Y-133462500D02*
X129438840Y-133462500D01*
X132938840Y-130000000D02*
X132938840Y-130500000D01*
%TO.N,/E_ink_HAT/PREVGL*%
X132938840Y-120000000D02*
X130438840Y-122500000D01*
X132938840Y-101350000D02*
X132938840Y-120000000D01*
X134788840Y-99500000D02*
X132938840Y-101350000D01*
%TO.N,Net-(J3-Pin_5)*%
X142465227Y-129973613D02*
X140938840Y-131500000D01*
X142588840Y-127500000D02*
X142465227Y-127623613D01*
X140938840Y-132462500D02*
X139938840Y-133462500D01*
X142465227Y-127623613D02*
X142465227Y-129973613D01*
X140938840Y-131500000D02*
X140938840Y-132462500D01*
%TO.N,Net-(J3-Pin_18)*%
X136438840Y-130000000D02*
X136438840Y-133000000D01*
%TO.N,Net-(J3-Pin_19)*%
X134438840Y-131500000D02*
X134438840Y-133462500D01*
X135438840Y-130500000D02*
X134438840Y-131500000D01*
X135438840Y-130000000D02*
X135438840Y-130500000D01*
X134438840Y-133462500D02*
X134901340Y-133000000D01*
%TO.N,Net-(J3-Pin_24)*%
X129938840Y-131950002D02*
X128488838Y-131950002D01*
X127938840Y-132500000D02*
X127901340Y-132500000D01*
X127901340Y-132500000D02*
X126938840Y-133462500D01*
X128488838Y-131950002D02*
X127938840Y-132500000D01*
X132888842Y-129000000D02*
X129938840Y-131950002D01*
%TO.N,Net-(J3-Pin_4)*%
X143388843Y-127500000D02*
X143388843Y-128600003D01*
X143438840Y-132000000D02*
X142438840Y-133000000D01*
X143438840Y-128650000D02*
X143438840Y-132000000D01*
X143388843Y-128600003D02*
X143438840Y-128650000D01*
%TO.N,ESP32_IO0*%
X141938840Y-57500000D02*
X129438840Y-70000000D01*
X129438840Y-70000000D02*
X129438840Y-73000000D01*
%TO.N,ESP32_DP*%
X163998840Y-139560000D02*
X163998840Y-146440000D01*
X162438840Y-138000000D02*
X163998840Y-139560000D01*
X163998840Y-146440000D02*
X163588658Y-146850182D01*
X161938840Y-138000000D02*
X162438840Y-138000000D01*
%TO.N,ESP32_DN*%
X160938840Y-140000000D02*
X160938840Y-144500000D01*
X160938840Y-144500000D02*
X162697840Y-144500000D01*
X161438840Y-139500000D02*
X160938840Y-140000000D01*
X162697840Y-144500000D02*
X163397840Y-143800000D01*
%TO.N,BUTTON_B*%
X126539840Y-79899000D02*
X126539840Y-68899000D01*
X114163840Y-107275000D02*
X114438840Y-107000000D01*
X111438840Y-107275000D02*
X114163840Y-107275000D01*
X126438840Y-80000000D02*
X126539840Y-79899000D01*
X132438840Y-63000000D02*
X132438840Y-59500000D01*
X126539840Y-68899000D02*
X130938840Y-64500000D01*
X130938840Y-64500000D02*
X132438840Y-63000000D01*
%TO.N,BUTTON_A*%
X127438840Y-80000000D02*
X127438840Y-68567100D01*
X111438840Y-132725000D02*
X115438840Y-128725000D01*
X127438840Y-68567100D02*
X133938840Y-62067100D01*
X133938840Y-62067100D02*
X133938840Y-60500000D01*
X115438840Y-128725000D02*
X115438840Y-116500000D01*
%TO.N,DPAD_RIGHT*%
X131858078Y-58419238D02*
X130777316Y-59500000D01*
X128438840Y-49275000D02*
X126163840Y-47000000D01*
X130777316Y-59500000D02*
X130438840Y-59500000D01*
X130438840Y-59500000D02*
X128438840Y-57500000D01*
X128438840Y-57500000D02*
X128438840Y-49275000D01*
%TO.N,DPAD_UP*%
X168438840Y-132225000D02*
X164438840Y-128225000D01*
X164438840Y-128225000D02*
X164438840Y-77000000D01*
X164438840Y-77000000D02*
X152938840Y-65500000D01*
X152938840Y-65500000D02*
X150438840Y-65500000D01*
X150438840Y-65500000D02*
X135438840Y-65500000D01*
%TO.N,DPAD_DOWN*%
X152505940Y-64500000D02*
X135938840Y-64500000D01*
X164839840Y-103676000D02*
X164839840Y-76833900D01*
X168438840Y-107275000D02*
X164839840Y-103676000D01*
X164839840Y-76833900D02*
X152505940Y-64500000D01*
%TO.N,DPAD_LEFT*%
X140938840Y-47000000D02*
X140438840Y-47500000D01*
X153213840Y-47000000D02*
X140938840Y-47000000D01*
%TO.N,Net-(J1-CC1)*%
X156438840Y-139500000D02*
X156438840Y-144000000D01*
X161438840Y-137000000D02*
X159438840Y-139000000D01*
X156938840Y-139000000D02*
X156438840Y-139500000D01*
X156438840Y-144000000D02*
X154938840Y-144000000D01*
X159438840Y-139000000D02*
X156938840Y-139000000D01*
%TO.N,/E_ink_HAT/GDR*%
X144088840Y-108170000D02*
X144758840Y-107500000D01*
X148938840Y-108000000D02*
X148438840Y-107500000D01*
X148438840Y-107500000D02*
X146938840Y-107500000D01*
X144758840Y-107500000D02*
X146938840Y-107500000D01*
%TO.N,EPD_RST*%
X145438840Y-77500000D02*
X143938840Y-79000000D01*
X144438840Y-84000000D02*
X145438840Y-84000000D01*
X143038840Y-77500000D02*
X142038840Y-76500000D01*
X143938840Y-79000000D02*
X143938840Y-83500000D01*
X143938840Y-83500000D02*
X144438840Y-84000000D01*
X145438840Y-77500000D02*
X143038840Y-77500000D01*
%TO.N,/E_ink_HAT/RESE*%
X144608840Y-112000000D02*
X146938840Y-112000000D01*
X143438840Y-110830000D02*
X144608840Y-112000000D01*
X146938840Y-114500000D02*
X146938840Y-112000000D01*
%TO.N,SD_DAT1*%
X129938840Y-78500000D02*
X129938840Y-77000000D01*
%TO.N,Net-(Q5-G)*%
X150438840Y-89950000D02*
X147388840Y-93000000D01*
X142376340Y-86000000D02*
X150438840Y-86000000D01*
X150438840Y-86000000D02*
X150438840Y-89950000D01*
%TO.N,Net-(Q6-B)*%
X147438840Y-76000000D02*
X146438840Y-75000000D01*
X147438840Y-77500000D02*
X147438840Y-76000000D01*
X146438840Y-75000000D02*
X141938840Y-75000000D01*
X140938840Y-76000000D02*
X140938840Y-84612500D01*
X141938840Y-75000000D02*
X140938840Y-76000000D01*
X140938840Y-84612500D02*
X140501340Y-85050000D01*
X150438840Y-77500000D02*
X147438840Y-77500000D01*
%TO.N,CHG_STATUS*%
X152938840Y-132500000D02*
X147938840Y-137500000D01*
X147938840Y-137500000D02*
X122438840Y-137500000D01*
%TO.N,Net-(R18-Pad1)*%
X152438840Y-77500000D02*
X152438840Y-80500000D01*
%TD*%
%TA.AperFunction,Conductor*%
%TO.N,GND*%
G36*
X149325578Y-78120185D02*
G01*
X149371333Y-78172989D01*
X149376243Y-78185492D01*
X149404026Y-78269334D01*
X149496128Y-78418656D01*
X149620184Y-78542712D01*
X149769506Y-78634814D01*
X149936043Y-78689999D01*
X150038831Y-78700500D01*
X150838848Y-78700499D01*
X150838856Y-78700498D01*
X150838859Y-78700498D01*
X150895142Y-78694748D01*
X150941637Y-78689999D01*
X151108174Y-78634814D01*
X151257496Y-78542712D01*
X151351159Y-78449049D01*
X151412482Y-78415564D01*
X151482174Y-78420548D01*
X151526521Y-78449049D01*
X151620184Y-78542712D01*
X151769506Y-78634814D01*
X151769507Y-78634814D01*
X151775653Y-78638605D01*
X151774546Y-78640399D01*
X151819177Y-78679687D01*
X151838340Y-78745908D01*
X151838340Y-79254091D01*
X151818655Y-79321130D01*
X151774571Y-79359641D01*
X151775653Y-79361395D01*
X151769507Y-79365185D01*
X151769506Y-79365186D01*
X151679109Y-79420943D01*
X151620182Y-79457289D01*
X151526521Y-79550951D01*
X151465198Y-79584436D01*
X151395506Y-79579452D01*
X151351159Y-79550951D01*
X151257497Y-79457289D01*
X151257496Y-79457288D01*
X151108174Y-79365186D01*
X150941637Y-79310001D01*
X150941635Y-79310000D01*
X150838850Y-79299500D01*
X150038838Y-79299500D01*
X150038820Y-79299501D01*
X149936043Y-79310000D01*
X149936040Y-79310001D01*
X149769508Y-79365185D01*
X149769503Y-79365187D01*
X149620182Y-79457289D01*
X149496129Y-79581342D01*
X149404027Y-79730663D01*
X149404025Y-79730668D01*
X149377652Y-79810256D01*
X149348841Y-79897203D01*
X149348841Y-79897204D01*
X149348840Y-79897204D01*
X149338340Y-79999983D01*
X149338340Y-80275500D01*
X149318655Y-80342539D01*
X149265851Y-80388294D01*
X149214340Y-80399500D01*
X148652425Y-80399500D01*
X148585386Y-80379815D01*
X148539631Y-80327011D01*
X148534719Y-80314504D01*
X148498654Y-80205666D01*
X148406552Y-80056344D01*
X148282496Y-79932288D01*
X148146167Y-79848200D01*
X148133176Y-79840187D01*
X148133171Y-79840185D01*
X148124751Y-79837395D01*
X147966637Y-79785001D01*
X147966635Y-79785000D01*
X147863850Y-79774500D01*
X147088838Y-79774500D01*
X147088820Y-79774501D01*
X146986043Y-79785000D01*
X146986040Y-79785001D01*
X146819508Y-79840185D01*
X146819503Y-79840187D01*
X146670182Y-79932289D01*
X146546128Y-80056343D01*
X146546123Y-80056349D01*
X146544081Y-80059661D01*
X146542087Y-80061453D01*
X146541647Y-80062011D01*
X146541551Y-80061935D01*
X146492131Y-80106383D01*
X146423168Y-80117602D01*
X146359087Y-80089755D01*
X146333008Y-80059656D01*
X146331159Y-80056659D01*
X146331156Y-80056655D01*
X146207185Y-79932684D01*
X146057964Y-79840643D01*
X146057959Y-79840641D01*
X145891537Y-79785494D01*
X145891530Y-79785493D01*
X145788826Y-79775000D01*
X145651340Y-79775000D01*
X145651340Y-82224999D01*
X145788812Y-82224999D01*
X145788826Y-82224998D01*
X145891537Y-82214505D01*
X146057959Y-82159358D01*
X146057964Y-82159356D01*
X146207185Y-82067315D01*
X146331158Y-81943342D01*
X146333005Y-81940348D01*
X146334809Y-81938724D01*
X146335638Y-81937677D01*
X146335816Y-81937818D01*
X146384950Y-81893621D01*
X146453913Y-81882396D01*
X146517996Y-81910236D01*
X146544083Y-81940341D01*
X146546128Y-81943656D01*
X146670184Y-82067712D01*
X146779437Y-82135099D01*
X146826161Y-82187047D01*
X146838340Y-82240638D01*
X146838340Y-82754091D01*
X146818655Y-82821130D01*
X146774571Y-82859641D01*
X146775653Y-82861395D01*
X146769507Y-82865185D01*
X146769506Y-82865186D01*
X146694921Y-82911190D01*
X146620182Y-82957289D01*
X146526521Y-83050951D01*
X146465198Y-83084436D01*
X146395506Y-83079452D01*
X146351159Y-83050951D01*
X146257497Y-82957289D01*
X146257496Y-82957288D01*
X146149244Y-82890518D01*
X146108176Y-82865187D01*
X146108171Y-82865185D01*
X146106702Y-82864698D01*
X145941637Y-82810001D01*
X145941635Y-82810000D01*
X145838850Y-82799500D01*
X145038838Y-82799500D01*
X145038820Y-82799501D01*
X144936043Y-82810000D01*
X144936040Y-82810001D01*
X144769508Y-82865185D01*
X144769506Y-82865185D01*
X144769506Y-82865186D01*
X144769502Y-82865187D01*
X144769501Y-82865189D01*
X144728435Y-82890518D01*
X144661042Y-82908957D01*
X144594379Y-82888033D01*
X144549611Y-82834391D01*
X144539340Y-82784978D01*
X144539340Y-82254854D01*
X144559025Y-82187815D01*
X144611829Y-82142060D01*
X144680987Y-82132116D01*
X144728438Y-82149316D01*
X144744713Y-82159355D01*
X144744720Y-82159358D01*
X144911142Y-82214505D01*
X144911149Y-82214506D01*
X145013859Y-82224999D01*
X145151339Y-82224999D01*
X145151340Y-82224998D01*
X145151340Y-79775000D01*
X145013867Y-79775000D01*
X145013852Y-79775001D01*
X144911142Y-79785494D01*
X144744720Y-79840641D01*
X144744708Y-79840647D01*
X144728434Y-79850685D01*
X144661042Y-79869124D01*
X144594378Y-79848200D01*
X144549610Y-79794557D01*
X144539340Y-79745145D01*
X144539340Y-79300096D01*
X144559025Y-79233057D01*
X144575655Y-79212419D01*
X145051256Y-78736817D01*
X145112579Y-78703333D01*
X145138937Y-78700499D01*
X145838842Y-78700499D01*
X145838848Y-78700499D01*
X145941637Y-78689999D01*
X146108174Y-78634814D01*
X146257496Y-78542712D01*
X146351159Y-78449049D01*
X146412482Y-78415564D01*
X146482174Y-78420548D01*
X146526521Y-78449049D01*
X146620184Y-78542712D01*
X146769506Y-78634814D01*
X146936043Y-78689999D01*
X147038831Y-78700500D01*
X147838848Y-78700499D01*
X147838856Y-78700498D01*
X147838859Y-78700498D01*
X147895142Y-78694748D01*
X147941637Y-78689999D01*
X148108174Y-78634814D01*
X148257496Y-78542712D01*
X148381552Y-78418656D01*
X148473654Y-78269334D01*
X148501435Y-78185495D01*
X148541208Y-78128051D01*
X148605724Y-78101228D01*
X148619141Y-78100500D01*
X149258539Y-78100500D01*
X149325578Y-78120185D01*
G37*
%TD.AperFunction*%
%TA.AperFunction,Conductor*%
G36*
X170881379Y-43520185D02*
G01*
X170927134Y-43572989D01*
X170938340Y-43624500D01*
X170938340Y-151875500D01*
X170918655Y-151942539D01*
X170865851Y-151988294D01*
X170814340Y-151999500D01*
X108063340Y-151999500D01*
X107996301Y-151979815D01*
X107950546Y-151927011D01*
X107939340Y-151875500D01*
X107939340Y-147328031D01*
X108499500Y-147328031D01*
X108499500Y-147671969D01*
X108507077Y-147748897D01*
X108533210Y-148014249D01*
X108600308Y-148351572D01*
X108700150Y-148680706D01*
X108831770Y-148998464D01*
X108831772Y-148998469D01*
X108993893Y-149301775D01*
X108993904Y-149301793D01*
X109184975Y-149587751D01*
X109184985Y-149587765D01*
X109403176Y-149853632D01*
X109646367Y-150096823D01*
X109646372Y-150096827D01*
X109646373Y-150096828D01*
X109912240Y-150315019D01*
X110198213Y-150506100D01*
X110198222Y-150506105D01*
X110198224Y-150506106D01*
X110501530Y-150668227D01*
X110501532Y-150668227D01*
X110501538Y-150668231D01*
X110819295Y-150799850D01*
X111148422Y-150899690D01*
X111485750Y-150966789D01*
X111828031Y-151000500D01*
X111828034Y-151000500D01*
X112171966Y-151000500D01*
X112171969Y-151000500D01*
X112514250Y-150966789D01*
X112851578Y-150899690D01*
X113180705Y-150799850D01*
X113498462Y-150668231D01*
X113801787Y-150506100D01*
X114087760Y-150315019D01*
X114353627Y-150096828D01*
X114596828Y-149853627D01*
X114815019Y-149587760D01*
X115006100Y-149301787D01*
X115168231Y-148998462D01*
X115299850Y-148680705D01*
X115399690Y-148351578D01*
X115466789Y-148014250D01*
X115500500Y-147671969D01*
X115500500Y-147328031D01*
X115466789Y-146985750D01*
X115399690Y-146648422D01*
X115299850Y-146319295D01*
X115168231Y-146001538D01*
X115161909Y-145989711D01*
X115006106Y-145698224D01*
X115006105Y-145698222D01*
X115006100Y-145698213D01*
X114815019Y-145412240D01*
X114596828Y-145146373D01*
X114596827Y-145146372D01*
X114596823Y-145146367D01*
X114353632Y-144903176D01*
X114144790Y-144731784D01*
X114087760Y-144684981D01*
X113801787Y-144493900D01*
X113801782Y-144493897D01*
X113801775Y-144493893D01*
X113498469Y-144331772D01*
X113498464Y-144331770D01*
X113496081Y-144330783D01*
X113261222Y-144233501D01*
X113180706Y-144200150D01*
X112851572Y-144100308D01*
X112514248Y-144033210D01*
X112514249Y-144033210D01*
X112256456Y-144007821D01*
X112171969Y-143999500D01*
X111828031Y-143999500D01*
X111749966Y-144007188D01*
X111485750Y-144033210D01*
X111148427Y-144100308D01*
X110819293Y-144200150D01*
X110501535Y-144331770D01*
X110501530Y-144331772D01*
X110198224Y-144493893D01*
X110198206Y-144493904D01*
X109912248Y-144684975D01*
X109912242Y-144684979D01*
X109912240Y-144684981D01*
X109882493Y-144709394D01*
X109646367Y-144903176D01*
X109403176Y-145146367D01*
X109184985Y-145412234D01*
X109184975Y-145412248D01*
X108993904Y-145698206D01*
X108993893Y-145698224D01*
X108831772Y-146001530D01*
X108831770Y-146001535D01*
X108700150Y-146319293D01*
X108600308Y-146648427D01*
X108533210Y-146985750D01*
X108511185Y-147209390D01*
X108499500Y-147328031D01*
X107939340Y-147328031D01*
X107939340Y-141421153D01*
X117699500Y-141421153D01*
X117699500Y-141578846D01*
X117730261Y-141733489D01*
X117730264Y-141733501D01*
X117790602Y-141879172D01*
X117790609Y-141879184D01*
X117848022Y-141965108D01*
X117868900Y-142031785D01*
X117868920Y-142033999D01*
X117868920Y-147943910D01*
X117868919Y-147943928D01*
X117868919Y-148109634D01*
X117868918Y-148109634D01*
X117909843Y-148262365D01*
X117938778Y-148312480D01*
X117938779Y-148312484D01*
X117938780Y-148312484D01*
X117988899Y-148399294D01*
X117988901Y-148399297D01*
X118107769Y-148518165D01*
X118107775Y-148518170D01*
X120554979Y-150965374D01*
X120554989Y-150965385D01*
X120559319Y-150969715D01*
X120559320Y-150969716D01*
X120671124Y-151081520D01*
X120757935Y-151131639D01*
X120757937Y-151131641D01*
X120795991Y-151153611D01*
X120808055Y-151160577D01*
X120960783Y-151201501D01*
X120960786Y-151201501D01*
X121126493Y-151201501D01*
X121126509Y-151201500D01*
X167251171Y-151201500D01*
X167251187Y-151201501D01*
X167258783Y-151201501D01*
X167416894Y-151201501D01*
X167416897Y-151201501D01*
X167569625Y-151160577D01*
X167619744Y-151131639D01*
X167706556Y-151081520D01*
X167818360Y-150969716D01*
X167919360Y-150868716D01*
X167998417Y-150731784D01*
X168039341Y-150579057D01*
X168039341Y-150420942D01*
X168039341Y-150413347D01*
X168039340Y-150413329D01*
X168039340Y-139589060D01*
X168039341Y-139589047D01*
X168039341Y-139420944D01*
X168037660Y-139414669D01*
X167998417Y-139268216D01*
X167983425Y-139242248D01*
X167919364Y-139131290D01*
X167919358Y-139131282D01*
X167773413Y-138985337D01*
X167739928Y-138924014D01*
X167739477Y-138921847D01*
X167726173Y-138854965D01*
X167708577Y-138766503D01*
X167697269Y-138739202D01*
X167648237Y-138620827D01*
X167648230Y-138620814D01*
X167560629Y-138489711D01*
X167560626Y-138489707D01*
X167449132Y-138378213D01*
X167449128Y-138378210D01*
X167318025Y-138290609D01*
X167318012Y-138290602D01*
X167172341Y-138230264D01*
X167172329Y-138230261D01*
X167017685Y-138199500D01*
X167017682Y-138199500D01*
X166859998Y-138199500D01*
X166859995Y-138199500D01*
X166705350Y-138230261D01*
X166705338Y-138230264D01*
X166559667Y-138290602D01*
X166559654Y-138290609D01*
X166428551Y-138378210D01*
X166428547Y-138378213D01*
X166317053Y-138489707D01*
X166317050Y-138489711D01*
X166229449Y-138620814D01*
X166229442Y-138620827D01*
X166169104Y-138766498D01*
X166169101Y-138766510D01*
X166138340Y-138921153D01*
X166138340Y-139078846D01*
X166169101Y-139233489D01*
X166169104Y-139233501D01*
X166229442Y-139379172D01*
X166229449Y-139379185D01*
X166317050Y-139510288D01*
X166317053Y-139510292D01*
X166428547Y-139621786D01*
X166428551Y-139621789D01*
X166559654Y-139709390D01*
X166559667Y-139709397D01*
X166647070Y-139745599D01*
X166705343Y-139769737D01*
X166738531Y-139776338D01*
X166800440Y-139808721D01*
X166835016Y-139869436D01*
X166838340Y-139897955D01*
X166838340Y-141381666D01*
X166818655Y-141448705D01*
X166765851Y-141494460D01*
X166696693Y-141504404D01*
X166645450Y-141484769D01*
X166596391Y-141451989D01*
X166596380Y-141451983D01*
X166432507Y-141384106D01*
X166432499Y-141384104D01*
X166315148Y-141360761D01*
X166253237Y-141328376D01*
X166218663Y-141267660D01*
X166215340Y-141239144D01*
X166215340Y-141224236D01*
X166215340Y-141224234D01*
X166176121Y-141077865D01*
X166100355Y-140946635D01*
X165993205Y-140839485D01*
X165908550Y-140790609D01*
X165861976Y-140763719D01*
X165788790Y-140744109D01*
X165715606Y-140724500D01*
X165564074Y-140724500D01*
X165417703Y-140763719D01*
X165286475Y-140839485D01*
X165286472Y-140839487D01*
X165179327Y-140946632D01*
X165179325Y-140946635D01*
X165103559Y-141077863D01*
X165064340Y-141224234D01*
X165064340Y-141375765D01*
X165103559Y-141522136D01*
X165123390Y-141556484D01*
X165179325Y-141653365D01*
X165286475Y-141760515D01*
X165286477Y-141760516D01*
X165292926Y-141765465D01*
X165291300Y-141767583D01*
X165330432Y-141808623D01*
X165343656Y-141877230D01*
X165334779Y-141912895D01*
X165303945Y-141987337D01*
X165303943Y-141987341D01*
X165269340Y-142161304D01*
X165269340Y-142938695D01*
X165303943Y-143112658D01*
X165303946Y-143112667D01*
X165371823Y-143276540D01*
X165371830Y-143276553D01*
X165470374Y-143424033D01*
X165470375Y-143424034D01*
X165470376Y-143424035D01*
X165533022Y-143486681D01*
X165566506Y-143548002D01*
X165569340Y-143574361D01*
X165569340Y-147583170D01*
X165569339Y-147583188D01*
X165569339Y-147748896D01*
X165570400Y-147756954D01*
X165567537Y-147757330D01*
X165566204Y-147813261D01*
X165527039Y-147871122D01*
X165462810Y-147898624D01*
X165448093Y-147899500D01*
X158482917Y-147899500D01*
X158415878Y-147879815D01*
X158370123Y-147827011D01*
X158368367Y-147822978D01*
X158347853Y-147773453D01*
X158347849Y-147773446D01*
X158249304Y-147625965D01*
X158249301Y-147625961D01*
X158123878Y-147500538D01*
X158123874Y-147500535D01*
X157976393Y-147401990D01*
X157976380Y-147401983D01*
X157812507Y-147334106D01*
X157812498Y-147334103D01*
X157638534Y-147299500D01*
X157638531Y-147299500D01*
X157461149Y-147299500D01*
X157461146Y-147299500D01*
X157287181Y-147334103D01*
X157287172Y-147334106D01*
X157123299Y-147401983D01*
X157123286Y-147401990D01*
X156975805Y-147500535D01*
X156975801Y-147500538D01*
X156850378Y-147625961D01*
X156850375Y-147625965D01*
X156751830Y-147773446D01*
X156751826Y-147773453D01*
X156738971Y-147804488D01*
X156731323Y-147822952D01*
X156687484Y-147877355D01*
X156621190Y-147899421D01*
X156616763Y-147899500D01*
X141238937Y-147899500D01*
X141171898Y-147879815D01*
X141151256Y-147863181D01*
X137209228Y-143921153D01*
X154138340Y-143921153D01*
X154138340Y-144078846D01*
X154169101Y-144233489D01*
X154169104Y-144233501D01*
X154229442Y-144379172D01*
X154229449Y-144379185D01*
X154317050Y-144510288D01*
X154317053Y-144510292D01*
X154428547Y-144621786D01*
X154428551Y-144621789D01*
X154559654Y-144709390D01*
X154559667Y-144709397D01*
X154705338Y-144769735D01*
X154705343Y-144769737D01*
X154859993Y-144800499D01*
X154859996Y-144800500D01*
X154859998Y-144800500D01*
X155017684Y-144800500D01*
X155017685Y-144800499D01*
X155172337Y-144769737D01*
X155318019Y-144709394D01*
X155408802Y-144648735D01*
X155449715Y-144621398D01*
X155516393Y-144600520D01*
X155518606Y-144600500D01*
X156517895Y-144600500D01*
X156517897Y-144600500D01*
X156670624Y-144559577D01*
X156807556Y-144480520D01*
X156919360Y-144368716D01*
X156998417Y-144231784D01*
X157039340Y-144079057D01*
X157039340Y-143552361D01*
X157045578Y-143531115D01*
X157047158Y-143509027D01*
X157055230Y-143498243D01*
X157059025Y-143485322D01*
X157075758Y-143470822D01*
X157089030Y-143453094D01*
X157101650Y-143448386D01*
X157111829Y-143439567D01*
X157133746Y-143436415D01*
X157154494Y-143428677D01*
X157167654Y-143431539D01*
X157180987Y-143429623D01*
X157201130Y-143438822D01*
X157222767Y-143443529D01*
X157240492Y-143456797D01*
X157244543Y-143458648D01*
X157251021Y-143464680D01*
X157273021Y-143486680D01*
X157306506Y-143548003D01*
X157309340Y-143574361D01*
X157309340Y-144323170D01*
X157309339Y-144323188D01*
X157309339Y-144488894D01*
X157309338Y-144488894D01*
X157350263Y-144641625D01*
X157375291Y-144684975D01*
X157375295Y-144684981D01*
X157424229Y-144769738D01*
X157429319Y-144778554D01*
X157429321Y-144778557D01*
X157548189Y-144897425D01*
X157548195Y-144897430D01*
X159165425Y-146514660D01*
X159198910Y-146575983D01*
X159199361Y-146578149D01*
X159230261Y-146733491D01*
X159230264Y-146733501D01*
X159290602Y-146879172D01*
X159290609Y-146879185D01*
X159378210Y-147010288D01*
X159378213Y-147010292D01*
X159489707Y-147121786D01*
X159489711Y-147121789D01*
X159620814Y-147209390D01*
X159620827Y-147209397D01*
X159669040Y-147229367D01*
X159766503Y-147269737D01*
X159916131Y-147299500D01*
X159921153Y-147300499D01*
X159921156Y-147300500D01*
X159921158Y-147300500D01*
X160078844Y-147300500D01*
X160078845Y-147300499D01*
X160233497Y-147269737D01*
X160379179Y-147209394D01*
X160510289Y-147121789D01*
X160621789Y-147010289D01*
X160709394Y-146879179D01*
X160769737Y-146733497D01*
X160800500Y-146578842D01*
X160800500Y-146421158D01*
X160800500Y-146421155D01*
X160800499Y-146421153D01*
X160788522Y-146360943D01*
X160769737Y-146266503D01*
X160753952Y-146228395D01*
X160709397Y-146120827D01*
X160709390Y-146120814D01*
X160621789Y-145989711D01*
X160621786Y-145989707D01*
X160510292Y-145878213D01*
X160510288Y-145878210D01*
X160379185Y-145790609D01*
X160379172Y-145790602D01*
X160233501Y-145730264D01*
X160233491Y-145730261D01*
X160078151Y-145699362D01*
X160016241Y-145666977D01*
X160014662Y-145665426D01*
X158546659Y-144197423D01*
X158513174Y-144136100D01*
X158510340Y-144109742D01*
X158510340Y-143574361D01*
X158530025Y-143507322D01*
X158546654Y-143486684D01*
X158609304Y-143424035D01*
X158707853Y-143276547D01*
X158775734Y-143112666D01*
X158780122Y-143090609D01*
X158810339Y-142938695D01*
X158810340Y-142938693D01*
X158810340Y-142161306D01*
X158810339Y-142161304D01*
X158775736Y-141987341D01*
X158775735Y-141987339D01*
X158775734Y-141987338D01*
X158775734Y-141987334D01*
X158773850Y-141982786D01*
X158766379Y-141913322D01*
X158797651Y-141850841D01*
X158826405Y-141827949D01*
X158943205Y-141760515D01*
X159050355Y-141653365D01*
X159126121Y-141522135D01*
X159165340Y-141375766D01*
X159165340Y-141224234D01*
X159126121Y-141077865D01*
X159050355Y-140946635D01*
X158943205Y-140839485D01*
X158858550Y-140790609D01*
X158811976Y-140763719D01*
X158738790Y-140744109D01*
X158665606Y-140724500D01*
X158214074Y-140724500D01*
X158067703Y-140763719D01*
X157936475Y-140839485D01*
X157936472Y-140839487D01*
X157829327Y-140946632D01*
X157829325Y-140946635D01*
X157753559Y-141077863D01*
X157714340Y-141224234D01*
X157714340Y-141273430D01*
X157694655Y-141340469D01*
X157641851Y-141386224D01*
X157637793Y-141387991D01*
X157483295Y-141451985D01*
X157483286Y-141451990D01*
X157335805Y-141550535D01*
X157335801Y-141550538D01*
X157251021Y-141635319D01*
X157189698Y-141668804D01*
X157120006Y-141663820D01*
X157064073Y-141621948D01*
X157039656Y-141556484D01*
X157039340Y-141547638D01*
X157039340Y-139800098D01*
X157047984Y-139770660D01*
X157054508Y-139740670D01*
X157058263Y-139735653D01*
X157059025Y-139733059D01*
X157075659Y-139712416D01*
X157151258Y-139636818D01*
X157212582Y-139603334D01*
X157238939Y-139600500D01*
X159352171Y-139600500D01*
X159352187Y-139600501D01*
X159359783Y-139600501D01*
X159517894Y-139600501D01*
X159517897Y-139600501D01*
X159670625Y-139559577D01*
X159720744Y-139530639D01*
X159807556Y-139480520D01*
X159919360Y-139368716D01*
X159919360Y-139368714D01*
X159929568Y-139358507D01*
X159929570Y-139358504D01*
X161004336Y-138283737D01*
X161065657Y-138250254D01*
X161135349Y-138255238D01*
X161191282Y-138297110D01*
X161206576Y-138323967D01*
X161229444Y-138379175D01*
X161229449Y-138379185D01*
X161317050Y-138510288D01*
X161317053Y-138510292D01*
X161317954Y-138511193D01*
X161318275Y-138511780D01*
X161320916Y-138514999D01*
X161320305Y-138515499D01*
X161351439Y-138572516D01*
X161346455Y-138642208D01*
X161304583Y-138698141D01*
X161254466Y-138720491D01*
X161205347Y-138730261D01*
X161205338Y-138730264D01*
X161059667Y-138790602D01*
X161059654Y-138790609D01*
X160928551Y-138878210D01*
X160928547Y-138878213D01*
X160817053Y-138989707D01*
X160817050Y-138989711D01*
X160729449Y-139120814D01*
X160729442Y-139120827D01*
X160669104Y-139266498D01*
X160669101Y-139266508D01*
X160638202Y-139421847D01*
X160629437Y-139438602D01*
X160625418Y-139457081D01*
X160606674Y-139482118D01*
X160605817Y-139483758D01*
X160604267Y-139485335D01*
X160563064Y-139526538D01*
X160563052Y-139526552D01*
X160458318Y-139631286D01*
X160413225Y-139709392D01*
X160413224Y-139709393D01*
X160379263Y-139768214D01*
X160379263Y-139768215D01*
X160338339Y-139920943D01*
X160338339Y-139920945D01*
X160338339Y-140089046D01*
X160338340Y-140089059D01*
X160338340Y-144420943D01*
X160338340Y-144579057D01*
X160373265Y-144709397D01*
X160379263Y-144731783D01*
X160379266Y-144731790D01*
X160458315Y-144868709D01*
X160458318Y-144868713D01*
X160458320Y-144868716D01*
X160570124Y-144980520D01*
X160570126Y-144980521D01*
X160570130Y-144980524D01*
X160707049Y-145059573D01*
X160707056Y-145059577D01*
X160859783Y-145100500D01*
X162611171Y-145100500D01*
X162611187Y-145100501D01*
X162618783Y-145100501D01*
X162776894Y-145100501D01*
X162776897Y-145100501D01*
X162929625Y-145059577D01*
X162979744Y-145030639D01*
X163066556Y-144980520D01*
X163178360Y-144868716D01*
X163178360Y-144868714D01*
X163186658Y-144860417D01*
X163247981Y-144826932D01*
X163317673Y-144831916D01*
X163373607Y-144873787D01*
X163398024Y-144939251D01*
X163398340Y-144948098D01*
X163398340Y-145979705D01*
X163378655Y-146046744D01*
X163325851Y-146092499D01*
X163321793Y-146094266D01*
X163209481Y-146140786D01*
X163209472Y-146140791D01*
X163078369Y-146228392D01*
X163078365Y-146228395D01*
X162966871Y-146339889D01*
X162966868Y-146339893D01*
X162879267Y-146470996D01*
X162879260Y-146471009D01*
X162818922Y-146616680D01*
X162818919Y-146616692D01*
X162788158Y-146771335D01*
X162788158Y-146929028D01*
X162818919Y-147083671D01*
X162818922Y-147083683D01*
X162879260Y-147229354D01*
X162879267Y-147229367D01*
X162966868Y-147360470D01*
X162966871Y-147360474D01*
X163078365Y-147471968D01*
X163078369Y-147471971D01*
X163209472Y-147559572D01*
X163209485Y-147559579D01*
X163355156Y-147619917D01*
X163355161Y-147619919D01*
X163509811Y-147650681D01*
X163509814Y-147650682D01*
X163509816Y-147650682D01*
X163667502Y-147650682D01*
X163667503Y-147650681D01*
X163822155Y-147619919D01*
X163967837Y-147559576D01*
X164098947Y-147471971D01*
X164210447Y-147360471D01*
X164298052Y-147229361D01*
X164358395Y-147083679D01*
X164389158Y-146929024D01*
X164389158Y-146929022D01*
X164389295Y-146928334D01*
X164410273Y-146880084D01*
X164416132Y-146871943D01*
X164479360Y-146808716D01*
X164548048Y-146689744D01*
X164558417Y-146671785D01*
X164599341Y-146519057D01*
X164599341Y-146360943D01*
X164599341Y-146353348D01*
X164599340Y-146353330D01*
X164599340Y-139480945D01*
X164599340Y-139480943D01*
X164581582Y-139414669D01*
X164558417Y-139328215D01*
X164502742Y-139231784D01*
X164479360Y-139191284D01*
X164367556Y-139079480D01*
X164367553Y-139079478D01*
X162926430Y-137638355D01*
X162926428Y-137638352D01*
X162807557Y-137519481D01*
X162807556Y-137519480D01*
X162720744Y-137469360D01*
X162720744Y-137469359D01*
X162720740Y-137469358D01*
X162670625Y-137440423D01*
X162517894Y-137399498D01*
X162509837Y-137398438D01*
X162510021Y-137397036D01*
X162501853Y-137394693D01*
X162485151Y-137394901D01*
X162456266Y-137381615D01*
X162452867Y-137380640D01*
X162449374Y-137378456D01*
X162449129Y-137378211D01*
X162318019Y-137290606D01*
X162290898Y-137279372D01*
X162282146Y-137273900D01*
X162265519Y-137255187D01*
X162246026Y-137239478D01*
X162242710Y-137229516D01*
X162235738Y-137221669D01*
X162231867Y-137196937D01*
X162223962Y-137173184D01*
X162225384Y-137155512D01*
X162224935Y-137152639D01*
X162225767Y-137150753D01*
X162226265Y-137144571D01*
X162239340Y-137078842D01*
X162239340Y-136921158D01*
X162239340Y-136921155D01*
X162239339Y-136921153D01*
X162231116Y-136879815D01*
X162208577Y-136766503D01*
X162149965Y-136624999D01*
X162148237Y-136620827D01*
X162148230Y-136620814D01*
X162060629Y-136489711D01*
X162060626Y-136489707D01*
X161949132Y-136378213D01*
X161949128Y-136378210D01*
X161818025Y-136290609D01*
X161818012Y-136290602D01*
X161672341Y-136230264D01*
X161672329Y-136230261D01*
X161517685Y-136199500D01*
X161517682Y-136199500D01*
X161359998Y-136199500D01*
X161359995Y-136199500D01*
X161205350Y-136230261D01*
X161205338Y-136230264D01*
X161059667Y-136290602D01*
X161059654Y-136290609D01*
X160928551Y-136378210D01*
X160928547Y-136378213D01*
X160817053Y-136489707D01*
X160817050Y-136489711D01*
X160729449Y-136620814D01*
X160729442Y-136620827D01*
X160669104Y-136766498D01*
X160669101Y-136766508D01*
X160638201Y-136921850D01*
X160605816Y-136983761D01*
X160604265Y-136985339D01*
X159226424Y-138363181D01*
X159165101Y-138396666D01*
X159138743Y-138399500D01*
X157025510Y-138399500D01*
X157025494Y-138399499D01*
X157017898Y-138399499D01*
X156859783Y-138399499D01*
X156783419Y-138419961D01*
X156707054Y-138440423D01*
X156707049Y-138440426D01*
X156570130Y-138519475D01*
X156570122Y-138519481D01*
X156063057Y-139026546D01*
X156063054Y-139026548D01*
X156063055Y-139026549D01*
X155958318Y-139131286D01*
X155908201Y-139218094D01*
X155908199Y-139218096D01*
X155879265Y-139268209D01*
X155879264Y-139268210D01*
X155863384Y-139327472D01*
X155838339Y-139420943D01*
X155838339Y-139420944D01*
X155838339Y-139420945D01*
X155838339Y-139589046D01*
X155838340Y-139589059D01*
X155838340Y-143275500D01*
X155835789Y-143284185D01*
X155837078Y-143293147D01*
X155826099Y-143317187D01*
X155818655Y-143342539D01*
X155811814Y-143348466D01*
X155808053Y-143356703D01*
X155785818Y-143370992D01*
X155765851Y-143388294D01*
X155755336Y-143390581D01*
X155749275Y-143394477D01*
X155714340Y-143399500D01*
X155518606Y-143399500D01*
X155451567Y-143379815D01*
X155449715Y-143378602D01*
X155318025Y-143290609D01*
X155318012Y-143290602D01*
X155172341Y-143230264D01*
X155172329Y-143230261D01*
X155017685Y-143199500D01*
X155017682Y-143199500D01*
X154859998Y-143199500D01*
X154859995Y-143199500D01*
X154705350Y-143230261D01*
X154705338Y-143230264D01*
X154559667Y-143290602D01*
X154559654Y-143290609D01*
X154428551Y-143378210D01*
X154428547Y-143378213D01*
X154317053Y-143489707D01*
X154317050Y-143489711D01*
X154229449Y-143620814D01*
X154229442Y-143620827D01*
X154169104Y-143766498D01*
X154169101Y-143766510D01*
X154138340Y-143921153D01*
X137209228Y-143921153D01*
X132773414Y-139485339D01*
X132739929Y-139424016D01*
X132739478Y-139421849D01*
X132720852Y-139328213D01*
X132708577Y-139266503D01*
X132694196Y-139231784D01*
X132648237Y-139120827D01*
X132648230Y-139120814D01*
X132560629Y-138989711D01*
X132560626Y-138989707D01*
X132449132Y-138878213D01*
X132449128Y-138878210D01*
X132318025Y-138790609D01*
X132318012Y-138790602D01*
X132172341Y-138730264D01*
X132172329Y-138730261D01*
X132017685Y-138699500D01*
X132017682Y-138699500D01*
X131859998Y-138699500D01*
X131859995Y-138699500D01*
X131705350Y-138730261D01*
X131705338Y-138730264D01*
X131559667Y-138790602D01*
X131559654Y-138790609D01*
X131428551Y-138878210D01*
X131428547Y-138878213D01*
X131317053Y-138989707D01*
X131317050Y-138989711D01*
X131229449Y-139120814D01*
X131229442Y-139120827D01*
X131169104Y-139266498D01*
X131169101Y-139266510D01*
X131138340Y-139421153D01*
X131138340Y-139578846D01*
X131169101Y-139733489D01*
X131169104Y-139733501D01*
X131229442Y-139879172D01*
X131229449Y-139879185D01*
X131317050Y-140010288D01*
X131317053Y-140010292D01*
X131428547Y-140121786D01*
X131428551Y-140121789D01*
X131559654Y-140209390D01*
X131559667Y-140209397D01*
X131705338Y-140269735D01*
X131705343Y-140269737D01*
X131769987Y-140282595D01*
X131860689Y-140300638D01*
X131922600Y-140333023D01*
X131924179Y-140334574D01*
X140453979Y-148864374D01*
X140453989Y-148864385D01*
X140458319Y-148868715D01*
X140458320Y-148868716D01*
X140570124Y-148980520D01*
X140656935Y-149030639D01*
X140656937Y-149030641D01*
X140694991Y-149052611D01*
X140707055Y-149059577D01*
X140859783Y-149100500D01*
X156616763Y-149100500D01*
X156683802Y-149120185D01*
X156729557Y-149172989D01*
X156731312Y-149177021D01*
X156741654Y-149201988D01*
X156751826Y-149226546D01*
X156751830Y-149226553D01*
X156850375Y-149374034D01*
X156850378Y-149374038D01*
X156975801Y-149499461D01*
X156975805Y-149499464D01*
X157123286Y-149598009D01*
X157123299Y-149598016D01*
X157241340Y-149646909D01*
X157287174Y-149665894D01*
X157287176Y-149665894D01*
X157287181Y-149665896D01*
X157461144Y-149700499D01*
X157461147Y-149700500D01*
X157461149Y-149700500D01*
X157638533Y-149700500D01*
X157638534Y-149700499D01*
X157710150Y-149686254D01*
X157812498Y-149665896D01*
X157812501Y-149665894D01*
X157812506Y-149665894D01*
X157976387Y-149598013D01*
X158123875Y-149499464D01*
X158249304Y-149374035D01*
X158347853Y-149226547D01*
X158368356Y-149177047D01*
X158412196Y-149122645D01*
X158478490Y-149100579D01*
X158482917Y-149100500D01*
X165596763Y-149100500D01*
X165663802Y-149120185D01*
X165709557Y-149172989D01*
X165711312Y-149177021D01*
X165721654Y-149201988D01*
X165731826Y-149226546D01*
X165731830Y-149226553D01*
X165830375Y-149374034D01*
X165830378Y-149374038D01*
X165955801Y-149499461D01*
X165955805Y-149499464D01*
X166103286Y-149598009D01*
X166103299Y-149598016D01*
X166221340Y-149646909D01*
X166267174Y-149665894D01*
X166267176Y-149665894D01*
X166267181Y-149665896D01*
X166441144Y-149700499D01*
X166441147Y-149700500D01*
X166441149Y-149700500D01*
X166618532Y-149700500D01*
X166636341Y-149696957D01*
X166690149Y-149686254D01*
X166759739Y-149692481D01*
X166814917Y-149735343D01*
X166838162Y-149801232D01*
X166838340Y-149807871D01*
X166838340Y-149876500D01*
X166818655Y-149943539D01*
X166765851Y-149989294D01*
X166714340Y-150000500D01*
X121339937Y-150000500D01*
X121272898Y-149980815D01*
X121252256Y-149964181D01*
X119106239Y-147818164D01*
X119072754Y-147756841D01*
X119069920Y-147730483D01*
X119069920Y-142113520D01*
X119089605Y-142046481D01*
X119106241Y-142025837D01*
X119121787Y-142010291D01*
X119121789Y-142010289D01*
X119209394Y-141879179D01*
X119269737Y-141733497D01*
X119300500Y-141578842D01*
X119300500Y-141421158D01*
X119300500Y-141421155D01*
X119300499Y-141421153D01*
X119291471Y-141375765D01*
X119269737Y-141266503D01*
X119252229Y-141224234D01*
X119209397Y-141120827D01*
X119209390Y-141120814D01*
X119121789Y-140989711D01*
X119121786Y-140989707D01*
X119010292Y-140878213D01*
X119010288Y-140878210D01*
X118879185Y-140790609D01*
X118879172Y-140790602D01*
X118733501Y-140730264D01*
X118733489Y-140730261D01*
X118578845Y-140699500D01*
X118578842Y-140699500D01*
X118421158Y-140699500D01*
X118421155Y-140699500D01*
X118266510Y-140730261D01*
X118266498Y-140730264D01*
X118120827Y-140790602D01*
X118120814Y-140790609D01*
X117989711Y-140878210D01*
X117989707Y-140878213D01*
X117878213Y-140989707D01*
X117878210Y-140989711D01*
X117790609Y-141120814D01*
X117790602Y-141120827D01*
X117730264Y-141266498D01*
X117730261Y-141266510D01*
X117699500Y-141421153D01*
X107939340Y-141421153D01*
X107939340Y-101041554D01*
X109800838Y-101041554D01*
X109841763Y-101194286D01*
X109841764Y-101194287D01*
X109863413Y-101231784D01*
X109886021Y-101270943D01*
X109920821Y-101331217D01*
X110039689Y-101450085D01*
X110039695Y-101450090D01*
X114577424Y-105987819D01*
X114610909Y-106049142D01*
X114605925Y-106118834D01*
X114564053Y-106174767D01*
X114498589Y-106199184D01*
X114489743Y-106199500D01*
X114359995Y-106199500D01*
X114205350Y-106230261D01*
X114205338Y-106230264D01*
X114059667Y-106290602D01*
X114059654Y-106290609D01*
X113928551Y-106378210D01*
X113928547Y-106378213D01*
X113817053Y-106489707D01*
X113817050Y-106489711D01*
X113730401Y-106619391D01*
X113676789Y-106664196D01*
X113627299Y-106674500D01*
X112939058Y-106674500D01*
X112872019Y-106654815D01*
X112833519Y-106615597D01*
X112816082Y-106587327D01*
X112781552Y-106531344D01*
X112657496Y-106407288D01*
X112508174Y-106315186D01*
X112341637Y-106260001D01*
X112341635Y-106260000D01*
X112238850Y-106249500D01*
X110638838Y-106249500D01*
X110638821Y-106249501D01*
X110536043Y-106260000D01*
X110536040Y-106260001D01*
X110369508Y-106315185D01*
X110369503Y-106315187D01*
X110220182Y-106407289D01*
X110096129Y-106531342D01*
X110004027Y-106680663D01*
X110004026Y-106680666D01*
X109948841Y-106847203D01*
X109948841Y-106847204D01*
X109948840Y-106847204D01*
X109938340Y-106949983D01*
X109938340Y-107600001D01*
X109938341Y-107600019D01*
X109948840Y-107702796D01*
X109948841Y-107702799D01*
X109992508Y-107834575D01*
X110004026Y-107869334D01*
X110096128Y-108018656D01*
X110220184Y-108142712D01*
X110369506Y-108234814D01*
X110536043Y-108289999D01*
X110638831Y-108300500D01*
X112238848Y-108300499D01*
X112341637Y-108289999D01*
X112508174Y-108234814D01*
X112657496Y-108142712D01*
X112781552Y-108018656D01*
X112833520Y-107934402D01*
X112885467Y-107887679D01*
X112939058Y-107875500D01*
X114077171Y-107875500D01*
X114077187Y-107875501D01*
X114084783Y-107875501D01*
X114242894Y-107875501D01*
X114242897Y-107875501D01*
X114395625Y-107834577D01*
X114425873Y-107817112D01*
X114487874Y-107800500D01*
X114517684Y-107800500D01*
X114517685Y-107800499D01*
X114672337Y-107769737D01*
X114818019Y-107709394D01*
X114949129Y-107621789D01*
X115060629Y-107510289D01*
X115148234Y-107379179D01*
X115208577Y-107233497D01*
X115239340Y-107078842D01*
X115239340Y-106949097D01*
X115259025Y-106882058D01*
X115311829Y-106836303D01*
X115380987Y-106826359D01*
X115444543Y-106855384D01*
X115451021Y-106861416D01*
X117363181Y-108773576D01*
X117396666Y-108834899D01*
X117399500Y-108861257D01*
X117399500Y-113104040D01*
X117379815Y-113171079D01*
X117327011Y-113216834D01*
X117257853Y-113226778D01*
X117194297Y-113197753D01*
X117160939Y-113151493D01*
X117148635Y-113121789D01*
X117148234Y-113120821D01*
X117148232Y-113120818D01*
X117148230Y-113120814D01*
X117060629Y-112989711D01*
X117060626Y-112989707D01*
X116949132Y-112878213D01*
X116949128Y-112878210D01*
X116818025Y-112790609D01*
X116818012Y-112790602D01*
X116672341Y-112730264D01*
X116672329Y-112730261D01*
X116517685Y-112699500D01*
X116517682Y-112699500D01*
X116359998Y-112699500D01*
X116359995Y-112699500D01*
X116205350Y-112730261D01*
X116205338Y-112730264D01*
X116059667Y-112790602D01*
X116059654Y-112790609D01*
X115928551Y-112878210D01*
X115928547Y-112878213D01*
X115817053Y-112989707D01*
X115817050Y-112989711D01*
X115729449Y-113120814D01*
X115729442Y-113120827D01*
X115669104Y-113266498D01*
X115669101Y-113266508D01*
X115638201Y-113421850D01*
X115605816Y-113483761D01*
X115604265Y-113485339D01*
X114226424Y-114863181D01*
X114165101Y-114896666D01*
X114138743Y-114899500D01*
X112163340Y-114899500D01*
X112096301Y-114879815D01*
X112050546Y-114827011D01*
X112039340Y-114775500D01*
X112039340Y-112874499D01*
X112059025Y-112807460D01*
X112111829Y-112761705D01*
X112163340Y-112750499D01*
X112238842Y-112750499D01*
X112238848Y-112750499D01*
X112341637Y-112739999D01*
X112508174Y-112684814D01*
X112657496Y-112592712D01*
X112781552Y-112468656D01*
X112873654Y-112319334D01*
X112928839Y-112152797D01*
X112939340Y-112050009D01*
X112939339Y-111399992D01*
X112932257Y-111330668D01*
X112928839Y-111297203D01*
X112928838Y-111297200D01*
X112922891Y-111279252D01*
X112873654Y-111130666D01*
X112781552Y-110981344D01*
X112657496Y-110857288D01*
X112508174Y-110765186D01*
X112341637Y-110710001D01*
X112341635Y-110710000D01*
X112238850Y-110699500D01*
X110638838Y-110699500D01*
X110638821Y-110699501D01*
X110536043Y-110710000D01*
X110536040Y-110710001D01*
X110369508Y-110765185D01*
X110369503Y-110765187D01*
X110220182Y-110857289D01*
X110096129Y-110981342D01*
X110004027Y-111130663D01*
X110004025Y-111130668D01*
X109983555Y-111192444D01*
X109948841Y-111297203D01*
X109948841Y-111297204D01*
X109948840Y-111297204D01*
X109938340Y-111399983D01*
X109938340Y-112050001D01*
X109938341Y-112050019D01*
X109948840Y-112152796D01*
X109948841Y-112152799D01*
X110004025Y-112319331D01*
X110004027Y-112319336D01*
X110034483Y-112368713D01*
X110096128Y-112468656D01*
X110220184Y-112592712D01*
X110369506Y-112684814D01*
X110536043Y-112739999D01*
X110638831Y-112750500D01*
X110714340Y-112750499D01*
X110781378Y-112770183D01*
X110827134Y-112822986D01*
X110838340Y-112874499D01*
X110838340Y-127125500D01*
X110818655Y-127192539D01*
X110765851Y-127238294D01*
X110714342Y-127249500D01*
X110638839Y-127249500D01*
X110638820Y-127249501D01*
X110536043Y-127260000D01*
X110536040Y-127260001D01*
X110369508Y-127315185D01*
X110369503Y-127315187D01*
X110220182Y-127407289D01*
X110096129Y-127531342D01*
X110004027Y-127680663D01*
X110004025Y-127680668D01*
X109986518Y-127733501D01*
X109948841Y-127847203D01*
X109948841Y-127847204D01*
X109948840Y-127847204D01*
X109938340Y-127949983D01*
X109938340Y-128600001D01*
X109938341Y-128600019D01*
X109948840Y-128702796D01*
X109948841Y-128702799D01*
X110004025Y-128869331D01*
X110004026Y-128869334D01*
X110096128Y-129018656D01*
X110220184Y-129142712D01*
X110369506Y-129234814D01*
X110536043Y-129289999D01*
X110638831Y-129300500D01*
X112238848Y-129300499D01*
X112341637Y-129289999D01*
X112508174Y-129234814D01*
X112657496Y-129142712D01*
X112781552Y-129018656D01*
X112873654Y-128869334D01*
X112928839Y-128702797D01*
X112939340Y-128600009D01*
X112939339Y-127949992D01*
X112928839Y-127847203D01*
X112873654Y-127680666D01*
X112781552Y-127531344D01*
X112657496Y-127407288D01*
X112508174Y-127315186D01*
X112341637Y-127260001D01*
X112341635Y-127260000D01*
X112238856Y-127249500D01*
X112238849Y-127249500D01*
X112163340Y-127249500D01*
X112096301Y-127229815D01*
X112050546Y-127177011D01*
X112039340Y-127125500D01*
X112039340Y-116224500D01*
X112059025Y-116157461D01*
X112111829Y-116111706D01*
X112163340Y-116100500D01*
X114359779Y-116100500D01*
X114359783Y-116100501D01*
X114517897Y-116100501D01*
X114536581Y-116095494D01*
X114551204Y-116095101D01*
X114571402Y-116100445D01*
X114592289Y-116100942D01*
X114604497Y-116109203D01*
X114618749Y-116112975D01*
X114632850Y-116128390D01*
X114650154Y-116140101D01*
X114655958Y-116153653D01*
X114665907Y-116164530D01*
X114669435Y-116185121D01*
X114677661Y-116204328D01*
X114675462Y-116220299D01*
X114677707Y-116233396D01*
X114671719Y-116247498D01*
X114669944Y-116260394D01*
X114670871Y-116260676D01*
X114669101Y-116266510D01*
X114638340Y-116421153D01*
X114638340Y-116578846D01*
X114669101Y-116733489D01*
X114669104Y-116733501D01*
X114729442Y-116879172D01*
X114729449Y-116879185D01*
X114817442Y-117010874D01*
X114838320Y-117077551D01*
X114838340Y-117079765D01*
X114838340Y-128424902D01*
X114818655Y-128491941D01*
X114802021Y-128512583D01*
X111651422Y-131663181D01*
X111590099Y-131696666D01*
X111563741Y-131699500D01*
X110638838Y-131699500D01*
X110638820Y-131699501D01*
X110536043Y-131710000D01*
X110536040Y-131710001D01*
X110369508Y-131765185D01*
X110369503Y-131765187D01*
X110220182Y-131857289D01*
X110096129Y-131981342D01*
X110004027Y-132130663D01*
X110004025Y-132130668D01*
X109980342Y-132202139D01*
X109948841Y-132297203D01*
X109948841Y-132297204D01*
X109948840Y-132297204D01*
X109938340Y-132399983D01*
X109938340Y-133050001D01*
X109938341Y-133050019D01*
X109948840Y-133152796D01*
X109948841Y-133152799D01*
X109982022Y-133252930D01*
X110004026Y-133319334D01*
X110096128Y-133468656D01*
X110220184Y-133592712D01*
X110369506Y-133684814D01*
X110536043Y-133739999D01*
X110638831Y-133750500D01*
X112238848Y-133750499D01*
X112341637Y-133739999D01*
X112508174Y-133684814D01*
X112657496Y-133592712D01*
X112781552Y-133468656D01*
X112873654Y-133319334D01*
X112928839Y-133152797D01*
X112939340Y-133050009D01*
X112939339Y-132399992D01*
X112938082Y-132387690D01*
X112928839Y-132297203D01*
X112918668Y-132266510D01*
X112899889Y-132209840D01*
X112897488Y-132140016D01*
X112929913Y-132083160D01*
X115807553Y-129205521D01*
X115807556Y-129205520D01*
X115919360Y-129093716D01*
X115969479Y-129006904D01*
X115998417Y-128956785D01*
X116039340Y-128804058D01*
X116039340Y-128645943D01*
X116039340Y-117079765D01*
X116059025Y-117012726D01*
X116060238Y-117010874D01*
X116148230Y-116879185D01*
X116148230Y-116879184D01*
X116148234Y-116879179D01*
X116208577Y-116733497D01*
X116239340Y-116578842D01*
X116239340Y-116421158D01*
X116239340Y-116421155D01*
X116239339Y-116421153D01*
X116208578Y-116266510D01*
X116208577Y-116266503D01*
X116189439Y-116220299D01*
X116148237Y-116120827D01*
X116148230Y-116120814D01*
X116060629Y-115989711D01*
X116060626Y-115989707D01*
X115949132Y-115878213D01*
X115949128Y-115878210D01*
X115818025Y-115790609D01*
X115818012Y-115790602D01*
X115672341Y-115730264D01*
X115672329Y-115730261D01*
X115517685Y-115699500D01*
X115517682Y-115699500D01*
X115387936Y-115699500D01*
X115320897Y-115679815D01*
X115275142Y-115627011D01*
X115265198Y-115557853D01*
X115294223Y-115494297D01*
X115300255Y-115487819D01*
X115666288Y-115121786D01*
X116453502Y-114334572D01*
X116514823Y-114301089D01*
X116516990Y-114300638D01*
X116574925Y-114289113D01*
X116672337Y-114269737D01*
X116818019Y-114209394D01*
X116949129Y-114121789D01*
X117060629Y-114010289D01*
X117148234Y-113879179D01*
X117148235Y-113879176D01*
X117148237Y-113879173D01*
X117160939Y-113848507D01*
X117204779Y-113794103D01*
X117271073Y-113772038D01*
X117338773Y-113789317D01*
X117386383Y-113840454D01*
X117399500Y-113895959D01*
X117399500Y-114420234D01*
X117379815Y-114487273D01*
X117378602Y-114489125D01*
X117290609Y-114620814D01*
X117290602Y-114620827D01*
X117230264Y-114766498D01*
X117230261Y-114766510D01*
X117199500Y-114921153D01*
X117199500Y-115078846D01*
X117230261Y-115233489D01*
X117230264Y-115233501D01*
X117290602Y-115379172D01*
X117290609Y-115379185D01*
X117378210Y-115510288D01*
X117378213Y-115510292D01*
X117489707Y-115621786D01*
X117489711Y-115621789D01*
X117620814Y-115709390D01*
X117620827Y-115709397D01*
X117766498Y-115769735D01*
X117766503Y-115769737D01*
X117921153Y-115800499D01*
X117921156Y-115800500D01*
X117921158Y-115800500D01*
X118078844Y-115800500D01*
X118078845Y-115800499D01*
X118233497Y-115769737D01*
X118379179Y-115709394D01*
X118510289Y-115621789D01*
X118621789Y-115510289D01*
X118709394Y-115379179D01*
X118769737Y-115233497D01*
X118800500Y-115078842D01*
X118800500Y-114921158D01*
X118800500Y-114921155D01*
X118800499Y-114921153D01*
X118792148Y-114879172D01*
X118769737Y-114766503D01*
X118756062Y-114733489D01*
X118709397Y-114620827D01*
X118709390Y-114620814D01*
X118621398Y-114489125D01*
X118600520Y-114422447D01*
X118600500Y-114420234D01*
X118600500Y-108810257D01*
X118620185Y-108743218D01*
X118672989Y-108697463D01*
X118742147Y-108687519D01*
X118805703Y-108716544D01*
X118812181Y-108722576D01*
X121863181Y-111773576D01*
X121896666Y-111834899D01*
X121899500Y-111861257D01*
X121899500Y-125754091D01*
X121879815Y-125821130D01*
X121835731Y-125859641D01*
X121836813Y-125861395D01*
X121830667Y-125865185D01*
X121830666Y-125865186D01*
X121732419Y-125925784D01*
X121681342Y-125957289D01*
X121557289Y-126081342D01*
X121465187Y-126230663D01*
X121465186Y-126230666D01*
X121410001Y-126397203D01*
X121410001Y-126397204D01*
X121410000Y-126397204D01*
X121399500Y-126499983D01*
X121399500Y-127500001D01*
X121399501Y-127500019D01*
X121410000Y-127602796D01*
X121410001Y-127602799D01*
X121435803Y-127680663D01*
X121465186Y-127769334D01*
X121557288Y-127918656D01*
X121681344Y-128042712D01*
X121830666Y-128134814D01*
X121830667Y-128134814D01*
X121836813Y-128138605D01*
X121835706Y-128140399D01*
X121880337Y-128179687D01*
X121899500Y-128245908D01*
X121899500Y-137199937D01*
X121882889Y-137261934D01*
X121879264Y-137268212D01*
X121879263Y-137268213D01*
X121873263Y-137290606D01*
X121838339Y-137420943D01*
X121838339Y-137420945D01*
X121838339Y-137579054D01*
X121838338Y-137579054D01*
X121838339Y-137579057D01*
X121879263Y-137731785D01*
X121899308Y-137766503D01*
X121938649Y-137834645D01*
X121958319Y-137868715D01*
X122070124Y-137980520D01*
X122156935Y-138030639D01*
X122156937Y-138030641D01*
X122194991Y-138052611D01*
X122207055Y-138059577D01*
X122359783Y-138100501D01*
X122359786Y-138100501D01*
X122525493Y-138100501D01*
X122525509Y-138100500D01*
X147852171Y-138100500D01*
X147852187Y-138100501D01*
X147859783Y-138100501D01*
X148017894Y-138100501D01*
X148017897Y-138100501D01*
X148170625Y-138059577D01*
X148220744Y-138030639D01*
X148307556Y-137980520D01*
X148419360Y-137868716D01*
X148419360Y-137868714D01*
X148429568Y-137858507D01*
X148429569Y-137858504D01*
X152953502Y-133334572D01*
X153014823Y-133301089D01*
X153016990Y-133300638D01*
X153074925Y-133289113D01*
X153172337Y-133269737D01*
X153318019Y-133209394D01*
X153449129Y-133121789D01*
X153560629Y-133010289D01*
X153648234Y-132879179D01*
X153708577Y-132733497D01*
X153739340Y-132578842D01*
X153739340Y-132421158D01*
X153739340Y-132421155D01*
X153739339Y-132421153D01*
X153729495Y-132371666D01*
X153708577Y-132266503D01*
X153708575Y-132266498D01*
X153648237Y-132120827D01*
X153648230Y-132120814D01*
X153560629Y-131989711D01*
X153560626Y-131989707D01*
X153449132Y-131878213D01*
X153449128Y-131878210D01*
X153318025Y-131790609D01*
X153318012Y-131790602D01*
X153172341Y-131730264D01*
X153172329Y-131730261D01*
X153017685Y-131699500D01*
X153017682Y-131699500D01*
X152859998Y-131699500D01*
X152859995Y-131699500D01*
X152705350Y-131730261D01*
X152705338Y-131730264D01*
X152559667Y-131790602D01*
X152559654Y-131790609D01*
X152428551Y-131878210D01*
X152428547Y-131878213D01*
X152317053Y-131989707D01*
X152317050Y-131989711D01*
X152229449Y-132120814D01*
X152229442Y-132120827D01*
X152169104Y-132266498D01*
X152169101Y-132266508D01*
X152138201Y-132421850D01*
X152105816Y-132483761D01*
X152104265Y-132485339D01*
X147726424Y-136863181D01*
X147665101Y-136896666D01*
X147638743Y-136899500D01*
X123224500Y-136899500D01*
X123157461Y-136879815D01*
X123111706Y-136827011D01*
X123100500Y-136775500D01*
X123100500Y-135924986D01*
X125713841Y-135924986D01*
X125724334Y-136027697D01*
X125779481Y-136194119D01*
X125779483Y-136194124D01*
X125871524Y-136343345D01*
X125995494Y-136467315D01*
X126144715Y-136559356D01*
X126144720Y-136559358D01*
X126311142Y-136614505D01*
X126311149Y-136614506D01*
X126413859Y-136624999D01*
X126688839Y-136624999D01*
X127188840Y-136624999D01*
X127463812Y-136624999D01*
X127463826Y-136624998D01*
X127566537Y-136614505D01*
X127732959Y-136559358D01*
X127732964Y-136559356D01*
X127882185Y-136467315D01*
X128006155Y-136343345D01*
X128083301Y-136218273D01*
X128135249Y-136171549D01*
X128204212Y-136160326D01*
X128268294Y-136188170D01*
X128294379Y-136218273D01*
X128371524Y-136343345D01*
X128495494Y-136467315D01*
X128644715Y-136559356D01*
X128644720Y-136559358D01*
X128811142Y-136614505D01*
X128811149Y-136614506D01*
X128913859Y-136624999D01*
X129188839Y-136624999D01*
X129688840Y-136624999D01*
X129963812Y-136624999D01*
X129963826Y-136624998D01*
X130066537Y-136614505D01*
X130232959Y-136559358D01*
X130232964Y-136559356D01*
X130382185Y-136467315D01*
X130506155Y-136343345D01*
X130598196Y-136194124D01*
X130598198Y-136194119D01*
X130653345Y-136027697D01*
X130653346Y-136027690D01*
X130663839Y-135924986D01*
X131213841Y-135924986D01*
X131224334Y-136027697D01*
X131279481Y-136194119D01*
X131279483Y-136194124D01*
X131371524Y-136343345D01*
X131495494Y-136467315D01*
X131644715Y-136559356D01*
X131644720Y-136559358D01*
X131811142Y-136614505D01*
X131811149Y-136614506D01*
X131913859Y-136624999D01*
X132188839Y-136624999D01*
X132688840Y-136624999D01*
X132963812Y-136624999D01*
X132963826Y-136624998D01*
X133066537Y-136614505D01*
X133232959Y-136559358D01*
X133232970Y-136559353D01*
X133373743Y-136472523D01*
X133441135Y-136454082D01*
X133503937Y-136472523D01*
X133644709Y-136559353D01*
X133644720Y-136559358D01*
X133811142Y-136614505D01*
X133811149Y-136614506D01*
X133913859Y-136624999D01*
X134188839Y-136624999D01*
X134688840Y-136624999D01*
X134963812Y-136624999D01*
X134963826Y-136624998D01*
X135066537Y-136614505D01*
X135232959Y-136559358D01*
X135232964Y-136559356D01*
X135382185Y-136467315D01*
X135506155Y-136343345D01*
X135583301Y-136218273D01*
X135635249Y-136171549D01*
X135704212Y-136160326D01*
X135768294Y-136188170D01*
X135794379Y-136218273D01*
X135871524Y-136343345D01*
X135995494Y-136467315D01*
X136144715Y-136559356D01*
X136144720Y-136559358D01*
X136311142Y-136614505D01*
X136311149Y-136614506D01*
X136413859Y-136624999D01*
X136688839Y-136624999D01*
X137188840Y-136624999D01*
X137463812Y-136624999D01*
X137463826Y-136624998D01*
X137566537Y-136614505D01*
X137732959Y-136559358D01*
X137732964Y-136559356D01*
X137882185Y-136467315D01*
X138006155Y-136343345D01*
X138098196Y-136194124D01*
X138098198Y-136194119D01*
X138153345Y-136027697D01*
X138153346Y-136027690D01*
X138163839Y-135924986D01*
X138713841Y-135924986D01*
X138724334Y-136027697D01*
X138779481Y-136194119D01*
X138779483Y-136194124D01*
X138871524Y-136343345D01*
X138995494Y-136467315D01*
X139144715Y-136559356D01*
X139144720Y-136559358D01*
X139311142Y-136614505D01*
X139311149Y-136614506D01*
X139413859Y-136624999D01*
X139688839Y-136624999D01*
X140188840Y-136624999D01*
X140463812Y-136624999D01*
X140463826Y-136624998D01*
X140566537Y-136614505D01*
X140732959Y-136559358D01*
X140732964Y-136559356D01*
X140882185Y-136467315D01*
X141006155Y-136343345D01*
X141083301Y-136218273D01*
X141135249Y-136171549D01*
X141204212Y-136160326D01*
X141268294Y-136188170D01*
X141294379Y-136218273D01*
X141371524Y-136343345D01*
X141495494Y-136467315D01*
X141644715Y-136559356D01*
X141644720Y-136559358D01*
X141811142Y-136614505D01*
X141811149Y-136614506D01*
X141913859Y-136624999D01*
X142188839Y-136624999D01*
X142688840Y-136624999D01*
X142963812Y-136624999D01*
X142963826Y-136624998D01*
X143066537Y-136614505D01*
X143232959Y-136559358D01*
X143232964Y-136559356D01*
X143382185Y-136467315D01*
X143506155Y-136343345D01*
X143598196Y-136194124D01*
X143598198Y-136194119D01*
X143653345Y-136027697D01*
X143653346Y-136027690D01*
X143663839Y-135924986D01*
X143663840Y-135924973D01*
X143663840Y-135787500D01*
X142688840Y-135787500D01*
X142688840Y-136624999D01*
X142188839Y-136624999D01*
X142188840Y-136624998D01*
X142188840Y-135787500D01*
X140188840Y-135787500D01*
X140188840Y-136624999D01*
X139688839Y-136624999D01*
X139688840Y-136624998D01*
X139688840Y-135787500D01*
X138713841Y-135787500D01*
X138713841Y-135924986D01*
X138163839Y-135924986D01*
X138163840Y-135924973D01*
X138163840Y-135787500D01*
X137188840Y-135787500D01*
X137188840Y-136624999D01*
X136688839Y-136624999D01*
X136688840Y-136624998D01*
X136688840Y-135787500D01*
X134688840Y-135787500D01*
X134688840Y-136624999D01*
X134188839Y-136624999D01*
X134188840Y-136624998D01*
X134188840Y-135787500D01*
X132688840Y-135787500D01*
X132688840Y-136624999D01*
X132188839Y-136624999D01*
X132188840Y-136624998D01*
X132188840Y-135787500D01*
X131213841Y-135787500D01*
X131213841Y-135924986D01*
X130663839Y-135924986D01*
X130663840Y-135924973D01*
X130663840Y-135787500D01*
X129688840Y-135787500D01*
X129688840Y-136624999D01*
X129188839Y-136624999D01*
X129188840Y-136624998D01*
X129188840Y-135787500D01*
X127188840Y-135787500D01*
X127188840Y-136624999D01*
X126688839Y-136624999D01*
X126688840Y-136624998D01*
X126688840Y-135787500D01*
X125713841Y-135787500D01*
X125713841Y-135924986D01*
X123100500Y-135924986D01*
X123100500Y-133074983D01*
X125713340Y-133074983D01*
X125713340Y-133850001D01*
X125713341Y-133850019D01*
X125723840Y-133952796D01*
X125723841Y-133952799D01*
X125768072Y-134086277D01*
X125779026Y-134119334D01*
X125871128Y-134268656D01*
X125995184Y-134392712D01*
X125998468Y-134394737D01*
X125998493Y-134394753D01*
X126000285Y-134396746D01*
X126000851Y-134397193D01*
X126000774Y-134397289D01*
X126045219Y-134446699D01*
X126056443Y-134515661D01*
X126028601Y-134579744D01*
X125998505Y-134605826D01*
X125995500Y-134607679D01*
X125995495Y-134607683D01*
X125871524Y-134731654D01*
X125779483Y-134880875D01*
X125779481Y-134880880D01*
X125724334Y-135047302D01*
X125724333Y-135047309D01*
X125713840Y-135150013D01*
X125713840Y-135287500D01*
X130663839Y-135287500D01*
X130663839Y-135150028D01*
X130663838Y-135150013D01*
X130653345Y-135047302D01*
X130598198Y-134880880D01*
X130598196Y-134880875D01*
X130506155Y-134731654D01*
X130382184Y-134607683D01*
X130382181Y-134607681D01*
X130379179Y-134605829D01*
X130377553Y-134604021D01*
X130376517Y-134603202D01*
X130376657Y-134603024D01*
X130332457Y-134553880D01*
X130321237Y-134484917D01*
X130349083Y-134420836D01*
X130379184Y-134394754D01*
X130382496Y-134392712D01*
X130506552Y-134268656D01*
X130598654Y-134119334D01*
X130653839Y-133952797D01*
X130664340Y-133850009D01*
X130664339Y-133675096D01*
X130684023Y-133608057D01*
X130700653Y-133587420D01*
X131001660Y-133286414D01*
X131062982Y-133252930D01*
X131132674Y-133257914D01*
X131188607Y-133299786D01*
X131213024Y-133365250D01*
X131213340Y-133374096D01*
X131213340Y-133850001D01*
X131213341Y-133850019D01*
X131223840Y-133952796D01*
X131223841Y-133952799D01*
X131268072Y-134086277D01*
X131279026Y-134119334D01*
X131371128Y-134268656D01*
X131495184Y-134392712D01*
X131498468Y-134394737D01*
X131498493Y-134394753D01*
X131500285Y-134396746D01*
X131500851Y-134397193D01*
X131500774Y-134397289D01*
X131545219Y-134446699D01*
X131556443Y-134515661D01*
X131528601Y-134579744D01*
X131498505Y-134605826D01*
X131495500Y-134607679D01*
X131495495Y-134607683D01*
X131371524Y-134731654D01*
X131279483Y-134880875D01*
X131279481Y-134880880D01*
X131224334Y-135047302D01*
X131224333Y-135047309D01*
X131213840Y-135150013D01*
X131213840Y-135287500D01*
X138163839Y-135287500D01*
X138163839Y-135150028D01*
X138163838Y-135150013D01*
X138153345Y-135047302D01*
X138098198Y-134880880D01*
X138098196Y-134880875D01*
X138006155Y-134731654D01*
X137882184Y-134607683D01*
X137882181Y-134607681D01*
X137879179Y-134605829D01*
X137877553Y-134604021D01*
X137876517Y-134603202D01*
X137876657Y-134603024D01*
X137832457Y-134553880D01*
X137821237Y-134484917D01*
X137849083Y-134420836D01*
X137879184Y-134394754D01*
X137882496Y-134392712D01*
X138006552Y-134268656D01*
X138098654Y-134119334D01*
X138153839Y-133952797D01*
X138164340Y-133850009D01*
X138164339Y-133074992D01*
X138164338Y-133074983D01*
X138713340Y-133074983D01*
X138713340Y-133850001D01*
X138713341Y-133850019D01*
X138723840Y-133952796D01*
X138723841Y-133952799D01*
X138768072Y-134086277D01*
X138779026Y-134119334D01*
X138871128Y-134268656D01*
X138995184Y-134392712D01*
X138998468Y-134394737D01*
X138998493Y-134394753D01*
X139000285Y-134396746D01*
X139000851Y-134397193D01*
X139000774Y-134397289D01*
X139045219Y-134446699D01*
X139056443Y-134515661D01*
X139028601Y-134579744D01*
X138998505Y-134605826D01*
X138995500Y-134607679D01*
X138995495Y-134607683D01*
X138871524Y-134731654D01*
X138779483Y-134880875D01*
X138779481Y-134880880D01*
X138724334Y-135047302D01*
X138724333Y-135047309D01*
X138713840Y-135150013D01*
X138713840Y-135287500D01*
X143663839Y-135287500D01*
X143663839Y-135150028D01*
X143663838Y-135150013D01*
X143653345Y-135047302D01*
X143598198Y-134880880D01*
X143598196Y-134880875D01*
X143506155Y-134731654D01*
X143382184Y-134607683D01*
X143382181Y-134607681D01*
X143379179Y-134605829D01*
X143377553Y-134604021D01*
X143376517Y-134603202D01*
X143376657Y-134603024D01*
X143332457Y-134553880D01*
X143321237Y-134484917D01*
X143349083Y-134420836D01*
X143379184Y-134394754D01*
X143382496Y-134392712D01*
X143506552Y-134268656D01*
X143598654Y-134119334D01*
X143653839Y-133952797D01*
X143664340Y-133850009D01*
X143664339Y-133074992D01*
X143657729Y-133010288D01*
X143653839Y-132972203D01*
X143653838Y-132972200D01*
X143623014Y-132879179D01*
X143598654Y-132805666D01*
X143598653Y-132805664D01*
X143598652Y-132805661D01*
X143598379Y-132805076D01*
X143598312Y-132804635D01*
X143596382Y-132798811D01*
X143597377Y-132798481D01*
X143587888Y-132735999D01*
X143616409Y-132672215D01*
X143623054Y-132665020D01*
X143919360Y-132368716D01*
X143998417Y-132231784D01*
X144039341Y-132079057D01*
X144039341Y-131920942D01*
X144039341Y-131913347D01*
X144039340Y-131913329D01*
X144039340Y-128570945D01*
X144039340Y-128570943D01*
X143998417Y-128418216D01*
X143998416Y-128418214D01*
X143996313Y-128410365D01*
X143997006Y-128410179D01*
X143989343Y-128371644D01*
X143989343Y-128079765D01*
X144009028Y-128012726D01*
X144010241Y-128010874D01*
X144098233Y-127879185D01*
X144098233Y-127879184D01*
X144098237Y-127879179D01*
X144158580Y-127733497D01*
X144189343Y-127578842D01*
X144189343Y-127421158D01*
X144189343Y-127421155D01*
X144189342Y-127421153D01*
X144186584Y-127407288D01*
X144158580Y-127266503D01*
X144146896Y-127238294D01*
X144098240Y-127120827D01*
X144098233Y-127120814D01*
X144010632Y-126989711D01*
X144010629Y-126989707D01*
X143899135Y-126878213D01*
X143899131Y-126878210D01*
X143768028Y-126790609D01*
X143768015Y-126790602D01*
X143622344Y-126730264D01*
X143622332Y-126730261D01*
X143467688Y-126699500D01*
X143467685Y-126699500D01*
X143310001Y-126699500D01*
X143309998Y-126699500D01*
X143155353Y-126730261D01*
X143155341Y-126730264D01*
X143036293Y-126779575D01*
X142966823Y-126787044D01*
X142941389Y-126779575D01*
X142822341Y-126730264D01*
X142822329Y-126730261D01*
X142667685Y-126699500D01*
X142667682Y-126699500D01*
X142509998Y-126699500D01*
X142509995Y-126699500D01*
X142355350Y-126730261D01*
X142355338Y-126730264D01*
X142209667Y-126790602D01*
X142209654Y-126790609D01*
X142078551Y-126878210D01*
X142078547Y-126878213D01*
X141967053Y-126989707D01*
X141967050Y-126989711D01*
X141879449Y-127120814D01*
X141879442Y-127120827D01*
X141819104Y-127266498D01*
X141819101Y-127266510D01*
X141788340Y-127421153D01*
X141788340Y-127578846D01*
X141819101Y-127733489D01*
X141819103Y-127733497D01*
X141855288Y-127820855D01*
X141864727Y-127868308D01*
X141864727Y-129673515D01*
X141845042Y-129740554D01*
X141828408Y-129761196D01*
X140458321Y-131131282D01*
X140458319Y-131131284D01*
X140433204Y-131174787D01*
X140418936Y-131199500D01*
X140379263Y-131268215D01*
X140338339Y-131420943D01*
X140338339Y-131420945D01*
X140338339Y-131589046D01*
X140338340Y-131589059D01*
X140338340Y-132162402D01*
X140329695Y-132191841D01*
X140323172Y-132221829D01*
X140319417Y-132226844D01*
X140318655Y-132229441D01*
X140302025Y-132250078D01*
X140254901Y-132297203D01*
X140213922Y-132338182D01*
X140152598Y-132371666D01*
X140126241Y-132374500D01*
X139413838Y-132374500D01*
X139413820Y-132374501D01*
X139311043Y-132385000D01*
X139311040Y-132385001D01*
X139144508Y-132440185D01*
X139144503Y-132440187D01*
X138995182Y-132532289D01*
X138871129Y-132656342D01*
X138779027Y-132805663D01*
X138779026Y-132805666D01*
X138723841Y-132972203D01*
X138723841Y-132972204D01*
X138723840Y-132972204D01*
X138713340Y-133074983D01*
X138164338Y-133074983D01*
X138157729Y-133010288D01*
X138153839Y-132972203D01*
X138153838Y-132972200D01*
X138152664Y-132968656D01*
X138098654Y-132805666D01*
X138006552Y-132656344D01*
X137882496Y-132532288D01*
X137733174Y-132440186D01*
X137566637Y-132385001D01*
X137566635Y-132385000D01*
X137463856Y-132374500D01*
X137463849Y-132374500D01*
X137163340Y-132374500D01*
X137096301Y-132354815D01*
X137050546Y-132302011D01*
X137039340Y-132250500D01*
X137039340Y-130579765D01*
X137059025Y-130512726D01*
X137060238Y-130510874D01*
X137148230Y-130379185D01*
X137148230Y-130379184D01*
X137148234Y-130379179D01*
X137208577Y-130233497D01*
X137239340Y-130078842D01*
X137239340Y-129921158D01*
X137239340Y-129921155D01*
X137239339Y-129921153D01*
X137208578Y-129766510D01*
X137208577Y-129766503D01*
X137197829Y-129740554D01*
X137148237Y-129620827D01*
X137148230Y-129620814D01*
X137060629Y-129489711D01*
X137060626Y-129489707D01*
X136949132Y-129378213D01*
X136949128Y-129378210D01*
X136818025Y-129290609D01*
X136818012Y-129290602D01*
X136672341Y-129230264D01*
X136672329Y-129230261D01*
X136517685Y-129199500D01*
X136517682Y-129199500D01*
X136359998Y-129199500D01*
X136359995Y-129199500D01*
X136205350Y-129230261D01*
X136205338Y-129230264D01*
X136059667Y-129290602D01*
X136059654Y-129290609D01*
X136007731Y-129325304D01*
X135941054Y-129346182D01*
X135873673Y-129327698D01*
X135869949Y-129325304D01*
X135818025Y-129290609D01*
X135818012Y-129290602D01*
X135672341Y-129230264D01*
X135672329Y-129230261D01*
X135517685Y-129199500D01*
X135517682Y-129199500D01*
X135359998Y-129199500D01*
X135359995Y-129199500D01*
X135205350Y-129230261D01*
X135205338Y-129230264D01*
X135059667Y-129290602D01*
X135059654Y-129290609D01*
X135007731Y-129325304D01*
X134941054Y-129346182D01*
X134873673Y-129327698D01*
X134869949Y-129325304D01*
X134818025Y-129290609D01*
X134818012Y-129290602D01*
X134672341Y-129230264D01*
X134672329Y-129230261D01*
X134517685Y-129199500D01*
X134517682Y-129199500D01*
X134359998Y-129199500D01*
X134359995Y-129199500D01*
X134205350Y-129230261D01*
X134205338Y-129230264D01*
X134059667Y-129290602D01*
X134059654Y-129290609D01*
X133928551Y-129378210D01*
X133928547Y-129378213D01*
X133817053Y-129489707D01*
X133813187Y-129494419D01*
X133811060Y-129492673D01*
X133766207Y-129529802D01*
X133696842Y-129538184D01*
X133633957Y-129507733D01*
X133597517Y-129448118D01*
X133599093Y-129378266D01*
X133602686Y-129368435D01*
X133658579Y-129233497D01*
X133689342Y-129078842D01*
X133689342Y-128921158D01*
X133689342Y-128921155D01*
X133689341Y-128921153D01*
X133665341Y-128800498D01*
X133658579Y-128766503D01*
X133632192Y-128702799D01*
X133598239Y-128620827D01*
X133598232Y-128620814D01*
X133510630Y-128489709D01*
X133399134Y-128378213D01*
X133399130Y-128378210D01*
X133268027Y-128290609D01*
X133268014Y-128290602D01*
X133122343Y-128230264D01*
X133122331Y-128230261D01*
X132967687Y-128199500D01*
X132967684Y-128199500D01*
X132810000Y-128199500D01*
X132809997Y-128199500D01*
X132655352Y-128230261D01*
X132655340Y-128230264D01*
X132509669Y-128290602D01*
X132509656Y-128290609D01*
X132378553Y-128378210D01*
X132378549Y-128378213D01*
X132267055Y-128489707D01*
X132267054Y-128489709D01*
X132179451Y-128620814D01*
X132179444Y-128620827D01*
X132119106Y-128766498D01*
X132119103Y-128766508D01*
X132088203Y-128921850D01*
X132055818Y-128983761D01*
X132054267Y-128985339D01*
X129726424Y-131313183D01*
X129665101Y-131346668D01*
X129638743Y-131349502D01*
X128575508Y-131349502D01*
X128575492Y-131349501D01*
X128567896Y-131349501D01*
X128409781Y-131349501D01*
X128333417Y-131369963D01*
X128257052Y-131390425D01*
X128257047Y-131390428D01*
X128120128Y-131469477D01*
X128120120Y-131469483D01*
X127632893Y-131956710D01*
X127607213Y-131976416D01*
X127532624Y-132019480D01*
X127532621Y-132019482D01*
X127213922Y-132338181D01*
X127152599Y-132371666D01*
X127126241Y-132374500D01*
X126413838Y-132374500D01*
X126413820Y-132374501D01*
X126311043Y-132385000D01*
X126311040Y-132385001D01*
X126144508Y-132440185D01*
X126144503Y-132440187D01*
X125995182Y-132532289D01*
X125871129Y-132656342D01*
X125779027Y-132805663D01*
X125779026Y-132805666D01*
X125723841Y-132972203D01*
X125723841Y-132972204D01*
X125723840Y-132972204D01*
X125713340Y-133074983D01*
X123100500Y-133074983D01*
X123100500Y-128245908D01*
X123120185Y-128178869D01*
X123164271Y-128140363D01*
X123163187Y-128138605D01*
X123169332Y-128134814D01*
X123169334Y-128134814D01*
X123318656Y-128042712D01*
X123412319Y-127949049D01*
X123473642Y-127915564D01*
X123543334Y-127920548D01*
X123587681Y-127949049D01*
X123681344Y-128042712D01*
X123830666Y-128134814D01*
X123997203Y-128189999D01*
X124099991Y-128200500D01*
X124900008Y-128200499D01*
X124900016Y-128200498D01*
X124900019Y-128200498D01*
X124956302Y-128194748D01*
X125002797Y-128189999D01*
X125169334Y-128134814D01*
X125318656Y-128042712D01*
X125442712Y-127918656D01*
X125534814Y-127769334D01*
X125589999Y-127602797D01*
X125600500Y-127500009D01*
X125600499Y-126499992D01*
X125589999Y-126397203D01*
X125534814Y-126230666D01*
X125442712Y-126081344D01*
X125318656Y-125957288D01*
X125169334Y-125865186D01*
X125169332Y-125865185D01*
X125163187Y-125861395D01*
X125164290Y-125859605D01*
X125119649Y-125820290D01*
X125100500Y-125754091D01*
X125100500Y-108579765D01*
X125120185Y-108512726D01*
X125121398Y-108510874D01*
X125179877Y-108423355D01*
X125209394Y-108379179D01*
X125269737Y-108233497D01*
X125300500Y-108078842D01*
X125300500Y-107921158D01*
X125300500Y-107921155D01*
X125300499Y-107921153D01*
X125269737Y-107766503D01*
X125243350Y-107702799D01*
X125209397Y-107620827D01*
X125209390Y-107620814D01*
X125121789Y-107489711D01*
X125121786Y-107489707D01*
X125010292Y-107378213D01*
X125010288Y-107378210D01*
X124879185Y-107290609D01*
X124879172Y-107290602D01*
X124733501Y-107230264D01*
X124733489Y-107230261D01*
X124578845Y-107199500D01*
X124578842Y-107199500D01*
X124421158Y-107199500D01*
X124421155Y-107199500D01*
X124266510Y-107230261D01*
X124266498Y-107230264D01*
X124120827Y-107290602D01*
X124120814Y-107290609D01*
X123989711Y-107378210D01*
X123989707Y-107378213D01*
X123878213Y-107489707D01*
X123878210Y-107489711D01*
X123790609Y-107620814D01*
X123790602Y-107620827D01*
X123730264Y-107766498D01*
X123730261Y-107766510D01*
X123699500Y-107921153D01*
X123699500Y-108078846D01*
X123730261Y-108233489D01*
X123730264Y-108233501D01*
X123790602Y-108379172D01*
X123790609Y-108379185D01*
X123878602Y-108510874D01*
X123899480Y-108577551D01*
X123899500Y-108579765D01*
X123899500Y-125754091D01*
X123879815Y-125821130D01*
X123835731Y-125859641D01*
X123836813Y-125861395D01*
X123830667Y-125865185D01*
X123830666Y-125865186D01*
X123732419Y-125925784D01*
X123681342Y-125957289D01*
X123587681Y-126050951D01*
X123526358Y-126084436D01*
X123456666Y-126079452D01*
X123412319Y-126050951D01*
X123318657Y-125957289D01*
X123318656Y-125957288D01*
X123169334Y-125865186D01*
X123169332Y-125865185D01*
X123163187Y-125861395D01*
X123164290Y-125859605D01*
X123119649Y-125820290D01*
X123100500Y-125754091D01*
X123100500Y-111482105D01*
X123100499Y-111482101D01*
X123089332Y-111440423D01*
X123059577Y-111329375D01*
X123030639Y-111279255D01*
X122980520Y-111192444D01*
X122868716Y-111080640D01*
X122868715Y-111080639D01*
X122864385Y-111076309D01*
X122864374Y-111076299D01*
X113600256Y-101812181D01*
X113566771Y-101750858D01*
X113571755Y-101681166D01*
X113613627Y-101625233D01*
X113679091Y-101600816D01*
X113687937Y-101600500D01*
X130852171Y-101600500D01*
X130852187Y-101600501D01*
X130859783Y-101600501D01*
X131017894Y-101600501D01*
X131017897Y-101600501D01*
X131170625Y-101559577D01*
X131220744Y-101530639D01*
X131307556Y-101480520D01*
X131419360Y-101368716D01*
X131419360Y-101368714D01*
X131429568Y-101358507D01*
X131429570Y-101358504D01*
X133626659Y-99161415D01*
X133687982Y-99127930D01*
X133757674Y-99132914D01*
X133813607Y-99174786D01*
X133838024Y-99240250D01*
X133838340Y-99249096D01*
X133838340Y-99549902D01*
X133818655Y-99616941D01*
X133802021Y-99637583D01*
X132458321Y-100981282D01*
X132458319Y-100981285D01*
X132413120Y-101059574D01*
X132413119Y-101059575D01*
X132379263Y-101118215D01*
X132338339Y-101270943D01*
X132338339Y-101270945D01*
X132338339Y-101439046D01*
X132338340Y-101439059D01*
X132338340Y-119699903D01*
X132318655Y-119766942D01*
X132302021Y-119787584D01*
X130424179Y-121665425D01*
X130362856Y-121698910D01*
X130360690Y-121699361D01*
X130205348Y-121730261D01*
X130205338Y-121730264D01*
X130059667Y-121790602D01*
X130059654Y-121790609D01*
X129928551Y-121878210D01*
X129928547Y-121878213D01*
X129817053Y-121989707D01*
X129817050Y-121989711D01*
X129729449Y-122120814D01*
X129729442Y-122120827D01*
X129669104Y-122266498D01*
X129669101Y-122266510D01*
X129638340Y-122421153D01*
X129638340Y-122578846D01*
X129669101Y-122733489D01*
X129669104Y-122733501D01*
X129729442Y-122879172D01*
X129729449Y-122879185D01*
X129817050Y-123010288D01*
X129817053Y-123010292D01*
X129928547Y-123121786D01*
X129928551Y-123121789D01*
X130059654Y-123209390D01*
X130059667Y-123209397D01*
X130205338Y-123269735D01*
X130205343Y-123269737D01*
X130359993Y-123300499D01*
X130359996Y-123300500D01*
X130359998Y-123300500D01*
X130517684Y-123300500D01*
X130517685Y-123300499D01*
X130672337Y-123269737D01*
X130818019Y-123209394D01*
X130949129Y-123121789D01*
X131060629Y-123010289D01*
X131148234Y-122879179D01*
X131208577Y-122733497D01*
X131227953Y-122636085D01*
X131239478Y-122578150D01*
X131271863Y-122516239D01*
X131273359Y-122514715D01*
X133307553Y-120480521D01*
X133307556Y-120480520D01*
X133419360Y-120368716D01*
X133469479Y-120281904D01*
X133498417Y-120231785D01*
X133539341Y-120079057D01*
X133539341Y-119920943D01*
X133539341Y-119913348D01*
X133539340Y-119913330D01*
X133539340Y-107576647D01*
X133838340Y-107576647D01*
X133838340Y-108423337D01*
X133838341Y-108423355D01*
X133848490Y-108522707D01*
X133848491Y-108522710D01*
X133901836Y-108683694D01*
X133901841Y-108683705D01*
X133990869Y-108828040D01*
X133990871Y-108828043D01*
X133990872Y-108828044D01*
X134110796Y-108947968D01*
X134129436Y-108959465D01*
X134176161Y-109011412D01*
X134188340Y-109065004D01*
X134188340Y-112195396D01*
X134178902Y-112242844D01*
X134169105Y-112266498D01*
X134169102Y-112266506D01*
X134169100Y-112266511D01*
X134138340Y-112421153D01*
X134138340Y-112578846D01*
X134169101Y-112733489D01*
X134169104Y-112733501D01*
X134229442Y-112879172D01*
X134229449Y-112879185D01*
X134317050Y-113010288D01*
X134317053Y-113010292D01*
X134428547Y-113121786D01*
X134428551Y-113121789D01*
X134559654Y-113209390D01*
X134559667Y-113209397D01*
X134697523Y-113266498D01*
X134705343Y-113269737D01*
X134859993Y-113300499D01*
X134859996Y-113300500D01*
X134859998Y-113300500D01*
X135017684Y-113300500D01*
X135017685Y-113300499D01*
X135172337Y-113269737D01*
X135318019Y-113209394D01*
X135449129Y-113121789D01*
X135560629Y-113010289D01*
X135648234Y-112879179D01*
X135708577Y-112733497D01*
X135739340Y-112578842D01*
X135739340Y-112421158D01*
X135739340Y-112421155D01*
X135739339Y-112421153D01*
X135735133Y-112400009D01*
X135708577Y-112266503D01*
X135708575Y-112266498D01*
X135648237Y-112120827D01*
X135648230Y-112120814D01*
X135560629Y-111989711D01*
X135560626Y-111989707D01*
X135449132Y-111878213D01*
X135449124Y-111878207D01*
X135444445Y-111875080D01*
X135399642Y-111821466D01*
X135389340Y-111771981D01*
X135389340Y-109065004D01*
X135409025Y-108997965D01*
X135448243Y-108959465D01*
X135466884Y-108947968D01*
X135586808Y-108828044D01*
X135675843Y-108683697D01*
X135729189Y-108522708D01*
X135739340Y-108423345D01*
X135739339Y-107576656D01*
X135729189Y-107477292D01*
X135675843Y-107316303D01*
X135675839Y-107316297D01*
X135675838Y-107316294D01*
X135586810Y-107171959D01*
X135586807Y-107171955D01*
X135466884Y-107052032D01*
X135466880Y-107052029D01*
X135322545Y-106963001D01*
X135322539Y-106962998D01*
X135322537Y-106962997D01*
X135306968Y-106957838D01*
X135161549Y-106909651D01*
X135062186Y-106899500D01*
X134515502Y-106899500D01*
X134515484Y-106899501D01*
X134416132Y-106909650D01*
X134416129Y-106909651D01*
X134255145Y-106962996D01*
X134255134Y-106963001D01*
X134110799Y-107052029D01*
X134110795Y-107052032D01*
X133990872Y-107171955D01*
X133990869Y-107171959D01*
X133901841Y-107316294D01*
X133901836Y-107316305D01*
X133848491Y-107477290D01*
X133838340Y-107576647D01*
X133539340Y-107576647D01*
X133539340Y-103923322D01*
X133838841Y-103923322D01*
X133848984Y-104022607D01*
X133902292Y-104183481D01*
X133902297Y-104183492D01*
X133991264Y-104327728D01*
X133991267Y-104327732D01*
X134111107Y-104447572D01*
X134111111Y-104447575D01*
X134255347Y-104536542D01*
X134255358Y-104536547D01*
X134416233Y-104589855D01*
X134515523Y-104599999D01*
X135038840Y-104599999D01*
X135062148Y-104599999D01*
X135062162Y-104599998D01*
X135161447Y-104589855D01*
X135322321Y-104536547D01*
X135322332Y-104536542D01*
X135466568Y-104447575D01*
X135466572Y-104447572D01*
X135586412Y-104327732D01*
X135586415Y-104327728D01*
X135675382Y-104183492D01*
X135675387Y-104183481D01*
X135728695Y-104022606D01*
X135738839Y-103923322D01*
X135738840Y-103923309D01*
X135738840Y-103750000D01*
X135038840Y-103750000D01*
X135038840Y-104599999D01*
X134515523Y-104599999D01*
X134538840Y-104599998D01*
X134538840Y-103750000D01*
X133838841Y-103750000D01*
X133838841Y-103923322D01*
X133539340Y-103923322D01*
X133539340Y-103076677D01*
X133838840Y-103076677D01*
X133838840Y-103250000D01*
X134538840Y-103250000D01*
X135038840Y-103250000D01*
X135738839Y-103250000D01*
X135738839Y-103076692D01*
X135738838Y-103076677D01*
X135728695Y-102977392D01*
X135675387Y-102816518D01*
X135675382Y-102816507D01*
X135586415Y-102672271D01*
X135586412Y-102672267D01*
X135466572Y-102552427D01*
X135466568Y-102552424D01*
X135322332Y-102463457D01*
X135322321Y-102463452D01*
X135161446Y-102410144D01*
X135062162Y-102400000D01*
X135038840Y-102400000D01*
X135038840Y-103250000D01*
X134538840Y-103250000D01*
X134538840Y-102399999D01*
X134515533Y-102400000D01*
X134515514Y-102400001D01*
X134416232Y-102410144D01*
X134255358Y-102463452D01*
X134255347Y-102463457D01*
X134111111Y-102552424D01*
X134111107Y-102552427D01*
X133991267Y-102672267D01*
X133991264Y-102672271D01*
X133902297Y-102816507D01*
X133902292Y-102816518D01*
X133848984Y-102977393D01*
X133838840Y-103076677D01*
X133539340Y-103076677D01*
X133539340Y-101650096D01*
X133559025Y-101583057D01*
X133575655Y-101562419D01*
X134501256Y-100636817D01*
X134562579Y-100603333D01*
X134588937Y-100600499D01*
X135062178Y-100600499D01*
X135062184Y-100600499D01*
X135062192Y-100600498D01*
X135062195Y-100600498D01*
X135116600Y-100594940D01*
X135161548Y-100590349D01*
X135322537Y-100537003D01*
X135466884Y-100447968D01*
X135586808Y-100328044D01*
X135675843Y-100183697D01*
X135729189Y-100022708D01*
X135739340Y-99923345D01*
X135739339Y-99076656D01*
X135729189Y-98977292D01*
X135675843Y-98816303D01*
X135675839Y-98816297D01*
X135675838Y-98816294D01*
X135586810Y-98671959D01*
X135586807Y-98671955D01*
X135466884Y-98552032D01*
X135466880Y-98552029D01*
X135322545Y-98463001D01*
X135322539Y-98462998D01*
X135322537Y-98462997D01*
X135314175Y-98460226D01*
X135161549Y-98409651D01*
X135062186Y-98399500D01*
X134515502Y-98399500D01*
X134515484Y-98399501D01*
X134416132Y-98409650D01*
X134416126Y-98409652D01*
X134263503Y-98460226D01*
X134193675Y-98462628D01*
X134133633Y-98426896D01*
X134102441Y-98364375D01*
X134100500Y-98342520D01*
X134100500Y-97386555D01*
X134120185Y-97319516D01*
X134172989Y-97273761D01*
X134242147Y-97263817D01*
X134260411Y-97268840D01*
X134260676Y-97267969D01*
X134266492Y-97269732D01*
X134266503Y-97269737D01*
X134421153Y-97300499D01*
X134421156Y-97300500D01*
X134421158Y-97300500D01*
X134578844Y-97300500D01*
X134578845Y-97300499D01*
X134733497Y-97269737D01*
X134879179Y-97209394D01*
X135010289Y-97121789D01*
X135121789Y-97010289D01*
X135209394Y-96879179D01*
X135269737Y-96733497D01*
X135291958Y-96621786D01*
X135300638Y-96578150D01*
X135333023Y-96516239D01*
X135334518Y-96514716D01*
X136036207Y-95813027D01*
X136097528Y-95779544D01*
X136167220Y-95784528D01*
X136223153Y-95826400D01*
X136238447Y-95853257D01*
X136290604Y-95979175D01*
X136290609Y-95979185D01*
X136378210Y-96110288D01*
X136378213Y-96110292D01*
X136489707Y-96221786D01*
X136489711Y-96221789D01*
X136620814Y-96309390D01*
X136620827Y-96309397D01*
X136766498Y-96369735D01*
X136766503Y-96369737D01*
X136831147Y-96382595D01*
X136921849Y-96400638D01*
X136983760Y-96433023D01*
X136985339Y-96434574D01*
X138893344Y-98342579D01*
X138926829Y-98403902D01*
X138921845Y-98473594D01*
X138879973Y-98529527D01*
X138814509Y-98553944D01*
X138746236Y-98539092D01*
X138740566Y-98535798D01*
X138622545Y-98463001D01*
X138622539Y-98462998D01*
X138622537Y-98462997D01*
X138614175Y-98460226D01*
X138461549Y-98409651D01*
X138362186Y-98399500D01*
X137815502Y-98399500D01*
X137815484Y-98399501D01*
X137716132Y-98409650D01*
X137716129Y-98409651D01*
X137555145Y-98462996D01*
X137555134Y-98463001D01*
X137410799Y-98552029D01*
X137410795Y-98552032D01*
X137290872Y-98671955D01*
X137290869Y-98671959D01*
X137201841Y-98816294D01*
X137201836Y-98816305D01*
X137148491Y-98977290D01*
X137138340Y-99076647D01*
X137138340Y-99923337D01*
X137138341Y-99923355D01*
X137148490Y-100022707D01*
X137148491Y-100022710D01*
X137201836Y-100183694D01*
X137201841Y-100183705D01*
X137290869Y-100328040D01*
X137290872Y-100328044D01*
X137410796Y-100447968D01*
X137429436Y-100459465D01*
X137476161Y-100511412D01*
X137488340Y-100565004D01*
X137488340Y-102434995D01*
X137468655Y-102502034D01*
X137429440Y-102540532D01*
X137410794Y-102552033D01*
X137290869Y-102671959D01*
X137201841Y-102816294D01*
X137201836Y-102816305D01*
X137148491Y-102977290D01*
X137138340Y-103076647D01*
X137138340Y-103923337D01*
X137138341Y-103923355D01*
X137148490Y-104022707D01*
X137148491Y-104022710D01*
X137201836Y-104183694D01*
X137201841Y-104183705D01*
X137290869Y-104328040D01*
X137290872Y-104328044D01*
X137410795Y-104447967D01*
X137410799Y-104447970D01*
X137555134Y-104536998D01*
X137555137Y-104536999D01*
X137555143Y-104537003D01*
X137716132Y-104590349D01*
X137815495Y-104600500D01*
X138362184Y-104600499D01*
X138362192Y-104600498D01*
X138362195Y-104600498D01*
X138416600Y-104594940D01*
X138461548Y-104590349D01*
X138622537Y-104537003D01*
X138766884Y-104447968D01*
X138886808Y-104328044D01*
X138975843Y-104183697D01*
X138975844Y-104183692D01*
X138978893Y-104177155D01*
X138980501Y-104177904D01*
X139015024Y-104128047D01*
X139079541Y-104101227D01*
X139092953Y-104100500D01*
X139725255Y-104100500D01*
X139792294Y-104120185D01*
X139838049Y-104172989D01*
X139842958Y-104185489D01*
X139879026Y-104294334D01*
X139971128Y-104443656D01*
X140095184Y-104567712D01*
X140244506Y-104659814D01*
X140411043Y-104714999D01*
X140513831Y-104725500D01*
X141288848Y-104725499D01*
X141288856Y-104725498D01*
X141288859Y-104725498D01*
X141345142Y-104719748D01*
X141391637Y-104714999D01*
X141558174Y-104659814D01*
X141707496Y-104567712D01*
X141831552Y-104443656D01*
X141833301Y-104440819D01*
X141835009Y-104439283D01*
X141836033Y-104437989D01*
X141836254Y-104438163D01*
X141885246Y-104394096D01*
X141954208Y-104382872D01*
X142018291Y-104410713D01*
X142044377Y-104440817D01*
X142046128Y-104443656D01*
X142170184Y-104567712D01*
X142316937Y-104658229D01*
X142363661Y-104710175D01*
X142375840Y-104763767D01*
X142375840Y-106927310D01*
X142356155Y-106994349D01*
X142314965Y-107034039D01*
X142297642Y-107044285D01*
X142297637Y-107044288D01*
X142188129Y-107153796D01*
X142188122Y-107153805D01*
X142109285Y-107287112D01*
X142109285Y-107287113D01*
X142102608Y-107310095D01*
X142065003Y-107368980D01*
X142001530Y-107398187D01*
X141983532Y-107399500D01*
X139092953Y-107399500D01*
X139025914Y-107379815D01*
X138980159Y-107327011D01*
X138976544Y-107317807D01*
X138975840Y-107316297D01*
X138886808Y-107171956D01*
X138766884Y-107052032D01*
X138766880Y-107052029D01*
X138622545Y-106963001D01*
X138622539Y-106962998D01*
X138622537Y-106962997D01*
X138606968Y-106957838D01*
X138461549Y-106909651D01*
X138362186Y-106899500D01*
X137815502Y-106899500D01*
X137815484Y-106899501D01*
X137716132Y-106909650D01*
X137716129Y-106909651D01*
X137555145Y-106962996D01*
X137555134Y-106963001D01*
X137410799Y-107052029D01*
X137410795Y-107052032D01*
X137290872Y-107171955D01*
X137290869Y-107171959D01*
X137201841Y-107316294D01*
X137201836Y-107316305D01*
X137148491Y-107477290D01*
X137138340Y-107576647D01*
X137138340Y-108423337D01*
X137138341Y-108423355D01*
X137148490Y-108522707D01*
X137148491Y-108522710D01*
X137201836Y-108683694D01*
X137201841Y-108683705D01*
X137290869Y-108828040D01*
X137290872Y-108828044D01*
X137410795Y-108947967D01*
X137410799Y-108947970D01*
X137555134Y-109036998D01*
X137555137Y-109036999D01*
X137555143Y-109037003D01*
X137716132Y-109090349D01*
X137815495Y-109100500D01*
X138362184Y-109100499D01*
X138362192Y-109100498D01*
X138362195Y-109100498D01*
X138416600Y-109094940D01*
X138461548Y-109090349D01*
X138622537Y-109037003D01*
X138766884Y-108947968D01*
X138886808Y-108828044D01*
X138975843Y-108683697D01*
X138975844Y-108683692D01*
X138978893Y-108677155D01*
X138980501Y-108677904D01*
X139015024Y-108628047D01*
X139079541Y-108601227D01*
X139092953Y-108600500D01*
X141939341Y-108600500D01*
X142006380Y-108620185D01*
X142052135Y-108672989D01*
X142063341Y-108724500D01*
X142063341Y-108869415D01*
X142066074Y-108904152D01*
X142066074Y-108904155D01*
X142066075Y-108904156D01*
X142109285Y-109052887D01*
X142131440Y-109090349D01*
X142188122Y-109186194D01*
X142188129Y-109186203D01*
X142297636Y-109295710D01*
X142297640Y-109295713D01*
X142297642Y-109295715D01*
X142430953Y-109374555D01*
X142579684Y-109417765D01*
X142614435Y-109420500D01*
X142963244Y-109420499D01*
X142965440Y-109420326D01*
X143033816Y-109434690D01*
X143083573Y-109483741D01*
X143098912Y-109551907D01*
X143074963Y-109617544D01*
X143038289Y-109650676D01*
X142947645Y-109704282D01*
X142947636Y-109704289D01*
X142838129Y-109813796D01*
X142838122Y-109813805D01*
X142759286Y-109947111D01*
X142716074Y-110095847D01*
X142716074Y-110095849D01*
X142713340Y-110130589D01*
X142713340Y-111529393D01*
X142713341Y-111529415D01*
X142716074Y-111564152D01*
X142716074Y-111564155D01*
X142716075Y-111564156D01*
X142759285Y-111712887D01*
X142759286Y-111712888D01*
X142838122Y-111846194D01*
X142838129Y-111846203D01*
X142947636Y-111955710D01*
X142947640Y-111955713D01*
X142947642Y-111955715D01*
X143080953Y-112034555D01*
X143229684Y-112077765D01*
X143264435Y-112080500D01*
X143613244Y-112080499D01*
X143647996Y-112077765D01*
X143724317Y-112055591D01*
X143794183Y-112055790D01*
X143846591Y-112086986D01*
X144123979Y-112364374D01*
X144123989Y-112364385D01*
X144128319Y-112368715D01*
X144128320Y-112368716D01*
X144240124Y-112480520D01*
X144278710Y-112502797D01*
X144326935Y-112530639D01*
X144326937Y-112530641D01*
X144364991Y-112552611D01*
X144377055Y-112559577D01*
X144529783Y-112600501D01*
X144529786Y-112600501D01*
X144695493Y-112600501D01*
X144695509Y-112600500D01*
X145692932Y-112600500D01*
X145759971Y-112620185D01*
X145798476Y-112664271D01*
X145800235Y-112663187D01*
X145804025Y-112669331D01*
X145804026Y-112669334D01*
X145896128Y-112818656D01*
X146020184Y-112942712D01*
X146169506Y-113034814D01*
X146253345Y-113062595D01*
X146310788Y-113102366D01*
X146337612Y-113166882D01*
X146338340Y-113180300D01*
X146338340Y-113920234D01*
X146318655Y-113987273D01*
X146317442Y-113989125D01*
X146229449Y-114120814D01*
X146229442Y-114120827D01*
X146169104Y-114266498D01*
X146169101Y-114266510D01*
X146138340Y-114421153D01*
X146138340Y-114578846D01*
X146169101Y-114733489D01*
X146169104Y-114733501D01*
X146229442Y-114879172D01*
X146229449Y-114879185D01*
X146317050Y-115010288D01*
X146317053Y-115010292D01*
X146428547Y-115121786D01*
X146428551Y-115121789D01*
X146559654Y-115209390D01*
X146559667Y-115209397D01*
X146705338Y-115269735D01*
X146705343Y-115269737D01*
X146859993Y-115300499D01*
X146859996Y-115300500D01*
X146859998Y-115300500D01*
X147017684Y-115300500D01*
X147017685Y-115300499D01*
X147172337Y-115269737D01*
X147318019Y-115209394D01*
X147449129Y-115121789D01*
X147560629Y-115010289D01*
X147648234Y-114879179D01*
X147708577Y-114733497D01*
X147739340Y-114578842D01*
X147739340Y-114421158D01*
X147739340Y-114421155D01*
X147739339Y-114421153D01*
X147722117Y-114334574D01*
X147708577Y-114266503D01*
X147648634Y-114121786D01*
X147648237Y-114120827D01*
X147648230Y-114120814D01*
X147560238Y-113989125D01*
X147539360Y-113922447D01*
X147539340Y-113920234D01*
X147539340Y-113180300D01*
X147559025Y-113113261D01*
X147611829Y-113067506D01*
X147624322Y-113062599D01*
X147708174Y-113034814D01*
X147857496Y-112942712D01*
X147981552Y-112818656D01*
X148073654Y-112669334D01*
X148128839Y-112502797D01*
X148139340Y-112400009D01*
X148139339Y-111599992D01*
X148132129Y-111529415D01*
X148128839Y-111497203D01*
X148128838Y-111497200D01*
X148084428Y-111363181D01*
X148073654Y-111330666D01*
X147981552Y-111181344D01*
X147887535Y-111087327D01*
X147854050Y-111026004D01*
X147859034Y-110956312D01*
X147887535Y-110911964D01*
X147981157Y-110818342D01*
X148073196Y-110669124D01*
X148073198Y-110669119D01*
X148128345Y-110502697D01*
X148128346Y-110502690D01*
X148138839Y-110399986D01*
X148138840Y-110399973D01*
X148138840Y-110250000D01*
X145738841Y-110250000D01*
X145738841Y-110399986D01*
X145749334Y-110502697D01*
X145804481Y-110669119D01*
X145804483Y-110669124D01*
X145896524Y-110818345D01*
X145990144Y-110911965D01*
X146023629Y-110973288D01*
X146018645Y-111042980D01*
X145990145Y-111087327D01*
X145896127Y-111181345D01*
X145889281Y-111192445D01*
X145804823Y-111329375D01*
X145800235Y-111336813D01*
X145798440Y-111335706D01*
X145759153Y-111380337D01*
X145692932Y-111399500D01*
X144908937Y-111399500D01*
X144841898Y-111379815D01*
X144821256Y-111363181D01*
X144200658Y-110742583D01*
X144167173Y-110681260D01*
X144164339Y-110654902D01*
X144164339Y-110130606D01*
X144164338Y-110130584D01*
X144161605Y-110095847D01*
X144161605Y-110095844D01*
X144118395Y-109947113D01*
X144039555Y-109813802D01*
X144039553Y-109813800D01*
X144039550Y-109813796D01*
X143930043Y-109704289D01*
X143930034Y-109704282D01*
X143928875Y-109703597D01*
X143928873Y-109703596D01*
X143839392Y-109650677D01*
X143792086Y-109600013D01*
X145738840Y-109600013D01*
X145738840Y-109750000D01*
X146688840Y-109750000D01*
X147188840Y-109750000D01*
X148138839Y-109750000D01*
X148138839Y-109600028D01*
X148138838Y-109600013D01*
X148128345Y-109497302D01*
X148073198Y-109330880D01*
X148073196Y-109330875D01*
X147981155Y-109181654D01*
X147857185Y-109057684D01*
X147707964Y-108965643D01*
X147707959Y-108965641D01*
X147541537Y-108910494D01*
X147541530Y-108910493D01*
X147438826Y-108900000D01*
X147188840Y-108900000D01*
X147188840Y-109750000D01*
X146688840Y-109750000D01*
X146688840Y-108900000D01*
X146438869Y-108900000D01*
X146438852Y-108900001D01*
X146336142Y-108910494D01*
X146169720Y-108965641D01*
X146169715Y-108965643D01*
X146020494Y-109057684D01*
X145896524Y-109181654D01*
X145804483Y-109330875D01*
X145804481Y-109330880D01*
X145749334Y-109497302D01*
X145749333Y-109497309D01*
X145738840Y-109600013D01*
X143792086Y-109600013D01*
X143791708Y-109599608D01*
X143779205Y-109530866D01*
X143805850Y-109466277D01*
X143863186Y-109426347D01*
X143912250Y-109420328D01*
X143914435Y-109420500D01*
X144263244Y-109420499D01*
X144297996Y-109417765D01*
X144446727Y-109374555D01*
X144580038Y-109295715D01*
X144689555Y-109186198D01*
X144768395Y-109052887D01*
X144811605Y-108904156D01*
X144814340Y-108869405D01*
X144814339Y-108345096D01*
X144822985Y-108315650D01*
X144829507Y-108285670D01*
X144833260Y-108280656D01*
X144834023Y-108278058D01*
X144850653Y-108257421D01*
X144971257Y-108136817D01*
X145032579Y-108103334D01*
X145058937Y-108100500D01*
X145692932Y-108100500D01*
X145759971Y-108120185D01*
X145798476Y-108164271D01*
X145800235Y-108163187D01*
X145804025Y-108169332D01*
X145804026Y-108169334D01*
X145896128Y-108318656D01*
X146020184Y-108442712D01*
X146169506Y-108534814D01*
X146336043Y-108589999D01*
X146438831Y-108600500D01*
X147438848Y-108600499D01*
X147438856Y-108600498D01*
X147438859Y-108600498D01*
X147495142Y-108594748D01*
X147541637Y-108589999D01*
X147708174Y-108534814D01*
X147857496Y-108442712D01*
X147981552Y-108318656D01*
X147987554Y-108308924D01*
X148039501Y-108262200D01*
X148108463Y-108250977D01*
X148172546Y-108278820D01*
X148207654Y-108326569D01*
X148229442Y-108379172D01*
X148229449Y-108379185D01*
X148317050Y-108510288D01*
X148317053Y-108510292D01*
X148428547Y-108621786D01*
X148428551Y-108621789D01*
X148559654Y-108709390D01*
X148559667Y-108709397D01*
X148705338Y-108769735D01*
X148705343Y-108769737D01*
X148859993Y-108800499D01*
X148859996Y-108800500D01*
X148859998Y-108800500D01*
X149017684Y-108800500D01*
X149017685Y-108800499D01*
X149172337Y-108769737D01*
X149318019Y-108709394D01*
X149449129Y-108621789D01*
X149560629Y-108510289D01*
X149648234Y-108379179D01*
X149708577Y-108233497D01*
X149739340Y-108078842D01*
X149739340Y-107921158D01*
X149739340Y-107921155D01*
X149739339Y-107921153D01*
X149708577Y-107766503D01*
X149682190Y-107702799D01*
X149648237Y-107620827D01*
X149648230Y-107620814D01*
X149560629Y-107489711D01*
X149560626Y-107489707D01*
X149449132Y-107378213D01*
X149449128Y-107378210D01*
X149318025Y-107290609D01*
X149318012Y-107290602D01*
X149172341Y-107230264D01*
X149172331Y-107230261D01*
X149016991Y-107199362D01*
X149000234Y-107190596D01*
X148981756Y-107186577D01*
X148956715Y-107167831D01*
X148955081Y-107166977D01*
X148953504Y-107165428D01*
X148953500Y-107165425D01*
X148941880Y-107153805D01*
X148919361Y-107131285D01*
X148919360Y-107131284D01*
X148807556Y-107019480D01*
X148807554Y-107019479D01*
X148807549Y-107019475D01*
X148709725Y-106962997D01*
X148709723Y-106962996D01*
X148670630Y-106940425D01*
X148670629Y-106940424D01*
X148614932Y-106925500D01*
X148517897Y-106899499D01*
X148359783Y-106899499D01*
X148352187Y-106899499D01*
X148352171Y-106899500D01*
X148184748Y-106899500D01*
X148117709Y-106879815D01*
X148079203Y-106835728D01*
X148077445Y-106836813D01*
X148070997Y-106826359D01*
X147981552Y-106681344D01*
X147887535Y-106587327D01*
X147854050Y-106526004D01*
X147859034Y-106456312D01*
X147887535Y-106411964D01*
X147981157Y-106318342D01*
X148073196Y-106169124D01*
X148073198Y-106169119D01*
X148128345Y-106002697D01*
X148128346Y-106002690D01*
X148138839Y-105899986D01*
X148138840Y-105899973D01*
X148138840Y-105750000D01*
X145738841Y-105750000D01*
X145738841Y-105899986D01*
X145749334Y-106002697D01*
X145804481Y-106169119D01*
X145804483Y-106169124D01*
X145896524Y-106318345D01*
X145990144Y-106411965D01*
X146023629Y-106473288D01*
X146018645Y-106542980D01*
X145990145Y-106587327D01*
X145896127Y-106681345D01*
X145800235Y-106836813D01*
X145798440Y-106835706D01*
X145759153Y-106880337D01*
X145692932Y-106899500D01*
X144837897Y-106899500D01*
X144679783Y-106899500D01*
X144527055Y-106940423D01*
X144527054Y-106940423D01*
X144527052Y-106940424D01*
X144527051Y-106940424D01*
X144517134Y-106946150D01*
X144449234Y-106962620D01*
X144420543Y-106957838D01*
X144297996Y-106922235D01*
X144297994Y-106922234D01*
X144297990Y-106922234D01*
X144267752Y-106919854D01*
X144263245Y-106919500D01*
X144263244Y-106919500D01*
X143914446Y-106919500D01*
X143914424Y-106919501D01*
X143879686Y-106922234D01*
X143735434Y-106964143D01*
X143665565Y-106963943D01*
X143606895Y-106926000D01*
X143578052Y-106862362D01*
X143576840Y-106845066D01*
X143576840Y-105100013D01*
X145738840Y-105100013D01*
X145738840Y-105250000D01*
X146688840Y-105250000D01*
X147188840Y-105250000D01*
X148138839Y-105250000D01*
X148138839Y-105188428D01*
X158838840Y-105188428D01*
X158838840Y-105300000D01*
X159658510Y-105300000D01*
X159638765Y-105319745D01*
X159589396Y-105405255D01*
X159563840Y-105500630D01*
X159563840Y-105599370D01*
X159589396Y-105694745D01*
X159638765Y-105780255D01*
X159658510Y-105800000D01*
X158838840Y-105800000D01*
X158838840Y-105911571D01*
X158865925Y-106082584D01*
X158919431Y-106247257D01*
X158998035Y-106401524D01*
X159099807Y-106541602D01*
X159222237Y-106664032D01*
X159362315Y-106765804D01*
X159516584Y-106844408D01*
X159681255Y-106897914D01*
X159681254Y-106897914D01*
X159688839Y-106899115D01*
X159688840Y-106899114D01*
X159688840Y-105830330D01*
X159708585Y-105850075D01*
X159794095Y-105899444D01*
X159889470Y-105925000D01*
X159988210Y-105925000D01*
X160083585Y-105899444D01*
X160169095Y-105850075D01*
X160188840Y-105830330D01*
X160188840Y-106899115D01*
X160196424Y-106897914D01*
X160361095Y-106844408D01*
X160515364Y-106765804D01*
X160655438Y-106664035D01*
X160763039Y-106556434D01*
X160824362Y-106522949D01*
X160894054Y-106527933D01*
X160949988Y-106569804D01*
X160956258Y-106579016D01*
X160996128Y-106643656D01*
X161120184Y-106767712D01*
X161269506Y-106859814D01*
X161436043Y-106914999D01*
X161538831Y-106925500D01*
X162338848Y-106925499D01*
X162338856Y-106925498D01*
X162338859Y-106925498D01*
X162397575Y-106919500D01*
X162441637Y-106914999D01*
X162608174Y-106859814D01*
X162757496Y-106767712D01*
X162881552Y-106643656D01*
X162973654Y-106494334D01*
X163028839Y-106327797D01*
X163039340Y-106225009D01*
X163039339Y-104874992D01*
X163028839Y-104772203D01*
X162973654Y-104605666D01*
X162881552Y-104456344D01*
X162757496Y-104332288D01*
X162633150Y-104255591D01*
X162608176Y-104240187D01*
X162608171Y-104240185D01*
X162606702Y-104239698D01*
X162441637Y-104185001D01*
X162441635Y-104185000D01*
X162338850Y-104174500D01*
X161538838Y-104174500D01*
X161538820Y-104174501D01*
X161436043Y-104185000D01*
X161436040Y-104185001D01*
X161269508Y-104240185D01*
X161269503Y-104240187D01*
X161120182Y-104332289D01*
X160996129Y-104456342D01*
X160956260Y-104520981D01*
X160904312Y-104567705D01*
X160835349Y-104578928D01*
X160771267Y-104551084D01*
X160763040Y-104543565D01*
X160655442Y-104435967D01*
X160515364Y-104334195D01*
X160361097Y-104255591D01*
X160196429Y-104202087D01*
X160196421Y-104202085D01*
X160188840Y-104200884D01*
X160188840Y-105269670D01*
X160169095Y-105249925D01*
X160083585Y-105200556D01*
X159988210Y-105175000D01*
X159889470Y-105175000D01*
X159794095Y-105200556D01*
X159708585Y-105249925D01*
X159688840Y-105269670D01*
X159688840Y-104200884D01*
X159688839Y-104200884D01*
X159681258Y-104202085D01*
X159681250Y-104202087D01*
X159516582Y-104255591D01*
X159362315Y-104334195D01*
X159222237Y-104435967D01*
X159099807Y-104558397D01*
X158998035Y-104698475D01*
X158919431Y-104852742D01*
X158865925Y-105017415D01*
X158838840Y-105188428D01*
X148138839Y-105188428D01*
X148138839Y-105100028D01*
X148138838Y-105100013D01*
X148128345Y-104997302D01*
X148073198Y-104830880D01*
X148073196Y-104830875D01*
X147981155Y-104681654D01*
X147857185Y-104557684D01*
X147707964Y-104465643D01*
X147707959Y-104465641D01*
X147541537Y-104410494D01*
X147541530Y-104410493D01*
X147438826Y-104400000D01*
X147188840Y-104400000D01*
X147188840Y-105250000D01*
X146688840Y-105250000D01*
X146688840Y-104400000D01*
X146438869Y-104400000D01*
X146438852Y-104400001D01*
X146336142Y-104410494D01*
X146169720Y-104465641D01*
X146169715Y-104465643D01*
X146020494Y-104557684D01*
X145896524Y-104681654D01*
X145804483Y-104830875D01*
X145804481Y-104830880D01*
X145749334Y-104997302D01*
X145749333Y-104997309D01*
X145738840Y-105100013D01*
X143576840Y-105100013D01*
X143576840Y-104763767D01*
X143596525Y-104696728D01*
X143635741Y-104658230D01*
X143782496Y-104567712D01*
X143906552Y-104443656D01*
X143998654Y-104294334D01*
X144053839Y-104127797D01*
X144064340Y-104025009D01*
X144064339Y-102974992D01*
X144060800Y-102940351D01*
X144053839Y-102872203D01*
X144053838Y-102872200D01*
X144035316Y-102816305D01*
X143998654Y-102705666D01*
X143906552Y-102556344D01*
X143782496Y-102432288D01*
X143635742Y-102341770D01*
X143589019Y-102289823D01*
X143576840Y-102236232D01*
X143576840Y-101497285D01*
X143576840Y-101497283D01*
X143558559Y-101429057D01*
X143535917Y-101344555D01*
X143493417Y-101270943D01*
X143456860Y-101207624D01*
X143345056Y-101095820D01*
X143345055Y-101095819D01*
X143340725Y-101091489D01*
X143340714Y-101091479D01*
X137834574Y-95585339D01*
X137801089Y-95524016D01*
X137800638Y-95521849D01*
X137769738Y-95366510D01*
X137769737Y-95366503D01*
X137769735Y-95366498D01*
X137709397Y-95220827D01*
X137709390Y-95220814D01*
X137621789Y-95089711D01*
X137621786Y-95089707D01*
X137510292Y-94978213D01*
X137510288Y-94978210D01*
X137379185Y-94890609D01*
X137379172Y-94890602D01*
X137254738Y-94839061D01*
X137200334Y-94795221D01*
X137178269Y-94728926D01*
X137195548Y-94661227D01*
X137246685Y-94613616D01*
X137302190Y-94600500D01*
X144138743Y-94600500D01*
X144205782Y-94620185D01*
X144226424Y-94636819D01*
X145502021Y-95912416D01*
X145516724Y-95939343D01*
X145533317Y-95965162D01*
X145534208Y-95971362D01*
X145535506Y-95973739D01*
X145538340Y-96000097D01*
X145538340Y-96071636D01*
X145530674Y-96110179D01*
X145531367Y-96110365D01*
X145529264Y-96118213D01*
X145529263Y-96118215D01*
X145488339Y-96270943D01*
X145488339Y-96270945D01*
X145488339Y-96429054D01*
X145488338Y-96429054D01*
X145488339Y-96429057D01*
X145528474Y-96578842D01*
X145531367Y-96589636D01*
X145530672Y-96589821D01*
X145538340Y-96628364D01*
X145538340Y-96806613D01*
X145544753Y-96877192D01*
X145544753Y-96877194D01*
X145544754Y-96877196D01*
X145589330Y-97020248D01*
X145589568Y-97034723D01*
X145594628Y-97048288D01*
X145590131Y-97068957D01*
X145590480Y-97090107D01*
X145582579Y-97103675D01*
X145579777Y-97116561D01*
X145558631Y-97144808D01*
X145558626Y-97144816D01*
X145532625Y-97170818D01*
X145532624Y-97170819D01*
X145525553Y-97177891D01*
X145420818Y-97282626D01*
X145420815Y-97282630D01*
X145384447Y-97345623D01*
X145384447Y-97345625D01*
X145341763Y-97419554D01*
X145341763Y-97419555D01*
X145300839Y-97572283D01*
X145300839Y-97572285D01*
X145300839Y-97740386D01*
X145300840Y-97740399D01*
X145300840Y-100736232D01*
X145281155Y-100803271D01*
X145241938Y-100841769D01*
X145174375Y-100883443D01*
X145095182Y-100932289D01*
X144971129Y-101056342D01*
X144879027Y-101205663D01*
X144879025Y-101205668D01*
X144870371Y-101231784D01*
X144823841Y-101372203D01*
X144823841Y-101372204D01*
X144823840Y-101372204D01*
X144813340Y-101474983D01*
X144813340Y-102525001D01*
X144813341Y-102525019D01*
X144823840Y-102627796D01*
X144823841Y-102627799D01*
X144879025Y-102794331D01*
X144879027Y-102794336D01*
X144892578Y-102816305D01*
X144971128Y-102943656D01*
X145095184Y-103067712D01*
X145244506Y-103159814D01*
X145411043Y-103214999D01*
X145513831Y-103225500D01*
X146288848Y-103225499D01*
X146288856Y-103225498D01*
X146288859Y-103225498D01*
X146345142Y-103219748D01*
X146391637Y-103214999D01*
X146558174Y-103159814D01*
X146707496Y-103067712D01*
X146831552Y-102943656D01*
X146833592Y-102940347D01*
X146835585Y-102938555D01*
X146836033Y-102937989D01*
X146836129Y-102938065D01*
X146885534Y-102893623D01*
X146954496Y-102882395D01*
X147018580Y-102910234D01*
X147044669Y-102940339D01*
X147046521Y-102943341D01*
X147046523Y-102943344D01*
X147170494Y-103067315D01*
X147319715Y-103159356D01*
X147319720Y-103159358D01*
X147486142Y-103214505D01*
X147486149Y-103214506D01*
X147588859Y-103224999D01*
X147726339Y-103224999D01*
X148226340Y-103224999D01*
X148363812Y-103224999D01*
X148363826Y-103224998D01*
X148466537Y-103214505D01*
X148632959Y-103159358D01*
X148632964Y-103159356D01*
X148782185Y-103067315D01*
X148906155Y-102943345D01*
X148998196Y-102794124D01*
X148998198Y-102794119D01*
X149053345Y-102627697D01*
X149053346Y-102627690D01*
X149063839Y-102524986D01*
X149063840Y-102524973D01*
X149063840Y-102250000D01*
X148226340Y-102250000D01*
X148226340Y-103224999D01*
X147726339Y-103224999D01*
X147726340Y-103224998D01*
X147726340Y-101750000D01*
X148226340Y-101750000D01*
X149063839Y-101750000D01*
X149063839Y-101475028D01*
X149063838Y-101475013D01*
X149053345Y-101372302D01*
X148998198Y-101205880D01*
X148998196Y-101205875D01*
X148906155Y-101056654D01*
X148782185Y-100932684D01*
X148632964Y-100840643D01*
X148632959Y-100840641D01*
X148466537Y-100785494D01*
X148466530Y-100785493D01*
X148363826Y-100775000D01*
X148226340Y-100775000D01*
X148226340Y-101750000D01*
X147726340Y-101750000D01*
X147726340Y-100775000D01*
X147588867Y-100775000D01*
X147588852Y-100775001D01*
X147486142Y-100785494D01*
X147319720Y-100840641D01*
X147319715Y-100840643D01*
X147170494Y-100932684D01*
X147046523Y-101056655D01*
X147046519Y-101056660D01*
X147044666Y-101059665D01*
X147042858Y-101061290D01*
X147042042Y-101062323D01*
X147041865Y-101062183D01*
X146992714Y-101106385D01*
X146923751Y-101117601D01*
X146859671Y-101089752D01*
X146833593Y-101059653D01*
X146833577Y-101059628D01*
X146831552Y-101056344D01*
X146707496Y-100932288D01*
X146560742Y-100841770D01*
X146514019Y-100789823D01*
X146501840Y-100736232D01*
X146501840Y-98211597D01*
X146521525Y-98144558D01*
X146574329Y-98098803D01*
X146643487Y-98088859D01*
X146707043Y-98117884D01*
X146713521Y-98123916D01*
X149104265Y-100514660D01*
X149137750Y-100575983D01*
X149138201Y-100578149D01*
X149169101Y-100733491D01*
X149169104Y-100733501D01*
X149229442Y-100879172D01*
X149229449Y-100879185D01*
X149317050Y-101010288D01*
X149317053Y-101010292D01*
X149428547Y-101121786D01*
X149428551Y-101121789D01*
X149559654Y-101209390D01*
X149559667Y-101209397D01*
X149705338Y-101269735D01*
X149705343Y-101269737D01*
X149859993Y-101300499D01*
X149859996Y-101300500D01*
X149859998Y-101300500D01*
X150017684Y-101300500D01*
X150017685Y-101300499D01*
X150172337Y-101269737D01*
X150318019Y-101209394D01*
X150449129Y-101121789D01*
X150560629Y-101010289D01*
X150648234Y-100879179D01*
X150708577Y-100733497D01*
X150739340Y-100578842D01*
X150739340Y-100421158D01*
X150739340Y-100421155D01*
X150739339Y-100421153D01*
X150731116Y-100379815D01*
X150708577Y-100266503D01*
X150708575Y-100266498D01*
X150648237Y-100120827D01*
X150648230Y-100120814D01*
X150560629Y-99989711D01*
X150560626Y-99989707D01*
X150449132Y-99878213D01*
X150449128Y-99878210D01*
X150318025Y-99790609D01*
X150318012Y-99790602D01*
X150172341Y-99730264D01*
X150172331Y-99730261D01*
X150016989Y-99699361D01*
X149955078Y-99666976D01*
X149953500Y-99665425D01*
X147346100Y-97058025D01*
X147312615Y-96996702D01*
X147315395Y-96933455D01*
X147319294Y-96920942D01*
X147332926Y-96877196D01*
X147339340Y-96806616D01*
X147339340Y-95193384D01*
X147332926Y-95122804D01*
X147282318Y-94960394D01*
X147194312Y-94814815D01*
X147194310Y-94814813D01*
X147194309Y-94814811D01*
X147074028Y-94694530D01*
X147074025Y-94694528D01*
X147048987Y-94679391D01*
X147001800Y-94627865D01*
X146989962Y-94559005D01*
X147017231Y-94494677D01*
X147074950Y-94455303D01*
X147124358Y-94449785D01*
X147132224Y-94450500D01*
X147132228Y-94450500D01*
X147645453Y-94450500D01*
X147645456Y-94450500D01*
X147716036Y-94444086D01*
X147878446Y-94393478D01*
X148024025Y-94305472D01*
X148144312Y-94185185D01*
X148232318Y-94039606D01*
X148282926Y-93877196D01*
X148289340Y-93806616D01*
X148289340Y-93000096D01*
X148309025Y-92933057D01*
X148325654Y-92912420D01*
X150797346Y-90440727D01*
X150797351Y-90440724D01*
X150807554Y-90430520D01*
X150807556Y-90430520D01*
X150919360Y-90318716D01*
X150998417Y-90181784D01*
X151039340Y-90029057D01*
X151039340Y-87180300D01*
X151059025Y-87113261D01*
X151111829Y-87067506D01*
X151124322Y-87062599D01*
X151208174Y-87034814D01*
X151357496Y-86942712D01*
X151481552Y-86818656D01*
X151573654Y-86669334D01*
X151628839Y-86502797D01*
X151639340Y-86400009D01*
X151639339Y-85599992D01*
X151628839Y-85497203D01*
X151573654Y-85330666D01*
X151481552Y-85181344D01*
X151387889Y-85087681D01*
X151354404Y-85026358D01*
X151359388Y-84956666D01*
X151387889Y-84912319D01*
X151481552Y-84818656D01*
X151573654Y-84669334D01*
X151628839Y-84502797D01*
X151639340Y-84400009D01*
X151639339Y-83599992D01*
X151637200Y-83579057D01*
X151628839Y-83497203D01*
X151628838Y-83497200D01*
X151603569Y-83420943D01*
X151573654Y-83330666D01*
X151548321Y-83289595D01*
X151529882Y-83222204D01*
X151550805Y-83155541D01*
X151604447Y-83110771D01*
X151653861Y-83100500D01*
X152859074Y-83100500D01*
X152926113Y-83120185D01*
X152927965Y-83121398D01*
X153059654Y-83209390D01*
X153059667Y-83209397D01*
X153111021Y-83230668D01*
X153205343Y-83269737D01*
X153357972Y-83300097D01*
X153359993Y-83300499D01*
X153359996Y-83300500D01*
X153359998Y-83300500D01*
X153517684Y-83300500D01*
X153517685Y-83300499D01*
X153672337Y-83269737D01*
X153818019Y-83209394D01*
X153949129Y-83121789D01*
X154060629Y-83010289D01*
X154148234Y-82879179D01*
X154154031Y-82865185D01*
X154187253Y-82784978D01*
X154208577Y-82733497D01*
X154239340Y-82578842D01*
X154239340Y-82421158D01*
X154239340Y-82421155D01*
X154239339Y-82421153D01*
X154228584Y-82367084D01*
X154208577Y-82266503D01*
X154202115Y-82250902D01*
X154148237Y-82120827D01*
X154148230Y-82120814D01*
X154060629Y-81989711D01*
X154060626Y-81989707D01*
X153949132Y-81878213D01*
X153949128Y-81878210D01*
X153818025Y-81790609D01*
X153818012Y-81790602D01*
X153672341Y-81730264D01*
X153672329Y-81730261D01*
X153517685Y-81699500D01*
X153517682Y-81699500D01*
X153400070Y-81699500D01*
X153333031Y-81679815D01*
X153287276Y-81627011D01*
X153277332Y-81557853D01*
X153306357Y-81494297D01*
X153312389Y-81487819D01*
X153381552Y-81418656D01*
X153473654Y-81269334D01*
X153528839Y-81102797D01*
X153539340Y-81000009D01*
X153539339Y-79999992D01*
X153528839Y-79897203D01*
X153473654Y-79730666D01*
X153381552Y-79581344D01*
X153257496Y-79457288D01*
X153108174Y-79365186D01*
X153108172Y-79365185D01*
X153102027Y-79361395D01*
X153103130Y-79359605D01*
X153058489Y-79320290D01*
X153039340Y-79254091D01*
X153039340Y-78745908D01*
X153059025Y-78678869D01*
X153103111Y-78640363D01*
X153102027Y-78638605D01*
X153108172Y-78634814D01*
X153108174Y-78634814D01*
X153257496Y-78542712D01*
X153381552Y-78418656D01*
X153473654Y-78269334D01*
X153528839Y-78102797D01*
X153539340Y-78000009D01*
X153539339Y-76999992D01*
X153534361Y-76951265D01*
X153528839Y-76897203D01*
X153528838Y-76897200D01*
X153517565Y-76863181D01*
X153473654Y-76730666D01*
X153381552Y-76581344D01*
X153257496Y-76457288D01*
X153129291Y-76378211D01*
X153108176Y-76365187D01*
X153108171Y-76365185D01*
X153106702Y-76364698D01*
X152941637Y-76310001D01*
X152941635Y-76310000D01*
X152838850Y-76299500D01*
X152038838Y-76299500D01*
X152038820Y-76299501D01*
X151936043Y-76310000D01*
X151936040Y-76310001D01*
X151769508Y-76365185D01*
X151769503Y-76365187D01*
X151620182Y-76457289D01*
X151526521Y-76550951D01*
X151465198Y-76584436D01*
X151395506Y-76579452D01*
X151351159Y-76550951D01*
X151257497Y-76457289D01*
X151257496Y-76457288D01*
X151129291Y-76378211D01*
X151108176Y-76365187D01*
X151108171Y-76365185D01*
X151106702Y-76364698D01*
X150941637Y-76310001D01*
X150941635Y-76310000D01*
X150838850Y-76299500D01*
X150038838Y-76299500D01*
X150038820Y-76299501D01*
X149936043Y-76310000D01*
X149936040Y-76310001D01*
X149769508Y-76365185D01*
X149769503Y-76365187D01*
X149620182Y-76457289D01*
X149496129Y-76581342D01*
X149404027Y-76730663D01*
X149404025Y-76730668D01*
X149376245Y-76814504D01*
X149336472Y-76871949D01*
X149271956Y-76898772D01*
X149258539Y-76899500D01*
X148619141Y-76899500D01*
X148552102Y-76879815D01*
X148506347Y-76827011D01*
X148501435Y-76814504D01*
X148473654Y-76730666D01*
X148381552Y-76581344D01*
X148257496Y-76457288D01*
X148108174Y-76365186D01*
X148108172Y-76365185D01*
X148102027Y-76361395D01*
X148103130Y-76359605D01*
X148097909Y-76355006D01*
X148082137Y-76347804D01*
X148072234Y-76332395D01*
X148058489Y-76320290D01*
X148053605Y-76303407D01*
X148044363Y-76289026D01*
X148039340Y-76254091D01*
X148039340Y-76089060D01*
X148039341Y-76089047D01*
X148039341Y-75920944D01*
X148027891Y-75878213D01*
X147998417Y-75768216D01*
X147958744Y-75699499D01*
X147919364Y-75631290D01*
X147919358Y-75631282D01*
X146926430Y-74638355D01*
X146926428Y-74638352D01*
X146807557Y-74519481D01*
X146807556Y-74519480D01*
X146720744Y-74469360D01*
X146720744Y-74469359D01*
X146720740Y-74469358D01*
X146670625Y-74440423D01*
X146517897Y-74399499D01*
X146359783Y-74399499D01*
X146352187Y-74399499D01*
X146352171Y-74399500D01*
X142025510Y-74399500D01*
X142025494Y-74399499D01*
X142017898Y-74399499D01*
X141859783Y-74399499D01*
X141783419Y-74419961D01*
X141707054Y-74440423D01*
X141707049Y-74440426D01*
X141570130Y-74519475D01*
X141570122Y-74519481D01*
X140458319Y-75631284D01*
X140430637Y-75679232D01*
X140418936Y-75699500D01*
X140379263Y-75768215D01*
X140338339Y-75920943D01*
X140338339Y-75920944D01*
X140338339Y-75920945D01*
X140338339Y-76089046D01*
X140338340Y-76089059D01*
X140338340Y-84125500D01*
X140318655Y-84192539D01*
X140265851Y-84238294D01*
X140214340Y-84249500D01*
X139848138Y-84249500D01*
X139811272Y-84252401D01*
X139811266Y-84252402D01*
X139653446Y-84298254D01*
X139653443Y-84298255D01*
X139511977Y-84381917D01*
X139511969Y-84381923D01*
X139395763Y-84498129D01*
X139395757Y-84498137D01*
X139312095Y-84639603D01*
X139312094Y-84639606D01*
X139266242Y-84797426D01*
X139266241Y-84797432D01*
X139263340Y-84834298D01*
X139263340Y-85265701D01*
X139266241Y-85302567D01*
X139266242Y-85302573D01*
X139312094Y-85460393D01*
X139312095Y-85460396D01*
X139395757Y-85601862D01*
X139395763Y-85601870D01*
X139511969Y-85718076D01*
X139511973Y-85718079D01*
X139511975Y-85718081D01*
X139653442Y-85801744D01*
X139695064Y-85813836D01*
X139811266Y-85847597D01*
X139811269Y-85847597D01*
X139811271Y-85847598D01*
X139848146Y-85850500D01*
X141014340Y-85850500D01*
X141023025Y-85853050D01*
X141031987Y-85851762D01*
X141056027Y-85862740D01*
X141081379Y-85870185D01*
X141087306Y-85877025D01*
X141095543Y-85880787D01*
X141109832Y-85903021D01*
X141127134Y-85922989D01*
X141129421Y-85933503D01*
X141133317Y-85939565D01*
X141138340Y-85974500D01*
X141138340Y-86026000D01*
X141118655Y-86093039D01*
X141065851Y-86138794D01*
X141014340Y-86150000D01*
X140751340Y-86150000D01*
X140751340Y-86700000D01*
X141407025Y-86700000D01*
X141470146Y-86717268D01*
X141528442Y-86751744D01*
X141570064Y-86763836D01*
X141686266Y-86797597D01*
X141686269Y-86797597D01*
X141686271Y-86797598D01*
X141723146Y-86800500D01*
X141723154Y-86800500D01*
X143029526Y-86800500D01*
X143029534Y-86800500D01*
X143066409Y-86797598D01*
X143066411Y-86797597D01*
X143066413Y-86797597D01*
X143147667Y-86773990D01*
X143224238Y-86751744D01*
X143365705Y-86668081D01*
X143396966Y-86636820D01*
X143458288Y-86603334D01*
X143484648Y-86600500D01*
X143996561Y-86600500D01*
X144063600Y-86620185D01*
X144109355Y-86672989D01*
X144119299Y-86742147D01*
X144090274Y-86805703D01*
X144065452Y-86827602D01*
X143989711Y-86878210D01*
X143989707Y-86878213D01*
X143878213Y-86989707D01*
X143878210Y-86989711D01*
X143790609Y-87120814D01*
X143790602Y-87120827D01*
X143730264Y-87266498D01*
X143730261Y-87266508D01*
X143699362Y-87421849D01*
X143666977Y-87483759D01*
X143665426Y-87485338D01*
X143287584Y-87863181D01*
X143226261Y-87896666D01*
X143199903Y-87899500D01*
X141467137Y-87899500D01*
X141400098Y-87879815D01*
X141354343Y-87827011D01*
X141344399Y-87757853D01*
X141373424Y-87694297D01*
X141404016Y-87668768D01*
X141490392Y-87617685D01*
X141490401Y-87617678D01*
X141606518Y-87501561D01*
X141606525Y-87501552D01*
X141690121Y-87360198D01*
X141735940Y-87202486D01*
X141736135Y-87200001D01*
X141736135Y-87200000D01*
X139266545Y-87200000D01*
X139266544Y-87200001D01*
X139266739Y-87202486D01*
X139312558Y-87360198D01*
X139396154Y-87501552D01*
X139396161Y-87501561D01*
X139512278Y-87617678D01*
X139512287Y-87617685D01*
X139653643Y-87701282D01*
X139653646Y-87701283D01*
X139811344Y-87747099D01*
X139811350Y-87747100D01*
X139848190Y-87749999D01*
X139848206Y-87750000D01*
X139966071Y-87750000D01*
X140033110Y-87769685D01*
X140078865Y-87822489D01*
X140088809Y-87891647D01*
X140059784Y-87955203D01*
X140028071Y-87981387D01*
X139962095Y-88019477D01*
X139962090Y-88019481D01*
X139118392Y-88863181D01*
X139057069Y-88896666D01*
X139030711Y-88899500D01*
X138086669Y-88899500D01*
X138086653Y-88899499D01*
X138079057Y-88899499D01*
X137920943Y-88899499D01*
X137813587Y-88928265D01*
X137768210Y-88940424D01*
X137768209Y-88940425D01*
X137718096Y-88969359D01*
X137718095Y-88969360D01*
X137674689Y-88994420D01*
X137631285Y-89019479D01*
X137631284Y-89019480D01*
X133019481Y-93631282D01*
X133019479Y-93631285D01*
X133004367Y-93657461D01*
X132979518Y-93700501D01*
X132940423Y-93768215D01*
X132899499Y-93920943D01*
X132899499Y-93920945D01*
X132899499Y-94089046D01*
X132899500Y-94089059D01*
X132899500Y-98138743D01*
X132879815Y-98205782D01*
X132863181Y-98226424D01*
X130726424Y-100363181D01*
X130665101Y-100396666D01*
X130638743Y-100399500D01*
X112663340Y-100399500D01*
X112596301Y-100379815D01*
X112550546Y-100327011D01*
X112539340Y-100275500D01*
X112539340Y-93724500D01*
X112559025Y-93657461D01*
X112611829Y-93611706D01*
X112663340Y-93600500D01*
X121420234Y-93600500D01*
X121487273Y-93620185D01*
X121489125Y-93621398D01*
X121620814Y-93709390D01*
X121620827Y-93709397D01*
X121766498Y-93769735D01*
X121766503Y-93769737D01*
X121921153Y-93800499D01*
X121921156Y-93800500D01*
X121921158Y-93800500D01*
X122078844Y-93800500D01*
X122078845Y-93800499D01*
X122233497Y-93769737D01*
X122379179Y-93709394D01*
X122510289Y-93621789D01*
X122621789Y-93510289D01*
X122709394Y-93379179D01*
X122769737Y-93233497D01*
X122800500Y-93078842D01*
X122800500Y-92921158D01*
X122800500Y-92921155D01*
X122800499Y-92921153D01*
X122782419Y-92830261D01*
X122769737Y-92766503D01*
X122751698Y-92722952D01*
X122709396Y-92620825D01*
X122709394Y-92620822D01*
X122709394Y-92620821D01*
X122674694Y-92568889D01*
X122653816Y-92502215D01*
X122672300Y-92434835D01*
X122674676Y-92431136D01*
X122709394Y-92379179D01*
X122769737Y-92233497D01*
X122800500Y-92078842D01*
X122800500Y-91921158D01*
X122800500Y-91921155D01*
X122800499Y-91921153D01*
X122769738Y-91766510D01*
X122769737Y-91766503D01*
X122769735Y-91766498D01*
X122709397Y-91620827D01*
X122709390Y-91620814D01*
X122621789Y-91489711D01*
X122621786Y-91489707D01*
X122510292Y-91378213D01*
X122510288Y-91378210D01*
X122379185Y-91290609D01*
X122379172Y-91290602D01*
X122233501Y-91230264D01*
X122233491Y-91230261D01*
X122078149Y-91199361D01*
X122016238Y-91166976D01*
X122014660Y-91165425D01*
X120575659Y-89726424D01*
X120542174Y-89665101D01*
X120539340Y-89638743D01*
X120539340Y-73079765D01*
X120559025Y-73012726D01*
X120560238Y-73010874D01*
X120620187Y-72921155D01*
X120648234Y-72879179D01*
X120708577Y-72733497D01*
X120739340Y-72578842D01*
X120739340Y-72421158D01*
X120739340Y-72421155D01*
X120739339Y-72421153D01*
X120708578Y-72266510D01*
X120708577Y-72266503D01*
X120686174Y-72212416D01*
X120648237Y-72120827D01*
X120648230Y-72120814D01*
X120560629Y-71989711D01*
X120560626Y-71989707D01*
X120449132Y-71878213D01*
X120449128Y-71878210D01*
X120318025Y-71790609D01*
X120318012Y-71790602D01*
X120172341Y-71730264D01*
X120172329Y-71730261D01*
X120017685Y-71699500D01*
X120017682Y-71699500D01*
X119859998Y-71699500D01*
X119859995Y-71699500D01*
X119705350Y-71730261D01*
X119705338Y-71730264D01*
X119559667Y-71790602D01*
X119559654Y-71790609D01*
X119428551Y-71878210D01*
X119428547Y-71878213D01*
X119317053Y-71989707D01*
X119317050Y-71989711D01*
X119229449Y-72120814D01*
X119229442Y-72120827D01*
X119169104Y-72266498D01*
X119169101Y-72266510D01*
X119138340Y-72421153D01*
X119138340Y-72578846D01*
X119169101Y-72733489D01*
X119169104Y-72733501D01*
X119229442Y-72879172D01*
X119229449Y-72879185D01*
X119317442Y-73010874D01*
X119338320Y-73077551D01*
X119338340Y-73079765D01*
X119338340Y-89852170D01*
X119338339Y-89852188D01*
X119338339Y-90017894D01*
X119338338Y-90017894D01*
X119379263Y-90170625D01*
X119408198Y-90220740D01*
X119408199Y-90220744D01*
X119408200Y-90220744D01*
X119458319Y-90307554D01*
X119458321Y-90307557D01*
X119577189Y-90426425D01*
X119577195Y-90426430D01*
X121165425Y-92014660D01*
X121174284Y-92030885D01*
X121187216Y-92044101D01*
X121197982Y-92074284D01*
X121198910Y-92075983D01*
X121199190Y-92077302D01*
X121199500Y-92078805D01*
X121199500Y-92078842D01*
X121230263Y-92233497D01*
X121232513Y-92238930D01*
X121234891Y-92250461D01*
X121232954Y-92273940D01*
X121235503Y-92297359D01*
X121230136Y-92308113D01*
X121229149Y-92320094D01*
X121214825Y-92338799D01*
X121204309Y-92359878D01*
X121193980Y-92366024D01*
X121186672Y-92375569D01*
X121164508Y-92383562D01*
X121144266Y-92395608D01*
X121124018Y-92398164D01*
X121120946Y-92399273D01*
X121118918Y-92398808D01*
X121113445Y-92399500D01*
X112163340Y-92399500D01*
X112096301Y-92379815D01*
X112050546Y-92327011D01*
X112039340Y-92275500D01*
X112039340Y-81187937D01*
X112059025Y-81120898D01*
X112111829Y-81075143D01*
X112180987Y-81065199D01*
X112244543Y-81094224D01*
X112251021Y-81100256D01*
X113665425Y-82514660D01*
X113698910Y-82575983D01*
X113699361Y-82578149D01*
X113730261Y-82733491D01*
X113730264Y-82733501D01*
X113790602Y-82879172D01*
X113790609Y-82879185D01*
X113878210Y-83010288D01*
X113878213Y-83010292D01*
X113989707Y-83121786D01*
X113989711Y-83121789D01*
X114120814Y-83209390D01*
X114120827Y-83209397D01*
X114172181Y-83230668D01*
X114266503Y-83269737D01*
X114419132Y-83300097D01*
X114421153Y-83300499D01*
X114421156Y-83300500D01*
X114421158Y-83300500D01*
X114578844Y-83300500D01*
X114578845Y-83300499D01*
X114733497Y-83269737D01*
X114879179Y-83209394D01*
X115010289Y-83121789D01*
X115121789Y-83010289D01*
X115162235Y-82949758D01*
X115172398Y-82934548D01*
X115226010Y-82889743D01*
X115295335Y-82881036D01*
X115358363Y-82911190D01*
X115395082Y-82970634D01*
X115399500Y-83003439D01*
X115399500Y-87420234D01*
X115379815Y-87487273D01*
X115378602Y-87489125D01*
X115290609Y-87620814D01*
X115290602Y-87620827D01*
X115230264Y-87766498D01*
X115230261Y-87766510D01*
X115199500Y-87921153D01*
X115199500Y-88078846D01*
X115230261Y-88233489D01*
X115230264Y-88233501D01*
X115290602Y-88379172D01*
X115290609Y-88379185D01*
X115378210Y-88510288D01*
X115378213Y-88510292D01*
X115489707Y-88621786D01*
X115489711Y-88621789D01*
X115620814Y-88709390D01*
X115620827Y-88709397D01*
X115758683Y-88766498D01*
X115766503Y-88769737D01*
X115921153Y-88800499D01*
X115921156Y-88800500D01*
X115921158Y-88800500D01*
X116078844Y-88800500D01*
X116078845Y-88800499D01*
X116233497Y-88769737D01*
X116379179Y-88709394D01*
X116510289Y-88621789D01*
X116621789Y-88510289D01*
X116709394Y-88379179D01*
X116769737Y-88233497D01*
X116800500Y-88078842D01*
X116800500Y-87921158D01*
X116800500Y-87921155D01*
X116800499Y-87921153D01*
X116792148Y-87879172D01*
X116769737Y-87766503D01*
X116739829Y-87694297D01*
X116709397Y-87620827D01*
X116709390Y-87620814D01*
X116621398Y-87489125D01*
X116600520Y-87422447D01*
X116600500Y-87420234D01*
X116600500Y-79982103D01*
X116600499Y-79982099D01*
X116592307Y-79951525D01*
X116588129Y-79935931D01*
X116559577Y-79829375D01*
X116555951Y-79823094D01*
X116539340Y-79761097D01*
X116539340Y-73800097D01*
X116559025Y-73733058D01*
X116575659Y-73712416D01*
X116987978Y-73300097D01*
X117453502Y-72834572D01*
X117514823Y-72801089D01*
X117516990Y-72800638D01*
X117574925Y-72789113D01*
X117672337Y-72769737D01*
X117818019Y-72709394D01*
X117949129Y-72621789D01*
X118060629Y-72510289D01*
X118148234Y-72379179D01*
X118208577Y-72233497D01*
X118239340Y-72078842D01*
X118239340Y-71921158D01*
X118239340Y-71921155D01*
X118239339Y-71921153D01*
X118213371Y-71790606D01*
X118208577Y-71766503D01*
X118208575Y-71766498D01*
X118148237Y-71620827D01*
X118148230Y-71620814D01*
X118060629Y-71489711D01*
X118060626Y-71489707D01*
X117949132Y-71378213D01*
X117949128Y-71378210D01*
X117818025Y-71290609D01*
X117818012Y-71290602D01*
X117672341Y-71230264D01*
X117672329Y-71230261D01*
X117517685Y-71199500D01*
X117517682Y-71199500D01*
X117359998Y-71199500D01*
X117359995Y-71199500D01*
X117205350Y-71230261D01*
X117205338Y-71230264D01*
X117059667Y-71290602D01*
X117059654Y-71290609D01*
X116928551Y-71378210D01*
X116928547Y-71378213D01*
X116817053Y-71489707D01*
X116817050Y-71489711D01*
X116729449Y-71620814D01*
X116729442Y-71620827D01*
X116669104Y-71766498D01*
X116669101Y-71766508D01*
X116638201Y-71921850D01*
X116605816Y-71983761D01*
X116604265Y-71985339D01*
X115458321Y-73131282D01*
X115458319Y-73131285D01*
X115413225Y-73209392D01*
X115413224Y-73209393D01*
X115379263Y-73268214D01*
X115379263Y-73268215D01*
X115338339Y-73420943D01*
X115338339Y-73420945D01*
X115338339Y-73589046D01*
X115338340Y-73589059D01*
X115338340Y-79913330D01*
X115338339Y-79913348D01*
X115338339Y-80079054D01*
X115338338Y-80079054D01*
X115379262Y-80231783D01*
X115382638Y-80237629D01*
X115382699Y-80237735D01*
X115382945Y-80238162D01*
X115383254Y-80239442D01*
X115399500Y-80300062D01*
X115399500Y-81996560D01*
X115379815Y-82063599D01*
X115327011Y-82109354D01*
X115257853Y-82119298D01*
X115194297Y-82090273D01*
X115172398Y-82065451D01*
X115121789Y-81989711D01*
X115121786Y-81989707D01*
X115010292Y-81878213D01*
X115010288Y-81878210D01*
X114879185Y-81790609D01*
X114879172Y-81790602D01*
X114733501Y-81730264D01*
X114733491Y-81730261D01*
X114578151Y-81699362D01*
X114516241Y-81666977D01*
X114514662Y-81665426D01*
X113106239Y-80257003D01*
X113091535Y-80230075D01*
X113074943Y-80204257D01*
X113074051Y-80198056D01*
X113072754Y-80195680D01*
X113069920Y-80169322D01*
X113069920Y-80119640D01*
X113069921Y-80119627D01*
X113069921Y-79951525D01*
X113069921Y-79951523D01*
X113043565Y-79853161D01*
X113039340Y-79821068D01*
X113039340Y-72300097D01*
X113059025Y-72233058D01*
X113075659Y-72212416D01*
X113997473Y-71290602D01*
X114953502Y-70334572D01*
X115014823Y-70301089D01*
X115016990Y-70300638D01*
X115074925Y-70289113D01*
X115172337Y-70269737D01*
X115318019Y-70209394D01*
X115449129Y-70121789D01*
X115560629Y-70010289D01*
X115648234Y-69879179D01*
X115708577Y-69733497D01*
X115739340Y-69578842D01*
X115739340Y-69421158D01*
X115739340Y-69421155D01*
X115739339Y-69421153D01*
X115708578Y-69266510D01*
X115708577Y-69266503D01*
X115708575Y-69266498D01*
X115648237Y-69120827D01*
X115648230Y-69120814D01*
X115560629Y-68989711D01*
X115560626Y-68989707D01*
X115449132Y-68878213D01*
X115449128Y-68878210D01*
X115318025Y-68790609D01*
X115318012Y-68790602D01*
X115172341Y-68730264D01*
X115172329Y-68730261D01*
X115017685Y-68699500D01*
X115017682Y-68699500D01*
X114887937Y-68699500D01*
X114866691Y-68693261D01*
X114844604Y-68691682D01*
X114833820Y-68683609D01*
X114820898Y-68679815D01*
X114806399Y-68663083D01*
X114788670Y-68649811D01*
X114783962Y-68637188D01*
X114775143Y-68627011D01*
X114771991Y-68605094D01*
X114764253Y-68584346D01*
X114767115Y-68571185D01*
X114765199Y-68557853D01*
X114774398Y-68537709D01*
X114779105Y-68516073D01*
X114792374Y-68498345D01*
X114794224Y-68494297D01*
X114800241Y-68487833D01*
X114953503Y-68334571D01*
X115014823Y-68301089D01*
X115016990Y-68300638D01*
X115074925Y-68289113D01*
X115172337Y-68269737D01*
X115318019Y-68209394D01*
X115449129Y-68121789D01*
X115560629Y-68010289D01*
X115648234Y-67879179D01*
X115708577Y-67733497D01*
X115739340Y-67578842D01*
X115739340Y-67421158D01*
X115739340Y-67421155D01*
X115739339Y-67421153D01*
X115708578Y-67266510D01*
X115708577Y-67266503D01*
X115708575Y-67266498D01*
X115648237Y-67120827D01*
X115648230Y-67120814D01*
X115560629Y-66989711D01*
X115560626Y-66989707D01*
X115449132Y-66878213D01*
X115449128Y-66878210D01*
X115318025Y-66790609D01*
X115318019Y-66790606D01*
X115300429Y-66783320D01*
X115246026Y-66739478D01*
X115223962Y-66673184D01*
X115226265Y-66644571D01*
X115239340Y-66578842D01*
X115239340Y-66421158D01*
X115239340Y-66421155D01*
X115239339Y-66421153D01*
X115208578Y-66266510D01*
X115208578Y-66266508D01*
X115208577Y-66266503D01*
X115148634Y-66121786D01*
X115148237Y-66120827D01*
X115148230Y-66120814D01*
X115060629Y-65989711D01*
X115060626Y-65989707D01*
X114949132Y-65878213D01*
X114949128Y-65878210D01*
X114818025Y-65790609D01*
X114818012Y-65790602D01*
X114672341Y-65730264D01*
X114672329Y-65730261D01*
X114517685Y-65699500D01*
X114517682Y-65699500D01*
X114359998Y-65699500D01*
X114359995Y-65699500D01*
X114205350Y-65730261D01*
X114205338Y-65730264D01*
X114059667Y-65790602D01*
X114059654Y-65790609D01*
X113928551Y-65878210D01*
X113928547Y-65878213D01*
X113817053Y-65989707D01*
X113817050Y-65989711D01*
X113729449Y-66120814D01*
X113729442Y-66120827D01*
X113669104Y-66266498D01*
X113669101Y-66266508D01*
X113638201Y-66421850D01*
X113605816Y-66483761D01*
X113604265Y-66485339D01*
X109920821Y-70168782D01*
X109920815Y-70168790D01*
X109884447Y-70231783D01*
X109884447Y-70231785D01*
X109841763Y-70305714D01*
X109834030Y-70334574D01*
X109800839Y-70458443D01*
X109800839Y-70616557D01*
X109800839Y-70616559D01*
X109800840Y-70626553D01*
X109800840Y-100875830D01*
X109800839Y-100875848D01*
X109800839Y-101041554D01*
X109800838Y-101041554D01*
X107939340Y-101041554D01*
X107939340Y-57336110D01*
X107959025Y-57269071D01*
X108011829Y-57223316D01*
X108080987Y-57213372D01*
X108144543Y-57242397D01*
X108151021Y-57248429D01*
X109552017Y-58649425D01*
X109552018Y-58649426D01*
X120477230Y-47724212D01*
X120538551Y-47690729D01*
X120608243Y-47695713D01*
X120664176Y-47737585D01*
X120688267Y-47799293D01*
X120698841Y-47902797D01*
X120698841Y-47902799D01*
X120734460Y-48010288D01*
X120754026Y-48069334D01*
X120846128Y-48218656D01*
X120970184Y-48342712D01*
X121119506Y-48434814D01*
X121286043Y-48489999D01*
X121388831Y-48500500D01*
X122038848Y-48500499D01*
X122038856Y-48500498D01*
X122038859Y-48500498D01*
X122095142Y-48494748D01*
X122141637Y-48489999D01*
X122308174Y-48434814D01*
X122457496Y-48342712D01*
X122581552Y-48218656D01*
X122673654Y-48069334D01*
X122728839Y-47902797D01*
X122739340Y-47800009D01*
X122739339Y-46875095D01*
X122759023Y-46808057D01*
X122775653Y-46787420D01*
X123426256Y-46136819D01*
X123487579Y-46103334D01*
X123513937Y-46100500D01*
X125014340Y-46100500D01*
X125081379Y-46120185D01*
X125127134Y-46172989D01*
X125138340Y-46224500D01*
X125138340Y-47800001D01*
X125138341Y-47800018D01*
X125148840Y-47902796D01*
X125148841Y-47902799D01*
X125184460Y-48010288D01*
X125204026Y-48069334D01*
X125296128Y-48218656D01*
X125420184Y-48342712D01*
X125569506Y-48434814D01*
X125736043Y-48489999D01*
X125838831Y-48500500D01*
X126488848Y-48500499D01*
X126488856Y-48500498D01*
X126488859Y-48500498D01*
X126545142Y-48494748D01*
X126591637Y-48489999D01*
X126678996Y-48461051D01*
X126748824Y-48458649D01*
X126805681Y-48491076D01*
X127802021Y-49487416D01*
X127835506Y-49548739D01*
X127838340Y-49575097D01*
X127838340Y-57413330D01*
X127838339Y-57413348D01*
X127838339Y-57579054D01*
X127838338Y-57579054D01*
X127879264Y-57731789D01*
X127879265Y-57731790D01*
X127900597Y-57768737D01*
X127900598Y-57768739D01*
X127958315Y-57868709D01*
X127958321Y-57868717D01*
X128077189Y-57987585D01*
X128077195Y-57987590D01*
X129953979Y-59864374D01*
X129953989Y-59864385D01*
X129958319Y-59868715D01*
X129958320Y-59868716D01*
X130070124Y-59980520D01*
X130121687Y-60010289D01*
X130156935Y-60030639D01*
X130156937Y-60030641D01*
X130194991Y-60052611D01*
X130207055Y-60059577D01*
X130359783Y-60100500D01*
X130517897Y-60100500D01*
X130690647Y-60100500D01*
X130690663Y-60100501D01*
X130698259Y-60100501D01*
X130856370Y-60100501D01*
X130856373Y-60100501D01*
X131009101Y-60059577D01*
X131059220Y-60030639D01*
X131146032Y-59980520D01*
X131257836Y-59868716D01*
X131257836Y-59868714D01*
X131268044Y-59858507D01*
X131268045Y-59858504D01*
X131459264Y-59667286D01*
X131520586Y-59633802D01*
X131590278Y-59638786D01*
X131646211Y-59680658D01*
X131667193Y-59727707D01*
X131667334Y-59727665D01*
X131667672Y-59728781D01*
X131668560Y-59730771D01*
X131669100Y-59733488D01*
X131669104Y-59733501D01*
X131729442Y-59879172D01*
X131729449Y-59879185D01*
X131817442Y-60010874D01*
X131838320Y-60077551D01*
X131838340Y-60079765D01*
X131838340Y-62699903D01*
X131818655Y-62766942D01*
X131802021Y-62787584D01*
X130570124Y-64019481D01*
X126171126Y-68418478D01*
X126059321Y-68530282D01*
X126059319Y-68530285D01*
X126009201Y-68617094D01*
X126009199Y-68617096D01*
X125980265Y-68667209D01*
X125980264Y-68667210D01*
X125980263Y-68667215D01*
X125939339Y-68819943D01*
X125939339Y-68819945D01*
X125939339Y-68988046D01*
X125939340Y-68988059D01*
X125939340Y-70200224D01*
X125919655Y-70267263D01*
X125866851Y-70313018D01*
X125797693Y-70322962D01*
X125734137Y-70293937D01*
X125700779Y-70247676D01*
X125648237Y-70120827D01*
X125648230Y-70120814D01*
X125560629Y-69989711D01*
X125560626Y-69989707D01*
X125449132Y-69878213D01*
X125449128Y-69878210D01*
X125318025Y-69790609D01*
X125318012Y-69790602D01*
X125172341Y-69730264D01*
X125172329Y-69730261D01*
X125017685Y-69699500D01*
X125017682Y-69699500D01*
X124859998Y-69699500D01*
X124859995Y-69699500D01*
X124705350Y-69730261D01*
X124705338Y-69730264D01*
X124559667Y-69790602D01*
X124559654Y-69790609D01*
X124428551Y-69878210D01*
X124428547Y-69878213D01*
X124317053Y-69989707D01*
X124317050Y-69989711D01*
X124229449Y-70120814D01*
X124229442Y-70120827D01*
X124169104Y-70266498D01*
X124169101Y-70266508D01*
X124138201Y-70421850D01*
X124105816Y-70483761D01*
X124104265Y-70485339D01*
X121958321Y-72631282D01*
X121958319Y-72631285D01*
X121913225Y-72709392D01*
X121913224Y-72709393D01*
X121879263Y-72768214D01*
X121879263Y-72768215D01*
X121838339Y-72920943D01*
X121838339Y-72920945D01*
X121838339Y-73089046D01*
X121838340Y-73089059D01*
X121838340Y-79420234D01*
X121818655Y-79487273D01*
X121817442Y-79489125D01*
X121729449Y-79620814D01*
X121729442Y-79620827D01*
X121669104Y-79766498D01*
X121669101Y-79766510D01*
X121638340Y-79921153D01*
X121638340Y-80078846D01*
X121669101Y-80233489D01*
X121669104Y-80233501D01*
X121729442Y-80379172D01*
X121729449Y-80379185D01*
X121817050Y-80510288D01*
X121817053Y-80510292D01*
X121928547Y-80621786D01*
X121928551Y-80621789D01*
X122059654Y-80709390D01*
X122059667Y-80709397D01*
X122205338Y-80769735D01*
X122205343Y-80769737D01*
X122345756Y-80797667D01*
X122359993Y-80800499D01*
X122359996Y-80800500D01*
X122359998Y-80800500D01*
X122517684Y-80800500D01*
X122517685Y-80800499D01*
X122672337Y-80769737D01*
X122818019Y-80709394D01*
X122949129Y-80621789D01*
X123060629Y-80510289D01*
X123148234Y-80379179D01*
X123208577Y-80233497D01*
X123239340Y-80078842D01*
X123239340Y-79921158D01*
X123239340Y-79921155D01*
X123239339Y-79921153D01*
X123225322Y-79850685D01*
X123208577Y-79766503D01*
X123156267Y-79640214D01*
X123148237Y-79620827D01*
X123148230Y-79620814D01*
X123060238Y-79489125D01*
X123039360Y-79422447D01*
X123039340Y-79420234D01*
X123039340Y-73300097D01*
X123059025Y-73233058D01*
X123075659Y-73212416D01*
X123987978Y-72300097D01*
X124953502Y-71334572D01*
X125014823Y-71301089D01*
X125016990Y-71300638D01*
X125074925Y-71289113D01*
X125172337Y-71269737D01*
X125318019Y-71209394D01*
X125449129Y-71121789D01*
X125560629Y-71010289D01*
X125648234Y-70879179D01*
X125700779Y-70752322D01*
X125744619Y-70697919D01*
X125810913Y-70675854D01*
X125878613Y-70693133D01*
X125926224Y-70744270D01*
X125939340Y-70799775D01*
X125939340Y-76081953D01*
X125919655Y-76148992D01*
X125866851Y-76194747D01*
X125839532Y-76203570D01*
X125705348Y-76230261D01*
X125705338Y-76230264D01*
X125559667Y-76290602D01*
X125559654Y-76290609D01*
X125428551Y-76378210D01*
X125428547Y-76378213D01*
X125317053Y-76489707D01*
X125317050Y-76489711D01*
X125229449Y-76620814D01*
X125229442Y-76620827D01*
X125169104Y-76766498D01*
X125169101Y-76766508D01*
X125138202Y-76921848D01*
X125132132Y-76934741D01*
X125130895Y-76945711D01*
X125117787Y-76965217D01*
X125112726Y-76975969D01*
X125108732Y-76980871D01*
X125019480Y-77070124D01*
X124984170Y-77131284D01*
X124979203Y-77139885D01*
X124979201Y-77139889D01*
X124940423Y-77207054D01*
X124934121Y-77230573D01*
X124899499Y-77359783D01*
X124899499Y-77359785D01*
X124899499Y-77527886D01*
X124899500Y-77527899D01*
X124899500Y-95574490D01*
X124899499Y-95574508D01*
X124899499Y-95740214D01*
X124899498Y-95740214D01*
X124899499Y-95740217D01*
X124940423Y-95892945D01*
X124965241Y-95935931D01*
X124985697Y-95971362D01*
X125023157Y-96036246D01*
X125037386Y-96074053D01*
X125069101Y-96233491D01*
X125069104Y-96233501D01*
X125129442Y-96379172D01*
X125129449Y-96379185D01*
X125217050Y-96510288D01*
X125217053Y-96510292D01*
X125328547Y-96621786D01*
X125366129Y-96646898D01*
X125410933Y-96700511D01*
X125419640Y-96769836D01*
X125389485Y-96832863D01*
X125366129Y-96853102D01*
X125328547Y-96878213D01*
X125217053Y-96989707D01*
X125217050Y-96989711D01*
X125129449Y-97120814D01*
X125129442Y-97120827D01*
X125069104Y-97266498D01*
X125069101Y-97266510D01*
X125038340Y-97421153D01*
X125038340Y-97578846D01*
X125069101Y-97733489D01*
X125069104Y-97733501D01*
X125129442Y-97879172D01*
X125129449Y-97879185D01*
X125217050Y-98010288D01*
X125217053Y-98010292D01*
X125328547Y-98121786D01*
X125328551Y-98121789D01*
X125459654Y-98209390D01*
X125459667Y-98209397D01*
X125605338Y-98269735D01*
X125605343Y-98269737D01*
X125759993Y-98300499D01*
X125759996Y-98300500D01*
X125759998Y-98300500D01*
X125917684Y-98300500D01*
X125917685Y-98300499D01*
X126072337Y-98269737D01*
X126185006Y-98223067D01*
X126218012Y-98209397D01*
X126218012Y-98209396D01*
X126218019Y-98209394D01*
X126349129Y-98121789D01*
X126460629Y-98010289D01*
X126548234Y-97879179D01*
X126594075Y-97768507D01*
X126620951Y-97728283D01*
X126980520Y-97368716D01*
X127059577Y-97231784D01*
X127100501Y-97079057D01*
X127100501Y-96920942D01*
X127100501Y-96913347D01*
X127100500Y-96913329D01*
X127100500Y-86699998D01*
X139266544Y-86699998D01*
X139266545Y-86700000D01*
X140251340Y-86700000D01*
X140251340Y-86150000D01*
X139848190Y-86150000D01*
X139811350Y-86152899D01*
X139811344Y-86152900D01*
X139653646Y-86198716D01*
X139653643Y-86198717D01*
X139512287Y-86282314D01*
X139512278Y-86282321D01*
X139396161Y-86398438D01*
X139396154Y-86398447D01*
X139312558Y-86539801D01*
X139266739Y-86697513D01*
X139266544Y-86699998D01*
X127100500Y-86699998D01*
X127100500Y-83300097D01*
X127120185Y-83233058D01*
X127136819Y-83212416D01*
X128980519Y-81368716D01*
X129284036Y-81065199D01*
X130297346Y-80051887D01*
X130297351Y-80051884D01*
X130307554Y-80041680D01*
X130307556Y-80041680D01*
X130419360Y-79929876D01*
X130465081Y-79850685D01*
X130488421Y-79810259D01*
X130488422Y-79810256D01*
X130498417Y-79792945D01*
X130539341Y-79640217D01*
X130539341Y-79482103D01*
X130539341Y-79474508D01*
X130539340Y-79474490D01*
X130539340Y-77579765D01*
X130559025Y-77512726D01*
X130560238Y-77510874D01*
X130648230Y-77379185D01*
X130648230Y-77379184D01*
X130648234Y-77379179D01*
X130708577Y-77233497D01*
X130739340Y-77078842D01*
X130739340Y-76921158D01*
X130739340Y-76921155D01*
X130739339Y-76921153D01*
X130708577Y-76766503D01*
X130670354Y-76674223D01*
X130648237Y-76620827D01*
X130648230Y-76620814D01*
X130560629Y-76489711D01*
X130560626Y-76489707D01*
X130449132Y-76378213D01*
X130449128Y-76378210D01*
X130318025Y-76290609D01*
X130318012Y-76290602D01*
X130172341Y-76230264D01*
X130172329Y-76230261D01*
X130017685Y-76199500D01*
X130017682Y-76199500D01*
X129859998Y-76199500D01*
X129859995Y-76199500D01*
X129705350Y-76230261D01*
X129705338Y-76230264D01*
X129559667Y-76290602D01*
X129559654Y-76290609D01*
X129428551Y-76378210D01*
X129428547Y-76378213D01*
X129317053Y-76489707D01*
X129317050Y-76489711D01*
X129229449Y-76620814D01*
X129229442Y-76620827D01*
X129169104Y-76766498D01*
X129169101Y-76766510D01*
X129138340Y-76921153D01*
X129138340Y-77078846D01*
X129169101Y-77233489D01*
X129169104Y-77233501D01*
X129229442Y-77379172D01*
X129229449Y-77379185D01*
X129317442Y-77510874D01*
X129338320Y-77577551D01*
X129338340Y-77579765D01*
X129338340Y-79261063D01*
X129318655Y-79328102D01*
X129302021Y-79348744D01*
X128445804Y-80204960D01*
X128384481Y-80238445D01*
X128314789Y-80233461D01*
X128258856Y-80191589D01*
X128234439Y-80126125D01*
X128236507Y-80093082D01*
X128239340Y-80078843D01*
X128239340Y-79921155D01*
X128239339Y-79921153D01*
X128225322Y-79850685D01*
X128208577Y-79766503D01*
X128156267Y-79640214D01*
X128148237Y-79620827D01*
X128148230Y-79620814D01*
X128060238Y-79489125D01*
X128039360Y-79422447D01*
X128039340Y-79420234D01*
X128039340Y-72921153D01*
X128638340Y-72921153D01*
X128638340Y-73078846D01*
X128669101Y-73233489D01*
X128669104Y-73233501D01*
X128729442Y-73379172D01*
X128729449Y-73379185D01*
X128817050Y-73510288D01*
X128817053Y-73510292D01*
X128928547Y-73621786D01*
X128928551Y-73621789D01*
X129059654Y-73709390D01*
X129059667Y-73709397D01*
X129116791Y-73733058D01*
X129205343Y-73769737D01*
X129357972Y-73800097D01*
X129359993Y-73800499D01*
X129359996Y-73800500D01*
X129359998Y-73800500D01*
X129517684Y-73800500D01*
X129517685Y-73800499D01*
X129672337Y-73769737D01*
X129818019Y-73709394D01*
X129949129Y-73621789D01*
X130060629Y-73510289D01*
X130148234Y-73379179D01*
X130208577Y-73233497D01*
X130239340Y-73078842D01*
X130239340Y-72921158D01*
X130239340Y-72921155D01*
X130239339Y-72921153D01*
X130222117Y-72834574D01*
X130208577Y-72766503D01*
X130184922Y-72709394D01*
X130148237Y-72620827D01*
X130148230Y-72620814D01*
X130060238Y-72489125D01*
X130039360Y-72422447D01*
X130039340Y-72420234D01*
X130039340Y-70300097D01*
X130059025Y-70233058D01*
X130075659Y-70212416D01*
X132277787Y-68010288D01*
X134504336Y-65783738D01*
X134565657Y-65750255D01*
X134635349Y-65755239D01*
X134691282Y-65797111D01*
X134706576Y-65823967D01*
X134729446Y-65879178D01*
X134729449Y-65879185D01*
X134817050Y-66010288D01*
X134817053Y-66010292D01*
X134928547Y-66121786D01*
X134928551Y-66121789D01*
X135059654Y-66209390D01*
X135059667Y-66209397D01*
X135197523Y-66266498D01*
X135205343Y-66269737D01*
X135359993Y-66300499D01*
X135359996Y-66300500D01*
X135359998Y-66300500D01*
X135517684Y-66300500D01*
X135517685Y-66300499D01*
X135672337Y-66269737D01*
X135818019Y-66209394D01*
X135818025Y-66209390D01*
X135949715Y-66121398D01*
X136016393Y-66100520D01*
X136018606Y-66100500D01*
X150359783Y-66100500D01*
X152638743Y-66100500D01*
X152705782Y-66120185D01*
X152726424Y-66136819D01*
X163802021Y-77212416D01*
X163835506Y-77273739D01*
X163838340Y-77300097D01*
X163838340Y-128138330D01*
X163838339Y-128138348D01*
X163838339Y-128304054D01*
X163838338Y-128304054D01*
X163838339Y-128304057D01*
X163868928Y-128418216D01*
X163879264Y-128456787D01*
X163898272Y-128489709D01*
X163898273Y-128489712D01*
X163958315Y-128593709D01*
X163958321Y-128593717D01*
X164077189Y-128712585D01*
X164077195Y-128712590D01*
X166947763Y-131583158D01*
X166981248Y-131644481D01*
X166977788Y-131709842D01*
X166948841Y-131797199D01*
X166938340Y-131899983D01*
X166938340Y-132550001D01*
X166938341Y-132550019D01*
X166948840Y-132652796D01*
X166948841Y-132652799D01*
X167004025Y-132819331D01*
X167004027Y-132819336D01*
X167038909Y-132875888D01*
X167096128Y-132968656D01*
X167220184Y-133092712D01*
X167369506Y-133184814D01*
X167536043Y-133239999D01*
X167638831Y-133250500D01*
X169238848Y-133250499D01*
X169341637Y-133239999D01*
X169508174Y-133184814D01*
X169657496Y-133092712D01*
X169781552Y-132968656D01*
X169873654Y-132819334D01*
X169928839Y-132652797D01*
X169939340Y-132550009D01*
X169939339Y-131899992D01*
X169928839Y-131797203D01*
X169873654Y-131630666D01*
X169781552Y-131481344D01*
X169657496Y-131357288D01*
X169508174Y-131265186D01*
X169341637Y-131210001D01*
X169341635Y-131210000D01*
X169238856Y-131199500D01*
X169238849Y-131199500D01*
X168313937Y-131199500D01*
X168246898Y-131179815D01*
X168226256Y-131163181D01*
X165075659Y-128012584D01*
X165042174Y-127951261D01*
X165039340Y-127924903D01*
X165039340Y-118886555D01*
X165059025Y-118819516D01*
X165111829Y-118773761D01*
X165180987Y-118763817D01*
X165199251Y-118768840D01*
X165199516Y-118767969D01*
X165205332Y-118769732D01*
X165205343Y-118769737D01*
X165359993Y-118800499D01*
X165359996Y-118800500D01*
X165359998Y-118800500D01*
X165517684Y-118800500D01*
X165517685Y-118800499D01*
X165672337Y-118769737D01*
X165818019Y-118709394D01*
X165818025Y-118709390D01*
X165949715Y-118621398D01*
X166016393Y-118600520D01*
X166018606Y-118600500D01*
X167714340Y-118600500D01*
X167781379Y-118620185D01*
X167827134Y-118672989D01*
X167838340Y-118724500D01*
X167838340Y-126625500D01*
X167818655Y-126692539D01*
X167765851Y-126738294D01*
X167714342Y-126749500D01*
X167638839Y-126749500D01*
X167638820Y-126749501D01*
X167536043Y-126760000D01*
X167536040Y-126760001D01*
X167369508Y-126815185D01*
X167369503Y-126815187D01*
X167220182Y-126907289D01*
X167096129Y-127031342D01*
X167004027Y-127180663D01*
X167004025Y-127180668D01*
X166984930Y-127238294D01*
X166948841Y-127347203D01*
X166948841Y-127347204D01*
X166948840Y-127347204D01*
X166938340Y-127449983D01*
X166938340Y-128100001D01*
X166938341Y-128100019D01*
X166948840Y-128202796D01*
X166948841Y-128202799D01*
X167004025Y-128369331D01*
X167004027Y-128369336D01*
X167024482Y-128402499D01*
X167096128Y-128518656D01*
X167220184Y-128642712D01*
X167369506Y-128734814D01*
X167536043Y-128789999D01*
X167638831Y-128800500D01*
X169238848Y-128800499D01*
X169341637Y-128789999D01*
X169508174Y-128734814D01*
X169657496Y-128642712D01*
X169781552Y-128518656D01*
X169873654Y-128369334D01*
X169928839Y-128202797D01*
X169939340Y-128100009D01*
X169939339Y-127449992D01*
X169928839Y-127347203D01*
X169873654Y-127180666D01*
X169781552Y-127031344D01*
X169657496Y-126907288D01*
X169508174Y-126815186D01*
X169341637Y-126760001D01*
X169341635Y-126760000D01*
X169238856Y-126749500D01*
X169238849Y-126749500D01*
X169163340Y-126749500D01*
X169096301Y-126729815D01*
X169050546Y-126677011D01*
X169039340Y-126625500D01*
X169039340Y-112874499D01*
X169059025Y-112807460D01*
X169111829Y-112761705D01*
X169163340Y-112750499D01*
X169238842Y-112750499D01*
X169238848Y-112750499D01*
X169341637Y-112739999D01*
X169508174Y-112684814D01*
X169657496Y-112592712D01*
X169781552Y-112468656D01*
X169873654Y-112319334D01*
X169928839Y-112152797D01*
X169939340Y-112050009D01*
X169939339Y-111399992D01*
X169932257Y-111330668D01*
X169928839Y-111297203D01*
X169928838Y-111297200D01*
X169922891Y-111279252D01*
X169873654Y-111130666D01*
X169781552Y-110981344D01*
X169657496Y-110857288D01*
X169508174Y-110765186D01*
X169341637Y-110710001D01*
X169341635Y-110710000D01*
X169238850Y-110699500D01*
X167638838Y-110699500D01*
X167638821Y-110699501D01*
X167536043Y-110710000D01*
X167536040Y-110710001D01*
X167369508Y-110765185D01*
X167369503Y-110765187D01*
X167220182Y-110857289D01*
X167096129Y-110981342D01*
X167004027Y-111130663D01*
X167004025Y-111130668D01*
X166983555Y-111192444D01*
X166948841Y-111297203D01*
X166948841Y-111297204D01*
X166948840Y-111297204D01*
X166938340Y-111399983D01*
X166938340Y-112050001D01*
X166938341Y-112050019D01*
X166948840Y-112152796D01*
X166948841Y-112152799D01*
X167004025Y-112319331D01*
X167004027Y-112319336D01*
X167034483Y-112368713D01*
X167096128Y-112468656D01*
X167220184Y-112592712D01*
X167369506Y-112684814D01*
X167536043Y-112739999D01*
X167638831Y-112750500D01*
X167714340Y-112750499D01*
X167781378Y-112770183D01*
X167827134Y-112822986D01*
X167838340Y-112874499D01*
X167838340Y-117275500D01*
X167818655Y-117342539D01*
X167765851Y-117388294D01*
X167714340Y-117399500D01*
X166018606Y-117399500D01*
X165951567Y-117379815D01*
X165949715Y-117378602D01*
X165818025Y-117290609D01*
X165818012Y-117290602D01*
X165672341Y-117230264D01*
X165672329Y-117230261D01*
X165517685Y-117199500D01*
X165517682Y-117199500D01*
X165359998Y-117199500D01*
X165359995Y-117199500D01*
X165205350Y-117230261D01*
X165199516Y-117232031D01*
X165198713Y-117229385D01*
X165140896Y-117235396D01*
X165078527Y-117203902D01*
X165043085Y-117143689D01*
X165039340Y-117113444D01*
X165039340Y-105024097D01*
X165059025Y-104957058D01*
X165111829Y-104911303D01*
X165180987Y-104901359D01*
X165244543Y-104930384D01*
X165251019Y-104936414D01*
X166114604Y-105800000D01*
X166947763Y-106633159D01*
X166981248Y-106694482D01*
X166977788Y-106759843D01*
X166948841Y-106847199D01*
X166938340Y-106949983D01*
X166938340Y-107600001D01*
X166938341Y-107600019D01*
X166948840Y-107702796D01*
X166948841Y-107702799D01*
X166992508Y-107834575D01*
X167004026Y-107869334D01*
X167096128Y-108018656D01*
X167220184Y-108142712D01*
X167369506Y-108234814D01*
X167536043Y-108289999D01*
X167638831Y-108300500D01*
X169238848Y-108300499D01*
X169341637Y-108289999D01*
X169508174Y-108234814D01*
X169657496Y-108142712D01*
X169781552Y-108018656D01*
X169873654Y-107869334D01*
X169928839Y-107702797D01*
X169939340Y-107600009D01*
X169939339Y-106949992D01*
X169936503Y-106922234D01*
X169928839Y-106847203D01*
X169928838Y-106847200D01*
X169902498Y-106767712D01*
X169873654Y-106680666D01*
X169781552Y-106531344D01*
X169657496Y-106407288D01*
X169508174Y-106315186D01*
X169341637Y-106260001D01*
X169341635Y-106260000D01*
X169238856Y-106249500D01*
X169238849Y-106249500D01*
X168313938Y-106249500D01*
X168246899Y-106229815D01*
X168226257Y-106213181D01*
X165476659Y-103463583D01*
X165443174Y-103402260D01*
X165440340Y-103375902D01*
X165440340Y-76922960D01*
X165440341Y-76922947D01*
X165440341Y-76754844D01*
X165433863Y-76730668D01*
X165399417Y-76602116D01*
X165389210Y-76584436D01*
X165320364Y-76465190D01*
X165320358Y-76465182D01*
X159160890Y-70305714D01*
X152993529Y-64138354D01*
X152993528Y-64138352D01*
X152874657Y-64019481D01*
X152874656Y-64019480D01*
X152787844Y-63969360D01*
X152787844Y-63969359D01*
X152787840Y-63969358D01*
X152737725Y-63940423D01*
X152584997Y-63899499D01*
X152426883Y-63899499D01*
X152419287Y-63899499D01*
X152419271Y-63899500D01*
X136687936Y-63899500D01*
X136620897Y-63879815D01*
X136575142Y-63827011D01*
X136565198Y-63757853D01*
X136594223Y-63694297D01*
X136600255Y-63687819D01*
X139256496Y-61031578D01*
X142032438Y-58255636D01*
X142093759Y-58222153D01*
X142163451Y-58227137D01*
X142167569Y-58228758D01*
X142266498Y-58269735D01*
X142266503Y-58269737D01*
X142421153Y-58300499D01*
X142421156Y-58300500D01*
X142421158Y-58300500D01*
X142578844Y-58300500D01*
X142578845Y-58300499D01*
X142733497Y-58269737D01*
X142879179Y-58209394D01*
X143010289Y-58121789D01*
X143121789Y-58010289D01*
X143209394Y-57879179D01*
X143213728Y-57868717D01*
X143223067Y-57846166D01*
X143269737Y-57733497D01*
X143300500Y-57578842D01*
X143300500Y-57421158D01*
X143300500Y-57421155D01*
X143300499Y-57421153D01*
X143273930Y-57287584D01*
X143269737Y-57266503D01*
X143259752Y-57242397D01*
X143209397Y-57120827D01*
X143209390Y-57120814D01*
X143121789Y-56989711D01*
X143121786Y-56989707D01*
X143010292Y-56878213D01*
X143010288Y-56878210D01*
X142879185Y-56790609D01*
X142879172Y-56790602D01*
X142733501Y-56730264D01*
X142733489Y-56730261D01*
X142578845Y-56699500D01*
X142578842Y-56699500D01*
X142421158Y-56699500D01*
X142421155Y-56699500D01*
X142266510Y-56730261D01*
X142266498Y-56730264D01*
X142120827Y-56790602D01*
X142120814Y-56790609D01*
X141989127Y-56878601D01*
X141922450Y-56899479D01*
X141920236Y-56899499D01*
X141859783Y-56899499D01*
X141783419Y-56919961D01*
X141707054Y-56940423D01*
X141707049Y-56940426D01*
X141570130Y-57019475D01*
X141570122Y-57019481D01*
X128958319Y-69631284D01*
X128930637Y-69679232D01*
X128918936Y-69699500D01*
X128879263Y-69768215D01*
X128838339Y-69920943D01*
X128838339Y-69920945D01*
X128838339Y-70089046D01*
X128838340Y-70089059D01*
X128838340Y-72420234D01*
X128818655Y-72487273D01*
X128817442Y-72489125D01*
X128729449Y-72620814D01*
X128729442Y-72620827D01*
X128669104Y-72766498D01*
X128669101Y-72766510D01*
X128638340Y-72921153D01*
X128039340Y-72921153D01*
X128039340Y-68867196D01*
X128059025Y-68800157D01*
X128075654Y-68779520D01*
X134307553Y-62547621D01*
X134307556Y-62547620D01*
X134419360Y-62435816D01*
X134469479Y-62349004D01*
X134498417Y-62298885D01*
X134539340Y-62146157D01*
X134539340Y-61988043D01*
X134539340Y-61079765D01*
X134559025Y-61012726D01*
X134560238Y-61010874D01*
X134648230Y-60879185D01*
X134648230Y-60879184D01*
X134648234Y-60879179D01*
X134708577Y-60733497D01*
X134739340Y-60578842D01*
X134739340Y-60421158D01*
X134739340Y-60421155D01*
X134739339Y-60421153D01*
X134708578Y-60266510D01*
X134708577Y-60266503D01*
X134708575Y-60266498D01*
X134648237Y-60120827D01*
X134648230Y-60120814D01*
X134560629Y-59989711D01*
X134560626Y-59989707D01*
X134449132Y-59878213D01*
X134449128Y-59878210D01*
X134318025Y-59790609D01*
X134318012Y-59790602D01*
X134172341Y-59730264D01*
X134172329Y-59730261D01*
X134017685Y-59699500D01*
X134017682Y-59699500D01*
X133859998Y-59699500D01*
X133859995Y-59699500D01*
X133705350Y-59730261D01*
X133705338Y-59730264D01*
X133559667Y-59790602D01*
X133559654Y-59790609D01*
X133428551Y-59878210D01*
X133428546Y-59878214D01*
X133391506Y-59915254D01*
X133330183Y-59948739D01*
X133260491Y-59943753D01*
X133204558Y-59901881D01*
X133180142Y-59836417D01*
X133189264Y-59780121D01*
X133208577Y-59733497D01*
X133239340Y-59578842D01*
X133239340Y-59421158D01*
X133239340Y-59421155D01*
X133239339Y-59421153D01*
X133208578Y-59266510D01*
X133208577Y-59266503D01*
X133208575Y-59266498D01*
X133148237Y-59120827D01*
X133148230Y-59120814D01*
X133060629Y-58989711D01*
X133060626Y-58989707D01*
X132949132Y-58878213D01*
X132949128Y-58878210D01*
X132818025Y-58790609D01*
X132818012Y-58790602D01*
X132710975Y-58746267D01*
X132656571Y-58702427D01*
X132634506Y-58636132D01*
X132636810Y-58607514D01*
X132658578Y-58498082D01*
X132658578Y-58340393D01*
X132658577Y-58340391D01*
X132644523Y-58269737D01*
X132627815Y-58185741D01*
X132627813Y-58185736D01*
X132567475Y-58040065D01*
X132567468Y-58040052D01*
X132479867Y-57908949D01*
X132479864Y-57908945D01*
X132368370Y-57797451D01*
X132368366Y-57797448D01*
X132237263Y-57709847D01*
X132237250Y-57709840D01*
X132091579Y-57649502D01*
X132091567Y-57649499D01*
X131936923Y-57618738D01*
X131936920Y-57618738D01*
X131779236Y-57618738D01*
X131779233Y-57618738D01*
X131624588Y-57649499D01*
X131624576Y-57649502D01*
X131478905Y-57709840D01*
X131478892Y-57709847D01*
X131347789Y-57797448D01*
X131347785Y-57797451D01*
X131236291Y-57908945D01*
X131236288Y-57908949D01*
X131148687Y-58040052D01*
X131148680Y-58040065D01*
X131088342Y-58185736D01*
X131088339Y-58185746D01*
X131057439Y-58341088D01*
X131025054Y-58402999D01*
X131023503Y-58404577D01*
X130695759Y-58732322D01*
X130634436Y-58765807D01*
X130564745Y-58760823D01*
X130520397Y-58732322D01*
X129075659Y-57287584D01*
X129042174Y-57226261D01*
X129039340Y-57199903D01*
X129039340Y-49364059D01*
X129039341Y-49364046D01*
X129039341Y-49195945D01*
X129039341Y-49195943D01*
X128998417Y-49043215D01*
X128969479Y-48993095D01*
X128919360Y-48906284D01*
X128807556Y-48794480D01*
X128807555Y-48794479D01*
X128803225Y-48790149D01*
X128803214Y-48790139D01*
X127225658Y-47212583D01*
X127192173Y-47151260D01*
X127189339Y-47124902D01*
X127189339Y-46224500D01*
X127209024Y-46157461D01*
X127261828Y-46111706D01*
X127313339Y-46100500D01*
X136051171Y-46100500D01*
X136051187Y-46100501D01*
X136058783Y-46100501D01*
X136216894Y-46100501D01*
X136216897Y-46100501D01*
X136369625Y-46059577D01*
X136419744Y-46030639D01*
X136506556Y-45980520D01*
X136618360Y-45868716D01*
X136618360Y-45868714D01*
X136628568Y-45858507D01*
X136628570Y-45858504D01*
X137674187Y-44812887D01*
X137735510Y-44779402D01*
X137805202Y-44784386D01*
X137849549Y-44812887D01*
X138203036Y-45166374D01*
X138203046Y-45166385D01*
X138207376Y-45170715D01*
X138207377Y-45170716D01*
X138319181Y-45282520D01*
X138405992Y-45332639D01*
X138405994Y-45332641D01*
X138444048Y-45354611D01*
X138456112Y-45361577D01*
X138608840Y-45402500D01*
X152446023Y-45402500D01*
X152513062Y-45422185D01*
X152558817Y-45474989D01*
X152568761Y-45544147D01*
X152539736Y-45607703D01*
X152511121Y-45632037D01*
X152487890Y-45646367D01*
X152470182Y-45657289D01*
X152346129Y-45781342D01*
X152254027Y-45930663D01*
X152254026Y-45930666D01*
X152198841Y-46097203D01*
X152198841Y-46097204D01*
X152198840Y-46097204D01*
X152188340Y-46199983D01*
X152188340Y-46275500D01*
X152168655Y-46342539D01*
X152115851Y-46388294D01*
X152064340Y-46399500D01*
X141025510Y-46399500D01*
X141025494Y-46399499D01*
X141017898Y-46399499D01*
X140859783Y-46399499D01*
X140783419Y-46419961D01*
X140707054Y-46440423D01*
X140707049Y-46440426D01*
X140570130Y-46519475D01*
X140570126Y-46519478D01*
X140424177Y-46665427D01*
X140362854Y-46698911D01*
X140360688Y-46699362D01*
X140205348Y-46730261D01*
X140205338Y-46730264D01*
X140059667Y-46790602D01*
X140059654Y-46790609D01*
X139928551Y-46878210D01*
X139928547Y-46878213D01*
X139817053Y-46989707D01*
X139817050Y-46989711D01*
X139729449Y-47120814D01*
X139729442Y-47120827D01*
X139669104Y-47266498D01*
X139669101Y-47266510D01*
X139638340Y-47421153D01*
X139638340Y-47578846D01*
X139669101Y-47733489D01*
X139669104Y-47733501D01*
X139729442Y-47879172D01*
X139729449Y-47879185D01*
X139817050Y-48010288D01*
X139817053Y-48010292D01*
X139928547Y-48121786D01*
X139928551Y-48121789D01*
X140059654Y-48209390D01*
X140059667Y-48209397D01*
X140205338Y-48269735D01*
X140205343Y-48269737D01*
X140359993Y-48300499D01*
X140359996Y-48300500D01*
X140359998Y-48300500D01*
X140517684Y-48300500D01*
X140517685Y-48300499D01*
X140672337Y-48269737D01*
X140818019Y-48209394D01*
X140949129Y-48121789D01*
X141060629Y-48010289D01*
X141148234Y-47879179D01*
X141208577Y-47733497D01*
X141215179Y-47700309D01*
X141247564Y-47638398D01*
X141308279Y-47603824D01*
X141336796Y-47600500D01*
X152064341Y-47600500D01*
X152131380Y-47620185D01*
X152177135Y-47672989D01*
X152188341Y-47724500D01*
X152188341Y-47800018D01*
X152198840Y-47902796D01*
X152198841Y-47902799D01*
X152234460Y-48010288D01*
X152254026Y-48069334D01*
X152346128Y-48218656D01*
X152470184Y-48342712D01*
X152619506Y-48434814D01*
X152786043Y-48489999D01*
X152888831Y-48500500D01*
X153538848Y-48500499D01*
X153538856Y-48500498D01*
X153538859Y-48500498D01*
X153595142Y-48494748D01*
X153641637Y-48489999D01*
X153808174Y-48434814D01*
X153957496Y-48342712D01*
X154081552Y-48218656D01*
X154173654Y-48069334D01*
X154228839Y-47902797D01*
X154239340Y-47800009D01*
X154239339Y-46199992D01*
X154239158Y-46198224D01*
X154228839Y-46097203D01*
X154228838Y-46097200D01*
X154216371Y-46059577D01*
X154173654Y-45930666D01*
X154081552Y-45781344D01*
X153957496Y-45657288D01*
X153916559Y-45632038D01*
X153869836Y-45580091D01*
X153858613Y-45511128D01*
X153886457Y-45447046D01*
X153944525Y-45408190D01*
X153981657Y-45402500D01*
X155165743Y-45402500D01*
X155232782Y-45422185D01*
X155253424Y-45438819D01*
X156602021Y-46787416D01*
X156635506Y-46848739D01*
X156638340Y-46875097D01*
X156638340Y-47800001D01*
X156638341Y-47800019D01*
X156648840Y-47902796D01*
X156648841Y-47902799D01*
X156684460Y-48010288D01*
X156704026Y-48069334D01*
X156796128Y-48218656D01*
X156920184Y-48342712D01*
X157069506Y-48434814D01*
X157236043Y-48489999D01*
X157338831Y-48500500D01*
X157988848Y-48500499D01*
X157988856Y-48500498D01*
X157988859Y-48500498D01*
X158045142Y-48494748D01*
X158091637Y-48489999D01*
X158258174Y-48434814D01*
X158407496Y-48342712D01*
X158531552Y-48218656D01*
X158623654Y-48069334D01*
X158678839Y-47902797D01*
X158689340Y-47800009D01*
X158689339Y-46199992D01*
X158689158Y-46198224D01*
X158678839Y-46097203D01*
X158678838Y-46097200D01*
X158666371Y-46059577D01*
X158623654Y-45930666D01*
X158531552Y-45781344D01*
X158407496Y-45657288D01*
X158258174Y-45565186D01*
X158091637Y-45510001D01*
X158091635Y-45510000D01*
X157988850Y-45499500D01*
X157338838Y-45499500D01*
X157338820Y-45499501D01*
X157236043Y-45510000D01*
X157236036Y-45510002D01*
X157148682Y-45538948D01*
X157078853Y-45541349D01*
X157021998Y-45508923D01*
X156327256Y-44814181D01*
X156293771Y-44752858D01*
X156298755Y-44683166D01*
X156340627Y-44627233D01*
X156406091Y-44602816D01*
X156414937Y-44602500D01*
X163435434Y-44602500D01*
X163502473Y-44622185D01*
X163548228Y-44674989D01*
X163558172Y-44744147D01*
X163529147Y-44807703D01*
X163493887Y-44835858D01*
X163198224Y-44993893D01*
X163198206Y-44993904D01*
X162912248Y-45184975D01*
X162912234Y-45184985D01*
X162646367Y-45403176D01*
X162403176Y-45646367D01*
X162184985Y-45912234D01*
X162184975Y-45912248D01*
X161993904Y-46198206D01*
X161993893Y-46198224D01*
X161831772Y-46501530D01*
X161831770Y-46501535D01*
X161700150Y-46819293D01*
X161600308Y-47148427D01*
X161533210Y-47485750D01*
X161514770Y-47672989D01*
X161499500Y-47828031D01*
X161499500Y-48171969D01*
X161504098Y-48218656D01*
X161533210Y-48514249D01*
X161600308Y-48851572D01*
X161700150Y-49180706D01*
X161831770Y-49498464D01*
X161831772Y-49498469D01*
X161993893Y-49801775D01*
X161993904Y-49801793D01*
X162184975Y-50087751D01*
X162184985Y-50087765D01*
X162403176Y-50353632D01*
X162646367Y-50596823D01*
X162646372Y-50596827D01*
X162646373Y-50596828D01*
X162912240Y-50815019D01*
X163198213Y-51006100D01*
X163198222Y-51006105D01*
X163198224Y-51006106D01*
X163501530Y-51168227D01*
X163501532Y-51168227D01*
X163501538Y-51168231D01*
X163819295Y-51299850D01*
X164148422Y-51399690D01*
X164485750Y-51466789D01*
X164828031Y-51500500D01*
X164828034Y-51500500D01*
X165171966Y-51500500D01*
X165171969Y-51500500D01*
X165514250Y-51466789D01*
X165851578Y-51399690D01*
X166180705Y-51299850D01*
X166498462Y-51168231D01*
X166801787Y-51006100D01*
X167087760Y-50815019D01*
X167353627Y-50596828D01*
X167596828Y-50353627D01*
X167815019Y-50087760D01*
X168006100Y-49801787D01*
X168168231Y-49498462D01*
X168299850Y-49180705D01*
X168399690Y-48851578D01*
X168466789Y-48514250D01*
X168500500Y-48171969D01*
X168500500Y-47828031D01*
X168466789Y-47485750D01*
X168399690Y-47148422D01*
X168299850Y-46819295D01*
X168168231Y-46501538D01*
X168135564Y-46440423D01*
X168006106Y-46198224D01*
X168006105Y-46198222D01*
X168006100Y-46198213D01*
X167815019Y-45912240D01*
X167596828Y-45646373D01*
X167596827Y-45646372D01*
X167596823Y-45646367D01*
X167353632Y-45403176D01*
X167087765Y-45184985D01*
X167087764Y-45184984D01*
X167087760Y-45184981D01*
X166801787Y-44993900D01*
X166801782Y-44993897D01*
X166801775Y-44993893D01*
X166506113Y-44835858D01*
X166456268Y-44786896D01*
X166440808Y-44718758D01*
X166464640Y-44653078D01*
X166520198Y-44610710D01*
X166564566Y-44602500D01*
X168638743Y-44602500D01*
X168668183Y-44611144D01*
X168698170Y-44617668D01*
X168703185Y-44621422D01*
X168705782Y-44622185D01*
X168726424Y-44638819D01*
X168800021Y-44712416D01*
X168833506Y-44773739D01*
X168836340Y-44800097D01*
X168836340Y-53275500D01*
X168816655Y-53342539D01*
X168763851Y-53388294D01*
X168712340Y-53399500D01*
X167897283Y-53399500D01*
X167744556Y-53440423D01*
X167744549Y-53440426D01*
X167607630Y-53519475D01*
X167607622Y-53519481D01*
X167495821Y-53631282D01*
X167495815Y-53631290D01*
X167416766Y-53768209D01*
X167416763Y-53768216D01*
X167375840Y-53920943D01*
X167375840Y-54879559D01*
X167356155Y-54946598D01*
X167339521Y-54967240D01*
X167317053Y-54989707D01*
X167317050Y-54989711D01*
X167229449Y-55120814D01*
X167229442Y-55120827D01*
X167169104Y-55266498D01*
X167169101Y-55266510D01*
X167138340Y-55421153D01*
X167138340Y-55578846D01*
X167169101Y-55733489D01*
X167169104Y-55733501D01*
X167229442Y-55879172D01*
X167229449Y-55879185D01*
X167317050Y-56010288D01*
X167317053Y-56010292D01*
X167428547Y-56121786D01*
X167428551Y-56121789D01*
X167559654Y-56209390D01*
X167559667Y-56209397D01*
X167705338Y-56269735D01*
X167705343Y-56269737D01*
X167859993Y-56300499D01*
X167859996Y-56300500D01*
X167859998Y-56300500D01*
X168017684Y-56300500D01*
X168017685Y-56300499D01*
X168172337Y-56269737D01*
X168318019Y-56209394D01*
X168449129Y-56121789D01*
X168560629Y-56010289D01*
X168609238Y-55937541D01*
X168662850Y-55892736D01*
X168732175Y-55884029D01*
X168795202Y-55914183D01*
X168831922Y-55973626D01*
X168836340Y-56006432D01*
X168836340Y-64275500D01*
X168816655Y-64342539D01*
X168763851Y-64388294D01*
X168712340Y-64399500D01*
X166079766Y-64399500D01*
X166012727Y-64379815D01*
X166010875Y-64378602D01*
X165879185Y-64290609D01*
X165879172Y-64290602D01*
X165733501Y-64230264D01*
X165733489Y-64230261D01*
X165578845Y-64199500D01*
X165578842Y-64199500D01*
X165421158Y-64199500D01*
X165421155Y-64199500D01*
X165266510Y-64230261D01*
X165266498Y-64230264D01*
X165120827Y-64290602D01*
X165120814Y-64290609D01*
X164989711Y-64378210D01*
X164989707Y-64378213D01*
X164878213Y-64489707D01*
X164878210Y-64489711D01*
X164790609Y-64620814D01*
X164790602Y-64620827D01*
X164730264Y-64766498D01*
X164730261Y-64766510D01*
X164699500Y-64921153D01*
X164699500Y-65078846D01*
X164730261Y-65233489D01*
X164730264Y-65233501D01*
X164790602Y-65379172D01*
X164790609Y-65379185D01*
X164878210Y-65510288D01*
X164878213Y-65510292D01*
X164989707Y-65621786D01*
X164989711Y-65621789D01*
X165120814Y-65709390D01*
X165120827Y-65709397D01*
X165231501Y-65755239D01*
X165266503Y-65769737D01*
X165421153Y-65800499D01*
X165421156Y-65800500D01*
X165421158Y-65800500D01*
X165578844Y-65800500D01*
X165578845Y-65800499D01*
X165733497Y-65769737D01*
X165879179Y-65709394D01*
X165879185Y-65709390D01*
X166010875Y-65621398D01*
X166077553Y-65600520D01*
X166079766Y-65600500D01*
X168712340Y-65600500D01*
X168779379Y-65620185D01*
X168825134Y-65672989D01*
X168836340Y-65724500D01*
X168836340Y-92082152D01*
X168816655Y-92149191D01*
X168763851Y-92194946D01*
X168736532Y-92203769D01*
X168603348Y-92230261D01*
X168603338Y-92230264D01*
X168457667Y-92290602D01*
X168457654Y-92290609D01*
X168326551Y-92378210D01*
X168326547Y-92378213D01*
X168215053Y-92489707D01*
X168215050Y-92489711D01*
X168127449Y-92620814D01*
X168127442Y-92620827D01*
X168085142Y-92722952D01*
X168041302Y-92777356D01*
X167975007Y-92799421D01*
X167970581Y-92799500D01*
X167859995Y-92799500D01*
X167705350Y-92830261D01*
X167705338Y-92830264D01*
X167559667Y-92890602D01*
X167559654Y-92890609D01*
X167428551Y-92978210D01*
X167428547Y-92978213D01*
X167317053Y-93089707D01*
X167317050Y-93089711D01*
X167229449Y-93220814D01*
X167229442Y-93220827D01*
X167169104Y-93366498D01*
X167169101Y-93366510D01*
X167138340Y-93521153D01*
X167138340Y-93678846D01*
X167169101Y-93833489D01*
X167169104Y-93833501D01*
X167229442Y-93979172D01*
X167229449Y-93979185D01*
X167317050Y-94110288D01*
X167317053Y-94110292D01*
X167428547Y-94221786D01*
X167428551Y-94221789D01*
X167559654Y-94309390D01*
X167559667Y-94309397D01*
X167668137Y-94354326D01*
X167705343Y-94369737D01*
X167859993Y-94400499D01*
X167859996Y-94400500D01*
X167859998Y-94400500D01*
X168017684Y-94400500D01*
X168017685Y-94400499D01*
X168172337Y-94369737D01*
X168318019Y-94309394D01*
X168432264Y-94233058D01*
X168449715Y-94221398D01*
X168516393Y-94200520D01*
X168518606Y-94200500D01*
X169252171Y-94200500D01*
X169252187Y-94200501D01*
X169259783Y-94200501D01*
X169417894Y-94200501D01*
X169417897Y-94200501D01*
X169570625Y-94159577D01*
X169620744Y-94130639D01*
X169707556Y-94080520D01*
X169819360Y-93968716D01*
X169819361Y-93968714D01*
X170318360Y-93469716D01*
X170397417Y-93332784D01*
X170438341Y-93180057D01*
X170438341Y-93021942D01*
X170438341Y-93014347D01*
X170438340Y-93014329D01*
X170438340Y-43988060D01*
X170438341Y-43988047D01*
X170438341Y-43819944D01*
X170438341Y-43819943D01*
X170397417Y-43667216D01*
X170397415Y-43667214D01*
X170395313Y-43659366D01*
X170397948Y-43658659D01*
X170391912Y-43602476D01*
X170423190Y-43539999D01*
X170483281Y-43504350D01*
X170513940Y-43500500D01*
X170814340Y-43500500D01*
X170881379Y-43520185D01*
G37*
%TD.AperFunction*%
%TD*%
M02*
