M48
; DRILL file {KiCad 9.0.6} date 2025-11-24T16:31:49-0500
; FORMAT={-:-/ absolute / inch / decimal}
; #@! TF.CreationDate,2025-11-24T16:31:49-05:00
; #@! TF.GenerationSoftware,Kicad,Pcbnew,9.0.6
; #@! TF.FileFunction,Plated,1,2,PTH
FMAT,2
INCH
; #@! TA.AperFunction,Plated,PTH,ComponentDrill
T1C0.0079
; #@! TA.AperFunction,Plated,PTH,ViaDrill
T2C0.0118
; #@! TA.AperFunction,Plated,PTH,ComponentDrill
T3C0.0197
; #@! TA.AperFunction,Plated,PTH,ComponentDrill
T4C0.0295
; #@! TA.AperFunction,Plated,PTH,ComponentDrill
T5C0.1181
%
G90
G05
T1
X4.9982Y-2.4207
X4.9982Y-2.4596
X5.0372Y-2.3817
X5.0372Y-2.4207
X5.0372Y-2.4596
X5.0372Y-2.4986
X5.0761Y-2.3817
X5.0761Y-2.4207
X5.0761Y-2.4596
X5.0761Y-2.4986
X5.1151Y-2.4207
X5.1151Y-2.4596
T2
X4.5055Y-2.6181
X4.5055Y-4.2126
X4.5079Y-3.248
X4.5252Y-2.6575
X4.5252Y-2.7362
X4.5448Y-4.5866
X4.5669Y-3.4646
X4.5842Y-4.4685
X4.6236Y-2.8346
X4.6457Y-4.5276
X4.6654Y-5.5709
X4.722Y-2.8543
X4.7244Y-4.9803
X4.8031Y-3.622
X4.8031Y-3.6614
X4.8204Y-3.1496
X4.9016Y-4.252
X4.9189Y-2.7756
X4.9543Y-3.7795
X4.9543Y-3.8386
X4.9582Y-3.0315
X4.9779Y-3.1496
X5.0173Y-3.1496
X5.096Y-2.874
X5.1157Y-3.0315
X5.1354Y-4.8228
X5.1913Y-2.3
X5.1944Y-5.4921
X5.2141Y-2.3425
X5.2318Y-5.0787
X5.2338Y-5.1181
X5.2732Y-2.3819
X5.2756Y-2.6575
X5.2929Y-5.1181
X5.2953Y-3.7992
X5.3126Y-4.4291
X5.3322Y-2.5787
X5.3322Y-5.1181
X5.3519Y-2.5394
X5.3716Y-5.1181
X5.3937Y-3.7638
X5.411Y-5.0591
X5.4267Y-1.7244
X5.47Y-1.7402
X5.5291Y-1.8701
X5.5685Y-5.0197
X5.5921Y-3.0118
X5.6102Y-2.2638
X5.6137Y-5.0197
X5.6452Y-5.0197
X5.689Y-3.4449
X5.785Y-4.5079
X5.844Y-3.5039
X5.8637Y-4.252
X5.8661Y-3.1299
X5.9031Y-3.9567
X5.9449Y-4.4291
X5.9646Y-5.3937
X6.0015Y-4.8819
X6.0212Y-5.2165
X6.0409Y-3.248
X6.0803Y-4.9016
X6.1Y-5.1575
X6.1Y-5.6693
X6.122Y-3.5827
X6.2377Y-4.626
X6.2992Y-5.7677
X6.3559Y-5.3937
X6.3559Y-5.4921
X6.3755Y-5.4331
X6.433Y-5.6614
X6.4405Y-5.7815
X6.5133Y-4.6457
X6.5133Y-5.7283
X6.5157Y-2.5591
X6.5724Y-5.4724
X6.5945Y-5.2756
X6.6118Y-2.185
X6.6118Y-3.685
X6.6471Y-3.6614
T4
X6.2968Y-4.1555
X6.3755Y-4.1555
T5
X4.4094Y-5.8071
X6.4961Y-1.8898
T3
G00X6.2027Y-5.8583
M15
G01X6.2027Y-5.8346
M16
G05
G00X6.2169Y-5.624
M15
G01X6.2169Y-5.6004
M16
G05
G00X6.5421Y-5.624
M15
G01X6.5421Y-5.6004
M16
G05
G00X6.5563Y-5.8583
M15
G01X6.5563Y-5.8346
M16
G05
M30
