%TF.GenerationSoftware,KiCad,Pcbnew,9.0.6*%
%TF.CreationDate,2025-11-24T16:31:49-05:00*%
%TF.ProjectId,EPD_HUB_ESP32,4550445f-4855-4425-9f45-535033322e6b,rev?*%
%TF.SameCoordinates,Original*%
%TF.FileFunction,Soldermask,Bot*%
%TF.FilePolarity,Negative*%
%FSLAX46Y46*%
G04 Gerber Fmt 4.6, Leading zero omitted, Abs format (unit mm)*
G04 Created by KiCad (PCBNEW 9.0.6) date 2025-11-24 16:31:49*
%MOMM*%
%LPD*%
G01*
G04 APERTURE LIST*
G04 Aperture macros list*
%AMRoundRect*
0 Rectangle with rounded corners*
0 $1 Rounding radius*
0 $2 $3 $4 $5 $6 $7 $8 $9 X,Y pos of 4 corners*
0 Add a 4 corners polygon primitive as box body*
4,1,4,$2,$3,$4,$5,$6,$7,$8,$9,$2,$3,0*
0 Add four circle primitives for the rounded corners*
1,1,$1+$1,$2,$3*
1,1,$1+$1,$4,$5*
1,1,$1+$1,$6,$7*
1,1,$1+$1,$8,$9*
0 Add four rect primitives between the rounded corners*
20,1,$1+$1,$2,$3,$4,$5,0*
20,1,$1+$1,$4,$5,$6,$7,0*
20,1,$1+$1,$6,$7,$8,$9,0*
20,1,$1+$1,$8,$9,$2,$3,0*%
%AMRotRect*
0 Rectangle, with rotation*
0 The origin of the aperture is its center*
0 $1 length*
0 $2 width*
0 $3 Rotation angle, in degrees counterclockwise*
0 Add horizontal line*
21,1,$1,$2,0,0,$3*%
G04 Aperture macros list end*
%ADD10C,6.000000*%
%ADD11R,1.200000X0.700000*%
%ADD12R,0.800000X1.000000*%
%ADD13R,1.200000X1.000000*%
%ADD14R,2.800000X1.000000*%
%ADD15R,1.900000X1.300000*%
%ADD16RoundRect,0.250000X-0.337500X-0.475000X0.337500X-0.475000X0.337500X0.475000X-0.337500X0.475000X0*%
%ADD17RoundRect,0.250000X-0.475000X0.337500X-0.475000X-0.337500X0.475000X-0.337500X0.475000X0.337500X0*%
%ADD18RoundRect,0.250000X-0.350000X-0.450000X0.350000X-0.450000X0.350000X0.450000X-0.350000X0.450000X0*%
%ADD19RoundRect,0.250000X0.450000X-0.350000X0.450000X0.350000X-0.450000X0.350000X-0.450000X-0.350000X0*%
%ADD20RoundRect,0.250000X0.337500X0.475000X-0.337500X0.475000X-0.337500X-0.475000X0.337500X-0.475000X0*%
%ADD21RoundRect,0.250000X-0.450000X0.350000X-0.450000X-0.350000X0.450000X-0.350000X0.450000X0.350000X0*%
%ADD22RoundRect,0.150000X0.200000X-0.150000X0.200000X0.150000X-0.200000X0.150000X-0.200000X-0.150000X0*%
%ADD23RoundRect,0.250000X0.475000X-0.337500X0.475000X0.337500X-0.475000X0.337500X-0.475000X-0.337500X0*%
%ADD24RoundRect,0.250000X0.275000X0.750000X-0.275000X0.750000X-0.275000X-0.750000X0.275000X-0.750000X0*%
%ADD25RotRect,1.500000X0.900000X225.000000*%
%ADD26RotRect,1.500000X0.900000X45.000000*%
%ADD27RotRect,1.500000X0.900000X315.000000*%
%ADD28C,0.600000*%
%ADD29RotRect,3.900000X3.900000X315.000000*%
%ADD30RoundRect,0.250000X0.350000X0.625000X-0.350000X0.625000X-0.350000X-0.625000X0.350000X-0.625000X0*%
%ADD31O,1.200000X1.750000*%
%ADD32RoundRect,0.250000X-0.600000X-2.600000X0.600000X-2.600000X0.600000X2.600000X-0.600000X2.600000X0*%
%ADD33RoundRect,0.062500X0.375000X0.062500X-0.375000X0.062500X-0.375000X-0.062500X0.375000X-0.062500X0*%
%ADD34RoundRect,0.062500X0.062500X0.375000X-0.062500X0.375000X-0.062500X-0.375000X0.062500X-0.375000X0*%
%ADD35R,1.600000X1.600000*%
%ADD36RoundRect,0.162500X0.162500X-0.617500X0.162500X0.617500X-0.162500X0.617500X-0.162500X-0.617500X0*%
%ADD37C,0.650000*%
%ADD38O,0.950000X0.650000*%
%ADD39R,0.300000X0.700000*%
%ADD40O,0.800000X1.400000*%
%ADD41RoundRect,0.200000X-0.200000X0.750000X-0.200000X-0.750000X0.200000X-0.750000X0.200000X0.750000X0*%
%ADD42RoundRect,0.102000X0.150000X0.650000X-0.150000X0.650000X-0.150000X-0.650000X0.150000X-0.650000X0*%
%ADD43RoundRect,0.102000X1.000000X0.900000X-1.000000X0.900000X-1.000000X-0.900000X1.000000X-0.900000X0*%
%ADD44RoundRect,0.250000X-0.275000X-0.750000X0.275000X-0.750000X0.275000X0.750000X-0.275000X0.750000X0*%
%ADD45RoundRect,0.150000X0.150000X0.200000X-0.150000X0.200000X-0.150000X-0.200000X0.150000X-0.200000X0*%
G04 APERTURE END LIST*
D10*
%TO.C,REF_1*%
X165000000Y-48000000D03*
%TD*%
%TO.C,REF_2*%
X112000000Y-147500000D03*
%TD*%
D11*
%TO.C,J7*%
X124163840Y-89725000D03*
X124163840Y-90825000D03*
X124163840Y-91925000D03*
X124163840Y-93025000D03*
X124163840Y-94125000D03*
X124163840Y-95225000D03*
X124163840Y-96325000D03*
X124163840Y-97425000D03*
X124163840Y-98375000D03*
D12*
X113663840Y-99325000D03*
D13*
X119863840Y-99325000D03*
D14*
X109513840Y-99325000D03*
D13*
X124163840Y-88175000D03*
D15*
X109063840Y-85825000D03*
%TD*%
D16*
%TO.C,C8*%
X117901340Y-119000000D03*
X119976340Y-119000000D03*
%TD*%
D17*
%TO.C,C34*%
X144438840Y-55462500D03*
X144438840Y-57537500D03*
%TD*%
D18*
%TO.C,R10*%
X117938840Y-124000000D03*
X119938840Y-124000000D03*
%TD*%
D19*
%TO.C,R12*%
X118438840Y-132500000D03*
X118438840Y-130500000D03*
%TD*%
D16*
%TO.C,C35*%
X160462500Y-65000000D03*
X162537500Y-65000000D03*
%TD*%
D20*
%TO.C,C37*%
X150476340Y-96500000D03*
X148401340Y-96500000D03*
%TD*%
D17*
%TO.C,C2*%
X152938840Y-133962500D03*
X152938840Y-136037500D03*
%TD*%
D20*
%TO.C,C33*%
X133037500Y-48010000D03*
X130962500Y-48010000D03*
%TD*%
D19*
%TO.C,R4*%
X155938840Y-125500000D03*
X155938840Y-123500000D03*
%TD*%
D21*
%TO.C,R3*%
X124938840Y-145000000D03*
X124938840Y-147000000D03*
%TD*%
D22*
%TO.C,D1*%
X168938840Y-147300000D03*
X168938840Y-148700000D03*
%TD*%
D23*
%TO.C,C22*%
X149938840Y-129537500D03*
X149938840Y-127462500D03*
%TD*%
D24*
%TO.C,SW6*%
X153163840Y-58000000D03*
X148713840Y-58000000D03*
%TD*%
D21*
%TO.C,R54*%
X123438840Y-75500000D03*
X123438840Y-77500000D03*
%TD*%
D18*
%TO.C,R5*%
X162438840Y-125000000D03*
X164438840Y-125000000D03*
%TD*%
D20*
%TO.C,C1*%
X125037500Y-139500000D03*
X122962500Y-139500000D03*
%TD*%
D21*
%TO.C,R55*%
X132438840Y-77000000D03*
X132438840Y-79000000D03*
%TD*%
D23*
%TO.C,C5*%
X158938840Y-93037500D03*
X158938840Y-90962500D03*
%TD*%
D20*
%TO.C,C6*%
X153476340Y-115000000D03*
X151401340Y-115000000D03*
%TD*%
D21*
%TO.C,R9*%
X118438840Y-73000000D03*
X118438840Y-75000000D03*
%TD*%
D25*
%TO.C,U4*%
X128106500Y-51394510D03*
X129004525Y-52292536D03*
X129902551Y-53190561D03*
X130800577Y-54088587D03*
X131698602Y-54986612D03*
X132596628Y-55884638D03*
X133494653Y-56782664D03*
X134392679Y-57680689D03*
X135290705Y-58578715D03*
X136188730Y-59476741D03*
X137086756Y-60374766D03*
X137984781Y-61272792D03*
X138882807Y-62170817D03*
D26*
X139780833Y-63068843D03*
D27*
X139416673Y-65200770D03*
X138518647Y-66098796D03*
X137620621Y-66996821D03*
X136722596Y-67894847D03*
X135824570Y-68792872D03*
X134926545Y-69690898D03*
X134028519Y-70588924D03*
X133130493Y-71486949D03*
X132232468Y-72384975D03*
X131334442Y-73283000D03*
X130436417Y-74181026D03*
X129538391Y-75079052D03*
D25*
X127406464Y-75443212D03*
X126508438Y-74545186D03*
X125610413Y-73647160D03*
X124712387Y-72749135D03*
X123814362Y-71851109D03*
X122916336Y-70953084D03*
X122018310Y-70055058D03*
X121120285Y-69157032D03*
X120222259Y-68259007D03*
X119324233Y-67360981D03*
X118426208Y-66462956D03*
X117528182Y-65564930D03*
X116630157Y-64666904D03*
X115732131Y-63768879D03*
D28*
X129923764Y-61484924D03*
X128933815Y-60494974D03*
X129923764Y-62474873D03*
X128933815Y-61484924D03*
X127943865Y-60494974D03*
X128933815Y-62474873D03*
D29*
X128438840Y-61979899D03*
D28*
X127943865Y-61484924D03*
X128933815Y-63464823D03*
X127943865Y-62474873D03*
X126953916Y-61484924D03*
X127943865Y-63464823D03*
X126953916Y-62474873D03*
%TD*%
D21*
%TO.C,R53*%
X120938840Y-74000000D03*
X120938840Y-76000000D03*
%TD*%
D30*
%TO.C,J5*%
X161938840Y-105550000D03*
D31*
X159938840Y-105550000D03*
%TD*%
D32*
%TO.C,L1*%
X131250000Y-86500000D03*
X135750000Y-86500000D03*
%TD*%
D16*
%TO.C,C16*%
X126401340Y-123500000D03*
X128476340Y-123500000D03*
%TD*%
D33*
%TO.C,U2*%
X159876340Y-130750000D03*
X159876340Y-131250000D03*
X159876340Y-131750000D03*
X159876340Y-132250000D03*
D34*
X159188840Y-132937500D03*
X158688840Y-132937500D03*
X158188840Y-132937500D03*
X157688840Y-132937500D03*
D33*
X157001340Y-132250000D03*
X157001340Y-131750000D03*
X157001340Y-131250000D03*
X157001340Y-130750000D03*
D34*
X157688840Y-130062500D03*
X158188840Y-130062500D03*
X158688840Y-130062500D03*
X159188840Y-130062500D03*
D35*
X158438840Y-131500000D03*
%TD*%
D20*
%TO.C,C36*%
X150476340Y-93490000D03*
X148401340Y-93490000D03*
%TD*%
D18*
%TO.C,R1*%
X123000000Y-142000000D03*
X125000000Y-142000000D03*
%TD*%
D36*
%TO.C,U3*%
X153388840Y-121850000D03*
X152438840Y-121850000D03*
X151488840Y-121850000D03*
X151488840Y-119150000D03*
X153388840Y-119150000D03*
%TD*%
D16*
%TO.C,C14*%
X126401340Y-121000000D03*
X128476340Y-121000000D03*
%TD*%
D19*
%TO.C,R7*%
X153438840Y-100500000D03*
X153438840Y-98500000D03*
%TD*%
D16*
%TO.C,C3*%
X166401340Y-136000000D03*
X168476340Y-136000000D03*
%TD*%
D37*
%TO.C,J1*%
X165639840Y-141300000D03*
D38*
X158439840Y-141300000D03*
D39*
X164789840Y-140640000D03*
X164289840Y-140640000D03*
X163789840Y-140640000D03*
X163289840Y-140640000D03*
X162789840Y-140640000D03*
X162289840Y-140640000D03*
X161789840Y-140640000D03*
X161289840Y-140640000D03*
X160789840Y-140640000D03*
X160289840Y-140640000D03*
X159789840Y-140640000D03*
X159289840Y-140640000D03*
X159539840Y-142340000D03*
X160039840Y-142340000D03*
X160539840Y-142340000D03*
X161039840Y-142340000D03*
X161539840Y-142340000D03*
X162039840Y-142340000D03*
X162539840Y-142340000D03*
X163039840Y-142340000D03*
X163539840Y-142340000D03*
X164039840Y-142340000D03*
X164539840Y-142340000D03*
X165039840Y-142340000D03*
D40*
X166529840Y-148500000D03*
X166169840Y-142550000D03*
X157909840Y-142550000D03*
X157549840Y-148500000D03*
%TD*%
D41*
%TO.C,Q3*%
X158988840Y-97500000D03*
X160888840Y-97500000D03*
X159938840Y-100500000D03*
%TD*%
D42*
%TO.C,J3*%
X144688840Y-126150000D03*
X144188840Y-126150000D03*
X143688840Y-126150000D03*
X143188840Y-126150000D03*
X142688840Y-126150000D03*
X142188840Y-126150000D03*
X141688840Y-126150000D03*
X141188840Y-126150000D03*
X140688840Y-126150000D03*
X140188840Y-126150000D03*
X139688840Y-126150000D03*
X139188840Y-126150000D03*
X138688840Y-126150000D03*
X138188840Y-126150000D03*
X137688840Y-126150000D03*
X137188840Y-126150000D03*
X136688840Y-126150000D03*
X136188840Y-126150000D03*
X135688840Y-126150000D03*
X135188840Y-126150000D03*
X134688840Y-126150000D03*
X134188840Y-126150000D03*
X133688840Y-126150000D03*
X133188840Y-126150000D03*
D43*
X146488840Y-128900000D03*
X131388840Y-128900000D03*
%TD*%
D17*
%TO.C,C4*%
X153438840Y-127462500D03*
X153438840Y-129537500D03*
%TD*%
D21*
%TO.C,R8*%
X115938840Y-72000000D03*
X115938840Y-74000000D03*
%TD*%
D20*
%TO.C,C32*%
X133037500Y-45000000D03*
X130962500Y-45000000D03*
%TD*%
D21*
%TO.C,R2*%
X122438840Y-145000000D03*
X122438840Y-147000000D03*
%TD*%
D18*
%TO.C,R6*%
X162438840Y-128000000D03*
X164438840Y-128000000D03*
%TD*%
D44*
%TO.C,SW12*%
X163213840Y-58000000D03*
X167663840Y-58000000D03*
%TD*%
D22*
%TO.C,D2*%
X168938840Y-143800000D03*
X168938840Y-145200000D03*
%TD*%
D45*
%TO.C,D3*%
X152738840Y-138000000D03*
X154138840Y-138000000D03*
%TD*%
M02*
