%TF.GenerationSoftware,KiCad,Pcbnew,9.0.6*%
%TF.CreationDate,2025-11-24T16:31:49-05:00*%
%TF.ProjectId,EPD_HUB_ESP32,4550445f-4855-4425-9f45-535033322e6b,rev?*%
%TF.SameCoordinates,Original*%
%TF.FileFunction,Legend,Bot*%
%TF.FilePolarity,Positive*%
%FSLAX46Y46*%
G04 Gerber Fmt 4.6, Leading zero omitted, Abs format (unit mm)*
G04 Created by KiCad (PCBNEW 9.0.6) date 2025-11-24 16:31:49*
%MOMM*%
%LPD*%
G01*
G04 APERTURE LIST*
G04 Aperture macros list*
%AMRoundRect*
0 Rectangle with rounded corners*
0 $1 Rounding radius*
0 $2 $3 $4 $5 $6 $7 $8 $9 X,Y pos of 4 corners*
0 Add a 4 corners polygon primitive as box body*
4,1,4,$2,$3,$4,$5,$6,$7,$8,$9,$2,$3,0*
0 Add four circle primitives for the rounded corners*
1,1,$1+$1,$2,$3*
1,1,$1+$1,$4,$5*
1,1,$1+$1,$6,$7*
1,1,$1+$1,$8,$9*
0 Add four rect primitives between the rounded corners*
20,1,$1+$1,$2,$3,$4,$5,0*
20,1,$1+$1,$4,$5,$6,$7,0*
20,1,$1+$1,$6,$7,$8,$9,0*
20,1,$1+$1,$8,$9,$2,$3,0*%
%AMRotRect*
0 Rectangle, with rotation*
0 The origin of the aperture is its center*
0 $1 length*
0 $2 width*
0 $3 Rotation angle, in degrees counterclockwise*
0 Add horizontal line*
21,1,$1,$2,0,0,$3*%
G04 Aperture macros list end*
%ADD10C,0.150000*%
%ADD11C,0.120000*%
%ADD12C,0.200000*%
%ADD13C,6.000000*%
%ADD14R,1.200000X0.700000*%
%ADD15R,0.800000X1.000000*%
%ADD16R,1.200000X1.000000*%
%ADD17R,2.800000X1.000000*%
%ADD18R,1.900000X1.300000*%
%ADD19RoundRect,0.250000X-0.337500X-0.475000X0.337500X-0.475000X0.337500X0.475000X-0.337500X0.475000X0*%
%ADD20RoundRect,0.250000X-0.475000X0.337500X-0.475000X-0.337500X0.475000X-0.337500X0.475000X0.337500X0*%
%ADD21RoundRect,0.250000X-0.350000X-0.450000X0.350000X-0.450000X0.350000X0.450000X-0.350000X0.450000X0*%
%ADD22RoundRect,0.250000X0.450000X-0.350000X0.450000X0.350000X-0.450000X0.350000X-0.450000X-0.350000X0*%
%ADD23RoundRect,0.250000X0.337500X0.475000X-0.337500X0.475000X-0.337500X-0.475000X0.337500X-0.475000X0*%
%ADD24RoundRect,0.250000X-0.450000X0.350000X-0.450000X-0.350000X0.450000X-0.350000X0.450000X0.350000X0*%
%ADD25RoundRect,0.150000X0.200000X-0.150000X0.200000X0.150000X-0.200000X0.150000X-0.200000X-0.150000X0*%
%ADD26RoundRect,0.250000X0.475000X-0.337500X0.475000X0.337500X-0.475000X0.337500X-0.475000X-0.337500X0*%
%ADD27RoundRect,0.250000X0.275000X0.750000X-0.275000X0.750000X-0.275000X-0.750000X0.275000X-0.750000X0*%
%ADD28RotRect,1.500000X0.900000X225.000000*%
%ADD29RotRect,1.500000X0.900000X45.000000*%
%ADD30RotRect,1.500000X0.900000X315.000000*%
%ADD31C,0.600000*%
%ADD32RotRect,3.900000X3.900000X315.000000*%
%ADD33RoundRect,0.250000X0.350000X0.625000X-0.350000X0.625000X-0.350000X-0.625000X0.350000X-0.625000X0*%
%ADD34O,1.200000X1.750000*%
%ADD35RoundRect,0.250000X-0.600000X-2.600000X0.600000X-2.600000X0.600000X2.600000X-0.600000X2.600000X0*%
%ADD36RoundRect,0.062500X0.375000X0.062500X-0.375000X0.062500X-0.375000X-0.062500X0.375000X-0.062500X0*%
%ADD37RoundRect,0.062500X0.062500X0.375000X-0.062500X0.375000X-0.062500X-0.375000X0.062500X-0.375000X0*%
%ADD38R,1.600000X1.600000*%
%ADD39RoundRect,0.162500X0.162500X-0.617500X0.162500X0.617500X-0.162500X0.617500X-0.162500X-0.617500X0*%
%ADD40C,0.650000*%
%ADD41O,0.950000X0.650000*%
%ADD42R,0.300000X0.700000*%
%ADD43O,0.800000X1.400000*%
%ADD44RoundRect,0.200000X-0.200000X0.750000X-0.200000X-0.750000X0.200000X-0.750000X0.200000X0.750000X0*%
%ADD45RoundRect,0.102000X0.150000X0.650000X-0.150000X0.650000X-0.150000X-0.650000X0.150000X-0.650000X0*%
%ADD46RoundRect,0.102000X1.000000X0.900000X-1.000000X0.900000X-1.000000X-0.900000X1.000000X-0.900000X0*%
%ADD47RoundRect,0.250000X-0.275000X-0.750000X0.275000X-0.750000X0.275000X0.750000X-0.275000X0.750000X0*%
%ADD48RoundRect,0.150000X0.150000X0.200000X-0.150000X0.200000X-0.150000X-0.200000X0.150000X-0.200000X0*%
G04 APERTURE END LIST*
D10*
X125418659Y-92241666D02*
X126132944Y-92241666D01*
X126132944Y-92241666D02*
X126275801Y-92194047D01*
X126275801Y-92194047D02*
X126371040Y-92098809D01*
X126371040Y-92098809D02*
X126418659Y-91955952D01*
X126418659Y-91955952D02*
X126418659Y-91860714D01*
X125418659Y-92622619D02*
X125418659Y-93289285D01*
X125418659Y-93289285D02*
X126418659Y-92860714D01*
X118935506Y-121214580D02*
X118983125Y-121262200D01*
X118983125Y-121262200D02*
X119125982Y-121309819D01*
X119125982Y-121309819D02*
X119221220Y-121309819D01*
X119221220Y-121309819D02*
X119364077Y-121262200D01*
X119364077Y-121262200D02*
X119459315Y-121166961D01*
X119459315Y-121166961D02*
X119506934Y-121071723D01*
X119506934Y-121071723D02*
X119554553Y-120881247D01*
X119554553Y-120881247D02*
X119554553Y-120738390D01*
X119554553Y-120738390D02*
X119506934Y-120547914D01*
X119506934Y-120547914D02*
X119459315Y-120452676D01*
X119459315Y-120452676D02*
X119364077Y-120357438D01*
X119364077Y-120357438D02*
X119221220Y-120309819D01*
X119221220Y-120309819D02*
X119125982Y-120309819D01*
X119125982Y-120309819D02*
X118983125Y-120357438D01*
X118983125Y-120357438D02*
X118935506Y-120405057D01*
X118364077Y-120738390D02*
X118459315Y-120690771D01*
X118459315Y-120690771D02*
X118506934Y-120643152D01*
X118506934Y-120643152D02*
X118554553Y-120547914D01*
X118554553Y-120547914D02*
X118554553Y-120500295D01*
X118554553Y-120500295D02*
X118506934Y-120405057D01*
X118506934Y-120405057D02*
X118459315Y-120357438D01*
X118459315Y-120357438D02*
X118364077Y-120309819D01*
X118364077Y-120309819D02*
X118173601Y-120309819D01*
X118173601Y-120309819D02*
X118078363Y-120357438D01*
X118078363Y-120357438D02*
X118030744Y-120405057D01*
X118030744Y-120405057D02*
X117983125Y-120500295D01*
X117983125Y-120500295D02*
X117983125Y-120547914D01*
X117983125Y-120547914D02*
X118030744Y-120643152D01*
X118030744Y-120643152D02*
X118078363Y-120690771D01*
X118078363Y-120690771D02*
X118173601Y-120738390D01*
X118173601Y-120738390D02*
X118364077Y-120738390D01*
X118364077Y-120738390D02*
X118459315Y-120786009D01*
X118459315Y-120786009D02*
X118506934Y-120833628D01*
X118506934Y-120833628D02*
X118554553Y-120928866D01*
X118554553Y-120928866D02*
X118554553Y-121119342D01*
X118554553Y-121119342D02*
X118506934Y-121214580D01*
X118506934Y-121214580D02*
X118459315Y-121262200D01*
X118459315Y-121262200D02*
X118364077Y-121309819D01*
X118364077Y-121309819D02*
X118173601Y-121309819D01*
X118173601Y-121309819D02*
X118078363Y-121262200D01*
X118078363Y-121262200D02*
X118030744Y-121214580D01*
X118030744Y-121214580D02*
X117983125Y-121119342D01*
X117983125Y-121119342D02*
X117983125Y-120928866D01*
X117983125Y-120928866D02*
X118030744Y-120833628D01*
X118030744Y-120833628D02*
X118078363Y-120786009D01*
X118078363Y-120786009D02*
X118173601Y-120738390D01*
X143118420Y-54857142D02*
X143166040Y-54809523D01*
X143166040Y-54809523D02*
X143213659Y-54666666D01*
X143213659Y-54666666D02*
X143213659Y-54571428D01*
X143213659Y-54571428D02*
X143166040Y-54428571D01*
X143166040Y-54428571D02*
X143070801Y-54333333D01*
X143070801Y-54333333D02*
X142975563Y-54285714D01*
X142975563Y-54285714D02*
X142785087Y-54238095D01*
X142785087Y-54238095D02*
X142642230Y-54238095D01*
X142642230Y-54238095D02*
X142451754Y-54285714D01*
X142451754Y-54285714D02*
X142356516Y-54333333D01*
X142356516Y-54333333D02*
X142261278Y-54428571D01*
X142261278Y-54428571D02*
X142213659Y-54571428D01*
X142213659Y-54571428D02*
X142213659Y-54666666D01*
X142213659Y-54666666D02*
X142261278Y-54809523D01*
X142261278Y-54809523D02*
X142308897Y-54857142D01*
X142213659Y-55190476D02*
X142213659Y-55809523D01*
X142213659Y-55809523D02*
X142594611Y-55476190D01*
X142594611Y-55476190D02*
X142594611Y-55619047D01*
X142594611Y-55619047D02*
X142642230Y-55714285D01*
X142642230Y-55714285D02*
X142689849Y-55761904D01*
X142689849Y-55761904D02*
X142785087Y-55809523D01*
X142785087Y-55809523D02*
X143023182Y-55809523D01*
X143023182Y-55809523D02*
X143118420Y-55761904D01*
X143118420Y-55761904D02*
X143166040Y-55714285D01*
X143166040Y-55714285D02*
X143213659Y-55619047D01*
X143213659Y-55619047D02*
X143213659Y-55333333D01*
X143213659Y-55333333D02*
X143166040Y-55238095D01*
X143166040Y-55238095D02*
X143118420Y-55190476D01*
X142546992Y-56666666D02*
X143213659Y-56666666D01*
X142166040Y-56428571D02*
X142880325Y-56190476D01*
X142880325Y-56190476D02*
X142880325Y-56809523D01*
X119581697Y-126104819D02*
X119915030Y-125628628D01*
X120153125Y-126104819D02*
X120153125Y-125104819D01*
X120153125Y-125104819D02*
X119772173Y-125104819D01*
X119772173Y-125104819D02*
X119676935Y-125152438D01*
X119676935Y-125152438D02*
X119629316Y-125200057D01*
X119629316Y-125200057D02*
X119581697Y-125295295D01*
X119581697Y-125295295D02*
X119581697Y-125438152D01*
X119581697Y-125438152D02*
X119629316Y-125533390D01*
X119629316Y-125533390D02*
X119676935Y-125581009D01*
X119676935Y-125581009D02*
X119772173Y-125628628D01*
X119772173Y-125628628D02*
X120153125Y-125628628D01*
X118629316Y-126104819D02*
X119200744Y-126104819D01*
X118915030Y-126104819D02*
X118915030Y-125104819D01*
X118915030Y-125104819D02*
X119010268Y-125247676D01*
X119010268Y-125247676D02*
X119105506Y-125342914D01*
X119105506Y-125342914D02*
X119200744Y-125390533D01*
X118010268Y-125104819D02*
X117915030Y-125104819D01*
X117915030Y-125104819D02*
X117819792Y-125152438D01*
X117819792Y-125152438D02*
X117772173Y-125200057D01*
X117772173Y-125200057D02*
X117724554Y-125295295D01*
X117724554Y-125295295D02*
X117676935Y-125485771D01*
X117676935Y-125485771D02*
X117676935Y-125723866D01*
X117676935Y-125723866D02*
X117724554Y-125914342D01*
X117724554Y-125914342D02*
X117772173Y-126009580D01*
X117772173Y-126009580D02*
X117819792Y-126057200D01*
X117819792Y-126057200D02*
X117915030Y-126104819D01*
X117915030Y-126104819D02*
X118010268Y-126104819D01*
X118010268Y-126104819D02*
X118105506Y-126057200D01*
X118105506Y-126057200D02*
X118153125Y-126009580D01*
X118153125Y-126009580D02*
X118200744Y-125914342D01*
X118200744Y-125914342D02*
X118248363Y-125723866D01*
X118248363Y-125723866D02*
X118248363Y-125485771D01*
X118248363Y-125485771D02*
X118200744Y-125295295D01*
X118200744Y-125295295D02*
X118153125Y-125200057D01*
X118153125Y-125200057D02*
X118105506Y-125152438D01*
X118105506Y-125152438D02*
X118010268Y-125104819D01*
X120543659Y-130857142D02*
X120067468Y-130523809D01*
X120543659Y-130285714D02*
X119543659Y-130285714D01*
X119543659Y-130285714D02*
X119543659Y-130666666D01*
X119543659Y-130666666D02*
X119591278Y-130761904D01*
X119591278Y-130761904D02*
X119638897Y-130809523D01*
X119638897Y-130809523D02*
X119734135Y-130857142D01*
X119734135Y-130857142D02*
X119876992Y-130857142D01*
X119876992Y-130857142D02*
X119972230Y-130809523D01*
X119972230Y-130809523D02*
X120019849Y-130761904D01*
X120019849Y-130761904D02*
X120067468Y-130666666D01*
X120067468Y-130666666D02*
X120067468Y-130285714D01*
X120543659Y-131809523D02*
X120543659Y-131238095D01*
X120543659Y-131523809D02*
X119543659Y-131523809D01*
X119543659Y-131523809D02*
X119686516Y-131428571D01*
X119686516Y-131428571D02*
X119781754Y-131333333D01*
X119781754Y-131333333D02*
X119829373Y-131238095D01*
X119638897Y-132190476D02*
X119591278Y-132238095D01*
X119591278Y-132238095D02*
X119543659Y-132333333D01*
X119543659Y-132333333D02*
X119543659Y-132571428D01*
X119543659Y-132571428D02*
X119591278Y-132666666D01*
X119591278Y-132666666D02*
X119638897Y-132714285D01*
X119638897Y-132714285D02*
X119734135Y-132761904D01*
X119734135Y-132761904D02*
X119829373Y-132761904D01*
X119829373Y-132761904D02*
X119972230Y-132714285D01*
X119972230Y-132714285D02*
X120543659Y-132142857D01*
X120543659Y-132142857D02*
X120543659Y-132761904D01*
X162142857Y-67039580D02*
X162190476Y-67087200D01*
X162190476Y-67087200D02*
X162333333Y-67134819D01*
X162333333Y-67134819D02*
X162428571Y-67134819D01*
X162428571Y-67134819D02*
X162571428Y-67087200D01*
X162571428Y-67087200D02*
X162666666Y-66991961D01*
X162666666Y-66991961D02*
X162714285Y-66896723D01*
X162714285Y-66896723D02*
X162761904Y-66706247D01*
X162761904Y-66706247D02*
X162761904Y-66563390D01*
X162761904Y-66563390D02*
X162714285Y-66372914D01*
X162714285Y-66372914D02*
X162666666Y-66277676D01*
X162666666Y-66277676D02*
X162571428Y-66182438D01*
X162571428Y-66182438D02*
X162428571Y-66134819D01*
X162428571Y-66134819D02*
X162333333Y-66134819D01*
X162333333Y-66134819D02*
X162190476Y-66182438D01*
X162190476Y-66182438D02*
X162142857Y-66230057D01*
X161809523Y-66134819D02*
X161190476Y-66134819D01*
X161190476Y-66134819D02*
X161523809Y-66515771D01*
X161523809Y-66515771D02*
X161380952Y-66515771D01*
X161380952Y-66515771D02*
X161285714Y-66563390D01*
X161285714Y-66563390D02*
X161238095Y-66611009D01*
X161238095Y-66611009D02*
X161190476Y-66706247D01*
X161190476Y-66706247D02*
X161190476Y-66944342D01*
X161190476Y-66944342D02*
X161238095Y-67039580D01*
X161238095Y-67039580D02*
X161285714Y-67087200D01*
X161285714Y-67087200D02*
X161380952Y-67134819D01*
X161380952Y-67134819D02*
X161666666Y-67134819D01*
X161666666Y-67134819D02*
X161761904Y-67087200D01*
X161761904Y-67087200D02*
X161809523Y-67039580D01*
X160285714Y-66134819D02*
X160761904Y-66134819D01*
X160761904Y-66134819D02*
X160809523Y-66611009D01*
X160809523Y-66611009D02*
X160761904Y-66563390D01*
X160761904Y-66563390D02*
X160666666Y-66515771D01*
X160666666Y-66515771D02*
X160428571Y-66515771D01*
X160428571Y-66515771D02*
X160333333Y-66563390D01*
X160333333Y-66563390D02*
X160285714Y-66611009D01*
X160285714Y-66611009D02*
X160238095Y-66706247D01*
X160238095Y-66706247D02*
X160238095Y-66944342D01*
X160238095Y-66944342D02*
X160285714Y-67039580D01*
X160285714Y-67039580D02*
X160333333Y-67087200D01*
X160333333Y-67087200D02*
X160428571Y-67134819D01*
X160428571Y-67134819D02*
X160666666Y-67134819D01*
X160666666Y-67134819D02*
X160761904Y-67087200D01*
X160761904Y-67087200D02*
X160809523Y-67039580D01*
X146581697Y-96859580D02*
X146629316Y-96907200D01*
X146629316Y-96907200D02*
X146772173Y-96954819D01*
X146772173Y-96954819D02*
X146867411Y-96954819D01*
X146867411Y-96954819D02*
X147010268Y-96907200D01*
X147010268Y-96907200D02*
X147105506Y-96811961D01*
X147105506Y-96811961D02*
X147153125Y-96716723D01*
X147153125Y-96716723D02*
X147200744Y-96526247D01*
X147200744Y-96526247D02*
X147200744Y-96383390D01*
X147200744Y-96383390D02*
X147153125Y-96192914D01*
X147153125Y-96192914D02*
X147105506Y-96097676D01*
X147105506Y-96097676D02*
X147010268Y-96002438D01*
X147010268Y-96002438D02*
X146867411Y-95954819D01*
X146867411Y-95954819D02*
X146772173Y-95954819D01*
X146772173Y-95954819D02*
X146629316Y-96002438D01*
X146629316Y-96002438D02*
X146581697Y-96050057D01*
X146248363Y-95954819D02*
X145629316Y-95954819D01*
X145629316Y-95954819D02*
X145962649Y-96335771D01*
X145962649Y-96335771D02*
X145819792Y-96335771D01*
X145819792Y-96335771D02*
X145724554Y-96383390D01*
X145724554Y-96383390D02*
X145676935Y-96431009D01*
X145676935Y-96431009D02*
X145629316Y-96526247D01*
X145629316Y-96526247D02*
X145629316Y-96764342D01*
X145629316Y-96764342D02*
X145676935Y-96859580D01*
X145676935Y-96859580D02*
X145724554Y-96907200D01*
X145724554Y-96907200D02*
X145819792Y-96954819D01*
X145819792Y-96954819D02*
X146105506Y-96954819D01*
X146105506Y-96954819D02*
X146200744Y-96907200D01*
X146200744Y-96907200D02*
X146248363Y-96859580D01*
X145295982Y-95954819D02*
X144629316Y-95954819D01*
X144629316Y-95954819D02*
X145057887Y-96954819D01*
X151618420Y-134833333D02*
X151666040Y-134785714D01*
X151666040Y-134785714D02*
X151713659Y-134642857D01*
X151713659Y-134642857D02*
X151713659Y-134547619D01*
X151713659Y-134547619D02*
X151666040Y-134404762D01*
X151666040Y-134404762D02*
X151570801Y-134309524D01*
X151570801Y-134309524D02*
X151475563Y-134261905D01*
X151475563Y-134261905D02*
X151285087Y-134214286D01*
X151285087Y-134214286D02*
X151142230Y-134214286D01*
X151142230Y-134214286D02*
X150951754Y-134261905D01*
X150951754Y-134261905D02*
X150856516Y-134309524D01*
X150856516Y-134309524D02*
X150761278Y-134404762D01*
X150761278Y-134404762D02*
X150713659Y-134547619D01*
X150713659Y-134547619D02*
X150713659Y-134642857D01*
X150713659Y-134642857D02*
X150761278Y-134785714D01*
X150761278Y-134785714D02*
X150808897Y-134833333D01*
X150808897Y-135214286D02*
X150761278Y-135261905D01*
X150761278Y-135261905D02*
X150713659Y-135357143D01*
X150713659Y-135357143D02*
X150713659Y-135595238D01*
X150713659Y-135595238D02*
X150761278Y-135690476D01*
X150761278Y-135690476D02*
X150808897Y-135738095D01*
X150808897Y-135738095D02*
X150904135Y-135785714D01*
X150904135Y-135785714D02*
X150999373Y-135785714D01*
X150999373Y-135785714D02*
X151142230Y-135738095D01*
X151142230Y-135738095D02*
X151713659Y-135166667D01*
X151713659Y-135166667D02*
X151713659Y-135785714D01*
X136180357Y-48369580D02*
X136227976Y-48417200D01*
X136227976Y-48417200D02*
X136370833Y-48464819D01*
X136370833Y-48464819D02*
X136466071Y-48464819D01*
X136466071Y-48464819D02*
X136608928Y-48417200D01*
X136608928Y-48417200D02*
X136704166Y-48321961D01*
X136704166Y-48321961D02*
X136751785Y-48226723D01*
X136751785Y-48226723D02*
X136799404Y-48036247D01*
X136799404Y-48036247D02*
X136799404Y-47893390D01*
X136799404Y-47893390D02*
X136751785Y-47702914D01*
X136751785Y-47702914D02*
X136704166Y-47607676D01*
X136704166Y-47607676D02*
X136608928Y-47512438D01*
X136608928Y-47512438D02*
X136466071Y-47464819D01*
X136466071Y-47464819D02*
X136370833Y-47464819D01*
X136370833Y-47464819D02*
X136227976Y-47512438D01*
X136227976Y-47512438D02*
X136180357Y-47560057D01*
X135847023Y-47464819D02*
X135227976Y-47464819D01*
X135227976Y-47464819D02*
X135561309Y-47845771D01*
X135561309Y-47845771D02*
X135418452Y-47845771D01*
X135418452Y-47845771D02*
X135323214Y-47893390D01*
X135323214Y-47893390D02*
X135275595Y-47941009D01*
X135275595Y-47941009D02*
X135227976Y-48036247D01*
X135227976Y-48036247D02*
X135227976Y-48274342D01*
X135227976Y-48274342D02*
X135275595Y-48369580D01*
X135275595Y-48369580D02*
X135323214Y-48417200D01*
X135323214Y-48417200D02*
X135418452Y-48464819D01*
X135418452Y-48464819D02*
X135704166Y-48464819D01*
X135704166Y-48464819D02*
X135799404Y-48417200D01*
X135799404Y-48417200D02*
X135847023Y-48369580D01*
X134894642Y-47464819D02*
X134275595Y-47464819D01*
X134275595Y-47464819D02*
X134608928Y-47845771D01*
X134608928Y-47845771D02*
X134466071Y-47845771D01*
X134466071Y-47845771D02*
X134370833Y-47893390D01*
X134370833Y-47893390D02*
X134323214Y-47941009D01*
X134323214Y-47941009D02*
X134275595Y-48036247D01*
X134275595Y-48036247D02*
X134275595Y-48274342D01*
X134275595Y-48274342D02*
X134323214Y-48369580D01*
X134323214Y-48369580D02*
X134370833Y-48417200D01*
X134370833Y-48417200D02*
X134466071Y-48464819D01*
X134466071Y-48464819D02*
X134751785Y-48464819D01*
X134751785Y-48464819D02*
X134847023Y-48417200D01*
X134847023Y-48417200D02*
X134894642Y-48369580D01*
X158043659Y-124333333D02*
X157567468Y-124000000D01*
X158043659Y-123761905D02*
X157043659Y-123761905D01*
X157043659Y-123761905D02*
X157043659Y-124142857D01*
X157043659Y-124142857D02*
X157091278Y-124238095D01*
X157091278Y-124238095D02*
X157138897Y-124285714D01*
X157138897Y-124285714D02*
X157234135Y-124333333D01*
X157234135Y-124333333D02*
X157376992Y-124333333D01*
X157376992Y-124333333D02*
X157472230Y-124285714D01*
X157472230Y-124285714D02*
X157519849Y-124238095D01*
X157519849Y-124238095D02*
X157567468Y-124142857D01*
X157567468Y-124142857D02*
X157567468Y-123761905D01*
X157376992Y-125190476D02*
X158043659Y-125190476D01*
X156996040Y-124952381D02*
X157710325Y-124714286D01*
X157710325Y-124714286D02*
X157710325Y-125333333D01*
X127393659Y-145833333D02*
X126917468Y-145500000D01*
X127393659Y-145261905D02*
X126393659Y-145261905D01*
X126393659Y-145261905D02*
X126393659Y-145642857D01*
X126393659Y-145642857D02*
X126441278Y-145738095D01*
X126441278Y-145738095D02*
X126488897Y-145785714D01*
X126488897Y-145785714D02*
X126584135Y-145833333D01*
X126584135Y-145833333D02*
X126726992Y-145833333D01*
X126726992Y-145833333D02*
X126822230Y-145785714D01*
X126822230Y-145785714D02*
X126869849Y-145738095D01*
X126869849Y-145738095D02*
X126917468Y-145642857D01*
X126917468Y-145642857D02*
X126917468Y-145261905D01*
X126393659Y-146166667D02*
X126393659Y-146785714D01*
X126393659Y-146785714D02*
X126774611Y-146452381D01*
X126774611Y-146452381D02*
X126774611Y-146595238D01*
X126774611Y-146595238D02*
X126822230Y-146690476D01*
X126822230Y-146690476D02*
X126869849Y-146738095D01*
X126869849Y-146738095D02*
X126965087Y-146785714D01*
X126965087Y-146785714D02*
X127203182Y-146785714D01*
X127203182Y-146785714D02*
X127298420Y-146738095D01*
X127298420Y-146738095D02*
X127346040Y-146690476D01*
X127346040Y-146690476D02*
X127393659Y-146595238D01*
X127393659Y-146595238D02*
X127393659Y-146309524D01*
X127393659Y-146309524D02*
X127346040Y-146214286D01*
X127346040Y-146214286D02*
X127298420Y-146166667D01*
X168093659Y-147261905D02*
X167093659Y-147261905D01*
X167093659Y-147261905D02*
X167093659Y-147500000D01*
X167093659Y-147500000D02*
X167141278Y-147642857D01*
X167141278Y-147642857D02*
X167236516Y-147738095D01*
X167236516Y-147738095D02*
X167331754Y-147785714D01*
X167331754Y-147785714D02*
X167522230Y-147833333D01*
X167522230Y-147833333D02*
X167665087Y-147833333D01*
X167665087Y-147833333D02*
X167855563Y-147785714D01*
X167855563Y-147785714D02*
X167950801Y-147738095D01*
X167950801Y-147738095D02*
X168046040Y-147642857D01*
X168046040Y-147642857D02*
X168093659Y-147500000D01*
X168093659Y-147500000D02*
X168093659Y-147261905D01*
X168093659Y-148785714D02*
X168093659Y-148214286D01*
X168093659Y-148500000D02*
X167093659Y-148500000D01*
X167093659Y-148500000D02*
X167236516Y-148404762D01*
X167236516Y-148404762D02*
X167331754Y-148309524D01*
X167331754Y-148309524D02*
X167379373Y-148214286D01*
X151798420Y-128857142D02*
X151846040Y-128809523D01*
X151846040Y-128809523D02*
X151893659Y-128666666D01*
X151893659Y-128666666D02*
X151893659Y-128571428D01*
X151893659Y-128571428D02*
X151846040Y-128428571D01*
X151846040Y-128428571D02*
X151750801Y-128333333D01*
X151750801Y-128333333D02*
X151655563Y-128285714D01*
X151655563Y-128285714D02*
X151465087Y-128238095D01*
X151465087Y-128238095D02*
X151322230Y-128238095D01*
X151322230Y-128238095D02*
X151131754Y-128285714D01*
X151131754Y-128285714D02*
X151036516Y-128333333D01*
X151036516Y-128333333D02*
X150941278Y-128428571D01*
X150941278Y-128428571D02*
X150893659Y-128571428D01*
X150893659Y-128571428D02*
X150893659Y-128666666D01*
X150893659Y-128666666D02*
X150941278Y-128809523D01*
X150941278Y-128809523D02*
X150988897Y-128857142D01*
X150988897Y-129238095D02*
X150941278Y-129285714D01*
X150941278Y-129285714D02*
X150893659Y-129380952D01*
X150893659Y-129380952D02*
X150893659Y-129619047D01*
X150893659Y-129619047D02*
X150941278Y-129714285D01*
X150941278Y-129714285D02*
X150988897Y-129761904D01*
X150988897Y-129761904D02*
X151084135Y-129809523D01*
X151084135Y-129809523D02*
X151179373Y-129809523D01*
X151179373Y-129809523D02*
X151322230Y-129761904D01*
X151322230Y-129761904D02*
X151893659Y-129190476D01*
X151893659Y-129190476D02*
X151893659Y-129809523D01*
X150988897Y-130190476D02*
X150941278Y-130238095D01*
X150941278Y-130238095D02*
X150893659Y-130333333D01*
X150893659Y-130333333D02*
X150893659Y-130571428D01*
X150893659Y-130571428D02*
X150941278Y-130666666D01*
X150941278Y-130666666D02*
X150988897Y-130714285D01*
X150988897Y-130714285D02*
X151084135Y-130761904D01*
X151084135Y-130761904D02*
X151179373Y-130761904D01*
X151179373Y-130761904D02*
X151322230Y-130714285D01*
X151322230Y-130714285D02*
X151893659Y-130142857D01*
X151893659Y-130142857D02*
X151893659Y-130761904D01*
X152272172Y-55757200D02*
X152129315Y-55804819D01*
X152129315Y-55804819D02*
X151891220Y-55804819D01*
X151891220Y-55804819D02*
X151795982Y-55757200D01*
X151795982Y-55757200D02*
X151748363Y-55709580D01*
X151748363Y-55709580D02*
X151700744Y-55614342D01*
X151700744Y-55614342D02*
X151700744Y-55519104D01*
X151700744Y-55519104D02*
X151748363Y-55423866D01*
X151748363Y-55423866D02*
X151795982Y-55376247D01*
X151795982Y-55376247D02*
X151891220Y-55328628D01*
X151891220Y-55328628D02*
X152081696Y-55281009D01*
X152081696Y-55281009D02*
X152176934Y-55233390D01*
X152176934Y-55233390D02*
X152224553Y-55185771D01*
X152224553Y-55185771D02*
X152272172Y-55090533D01*
X152272172Y-55090533D02*
X152272172Y-54995295D01*
X152272172Y-54995295D02*
X152224553Y-54900057D01*
X152224553Y-54900057D02*
X152176934Y-54852438D01*
X152176934Y-54852438D02*
X152081696Y-54804819D01*
X152081696Y-54804819D02*
X151843601Y-54804819D01*
X151843601Y-54804819D02*
X151700744Y-54852438D01*
X151367410Y-54804819D02*
X151129315Y-55804819D01*
X151129315Y-55804819D02*
X150938839Y-55090533D01*
X150938839Y-55090533D02*
X150748363Y-55804819D01*
X150748363Y-55804819D02*
X150510268Y-54804819D01*
X149700744Y-54804819D02*
X149891220Y-54804819D01*
X149891220Y-54804819D02*
X149986458Y-54852438D01*
X149986458Y-54852438D02*
X150034077Y-54900057D01*
X150034077Y-54900057D02*
X150129315Y-55042914D01*
X150129315Y-55042914D02*
X150176934Y-55233390D01*
X150176934Y-55233390D02*
X150176934Y-55614342D01*
X150176934Y-55614342D02*
X150129315Y-55709580D01*
X150129315Y-55709580D02*
X150081696Y-55757200D01*
X150081696Y-55757200D02*
X149986458Y-55804819D01*
X149986458Y-55804819D02*
X149795982Y-55804819D01*
X149795982Y-55804819D02*
X149700744Y-55757200D01*
X149700744Y-55757200D02*
X149653125Y-55709580D01*
X149653125Y-55709580D02*
X149605506Y-55614342D01*
X149605506Y-55614342D02*
X149605506Y-55376247D01*
X149605506Y-55376247D02*
X149653125Y-55281009D01*
X149653125Y-55281009D02*
X149700744Y-55233390D01*
X149700744Y-55233390D02*
X149795982Y-55185771D01*
X149795982Y-55185771D02*
X149986458Y-55185771D01*
X149986458Y-55185771D02*
X150081696Y-55233390D01*
X150081696Y-55233390D02*
X150129315Y-55281009D01*
X150129315Y-55281009D02*
X150176934Y-55376247D01*
X123393659Y-79357142D02*
X122917468Y-79023809D01*
X123393659Y-78785714D02*
X122393659Y-78785714D01*
X122393659Y-78785714D02*
X122393659Y-79166666D01*
X122393659Y-79166666D02*
X122441278Y-79261904D01*
X122441278Y-79261904D02*
X122488897Y-79309523D01*
X122488897Y-79309523D02*
X122584135Y-79357142D01*
X122584135Y-79357142D02*
X122726992Y-79357142D01*
X122726992Y-79357142D02*
X122822230Y-79309523D01*
X122822230Y-79309523D02*
X122869849Y-79261904D01*
X122869849Y-79261904D02*
X122917468Y-79166666D01*
X122917468Y-79166666D02*
X122917468Y-78785714D01*
X122393659Y-80261904D02*
X122393659Y-79785714D01*
X122393659Y-79785714D02*
X122869849Y-79738095D01*
X122869849Y-79738095D02*
X122822230Y-79785714D01*
X122822230Y-79785714D02*
X122774611Y-79880952D01*
X122774611Y-79880952D02*
X122774611Y-80119047D01*
X122774611Y-80119047D02*
X122822230Y-80214285D01*
X122822230Y-80214285D02*
X122869849Y-80261904D01*
X122869849Y-80261904D02*
X122965087Y-80309523D01*
X122965087Y-80309523D02*
X123203182Y-80309523D01*
X123203182Y-80309523D02*
X123298420Y-80261904D01*
X123298420Y-80261904D02*
X123346040Y-80214285D01*
X123346040Y-80214285D02*
X123393659Y-80119047D01*
X123393659Y-80119047D02*
X123393659Y-79880952D01*
X123393659Y-79880952D02*
X123346040Y-79785714D01*
X123346040Y-79785714D02*
X123298420Y-79738095D01*
X122726992Y-81166666D02*
X123393659Y-81166666D01*
X122346040Y-80928571D02*
X123060325Y-80690476D01*
X123060325Y-80690476D02*
X123060325Y-81309523D01*
X163605506Y-127104819D02*
X163938839Y-126628628D01*
X164176934Y-127104819D02*
X164176934Y-126104819D01*
X164176934Y-126104819D02*
X163795982Y-126104819D01*
X163795982Y-126104819D02*
X163700744Y-126152438D01*
X163700744Y-126152438D02*
X163653125Y-126200057D01*
X163653125Y-126200057D02*
X163605506Y-126295295D01*
X163605506Y-126295295D02*
X163605506Y-126438152D01*
X163605506Y-126438152D02*
X163653125Y-126533390D01*
X163653125Y-126533390D02*
X163700744Y-126581009D01*
X163700744Y-126581009D02*
X163795982Y-126628628D01*
X163795982Y-126628628D02*
X164176934Y-126628628D01*
X162700744Y-126104819D02*
X163176934Y-126104819D01*
X163176934Y-126104819D02*
X163224553Y-126581009D01*
X163224553Y-126581009D02*
X163176934Y-126533390D01*
X163176934Y-126533390D02*
X163081696Y-126485771D01*
X163081696Y-126485771D02*
X162843601Y-126485771D01*
X162843601Y-126485771D02*
X162748363Y-126533390D01*
X162748363Y-126533390D02*
X162700744Y-126581009D01*
X162700744Y-126581009D02*
X162653125Y-126676247D01*
X162653125Y-126676247D02*
X162653125Y-126914342D01*
X162653125Y-126914342D02*
X162700744Y-127009580D01*
X162700744Y-127009580D02*
X162748363Y-127057200D01*
X162748363Y-127057200D02*
X162843601Y-127104819D01*
X162843601Y-127104819D02*
X163081696Y-127104819D01*
X163081696Y-127104819D02*
X163176934Y-127057200D01*
X163176934Y-127057200D02*
X163224553Y-127009580D01*
X121166666Y-139859580D02*
X121214285Y-139907200D01*
X121214285Y-139907200D02*
X121357142Y-139954819D01*
X121357142Y-139954819D02*
X121452380Y-139954819D01*
X121452380Y-139954819D02*
X121595237Y-139907200D01*
X121595237Y-139907200D02*
X121690475Y-139811961D01*
X121690475Y-139811961D02*
X121738094Y-139716723D01*
X121738094Y-139716723D02*
X121785713Y-139526247D01*
X121785713Y-139526247D02*
X121785713Y-139383390D01*
X121785713Y-139383390D02*
X121738094Y-139192914D01*
X121738094Y-139192914D02*
X121690475Y-139097676D01*
X121690475Y-139097676D02*
X121595237Y-139002438D01*
X121595237Y-139002438D02*
X121452380Y-138954819D01*
X121452380Y-138954819D02*
X121357142Y-138954819D01*
X121357142Y-138954819D02*
X121214285Y-139002438D01*
X121214285Y-139002438D02*
X121166666Y-139050057D01*
X120214285Y-139954819D02*
X120785713Y-139954819D01*
X120499999Y-139954819D02*
X120499999Y-138954819D01*
X120499999Y-138954819D02*
X120595237Y-139097676D01*
X120595237Y-139097676D02*
X120690475Y-139192914D01*
X120690475Y-139192914D02*
X120785713Y-139240533D01*
X131243659Y-77357142D02*
X130767468Y-77023809D01*
X131243659Y-76785714D02*
X130243659Y-76785714D01*
X130243659Y-76785714D02*
X130243659Y-77166666D01*
X130243659Y-77166666D02*
X130291278Y-77261904D01*
X130291278Y-77261904D02*
X130338897Y-77309523D01*
X130338897Y-77309523D02*
X130434135Y-77357142D01*
X130434135Y-77357142D02*
X130576992Y-77357142D01*
X130576992Y-77357142D02*
X130672230Y-77309523D01*
X130672230Y-77309523D02*
X130719849Y-77261904D01*
X130719849Y-77261904D02*
X130767468Y-77166666D01*
X130767468Y-77166666D02*
X130767468Y-76785714D01*
X130243659Y-78261904D02*
X130243659Y-77785714D01*
X130243659Y-77785714D02*
X130719849Y-77738095D01*
X130719849Y-77738095D02*
X130672230Y-77785714D01*
X130672230Y-77785714D02*
X130624611Y-77880952D01*
X130624611Y-77880952D02*
X130624611Y-78119047D01*
X130624611Y-78119047D02*
X130672230Y-78214285D01*
X130672230Y-78214285D02*
X130719849Y-78261904D01*
X130719849Y-78261904D02*
X130815087Y-78309523D01*
X130815087Y-78309523D02*
X131053182Y-78309523D01*
X131053182Y-78309523D02*
X131148420Y-78261904D01*
X131148420Y-78261904D02*
X131196040Y-78214285D01*
X131196040Y-78214285D02*
X131243659Y-78119047D01*
X131243659Y-78119047D02*
X131243659Y-77880952D01*
X131243659Y-77880952D02*
X131196040Y-77785714D01*
X131196040Y-77785714D02*
X131148420Y-77738095D01*
X130243659Y-79214285D02*
X130243659Y-78738095D01*
X130243659Y-78738095D02*
X130719849Y-78690476D01*
X130719849Y-78690476D02*
X130672230Y-78738095D01*
X130672230Y-78738095D02*
X130624611Y-78833333D01*
X130624611Y-78833333D02*
X130624611Y-79071428D01*
X130624611Y-79071428D02*
X130672230Y-79166666D01*
X130672230Y-79166666D02*
X130719849Y-79214285D01*
X130719849Y-79214285D02*
X130815087Y-79261904D01*
X130815087Y-79261904D02*
X131053182Y-79261904D01*
X131053182Y-79261904D02*
X131148420Y-79214285D01*
X131148420Y-79214285D02*
X131196040Y-79166666D01*
X131196040Y-79166666D02*
X131243659Y-79071428D01*
X131243659Y-79071428D02*
X131243659Y-78833333D01*
X131243659Y-78833333D02*
X131196040Y-78738095D01*
X131196040Y-78738095D02*
X131148420Y-78690476D01*
X160978420Y-91833333D02*
X161026040Y-91785714D01*
X161026040Y-91785714D02*
X161073659Y-91642857D01*
X161073659Y-91642857D02*
X161073659Y-91547619D01*
X161073659Y-91547619D02*
X161026040Y-91404762D01*
X161026040Y-91404762D02*
X160930801Y-91309524D01*
X160930801Y-91309524D02*
X160835563Y-91261905D01*
X160835563Y-91261905D02*
X160645087Y-91214286D01*
X160645087Y-91214286D02*
X160502230Y-91214286D01*
X160502230Y-91214286D02*
X160311754Y-91261905D01*
X160311754Y-91261905D02*
X160216516Y-91309524D01*
X160216516Y-91309524D02*
X160121278Y-91404762D01*
X160121278Y-91404762D02*
X160073659Y-91547619D01*
X160073659Y-91547619D02*
X160073659Y-91642857D01*
X160073659Y-91642857D02*
X160121278Y-91785714D01*
X160121278Y-91785714D02*
X160168897Y-91833333D01*
X160073659Y-92738095D02*
X160073659Y-92261905D01*
X160073659Y-92261905D02*
X160549849Y-92214286D01*
X160549849Y-92214286D02*
X160502230Y-92261905D01*
X160502230Y-92261905D02*
X160454611Y-92357143D01*
X160454611Y-92357143D02*
X160454611Y-92595238D01*
X160454611Y-92595238D02*
X160502230Y-92690476D01*
X160502230Y-92690476D02*
X160549849Y-92738095D01*
X160549849Y-92738095D02*
X160645087Y-92785714D01*
X160645087Y-92785714D02*
X160883182Y-92785714D01*
X160883182Y-92785714D02*
X160978420Y-92738095D01*
X160978420Y-92738095D02*
X161026040Y-92690476D01*
X161026040Y-92690476D02*
X161073659Y-92595238D01*
X161073659Y-92595238D02*
X161073659Y-92357143D01*
X161073659Y-92357143D02*
X161026040Y-92261905D01*
X161026040Y-92261905D02*
X160978420Y-92214286D01*
X152605506Y-113679580D02*
X152653125Y-113727200D01*
X152653125Y-113727200D02*
X152795982Y-113774819D01*
X152795982Y-113774819D02*
X152891220Y-113774819D01*
X152891220Y-113774819D02*
X153034077Y-113727200D01*
X153034077Y-113727200D02*
X153129315Y-113631961D01*
X153129315Y-113631961D02*
X153176934Y-113536723D01*
X153176934Y-113536723D02*
X153224553Y-113346247D01*
X153224553Y-113346247D02*
X153224553Y-113203390D01*
X153224553Y-113203390D02*
X153176934Y-113012914D01*
X153176934Y-113012914D02*
X153129315Y-112917676D01*
X153129315Y-112917676D02*
X153034077Y-112822438D01*
X153034077Y-112822438D02*
X152891220Y-112774819D01*
X152891220Y-112774819D02*
X152795982Y-112774819D01*
X152795982Y-112774819D02*
X152653125Y-112822438D01*
X152653125Y-112822438D02*
X152605506Y-112870057D01*
X151748363Y-112774819D02*
X151938839Y-112774819D01*
X151938839Y-112774819D02*
X152034077Y-112822438D01*
X152034077Y-112822438D02*
X152081696Y-112870057D01*
X152081696Y-112870057D02*
X152176934Y-113012914D01*
X152176934Y-113012914D02*
X152224553Y-113203390D01*
X152224553Y-113203390D02*
X152224553Y-113584342D01*
X152224553Y-113584342D02*
X152176934Y-113679580D01*
X152176934Y-113679580D02*
X152129315Y-113727200D01*
X152129315Y-113727200D02*
X152034077Y-113774819D01*
X152034077Y-113774819D02*
X151843601Y-113774819D01*
X151843601Y-113774819D02*
X151748363Y-113727200D01*
X151748363Y-113727200D02*
X151700744Y-113679580D01*
X151700744Y-113679580D02*
X151653125Y-113584342D01*
X151653125Y-113584342D02*
X151653125Y-113346247D01*
X151653125Y-113346247D02*
X151700744Y-113251009D01*
X151700744Y-113251009D02*
X151748363Y-113203390D01*
X151748363Y-113203390D02*
X151843601Y-113155771D01*
X151843601Y-113155771D02*
X152034077Y-113155771D01*
X152034077Y-113155771D02*
X152129315Y-113203390D01*
X152129315Y-113203390D02*
X152176934Y-113251009D01*
X152176934Y-113251009D02*
X152224553Y-113346247D01*
X118393659Y-76833333D02*
X117917468Y-76500000D01*
X118393659Y-76261905D02*
X117393659Y-76261905D01*
X117393659Y-76261905D02*
X117393659Y-76642857D01*
X117393659Y-76642857D02*
X117441278Y-76738095D01*
X117441278Y-76738095D02*
X117488897Y-76785714D01*
X117488897Y-76785714D02*
X117584135Y-76833333D01*
X117584135Y-76833333D02*
X117726992Y-76833333D01*
X117726992Y-76833333D02*
X117822230Y-76785714D01*
X117822230Y-76785714D02*
X117869849Y-76738095D01*
X117869849Y-76738095D02*
X117917468Y-76642857D01*
X117917468Y-76642857D02*
X117917468Y-76261905D01*
X118393659Y-77309524D02*
X118393659Y-77500000D01*
X118393659Y-77500000D02*
X118346040Y-77595238D01*
X118346040Y-77595238D02*
X118298420Y-77642857D01*
X118298420Y-77642857D02*
X118155563Y-77738095D01*
X118155563Y-77738095D02*
X117965087Y-77785714D01*
X117965087Y-77785714D02*
X117584135Y-77785714D01*
X117584135Y-77785714D02*
X117488897Y-77738095D01*
X117488897Y-77738095D02*
X117441278Y-77690476D01*
X117441278Y-77690476D02*
X117393659Y-77595238D01*
X117393659Y-77595238D02*
X117393659Y-77404762D01*
X117393659Y-77404762D02*
X117441278Y-77309524D01*
X117441278Y-77309524D02*
X117488897Y-77261905D01*
X117488897Y-77261905D02*
X117584135Y-77214286D01*
X117584135Y-77214286D02*
X117822230Y-77214286D01*
X117822230Y-77214286D02*
X117917468Y-77261905D01*
X117917468Y-77261905D02*
X117965087Y-77309524D01*
X117965087Y-77309524D02*
X118012706Y-77404762D01*
X118012706Y-77404762D02*
X118012706Y-77595238D01*
X118012706Y-77595238D02*
X117965087Y-77690476D01*
X117965087Y-77690476D02*
X117917468Y-77738095D01*
X117917468Y-77738095D02*
X117822230Y-77785714D01*
X142048585Y-62090718D02*
X141476165Y-62663138D01*
X141476165Y-62663138D02*
X141375150Y-62696810D01*
X141375150Y-62696810D02*
X141307806Y-62696810D01*
X141307806Y-62696810D02*
X141206791Y-62663138D01*
X141206791Y-62663138D02*
X141072104Y-62528451D01*
X141072104Y-62528451D02*
X141038432Y-62427436D01*
X141038432Y-62427436D02*
X141038432Y-62360092D01*
X141038432Y-62360092D02*
X141072104Y-62259077D01*
X141072104Y-62259077D02*
X141644524Y-61686657D01*
X140769058Y-61282596D02*
X140297654Y-61754001D01*
X141206791Y-61181581D02*
X140870073Y-61855016D01*
X140870073Y-61855016D02*
X140432341Y-61417283D01*
X120893659Y-77857142D02*
X120417468Y-77523809D01*
X120893659Y-77285714D02*
X119893659Y-77285714D01*
X119893659Y-77285714D02*
X119893659Y-77666666D01*
X119893659Y-77666666D02*
X119941278Y-77761904D01*
X119941278Y-77761904D02*
X119988897Y-77809523D01*
X119988897Y-77809523D02*
X120084135Y-77857142D01*
X120084135Y-77857142D02*
X120226992Y-77857142D01*
X120226992Y-77857142D02*
X120322230Y-77809523D01*
X120322230Y-77809523D02*
X120369849Y-77761904D01*
X120369849Y-77761904D02*
X120417468Y-77666666D01*
X120417468Y-77666666D02*
X120417468Y-77285714D01*
X119893659Y-78761904D02*
X119893659Y-78285714D01*
X119893659Y-78285714D02*
X120369849Y-78238095D01*
X120369849Y-78238095D02*
X120322230Y-78285714D01*
X120322230Y-78285714D02*
X120274611Y-78380952D01*
X120274611Y-78380952D02*
X120274611Y-78619047D01*
X120274611Y-78619047D02*
X120322230Y-78714285D01*
X120322230Y-78714285D02*
X120369849Y-78761904D01*
X120369849Y-78761904D02*
X120465087Y-78809523D01*
X120465087Y-78809523D02*
X120703182Y-78809523D01*
X120703182Y-78809523D02*
X120798420Y-78761904D01*
X120798420Y-78761904D02*
X120846040Y-78714285D01*
X120846040Y-78714285D02*
X120893659Y-78619047D01*
X120893659Y-78619047D02*
X120893659Y-78380952D01*
X120893659Y-78380952D02*
X120846040Y-78285714D01*
X120846040Y-78285714D02*
X120798420Y-78238095D01*
X119893659Y-79142857D02*
X119893659Y-79761904D01*
X119893659Y-79761904D02*
X120274611Y-79428571D01*
X120274611Y-79428571D02*
X120274611Y-79571428D01*
X120274611Y-79571428D02*
X120322230Y-79666666D01*
X120322230Y-79666666D02*
X120369849Y-79714285D01*
X120369849Y-79714285D02*
X120465087Y-79761904D01*
X120465087Y-79761904D02*
X120703182Y-79761904D01*
X120703182Y-79761904D02*
X120798420Y-79714285D01*
X120798420Y-79714285D02*
X120846040Y-79666666D01*
X120846040Y-79666666D02*
X120893659Y-79571428D01*
X120893659Y-79571428D02*
X120893659Y-79285714D01*
X120893659Y-79285714D02*
X120846040Y-79190476D01*
X120846040Y-79190476D02*
X120798420Y-79142857D01*
X161272173Y-102454819D02*
X161272173Y-103169104D01*
X161272173Y-103169104D02*
X161319792Y-103311961D01*
X161319792Y-103311961D02*
X161415030Y-103407200D01*
X161415030Y-103407200D02*
X161557887Y-103454819D01*
X161557887Y-103454819D02*
X161653125Y-103454819D01*
X160319792Y-102454819D02*
X160795982Y-102454819D01*
X160795982Y-102454819D02*
X160843601Y-102931009D01*
X160843601Y-102931009D02*
X160795982Y-102883390D01*
X160795982Y-102883390D02*
X160700744Y-102835771D01*
X160700744Y-102835771D02*
X160462649Y-102835771D01*
X160462649Y-102835771D02*
X160367411Y-102883390D01*
X160367411Y-102883390D02*
X160319792Y-102931009D01*
X160319792Y-102931009D02*
X160272173Y-103026247D01*
X160272173Y-103026247D02*
X160272173Y-103264342D01*
X160272173Y-103264342D02*
X160319792Y-103359580D01*
X160319792Y-103359580D02*
X160367411Y-103407200D01*
X160367411Y-103407200D02*
X160462649Y-103454819D01*
X160462649Y-103454819D02*
X160700744Y-103454819D01*
X160700744Y-103454819D02*
X160795982Y-103407200D01*
X160795982Y-103407200D02*
X160843601Y-103359580D01*
X133666666Y-88454819D02*
X134142856Y-88454819D01*
X134142856Y-88454819D02*
X134142856Y-87454819D01*
X132809523Y-88454819D02*
X133380951Y-88454819D01*
X133095237Y-88454819D02*
X133095237Y-87454819D01*
X133095237Y-87454819D02*
X133190475Y-87597676D01*
X133190475Y-87597676D02*
X133285713Y-87692914D01*
X133285713Y-87692914D02*
X133380951Y-87740533D01*
X128081697Y-125539580D02*
X128129316Y-125587200D01*
X128129316Y-125587200D02*
X128272173Y-125634819D01*
X128272173Y-125634819D02*
X128367411Y-125634819D01*
X128367411Y-125634819D02*
X128510268Y-125587200D01*
X128510268Y-125587200D02*
X128605506Y-125491961D01*
X128605506Y-125491961D02*
X128653125Y-125396723D01*
X128653125Y-125396723D02*
X128700744Y-125206247D01*
X128700744Y-125206247D02*
X128700744Y-125063390D01*
X128700744Y-125063390D02*
X128653125Y-124872914D01*
X128653125Y-124872914D02*
X128605506Y-124777676D01*
X128605506Y-124777676D02*
X128510268Y-124682438D01*
X128510268Y-124682438D02*
X128367411Y-124634819D01*
X128367411Y-124634819D02*
X128272173Y-124634819D01*
X128272173Y-124634819D02*
X128129316Y-124682438D01*
X128129316Y-124682438D02*
X128081697Y-124730057D01*
X127129316Y-125634819D02*
X127700744Y-125634819D01*
X127415030Y-125634819D02*
X127415030Y-124634819D01*
X127415030Y-124634819D02*
X127510268Y-124777676D01*
X127510268Y-124777676D02*
X127605506Y-124872914D01*
X127605506Y-124872914D02*
X127700744Y-124920533D01*
X126272173Y-124634819D02*
X126462649Y-124634819D01*
X126462649Y-124634819D02*
X126557887Y-124682438D01*
X126557887Y-124682438D02*
X126605506Y-124730057D01*
X126605506Y-124730057D02*
X126700744Y-124872914D01*
X126700744Y-124872914D02*
X126748363Y-125063390D01*
X126748363Y-125063390D02*
X126748363Y-125444342D01*
X126748363Y-125444342D02*
X126700744Y-125539580D01*
X126700744Y-125539580D02*
X126653125Y-125587200D01*
X126653125Y-125587200D02*
X126557887Y-125634819D01*
X126557887Y-125634819D02*
X126367411Y-125634819D01*
X126367411Y-125634819D02*
X126272173Y-125587200D01*
X126272173Y-125587200D02*
X126224554Y-125539580D01*
X126224554Y-125539580D02*
X126176935Y-125444342D01*
X126176935Y-125444342D02*
X126176935Y-125206247D01*
X126176935Y-125206247D02*
X126224554Y-125111009D01*
X126224554Y-125111009D02*
X126272173Y-125063390D01*
X126272173Y-125063390D02*
X126367411Y-125015771D01*
X126367411Y-125015771D02*
X126557887Y-125015771D01*
X126557887Y-125015771D02*
X126653125Y-125063390D01*
X126653125Y-125063390D02*
X126700744Y-125111009D01*
X126700744Y-125111009D02*
X126748363Y-125206247D01*
X159200744Y-128124819D02*
X159200744Y-128934342D01*
X159200744Y-128934342D02*
X159153125Y-129029580D01*
X159153125Y-129029580D02*
X159105506Y-129077200D01*
X159105506Y-129077200D02*
X159010268Y-129124819D01*
X159010268Y-129124819D02*
X158819792Y-129124819D01*
X158819792Y-129124819D02*
X158724554Y-129077200D01*
X158724554Y-129077200D02*
X158676935Y-129029580D01*
X158676935Y-129029580D02*
X158629316Y-128934342D01*
X158629316Y-128934342D02*
X158629316Y-128124819D01*
X158200744Y-128220057D02*
X158153125Y-128172438D01*
X158153125Y-128172438D02*
X158057887Y-128124819D01*
X158057887Y-128124819D02*
X157819792Y-128124819D01*
X157819792Y-128124819D02*
X157724554Y-128172438D01*
X157724554Y-128172438D02*
X157676935Y-128220057D01*
X157676935Y-128220057D02*
X157629316Y-128315295D01*
X157629316Y-128315295D02*
X157629316Y-128410533D01*
X157629316Y-128410533D02*
X157676935Y-128553390D01*
X157676935Y-128553390D02*
X158248363Y-129124819D01*
X158248363Y-129124819D02*
X157629316Y-129124819D01*
X146581697Y-93859580D02*
X146629316Y-93907200D01*
X146629316Y-93907200D02*
X146772173Y-93954819D01*
X146772173Y-93954819D02*
X146867411Y-93954819D01*
X146867411Y-93954819D02*
X147010268Y-93907200D01*
X147010268Y-93907200D02*
X147105506Y-93811961D01*
X147105506Y-93811961D02*
X147153125Y-93716723D01*
X147153125Y-93716723D02*
X147200744Y-93526247D01*
X147200744Y-93526247D02*
X147200744Y-93383390D01*
X147200744Y-93383390D02*
X147153125Y-93192914D01*
X147153125Y-93192914D02*
X147105506Y-93097676D01*
X147105506Y-93097676D02*
X147010268Y-93002438D01*
X147010268Y-93002438D02*
X146867411Y-92954819D01*
X146867411Y-92954819D02*
X146772173Y-92954819D01*
X146772173Y-92954819D02*
X146629316Y-93002438D01*
X146629316Y-93002438D02*
X146581697Y-93050057D01*
X146248363Y-92954819D02*
X145629316Y-92954819D01*
X145629316Y-92954819D02*
X145962649Y-93335771D01*
X145962649Y-93335771D02*
X145819792Y-93335771D01*
X145819792Y-93335771D02*
X145724554Y-93383390D01*
X145724554Y-93383390D02*
X145676935Y-93431009D01*
X145676935Y-93431009D02*
X145629316Y-93526247D01*
X145629316Y-93526247D02*
X145629316Y-93764342D01*
X145629316Y-93764342D02*
X145676935Y-93859580D01*
X145676935Y-93859580D02*
X145724554Y-93907200D01*
X145724554Y-93907200D02*
X145819792Y-93954819D01*
X145819792Y-93954819D02*
X146105506Y-93954819D01*
X146105506Y-93954819D02*
X146200744Y-93907200D01*
X146200744Y-93907200D02*
X146248363Y-93859580D01*
X144772173Y-92954819D02*
X144962649Y-92954819D01*
X144962649Y-92954819D02*
X145057887Y-93002438D01*
X145057887Y-93002438D02*
X145105506Y-93050057D01*
X145105506Y-93050057D02*
X145200744Y-93192914D01*
X145200744Y-93192914D02*
X145248363Y-93383390D01*
X145248363Y-93383390D02*
X145248363Y-93764342D01*
X145248363Y-93764342D02*
X145200744Y-93859580D01*
X145200744Y-93859580D02*
X145153125Y-93907200D01*
X145153125Y-93907200D02*
X145057887Y-93954819D01*
X145057887Y-93954819D02*
X144867411Y-93954819D01*
X144867411Y-93954819D02*
X144772173Y-93907200D01*
X144772173Y-93907200D02*
X144724554Y-93859580D01*
X144724554Y-93859580D02*
X144676935Y-93764342D01*
X144676935Y-93764342D02*
X144676935Y-93526247D01*
X144676935Y-93526247D02*
X144724554Y-93431009D01*
X144724554Y-93431009D02*
X144772173Y-93383390D01*
X144772173Y-93383390D02*
X144867411Y-93335771D01*
X144867411Y-93335771D02*
X145057887Y-93335771D01*
X145057887Y-93335771D02*
X145153125Y-93383390D01*
X145153125Y-93383390D02*
X145200744Y-93431009D01*
X145200744Y-93431009D02*
X145248363Y-93526247D01*
X121166666Y-142454819D02*
X121499999Y-141978628D01*
X121738094Y-142454819D02*
X121738094Y-141454819D01*
X121738094Y-141454819D02*
X121357142Y-141454819D01*
X121357142Y-141454819D02*
X121261904Y-141502438D01*
X121261904Y-141502438D02*
X121214285Y-141550057D01*
X121214285Y-141550057D02*
X121166666Y-141645295D01*
X121166666Y-141645295D02*
X121166666Y-141788152D01*
X121166666Y-141788152D02*
X121214285Y-141883390D01*
X121214285Y-141883390D02*
X121261904Y-141931009D01*
X121261904Y-141931009D02*
X121357142Y-141978628D01*
X121357142Y-141978628D02*
X121738094Y-141978628D01*
X120214285Y-142454819D02*
X120785713Y-142454819D01*
X120499999Y-142454819D02*
X120499999Y-141454819D01*
X120499999Y-141454819D02*
X120595237Y-141597676D01*
X120595237Y-141597676D02*
X120690475Y-141692914D01*
X120690475Y-141692914D02*
X120785713Y-141740533D01*
X154793659Y-119738095D02*
X155603182Y-119738095D01*
X155603182Y-119738095D02*
X155698420Y-119785714D01*
X155698420Y-119785714D02*
X155746040Y-119833333D01*
X155746040Y-119833333D02*
X155793659Y-119928571D01*
X155793659Y-119928571D02*
X155793659Y-120119047D01*
X155793659Y-120119047D02*
X155746040Y-120214285D01*
X155746040Y-120214285D02*
X155698420Y-120261904D01*
X155698420Y-120261904D02*
X155603182Y-120309523D01*
X155603182Y-120309523D02*
X154793659Y-120309523D01*
X154793659Y-120690476D02*
X154793659Y-121309523D01*
X154793659Y-121309523D02*
X155174611Y-120976190D01*
X155174611Y-120976190D02*
X155174611Y-121119047D01*
X155174611Y-121119047D02*
X155222230Y-121214285D01*
X155222230Y-121214285D02*
X155269849Y-121261904D01*
X155269849Y-121261904D02*
X155365087Y-121309523D01*
X155365087Y-121309523D02*
X155603182Y-121309523D01*
X155603182Y-121309523D02*
X155698420Y-121261904D01*
X155698420Y-121261904D02*
X155746040Y-121214285D01*
X155746040Y-121214285D02*
X155793659Y-121119047D01*
X155793659Y-121119047D02*
X155793659Y-120833333D01*
X155793659Y-120833333D02*
X155746040Y-120738095D01*
X155746040Y-120738095D02*
X155698420Y-120690476D01*
X128081697Y-119359580D02*
X128129316Y-119407200D01*
X128129316Y-119407200D02*
X128272173Y-119454819D01*
X128272173Y-119454819D02*
X128367411Y-119454819D01*
X128367411Y-119454819D02*
X128510268Y-119407200D01*
X128510268Y-119407200D02*
X128605506Y-119311961D01*
X128605506Y-119311961D02*
X128653125Y-119216723D01*
X128653125Y-119216723D02*
X128700744Y-119026247D01*
X128700744Y-119026247D02*
X128700744Y-118883390D01*
X128700744Y-118883390D02*
X128653125Y-118692914D01*
X128653125Y-118692914D02*
X128605506Y-118597676D01*
X128605506Y-118597676D02*
X128510268Y-118502438D01*
X128510268Y-118502438D02*
X128367411Y-118454819D01*
X128367411Y-118454819D02*
X128272173Y-118454819D01*
X128272173Y-118454819D02*
X128129316Y-118502438D01*
X128129316Y-118502438D02*
X128081697Y-118550057D01*
X127129316Y-119454819D02*
X127700744Y-119454819D01*
X127415030Y-119454819D02*
X127415030Y-118454819D01*
X127415030Y-118454819D02*
X127510268Y-118597676D01*
X127510268Y-118597676D02*
X127605506Y-118692914D01*
X127605506Y-118692914D02*
X127700744Y-118740533D01*
X126272173Y-118788152D02*
X126272173Y-119454819D01*
X126510268Y-118407200D02*
X126748363Y-119121485D01*
X126748363Y-119121485D02*
X126129316Y-119121485D01*
X155893659Y-99333333D02*
X155417468Y-99000000D01*
X155893659Y-98761905D02*
X154893659Y-98761905D01*
X154893659Y-98761905D02*
X154893659Y-99142857D01*
X154893659Y-99142857D02*
X154941278Y-99238095D01*
X154941278Y-99238095D02*
X154988897Y-99285714D01*
X154988897Y-99285714D02*
X155084135Y-99333333D01*
X155084135Y-99333333D02*
X155226992Y-99333333D01*
X155226992Y-99333333D02*
X155322230Y-99285714D01*
X155322230Y-99285714D02*
X155369849Y-99238095D01*
X155369849Y-99238095D02*
X155417468Y-99142857D01*
X155417468Y-99142857D02*
X155417468Y-98761905D01*
X154893659Y-99666667D02*
X154893659Y-100333333D01*
X154893659Y-100333333D02*
X155893659Y-99904762D01*
X167605506Y-138039580D02*
X167653125Y-138087200D01*
X167653125Y-138087200D02*
X167795982Y-138134819D01*
X167795982Y-138134819D02*
X167891220Y-138134819D01*
X167891220Y-138134819D02*
X168034077Y-138087200D01*
X168034077Y-138087200D02*
X168129315Y-137991961D01*
X168129315Y-137991961D02*
X168176934Y-137896723D01*
X168176934Y-137896723D02*
X168224553Y-137706247D01*
X168224553Y-137706247D02*
X168224553Y-137563390D01*
X168224553Y-137563390D02*
X168176934Y-137372914D01*
X168176934Y-137372914D02*
X168129315Y-137277676D01*
X168129315Y-137277676D02*
X168034077Y-137182438D01*
X168034077Y-137182438D02*
X167891220Y-137134819D01*
X167891220Y-137134819D02*
X167795982Y-137134819D01*
X167795982Y-137134819D02*
X167653125Y-137182438D01*
X167653125Y-137182438D02*
X167605506Y-137230057D01*
X167272172Y-137134819D02*
X166653125Y-137134819D01*
X166653125Y-137134819D02*
X166986458Y-137515771D01*
X166986458Y-137515771D02*
X166843601Y-137515771D01*
X166843601Y-137515771D02*
X166748363Y-137563390D01*
X166748363Y-137563390D02*
X166700744Y-137611009D01*
X166700744Y-137611009D02*
X166653125Y-137706247D01*
X166653125Y-137706247D02*
X166653125Y-137944342D01*
X166653125Y-137944342D02*
X166700744Y-138039580D01*
X166700744Y-138039580D02*
X166748363Y-138087200D01*
X166748363Y-138087200D02*
X166843601Y-138134819D01*
X166843601Y-138134819D02*
X167129315Y-138134819D01*
X167129315Y-138134819D02*
X167224553Y-138087200D01*
X167224553Y-138087200D02*
X167272172Y-138039580D01*
X162373173Y-138754819D02*
X162373173Y-139469104D01*
X162373173Y-139469104D02*
X162420792Y-139611961D01*
X162420792Y-139611961D02*
X162516030Y-139707200D01*
X162516030Y-139707200D02*
X162658887Y-139754819D01*
X162658887Y-139754819D02*
X162754125Y-139754819D01*
X161373173Y-139754819D02*
X161944601Y-139754819D01*
X161658887Y-139754819D02*
X161658887Y-138754819D01*
X161658887Y-138754819D02*
X161754125Y-138897676D01*
X161754125Y-138897676D02*
X161849363Y-138992914D01*
X161849363Y-138992914D02*
X161944601Y-139040533D01*
X157738897Y-98904761D02*
X157691278Y-98809523D01*
X157691278Y-98809523D02*
X157596040Y-98714285D01*
X157596040Y-98714285D02*
X157453182Y-98571428D01*
X157453182Y-98571428D02*
X157405563Y-98476190D01*
X157405563Y-98476190D02*
X157405563Y-98380952D01*
X157643659Y-98428571D02*
X157596040Y-98333333D01*
X157596040Y-98333333D02*
X157500801Y-98238095D01*
X157500801Y-98238095D02*
X157310325Y-98190476D01*
X157310325Y-98190476D02*
X156976992Y-98190476D01*
X156976992Y-98190476D02*
X156786516Y-98238095D01*
X156786516Y-98238095D02*
X156691278Y-98333333D01*
X156691278Y-98333333D02*
X156643659Y-98428571D01*
X156643659Y-98428571D02*
X156643659Y-98619047D01*
X156643659Y-98619047D02*
X156691278Y-98714285D01*
X156691278Y-98714285D02*
X156786516Y-98809523D01*
X156786516Y-98809523D02*
X156976992Y-98857142D01*
X156976992Y-98857142D02*
X157310325Y-98857142D01*
X157310325Y-98857142D02*
X157500801Y-98809523D01*
X157500801Y-98809523D02*
X157596040Y-98714285D01*
X157596040Y-98714285D02*
X157643659Y-98619047D01*
X157643659Y-98619047D02*
X157643659Y-98428571D01*
X156643659Y-99190476D02*
X156643659Y-99809523D01*
X156643659Y-99809523D02*
X157024611Y-99476190D01*
X157024611Y-99476190D02*
X157024611Y-99619047D01*
X157024611Y-99619047D02*
X157072230Y-99714285D01*
X157072230Y-99714285D02*
X157119849Y-99761904D01*
X157119849Y-99761904D02*
X157215087Y-99809523D01*
X157215087Y-99809523D02*
X157453182Y-99809523D01*
X157453182Y-99809523D02*
X157548420Y-99761904D01*
X157548420Y-99761904D02*
X157596040Y-99714285D01*
X157596040Y-99714285D02*
X157643659Y-99619047D01*
X157643659Y-99619047D02*
X157643659Y-99333333D01*
X157643659Y-99333333D02*
X157596040Y-99238095D01*
X157596040Y-99238095D02*
X157548420Y-99190476D01*
X148772173Y-131954819D02*
X148772173Y-132669104D01*
X148772173Y-132669104D02*
X148819792Y-132811961D01*
X148819792Y-132811961D02*
X148915030Y-132907200D01*
X148915030Y-132907200D02*
X149057887Y-132954819D01*
X149057887Y-132954819D02*
X149153125Y-132954819D01*
X148391220Y-131954819D02*
X147772173Y-131954819D01*
X147772173Y-131954819D02*
X148105506Y-132335771D01*
X148105506Y-132335771D02*
X147962649Y-132335771D01*
X147962649Y-132335771D02*
X147867411Y-132383390D01*
X147867411Y-132383390D02*
X147819792Y-132431009D01*
X147819792Y-132431009D02*
X147772173Y-132526247D01*
X147772173Y-132526247D02*
X147772173Y-132764342D01*
X147772173Y-132764342D02*
X147819792Y-132859580D01*
X147819792Y-132859580D02*
X147867411Y-132907200D01*
X147867411Y-132907200D02*
X147962649Y-132954819D01*
X147962649Y-132954819D02*
X148248363Y-132954819D01*
X148248363Y-132954819D02*
X148343601Y-132907200D01*
X148343601Y-132907200D02*
X148391220Y-132859580D01*
X155298420Y-127333333D02*
X155346040Y-127285714D01*
X155346040Y-127285714D02*
X155393659Y-127142857D01*
X155393659Y-127142857D02*
X155393659Y-127047619D01*
X155393659Y-127047619D02*
X155346040Y-126904762D01*
X155346040Y-126904762D02*
X155250801Y-126809524D01*
X155250801Y-126809524D02*
X155155563Y-126761905D01*
X155155563Y-126761905D02*
X154965087Y-126714286D01*
X154965087Y-126714286D02*
X154822230Y-126714286D01*
X154822230Y-126714286D02*
X154631754Y-126761905D01*
X154631754Y-126761905D02*
X154536516Y-126809524D01*
X154536516Y-126809524D02*
X154441278Y-126904762D01*
X154441278Y-126904762D02*
X154393659Y-127047619D01*
X154393659Y-127047619D02*
X154393659Y-127142857D01*
X154393659Y-127142857D02*
X154441278Y-127285714D01*
X154441278Y-127285714D02*
X154488897Y-127333333D01*
X154726992Y-128190476D02*
X155393659Y-128190476D01*
X154346040Y-127952381D02*
X155060325Y-127714286D01*
X155060325Y-127714286D02*
X155060325Y-128333333D01*
X115893659Y-75833333D02*
X115417468Y-75500000D01*
X115893659Y-75261905D02*
X114893659Y-75261905D01*
X114893659Y-75261905D02*
X114893659Y-75642857D01*
X114893659Y-75642857D02*
X114941278Y-75738095D01*
X114941278Y-75738095D02*
X114988897Y-75785714D01*
X114988897Y-75785714D02*
X115084135Y-75833333D01*
X115084135Y-75833333D02*
X115226992Y-75833333D01*
X115226992Y-75833333D02*
X115322230Y-75785714D01*
X115322230Y-75785714D02*
X115369849Y-75738095D01*
X115369849Y-75738095D02*
X115417468Y-75642857D01*
X115417468Y-75642857D02*
X115417468Y-75261905D01*
X115322230Y-76404762D02*
X115274611Y-76309524D01*
X115274611Y-76309524D02*
X115226992Y-76261905D01*
X115226992Y-76261905D02*
X115131754Y-76214286D01*
X115131754Y-76214286D02*
X115084135Y-76214286D01*
X115084135Y-76214286D02*
X114988897Y-76261905D01*
X114988897Y-76261905D02*
X114941278Y-76309524D01*
X114941278Y-76309524D02*
X114893659Y-76404762D01*
X114893659Y-76404762D02*
X114893659Y-76595238D01*
X114893659Y-76595238D02*
X114941278Y-76690476D01*
X114941278Y-76690476D02*
X114988897Y-76738095D01*
X114988897Y-76738095D02*
X115084135Y-76785714D01*
X115084135Y-76785714D02*
X115131754Y-76785714D01*
X115131754Y-76785714D02*
X115226992Y-76738095D01*
X115226992Y-76738095D02*
X115274611Y-76690476D01*
X115274611Y-76690476D02*
X115322230Y-76595238D01*
X115322230Y-76595238D02*
X115322230Y-76404762D01*
X115322230Y-76404762D02*
X115369849Y-76309524D01*
X115369849Y-76309524D02*
X115417468Y-76261905D01*
X115417468Y-76261905D02*
X115512706Y-76214286D01*
X115512706Y-76214286D02*
X115703182Y-76214286D01*
X115703182Y-76214286D02*
X115798420Y-76261905D01*
X115798420Y-76261905D02*
X115846040Y-76309524D01*
X115846040Y-76309524D02*
X115893659Y-76404762D01*
X115893659Y-76404762D02*
X115893659Y-76595238D01*
X115893659Y-76595238D02*
X115846040Y-76690476D01*
X115846040Y-76690476D02*
X115798420Y-76738095D01*
X115798420Y-76738095D02*
X115703182Y-76785714D01*
X115703182Y-76785714D02*
X115512706Y-76785714D01*
X115512706Y-76785714D02*
X115417468Y-76738095D01*
X115417468Y-76738095D02*
X115369849Y-76690476D01*
X115369849Y-76690476D02*
X115322230Y-76595238D01*
X136180357Y-45369580D02*
X136227976Y-45417200D01*
X136227976Y-45417200D02*
X136370833Y-45464819D01*
X136370833Y-45464819D02*
X136466071Y-45464819D01*
X136466071Y-45464819D02*
X136608928Y-45417200D01*
X136608928Y-45417200D02*
X136704166Y-45321961D01*
X136704166Y-45321961D02*
X136751785Y-45226723D01*
X136751785Y-45226723D02*
X136799404Y-45036247D01*
X136799404Y-45036247D02*
X136799404Y-44893390D01*
X136799404Y-44893390D02*
X136751785Y-44702914D01*
X136751785Y-44702914D02*
X136704166Y-44607676D01*
X136704166Y-44607676D02*
X136608928Y-44512438D01*
X136608928Y-44512438D02*
X136466071Y-44464819D01*
X136466071Y-44464819D02*
X136370833Y-44464819D01*
X136370833Y-44464819D02*
X136227976Y-44512438D01*
X136227976Y-44512438D02*
X136180357Y-44560057D01*
X135847023Y-44464819D02*
X135227976Y-44464819D01*
X135227976Y-44464819D02*
X135561309Y-44845771D01*
X135561309Y-44845771D02*
X135418452Y-44845771D01*
X135418452Y-44845771D02*
X135323214Y-44893390D01*
X135323214Y-44893390D02*
X135275595Y-44941009D01*
X135275595Y-44941009D02*
X135227976Y-45036247D01*
X135227976Y-45036247D02*
X135227976Y-45274342D01*
X135227976Y-45274342D02*
X135275595Y-45369580D01*
X135275595Y-45369580D02*
X135323214Y-45417200D01*
X135323214Y-45417200D02*
X135418452Y-45464819D01*
X135418452Y-45464819D02*
X135704166Y-45464819D01*
X135704166Y-45464819D02*
X135799404Y-45417200D01*
X135799404Y-45417200D02*
X135847023Y-45369580D01*
X134847023Y-44560057D02*
X134799404Y-44512438D01*
X134799404Y-44512438D02*
X134704166Y-44464819D01*
X134704166Y-44464819D02*
X134466071Y-44464819D01*
X134466071Y-44464819D02*
X134370833Y-44512438D01*
X134370833Y-44512438D02*
X134323214Y-44560057D01*
X134323214Y-44560057D02*
X134275595Y-44655295D01*
X134275595Y-44655295D02*
X134275595Y-44750533D01*
X134275595Y-44750533D02*
X134323214Y-44893390D01*
X134323214Y-44893390D02*
X134894642Y-45464819D01*
X134894642Y-45464819D02*
X134275595Y-45464819D01*
X121243659Y-145833333D02*
X120767468Y-145500000D01*
X121243659Y-145261905D02*
X120243659Y-145261905D01*
X120243659Y-145261905D02*
X120243659Y-145642857D01*
X120243659Y-145642857D02*
X120291278Y-145738095D01*
X120291278Y-145738095D02*
X120338897Y-145785714D01*
X120338897Y-145785714D02*
X120434135Y-145833333D01*
X120434135Y-145833333D02*
X120576992Y-145833333D01*
X120576992Y-145833333D02*
X120672230Y-145785714D01*
X120672230Y-145785714D02*
X120719849Y-145738095D01*
X120719849Y-145738095D02*
X120767468Y-145642857D01*
X120767468Y-145642857D02*
X120767468Y-145261905D01*
X120338897Y-146214286D02*
X120291278Y-146261905D01*
X120291278Y-146261905D02*
X120243659Y-146357143D01*
X120243659Y-146357143D02*
X120243659Y-146595238D01*
X120243659Y-146595238D02*
X120291278Y-146690476D01*
X120291278Y-146690476D02*
X120338897Y-146738095D01*
X120338897Y-146738095D02*
X120434135Y-146785714D01*
X120434135Y-146785714D02*
X120529373Y-146785714D01*
X120529373Y-146785714D02*
X120672230Y-146738095D01*
X120672230Y-146738095D02*
X121243659Y-146166667D01*
X121243659Y-146166667D02*
X121243659Y-146785714D01*
X163605506Y-130104819D02*
X163938839Y-129628628D01*
X164176934Y-130104819D02*
X164176934Y-129104819D01*
X164176934Y-129104819D02*
X163795982Y-129104819D01*
X163795982Y-129104819D02*
X163700744Y-129152438D01*
X163700744Y-129152438D02*
X163653125Y-129200057D01*
X163653125Y-129200057D02*
X163605506Y-129295295D01*
X163605506Y-129295295D02*
X163605506Y-129438152D01*
X163605506Y-129438152D02*
X163653125Y-129533390D01*
X163653125Y-129533390D02*
X163700744Y-129581009D01*
X163700744Y-129581009D02*
X163795982Y-129628628D01*
X163795982Y-129628628D02*
X164176934Y-129628628D01*
X162748363Y-129104819D02*
X162938839Y-129104819D01*
X162938839Y-129104819D02*
X163034077Y-129152438D01*
X163034077Y-129152438D02*
X163081696Y-129200057D01*
X163081696Y-129200057D02*
X163176934Y-129342914D01*
X163176934Y-129342914D02*
X163224553Y-129533390D01*
X163224553Y-129533390D02*
X163224553Y-129914342D01*
X163224553Y-129914342D02*
X163176934Y-130009580D01*
X163176934Y-130009580D02*
X163129315Y-130057200D01*
X163129315Y-130057200D02*
X163034077Y-130104819D01*
X163034077Y-130104819D02*
X162843601Y-130104819D01*
X162843601Y-130104819D02*
X162748363Y-130057200D01*
X162748363Y-130057200D02*
X162700744Y-130009580D01*
X162700744Y-130009580D02*
X162653125Y-129914342D01*
X162653125Y-129914342D02*
X162653125Y-129676247D01*
X162653125Y-129676247D02*
X162700744Y-129581009D01*
X162700744Y-129581009D02*
X162748363Y-129533390D01*
X162748363Y-129533390D02*
X162843601Y-129485771D01*
X162843601Y-129485771D02*
X163034077Y-129485771D01*
X163034077Y-129485771D02*
X163129315Y-129533390D01*
X163129315Y-129533390D02*
X163176934Y-129581009D01*
X163176934Y-129581009D02*
X163224553Y-129676247D01*
X167248363Y-61057200D02*
X167105506Y-61104819D01*
X167105506Y-61104819D02*
X166867411Y-61104819D01*
X166867411Y-61104819D02*
X166772173Y-61057200D01*
X166772173Y-61057200D02*
X166724554Y-61009580D01*
X166724554Y-61009580D02*
X166676935Y-60914342D01*
X166676935Y-60914342D02*
X166676935Y-60819104D01*
X166676935Y-60819104D02*
X166724554Y-60723866D01*
X166724554Y-60723866D02*
X166772173Y-60676247D01*
X166772173Y-60676247D02*
X166867411Y-60628628D01*
X166867411Y-60628628D02*
X167057887Y-60581009D01*
X167057887Y-60581009D02*
X167153125Y-60533390D01*
X167153125Y-60533390D02*
X167200744Y-60485771D01*
X167200744Y-60485771D02*
X167248363Y-60390533D01*
X167248363Y-60390533D02*
X167248363Y-60295295D01*
X167248363Y-60295295D02*
X167200744Y-60200057D01*
X167200744Y-60200057D02*
X167153125Y-60152438D01*
X167153125Y-60152438D02*
X167057887Y-60104819D01*
X167057887Y-60104819D02*
X166819792Y-60104819D01*
X166819792Y-60104819D02*
X166676935Y-60152438D01*
X166343601Y-60104819D02*
X166105506Y-61104819D01*
X166105506Y-61104819D02*
X165915030Y-60390533D01*
X165915030Y-60390533D02*
X165724554Y-61104819D01*
X165724554Y-61104819D02*
X165486459Y-60104819D01*
X164581697Y-61104819D02*
X165153125Y-61104819D01*
X164867411Y-61104819D02*
X164867411Y-60104819D01*
X164867411Y-60104819D02*
X164962649Y-60247676D01*
X164962649Y-60247676D02*
X165057887Y-60342914D01*
X165057887Y-60342914D02*
X165153125Y-60390533D01*
X164200744Y-60200057D02*
X164153125Y-60152438D01*
X164153125Y-60152438D02*
X164057887Y-60104819D01*
X164057887Y-60104819D02*
X163819792Y-60104819D01*
X163819792Y-60104819D02*
X163724554Y-60152438D01*
X163724554Y-60152438D02*
X163676935Y-60200057D01*
X163676935Y-60200057D02*
X163629316Y-60295295D01*
X163629316Y-60295295D02*
X163629316Y-60390533D01*
X163629316Y-60390533D02*
X163676935Y-60533390D01*
X163676935Y-60533390D02*
X164248363Y-61104819D01*
X164248363Y-61104819D02*
X163629316Y-61104819D01*
X168093659Y-143761905D02*
X167093659Y-143761905D01*
X167093659Y-143761905D02*
X167093659Y-144000000D01*
X167093659Y-144000000D02*
X167141278Y-144142857D01*
X167141278Y-144142857D02*
X167236516Y-144238095D01*
X167236516Y-144238095D02*
X167331754Y-144285714D01*
X167331754Y-144285714D02*
X167522230Y-144333333D01*
X167522230Y-144333333D02*
X167665087Y-144333333D01*
X167665087Y-144333333D02*
X167855563Y-144285714D01*
X167855563Y-144285714D02*
X167950801Y-144238095D01*
X167950801Y-144238095D02*
X168046040Y-144142857D01*
X168046040Y-144142857D02*
X168093659Y-144000000D01*
X168093659Y-144000000D02*
X168093659Y-143761905D01*
X167188897Y-144714286D02*
X167141278Y-144761905D01*
X167141278Y-144761905D02*
X167093659Y-144857143D01*
X167093659Y-144857143D02*
X167093659Y-145095238D01*
X167093659Y-145095238D02*
X167141278Y-145190476D01*
X167141278Y-145190476D02*
X167188897Y-145238095D01*
X167188897Y-145238095D02*
X167284135Y-145285714D01*
X167284135Y-145285714D02*
X167379373Y-145285714D01*
X167379373Y-145285714D02*
X167522230Y-145238095D01*
X167522230Y-145238095D02*
X168093659Y-144666667D01*
X168093659Y-144666667D02*
X168093659Y-145285714D01*
X154176934Y-139754819D02*
X154176934Y-138754819D01*
X154176934Y-138754819D02*
X153938839Y-138754819D01*
X153938839Y-138754819D02*
X153795982Y-138802438D01*
X153795982Y-138802438D02*
X153700744Y-138897676D01*
X153700744Y-138897676D02*
X153653125Y-138992914D01*
X153653125Y-138992914D02*
X153605506Y-139183390D01*
X153605506Y-139183390D02*
X153605506Y-139326247D01*
X153605506Y-139326247D02*
X153653125Y-139516723D01*
X153653125Y-139516723D02*
X153700744Y-139611961D01*
X153700744Y-139611961D02*
X153795982Y-139707200D01*
X153795982Y-139707200D02*
X153938839Y-139754819D01*
X153938839Y-139754819D02*
X154176934Y-139754819D01*
X153272172Y-138754819D02*
X152653125Y-138754819D01*
X152653125Y-138754819D02*
X152986458Y-139135771D01*
X152986458Y-139135771D02*
X152843601Y-139135771D01*
X152843601Y-139135771D02*
X152748363Y-139183390D01*
X152748363Y-139183390D02*
X152700744Y-139231009D01*
X152700744Y-139231009D02*
X152653125Y-139326247D01*
X152653125Y-139326247D02*
X152653125Y-139564342D01*
X152653125Y-139564342D02*
X152700744Y-139659580D01*
X152700744Y-139659580D02*
X152748363Y-139707200D01*
X152748363Y-139707200D02*
X152843601Y-139754819D01*
X152843601Y-139754819D02*
X153129315Y-139754819D01*
X153129315Y-139754819D02*
X153224553Y-139707200D01*
X153224553Y-139707200D02*
X153272172Y-139659580D01*
D11*
%TO.C,J7*%
X124323840Y-99475000D02*
X120713840Y-99475000D01*
X119013840Y-99475000D02*
X114313840Y-99475000D01*
X113013840Y-99475000D02*
X111213840Y-99475000D01*
X124323840Y-99025000D02*
X124323840Y-99475000D01*
X108053840Y-98445000D02*
X108253840Y-98645000D01*
X108053840Y-98445000D02*
X108053840Y-96585000D01*
X108053840Y-96585000D02*
X108253840Y-96375000D01*
X108403840Y-96375000D02*
X108253840Y-96375000D01*
X108403840Y-96375000D02*
X108403840Y-90005000D01*
X108053840Y-89495000D02*
X108403840Y-90005000D01*
X124323840Y-87425000D02*
X124323840Y-85505000D01*
X108053840Y-87185000D02*
X108053840Y-89495000D01*
X108053840Y-87185000D02*
X108253840Y-86985000D01*
X108253840Y-86985000D02*
X108253840Y-86725000D01*
X124323840Y-85505000D02*
X110313840Y-85505000D01*
%TO.C,C8*%
X118677588Y-119735000D02*
X119200092Y-119735000D01*
X118677588Y-118265000D02*
X119200092Y-118265000D01*
%TO.C,C34*%
X145173840Y-56238748D02*
X145173840Y-56761252D01*
X143703840Y-56238748D02*
X143703840Y-56761252D01*
%TO.C,R10*%
X118711776Y-124735000D02*
X119165904Y-124735000D01*
X118711776Y-123265000D02*
X119165904Y-123265000D01*
%TO.C,R12*%
X119173840Y-131727064D02*
X119173840Y-131272936D01*
X117703840Y-131727064D02*
X117703840Y-131272936D01*
%TO.C,C35*%
X161238748Y-65735000D02*
X161761252Y-65735000D01*
X161238748Y-64265000D02*
X161761252Y-64265000D01*
%TO.C,C37*%
X149700092Y-95765000D02*
X149177588Y-95765000D01*
X149700092Y-97235000D02*
X149177588Y-97235000D01*
%TO.C,C2*%
X152203840Y-134738748D02*
X152203840Y-135261252D01*
X153673840Y-134738748D02*
X153673840Y-135261252D01*
%TO.C,C33*%
X132261252Y-47275000D02*
X131738748Y-47275000D01*
X132261252Y-48745000D02*
X131738748Y-48745000D01*
%TO.C,R4*%
X155203840Y-124727064D02*
X155203840Y-124272936D01*
X156673840Y-124727064D02*
X156673840Y-124272936D01*
%TO.C,R3*%
X124203840Y-145772936D02*
X124203840Y-146227064D01*
X125673840Y-145772936D02*
X125673840Y-146227064D01*
%TO.C,D1*%
X168338840Y-146740000D02*
X169538840Y-146740000D01*
X168338840Y-148700000D02*
X168338840Y-146740000D01*
X169538840Y-148700000D02*
X169538840Y-146740000D01*
%TO.C,C22*%
X149203840Y-128761252D02*
X149203840Y-128238748D01*
X150673840Y-128761252D02*
X150673840Y-128238748D01*
%TO.C,SW6*%
X148838840Y-56350000D02*
X148838840Y-56740000D01*
X148838840Y-59650000D02*
X148838840Y-59260000D01*
X153038840Y-56350000D02*
X148838840Y-56350000D01*
X153038840Y-56740000D02*
X153038840Y-56350000D01*
X153038840Y-59260000D02*
X153038840Y-59650000D01*
X153038840Y-59650000D02*
X148838840Y-59650000D01*
%TO.C,R54*%
X122703840Y-76272936D02*
X122703840Y-76727064D01*
X124173840Y-76272936D02*
X124173840Y-76727064D01*
%TO.C,R5*%
X163211776Y-124265000D02*
X163665904Y-124265000D01*
X163211776Y-125735000D02*
X163665904Y-125735000D01*
%TO.C,C1*%
X124261252Y-138765000D02*
X123738748Y-138765000D01*
X124261252Y-140235000D02*
X123738748Y-140235000D01*
%TO.C,R55*%
X131703840Y-77772936D02*
X131703840Y-78227064D01*
X133173840Y-77772936D02*
X133173840Y-78227064D01*
%TO.C,C5*%
X158203840Y-92261252D02*
X158203840Y-91738748D01*
X159673840Y-92261252D02*
X159673840Y-91738748D01*
%TO.C,C6*%
X152700092Y-114265000D02*
X152177588Y-114265000D01*
X152700092Y-115735000D02*
X152177588Y-115735000D01*
%TO.C,R9*%
X117703840Y-73772936D02*
X117703840Y-74227064D01*
X119173840Y-73772936D02*
X119173840Y-74227064D01*
%TO.C,U4*%
X110011637Y-58684781D02*
X114395699Y-63068843D01*
X123022402Y-45674016D02*
X110011637Y-58684781D01*
X123022402Y-45674016D02*
X127406464Y-50058078D01*
X128290347Y-76963491D02*
X127583241Y-76256384D01*
X128290347Y-76963491D02*
X129351008Y-75902831D01*
X140594005Y-63245620D02*
X141301112Y-63952726D01*
X141301112Y-63952726D02*
X140240452Y-65013387D01*
X127883761Y-50535375D02*
X127530208Y-50181822D01*
X128237314Y-50181822D01*
X127883761Y-50535375D01*
G36*
X127883761Y-50535375D02*
G01*
X127530208Y-50181822D01*
X128237314Y-50181822D01*
X127883761Y-50535375D01*
G37*
%TO.C,R53*%
X120203840Y-74772936D02*
X120203840Y-75227064D01*
X121673840Y-74772936D02*
X121673840Y-75227064D01*
%TO.C,J5*%
X157878840Y-104090000D02*
X158798840Y-104090000D01*
X157878840Y-105690000D02*
X158798840Y-105690000D01*
X157878840Y-111910000D02*
X157878840Y-104090000D01*
X158638840Y-108050000D02*
X158638840Y-109650000D01*
X158638840Y-109650000D02*
X159638840Y-109650000D01*
X158798840Y-104090000D02*
X158798840Y-105690000D01*
X158798840Y-105690000D02*
X159078840Y-105690000D01*
X159638840Y-108050000D02*
X158638840Y-108050000D01*
X159638840Y-109650000D02*
X159638840Y-108050000D01*
X160438840Y-107550000D02*
X160438840Y-111910000D01*
X161438840Y-107550000D02*
X160438840Y-107550000D01*
X161438840Y-111910000D02*
X161438840Y-107550000D01*
X162238840Y-108050000D02*
X163238840Y-108050000D01*
X162238840Y-109650000D02*
X162238840Y-108050000D01*
X162238840Y-109650000D02*
X162238840Y-111910000D01*
X162738840Y-109650000D02*
X162738840Y-111910000D01*
X162798840Y-105690000D02*
X162798840Y-104475000D01*
X162798840Y-105690000D02*
X163078840Y-105690000D01*
X163078840Y-104090000D02*
X163998840Y-104090000D01*
X163078840Y-105690000D02*
X163078840Y-104090000D01*
X163238840Y-108050000D02*
X163238840Y-109650000D01*
X163238840Y-109650000D02*
X162238840Y-109650000D01*
X163998840Y-104090000D02*
X163998840Y-111910000D01*
X163998840Y-105690000D02*
X163078840Y-105690000D01*
X163998840Y-111910000D02*
X157878840Y-111910000D01*
%TO.C,L1*%
X130390000Y-89610000D02*
X136610000Y-89610000D01*
X136610000Y-83390000D02*
X130390000Y-83390000D01*
%TO.C,C16*%
X127177588Y-122765000D02*
X127700092Y-122765000D01*
X127177588Y-124235000D02*
X127700092Y-124235000D01*
%TO.C,U2*%
X156828840Y-129890000D02*
X156828840Y-130365000D01*
X156828840Y-133110000D02*
X156828840Y-132635000D01*
X157303840Y-129890000D02*
X156828840Y-129890000D01*
X157303840Y-133110000D02*
X156828840Y-133110000D01*
X159573840Y-129890000D02*
X159748840Y-129890000D01*
X159573840Y-133110000D02*
X160048840Y-133110000D01*
X160048840Y-130365000D02*
X160048840Y-130130000D01*
X160048840Y-133110000D02*
X160048840Y-132635000D01*
X160048840Y-129890000D02*
X159808840Y-129560000D01*
X160288840Y-129560000D01*
X160048840Y-129890000D01*
G36*
X160048840Y-129890000D02*
G01*
X159808840Y-129560000D01*
X160288840Y-129560000D01*
X160048840Y-129890000D01*
G37*
%TO.C,C36*%
X149700092Y-92755000D02*
X149177588Y-92755000D01*
X149700092Y-94225000D02*
X149177588Y-94225000D01*
%TO.C,R1*%
X123772936Y-141265000D02*
X124227064Y-141265000D01*
X123772936Y-142735000D02*
X124227064Y-142735000D01*
%TO.C,U3*%
X150828840Y-121400000D02*
X150828840Y-119600000D01*
X154048840Y-120400000D02*
X154048840Y-119600000D01*
X154048840Y-120400000D02*
X154048840Y-121200000D01*
X154328840Y-121940000D02*
X153998840Y-121700000D01*
X154328840Y-121460000D01*
X154328840Y-121940000D01*
G36*
X154328840Y-121940000D02*
G01*
X153998840Y-121700000D01*
X154328840Y-121460000D01*
X154328840Y-121940000D01*
G37*
%TO.C,C14*%
X127177588Y-120265000D02*
X127700092Y-120265000D01*
X127177588Y-121735000D02*
X127700092Y-121735000D01*
%TO.C,R7*%
X152703840Y-99727064D02*
X152703840Y-99272936D01*
X154173840Y-99727064D02*
X154173840Y-99272936D01*
%TO.C,C3*%
X167177588Y-135265000D02*
X167700092Y-135265000D01*
X167177588Y-136735000D02*
X167700092Y-136735000D01*
%TO.C,J1*%
X157289840Y-140290000D02*
X157289840Y-147550000D01*
X158789840Y-140290000D02*
X157289840Y-140290000D01*
X166789840Y-140290000D02*
X165289840Y-140290000D01*
X166789840Y-140290000D02*
X166789840Y-147550000D01*
%TO.C,Q3*%
X158358840Y-98960000D02*
X158358840Y-98160000D01*
X158358840Y-98960000D02*
X158358840Y-99760000D01*
X158358840Y-99760000D02*
X159288840Y-99760000D01*
X161518840Y-99760000D02*
X160588840Y-99760000D01*
X161518840Y-99760000D02*
X161518840Y-98300000D01*
X158328840Y-97660000D02*
X157998840Y-97900000D01*
X157998840Y-97420000D01*
X158328840Y-97660000D01*
G36*
X158328840Y-97660000D02*
G01*
X157998840Y-97900000D01*
X157998840Y-97420000D01*
X158328840Y-97660000D01*
G37*
D12*
%TO.C,J3*%
X130788840Y-126500000D02*
X130788840Y-127650000D01*
X130788840Y-132500000D02*
X130788840Y-130200000D01*
X132688840Y-126500000D02*
X130788840Y-126500000D01*
X145188840Y-126500000D02*
X147088840Y-126500000D01*
X147088840Y-126500000D02*
X147088840Y-127650000D01*
X147088840Y-130200000D02*
X147088840Y-132500000D01*
X147088840Y-132500000D02*
X130788840Y-132500000D01*
X145388840Y-127100000D02*
G75*
G02*
X145188840Y-127100000I-100000J0D01*
G01*
X145188840Y-127100000D02*
G75*
G02*
X145388840Y-127100000I100000J0D01*
G01*
D11*
%TO.C,C4*%
X152703840Y-128238748D02*
X152703840Y-128761252D01*
X154173840Y-128238748D02*
X154173840Y-128761252D01*
%TO.C,R8*%
X115203840Y-72772936D02*
X115203840Y-73227064D01*
X116673840Y-72772936D02*
X116673840Y-73227064D01*
%TO.C,C32*%
X132261252Y-44265000D02*
X131738748Y-44265000D01*
X132261252Y-45735000D02*
X131738748Y-45735000D01*
%TO.C,R2*%
X121703840Y-145772936D02*
X121703840Y-146227064D01*
X123173840Y-145772936D02*
X123173840Y-146227064D01*
%TO.C,R6*%
X163211776Y-127265000D02*
X163665904Y-127265000D01*
X163211776Y-128735000D02*
X163665904Y-128735000D01*
%TO.C,SW12*%
X163338840Y-56350000D02*
X167538840Y-56350000D01*
X163338840Y-56740000D02*
X163338840Y-56350000D01*
X163338840Y-59260000D02*
X163338840Y-59650000D01*
X163338840Y-59650000D02*
X167538840Y-59650000D01*
X167538840Y-56350000D02*
X167538840Y-56740000D01*
X167538840Y-59650000D02*
X167538840Y-59260000D01*
%TO.C,D2*%
X168338840Y-143240000D02*
X169538840Y-143240000D01*
X168338840Y-145200000D02*
X168338840Y-143240000D01*
X169538840Y-145200000D02*
X169538840Y-143240000D01*
%TO.C,D3*%
X152178840Y-138600000D02*
X152178840Y-137400000D01*
X154138840Y-137400000D02*
X152178840Y-137400000D01*
X154138840Y-138600000D02*
X152178840Y-138600000D01*
%TD*%
%LPC*%
D13*
%TO.C,REF_1*%
X165000000Y-48000000D03*
%TD*%
%TO.C,REF_2*%
X112000000Y-147500000D03*
%TD*%
D14*
%TO.C,J7*%
X124163840Y-89725000D03*
X124163840Y-90825000D03*
X124163840Y-91925000D03*
X124163840Y-93025000D03*
X124163840Y-94125000D03*
X124163840Y-95225000D03*
X124163840Y-96325000D03*
X124163840Y-97425000D03*
X124163840Y-98375000D03*
D15*
X113663840Y-99325000D03*
D16*
X119863840Y-99325000D03*
D17*
X109513840Y-99325000D03*
D16*
X124163840Y-88175000D03*
D18*
X109063840Y-85825000D03*
%TD*%
D19*
%TO.C,C8*%
X117901340Y-119000000D03*
X119976340Y-119000000D03*
%TD*%
D20*
%TO.C,C34*%
X144438840Y-55462500D03*
X144438840Y-57537500D03*
%TD*%
D21*
%TO.C,R10*%
X117938840Y-124000000D03*
X119938840Y-124000000D03*
%TD*%
D22*
%TO.C,R12*%
X118438840Y-132500000D03*
X118438840Y-130500000D03*
%TD*%
D19*
%TO.C,C35*%
X160462500Y-65000000D03*
X162537500Y-65000000D03*
%TD*%
D23*
%TO.C,C37*%
X150476340Y-96500000D03*
X148401340Y-96500000D03*
%TD*%
D20*
%TO.C,C2*%
X152938840Y-133962500D03*
X152938840Y-136037500D03*
%TD*%
D23*
%TO.C,C33*%
X133037500Y-48010000D03*
X130962500Y-48010000D03*
%TD*%
D22*
%TO.C,R4*%
X155938840Y-125500000D03*
X155938840Y-123500000D03*
%TD*%
D24*
%TO.C,R3*%
X124938840Y-145000000D03*
X124938840Y-147000000D03*
%TD*%
D25*
%TO.C,D1*%
X168938840Y-147300000D03*
X168938840Y-148700000D03*
%TD*%
D26*
%TO.C,C22*%
X149938840Y-129537500D03*
X149938840Y-127462500D03*
%TD*%
D27*
%TO.C,SW6*%
X153163840Y-58000000D03*
X148713840Y-58000000D03*
%TD*%
D24*
%TO.C,R54*%
X123438840Y-75500000D03*
X123438840Y-77500000D03*
%TD*%
D21*
%TO.C,R5*%
X162438840Y-125000000D03*
X164438840Y-125000000D03*
%TD*%
D23*
%TO.C,C1*%
X125037500Y-139500000D03*
X122962500Y-139500000D03*
%TD*%
D24*
%TO.C,R55*%
X132438840Y-77000000D03*
X132438840Y-79000000D03*
%TD*%
D26*
%TO.C,C5*%
X158938840Y-93037500D03*
X158938840Y-90962500D03*
%TD*%
D23*
%TO.C,C6*%
X153476340Y-115000000D03*
X151401340Y-115000000D03*
%TD*%
D24*
%TO.C,R9*%
X118438840Y-73000000D03*
X118438840Y-75000000D03*
%TD*%
D28*
%TO.C,U4*%
X128106500Y-51394510D03*
X129004525Y-52292536D03*
X129902551Y-53190561D03*
X130800577Y-54088587D03*
X131698602Y-54986612D03*
X132596628Y-55884638D03*
X133494653Y-56782664D03*
X134392679Y-57680689D03*
X135290705Y-58578715D03*
X136188730Y-59476741D03*
X137086756Y-60374766D03*
X137984781Y-61272792D03*
X138882807Y-62170817D03*
D29*
X139780833Y-63068843D03*
D30*
X139416673Y-65200770D03*
X138518647Y-66098796D03*
X137620621Y-66996821D03*
X136722596Y-67894847D03*
X135824570Y-68792872D03*
X134926545Y-69690898D03*
X134028519Y-70588924D03*
X133130493Y-71486949D03*
X132232468Y-72384975D03*
X131334442Y-73283000D03*
X130436417Y-74181026D03*
X129538391Y-75079052D03*
D28*
X127406464Y-75443212D03*
X126508438Y-74545186D03*
X125610413Y-73647160D03*
X124712387Y-72749135D03*
X123814362Y-71851109D03*
X122916336Y-70953084D03*
X122018310Y-70055058D03*
X121120285Y-69157032D03*
X120222259Y-68259007D03*
X119324233Y-67360981D03*
X118426208Y-66462956D03*
X117528182Y-65564930D03*
X116630157Y-64666904D03*
X115732131Y-63768879D03*
D31*
X129923764Y-61484924D03*
X128933815Y-60494974D03*
X129923764Y-62474873D03*
X128933815Y-61484924D03*
X127943865Y-60494974D03*
X128933815Y-62474873D03*
D32*
X128438840Y-61979899D03*
D31*
X127943865Y-61484924D03*
X128933815Y-63464823D03*
X127943865Y-62474873D03*
X126953916Y-61484924D03*
X127943865Y-63464823D03*
X126953916Y-62474873D03*
%TD*%
D24*
%TO.C,R53*%
X120938840Y-74000000D03*
X120938840Y-76000000D03*
%TD*%
D33*
%TO.C,J5*%
X161938840Y-105550000D03*
D34*
X159938840Y-105550000D03*
%TD*%
D35*
%TO.C,L1*%
X131250000Y-86500000D03*
X135750000Y-86500000D03*
%TD*%
D19*
%TO.C,C16*%
X126401340Y-123500000D03*
X128476340Y-123500000D03*
%TD*%
D36*
%TO.C,U2*%
X159876340Y-130750000D03*
X159876340Y-131250000D03*
X159876340Y-131750000D03*
X159876340Y-132250000D03*
D37*
X159188840Y-132937500D03*
X158688840Y-132937500D03*
X158188840Y-132937500D03*
X157688840Y-132937500D03*
D36*
X157001340Y-132250000D03*
X157001340Y-131750000D03*
X157001340Y-131250000D03*
X157001340Y-130750000D03*
D37*
X157688840Y-130062500D03*
X158188840Y-130062500D03*
X158688840Y-130062500D03*
X159188840Y-130062500D03*
D38*
X158438840Y-131500000D03*
%TD*%
D23*
%TO.C,C36*%
X150476340Y-93490000D03*
X148401340Y-93490000D03*
%TD*%
D21*
%TO.C,R1*%
X123000000Y-142000000D03*
X125000000Y-142000000D03*
%TD*%
D39*
%TO.C,U3*%
X153388840Y-121850000D03*
X152438840Y-121850000D03*
X151488840Y-121850000D03*
X151488840Y-119150000D03*
X153388840Y-119150000D03*
%TD*%
D19*
%TO.C,C14*%
X126401340Y-121000000D03*
X128476340Y-121000000D03*
%TD*%
D22*
%TO.C,R7*%
X153438840Y-100500000D03*
X153438840Y-98500000D03*
%TD*%
D19*
%TO.C,C3*%
X166401340Y-136000000D03*
X168476340Y-136000000D03*
%TD*%
D40*
%TO.C,J1*%
X165639840Y-141300000D03*
D41*
X158439840Y-141300000D03*
D42*
X164789840Y-140640000D03*
X164289840Y-140640000D03*
X163789840Y-140640000D03*
X163289840Y-140640000D03*
X162789840Y-140640000D03*
X162289840Y-140640000D03*
X161789840Y-140640000D03*
X161289840Y-140640000D03*
X160789840Y-140640000D03*
X160289840Y-140640000D03*
X159789840Y-140640000D03*
X159289840Y-140640000D03*
X159539840Y-142340000D03*
X160039840Y-142340000D03*
X160539840Y-142340000D03*
X161039840Y-142340000D03*
X161539840Y-142340000D03*
X162039840Y-142340000D03*
X162539840Y-142340000D03*
X163039840Y-142340000D03*
X163539840Y-142340000D03*
X164039840Y-142340000D03*
X164539840Y-142340000D03*
X165039840Y-142340000D03*
D43*
X166529840Y-148500000D03*
X166169840Y-142550000D03*
X157909840Y-142550000D03*
X157549840Y-148500000D03*
%TD*%
D44*
%TO.C,Q3*%
X158988840Y-97500000D03*
X160888840Y-97500000D03*
X159938840Y-100500000D03*
%TD*%
D45*
%TO.C,J3*%
X144688840Y-126150000D03*
X144188840Y-126150000D03*
X143688840Y-126150000D03*
X143188840Y-126150000D03*
X142688840Y-126150000D03*
X142188840Y-126150000D03*
X141688840Y-126150000D03*
X141188840Y-126150000D03*
X140688840Y-126150000D03*
X140188840Y-126150000D03*
X139688840Y-126150000D03*
X139188840Y-126150000D03*
X138688840Y-126150000D03*
X138188840Y-126150000D03*
X137688840Y-126150000D03*
X137188840Y-126150000D03*
X136688840Y-126150000D03*
X136188840Y-126150000D03*
X135688840Y-126150000D03*
X135188840Y-126150000D03*
X134688840Y-126150000D03*
X134188840Y-126150000D03*
X133688840Y-126150000D03*
X133188840Y-126150000D03*
D46*
X146488840Y-128900000D03*
X131388840Y-128900000D03*
%TD*%
D20*
%TO.C,C4*%
X153438840Y-127462500D03*
X153438840Y-129537500D03*
%TD*%
D24*
%TO.C,R8*%
X115938840Y-72000000D03*
X115938840Y-74000000D03*
%TD*%
D23*
%TO.C,C32*%
X133037500Y-45000000D03*
X130962500Y-45000000D03*
%TD*%
D24*
%TO.C,R2*%
X122438840Y-145000000D03*
X122438840Y-147000000D03*
%TD*%
D21*
%TO.C,R6*%
X162438840Y-128000000D03*
X164438840Y-128000000D03*
%TD*%
D47*
%TO.C,SW12*%
X163213840Y-58000000D03*
X167663840Y-58000000D03*
%TD*%
D25*
%TO.C,D2*%
X168938840Y-143800000D03*
X168938840Y-145200000D03*
%TD*%
D48*
%TO.C,D3*%
X152738840Y-138000000D03*
X154138840Y-138000000D03*
%TD*%
%LPD*%
M02*
