%TF.GenerationSoftware,KiCad,Pcbnew,9.0.6*%
%TF.CreationDate,2025-11-24T16:31:49-05:00*%
%TF.ProjectId,EPD_HUB_ESP32,4550445f-4855-4425-9f45-535033322e6b,rev?*%
%TF.SameCoordinates,Original*%
%TF.FileFunction,Soldermask,Top*%
%TF.FilePolarity,Negative*%
%FSLAX46Y46*%
G04 Gerber Fmt 4.6, Leading zero omitted, Abs format (unit mm)*
G04 Created by KiCad (PCBNEW 9.0.6) date 2025-11-24 16:31:49*
%MOMM*%
%LPD*%
G01*
G04 APERTURE LIST*
G04 Aperture macros list*
%AMRoundRect*
0 Rectangle with rounded corners*
0 $1 Rounding radius*
0 $2 $3 $4 $5 $6 $7 $8 $9 X,Y pos of 4 corners*
0 Add a 4 corners polygon primitive as box body*
4,1,4,$2,$3,$4,$5,$6,$7,$8,$9,$2,$3,0*
0 Add four circle primitives for the rounded corners*
1,1,$1+$1,$2,$3*
1,1,$1+$1,$4,$5*
1,1,$1+$1,$6,$7*
1,1,$1+$1,$8,$9*
0 Add four rect primitives between the rounded corners*
20,1,$1+$1,$2,$3,$4,$5,0*
20,1,$1+$1,$4,$5,$6,$7,0*
20,1,$1+$1,$6,$7,$8,$9,0*
20,1,$1+$1,$8,$9,$2,$3,0*%
G04 Aperture macros list end*
%ADD10C,6.000000*%
%ADD11RoundRect,0.250000X0.475000X-0.337500X0.475000X0.337500X-0.475000X0.337500X-0.475000X-0.337500X0*%
%ADD12RoundRect,0.250000X-0.450000X0.350000X-0.450000X-0.350000X0.450000X-0.350000X0.450000X0.350000X0*%
%ADD13RoundRect,0.250000X-0.275000X-0.750000X0.275000X-0.750000X0.275000X0.750000X-0.275000X0.750000X0*%
%ADD14RoundRect,0.250000X-0.350000X-0.450000X0.350000X-0.450000X0.350000X0.450000X-0.350000X0.450000X0*%
%ADD15RoundRect,0.250000X0.750000X-0.275000X0.750000X0.275000X-0.750000X0.275000X-0.750000X-0.275000X0*%
%ADD16RoundRect,0.225000X-0.225000X-0.375000X0.225000X-0.375000X0.225000X0.375000X-0.225000X0.375000X0*%
%ADD17RoundRect,0.250000X0.337500X0.475000X-0.337500X0.475000X-0.337500X-0.475000X0.337500X-0.475000X0*%
%ADD18RoundRect,0.250000X0.350000X0.450000X-0.350000X0.450000X-0.350000X-0.450000X0.350000X-0.450000X0*%
%ADD19RoundRect,0.225000X0.225000X0.375000X-0.225000X0.375000X-0.225000X-0.375000X0.225000X-0.375000X0*%
%ADD20RoundRect,0.250000X-0.337500X-0.475000X0.337500X-0.475000X0.337500X0.475000X-0.337500X0.475000X0*%
%ADD21RoundRect,0.250000X-0.750000X0.275000X-0.750000X-0.275000X0.750000X-0.275000X0.750000X0.275000X0*%
%ADD22RoundRect,0.250000X0.275000X0.750000X-0.275000X0.750000X-0.275000X-0.750000X0.275000X-0.750000X0*%
%ADD23RoundRect,0.200000X-0.200000X0.750000X-0.200000X-0.750000X0.200000X-0.750000X0.200000X0.750000X0*%
%ADD24RoundRect,0.112500X0.112500X0.637500X-0.112500X0.637500X-0.112500X-0.637500X0.112500X-0.637500X0*%
%ADD25RoundRect,0.150000X-0.587500X-0.150000X0.587500X-0.150000X0.587500X0.150000X-0.587500X0.150000X0*%
%ADD26RoundRect,0.250000X0.350000X0.625000X-0.350000X0.625000X-0.350000X-0.625000X0.350000X-0.625000X0*%
%ADD27O,1.200000X1.750000*%
%ADD28O,0.800000X1.400000*%
G04 APERTURE END LIST*
D10*
%TO.C,REF_1*%
X165000000Y-48000000D03*
%TD*%
%TO.C,REF_2*%
X112000000Y-147500000D03*
%TD*%
D11*
%TO.C,C18*%
X136938840Y-135537500D03*
X136938840Y-133462500D03*
%TD*%
D12*
%TO.C,R15*%
X146938840Y-105500000D03*
X146938840Y-107500000D03*
%TD*%
D11*
%TO.C,C15*%
X129438840Y-135537500D03*
X129438840Y-133462500D03*
%TD*%
D13*
%TO.C,SW3*%
X121713840Y-47000000D03*
X126163840Y-47000000D03*
%TD*%
D14*
%TO.C,R11*%
X122500000Y-127000000D03*
X124500000Y-127000000D03*
%TD*%
D15*
%TO.C,SW7*%
X111438840Y-111725000D03*
X111438840Y-107275000D03*
%TD*%
D16*
%TO.C,D6*%
X134788840Y-103500000D03*
X138088840Y-103500000D03*
%TD*%
D14*
%TO.C,R16*%
X145438840Y-84000000D03*
X147438840Y-84000000D03*
%TD*%
D17*
%TO.C,C10*%
X147976340Y-102000000D03*
X145901340Y-102000000D03*
%TD*%
D18*
%TO.C,R18*%
X152438840Y-80500000D03*
X150438840Y-80500000D03*
%TD*%
D19*
%TO.C,D5*%
X138088840Y-108000000D03*
X134788840Y-108000000D03*
%TD*%
D20*
%TO.C,C11*%
X140901340Y-103500000D03*
X142976340Y-103500000D03*
%TD*%
D11*
%TO.C,C13*%
X132438840Y-135537500D03*
X132438840Y-133462500D03*
%TD*%
D18*
%TO.C,R17*%
X147438840Y-77500000D03*
X145438840Y-77500000D03*
%TD*%
D14*
%TO.C,R19*%
X150438840Y-77500000D03*
X152438840Y-77500000D03*
%TD*%
D11*
%TO.C,C20*%
X126938840Y-135537500D03*
X126938840Y-133462500D03*
%TD*%
D21*
%TO.C,SW5*%
X111438840Y-128275000D03*
X111438840Y-132725000D03*
%TD*%
D11*
%TO.C,C19*%
X134438840Y-135537500D03*
X134438840Y-133462500D03*
%TD*%
D15*
%TO.C,SW4*%
X168438840Y-111725000D03*
X168438840Y-107275000D03*
%TD*%
D22*
%TO.C,SW2*%
X157663840Y-47000000D03*
X153213840Y-47000000D03*
%TD*%
D17*
%TO.C,C12*%
X147476340Y-81000000D03*
X145401340Y-81000000D03*
%TD*%
D12*
%TO.C,R14*%
X146938840Y-110000000D03*
X146938840Y-112000000D03*
%TD*%
D23*
%TO.C,Q5*%
X147388840Y-93000000D03*
X145488840Y-93000000D03*
X146438840Y-96000000D03*
%TD*%
D21*
%TO.C,SW1*%
X168438840Y-127775000D03*
X168438840Y-132225000D03*
%TD*%
D19*
%TO.C,D4*%
X138088840Y-99500000D03*
X134788840Y-99500000D03*
%TD*%
D24*
%TO.C,Q4*%
X144088840Y-108170000D03*
X142788840Y-108170000D03*
X143438840Y-110830000D03*
%TD*%
D12*
%TO.C,R20*%
X150438840Y-84000000D03*
X150438840Y-86000000D03*
%TD*%
D11*
%TO.C,C21*%
X142438840Y-135537500D03*
X142438840Y-133462500D03*
%TD*%
D25*
%TO.C,Q6*%
X140501340Y-85050000D03*
X140501340Y-86950000D03*
X142376340Y-86000000D03*
%TD*%
D11*
%TO.C,C17*%
X139938840Y-135537500D03*
X139938840Y-133462500D03*
%TD*%
D26*
%TO.C,J5*%
X161938840Y-105550000D03*
D27*
X159938840Y-105550000D03*
%TD*%
D28*
%TO.C,J1*%
X166529840Y-148500000D03*
X166169840Y-142550000D03*
X157909840Y-142550000D03*
X157549840Y-148500000D03*
%TD*%
M02*
