%TF.GenerationSoftware,KiCad,Pcbnew,9.0.6*%
%TF.CreationDate,2025-11-23T22:18:04-05:00*%
%TF.ProjectId,EPD_HUB_ESP32,4550445f-4855-4425-9f45-535033322e6b,rev?*%
%TF.SameCoordinates,Original*%
%TF.FileFunction,Legend,Top*%
%TF.FilePolarity,Positive*%
%FSLAX46Y46*%
G04 Gerber Fmt 4.6, Leading zero omitted, Abs format (unit mm)*
G04 Created by KiCad (PCBNEW 9.0.6) date 2025-11-23 22:18:04*
%MOMM*%
%LPD*%
G01*
G04 APERTURE LIST*
%ADD10C,0.150000*%
%ADD11C,0.120000*%
G04 APERTURE END LIST*
D10*
X122605507Y-44757200D02*
X122748364Y-44804819D01*
X122748364Y-44804819D02*
X122986459Y-44804819D01*
X122986459Y-44804819D02*
X123081697Y-44757200D01*
X123081697Y-44757200D02*
X123129316Y-44709580D01*
X123129316Y-44709580D02*
X123176935Y-44614342D01*
X123176935Y-44614342D02*
X123176935Y-44519104D01*
X123176935Y-44519104D02*
X123129316Y-44423866D01*
X123129316Y-44423866D02*
X123081697Y-44376247D01*
X123081697Y-44376247D02*
X122986459Y-44328628D01*
X122986459Y-44328628D02*
X122795983Y-44281009D01*
X122795983Y-44281009D02*
X122700745Y-44233390D01*
X122700745Y-44233390D02*
X122653126Y-44185771D01*
X122653126Y-44185771D02*
X122605507Y-44090533D01*
X122605507Y-44090533D02*
X122605507Y-43995295D01*
X122605507Y-43995295D02*
X122653126Y-43900057D01*
X122653126Y-43900057D02*
X122700745Y-43852438D01*
X122700745Y-43852438D02*
X122795983Y-43804819D01*
X122795983Y-43804819D02*
X123034078Y-43804819D01*
X123034078Y-43804819D02*
X123176935Y-43852438D01*
X123510269Y-43804819D02*
X123748364Y-44804819D01*
X123748364Y-44804819D02*
X123938840Y-44090533D01*
X123938840Y-44090533D02*
X124129316Y-44804819D01*
X124129316Y-44804819D02*
X124367412Y-43804819D01*
X124653126Y-43804819D02*
X125272173Y-43804819D01*
X125272173Y-43804819D02*
X124938840Y-44185771D01*
X124938840Y-44185771D02*
X125081697Y-44185771D01*
X125081697Y-44185771D02*
X125176935Y-44233390D01*
X125176935Y-44233390D02*
X125224554Y-44281009D01*
X125224554Y-44281009D02*
X125272173Y-44376247D01*
X125272173Y-44376247D02*
X125272173Y-44614342D01*
X125272173Y-44614342D02*
X125224554Y-44709580D01*
X125224554Y-44709580D02*
X125176935Y-44757200D01*
X125176935Y-44757200D02*
X125081697Y-44804819D01*
X125081697Y-44804819D02*
X124795983Y-44804819D01*
X124795983Y-44804819D02*
X124700745Y-44757200D01*
X124700745Y-44757200D02*
X124653126Y-44709580D01*
X109196040Y-110833332D02*
X109243659Y-110690475D01*
X109243659Y-110690475D02*
X109243659Y-110452380D01*
X109243659Y-110452380D02*
X109196040Y-110357142D01*
X109196040Y-110357142D02*
X109148420Y-110309523D01*
X109148420Y-110309523D02*
X109053182Y-110261904D01*
X109053182Y-110261904D02*
X108957944Y-110261904D01*
X108957944Y-110261904D02*
X108862706Y-110309523D01*
X108862706Y-110309523D02*
X108815087Y-110357142D01*
X108815087Y-110357142D02*
X108767468Y-110452380D01*
X108767468Y-110452380D02*
X108719849Y-110642856D01*
X108719849Y-110642856D02*
X108672230Y-110738094D01*
X108672230Y-110738094D02*
X108624611Y-110785713D01*
X108624611Y-110785713D02*
X108529373Y-110833332D01*
X108529373Y-110833332D02*
X108434135Y-110833332D01*
X108434135Y-110833332D02*
X108338897Y-110785713D01*
X108338897Y-110785713D02*
X108291278Y-110738094D01*
X108291278Y-110738094D02*
X108243659Y-110642856D01*
X108243659Y-110642856D02*
X108243659Y-110404761D01*
X108243659Y-110404761D02*
X108291278Y-110261904D01*
X108243659Y-109928570D02*
X109243659Y-109690475D01*
X109243659Y-109690475D02*
X108529373Y-109499999D01*
X108529373Y-109499999D02*
X109243659Y-109309523D01*
X109243659Y-109309523D02*
X108243659Y-109071428D01*
X108243659Y-108785713D02*
X108243659Y-108119047D01*
X108243659Y-108119047D02*
X109243659Y-108547618D01*
X114496040Y-131833332D02*
X114543659Y-131690475D01*
X114543659Y-131690475D02*
X114543659Y-131452380D01*
X114543659Y-131452380D02*
X114496040Y-131357142D01*
X114496040Y-131357142D02*
X114448420Y-131309523D01*
X114448420Y-131309523D02*
X114353182Y-131261904D01*
X114353182Y-131261904D02*
X114257944Y-131261904D01*
X114257944Y-131261904D02*
X114162706Y-131309523D01*
X114162706Y-131309523D02*
X114115087Y-131357142D01*
X114115087Y-131357142D02*
X114067468Y-131452380D01*
X114067468Y-131452380D02*
X114019849Y-131642856D01*
X114019849Y-131642856D02*
X113972230Y-131738094D01*
X113972230Y-131738094D02*
X113924611Y-131785713D01*
X113924611Y-131785713D02*
X113829373Y-131833332D01*
X113829373Y-131833332D02*
X113734135Y-131833332D01*
X113734135Y-131833332D02*
X113638897Y-131785713D01*
X113638897Y-131785713D02*
X113591278Y-131738094D01*
X113591278Y-131738094D02*
X113543659Y-131642856D01*
X113543659Y-131642856D02*
X113543659Y-131404761D01*
X113543659Y-131404761D02*
X113591278Y-131261904D01*
X113543659Y-130928570D02*
X114543659Y-130690475D01*
X114543659Y-130690475D02*
X113829373Y-130499999D01*
X113829373Y-130499999D02*
X114543659Y-130309523D01*
X114543659Y-130309523D02*
X113543659Y-130071428D01*
X113543659Y-129214285D02*
X113543659Y-129690475D01*
X113543659Y-129690475D02*
X114019849Y-129738094D01*
X114019849Y-129738094D02*
X113972230Y-129690475D01*
X113972230Y-129690475D02*
X113924611Y-129595237D01*
X113924611Y-129595237D02*
X113924611Y-129357142D01*
X113924611Y-129357142D02*
X113972230Y-129261904D01*
X113972230Y-129261904D02*
X114019849Y-129214285D01*
X114019849Y-129214285D02*
X114115087Y-129166666D01*
X114115087Y-129166666D02*
X114353182Y-129166666D01*
X114353182Y-129166666D02*
X114448420Y-129214285D01*
X114448420Y-129214285D02*
X114496040Y-129261904D01*
X114496040Y-129261904D02*
X114543659Y-129357142D01*
X114543659Y-129357142D02*
X114543659Y-129595237D01*
X114543659Y-129595237D02*
X114496040Y-129690475D01*
X114496040Y-129690475D02*
X114448420Y-129738094D01*
X166196040Y-110833332D02*
X166243659Y-110690475D01*
X166243659Y-110690475D02*
X166243659Y-110452380D01*
X166243659Y-110452380D02*
X166196040Y-110357142D01*
X166196040Y-110357142D02*
X166148420Y-110309523D01*
X166148420Y-110309523D02*
X166053182Y-110261904D01*
X166053182Y-110261904D02*
X165957944Y-110261904D01*
X165957944Y-110261904D02*
X165862706Y-110309523D01*
X165862706Y-110309523D02*
X165815087Y-110357142D01*
X165815087Y-110357142D02*
X165767468Y-110452380D01*
X165767468Y-110452380D02*
X165719849Y-110642856D01*
X165719849Y-110642856D02*
X165672230Y-110738094D01*
X165672230Y-110738094D02*
X165624611Y-110785713D01*
X165624611Y-110785713D02*
X165529373Y-110833332D01*
X165529373Y-110833332D02*
X165434135Y-110833332D01*
X165434135Y-110833332D02*
X165338897Y-110785713D01*
X165338897Y-110785713D02*
X165291278Y-110738094D01*
X165291278Y-110738094D02*
X165243659Y-110642856D01*
X165243659Y-110642856D02*
X165243659Y-110404761D01*
X165243659Y-110404761D02*
X165291278Y-110261904D01*
X165243659Y-109928570D02*
X166243659Y-109690475D01*
X166243659Y-109690475D02*
X165529373Y-109499999D01*
X165529373Y-109499999D02*
X166243659Y-109309523D01*
X166243659Y-109309523D02*
X165243659Y-109071428D01*
X165576992Y-108261904D02*
X166243659Y-108261904D01*
X165196040Y-108499999D02*
X165910325Y-108738094D01*
X165910325Y-108738094D02*
X165910325Y-108119047D01*
X154105507Y-50057200D02*
X154248364Y-50104819D01*
X154248364Y-50104819D02*
X154486459Y-50104819D01*
X154486459Y-50104819D02*
X154581697Y-50057200D01*
X154581697Y-50057200D02*
X154629316Y-50009580D01*
X154629316Y-50009580D02*
X154676935Y-49914342D01*
X154676935Y-49914342D02*
X154676935Y-49819104D01*
X154676935Y-49819104D02*
X154629316Y-49723866D01*
X154629316Y-49723866D02*
X154581697Y-49676247D01*
X154581697Y-49676247D02*
X154486459Y-49628628D01*
X154486459Y-49628628D02*
X154295983Y-49581009D01*
X154295983Y-49581009D02*
X154200745Y-49533390D01*
X154200745Y-49533390D02*
X154153126Y-49485771D01*
X154153126Y-49485771D02*
X154105507Y-49390533D01*
X154105507Y-49390533D02*
X154105507Y-49295295D01*
X154105507Y-49295295D02*
X154153126Y-49200057D01*
X154153126Y-49200057D02*
X154200745Y-49152438D01*
X154200745Y-49152438D02*
X154295983Y-49104819D01*
X154295983Y-49104819D02*
X154534078Y-49104819D01*
X154534078Y-49104819D02*
X154676935Y-49152438D01*
X155010269Y-49104819D02*
X155248364Y-50104819D01*
X155248364Y-50104819D02*
X155438840Y-49390533D01*
X155438840Y-49390533D02*
X155629316Y-50104819D01*
X155629316Y-50104819D02*
X155867412Y-49104819D01*
X156200745Y-49200057D02*
X156248364Y-49152438D01*
X156248364Y-49152438D02*
X156343602Y-49104819D01*
X156343602Y-49104819D02*
X156581697Y-49104819D01*
X156581697Y-49104819D02*
X156676935Y-49152438D01*
X156676935Y-49152438D02*
X156724554Y-49200057D01*
X156724554Y-49200057D02*
X156772173Y-49295295D01*
X156772173Y-49295295D02*
X156772173Y-49390533D01*
X156772173Y-49390533D02*
X156724554Y-49533390D01*
X156724554Y-49533390D02*
X156153126Y-50104819D01*
X156153126Y-50104819D02*
X156772173Y-50104819D01*
X168846040Y-131333332D02*
X168893659Y-131190475D01*
X168893659Y-131190475D02*
X168893659Y-130952380D01*
X168893659Y-130952380D02*
X168846040Y-130857142D01*
X168846040Y-130857142D02*
X168798420Y-130809523D01*
X168798420Y-130809523D02*
X168703182Y-130761904D01*
X168703182Y-130761904D02*
X168607944Y-130761904D01*
X168607944Y-130761904D02*
X168512706Y-130809523D01*
X168512706Y-130809523D02*
X168465087Y-130857142D01*
X168465087Y-130857142D02*
X168417468Y-130952380D01*
X168417468Y-130952380D02*
X168369849Y-131142856D01*
X168369849Y-131142856D02*
X168322230Y-131238094D01*
X168322230Y-131238094D02*
X168274611Y-131285713D01*
X168274611Y-131285713D02*
X168179373Y-131333332D01*
X168179373Y-131333332D02*
X168084135Y-131333332D01*
X168084135Y-131333332D02*
X167988897Y-131285713D01*
X167988897Y-131285713D02*
X167941278Y-131238094D01*
X167941278Y-131238094D02*
X167893659Y-131142856D01*
X167893659Y-131142856D02*
X167893659Y-130904761D01*
X167893659Y-130904761D02*
X167941278Y-130761904D01*
X167893659Y-130428570D02*
X168893659Y-130190475D01*
X168893659Y-130190475D02*
X168179373Y-129999999D01*
X168179373Y-129999999D02*
X168893659Y-129809523D01*
X168893659Y-129809523D02*
X167893659Y-129571428D01*
X168893659Y-128666666D02*
X168893659Y-129238094D01*
X168893659Y-128952380D02*
X167893659Y-128952380D01*
X167893659Y-128952380D02*
X168036516Y-129047618D01*
X168036516Y-129047618D02*
X168131754Y-129142856D01*
X168131754Y-129142856D02*
X168179373Y-129238094D01*
X149043659Y-106642857D02*
X148567468Y-106976190D01*
X149043659Y-107214285D02*
X148043659Y-107214285D01*
X148043659Y-107214285D02*
X148043659Y-106833333D01*
X148043659Y-106833333D02*
X148091278Y-106738095D01*
X148091278Y-106738095D02*
X148138897Y-106690476D01*
X148138897Y-106690476D02*
X148234135Y-106642857D01*
X148234135Y-106642857D02*
X148376992Y-106642857D01*
X148376992Y-106642857D02*
X148472230Y-106690476D01*
X148472230Y-106690476D02*
X148519849Y-106738095D01*
X148519849Y-106738095D02*
X148567468Y-106833333D01*
X148567468Y-106833333D02*
X148567468Y-107214285D01*
X149043659Y-105690476D02*
X149043659Y-106261904D01*
X149043659Y-105976190D02*
X148043659Y-105976190D01*
X148043659Y-105976190D02*
X148186516Y-106071428D01*
X148186516Y-106071428D02*
X148281754Y-106166666D01*
X148281754Y-106166666D02*
X148329373Y-106261904D01*
X148043659Y-104785714D02*
X148043659Y-105261904D01*
X148043659Y-105261904D02*
X148519849Y-105309523D01*
X148519849Y-105309523D02*
X148472230Y-105261904D01*
X148472230Y-105261904D02*
X148424611Y-105166666D01*
X148424611Y-105166666D02*
X148424611Y-104928571D01*
X148424611Y-104928571D02*
X148472230Y-104833333D01*
X148472230Y-104833333D02*
X148519849Y-104785714D01*
X148519849Y-104785714D02*
X148615087Y-104738095D01*
X148615087Y-104738095D02*
X148853182Y-104738095D01*
X148853182Y-104738095D02*
X148948420Y-104785714D01*
X148948420Y-104785714D02*
X148996040Y-104833333D01*
X148996040Y-104833333D02*
X149043659Y-104928571D01*
X149043659Y-104928571D02*
X149043659Y-105166666D01*
X149043659Y-105166666D02*
X148996040Y-105261904D01*
X148996040Y-105261904D02*
X148948420Y-105309523D01*
X141795982Y-81359580D02*
X141748363Y-81407200D01*
X141748363Y-81407200D02*
X141605506Y-81454819D01*
X141605506Y-81454819D02*
X141510268Y-81454819D01*
X141510268Y-81454819D02*
X141367411Y-81407200D01*
X141367411Y-81407200D02*
X141272173Y-81311961D01*
X141272173Y-81311961D02*
X141224554Y-81216723D01*
X141224554Y-81216723D02*
X141176935Y-81026247D01*
X141176935Y-81026247D02*
X141176935Y-80883390D01*
X141176935Y-80883390D02*
X141224554Y-80692914D01*
X141224554Y-80692914D02*
X141272173Y-80597676D01*
X141272173Y-80597676D02*
X141367411Y-80502438D01*
X141367411Y-80502438D02*
X141510268Y-80454819D01*
X141510268Y-80454819D02*
X141605506Y-80454819D01*
X141605506Y-80454819D02*
X141748363Y-80502438D01*
X141748363Y-80502438D02*
X141795982Y-80550057D01*
X142748363Y-81454819D02*
X142176935Y-81454819D01*
X142462649Y-81454819D02*
X142462649Y-80454819D01*
X142462649Y-80454819D02*
X142367411Y-80597676D01*
X142367411Y-80597676D02*
X142272173Y-80692914D01*
X142272173Y-80692914D02*
X142176935Y-80740533D01*
X143129316Y-80550057D02*
X143176935Y-80502438D01*
X143176935Y-80502438D02*
X143272173Y-80454819D01*
X143272173Y-80454819D02*
X143510268Y-80454819D01*
X143510268Y-80454819D02*
X143605506Y-80502438D01*
X143605506Y-80502438D02*
X143653125Y-80550057D01*
X143653125Y-80550057D02*
X143700744Y-80645295D01*
X143700744Y-80645295D02*
X143700744Y-80740533D01*
X143700744Y-80740533D02*
X143653125Y-80883390D01*
X143653125Y-80883390D02*
X143081697Y-81454819D01*
X143081697Y-81454819D02*
X143700744Y-81454819D01*
X135700745Y-97954819D02*
X135700745Y-96954819D01*
X135700745Y-96954819D02*
X135938840Y-96954819D01*
X135938840Y-96954819D02*
X136081697Y-97002438D01*
X136081697Y-97002438D02*
X136176935Y-97097676D01*
X136176935Y-97097676D02*
X136224554Y-97192914D01*
X136224554Y-97192914D02*
X136272173Y-97383390D01*
X136272173Y-97383390D02*
X136272173Y-97526247D01*
X136272173Y-97526247D02*
X136224554Y-97716723D01*
X136224554Y-97716723D02*
X136176935Y-97811961D01*
X136176935Y-97811961D02*
X136081697Y-97907200D01*
X136081697Y-97907200D02*
X135938840Y-97954819D01*
X135938840Y-97954819D02*
X135700745Y-97954819D01*
X137129316Y-97288152D02*
X137129316Y-97954819D01*
X136891221Y-96907200D02*
X136653126Y-97621485D01*
X136653126Y-97621485D02*
X137272173Y-97621485D01*
X141988897Y-109595238D02*
X141941278Y-109690476D01*
X141941278Y-109690476D02*
X141846040Y-109785714D01*
X141846040Y-109785714D02*
X141703182Y-109928571D01*
X141703182Y-109928571D02*
X141655563Y-110023809D01*
X141655563Y-110023809D02*
X141655563Y-110119047D01*
X141893659Y-110071428D02*
X141846040Y-110166666D01*
X141846040Y-110166666D02*
X141750801Y-110261904D01*
X141750801Y-110261904D02*
X141560325Y-110309523D01*
X141560325Y-110309523D02*
X141226992Y-110309523D01*
X141226992Y-110309523D02*
X141036516Y-110261904D01*
X141036516Y-110261904D02*
X140941278Y-110166666D01*
X140941278Y-110166666D02*
X140893659Y-110071428D01*
X140893659Y-110071428D02*
X140893659Y-109880952D01*
X140893659Y-109880952D02*
X140941278Y-109785714D01*
X140941278Y-109785714D02*
X141036516Y-109690476D01*
X141036516Y-109690476D02*
X141226992Y-109642857D01*
X141226992Y-109642857D02*
X141560325Y-109642857D01*
X141560325Y-109642857D02*
X141750801Y-109690476D01*
X141750801Y-109690476D02*
X141846040Y-109785714D01*
X141846040Y-109785714D02*
X141893659Y-109880952D01*
X141893659Y-109880952D02*
X141893659Y-110071428D01*
X141226992Y-108785714D02*
X141893659Y-108785714D01*
X140846040Y-109023809D02*
X141560325Y-109261904D01*
X141560325Y-109261904D02*
X141560325Y-108642857D01*
X145893659Y-114642857D02*
X145417468Y-114976190D01*
X145893659Y-115214285D02*
X144893659Y-115214285D01*
X144893659Y-115214285D02*
X144893659Y-114833333D01*
X144893659Y-114833333D02*
X144941278Y-114738095D01*
X144941278Y-114738095D02*
X144988897Y-114690476D01*
X144988897Y-114690476D02*
X145084135Y-114642857D01*
X145084135Y-114642857D02*
X145226992Y-114642857D01*
X145226992Y-114642857D02*
X145322230Y-114690476D01*
X145322230Y-114690476D02*
X145369849Y-114738095D01*
X145369849Y-114738095D02*
X145417468Y-114833333D01*
X145417468Y-114833333D02*
X145417468Y-115214285D01*
X145893659Y-113690476D02*
X145893659Y-114261904D01*
X145893659Y-113976190D02*
X144893659Y-113976190D01*
X144893659Y-113976190D02*
X145036516Y-114071428D01*
X145036516Y-114071428D02*
X145131754Y-114166666D01*
X145131754Y-114166666D02*
X145179373Y-114261904D01*
X145226992Y-112833333D02*
X145893659Y-112833333D01*
X144846040Y-113071428D02*
X145560325Y-113309523D01*
X145560325Y-113309523D02*
X145560325Y-112690476D01*
X149738897Y-94595238D02*
X149691278Y-94690476D01*
X149691278Y-94690476D02*
X149596040Y-94785714D01*
X149596040Y-94785714D02*
X149453182Y-94928571D01*
X149453182Y-94928571D02*
X149405563Y-95023809D01*
X149405563Y-95023809D02*
X149405563Y-95119047D01*
X149643659Y-95071428D02*
X149596040Y-95166666D01*
X149596040Y-95166666D02*
X149500801Y-95261904D01*
X149500801Y-95261904D02*
X149310325Y-95309523D01*
X149310325Y-95309523D02*
X148976992Y-95309523D01*
X148976992Y-95309523D02*
X148786516Y-95261904D01*
X148786516Y-95261904D02*
X148691278Y-95166666D01*
X148691278Y-95166666D02*
X148643659Y-95071428D01*
X148643659Y-95071428D02*
X148643659Y-94880952D01*
X148643659Y-94880952D02*
X148691278Y-94785714D01*
X148691278Y-94785714D02*
X148786516Y-94690476D01*
X148786516Y-94690476D02*
X148976992Y-94642857D01*
X148976992Y-94642857D02*
X149310325Y-94642857D01*
X149310325Y-94642857D02*
X149500801Y-94690476D01*
X149500801Y-94690476D02*
X149596040Y-94785714D01*
X149596040Y-94785714D02*
X149643659Y-94880952D01*
X149643659Y-94880952D02*
X149643659Y-95071428D01*
X148643659Y-93738095D02*
X148643659Y-94214285D01*
X148643659Y-94214285D02*
X149119849Y-94261904D01*
X149119849Y-94261904D02*
X149072230Y-94214285D01*
X149072230Y-94214285D02*
X149024611Y-94119047D01*
X149024611Y-94119047D02*
X149024611Y-93880952D01*
X149024611Y-93880952D02*
X149072230Y-93785714D01*
X149072230Y-93785714D02*
X149119849Y-93738095D01*
X149119849Y-93738095D02*
X149215087Y-93690476D01*
X149215087Y-93690476D02*
X149453182Y-93690476D01*
X149453182Y-93690476D02*
X149548420Y-93738095D01*
X149548420Y-93738095D02*
X149596040Y-93785714D01*
X149596040Y-93785714D02*
X149643659Y-93880952D01*
X149643659Y-93880952D02*
X149643659Y-94119047D01*
X149643659Y-94119047D02*
X149596040Y-94214285D01*
X149596040Y-94214285D02*
X149548420Y-94261904D01*
X152543659Y-85642857D02*
X152067468Y-85976190D01*
X152543659Y-86214285D02*
X151543659Y-86214285D01*
X151543659Y-86214285D02*
X151543659Y-85833333D01*
X151543659Y-85833333D02*
X151591278Y-85738095D01*
X151591278Y-85738095D02*
X151638897Y-85690476D01*
X151638897Y-85690476D02*
X151734135Y-85642857D01*
X151734135Y-85642857D02*
X151876992Y-85642857D01*
X151876992Y-85642857D02*
X151972230Y-85690476D01*
X151972230Y-85690476D02*
X152019849Y-85738095D01*
X152019849Y-85738095D02*
X152067468Y-85833333D01*
X152067468Y-85833333D02*
X152067468Y-86214285D01*
X151638897Y-85261904D02*
X151591278Y-85214285D01*
X151591278Y-85214285D02*
X151543659Y-85119047D01*
X151543659Y-85119047D02*
X151543659Y-84880952D01*
X151543659Y-84880952D02*
X151591278Y-84785714D01*
X151591278Y-84785714D02*
X151638897Y-84738095D01*
X151638897Y-84738095D02*
X151734135Y-84690476D01*
X151734135Y-84690476D02*
X151829373Y-84690476D01*
X151829373Y-84690476D02*
X151972230Y-84738095D01*
X151972230Y-84738095D02*
X152543659Y-85309523D01*
X152543659Y-85309523D02*
X152543659Y-84690476D01*
X151543659Y-84071428D02*
X151543659Y-83976190D01*
X151543659Y-83976190D02*
X151591278Y-83880952D01*
X151591278Y-83880952D02*
X151638897Y-83833333D01*
X151638897Y-83833333D02*
X151734135Y-83785714D01*
X151734135Y-83785714D02*
X151924611Y-83738095D01*
X151924611Y-83738095D02*
X152162706Y-83738095D01*
X152162706Y-83738095D02*
X152353182Y-83785714D01*
X152353182Y-83785714D02*
X152448420Y-83833333D01*
X152448420Y-83833333D02*
X152496040Y-83880952D01*
X152496040Y-83880952D02*
X152543659Y-83976190D01*
X152543659Y-83976190D02*
X152543659Y-84071428D01*
X152543659Y-84071428D02*
X152496040Y-84166666D01*
X152496040Y-84166666D02*
X152448420Y-84214285D01*
X152448420Y-84214285D02*
X152353182Y-84261904D01*
X152353182Y-84261904D02*
X152162706Y-84309523D01*
X152162706Y-84309523D02*
X151924611Y-84309523D01*
X151924611Y-84309523D02*
X151734135Y-84261904D01*
X151734135Y-84261904D02*
X151638897Y-84214285D01*
X151638897Y-84214285D02*
X151591278Y-84166666D01*
X151591278Y-84166666D02*
X151543659Y-84071428D01*
X141343601Y-84150057D02*
X141248363Y-84102438D01*
X141248363Y-84102438D02*
X141153125Y-84007200D01*
X141153125Y-84007200D02*
X141010268Y-83864342D01*
X141010268Y-83864342D02*
X140915030Y-83816723D01*
X140915030Y-83816723D02*
X140819792Y-83816723D01*
X140867411Y-84054819D02*
X140772173Y-84007200D01*
X140772173Y-84007200D02*
X140676935Y-83911961D01*
X140676935Y-83911961D02*
X140629316Y-83721485D01*
X140629316Y-83721485D02*
X140629316Y-83388152D01*
X140629316Y-83388152D02*
X140676935Y-83197676D01*
X140676935Y-83197676D02*
X140772173Y-83102438D01*
X140772173Y-83102438D02*
X140867411Y-83054819D01*
X140867411Y-83054819D02*
X141057887Y-83054819D01*
X141057887Y-83054819D02*
X141153125Y-83102438D01*
X141153125Y-83102438D02*
X141248363Y-83197676D01*
X141248363Y-83197676D02*
X141295982Y-83388152D01*
X141295982Y-83388152D02*
X141295982Y-83721485D01*
X141295982Y-83721485D02*
X141248363Y-83911961D01*
X141248363Y-83911961D02*
X141153125Y-84007200D01*
X141153125Y-84007200D02*
X141057887Y-84054819D01*
X141057887Y-84054819D02*
X140867411Y-84054819D01*
X142153125Y-83054819D02*
X141962649Y-83054819D01*
X141962649Y-83054819D02*
X141867411Y-83102438D01*
X141867411Y-83102438D02*
X141819792Y-83150057D01*
X141819792Y-83150057D02*
X141724554Y-83292914D01*
X141724554Y-83292914D02*
X141676935Y-83483390D01*
X141676935Y-83483390D02*
X141676935Y-83864342D01*
X141676935Y-83864342D02*
X141724554Y-83959580D01*
X141724554Y-83959580D02*
X141772173Y-84007200D01*
X141772173Y-84007200D02*
X141867411Y-84054819D01*
X141867411Y-84054819D02*
X142057887Y-84054819D01*
X142057887Y-84054819D02*
X142153125Y-84007200D01*
X142153125Y-84007200D02*
X142200744Y-83959580D01*
X142200744Y-83959580D02*
X142248363Y-83864342D01*
X142248363Y-83864342D02*
X142248363Y-83626247D01*
X142248363Y-83626247D02*
X142200744Y-83531009D01*
X142200744Y-83531009D02*
X142153125Y-83483390D01*
X142153125Y-83483390D02*
X142057887Y-83435771D01*
X142057887Y-83435771D02*
X141867411Y-83435771D01*
X141867411Y-83435771D02*
X141772173Y-83483390D01*
X141772173Y-83483390D02*
X141724554Y-83531009D01*
X141724554Y-83531009D02*
X141676935Y-83626247D01*
X132200745Y-103954819D02*
X132200745Y-102954819D01*
X132200745Y-102954819D02*
X132438840Y-102954819D01*
X132438840Y-102954819D02*
X132581697Y-103002438D01*
X132581697Y-103002438D02*
X132676935Y-103097676D01*
X132676935Y-103097676D02*
X132724554Y-103192914D01*
X132724554Y-103192914D02*
X132772173Y-103383390D01*
X132772173Y-103383390D02*
X132772173Y-103526247D01*
X132772173Y-103526247D02*
X132724554Y-103716723D01*
X132724554Y-103716723D02*
X132676935Y-103811961D01*
X132676935Y-103811961D02*
X132581697Y-103907200D01*
X132581697Y-103907200D02*
X132438840Y-103954819D01*
X132438840Y-103954819D02*
X132200745Y-103954819D01*
X133629316Y-102954819D02*
X133438840Y-102954819D01*
X133438840Y-102954819D02*
X133343602Y-103002438D01*
X133343602Y-103002438D02*
X133295983Y-103050057D01*
X133295983Y-103050057D02*
X133200745Y-103192914D01*
X133200745Y-103192914D02*
X133153126Y-103383390D01*
X133153126Y-103383390D02*
X133153126Y-103764342D01*
X133153126Y-103764342D02*
X133200745Y-103859580D01*
X133200745Y-103859580D02*
X133248364Y-103907200D01*
X133248364Y-103907200D02*
X133343602Y-103954819D01*
X133343602Y-103954819D02*
X133534078Y-103954819D01*
X133534078Y-103954819D02*
X133629316Y-103907200D01*
X133629316Y-103907200D02*
X133676935Y-103859580D01*
X133676935Y-103859580D02*
X133724554Y-103764342D01*
X133724554Y-103764342D02*
X133724554Y-103526247D01*
X133724554Y-103526247D02*
X133676935Y-103431009D01*
X133676935Y-103431009D02*
X133629316Y-103383390D01*
X133629316Y-103383390D02*
X133534078Y-103335771D01*
X133534078Y-103335771D02*
X133343602Y-103335771D01*
X133343602Y-103335771D02*
X133248364Y-103383390D01*
X133248364Y-103383390D02*
X133200745Y-103431009D01*
X133200745Y-103431009D02*
X133153126Y-103526247D01*
X141295982Y-102179580D02*
X141248363Y-102227200D01*
X141248363Y-102227200D02*
X141105506Y-102274819D01*
X141105506Y-102274819D02*
X141010268Y-102274819D01*
X141010268Y-102274819D02*
X140867411Y-102227200D01*
X140867411Y-102227200D02*
X140772173Y-102131961D01*
X140772173Y-102131961D02*
X140724554Y-102036723D01*
X140724554Y-102036723D02*
X140676935Y-101846247D01*
X140676935Y-101846247D02*
X140676935Y-101703390D01*
X140676935Y-101703390D02*
X140724554Y-101512914D01*
X140724554Y-101512914D02*
X140772173Y-101417676D01*
X140772173Y-101417676D02*
X140867411Y-101322438D01*
X140867411Y-101322438D02*
X141010268Y-101274819D01*
X141010268Y-101274819D02*
X141105506Y-101274819D01*
X141105506Y-101274819D02*
X141248363Y-101322438D01*
X141248363Y-101322438D02*
X141295982Y-101370057D01*
X142248363Y-102274819D02*
X141676935Y-102274819D01*
X141962649Y-102274819D02*
X141962649Y-101274819D01*
X141962649Y-101274819D02*
X141867411Y-101417676D01*
X141867411Y-101417676D02*
X141772173Y-101512914D01*
X141772173Y-101512914D02*
X141676935Y-101560533D01*
X143200744Y-102274819D02*
X142629316Y-102274819D01*
X142915030Y-102274819D02*
X142915030Y-101274819D01*
X142915030Y-101274819D02*
X142819792Y-101417676D01*
X142819792Y-101417676D02*
X142724554Y-101512914D01*
X142724554Y-101512914D02*
X142629316Y-101560533D01*
X150795982Y-82604819D02*
X150462649Y-82128628D01*
X150224554Y-82604819D02*
X150224554Y-81604819D01*
X150224554Y-81604819D02*
X150605506Y-81604819D01*
X150605506Y-81604819D02*
X150700744Y-81652438D01*
X150700744Y-81652438D02*
X150748363Y-81700057D01*
X150748363Y-81700057D02*
X150795982Y-81795295D01*
X150795982Y-81795295D02*
X150795982Y-81938152D01*
X150795982Y-81938152D02*
X150748363Y-82033390D01*
X150748363Y-82033390D02*
X150700744Y-82081009D01*
X150700744Y-82081009D02*
X150605506Y-82128628D01*
X150605506Y-82128628D02*
X150224554Y-82128628D01*
X151748363Y-82604819D02*
X151176935Y-82604819D01*
X151462649Y-82604819D02*
X151462649Y-81604819D01*
X151462649Y-81604819D02*
X151367411Y-81747676D01*
X151367411Y-81747676D02*
X151272173Y-81842914D01*
X151272173Y-81842914D02*
X151176935Y-81890533D01*
X152319792Y-82033390D02*
X152224554Y-81985771D01*
X152224554Y-81985771D02*
X152176935Y-81938152D01*
X152176935Y-81938152D02*
X152129316Y-81842914D01*
X152129316Y-81842914D02*
X152129316Y-81795295D01*
X152129316Y-81795295D02*
X152176935Y-81700057D01*
X152176935Y-81700057D02*
X152224554Y-81652438D01*
X152224554Y-81652438D02*
X152319792Y-81604819D01*
X152319792Y-81604819D02*
X152510268Y-81604819D01*
X152510268Y-81604819D02*
X152605506Y-81652438D01*
X152605506Y-81652438D02*
X152653125Y-81700057D01*
X152653125Y-81700057D02*
X152700744Y-81795295D01*
X152700744Y-81795295D02*
X152700744Y-81842914D01*
X152700744Y-81842914D02*
X152653125Y-81938152D01*
X152653125Y-81938152D02*
X152605506Y-81985771D01*
X152605506Y-81985771D02*
X152510268Y-82033390D01*
X152510268Y-82033390D02*
X152319792Y-82033390D01*
X152319792Y-82033390D02*
X152224554Y-82081009D01*
X152224554Y-82081009D02*
X152176935Y-82128628D01*
X152176935Y-82128628D02*
X152129316Y-82223866D01*
X152129316Y-82223866D02*
X152129316Y-82414342D01*
X152129316Y-82414342D02*
X152176935Y-82509580D01*
X152176935Y-82509580D02*
X152224554Y-82557200D01*
X152224554Y-82557200D02*
X152319792Y-82604819D01*
X152319792Y-82604819D02*
X152510268Y-82604819D01*
X152510268Y-82604819D02*
X152605506Y-82557200D01*
X152605506Y-82557200D02*
X152653125Y-82509580D01*
X152653125Y-82509580D02*
X152700744Y-82414342D01*
X152700744Y-82414342D02*
X152700744Y-82223866D01*
X152700744Y-82223866D02*
X152653125Y-82128628D01*
X152653125Y-82128628D02*
X152605506Y-82081009D01*
X152605506Y-82081009D02*
X152510268Y-82033390D01*
X144295982Y-76454819D02*
X143962649Y-75978628D01*
X143724554Y-76454819D02*
X143724554Y-75454819D01*
X143724554Y-75454819D02*
X144105506Y-75454819D01*
X144105506Y-75454819D02*
X144200744Y-75502438D01*
X144200744Y-75502438D02*
X144248363Y-75550057D01*
X144248363Y-75550057D02*
X144295982Y-75645295D01*
X144295982Y-75645295D02*
X144295982Y-75788152D01*
X144295982Y-75788152D02*
X144248363Y-75883390D01*
X144248363Y-75883390D02*
X144200744Y-75931009D01*
X144200744Y-75931009D02*
X144105506Y-75978628D01*
X144105506Y-75978628D02*
X143724554Y-75978628D01*
X145248363Y-76454819D02*
X144676935Y-76454819D01*
X144962649Y-76454819D02*
X144962649Y-75454819D01*
X144962649Y-75454819D02*
X144867411Y-75597676D01*
X144867411Y-75597676D02*
X144772173Y-75692914D01*
X144772173Y-75692914D02*
X144676935Y-75740533D01*
X145581697Y-75454819D02*
X146248363Y-75454819D01*
X146248363Y-75454819D02*
X145819792Y-76454819D01*
X146295982Y-104039580D02*
X146248363Y-104087200D01*
X146248363Y-104087200D02*
X146105506Y-104134819D01*
X146105506Y-104134819D02*
X146010268Y-104134819D01*
X146010268Y-104134819D02*
X145867411Y-104087200D01*
X145867411Y-104087200D02*
X145772173Y-103991961D01*
X145772173Y-103991961D02*
X145724554Y-103896723D01*
X145724554Y-103896723D02*
X145676935Y-103706247D01*
X145676935Y-103706247D02*
X145676935Y-103563390D01*
X145676935Y-103563390D02*
X145724554Y-103372914D01*
X145724554Y-103372914D02*
X145772173Y-103277676D01*
X145772173Y-103277676D02*
X145867411Y-103182438D01*
X145867411Y-103182438D02*
X146010268Y-103134819D01*
X146010268Y-103134819D02*
X146105506Y-103134819D01*
X146105506Y-103134819D02*
X146248363Y-103182438D01*
X146248363Y-103182438D02*
X146295982Y-103230057D01*
X147248363Y-104134819D02*
X146676935Y-104134819D01*
X146962649Y-104134819D02*
X146962649Y-103134819D01*
X146962649Y-103134819D02*
X146867411Y-103277676D01*
X146867411Y-103277676D02*
X146772173Y-103372914D01*
X146772173Y-103372914D02*
X146676935Y-103420533D01*
X147867411Y-103134819D02*
X147962649Y-103134819D01*
X147962649Y-103134819D02*
X148057887Y-103182438D01*
X148057887Y-103182438D02*
X148105506Y-103230057D01*
X148105506Y-103230057D02*
X148153125Y-103325295D01*
X148153125Y-103325295D02*
X148200744Y-103515771D01*
X148200744Y-103515771D02*
X148200744Y-103753866D01*
X148200744Y-103753866D02*
X148153125Y-103944342D01*
X148153125Y-103944342D02*
X148105506Y-104039580D01*
X148105506Y-104039580D02*
X148057887Y-104087200D01*
X148057887Y-104087200D02*
X147962649Y-104134819D01*
X147962649Y-104134819D02*
X147867411Y-104134819D01*
X147867411Y-104134819D02*
X147772173Y-104087200D01*
X147772173Y-104087200D02*
X147724554Y-104039580D01*
X147724554Y-104039580D02*
X147676935Y-103944342D01*
X147676935Y-103944342D02*
X147629316Y-103753866D01*
X147629316Y-103753866D02*
X147629316Y-103515771D01*
X147629316Y-103515771D02*
X147676935Y-103325295D01*
X147676935Y-103325295D02*
X147724554Y-103230057D01*
X147724554Y-103230057D02*
X147772173Y-103182438D01*
X147772173Y-103182438D02*
X147867411Y-103134819D01*
X145795982Y-87454819D02*
X145462649Y-86978628D01*
X145224554Y-87454819D02*
X145224554Y-86454819D01*
X145224554Y-86454819D02*
X145605506Y-86454819D01*
X145605506Y-86454819D02*
X145700744Y-86502438D01*
X145700744Y-86502438D02*
X145748363Y-86550057D01*
X145748363Y-86550057D02*
X145795982Y-86645295D01*
X145795982Y-86645295D02*
X145795982Y-86788152D01*
X145795982Y-86788152D02*
X145748363Y-86883390D01*
X145748363Y-86883390D02*
X145700744Y-86931009D01*
X145700744Y-86931009D02*
X145605506Y-86978628D01*
X145605506Y-86978628D02*
X145224554Y-86978628D01*
X146748363Y-87454819D02*
X146176935Y-87454819D01*
X146462649Y-87454819D02*
X146462649Y-86454819D01*
X146462649Y-86454819D02*
X146367411Y-86597676D01*
X146367411Y-86597676D02*
X146272173Y-86692914D01*
X146272173Y-86692914D02*
X146176935Y-86740533D01*
X147605506Y-86454819D02*
X147415030Y-86454819D01*
X147415030Y-86454819D02*
X147319792Y-86502438D01*
X147319792Y-86502438D02*
X147272173Y-86550057D01*
X147272173Y-86550057D02*
X147176935Y-86692914D01*
X147176935Y-86692914D02*
X147129316Y-86883390D01*
X147129316Y-86883390D02*
X147129316Y-87264342D01*
X147129316Y-87264342D02*
X147176935Y-87359580D01*
X147176935Y-87359580D02*
X147224554Y-87407200D01*
X147224554Y-87407200D02*
X147319792Y-87454819D01*
X147319792Y-87454819D02*
X147510268Y-87454819D01*
X147510268Y-87454819D02*
X147605506Y-87407200D01*
X147605506Y-87407200D02*
X147653125Y-87359580D01*
X147653125Y-87359580D02*
X147700744Y-87264342D01*
X147700744Y-87264342D02*
X147700744Y-87026247D01*
X147700744Y-87026247D02*
X147653125Y-86931009D01*
X147653125Y-86931009D02*
X147605506Y-86883390D01*
X147605506Y-86883390D02*
X147510268Y-86835771D01*
X147510268Y-86835771D02*
X147319792Y-86835771D01*
X147319792Y-86835771D02*
X147224554Y-86883390D01*
X147224554Y-86883390D02*
X147176935Y-86931009D01*
X147176935Y-86931009D02*
X147129316Y-87026247D01*
X135700745Y-110454819D02*
X135700745Y-109454819D01*
X135700745Y-109454819D02*
X135938840Y-109454819D01*
X135938840Y-109454819D02*
X136081697Y-109502438D01*
X136081697Y-109502438D02*
X136176935Y-109597676D01*
X136176935Y-109597676D02*
X136224554Y-109692914D01*
X136224554Y-109692914D02*
X136272173Y-109883390D01*
X136272173Y-109883390D02*
X136272173Y-110026247D01*
X136272173Y-110026247D02*
X136224554Y-110216723D01*
X136224554Y-110216723D02*
X136176935Y-110311961D01*
X136176935Y-110311961D02*
X136081697Y-110407200D01*
X136081697Y-110407200D02*
X135938840Y-110454819D01*
X135938840Y-110454819D02*
X135700745Y-110454819D01*
X137176935Y-109454819D02*
X136700745Y-109454819D01*
X136700745Y-109454819D02*
X136653126Y-109931009D01*
X136653126Y-109931009D02*
X136700745Y-109883390D01*
X136700745Y-109883390D02*
X136795983Y-109835771D01*
X136795983Y-109835771D02*
X137034078Y-109835771D01*
X137034078Y-109835771D02*
X137129316Y-109883390D01*
X137129316Y-109883390D02*
X137176935Y-109931009D01*
X137176935Y-109931009D02*
X137224554Y-110026247D01*
X137224554Y-110026247D02*
X137224554Y-110264342D01*
X137224554Y-110264342D02*
X137176935Y-110359580D01*
X137176935Y-110359580D02*
X137129316Y-110407200D01*
X137129316Y-110407200D02*
X137034078Y-110454819D01*
X137034078Y-110454819D02*
X136795983Y-110454819D01*
X136795983Y-110454819D02*
X136700745Y-110407200D01*
X136700745Y-110407200D02*
X136653126Y-110359580D01*
X150795982Y-76304819D02*
X150462649Y-75828628D01*
X150224554Y-76304819D02*
X150224554Y-75304819D01*
X150224554Y-75304819D02*
X150605506Y-75304819D01*
X150605506Y-75304819D02*
X150700744Y-75352438D01*
X150700744Y-75352438D02*
X150748363Y-75400057D01*
X150748363Y-75400057D02*
X150795982Y-75495295D01*
X150795982Y-75495295D02*
X150795982Y-75638152D01*
X150795982Y-75638152D02*
X150748363Y-75733390D01*
X150748363Y-75733390D02*
X150700744Y-75781009D01*
X150700744Y-75781009D02*
X150605506Y-75828628D01*
X150605506Y-75828628D02*
X150224554Y-75828628D01*
X151748363Y-76304819D02*
X151176935Y-76304819D01*
X151462649Y-76304819D02*
X151462649Y-75304819D01*
X151462649Y-75304819D02*
X151367411Y-75447676D01*
X151367411Y-75447676D02*
X151272173Y-75542914D01*
X151272173Y-75542914D02*
X151176935Y-75590533D01*
X152224554Y-76304819D02*
X152415030Y-76304819D01*
X152415030Y-76304819D02*
X152510268Y-76257200D01*
X152510268Y-76257200D02*
X152557887Y-76209580D01*
X152557887Y-76209580D02*
X152653125Y-76066723D01*
X152653125Y-76066723D02*
X152700744Y-75876247D01*
X152700744Y-75876247D02*
X152700744Y-75495295D01*
X152700744Y-75495295D02*
X152653125Y-75400057D01*
X152653125Y-75400057D02*
X152605506Y-75352438D01*
X152605506Y-75352438D02*
X152510268Y-75304819D01*
X152510268Y-75304819D02*
X152319792Y-75304819D01*
X152319792Y-75304819D02*
X152224554Y-75352438D01*
X152224554Y-75352438D02*
X152176935Y-75400057D01*
X152176935Y-75400057D02*
X152129316Y-75495295D01*
X152129316Y-75495295D02*
X152129316Y-75733390D01*
X152129316Y-75733390D02*
X152176935Y-75828628D01*
X152176935Y-75828628D02*
X152224554Y-75876247D01*
X152224554Y-75876247D02*
X152319792Y-75923866D01*
X152319792Y-75923866D02*
X152510268Y-75923866D01*
X152510268Y-75923866D02*
X152605506Y-75876247D01*
X152605506Y-75876247D02*
X152653125Y-75828628D01*
X152653125Y-75828628D02*
X152700744Y-75733390D01*
X143272173Y-98454819D02*
X142795983Y-98454819D01*
X142795983Y-98454819D02*
X142795983Y-97454819D01*
X144129316Y-98454819D02*
X143557888Y-98454819D01*
X143843602Y-98454819D02*
X143843602Y-97454819D01*
X143843602Y-97454819D02*
X143748364Y-97597676D01*
X143748364Y-97597676D02*
X143653126Y-97692914D01*
X143653126Y-97692914D02*
X143557888Y-97740533D01*
X118295982Y-122804819D02*
X117962649Y-122328628D01*
X117724554Y-122804819D02*
X117724554Y-121804819D01*
X117724554Y-121804819D02*
X118105506Y-121804819D01*
X118105506Y-121804819D02*
X118200744Y-121852438D01*
X118200744Y-121852438D02*
X118248363Y-121900057D01*
X118248363Y-121900057D02*
X118295982Y-121995295D01*
X118295982Y-121995295D02*
X118295982Y-122138152D01*
X118295982Y-122138152D02*
X118248363Y-122233390D01*
X118248363Y-122233390D02*
X118200744Y-122281009D01*
X118200744Y-122281009D02*
X118105506Y-122328628D01*
X118105506Y-122328628D02*
X117724554Y-122328628D01*
X119248363Y-122804819D02*
X118676935Y-122804819D01*
X118962649Y-122804819D02*
X118962649Y-121804819D01*
X118962649Y-121804819D02*
X118867411Y-121947676D01*
X118867411Y-121947676D02*
X118772173Y-122042914D01*
X118772173Y-122042914D02*
X118676935Y-122090533D01*
X119867411Y-121804819D02*
X119962649Y-121804819D01*
X119962649Y-121804819D02*
X120057887Y-121852438D01*
X120057887Y-121852438D02*
X120105506Y-121900057D01*
X120105506Y-121900057D02*
X120153125Y-121995295D01*
X120153125Y-121995295D02*
X120200744Y-122185771D01*
X120200744Y-122185771D02*
X120200744Y-122423866D01*
X120200744Y-122423866D02*
X120153125Y-122614342D01*
X120153125Y-122614342D02*
X120105506Y-122709580D01*
X120105506Y-122709580D02*
X120057887Y-122757200D01*
X120057887Y-122757200D02*
X119962649Y-122804819D01*
X119962649Y-122804819D02*
X119867411Y-122804819D01*
X119867411Y-122804819D02*
X119772173Y-122757200D01*
X119772173Y-122757200D02*
X119724554Y-122709580D01*
X119724554Y-122709580D02*
X119676935Y-122614342D01*
X119676935Y-122614342D02*
X119629316Y-122423866D01*
X119629316Y-122423866D02*
X119629316Y-122185771D01*
X119629316Y-122185771D02*
X119676935Y-121995295D01*
X119676935Y-121995295D02*
X119724554Y-121900057D01*
X119724554Y-121900057D02*
X119772173Y-121852438D01*
X119772173Y-121852438D02*
X119867411Y-121804819D01*
X117243659Y-132142857D02*
X116767468Y-132476190D01*
X117243659Y-132714285D02*
X116243659Y-132714285D01*
X116243659Y-132714285D02*
X116243659Y-132333333D01*
X116243659Y-132333333D02*
X116291278Y-132238095D01*
X116291278Y-132238095D02*
X116338897Y-132190476D01*
X116338897Y-132190476D02*
X116434135Y-132142857D01*
X116434135Y-132142857D02*
X116576992Y-132142857D01*
X116576992Y-132142857D02*
X116672230Y-132190476D01*
X116672230Y-132190476D02*
X116719849Y-132238095D01*
X116719849Y-132238095D02*
X116767468Y-132333333D01*
X116767468Y-132333333D02*
X116767468Y-132714285D01*
X117243659Y-131190476D02*
X117243659Y-131761904D01*
X117243659Y-131476190D02*
X116243659Y-131476190D01*
X116243659Y-131476190D02*
X116386516Y-131571428D01*
X116386516Y-131571428D02*
X116481754Y-131666666D01*
X116481754Y-131666666D02*
X116529373Y-131761904D01*
X116338897Y-130809523D02*
X116291278Y-130761904D01*
X116291278Y-130761904D02*
X116243659Y-130666666D01*
X116243659Y-130666666D02*
X116243659Y-130428571D01*
X116243659Y-130428571D02*
X116291278Y-130333333D01*
X116291278Y-130333333D02*
X116338897Y-130285714D01*
X116338897Y-130285714D02*
X116434135Y-130238095D01*
X116434135Y-130238095D02*
X116529373Y-130238095D01*
X116529373Y-130238095D02*
X116672230Y-130285714D01*
X116672230Y-130285714D02*
X117243659Y-130857142D01*
X117243659Y-130857142D02*
X117243659Y-130238095D01*
X118602173Y-117504580D02*
X118554554Y-117552200D01*
X118554554Y-117552200D02*
X118411697Y-117599819D01*
X118411697Y-117599819D02*
X118316459Y-117599819D01*
X118316459Y-117599819D02*
X118173602Y-117552200D01*
X118173602Y-117552200D02*
X118078364Y-117456961D01*
X118078364Y-117456961D02*
X118030745Y-117361723D01*
X118030745Y-117361723D02*
X117983126Y-117171247D01*
X117983126Y-117171247D02*
X117983126Y-117028390D01*
X117983126Y-117028390D02*
X118030745Y-116837914D01*
X118030745Y-116837914D02*
X118078364Y-116742676D01*
X118078364Y-116742676D02*
X118173602Y-116647438D01*
X118173602Y-116647438D02*
X118316459Y-116599819D01*
X118316459Y-116599819D02*
X118411697Y-116599819D01*
X118411697Y-116599819D02*
X118554554Y-116647438D01*
X118554554Y-116647438D02*
X118602173Y-116695057D01*
X119173602Y-117028390D02*
X119078364Y-116980771D01*
X119078364Y-116980771D02*
X119030745Y-116933152D01*
X119030745Y-116933152D02*
X118983126Y-116837914D01*
X118983126Y-116837914D02*
X118983126Y-116790295D01*
X118983126Y-116790295D02*
X119030745Y-116695057D01*
X119030745Y-116695057D02*
X119078364Y-116647438D01*
X119078364Y-116647438D02*
X119173602Y-116599819D01*
X119173602Y-116599819D02*
X119364078Y-116599819D01*
X119364078Y-116599819D02*
X119459316Y-116647438D01*
X119459316Y-116647438D02*
X119506935Y-116695057D01*
X119506935Y-116695057D02*
X119554554Y-116790295D01*
X119554554Y-116790295D02*
X119554554Y-116837914D01*
X119554554Y-116837914D02*
X119506935Y-116933152D01*
X119506935Y-116933152D02*
X119459316Y-116980771D01*
X119459316Y-116980771D02*
X119364078Y-117028390D01*
X119364078Y-117028390D02*
X119173602Y-117028390D01*
X119173602Y-117028390D02*
X119078364Y-117076009D01*
X119078364Y-117076009D02*
X119030745Y-117123628D01*
X119030745Y-117123628D02*
X118983126Y-117218866D01*
X118983126Y-117218866D02*
X118983126Y-117409342D01*
X118983126Y-117409342D02*
X119030745Y-117504580D01*
X119030745Y-117504580D02*
X119078364Y-117552200D01*
X119078364Y-117552200D02*
X119173602Y-117599819D01*
X119173602Y-117599819D02*
X119364078Y-117599819D01*
X119364078Y-117599819D02*
X119459316Y-117552200D01*
X119459316Y-117552200D02*
X119506935Y-117504580D01*
X119506935Y-117504580D02*
X119554554Y-117409342D01*
X119554554Y-117409342D02*
X119554554Y-117218866D01*
X119554554Y-117218866D02*
X119506935Y-117123628D01*
X119506935Y-117123628D02*
X119459316Y-117076009D01*
X119459316Y-117076009D02*
X119364078Y-117028390D01*
X121243659Y-127642857D02*
X120767468Y-127976190D01*
X121243659Y-128214285D02*
X120243659Y-128214285D01*
X120243659Y-128214285D02*
X120243659Y-127833333D01*
X120243659Y-127833333D02*
X120291278Y-127738095D01*
X120291278Y-127738095D02*
X120338897Y-127690476D01*
X120338897Y-127690476D02*
X120434135Y-127642857D01*
X120434135Y-127642857D02*
X120576992Y-127642857D01*
X120576992Y-127642857D02*
X120672230Y-127690476D01*
X120672230Y-127690476D02*
X120719849Y-127738095D01*
X120719849Y-127738095D02*
X120767468Y-127833333D01*
X120767468Y-127833333D02*
X120767468Y-128214285D01*
X121243659Y-126690476D02*
X121243659Y-127261904D01*
X121243659Y-126976190D02*
X120243659Y-126976190D01*
X120243659Y-126976190D02*
X120386516Y-127071428D01*
X120386516Y-127071428D02*
X120481754Y-127166666D01*
X120481754Y-127166666D02*
X120529373Y-127261904D01*
X121243659Y-125738095D02*
X121243659Y-126309523D01*
X121243659Y-126023809D02*
X120243659Y-126023809D01*
X120243659Y-126023809D02*
X120386516Y-126119047D01*
X120386516Y-126119047D02*
X120481754Y-126214285D01*
X120481754Y-126214285D02*
X120529373Y-126309523D01*
X137795982Y-137859580D02*
X137748363Y-137907200D01*
X137748363Y-137907200D02*
X137605506Y-137954819D01*
X137605506Y-137954819D02*
X137510268Y-137954819D01*
X137510268Y-137954819D02*
X137367411Y-137907200D01*
X137367411Y-137907200D02*
X137272173Y-137811961D01*
X137272173Y-137811961D02*
X137224554Y-137716723D01*
X137224554Y-137716723D02*
X137176935Y-137526247D01*
X137176935Y-137526247D02*
X137176935Y-137383390D01*
X137176935Y-137383390D02*
X137224554Y-137192914D01*
X137224554Y-137192914D02*
X137272173Y-137097676D01*
X137272173Y-137097676D02*
X137367411Y-137002438D01*
X137367411Y-137002438D02*
X137510268Y-136954819D01*
X137510268Y-136954819D02*
X137605506Y-136954819D01*
X137605506Y-136954819D02*
X137748363Y-137002438D01*
X137748363Y-137002438D02*
X137795982Y-137050057D01*
X138748363Y-137954819D02*
X138176935Y-137954819D01*
X138462649Y-137954819D02*
X138462649Y-136954819D01*
X138462649Y-136954819D02*
X138367411Y-137097676D01*
X138367411Y-137097676D02*
X138272173Y-137192914D01*
X138272173Y-137192914D02*
X138176935Y-137240533D01*
X139319792Y-137383390D02*
X139224554Y-137335771D01*
X139224554Y-137335771D02*
X139176935Y-137288152D01*
X139176935Y-137288152D02*
X139129316Y-137192914D01*
X139129316Y-137192914D02*
X139129316Y-137145295D01*
X139129316Y-137145295D02*
X139176935Y-137050057D01*
X139176935Y-137050057D02*
X139224554Y-137002438D01*
X139224554Y-137002438D02*
X139319792Y-136954819D01*
X139319792Y-136954819D02*
X139510268Y-136954819D01*
X139510268Y-136954819D02*
X139605506Y-137002438D01*
X139605506Y-137002438D02*
X139653125Y-137050057D01*
X139653125Y-137050057D02*
X139700744Y-137145295D01*
X139700744Y-137145295D02*
X139700744Y-137192914D01*
X139700744Y-137192914D02*
X139653125Y-137288152D01*
X139653125Y-137288152D02*
X139605506Y-137335771D01*
X139605506Y-137335771D02*
X139510268Y-137383390D01*
X139510268Y-137383390D02*
X139319792Y-137383390D01*
X139319792Y-137383390D02*
X139224554Y-137431009D01*
X139224554Y-137431009D02*
X139176935Y-137478628D01*
X139176935Y-137478628D02*
X139129316Y-137573866D01*
X139129316Y-137573866D02*
X139129316Y-137764342D01*
X139129316Y-137764342D02*
X139176935Y-137859580D01*
X139176935Y-137859580D02*
X139224554Y-137907200D01*
X139224554Y-137907200D02*
X139319792Y-137954819D01*
X139319792Y-137954819D02*
X139510268Y-137954819D01*
X139510268Y-137954819D02*
X139605506Y-137907200D01*
X139605506Y-137907200D02*
X139653125Y-137859580D01*
X139653125Y-137859580D02*
X139700744Y-137764342D01*
X139700744Y-137764342D02*
X139700744Y-137573866D01*
X139700744Y-137573866D02*
X139653125Y-137478628D01*
X139653125Y-137478628D02*
X139605506Y-137431009D01*
X139605506Y-137431009D02*
X139510268Y-137383390D01*
X128795982Y-137859580D02*
X128748363Y-137907200D01*
X128748363Y-137907200D02*
X128605506Y-137954819D01*
X128605506Y-137954819D02*
X128510268Y-137954819D01*
X128510268Y-137954819D02*
X128367411Y-137907200D01*
X128367411Y-137907200D02*
X128272173Y-137811961D01*
X128272173Y-137811961D02*
X128224554Y-137716723D01*
X128224554Y-137716723D02*
X128176935Y-137526247D01*
X128176935Y-137526247D02*
X128176935Y-137383390D01*
X128176935Y-137383390D02*
X128224554Y-137192914D01*
X128224554Y-137192914D02*
X128272173Y-137097676D01*
X128272173Y-137097676D02*
X128367411Y-137002438D01*
X128367411Y-137002438D02*
X128510268Y-136954819D01*
X128510268Y-136954819D02*
X128605506Y-136954819D01*
X128605506Y-136954819D02*
X128748363Y-137002438D01*
X128748363Y-137002438D02*
X128795982Y-137050057D01*
X129748363Y-137954819D02*
X129176935Y-137954819D01*
X129462649Y-137954819D02*
X129462649Y-136954819D01*
X129462649Y-136954819D02*
X129367411Y-137097676D01*
X129367411Y-137097676D02*
X129272173Y-137192914D01*
X129272173Y-137192914D02*
X129176935Y-137240533D01*
X130653125Y-136954819D02*
X130176935Y-136954819D01*
X130176935Y-136954819D02*
X130129316Y-137431009D01*
X130129316Y-137431009D02*
X130176935Y-137383390D01*
X130176935Y-137383390D02*
X130272173Y-137335771D01*
X130272173Y-137335771D02*
X130510268Y-137335771D01*
X130510268Y-137335771D02*
X130605506Y-137383390D01*
X130605506Y-137383390D02*
X130653125Y-137431009D01*
X130653125Y-137431009D02*
X130700744Y-137526247D01*
X130700744Y-137526247D02*
X130700744Y-137764342D01*
X130700744Y-137764342D02*
X130653125Y-137859580D01*
X130653125Y-137859580D02*
X130605506Y-137907200D01*
X130605506Y-137907200D02*
X130510268Y-137954819D01*
X130510268Y-137954819D02*
X130272173Y-137954819D01*
X130272173Y-137954819D02*
X130176935Y-137907200D01*
X130176935Y-137907200D02*
X130129316Y-137859580D01*
X146478420Y-56142857D02*
X146526040Y-56190476D01*
X146526040Y-56190476D02*
X146573659Y-56333333D01*
X146573659Y-56333333D02*
X146573659Y-56428571D01*
X146573659Y-56428571D02*
X146526040Y-56571428D01*
X146526040Y-56571428D02*
X146430801Y-56666666D01*
X146430801Y-56666666D02*
X146335563Y-56714285D01*
X146335563Y-56714285D02*
X146145087Y-56761904D01*
X146145087Y-56761904D02*
X146002230Y-56761904D01*
X146002230Y-56761904D02*
X145811754Y-56714285D01*
X145811754Y-56714285D02*
X145716516Y-56666666D01*
X145716516Y-56666666D02*
X145621278Y-56571428D01*
X145621278Y-56571428D02*
X145573659Y-56428571D01*
X145573659Y-56428571D02*
X145573659Y-56333333D01*
X145573659Y-56333333D02*
X145621278Y-56190476D01*
X145621278Y-56190476D02*
X145668897Y-56142857D01*
X145573659Y-55809523D02*
X145573659Y-55190476D01*
X145573659Y-55190476D02*
X145954611Y-55523809D01*
X145954611Y-55523809D02*
X145954611Y-55380952D01*
X145954611Y-55380952D02*
X146002230Y-55285714D01*
X146002230Y-55285714D02*
X146049849Y-55238095D01*
X146049849Y-55238095D02*
X146145087Y-55190476D01*
X146145087Y-55190476D02*
X146383182Y-55190476D01*
X146383182Y-55190476D02*
X146478420Y-55238095D01*
X146478420Y-55238095D02*
X146526040Y-55285714D01*
X146526040Y-55285714D02*
X146573659Y-55380952D01*
X146573659Y-55380952D02*
X146573659Y-55666666D01*
X146573659Y-55666666D02*
X146526040Y-55761904D01*
X146526040Y-55761904D02*
X146478420Y-55809523D01*
X145906992Y-54333333D02*
X146573659Y-54333333D01*
X145526040Y-54571428D02*
X146240325Y-54809523D01*
X146240325Y-54809523D02*
X146240325Y-54190476D01*
X131795982Y-137859580D02*
X131748363Y-137907200D01*
X131748363Y-137907200D02*
X131605506Y-137954819D01*
X131605506Y-137954819D02*
X131510268Y-137954819D01*
X131510268Y-137954819D02*
X131367411Y-137907200D01*
X131367411Y-137907200D02*
X131272173Y-137811961D01*
X131272173Y-137811961D02*
X131224554Y-137716723D01*
X131224554Y-137716723D02*
X131176935Y-137526247D01*
X131176935Y-137526247D02*
X131176935Y-137383390D01*
X131176935Y-137383390D02*
X131224554Y-137192914D01*
X131224554Y-137192914D02*
X131272173Y-137097676D01*
X131272173Y-137097676D02*
X131367411Y-137002438D01*
X131367411Y-137002438D02*
X131510268Y-136954819D01*
X131510268Y-136954819D02*
X131605506Y-136954819D01*
X131605506Y-136954819D02*
X131748363Y-137002438D01*
X131748363Y-137002438D02*
X131795982Y-137050057D01*
X132748363Y-137954819D02*
X132176935Y-137954819D01*
X132462649Y-137954819D02*
X132462649Y-136954819D01*
X132462649Y-136954819D02*
X132367411Y-137097676D01*
X132367411Y-137097676D02*
X132272173Y-137192914D01*
X132272173Y-137192914D02*
X132176935Y-137240533D01*
X133081697Y-136954819D02*
X133700744Y-136954819D01*
X133700744Y-136954819D02*
X133367411Y-137335771D01*
X133367411Y-137335771D02*
X133510268Y-137335771D01*
X133510268Y-137335771D02*
X133605506Y-137383390D01*
X133605506Y-137383390D02*
X133653125Y-137431009D01*
X133653125Y-137431009D02*
X133700744Y-137526247D01*
X133700744Y-137526247D02*
X133700744Y-137764342D01*
X133700744Y-137764342D02*
X133653125Y-137859580D01*
X133653125Y-137859580D02*
X133605506Y-137907200D01*
X133605506Y-137907200D02*
X133510268Y-137954819D01*
X133510268Y-137954819D02*
X133224554Y-137954819D01*
X133224554Y-137954819D02*
X133129316Y-137907200D01*
X133129316Y-137907200D02*
X133081697Y-137859580D01*
X125795982Y-137859580D02*
X125748363Y-137907200D01*
X125748363Y-137907200D02*
X125605506Y-137954819D01*
X125605506Y-137954819D02*
X125510268Y-137954819D01*
X125510268Y-137954819D02*
X125367411Y-137907200D01*
X125367411Y-137907200D02*
X125272173Y-137811961D01*
X125272173Y-137811961D02*
X125224554Y-137716723D01*
X125224554Y-137716723D02*
X125176935Y-137526247D01*
X125176935Y-137526247D02*
X125176935Y-137383390D01*
X125176935Y-137383390D02*
X125224554Y-137192914D01*
X125224554Y-137192914D02*
X125272173Y-137097676D01*
X125272173Y-137097676D02*
X125367411Y-137002438D01*
X125367411Y-137002438D02*
X125510268Y-136954819D01*
X125510268Y-136954819D02*
X125605506Y-136954819D01*
X125605506Y-136954819D02*
X125748363Y-137002438D01*
X125748363Y-137002438D02*
X125795982Y-137050057D01*
X126176935Y-137050057D02*
X126224554Y-137002438D01*
X126224554Y-137002438D02*
X126319792Y-136954819D01*
X126319792Y-136954819D02*
X126557887Y-136954819D01*
X126557887Y-136954819D02*
X126653125Y-137002438D01*
X126653125Y-137002438D02*
X126700744Y-137050057D01*
X126700744Y-137050057D02*
X126748363Y-137145295D01*
X126748363Y-137145295D02*
X126748363Y-137240533D01*
X126748363Y-137240533D02*
X126700744Y-137383390D01*
X126700744Y-137383390D02*
X126129316Y-137954819D01*
X126129316Y-137954819D02*
X126748363Y-137954819D01*
X127367411Y-136954819D02*
X127462649Y-136954819D01*
X127462649Y-136954819D02*
X127557887Y-137002438D01*
X127557887Y-137002438D02*
X127605506Y-137050057D01*
X127605506Y-137050057D02*
X127653125Y-137145295D01*
X127653125Y-137145295D02*
X127700744Y-137335771D01*
X127700744Y-137335771D02*
X127700744Y-137573866D01*
X127700744Y-137573866D02*
X127653125Y-137764342D01*
X127653125Y-137764342D02*
X127605506Y-137859580D01*
X127605506Y-137859580D02*
X127557887Y-137907200D01*
X127557887Y-137907200D02*
X127462649Y-137954819D01*
X127462649Y-137954819D02*
X127367411Y-137954819D01*
X127367411Y-137954819D02*
X127272173Y-137907200D01*
X127272173Y-137907200D02*
X127224554Y-137859580D01*
X127224554Y-137859580D02*
X127176935Y-137764342D01*
X127176935Y-137764342D02*
X127129316Y-137573866D01*
X127129316Y-137573866D02*
X127129316Y-137335771D01*
X127129316Y-137335771D02*
X127176935Y-137145295D01*
X127176935Y-137145295D02*
X127224554Y-137050057D01*
X127224554Y-137050057D02*
X127272173Y-137002438D01*
X127272173Y-137002438D02*
X127367411Y-136954819D01*
X134795982Y-137859580D02*
X134748363Y-137907200D01*
X134748363Y-137907200D02*
X134605506Y-137954819D01*
X134605506Y-137954819D02*
X134510268Y-137954819D01*
X134510268Y-137954819D02*
X134367411Y-137907200D01*
X134367411Y-137907200D02*
X134272173Y-137811961D01*
X134272173Y-137811961D02*
X134224554Y-137716723D01*
X134224554Y-137716723D02*
X134176935Y-137526247D01*
X134176935Y-137526247D02*
X134176935Y-137383390D01*
X134176935Y-137383390D02*
X134224554Y-137192914D01*
X134224554Y-137192914D02*
X134272173Y-137097676D01*
X134272173Y-137097676D02*
X134367411Y-137002438D01*
X134367411Y-137002438D02*
X134510268Y-136954819D01*
X134510268Y-136954819D02*
X134605506Y-136954819D01*
X134605506Y-136954819D02*
X134748363Y-137002438D01*
X134748363Y-137002438D02*
X134795982Y-137050057D01*
X135748363Y-137954819D02*
X135176935Y-137954819D01*
X135462649Y-137954819D02*
X135462649Y-136954819D01*
X135462649Y-136954819D02*
X135367411Y-137097676D01*
X135367411Y-137097676D02*
X135272173Y-137192914D01*
X135272173Y-137192914D02*
X135176935Y-137240533D01*
X136224554Y-137954819D02*
X136415030Y-137954819D01*
X136415030Y-137954819D02*
X136510268Y-137907200D01*
X136510268Y-137907200D02*
X136557887Y-137859580D01*
X136557887Y-137859580D02*
X136653125Y-137716723D01*
X136653125Y-137716723D02*
X136700744Y-137526247D01*
X136700744Y-137526247D02*
X136700744Y-137145295D01*
X136700744Y-137145295D02*
X136653125Y-137050057D01*
X136653125Y-137050057D02*
X136605506Y-137002438D01*
X136605506Y-137002438D02*
X136510268Y-136954819D01*
X136510268Y-136954819D02*
X136319792Y-136954819D01*
X136319792Y-136954819D02*
X136224554Y-137002438D01*
X136224554Y-137002438D02*
X136176935Y-137050057D01*
X136176935Y-137050057D02*
X136129316Y-137145295D01*
X136129316Y-137145295D02*
X136129316Y-137383390D01*
X136129316Y-137383390D02*
X136176935Y-137478628D01*
X136176935Y-137478628D02*
X136224554Y-137526247D01*
X136224554Y-137526247D02*
X136319792Y-137573866D01*
X136319792Y-137573866D02*
X136510268Y-137573866D01*
X136510268Y-137573866D02*
X136605506Y-137526247D01*
X136605506Y-137526247D02*
X136653125Y-137478628D01*
X136653125Y-137478628D02*
X136700744Y-137383390D01*
X166295982Y-52679580D02*
X166248363Y-52727200D01*
X166248363Y-52727200D02*
X166105506Y-52774819D01*
X166105506Y-52774819D02*
X166010268Y-52774819D01*
X166010268Y-52774819D02*
X165867411Y-52727200D01*
X165867411Y-52727200D02*
X165772173Y-52631961D01*
X165772173Y-52631961D02*
X165724554Y-52536723D01*
X165724554Y-52536723D02*
X165676935Y-52346247D01*
X165676935Y-52346247D02*
X165676935Y-52203390D01*
X165676935Y-52203390D02*
X165724554Y-52012914D01*
X165724554Y-52012914D02*
X165772173Y-51917676D01*
X165772173Y-51917676D02*
X165867411Y-51822438D01*
X165867411Y-51822438D02*
X166010268Y-51774819D01*
X166010268Y-51774819D02*
X166105506Y-51774819D01*
X166105506Y-51774819D02*
X166248363Y-51822438D01*
X166248363Y-51822438D02*
X166295982Y-51870057D01*
X166629316Y-51774819D02*
X167248363Y-51774819D01*
X167248363Y-51774819D02*
X166915030Y-52155771D01*
X166915030Y-52155771D02*
X167057887Y-52155771D01*
X167057887Y-52155771D02*
X167153125Y-52203390D01*
X167153125Y-52203390D02*
X167200744Y-52251009D01*
X167200744Y-52251009D02*
X167248363Y-52346247D01*
X167248363Y-52346247D02*
X167248363Y-52584342D01*
X167248363Y-52584342D02*
X167200744Y-52679580D01*
X167200744Y-52679580D02*
X167153125Y-52727200D01*
X167153125Y-52727200D02*
X167057887Y-52774819D01*
X167057887Y-52774819D02*
X166772173Y-52774819D01*
X166772173Y-52774819D02*
X166676935Y-52727200D01*
X166676935Y-52727200D02*
X166629316Y-52679580D01*
X168153125Y-51774819D02*
X167676935Y-51774819D01*
X167676935Y-51774819D02*
X167629316Y-52251009D01*
X167629316Y-52251009D02*
X167676935Y-52203390D01*
X167676935Y-52203390D02*
X167772173Y-52155771D01*
X167772173Y-52155771D02*
X168010268Y-52155771D01*
X168010268Y-52155771D02*
X168105506Y-52203390D01*
X168105506Y-52203390D02*
X168153125Y-52251009D01*
X168153125Y-52251009D02*
X168200744Y-52346247D01*
X168200744Y-52346247D02*
X168200744Y-52584342D01*
X168200744Y-52584342D02*
X168153125Y-52679580D01*
X168153125Y-52679580D02*
X168105506Y-52727200D01*
X168105506Y-52727200D02*
X168010268Y-52774819D01*
X168010268Y-52774819D02*
X167772173Y-52774819D01*
X167772173Y-52774819D02*
X167676935Y-52727200D01*
X167676935Y-52727200D02*
X167629316Y-52679580D01*
X143795982Y-137859580D02*
X143748363Y-137907200D01*
X143748363Y-137907200D02*
X143605506Y-137954819D01*
X143605506Y-137954819D02*
X143510268Y-137954819D01*
X143510268Y-137954819D02*
X143367411Y-137907200D01*
X143367411Y-137907200D02*
X143272173Y-137811961D01*
X143272173Y-137811961D02*
X143224554Y-137716723D01*
X143224554Y-137716723D02*
X143176935Y-137526247D01*
X143176935Y-137526247D02*
X143176935Y-137383390D01*
X143176935Y-137383390D02*
X143224554Y-137192914D01*
X143224554Y-137192914D02*
X143272173Y-137097676D01*
X143272173Y-137097676D02*
X143367411Y-137002438D01*
X143367411Y-137002438D02*
X143510268Y-136954819D01*
X143510268Y-136954819D02*
X143605506Y-136954819D01*
X143605506Y-136954819D02*
X143748363Y-137002438D01*
X143748363Y-137002438D02*
X143795982Y-137050057D01*
X144176935Y-137050057D02*
X144224554Y-137002438D01*
X144224554Y-137002438D02*
X144319792Y-136954819D01*
X144319792Y-136954819D02*
X144557887Y-136954819D01*
X144557887Y-136954819D02*
X144653125Y-137002438D01*
X144653125Y-137002438D02*
X144700744Y-137050057D01*
X144700744Y-137050057D02*
X144748363Y-137145295D01*
X144748363Y-137145295D02*
X144748363Y-137240533D01*
X144748363Y-137240533D02*
X144700744Y-137383390D01*
X144700744Y-137383390D02*
X144129316Y-137954819D01*
X144129316Y-137954819D02*
X144748363Y-137954819D01*
X145700744Y-137954819D02*
X145129316Y-137954819D01*
X145415030Y-137954819D02*
X145415030Y-136954819D01*
X145415030Y-136954819D02*
X145319792Y-137097676D01*
X145319792Y-137097676D02*
X145224554Y-137192914D01*
X145224554Y-137192914D02*
X145129316Y-137240533D01*
X140795982Y-137859580D02*
X140748363Y-137907200D01*
X140748363Y-137907200D02*
X140605506Y-137954819D01*
X140605506Y-137954819D02*
X140510268Y-137954819D01*
X140510268Y-137954819D02*
X140367411Y-137907200D01*
X140367411Y-137907200D02*
X140272173Y-137811961D01*
X140272173Y-137811961D02*
X140224554Y-137716723D01*
X140224554Y-137716723D02*
X140176935Y-137526247D01*
X140176935Y-137526247D02*
X140176935Y-137383390D01*
X140176935Y-137383390D02*
X140224554Y-137192914D01*
X140224554Y-137192914D02*
X140272173Y-137097676D01*
X140272173Y-137097676D02*
X140367411Y-137002438D01*
X140367411Y-137002438D02*
X140510268Y-136954819D01*
X140510268Y-136954819D02*
X140605506Y-136954819D01*
X140605506Y-136954819D02*
X140748363Y-137002438D01*
X140748363Y-137002438D02*
X140795982Y-137050057D01*
X141748363Y-137954819D02*
X141176935Y-137954819D01*
X141462649Y-137954819D02*
X141462649Y-136954819D01*
X141462649Y-136954819D02*
X141367411Y-137097676D01*
X141367411Y-137097676D02*
X141272173Y-137192914D01*
X141272173Y-137192914D02*
X141176935Y-137240533D01*
X142081697Y-136954819D02*
X142748363Y-136954819D01*
X142748363Y-136954819D02*
X142319792Y-137954819D01*
D11*
%TO.C,SW3*%
X121838840Y-45350000D02*
X126038840Y-45350000D01*
X121838840Y-45740000D02*
X121838840Y-45350000D01*
X121838840Y-48260000D02*
X121838840Y-48650000D01*
X121838840Y-48650000D02*
X126038840Y-48650000D01*
X126038840Y-45350000D02*
X126038840Y-45740000D01*
X126038840Y-48650000D02*
X126038840Y-48260000D01*
%TO.C,SW7*%
X109788840Y-111600000D02*
X109788840Y-107400000D01*
X110178840Y-111600000D02*
X109788840Y-111600000D01*
X112698840Y-111600000D02*
X113088840Y-111600000D01*
X113088840Y-111600000D02*
X113088840Y-107400000D01*
X109788840Y-107400000D02*
X110178840Y-107400000D01*
X113088840Y-107400000D02*
X112698840Y-107400000D01*
%TO.C,SW5*%
X113088840Y-128400000D02*
X113088840Y-132600000D01*
X112698840Y-128400000D02*
X113088840Y-128400000D01*
X110178840Y-128400000D02*
X109788840Y-128400000D01*
X109788840Y-128400000D02*
X109788840Y-132600000D01*
X113088840Y-132600000D02*
X112698840Y-132600000D01*
X109788840Y-132600000D02*
X110178840Y-132600000D01*
%TO.C,SW4*%
X166788840Y-111600000D02*
X166788840Y-107400000D01*
X167178840Y-111600000D02*
X166788840Y-111600000D01*
X169698840Y-111600000D02*
X170088840Y-111600000D01*
X170088840Y-111600000D02*
X170088840Y-107400000D01*
X166788840Y-107400000D02*
X167178840Y-107400000D01*
X170088840Y-107400000D02*
X169698840Y-107400000D01*
%TO.C,SW2*%
X157538840Y-48650000D02*
X153338840Y-48650000D01*
X157538840Y-48260000D02*
X157538840Y-48650000D01*
X157538840Y-45740000D02*
X157538840Y-45350000D01*
X157538840Y-45350000D02*
X153338840Y-45350000D01*
X153338840Y-48650000D02*
X153338840Y-48260000D01*
X153338840Y-45350000D02*
X153338840Y-45740000D01*
%TO.C,SW1*%
X170088840Y-127900000D02*
X170088840Y-132100000D01*
X169698840Y-127900000D02*
X170088840Y-127900000D01*
X167178840Y-127900000D02*
X166788840Y-127900000D01*
X166788840Y-127900000D02*
X166788840Y-132100000D01*
X170088840Y-132100000D02*
X169698840Y-132100000D01*
X166788840Y-132100000D02*
X167178840Y-132100000D01*
%TO.C,R15*%
X146203840Y-106272936D02*
X146203840Y-106727064D01*
X147673840Y-106272936D02*
X147673840Y-106727064D01*
%TO.C,C12*%
X146700092Y-80265000D02*
X146177588Y-80265000D01*
X146700092Y-81735000D02*
X146177588Y-81735000D01*
%TO.C,D4*%
X138798840Y-98500000D02*
X134788840Y-98500000D01*
X138798840Y-100500000D02*
X138798840Y-98500000D01*
X138798840Y-100500000D02*
X134788840Y-100500000D01*
%TO.C,Q4*%
X144918840Y-108695000D02*
X144588840Y-108455000D01*
X144918840Y-108215000D01*
X144918840Y-108695000D01*
G36*
X144918840Y-108695000D02*
G01*
X144588840Y-108455000D01*
X144918840Y-108215000D01*
X144918840Y-108695000D01*
G37*
X142278840Y-108825000D02*
X142278840Y-110235000D01*
X144608840Y-108825000D02*
X144608840Y-110235000D01*
X142938840Y-110235000D02*
X142278840Y-110235000D01*
X144608840Y-110235000D02*
X143938840Y-110235000D01*
%TO.C,R14*%
X146203840Y-110772936D02*
X146203840Y-111227064D01*
X147673840Y-110772936D02*
X147673840Y-111227064D01*
%TO.C,Q5*%
X148378840Y-93400000D02*
X148048840Y-93160000D01*
X148378840Y-92920000D01*
X148378840Y-93400000D01*
G36*
X148378840Y-93400000D02*
G01*
X148048840Y-93160000D01*
X148378840Y-92920000D01*
X148378840Y-93400000D01*
G37*
X148018840Y-94460000D02*
X148018840Y-93660000D01*
X148018840Y-94460000D02*
X148018840Y-95260000D01*
X144858840Y-95260000D02*
X144858840Y-93800000D01*
X144858840Y-95260000D02*
X145788840Y-95260000D01*
X148018840Y-95260000D02*
X147088840Y-95260000D01*
%TO.C,R20*%
X149703840Y-84772936D02*
X149703840Y-85227064D01*
X151173840Y-84772936D02*
X151173840Y-85227064D01*
%TO.C,Q6*%
X140276340Y-84490000D02*
X140036340Y-84160000D01*
X140516340Y-84160000D01*
X140276340Y-84490000D01*
G36*
X140276340Y-84490000D02*
G01*
X140036340Y-84160000D01*
X140516340Y-84160000D01*
X140276340Y-84490000D01*
G37*
X141438840Y-87560000D02*
X140788840Y-87560000D01*
X141438840Y-87560000D02*
X142088840Y-87560000D01*
X141438840Y-84440000D02*
X140788840Y-84440000D01*
X141438840Y-84440000D02*
X142088840Y-84440000D01*
%TO.C,D6*%
X134078840Y-102500000D02*
X138088840Y-102500000D01*
X134078840Y-102500000D02*
X134078840Y-104500000D01*
X134078840Y-104500000D02*
X138088840Y-104500000D01*
%TO.C,C11*%
X141677588Y-104235000D02*
X142200092Y-104235000D01*
X141677588Y-102765000D02*
X142200092Y-102765000D01*
%TO.C,R18*%
X151665904Y-79765000D02*
X151211776Y-79765000D01*
X151665904Y-81235000D02*
X151211776Y-81235000D01*
%TO.C,R17*%
X146665904Y-76765000D02*
X146211776Y-76765000D01*
X146665904Y-78235000D02*
X146211776Y-78235000D01*
%TO.C,C10*%
X147200092Y-101265000D02*
X146677588Y-101265000D01*
X147200092Y-102735000D02*
X146677588Y-102735000D01*
%TO.C,R16*%
X146211776Y-84735000D02*
X146665904Y-84735000D01*
X146211776Y-83265000D02*
X146665904Y-83265000D01*
%TO.C,D5*%
X138798840Y-107000000D02*
X134788840Y-107000000D01*
X138798840Y-109000000D02*
X138798840Y-107000000D01*
X138798840Y-109000000D02*
X134788840Y-109000000D01*
%TO.C,R19*%
X151211776Y-78235000D02*
X151665904Y-78235000D01*
X151211776Y-76765000D02*
X151665904Y-76765000D01*
%TO.C,L1*%
X145349082Y-98940000D02*
X144528598Y-98940000D01*
X145349082Y-100060000D02*
X144528598Y-100060000D01*
%TO.C,R10*%
X118711776Y-124735000D02*
X119165904Y-124735000D01*
X118711776Y-123265000D02*
X119165904Y-123265000D01*
%TO.C,R12*%
X119173840Y-131727064D02*
X119173840Y-131272936D01*
X117703840Y-131727064D02*
X117703840Y-131272936D01*
%TO.C,C8*%
X118677588Y-119735000D02*
X119200092Y-119735000D01*
X118677588Y-118265000D02*
X119200092Y-118265000D01*
%TO.C,R11*%
X123173840Y-127227064D02*
X123173840Y-126772936D01*
X121703840Y-127227064D02*
X121703840Y-126772936D01*
%TO.C,C18*%
X136203840Y-134761252D02*
X136203840Y-134238748D01*
X137673840Y-134761252D02*
X137673840Y-134238748D01*
%TO.C,C15*%
X130173840Y-134761252D02*
X130173840Y-134238748D01*
X128703840Y-134761252D02*
X128703840Y-134238748D01*
%TO.C,C34*%
X145173840Y-56238748D02*
X145173840Y-56761252D01*
X143703840Y-56238748D02*
X143703840Y-56761252D01*
%TO.C,C13*%
X131703840Y-134761252D02*
X131703840Y-134238748D01*
X133173840Y-134761252D02*
X133173840Y-134238748D01*
%TO.C,C20*%
X126203840Y-134761252D02*
X126203840Y-134238748D01*
X127673840Y-134761252D02*
X127673840Y-134238748D01*
%TO.C,C19*%
X133703840Y-134761252D02*
X133703840Y-134238748D01*
X135173840Y-134761252D02*
X135173840Y-134238748D01*
%TO.C,C35*%
X166677588Y-53265000D02*
X167200092Y-53265000D01*
X166677588Y-54735000D02*
X167200092Y-54735000D01*
%TO.C,C21*%
X141703840Y-134761252D02*
X141703840Y-134238748D01*
X143173840Y-134761252D02*
X143173840Y-134238748D01*
%TO.C,C17*%
X139203840Y-134761252D02*
X139203840Y-134238748D01*
X140673840Y-134761252D02*
X140673840Y-134238748D01*
%TD*%
M02*
