%TF.GenerationSoftware,KiCad,Pcbnew,9.0.6*%
%TF.CreationDate,2025-11-23T22:18:04-05:00*%
%TF.ProjectId,EPD_HUB_ESP32,4550445f-4855-4425-9f45-535033322e6b,rev?*%
%TF.SameCoordinates,Original*%
%TF.FileFunction,Copper,L2,Bot*%
%TF.FilePolarity,Positive*%
%FSLAX46Y46*%
G04 Gerber Fmt 4.6, Leading zero omitted, Abs format (unit mm)*
G04 Created by KiCad (PCBNEW 9.0.6) date 2025-11-23 22:18:04*
%MOMM*%
%LPD*%
G01*
G04 APERTURE LIST*
G04 Aperture macros list*
%AMRoundRect*
0 Rectangle with rounded corners*
0 $1 Rounding radius*
0 $2 $3 $4 $5 $6 $7 $8 $9 X,Y pos of 4 corners*
0 Add a 4 corners polygon primitive as box body*
4,1,4,$2,$3,$4,$5,$6,$7,$8,$9,$2,$3,0*
0 Add four circle primitives for the rounded corners*
1,1,$1+$1,$2,$3*
1,1,$1+$1,$4,$5*
1,1,$1+$1,$6,$7*
1,1,$1+$1,$8,$9*
0 Add four rect primitives between the rounded corners*
20,1,$1+$1,$2,$3,$4,$5,0*
20,1,$1+$1,$4,$5,$6,$7,0*
20,1,$1+$1,$6,$7,$8,$9,0*
20,1,$1+$1,$8,$9,$2,$3,0*%
%AMRotRect*
0 Rectangle, with rotation*
0 The origin of the aperture is its center*
0 $1 length*
0 $2 width*
0 $3 Rotation angle, in degrees counterclockwise*
0 Add horizontal line*
21,1,$1,$2,0,0,$3*%
G04 Aperture macros list end*
%TA.AperFunction,HeatsinkPad*%
%ADD10C,0.600000*%
%TD*%
%TA.AperFunction,HeatsinkPad*%
%ADD11RotRect,3.900000X3.900000X315.000000*%
%TD*%
%TA.AperFunction,SMDPad,CuDef*%
%ADD12RotRect,1.500000X0.900000X225.000000*%
%TD*%
%TA.AperFunction,SMDPad,CuDef*%
%ADD13RotRect,1.500000X0.900000X315.000000*%
%TD*%
%TA.AperFunction,SMDPad,CuDef*%
%ADD14RotRect,1.500000X0.900000X45.000000*%
%TD*%
%TA.AperFunction,SMDPad,CuDef*%
%ADD15R,1.500000X0.800000*%
%TD*%
%TA.AperFunction,SMDPad,CuDef*%
%ADD16R,2.000000X1.450000*%
%TD*%
%TA.AperFunction,SMDPad,CuDef*%
%ADD17RoundRect,0.150000X0.150000X0.200000X-0.150000X0.200000X-0.150000X-0.200000X0.150000X-0.200000X0*%
%TD*%
%TA.AperFunction,SMDPad,CuDef*%
%ADD18RoundRect,0.250000X-0.475000X0.337500X-0.475000X-0.337500X0.475000X-0.337500X0.475000X0.337500X0*%
%TD*%
%TA.AperFunction,ComponentPad*%
%ADD19O,1.200000X1.750000*%
%TD*%
%TA.AperFunction,ComponentPad*%
%ADD20RoundRect,0.250000X0.350000X0.625000X-0.350000X0.625000X-0.350000X-0.625000X0.350000X-0.625000X0*%
%TD*%
%TA.AperFunction,SMDPad,CuDef*%
%ADD21RoundRect,0.200000X-0.200000X0.750000X-0.200000X-0.750000X0.200000X-0.750000X0.200000X0.750000X0*%
%TD*%
%TA.AperFunction,SMDPad,CuDef*%
%ADD22R,0.300000X0.700000*%
%TD*%
%TA.AperFunction,HeatsinkPad*%
%ADD23O,0.800000X1.400000*%
%TD*%
%TA.AperFunction,SMDPad,CuDef*%
%ADD24R,0.300000X1.300000*%
%TD*%
%TA.AperFunction,SMDPad,CuDef*%
%ADD25R,2.000000X1.800000*%
%TD*%
%TA.AperFunction,HeatsinkPad*%
%ADD26R,1.600000X1.600000*%
%TD*%
%TA.AperFunction,SMDPad,CuDef*%
%ADD27RoundRect,0.062500X0.062500X0.375000X-0.062500X0.375000X-0.062500X-0.375000X0.062500X-0.375000X0*%
%TD*%
%TA.AperFunction,SMDPad,CuDef*%
%ADD28RoundRect,0.062500X0.375000X0.062500X-0.375000X0.062500X-0.375000X-0.062500X0.375000X-0.062500X0*%
%TD*%
%TA.AperFunction,SMDPad,CuDef*%
%ADD29RoundRect,0.150000X0.200000X-0.150000X0.200000X0.150000X-0.200000X0.150000X-0.200000X-0.150000X0*%
%TD*%
%TA.AperFunction,SMDPad,CuDef*%
%ADD30RoundRect,0.250000X0.337500X0.475000X-0.337500X0.475000X-0.337500X-0.475000X0.337500X-0.475000X0*%
%TD*%
%TA.AperFunction,SMDPad,CuDef*%
%ADD31RoundRect,0.250000X0.450000X-0.350000X0.450000X0.350000X-0.450000X0.350000X-0.450000X-0.350000X0*%
%TD*%
%TA.AperFunction,SMDPad,CuDef*%
%ADD32RoundRect,0.250000X-0.450000X0.350000X-0.450000X-0.350000X0.450000X-0.350000X0.450000X0.350000X0*%
%TD*%
%TA.AperFunction,SMDPad,CuDef*%
%ADD33RoundRect,0.250000X0.475000X-0.337500X0.475000X0.337500X-0.475000X0.337500X-0.475000X-0.337500X0*%
%TD*%
%TA.AperFunction,SMDPad,CuDef*%
%ADD34RoundRect,0.250000X-0.350000X-0.450000X0.350000X-0.450000X0.350000X0.450000X-0.350000X0.450000X0*%
%TD*%
%TA.AperFunction,SMDPad,CuDef*%
%ADD35RoundRect,0.250000X-0.337500X-0.475000X0.337500X-0.475000X0.337500X0.475000X-0.337500X0.475000X0*%
%TD*%
%TA.AperFunction,SMDPad,CuDef*%
%ADD36RoundRect,0.162500X0.162500X-0.617500X0.162500X0.617500X-0.162500X0.617500X-0.162500X-0.617500X0*%
%TD*%
%TA.AperFunction,SMDPad,CuDef*%
%ADD37RoundRect,0.250000X-0.275000X-0.750000X0.275000X-0.750000X0.275000X0.750000X-0.275000X0.750000X0*%
%TD*%
%TA.AperFunction,SMDPad,CuDef*%
%ADD38RoundRect,0.250000X0.275000X0.750000X-0.275000X0.750000X-0.275000X-0.750000X0.275000X-0.750000X0*%
%TD*%
%TA.AperFunction,ViaPad*%
%ADD39C,0.600000*%
%TD*%
%TA.AperFunction,Conductor*%
%ADD40C,0.200000*%
%TD*%
G04 APERTURE END LIST*
D10*
%TO.P,U4,41,GND*%
%TO.N,GND*%
X126953916Y-62474873D03*
X127943865Y-63464823D03*
X126953916Y-61484924D03*
X127943865Y-62474873D03*
X128933815Y-63464823D03*
X127943865Y-61484924D03*
D11*
X128438840Y-61979899D03*
D10*
X128933815Y-62474873D03*
X127943865Y-60494974D03*
X128933815Y-61484924D03*
X129923764Y-62474873D03*
X128933815Y-60494974D03*
X129923764Y-61484924D03*
D12*
%TO.P,U4,40,GND*%
X115732131Y-63768879D03*
%TO.P,U4,39,IO1*%
%TO.N,BAT_MONIT*%
X116630157Y-64666904D03*
%TO.P,U4,38,IO2*%
%TO.N,CHG_STATUS*%
X117528182Y-65564930D03*
%TO.P,U4,37,TXD0*%
%TO.N,unconnected-(U4-TXD0-Pad37)*%
X118426208Y-66462956D03*
%TO.P,U4,36,RXD0*%
%TO.N,unconnected-(U4-RXD0-Pad36)*%
X119324233Y-67360981D03*
%TO.P,U4,35,IO42*%
%TO.N,SD_DAT2*%
X120222259Y-68259007D03*
%TO.P,U4,34,IO41*%
%TO.N,SD_DAT3*%
X121120285Y-69157032D03*
%TO.P,U4,33,IO40*%
%TO.N,SD_CMD*%
X122018310Y-70055058D03*
%TO.P,U4,32,IO39*%
%TO.N,SD_CLK*%
X122916336Y-70953084D03*
%TO.P,U4,31,IO38*%
%TO.N,SD_DAT0*%
X123814362Y-71851109D03*
%TO.P,U4,30,IO37*%
%TO.N,unconnected-(U4-IO37-Pad30)*%
X124712387Y-72749135D03*
%TO.P,U4,29,IO36*%
%TO.N,unconnected-(U4-IO36-Pad29)*%
X125610413Y-73647160D03*
%TO.P,U4,28,IO35*%
%TO.N,unconnected-(U4-IO35-Pad28)*%
X126508438Y-74545186D03*
%TO.P,U4,27,IO0*%
%TO.N,ESP32_IO0*%
X127406464Y-75443212D03*
D13*
%TO.P,U4,26,IO45*%
%TO.N,unconnected-(U4-IO45-Pad26)*%
X129538391Y-75079052D03*
%TO.P,U4,25,IO48*%
%TO.N,SD_DAT1*%
X130436417Y-74181026D03*
%TO.P,U4,24,IO47*%
%TO.N,unconnected-(U4-IO47-Pad24)*%
X131334442Y-73283000D03*
%TO.P,U4,23,IO21*%
%TO.N,unconnected-(U4-IO21-Pad23)*%
X132232468Y-72384975D03*
%TO.P,U4,22,IO14*%
%TO.N,EPD_MOSI*%
X133130493Y-71486949D03*
%TO.P,U4,21,IO13*%
%TO.N,EPD_SCK*%
X134028519Y-70588924D03*
%TO.P,U4,20,IO12*%
%TO.N,EPD_CS*%
X134926545Y-69690898D03*
%TO.P,U4,19,IO11*%
%TO.N,EPD_DC*%
X135824570Y-68792872D03*
%TO.P,U4,18,IO10*%
%TO.N,EPD_RST*%
X136722596Y-67894847D03*
%TO.P,U4,17,IO9*%
%TO.N,EPD_BUSY*%
X137620621Y-66996821D03*
%TO.P,U4,16,IO46*%
%TO.N,unconnected-(U4-IO46-Pad16)*%
X138518647Y-66098796D03*
%TO.P,U4,15,IO3*%
%TO.N,unconnected-(U4-IO3-Pad15)*%
X139416673Y-65200770D03*
D14*
%TO.P,U4,14,USB_D+*%
%TO.N,ESP32_DN*%
X139780833Y-63068843D03*
D12*
%TO.P,U4,13,USB_D-*%
%TO.N,ESP32_DP*%
X138882807Y-62170817D03*
%TO.P,U4,12,IO8*%
%TO.N,unconnected-(U4-IO8-Pad12)*%
X137984781Y-61272792D03*
%TO.P,U4,11,IO18*%
%TO.N,unconnected-(U4-IO18-Pad11)*%
X137086756Y-60374766D03*
%TO.P,U4,10,IO17*%
%TO.N,unconnected-(U4-IO17-Pad10)*%
X136188730Y-59476741D03*
%TO.P,U4,9,IO16*%
%TO.N,BUTTON_A*%
X135290705Y-58578715D03*
%TO.P,U4,8,IO15*%
%TO.N,BUTTON_B*%
X134392679Y-57680689D03*
%TO.P,U4,7,IO7*%
%TO.N,DPAD_RIGHT*%
X133494653Y-56782664D03*
%TO.P,U4,6,IO6*%
%TO.N,DPAD_LEFT*%
X132596628Y-55884638D03*
%TO.P,U4,5,IO5*%
%TO.N,DPAD_DOWN*%
X131698602Y-54986612D03*
%TO.P,U4,4,IO4*%
%TO.N,DPAD_UP*%
X130800577Y-54088587D03*
%TO.P,U4,3,EN*%
%TO.N,ESP32_EN*%
X129902551Y-53190561D03*
%TO.P,U4,2,3V3*%
%TO.N,3V3*%
X129004525Y-52292536D03*
%TO.P,U4,1,GND*%
%TO.N,GND*%
X128106500Y-51394510D03*
%TD*%
D15*
%TO.P,J7,1,DAT2*%
%TO.N,SD_DAT2*%
X114888840Y-89300000D03*
%TO.P,J7,2,DAT3/CD*%
%TO.N,SD_DAT3*%
X114888840Y-90400000D03*
%TO.P,J7,3,CMD*%
%TO.N,SD_CMD*%
X114888840Y-91500000D03*
%TO.P,J7,4,VDD*%
%TO.N,Net-(J7-VDD)*%
X114888840Y-92600000D03*
%TO.P,J7,5,CLK*%
%TO.N,SD_CLK*%
X114888840Y-93700000D03*
%TO.P,J7,6,VSS*%
%TO.N,GND*%
X114888840Y-94800000D03*
%TO.P,J7,7,DAT0*%
%TO.N,SD_DAT0*%
X114888840Y-95900000D03*
%TO.P,J7,8,DAT1*%
%TO.N,SD_DAT1*%
X114888840Y-97000000D03*
D16*
%TO.P,J7,9,SHIELD*%
%TO.N,GND*%
X120588840Y-85625000D03*
X112288840Y-85625000D03*
X120588840Y-99375000D03*
X112288840Y-99375000D03*
%TD*%
D17*
%TO.P,D3,1,K*%
%TO.N,USB_VBUS*%
X152738840Y-138000000D03*
%TO.P,D3,2,A*%
%TO.N,GND*%
X154138840Y-138000000D03*
%TD*%
D18*
%TO.P,C2,2*%
%TO.N,GND*%
X152938840Y-136037500D03*
%TO.P,C2,1*%
%TO.N,USB_VBUS*%
X152938840Y-133962500D03*
%TD*%
D19*
%TO.P,J5,2,Pin_2*%
%TO.N,GND*%
X159938840Y-105550000D03*
D20*
%TO.P,J5,1,Pin_1*%
%TO.N,Net-(J5-Pin_1)*%
X161938840Y-105550000D03*
%TD*%
D21*
%TO.P,Q3,3,D*%
%TO.N,GND*%
X159938840Y-100500000D03*
%TO.P,Q3,2,S*%
%TO.N,Net-(J5-Pin_1)*%
X160888840Y-97500000D03*
%TO.P,Q3,1,G*%
%TO.N,VBat+*%
X158988840Y-97500000D03*
%TD*%
D22*
%TO.P,J1,A1,GND*%
%TO.N,GND*%
X164789840Y-140640000D03*
%TO.P,J1,A2,TX1+*%
%TO.N,unconnected-(J1-TX1+-PadA2)*%
X164289840Y-140640000D03*
%TO.P,J1,A3,TX1-*%
%TO.N,unconnected-(J1-TX1--PadA3)*%
X163789840Y-140640000D03*
%TO.P,J1,A4,VBUS*%
%TO.N,USB_VBUS*%
X163289840Y-140640000D03*
%TO.P,J1,A5,CC1*%
%TO.N,Net-(J1-CC1)*%
X162789840Y-140640000D03*
%TO.P,J1,A6,D+*%
%TO.N,ESP32_DP*%
X162289840Y-140640000D03*
%TO.P,J1,A7,D-*%
%TO.N,ESP32_DN*%
X161789840Y-140640000D03*
%TO.P,J1,A8,SBU1*%
%TO.N,unconnected-(J1-SBU1-PadA8)*%
X161289840Y-140640000D03*
%TO.P,J1,A9,VBUS*%
%TO.N,USB_VBUS*%
X160789840Y-140640000D03*
%TO.P,J1,A10,RX2-*%
%TO.N,unconnected-(J1-RX2--PadA10)*%
X160289840Y-140640000D03*
%TO.P,J1,A11,RX2+*%
%TO.N,unconnected-(J1-RX2+-PadA11)*%
X159789840Y-140640000D03*
%TO.P,J1,A12,GND*%
%TO.N,GND*%
X159289840Y-140640000D03*
%TO.P,J1,B1,GND*%
X159539840Y-142340000D03*
%TO.P,J1,B2,TX2+*%
%TO.N,unconnected-(J1-TX2+-PadB2)*%
X160039840Y-142340000D03*
%TO.P,J1,B3,TX2-*%
%TO.N,unconnected-(J1-TX2--PadB3)*%
X160539840Y-142340000D03*
%TO.P,J1,B4,VBUS*%
%TO.N,USB_VBUS*%
X161039840Y-142340000D03*
%TO.P,J1,B5,CC2*%
%TO.N,Net-(J1-CC2)*%
X161539840Y-142340000D03*
%TO.P,J1,B6,D+*%
%TO.N,ESP32_DP*%
X162039840Y-142340000D03*
%TO.P,J1,B7,D-*%
%TO.N,ESP32_DN*%
X162539840Y-142340000D03*
%TO.P,J1,B8,SBU2*%
%TO.N,unconnected-(J1-SBU2-PadB8)*%
X163039840Y-142340000D03*
%TO.P,J1,B9,VBUS*%
%TO.N,USB_VBUS*%
X163539840Y-142340000D03*
%TO.P,J1,B10,RX1-*%
%TO.N,unconnected-(J1-RX1--PadB10)*%
X164039840Y-142340000D03*
%TO.P,J1,B11,RX1+*%
%TO.N,unconnected-(J1-RX1+-PadB11)*%
X164539840Y-142340000D03*
%TO.P,J1,B12,GND*%
%TO.N,GND*%
X165039840Y-142340000D03*
D23*
%TO.P,J1,S1,SHIELD*%
%TO.N,Net-(J1-SHIELD)*%
X166529840Y-148500000D03*
X166169840Y-142550000D03*
X157909840Y-142550000D03*
X157549840Y-148500000D03*
%TD*%
D24*
%TO.P,J3,1,Pin_1*%
%TO.N,unconnected-(J3-Pin_1-Pad1)*%
X144688840Y-126150000D03*
%TO.P,J3,2,Pin_2*%
%TO.N,/E_ink_HAT/GDR*%
X144188840Y-126150000D03*
%TO.P,J3,3,Pin_3*%
%TO.N,/E_ink_HAT/RESE*%
X143688840Y-126150000D03*
%TO.P,J3,4,Pin_4*%
%TO.N,Net-(J3-Pin_4)*%
X143188840Y-126150000D03*
%TO.P,J3,5,Pin_5*%
%TO.N,Net-(J3-Pin_5)*%
X142688840Y-126150000D03*
%TO.P,J3,6,Pin_6*%
%TO.N,unconnected-(J3-Pin_6-Pad6)*%
X142188840Y-126150000D03*
%TO.P,J3,7,Pin_7*%
%TO.N,unconnected-(J3-Pin_7-Pad7)*%
X141688840Y-126150000D03*
%TO.P,J3,8,Pin_8*%
%TO.N,GND*%
X141188840Y-126150000D03*
%TO.P,J3,9,Pin_9*%
%TO.N,EPD_BUSY*%
X140688840Y-126150000D03*
%TO.P,J3,10,Pin_10*%
%TO.N,EPD_RST*%
X140188840Y-126150000D03*
%TO.P,J3,11,Pin_11*%
%TO.N,EPD_DC*%
X139688840Y-126150000D03*
%TO.P,J3,12,Pin_12*%
%TO.N,EPD_CS*%
X139188840Y-126150000D03*
%TO.P,J3,13,Pin_13*%
%TO.N,EPD_SCK*%
X138688840Y-126150000D03*
%TO.P,J3,14,Pin_14*%
%TO.N,EPD_MOSI*%
X138188840Y-126150000D03*
%TO.P,J3,15,Pin_15*%
%TO.N,/E_ink_HAT/VCC_EPD_OUT*%
X137688840Y-126150000D03*
%TO.P,J3,16,Pin_16*%
X137188840Y-126150000D03*
%TO.P,J3,17,Pin_17*%
%TO.N,GND*%
X136688840Y-126150000D03*
%TO.P,J3,18,Pin_18*%
%TO.N,Net-(J3-Pin_18)*%
X136188840Y-126150000D03*
%TO.P,J3,19,Pin_19*%
%TO.N,Net-(J3-Pin_19)*%
X135688840Y-126150000D03*
%TO.P,J3,20,Pin_20*%
%TO.N,Net-(J3-Pin_20)*%
X135188840Y-126150000D03*
%TO.P,J3,21,Pin_21*%
%TO.N,/E_ink_HAT/PREVGH*%
X134688840Y-126150000D03*
%TO.P,J3,22,Pin_22*%
%TO.N,Net-(J3-Pin_22)*%
X134188840Y-126150000D03*
%TO.P,J3,23,Pin_23*%
%TO.N,/E_ink_HAT/PREVGL*%
X133688840Y-126150000D03*
%TO.P,J3,24,Pin_24*%
%TO.N,Net-(J3-Pin_24)*%
X133188840Y-126150000D03*
D25*
%TO.P,J3,Z1*%
%TO.N,N/C*%
X146488840Y-128900000D03*
%TO.P,J3,Z2*%
X131388840Y-128900000D03*
%TD*%
D26*
%TO.P,U2,17,VSS*%
%TO.N,GND*%
X158438840Y-131500000D03*
D27*
%TO.P,U2,16,ISET*%
%TO.N,Net-(U2-ISET)*%
X159188840Y-130062500D03*
%TO.P,U2,15,ITERM*%
%TO.N,unconnected-(U2-ITERM-Pad15)*%
X158688840Y-130062500D03*
%TO.P,U2,14,TMR*%
%TO.N,unconnected-(U2-TMR-Pad14)*%
X158188840Y-130062500D03*
%TO.P,U2,13,IN*%
%TO.N,USB_VBUS*%
X157688840Y-130062500D03*
D28*
%TO.P,U2,12,ILIM*%
%TO.N,Net-(U2-ILIM)*%
X157001340Y-130750000D03*
%TO.P,U2,11,OUT*%
%TO.N,Net-(U3-EN)*%
X157001340Y-131250000D03*
%TO.P,U2,10,OUT*%
X157001340Y-131750000D03*
%TO.P,U2,9,~{CHG}*%
%TO.N,Net-(U2-~{CHG})*%
X157001340Y-132250000D03*
D27*
%TO.P,U2,8,VSS*%
%TO.N,GND*%
X157688840Y-132937500D03*
%TO.P,U2,7,~{PGOOD}*%
%TO.N,unconnected-(U2-~{PGOOD}-Pad7)*%
X158188840Y-132937500D03*
%TO.P,U2,6,EN1*%
%TO.N,GND*%
X158688840Y-132937500D03*
%TO.P,U2,5,EN2*%
%TO.N,USB_VBUS*%
X159188840Y-132937500D03*
D28*
%TO.P,U2,4,~{CE}*%
%TO.N,GND*%
X159876340Y-132250000D03*
%TO.P,U2,3,BAT*%
%TO.N,VBat+*%
X159876340Y-131750000D03*
%TO.P,U2,2,BAT*%
X159876340Y-131250000D03*
%TO.P,U2,1,TS*%
%TO.N,Net-(U2-TS)*%
X159876340Y-130750000D03*
%TD*%
D29*
%TO.P,D1,2,A*%
%TO.N,GND*%
X168938840Y-148700000D03*
%TO.P,D1,1,K*%
%TO.N,ESP32_DP*%
X168938840Y-147300000D03*
%TD*%
%TO.P,D2,2,A*%
%TO.N,GND*%
X168938840Y-145200000D03*
%TO.P,D2,1,K*%
%TO.N,ESP32_DN*%
X168938840Y-143800000D03*
%TD*%
D30*
%TO.P,C37,1*%
%TO.N,3V3*%
X150476340Y-96500000D03*
%TO.P,C37,2*%
%TO.N,Net-(J7-VDD)*%
X148401340Y-96500000D03*
%TD*%
%TO.P,C33,1*%
%TO.N,3V3*%
X153438840Y-108000000D03*
%TO.P,C33,2*%
%TO.N,GND*%
X151363840Y-108000000D03*
%TD*%
D31*
%TO.P,R4,1*%
%TO.N,Net-(U2-ILIM)*%
X155938840Y-125500000D03*
%TO.P,R4,2*%
%TO.N,GND*%
X155938840Y-123500000D03*
%TD*%
D32*
%TO.P,R3,1*%
%TO.N,Net-(J1-CC2)*%
X124938840Y-145000000D03*
%TO.P,R3,2*%
%TO.N,GND*%
X124938840Y-147000000D03*
%TD*%
D33*
%TO.P,C22,1*%
%TO.N,GND*%
X149938840Y-129537500D03*
%TO.P,C22,2*%
%TO.N,/E_ink_HAT/VCC_EPD_OUT*%
X149938840Y-127462500D03*
%TD*%
D32*
%TO.P,R54,1*%
%TO.N,SD_DAT0*%
X123438840Y-75500000D03*
%TO.P,R54,2*%
%TO.N,3V3*%
X123438840Y-77500000D03*
%TD*%
D34*
%TO.P,R5,1*%
%TO.N,Net-(U2-ISET)*%
X162438840Y-125000000D03*
%TO.P,R5,2*%
%TO.N,GND*%
X164438840Y-125000000D03*
%TD*%
D30*
%TO.P,C1,1*%
%TO.N,Net-(J1-SHIELD)*%
X130476340Y-139500000D03*
%TO.P,C1,2*%
%TO.N,GND*%
X128401340Y-139500000D03*
%TD*%
D32*
%TO.P,R55,1*%
%TO.N,SD_DAT1*%
X132438840Y-77000000D03*
%TO.P,R55,2*%
%TO.N,3V3*%
X132438840Y-79000000D03*
%TD*%
D33*
%TO.P,C5,1*%
%TO.N,ESP32_EN*%
X158938840Y-93037500D03*
%TO.P,C5,2*%
%TO.N,GND*%
X158938840Y-90962500D03*
%TD*%
D30*
%TO.P,C6,1*%
%TO.N,3V3*%
X153476340Y-115000000D03*
%TO.P,C6,2*%
%TO.N,GND*%
X151401340Y-115000000D03*
%TD*%
D32*
%TO.P,R9,1*%
%TO.N,SD_DAT3*%
X118438840Y-73000000D03*
%TO.P,R9,2*%
%TO.N,3V3*%
X118438840Y-75000000D03*
%TD*%
%TO.P,R53,1*%
%TO.N,SD_CMD*%
X120938840Y-74000000D03*
%TO.P,R53,2*%
%TO.N,3V3*%
X120938840Y-76000000D03*
%TD*%
D35*
%TO.P,C16,1*%
%TO.N,GND*%
X126401340Y-123500000D03*
%TO.P,C16,2*%
%TO.N,/E_ink_HAT/PREVGL*%
X128476340Y-123500000D03*
%TD*%
D30*
%TO.P,C36,1*%
%TO.N,3V3*%
X150476340Y-93490000D03*
%TO.P,C36,2*%
%TO.N,Net-(J7-VDD)*%
X148401340Y-93490000D03*
%TD*%
D34*
%TO.P,R1,1*%
%TO.N,GND*%
X128438840Y-141500000D03*
%TO.P,R1,2*%
%TO.N,Net-(J1-SHIELD)*%
X130438840Y-141500000D03*
%TD*%
D36*
%TO.P,U3,1,VIN*%
%TO.N,Net-(U3-EN)*%
X153388840Y-121850000D03*
%TO.P,U3,2,GND*%
%TO.N,GND*%
X152438840Y-121850000D03*
%TO.P,U3,3,EN*%
%TO.N,Net-(U3-EN)*%
X151488840Y-121850000D03*
%TO.P,U3,4,NC*%
%TO.N,unconnected-(U3-NC-Pad4)*%
X151488840Y-119150000D03*
%TO.P,U3,5,VOUT*%
%TO.N,3V3*%
X153388840Y-119150000D03*
%TD*%
D35*
%TO.P,C14,1*%
%TO.N,GND*%
X126401340Y-121000000D03*
%TO.P,C14,2*%
%TO.N,/E_ink_HAT/PREVGH*%
X128476340Y-121000000D03*
%TD*%
D31*
%TO.P,R7,1*%
%TO.N,3V3*%
X153438840Y-100500000D03*
%TO.P,R7,2*%
%TO.N,ESP32_EN*%
X153438840Y-98500000D03*
%TD*%
D35*
%TO.P,C3,1*%
%TO.N,VBat+*%
X166401340Y-136000000D03*
%TO.P,C3,2*%
%TO.N,GND*%
X168476340Y-136000000D03*
%TD*%
D18*
%TO.P,C4,1*%
%TO.N,Net-(U3-EN)*%
X153438840Y-127462500D03*
%TO.P,C4,2*%
%TO.N,GND*%
X153438840Y-129537500D03*
%TD*%
D32*
%TO.P,R8,1*%
%TO.N,SD_DAT2*%
X115938840Y-72000000D03*
%TO.P,R8,2*%
%TO.N,3V3*%
X115938840Y-74000000D03*
%TD*%
D30*
%TO.P,C32,1*%
%TO.N,3V3*%
X153438840Y-104990000D03*
%TO.P,C32,2*%
%TO.N,GND*%
X151363840Y-104990000D03*
%TD*%
D32*
%TO.P,R2,1*%
%TO.N,Net-(J1-CC1)*%
X122438840Y-145000000D03*
%TO.P,R2,2*%
%TO.N,GND*%
X122438840Y-147000000D03*
%TD*%
D34*
%TO.P,R6,1*%
%TO.N,Net-(U2-TS)*%
X162438840Y-128000000D03*
%TO.P,R6,2*%
%TO.N,GND*%
X164438840Y-128000000D03*
%TD*%
D37*
%TO.P,SW12,1,1*%
%TO.N,GND*%
X163213840Y-58000000D03*
%TO.P,SW12,2,2*%
%TO.N,ESP32_EN*%
X167663840Y-58000000D03*
%TD*%
D38*
%TO.P,SW6,1,1*%
%TO.N,GND*%
X153163840Y-58000000D03*
%TO.P,SW6,2,2*%
%TO.N,ESP32_IO0*%
X148713840Y-58000000D03*
%TD*%
D39*
%TO.N,GND*%
X167500000Y-134000000D03*
X152000000Y-110000000D03*
X155500000Y-91000000D03*
X151500000Y-137000000D03*
X162500000Y-64000000D03*
X149000000Y-79500000D03*
X134000000Y-67500000D03*
%TO.N,Net-(J1-SHIELD)*%
X160000000Y-146500000D03*
%TO.N,GND*%
X165438840Y-145500000D03*
X158438840Y-117500000D03*
X154438840Y-124500000D03*
X154938840Y-131000000D03*
X152438840Y-124000000D03*
X137438840Y-128500000D03*
X141438840Y-127500000D03*
%TO.N,EPD_RST*%
X142038840Y-76500000D03*
%TO.N,BUTTON_A*%
X133938840Y-60500000D03*
X127438840Y-80000000D03*
X115438840Y-116500000D03*
%TO.N,BUTTON_B*%
X132438840Y-59500000D03*
X126438840Y-80000000D03*
X114438840Y-107000000D03*
%TO.N,3V3*%
X116438840Y-113500000D03*
%TO.N,DPAD_DOWN*%
X135938840Y-64500000D03*
%TO.N,DPAD_UP*%
X135438840Y-65500000D03*
%TO.N,3V3*%
X165438840Y-118000000D03*
%TO.N,DPAD_LEFT*%
X140438840Y-47500000D03*
%TO.N,DPAD_RIGHT*%
X131858078Y-58419238D03*
%TO.N,SD_DAT0*%
X125938840Y-77000000D03*
%TO.N,SD_CMD*%
X119938840Y-72500000D03*
%TO.N,SD_DAT3*%
X117438840Y-72000000D03*
%TO.N,SD_DAT2*%
X114938840Y-69500000D03*
%TO.N,SD_CLK*%
X124938840Y-70500000D03*
X122438840Y-84000000D03*
%TO.N,SD_DAT1*%
X129938840Y-77000000D03*
X124438840Y-84000000D03*
%TO.N,SD_DAT0*%
X123438840Y-84000000D03*
%TO.N,Net-(J7-VDD)*%
X112038840Y-93000000D03*
X142438840Y-95000000D03*
%TO.N,SD_CMD*%
X116938840Y-84000000D03*
%TO.N,SD_DAT3*%
X115938840Y-84000000D03*
%TO.N,SD_DAT2*%
X114938840Y-84000000D03*
%TO.N,Net-(J1-CC1)*%
X154938840Y-144000000D03*
X161438840Y-137000000D03*
%TO.N,ESP32_DP*%
X163588658Y-146850182D03*
X161938840Y-138000000D03*
%TO.N,ESP32_DN*%
X163397840Y-143800000D03*
X161438840Y-139500000D03*
%TO.N,Net-(J1-SHIELD)*%
X131938840Y-139500000D03*
%TO.N,VBat+*%
X166938840Y-139000000D03*
%TO.N,Net-(U2-~{CHG})*%
X152938840Y-132500000D03*
%TO.N,/E_ink_HAT/PREVGL*%
X130438840Y-122500000D03*
%TO.N,/E_ink_HAT/PREVGH*%
X134938840Y-112500000D03*
%TO.N,/E_ink_HAT/VCC_EPD_OUT*%
X149938840Y-100500000D03*
%TO.N,/E_ink_HAT/RESE*%
X146938840Y-114500000D03*
%TO.N,/E_ink_HAT/GDR*%
X148938840Y-108000000D03*
%TO.N,Net-(J3-Pin_24)*%
X132888842Y-129000000D03*
%TO.N,Net-(J3-Pin_22)*%
X132938840Y-130000000D03*
%TO.N,Net-(J3-Pin_20)*%
X134438840Y-130000000D03*
%TO.N,Net-(J3-Pin_19)*%
X135438840Y-130000000D03*
%TO.N,Net-(J3-Pin_18)*%
X136438840Y-130000000D03*
%TO.N,Net-(J3-Pin_5)*%
X142588840Y-127500000D03*
%TO.N,Net-(J3-Pin_4)*%
X143388843Y-127500000D03*
%TO.N,ESP32_EN*%
X167938840Y-55500000D03*
%TO.N,ESP32_IO0*%
X146438840Y-57500000D03*
X129438840Y-73000000D03*
%TO.N,3V3*%
X137837840Y-43800000D03*
X167938840Y-93600000D03*
%TO.N,ESP32_EN*%
X138936840Y-44201000D03*
X168836840Y-93000000D03*
%TO.N,CHG_STATUS*%
X114938840Y-67500000D03*
%TO.N,BAT_MONIT*%
X114438840Y-66500000D03*
%TO.N,3V3*%
X148438840Y-89000000D03*
X153438840Y-82500000D03*
%TD*%
D40*
%TO.N,GND*%
X168476340Y-136000000D02*
X168476340Y-134976340D01*
X168476340Y-134976340D02*
X167500000Y-134000000D01*
X151363840Y-109363840D02*
X152000000Y-110000000D01*
X151363840Y-108000000D02*
X151363840Y-109363840D01*
X155537500Y-90962500D02*
X158938840Y-90962500D01*
X155500000Y-91000000D02*
X155537500Y-90962500D01*
X152462500Y-136037500D02*
X151500000Y-137000000D01*
X152938840Y-136037500D02*
X152462500Y-136037500D01*
X158938840Y-67561160D02*
X162500000Y-64000000D01*
X158938840Y-90962500D02*
X158938840Y-67561160D01*
X157000000Y-74000000D02*
X158938840Y-75938840D01*
X158938840Y-75938840D02*
X158938840Y-90962500D01*
X150000000Y-74000000D02*
X157000000Y-74000000D01*
X149000000Y-75000000D02*
X150000000Y-74000000D01*
X149000000Y-79500000D02*
X149000000Y-75000000D01*
X129738549Y-63238549D02*
X134000000Y-67500000D01*
X116262461Y-63238549D02*
X129738549Y-63238549D01*
X115732131Y-63768879D02*
X116262461Y-63238549D01*
%TO.N,Net-(J1-SHIELD)*%
X160000000Y-146500000D02*
X159549840Y-146500000D01*
X159549840Y-146500000D02*
X157549840Y-148500000D01*
%TO.N,GND*%
X165298840Y-140640000D02*
X165938840Y-140000000D01*
X164789840Y-140640000D02*
X165298840Y-140640000D01*
X165738840Y-145200000D02*
X165438840Y-145500000D01*
X168938840Y-145200000D02*
X165738840Y-145200000D01*
X158438840Y-119000000D02*
X158438840Y-117500000D01*
X164438840Y-125000000D02*
X158438840Y-119000000D01*
X164438840Y-128000000D02*
X164438840Y-125000000D01*
X164789840Y-141406008D02*
X164789840Y-140640000D01*
X165039840Y-141656008D02*
X164789840Y-141406008D01*
X165039840Y-142340000D02*
X165039840Y-141656008D01*
X156649840Y-138000000D02*
X154138840Y-138000000D01*
X159289840Y-140640000D02*
X156649840Y-138000000D01*
X157619476Y-143551000D02*
X154138840Y-140070364D01*
X158328840Y-143551000D02*
X157619476Y-143551000D01*
X154138840Y-140070364D02*
X154138840Y-138000000D01*
X159539840Y-142340000D02*
X158328840Y-143551000D01*
X155438840Y-123500000D02*
X154438840Y-124500000D01*
X155938840Y-123500000D02*
X155438840Y-123500000D01*
X156038840Y-132937500D02*
X157688840Y-132937500D01*
X152938840Y-136037500D02*
X156038840Y-132937500D01*
X168476340Y-138312443D02*
X168476340Y-136000000D01*
X166788783Y-140000000D02*
X168476340Y-138312443D01*
X165938840Y-140000000D02*
X166788783Y-140000000D01*
X165938840Y-138312500D02*
X165938840Y-140000000D01*
X159876340Y-132250000D02*
X165938840Y-138312500D01*
X159137840Y-132199000D02*
X158438840Y-131500000D01*
X159825340Y-132199000D02*
X159137840Y-132199000D01*
X159876340Y-132250000D02*
X159825340Y-132199000D01*
X158403638Y-132199000D02*
X158688840Y-132484202D01*
X157974042Y-132199000D02*
X158403638Y-132199000D01*
X157762840Y-132410202D02*
X157974042Y-132199000D01*
X157762840Y-132863500D02*
X157762840Y-132410202D01*
X157688840Y-132937500D02*
X157762840Y-132863500D01*
X158688840Y-132484202D02*
X158688840Y-132937500D01*
X153476340Y-129537500D02*
X154938840Y-131000000D01*
X153438840Y-129537500D02*
X153476340Y-129537500D01*
%TO.N,3V3*%
X150476340Y-92462500D02*
X153938840Y-89000000D01*
X150476340Y-93490000D02*
X150476340Y-92462500D01*
%TO.N,GND*%
X152438840Y-121850000D02*
X152438840Y-124000000D01*
X136688840Y-127750000D02*
X137438840Y-128500000D01*
X136688840Y-126150000D02*
X136688840Y-127750000D01*
X141188840Y-127250000D02*
X141438840Y-127500000D01*
X141188840Y-126150000D02*
X141188840Y-127250000D01*
%TO.N,EPD_BUSY*%
X140737840Y-126101000D02*
X140688840Y-126150000D01*
X140737840Y-119701000D02*
X140737840Y-126101000D01*
X142438840Y-118000000D02*
X140737840Y-119701000D01*
X141438840Y-97000000D02*
X142438840Y-98000000D01*
X142938840Y-93000000D02*
X141438840Y-94500000D01*
X142639840Y-76251057D02*
X142639840Y-76748943D01*
X142439840Y-76051057D02*
X142639840Y-76251057D01*
X142439840Y-73044991D02*
X142439840Y-76051057D01*
X142438840Y-98000000D02*
X142438840Y-118000000D01*
X142639840Y-76748943D02*
X142938840Y-77047943D01*
X141438840Y-70815040D02*
X141438840Y-72043991D01*
X141438840Y-72043991D02*
X142439840Y-73044991D01*
X141438840Y-94500000D02*
X141438840Y-97000000D01*
X137620621Y-66996821D02*
X141438840Y-70815040D01*
X142938840Y-77047943D02*
X142938840Y-93000000D01*
%TO.N,3V3*%
X132438840Y-97500000D02*
X132438840Y-91000000D01*
X132438840Y-90000000D02*
X132438840Y-79000000D01*
%TO.N,EPD_RST*%
X142038840Y-76500000D02*
X142038840Y-73211091D01*
X142038840Y-73211091D02*
X140188840Y-71361091D01*
%TO.N,ESP32_DP*%
X168938840Y-147300000D02*
X169537840Y-147300000D01*
X169837840Y-147000000D02*
X169837840Y-61500000D01*
X169537840Y-147300000D02*
X169837840Y-147000000D01*
X164038476Y-147300000D02*
X168938840Y-147300000D01*
X163588658Y-146850182D02*
X164038476Y-147300000D01*
%TO.N,ESP32_DN*%
X169436840Y-137002000D02*
X168938840Y-137500000D01*
X169436840Y-62500000D02*
X169436840Y-137002000D01*
X168938840Y-137500000D02*
X168938840Y-143800000D01*
%TO.N,/E_ink_HAT/VCC_EPD_OUT*%
X145424340Y-127462500D02*
X149938840Y-127462500D01*
X144785840Y-128101000D02*
X145424340Y-127462500D01*
X138639840Y-128101000D02*
X144785840Y-128101000D01*
X137188840Y-126650000D02*
X138639840Y-128101000D01*
X137188840Y-126150000D02*
X137188840Y-126650000D01*
%TO.N,Net-(J3-Pin_4)*%
X143388843Y-127500000D02*
X143188840Y-127299997D01*
X143188840Y-127299997D02*
X143188840Y-126150000D01*
%TO.N,Net-(J3-Pin_5)*%
X142688840Y-127400000D02*
X142688840Y-126150000D01*
X142588840Y-127500000D02*
X142688840Y-127400000D01*
%TO.N,BUTTON_A*%
X133938840Y-59930580D02*
X135290705Y-58578715D01*
X133938840Y-60500000D02*
X133938840Y-59930580D01*
X115438840Y-113500000D02*
X127438840Y-101500000D01*
X127438840Y-101500000D02*
X127438840Y-80000000D01*
X115438840Y-116500000D02*
X115438840Y-113500000D01*
%TO.N,BUTTON_B*%
X132573368Y-59500000D02*
X134392679Y-57680689D01*
X132438840Y-59500000D02*
X132573368Y-59500000D01*
X119788783Y-107000000D02*
X126438840Y-100349943D01*
X114438840Y-107000000D02*
X119788783Y-107000000D01*
X126438840Y-100349943D02*
X126438840Y-80000000D01*
%TO.N,3V3*%
X132438840Y-91000000D02*
X132438840Y-90000000D01*
X116438840Y-113500000D02*
X132438840Y-97500000D01*
%TO.N,DPAD_DOWN*%
X131257078Y-55428136D02*
X131698602Y-54986612D01*
X135938840Y-64500000D02*
X131257078Y-59818238D01*
X131257078Y-59818238D02*
X131257078Y-55428136D01*
%TO.N,DPAD_RIGHT*%
X131858078Y-58419238D02*
X133494653Y-56782664D01*
%TO.N,DPAD_UP*%
X130337840Y-54551324D02*
X130800577Y-54088587D01*
X130337840Y-60399000D02*
X130337840Y-54551324D01*
X135438840Y-65500000D02*
X130337840Y-60399000D01*
%TO.N,3V3*%
X165438840Y-118000000D02*
X162438840Y-115000000D01*
X162438840Y-115000000D02*
X153476340Y-115000000D01*
%TO.N,DPAD_LEFT*%
X139938840Y-48000000D02*
X139938840Y-48542426D01*
X139938840Y-48542426D02*
X132596628Y-55884638D01*
X140438840Y-47500000D02*
X139938840Y-48000000D01*
%TO.N,SD_DAT0*%
X124438840Y-75500000D02*
X123438840Y-75500000D01*
X125938840Y-77000000D02*
X124438840Y-75500000D01*
%TO.N,SD_CMD*%
X119938840Y-72500000D02*
X119938840Y-73000000D01*
X119938840Y-73000000D02*
X120938840Y-74000000D01*
%TO.N,SD_DAT3*%
X117438840Y-72000000D02*
X118438840Y-73000000D01*
%TO.N,SD_DAT2*%
X115938840Y-70500000D02*
X115938840Y-72000000D01*
X114938840Y-69500000D02*
X115938840Y-70500000D01*
%TO.N,3V3*%
X124938840Y-79000000D02*
X132438840Y-79000000D01*
X123438840Y-77500000D02*
X124938840Y-79000000D01*
X122438840Y-77500000D02*
X120938840Y-76000000D01*
X123438840Y-77500000D02*
X122438840Y-77500000D01*
X119438840Y-76000000D02*
X118438840Y-75000000D01*
X120938840Y-76000000D02*
X119438840Y-76000000D01*
X117438840Y-74000000D02*
X118438840Y-75000000D01*
X115938840Y-74000000D02*
X117438840Y-74000000D01*
X114438840Y-74000000D02*
X115938840Y-74000000D01*
X113837840Y-73399000D02*
X114438840Y-74000000D01*
X113837840Y-64601096D02*
X113837840Y-73399000D01*
X128193954Y-50244982D02*
X113837840Y-64601096D01*
X128443310Y-50244982D02*
X128193954Y-50244982D01*
X129256028Y-52041033D02*
X129256028Y-51057700D01*
X129004525Y-52292536D02*
X129256028Y-52041033D01*
X129256028Y-51057700D02*
X128443310Y-50244982D01*
%TO.N,SD_CLK*%
X123369420Y-70500000D02*
X122916336Y-70953084D01*
X122438840Y-87100000D02*
X122438840Y-84000000D01*
X122386006Y-87152834D02*
X122438840Y-87100000D01*
X124938840Y-70500000D02*
X123369420Y-70500000D01*
%TO.N,SD_DAT1*%
X129938840Y-77000000D02*
X132438840Y-77000000D01*
X124438840Y-88000000D02*
X124438840Y-84000000D01*
X114888840Y-97000000D02*
X115438840Y-97000000D01*
X115438840Y-97000000D02*
X124438840Y-88000000D01*
%TO.N,SD_DAT0*%
X115838840Y-95900000D02*
X123438840Y-88300000D01*
X123438840Y-88300000D02*
X123438840Y-84000000D01*
X114888840Y-95900000D02*
X115838840Y-95900000D01*
%TO.N,SD_CLK*%
X122386006Y-71483414D02*
X122916336Y-70953084D01*
X115838840Y-93700000D02*
X122386006Y-87152834D01*
X114888840Y-93700000D02*
X115838840Y-93700000D01*
%TO.N,Net-(J7-VDD)*%
X112438840Y-92600000D02*
X114888840Y-92600000D01*
X112038840Y-93000000D02*
X112438840Y-92600000D01*
X148401340Y-95000000D02*
X148401340Y-96500000D01*
X148401340Y-95000000D02*
X142438840Y-95000000D01*
%TO.N,SD_CMD*%
X115838840Y-91500000D02*
X116938840Y-90400000D01*
X114888840Y-91500000D02*
X115838840Y-91500000D01*
X116938840Y-90400000D02*
X116938840Y-84000000D01*
%TO.N,SD_DAT3*%
X115838840Y-90400000D02*
X115938840Y-90300000D01*
X114888840Y-90400000D02*
X115838840Y-90400000D01*
X115938840Y-90300000D02*
X115938840Y-84000000D01*
%TO.N,SD_DAT2*%
X114888840Y-84050000D02*
X114938840Y-84000000D01*
X114888840Y-89300000D02*
X114888840Y-84050000D01*
%TO.N,SD_DAT1*%
X132438840Y-76183449D02*
X130436417Y-74181026D01*
X132438840Y-77000000D02*
X132438840Y-76183449D01*
%TO.N,SD_DAT0*%
X123438840Y-72226631D02*
X123814362Y-71851109D01*
X123438840Y-75500000D02*
X123438840Y-72226631D01*
%TO.N,SD_CMD*%
X120938840Y-71134528D02*
X122018310Y-70055058D01*
X120938840Y-74000000D02*
X120938840Y-71134528D01*
%TO.N,SD_DAT3*%
X118438840Y-71838477D02*
X121120285Y-69157032D01*
X118438840Y-73000000D02*
X118438840Y-71838477D01*
%TO.N,SD_DAT2*%
X116481266Y-72000000D02*
X120222259Y-68259007D01*
X115938840Y-72000000D02*
X116481266Y-72000000D01*
%TO.N,Net-(J1-CC1)*%
X123438840Y-144000000D02*
X122438840Y-145000000D01*
X154938840Y-144000000D02*
X123438840Y-144000000D01*
X162789840Y-137851000D02*
X161938840Y-137000000D01*
X161938840Y-137000000D02*
X161438840Y-137000000D01*
X162789840Y-140640000D02*
X162789840Y-137851000D01*
%TO.N,USB_VBUS*%
X161789840Y-135851000D02*
X160789840Y-135851000D01*
X164934340Y-138995500D02*
X161789840Y-135851000D01*
X163940840Y-139989000D02*
X164934340Y-138995500D01*
X163338840Y-139989000D02*
X163940840Y-139989000D01*
X163338840Y-140591000D02*
X163338840Y-139989000D01*
X163289840Y-140640000D02*
X163338840Y-140591000D01*
%TO.N,ESP32_DP*%
X161938840Y-139150057D02*
X161938840Y-138000000D01*
X162289840Y-139501057D02*
X161938840Y-139150057D01*
X162289840Y-140640000D02*
X162289840Y-139501057D01*
%TO.N,ESP32_DN*%
X161789840Y-140640000D02*
X161789840Y-139851000D01*
X161789840Y-139851000D02*
X161438840Y-139500000D01*
%TO.N,USB_VBUS*%
X152337840Y-128262840D02*
X152337840Y-133361500D01*
X150649000Y-121249850D02*
X150649000Y-126574000D01*
X150649000Y-126574000D02*
X152337840Y-128262840D01*
X151530850Y-120368000D02*
X150649000Y-121249850D01*
X154393000Y-120368000D02*
X151530850Y-120368000D01*
X157688840Y-123663840D02*
X154393000Y-120368000D01*
X157688840Y-130062500D02*
X157688840Y-123663840D01*
X152337840Y-133361500D02*
X152938840Y-133962500D01*
X156325000Y-134250000D02*
X159188840Y-134250000D01*
X150438840Y-138000000D02*
X152575000Y-138000000D01*
X152575000Y-138000000D02*
X156325000Y-134250000D01*
%TO.N,Net-(J1-SHIELD)*%
X130476340Y-139500000D02*
X131938840Y-139500000D01*
%TO.N,Net-(J1-CC2)*%
X159481840Y-145000000D02*
X124938840Y-145000000D01*
X161539840Y-142942000D02*
X159481840Y-145000000D01*
X161539840Y-142340000D02*
X161539840Y-142942000D01*
%TO.N,USB_VBUS*%
X160993340Y-141445500D02*
X161039840Y-141492000D01*
X161039840Y-141492000D02*
X163539840Y-141492000D01*
X163289840Y-141242000D02*
X163289840Y-140640000D01*
X163539840Y-141492000D02*
X163289840Y-141242000D01*
X163539840Y-142340000D02*
X163539840Y-141492000D01*
X160789840Y-141242000D02*
X160789840Y-140640000D01*
X160993340Y-141445500D02*
X160789840Y-141242000D01*
X161039840Y-142340000D02*
X161039840Y-141492000D01*
X160438840Y-135500000D02*
X159188840Y-134250000D01*
X159188840Y-134250000D02*
X159188840Y-132937500D01*
X160789840Y-135851000D02*
X160438840Y-135500000D01*
X160789840Y-140640000D02*
X160789840Y-135851000D01*
%TO.N,ESP32_DN*%
X162539840Y-142942000D02*
X162539840Y-142340000D01*
X163397840Y-143800000D02*
X162539840Y-142942000D01*
X168938840Y-143800000D02*
X163397840Y-143800000D01*
%TO.N,ESP32_DP*%
X162039840Y-145301364D02*
X163588658Y-146850182D01*
X162039840Y-142340000D02*
X162039840Y-145301364D01*
%TO.N,/E_ink_HAT/PREVGH*%
X134688840Y-112750000D02*
X134688840Y-125250000D01*
X134938840Y-112500000D02*
X134688840Y-112750000D01*
%TO.N,EPD_RST*%
X140188840Y-71361091D02*
X140188840Y-126150000D01*
X136722596Y-67894847D02*
X140188840Y-71361091D01*
%TO.N,EPD_DC*%
X135824570Y-68792872D02*
X139688840Y-72657142D01*
X139688840Y-72657142D02*
X139688840Y-126150000D01*
%TO.N,EPD_CS*%
X139188840Y-73953193D02*
X139188840Y-126150000D01*
X134926545Y-69690898D02*
X139188840Y-73953193D01*
%TO.N,EPD_SCK*%
X138688840Y-75249245D02*
X138688840Y-126150000D01*
X134028519Y-70588924D02*
X138688840Y-75249245D01*
%TO.N,EPD_MOSI*%
X138188840Y-76545296D02*
X138188840Y-126150000D01*
X133130493Y-71486949D02*
X138188840Y-76545296D01*
%TO.N,/E_ink_HAT/RESE*%
X146938840Y-119500000D02*
X143688840Y-122750000D01*
X143688840Y-122750000D02*
X143688840Y-126150000D01*
X146938840Y-114500000D02*
X146938840Y-119500000D01*
%TO.N,/E_ink_HAT/GDR*%
X148438840Y-109500000D02*
X148938840Y-109000000D01*
X148938840Y-109000000D02*
X148938840Y-108000000D01*
X148438840Y-119500000D02*
X148438840Y-109500000D01*
X144188840Y-126150000D02*
X144188840Y-123750000D01*
X144188840Y-123750000D02*
X148438840Y-119500000D01*
%TO.N,/E_ink_HAT/VCC_EPD_OUT*%
X149438840Y-127500000D02*
X149938840Y-127000000D01*
X149938840Y-127000000D02*
X149938840Y-100500000D01*
%TO.N,VBat+*%
X166401340Y-94037500D02*
X166401340Y-131500000D01*
%TO.N,Net-(U3-EN)*%
X151488840Y-125512500D02*
X151488840Y-121850000D01*
X153438840Y-127462500D02*
X151488840Y-125512500D01*
X153438840Y-121900000D02*
X153388840Y-121850000D01*
X153438840Y-127462500D02*
X153438840Y-121900000D01*
X156262840Y-131011500D02*
X156262840Y-130964798D01*
X157001340Y-131750000D02*
X156262840Y-131011500D01*
X156262840Y-130964798D02*
X156548042Y-131250000D01*
X156262840Y-130578600D02*
X156262840Y-130964798D01*
X156548042Y-131250000D02*
X157001340Y-131250000D01*
X153438840Y-127754600D02*
X156262840Y-130578600D01*
X153438840Y-127462500D02*
X153438840Y-127754600D01*
%TO.N,Net-(U2-ILIM)*%
X155938840Y-129687500D02*
X155938840Y-125500000D01*
X157001340Y-130750000D02*
X155938840Y-129687500D01*
%TO.N,Net-(U2-~{CHG})*%
X153188840Y-132250000D02*
X152938840Y-132500000D01*
X157001340Y-132250000D02*
X153188840Y-132250000D01*
%TO.N,Net-(U2-TS)*%
X162438840Y-128187500D02*
X159876340Y-130750000D01*
X162438840Y-128000000D02*
X162438840Y-128187500D01*
%TO.N,Net-(U2-ISET)*%
X159188840Y-128250000D02*
X162438840Y-125000000D01*
X159188840Y-130062500D02*
X159188840Y-128250000D01*
%TO.N,VBat+*%
X166401340Y-138462500D02*
X166401340Y-136000000D01*
X166938840Y-139000000D02*
X166401340Y-138462500D01*
X166187840Y-131713500D02*
X166401340Y-131500000D01*
X166401340Y-131500000D02*
X166401340Y-136000000D01*
X159876340Y-131250000D02*
X160339840Y-131713500D01*
X160339840Y-131713500D02*
X166187840Y-131713500D01*
X159876340Y-131750000D02*
X159876340Y-131250000D01*
%TO.N,USB_VBUS*%
X152938840Y-133962500D02*
X150438840Y-136462500D01*
X150438840Y-136462500D02*
X150438840Y-138000000D01*
X152738840Y-138000000D02*
X150438840Y-138000000D01*
%TO.N,ESP32_DN*%
X140349676Y-62500000D02*
X169436840Y-62500000D01*
X139780833Y-63068843D02*
X140349676Y-62500000D01*
%TO.N,Net-(J7-VDD)*%
X148401340Y-93490000D02*
X148401340Y-95000000D01*
%TO.N,3V3*%
X150476340Y-96500000D02*
X150476340Y-93490000D01*
X150476340Y-97537500D02*
X150476340Y-96500000D01*
X153438840Y-100500000D02*
X150476340Y-97537500D01*
%TO.N,/E_ink_HAT/PREVGL*%
X130438840Y-123500000D02*
X128476340Y-123500000D01*
X130438840Y-123500000D02*
X130438840Y-122500000D01*
%TO.N,/E_ink_HAT/PREVGH*%
X130438840Y-121000000D02*
X128476340Y-121000000D01*
X134688840Y-125250000D02*
X130438840Y-121000000D01*
X134688840Y-126150000D02*
X134688840Y-125250000D01*
%TO.N,/E_ink_HAT/PREVGL*%
X131940840Y-123500000D02*
X130438840Y-123500000D01*
X133688840Y-125248000D02*
X131940840Y-123500000D01*
X133688840Y-126150000D02*
X133688840Y-125248000D01*
%TO.N,/E_ink_HAT/VCC_EPD_OUT*%
X137188840Y-126150000D02*
X137688840Y-126150000D01*
%TO.N,3V3*%
X153388840Y-115087500D02*
X153476340Y-115000000D01*
X153438840Y-104990000D02*
X153438840Y-108000000D01*
X153438840Y-104990000D02*
X153438840Y-100500000D01*
X153476340Y-115000000D02*
X153476340Y-108037500D01*
%TO.N,Net-(J3-Pin_24)*%
X133188840Y-128700002D02*
X132888842Y-129000000D01*
X133188840Y-126150000D02*
X133188840Y-128700002D01*
%TO.N,Net-(J3-Pin_22)*%
X134188840Y-128750000D02*
X132938840Y-130000000D01*
X134188840Y-126150000D02*
X134188840Y-128750000D01*
%TO.N,Net-(J3-Pin_20)*%
X135188840Y-129250000D02*
X134438840Y-130000000D01*
X135188840Y-126150000D02*
X135188840Y-129250000D01*
%TO.N,Net-(J3-Pin_19)*%
X135688840Y-129750000D02*
X135438840Y-130000000D01*
X135688840Y-126150000D02*
X135688840Y-129750000D01*
%TO.N,Net-(J3-Pin_18)*%
X136188840Y-129750000D02*
X136438840Y-130000000D01*
X136188840Y-126150000D02*
X136188840Y-129750000D01*
%TO.N,ESP32_EN*%
X167663840Y-55775000D02*
X167663840Y-58000000D01*
X167938840Y-55500000D02*
X167663840Y-55775000D01*
%TO.N,ESP32_IO0*%
X146438840Y-57500000D02*
X148713840Y-57500000D01*
X129438840Y-73000000D02*
X129438840Y-73410836D01*
X129438840Y-73410836D02*
X127406464Y-75443212D01*
%TO.N,ESP32_EN*%
X132938840Y-50154272D02*
X129902551Y-53190561D01*
X132938840Y-50000000D02*
X132938840Y-50154272D01*
X138737840Y-44201000D02*
X132938840Y-50000000D01*
X138936840Y-44201000D02*
X138737840Y-44201000D01*
%TO.N,3V3*%
X132297061Y-49000000D02*
X129004525Y-52292536D01*
X132637840Y-49000000D02*
X132297061Y-49000000D01*
X137837840Y-43800000D02*
X132637840Y-49000000D01*
X160338840Y-93600000D02*
X167938840Y-93600000D01*
X153438840Y-100500000D02*
X160338840Y-93600000D01*
%TO.N,ESP32_EN*%
X153438840Y-98500000D02*
X158938840Y-93000000D01*
X158938840Y-93000000D02*
X168836840Y-93000000D01*
%TO.N,3V3*%
X153388840Y-119150000D02*
X153388840Y-115087500D01*
%TO.N,Net-(U3-EN)*%
X153388840Y-121070001D02*
X153388840Y-121850000D01*
X153087839Y-120769000D02*
X153388840Y-121070001D01*
X152079850Y-120769000D02*
X153087839Y-120769000D01*
X151488840Y-121360010D02*
X152079850Y-120769000D01*
X151488840Y-121850000D02*
X151488840Y-121360010D01*
%TO.N,VBat+*%
X166438840Y-94000000D02*
X166401340Y-94037500D01*
X162488840Y-94000000D02*
X166438840Y-94000000D01*
%TO.N,CHG_STATUS*%
X116093112Y-67000000D02*
X117528182Y-65564930D01*
X115438840Y-67000000D02*
X116093112Y-67000000D01*
X114938840Y-67500000D02*
X115438840Y-67000000D01*
%TO.N,BAT_MONIT*%
X115297061Y-66000000D02*
X116630157Y-64666904D01*
X114938840Y-66000000D02*
X115297061Y-66000000D01*
X114438840Y-66500000D02*
X114938840Y-66000000D01*
%TO.N,Net-(J1-SHIELD)*%
X166438840Y-143000000D02*
X166401340Y-142962500D01*
%TO.N,VBat+*%
X166151340Y-136250000D02*
X166401340Y-136000000D01*
X166151340Y-135750000D02*
X166401340Y-136000000D01*
%TO.N,Net-(J1-SHIELD)*%
X130476340Y-141462500D02*
X130438840Y-141500000D01*
X130476340Y-139500000D02*
X130476340Y-141462500D01*
X130548840Y-141390000D02*
X130438840Y-141500000D01*
%TO.N,ESP32_DP*%
X139553624Y-61500000D02*
X138882807Y-62170817D01*
X169837840Y-61500000D02*
X139553624Y-61500000D01*
%TO.N,GND*%
X128438840Y-61979899D02*
X122990026Y-56531085D01*
X122990026Y-56531085D02*
X122969925Y-56531085D01*
X122969925Y-56531085D02*
X128106500Y-51394510D01*
X115732131Y-63768879D02*
X122969925Y-56531085D01*
X114888840Y-94800000D02*
X114138840Y-94800000D01*
%TO.N,VBat+*%
X158988840Y-97500000D02*
X162488840Y-94000000D01*
%TO.N,GND*%
X159938840Y-100500000D02*
X159938840Y-105550000D01*
%TO.N,Net-(J5-Pin_1)*%
X160888840Y-104500000D02*
X161938840Y-105550000D01*
X160888840Y-97500000D02*
X160888840Y-104500000D01*
%TO.N,3V3*%
X148438840Y-89000000D02*
X153938840Y-89000000D01*
X154438840Y-88500000D02*
X154438840Y-82500000D01*
X153938840Y-89000000D02*
X154438840Y-88500000D01*
X154438840Y-82500000D02*
X153438840Y-82500000D01*
%TD*%
%TA.AperFunction,Conductor*%
%TO.N,GND*%
G36*
X136997176Y-43520185D02*
G01*
X137042931Y-43572989D01*
X137052875Y-43642147D01*
X137051754Y-43648692D01*
X137037202Y-43721848D01*
X137004817Y-43783759D01*
X137003266Y-43785337D01*
X132425424Y-48363181D01*
X132364101Y-48396666D01*
X132337743Y-48399500D01*
X132218004Y-48399500D01*
X132065276Y-48440423D01*
X132038721Y-48455755D01*
X132025533Y-48463369D01*
X132025532Y-48463368D01*
X131928348Y-48519477D01*
X131928343Y-48519481D01*
X129835376Y-50612449D01*
X129827432Y-50616786D01*
X129822008Y-50624033D01*
X129797246Y-50633269D01*
X129774053Y-50645934D01*
X129765025Y-50645288D01*
X129756544Y-50648452D01*
X129730720Y-50642835D01*
X129704361Y-50640950D01*
X129695309Y-50635132D01*
X129688271Y-50633602D01*
X129660020Y-50612454D01*
X129660016Y-50612451D01*
X129640210Y-50592646D01*
X129624744Y-50577180D01*
X129624741Y-50577178D01*
X128930900Y-49883337D01*
X128930898Y-49883334D01*
X128812027Y-49764463D01*
X128812026Y-49764462D01*
X128725214Y-49714342D01*
X128725214Y-49714341D01*
X128725210Y-49714340D01*
X128675095Y-49685405D01*
X128522367Y-49644481D01*
X128364253Y-49644481D01*
X128356657Y-49644481D01*
X128356641Y-49644482D01*
X128273011Y-49644482D01*
X128114897Y-49644482D01*
X127962169Y-49685405D01*
X127962168Y-49685405D01*
X127962166Y-49685406D01*
X127962163Y-49685407D01*
X127912050Y-49714341D01*
X127912049Y-49714342D01*
X127868643Y-49739402D01*
X127825239Y-49764461D01*
X127825236Y-49764463D01*
X113357319Y-64232380D01*
X113343304Y-64256656D01*
X113336631Y-64268215D01*
X113278263Y-64369311D01*
X113237339Y-64522039D01*
X113237339Y-64522041D01*
X113237339Y-64690142D01*
X113237340Y-64690155D01*
X113237340Y-73312330D01*
X113237339Y-73312348D01*
X113237339Y-73478054D01*
X113237338Y-73478054D01*
X113278264Y-73630787D01*
X113288685Y-73648836D01*
X113288686Y-73648838D01*
X113357317Y-73767712D01*
X113357321Y-73767717D01*
X113476189Y-73886585D01*
X113476195Y-73886590D01*
X113953979Y-74364374D01*
X113953989Y-74364385D01*
X113958319Y-74368715D01*
X113958320Y-74368716D01*
X114070124Y-74480520D01*
X114070126Y-74480521D01*
X114070130Y-74480524D01*
X114108709Y-74502797D01*
X114207056Y-74559577D01*
X114318859Y-74589534D01*
X114359782Y-74600500D01*
X114359783Y-74600500D01*
X114692932Y-74600500D01*
X114759971Y-74620185D01*
X114798476Y-74664271D01*
X114800235Y-74663187D01*
X114804025Y-74669331D01*
X114804026Y-74669334D01*
X114896128Y-74818656D01*
X115020184Y-74942712D01*
X115169506Y-75034814D01*
X115336043Y-75089999D01*
X115438831Y-75100500D01*
X116438848Y-75100499D01*
X116438856Y-75100498D01*
X116438859Y-75100498D01*
X116495142Y-75094748D01*
X116541637Y-75089999D01*
X116708174Y-75034814D01*
X116857496Y-74942712D01*
X116981552Y-74818656D01*
X117008802Y-74774475D01*
X117060748Y-74727752D01*
X117129710Y-74716529D01*
X117193793Y-74744372D01*
X117232649Y-74802440D01*
X117238340Y-74839573D01*
X117238340Y-75400001D01*
X117238341Y-75400019D01*
X117248840Y-75502796D01*
X117248841Y-75502799D01*
X117284778Y-75611247D01*
X117304026Y-75669334D01*
X117396128Y-75818656D01*
X117520184Y-75942712D01*
X117669506Y-76034814D01*
X117836043Y-76089999D01*
X117938831Y-76100500D01*
X118638741Y-76100499D01*
X118705780Y-76120183D01*
X118726422Y-76136818D01*
X119070124Y-76480520D01*
X119070126Y-76480521D01*
X119070130Y-76480524D01*
X119167132Y-76536527D01*
X119207056Y-76559577D01*
X119359783Y-76600501D01*
X119359785Y-76600501D01*
X119525494Y-76600501D01*
X119525510Y-76600500D01*
X119692932Y-76600500D01*
X119759971Y-76620185D01*
X119798476Y-76664271D01*
X119800235Y-76663187D01*
X119804025Y-76669332D01*
X119804026Y-76669334D01*
X119896128Y-76818656D01*
X120020184Y-76942712D01*
X120169506Y-77034814D01*
X120336043Y-77089999D01*
X120438831Y-77100500D01*
X121138742Y-77100499D01*
X121205781Y-77120183D01*
X121226423Y-77136818D01*
X121953979Y-77864374D01*
X121953989Y-77864385D01*
X121958319Y-77868715D01*
X121958320Y-77868716D01*
X122070124Y-77980520D01*
X122070126Y-77980521D01*
X122070130Y-77980524D01*
X122149518Y-78026358D01*
X122207056Y-78059577D01*
X122208973Y-78060090D01*
X122210411Y-78060967D01*
X122214568Y-78062689D01*
X122214299Y-78063336D01*
X122268635Y-78096451D01*
X122294592Y-78140863D01*
X122304025Y-78169331D01*
X122304027Y-78169336D01*
X122311434Y-78181344D01*
X122396128Y-78318656D01*
X122520184Y-78442712D01*
X122669506Y-78534814D01*
X122836043Y-78589999D01*
X122938831Y-78600500D01*
X123638742Y-78600499D01*
X123705781Y-78620183D01*
X123726423Y-78636818D01*
X124453979Y-79364374D01*
X124453989Y-79364385D01*
X124458319Y-79368715D01*
X124458320Y-79368716D01*
X124570124Y-79480520D01*
X124570126Y-79480521D01*
X124570130Y-79480524D01*
X124608709Y-79502797D01*
X124707056Y-79559577D01*
X124818859Y-79589534D01*
X124859782Y-79600500D01*
X124859783Y-79600500D01*
X125552285Y-79600500D01*
X125619324Y-79620185D01*
X125665079Y-79672989D01*
X125675023Y-79742147D01*
X125669999Y-79760411D01*
X125670871Y-79760676D01*
X125669101Y-79766510D01*
X125638340Y-79921153D01*
X125638340Y-80078846D01*
X125669101Y-80233489D01*
X125669104Y-80233501D01*
X125729442Y-80379172D01*
X125729449Y-80379185D01*
X125817442Y-80510874D01*
X125838320Y-80577551D01*
X125838340Y-80579765D01*
X125838340Y-100049845D01*
X125818655Y-100116884D01*
X125802021Y-100137526D01*
X119576367Y-106363181D01*
X119515044Y-106396666D01*
X119488686Y-106399500D01*
X115018606Y-106399500D01*
X114951567Y-106379815D01*
X114949715Y-106378602D01*
X114818025Y-106290609D01*
X114818012Y-106290602D01*
X114672341Y-106230264D01*
X114672329Y-106230261D01*
X114517685Y-106199500D01*
X114517682Y-106199500D01*
X114359998Y-106199500D01*
X114359995Y-106199500D01*
X114205350Y-106230261D01*
X114205338Y-106230264D01*
X114059667Y-106290602D01*
X114059654Y-106290609D01*
X113928551Y-106378210D01*
X113928547Y-106378213D01*
X113817053Y-106489707D01*
X113817050Y-106489711D01*
X113729449Y-106620814D01*
X113729442Y-106620827D01*
X113669104Y-106766498D01*
X113669101Y-106766510D01*
X113638340Y-106921153D01*
X113638340Y-107078846D01*
X113669101Y-107233489D01*
X113669104Y-107233501D01*
X113729442Y-107379172D01*
X113729449Y-107379185D01*
X113817050Y-107510288D01*
X113817053Y-107510292D01*
X113928547Y-107621786D01*
X113928551Y-107621789D01*
X114059654Y-107709390D01*
X114059667Y-107709397D01*
X114197523Y-107766498D01*
X114205343Y-107769737D01*
X114359993Y-107800499D01*
X114359996Y-107800500D01*
X114359998Y-107800500D01*
X114517684Y-107800500D01*
X114517685Y-107800499D01*
X114672337Y-107769737D01*
X114818019Y-107709394D01*
X114818025Y-107709390D01*
X114949715Y-107621398D01*
X115016393Y-107600520D01*
X115018606Y-107600500D01*
X119702114Y-107600500D01*
X119702130Y-107600501D01*
X119709726Y-107600501D01*
X119867837Y-107600501D01*
X119867840Y-107600501D01*
X120020568Y-107559577D01*
X120070687Y-107530639D01*
X120157499Y-107480520D01*
X120269303Y-107368716D01*
X120269303Y-107368714D01*
X120279511Y-107358507D01*
X120279512Y-107358504D01*
X126626661Y-101011356D01*
X126646095Y-101000745D01*
X126662829Y-100986245D01*
X126676160Y-100984328D01*
X126687982Y-100977873D01*
X126710068Y-100979452D01*
X126731987Y-100976301D01*
X126744238Y-100981896D01*
X126757674Y-100982857D01*
X126775400Y-100996127D01*
X126795543Y-101005326D01*
X126802825Y-101016657D01*
X126813607Y-101024729D01*
X126821344Y-101045474D01*
X126833317Y-101064104D01*
X126836468Y-101086022D01*
X126838024Y-101090193D01*
X126838340Y-101099039D01*
X126838340Y-101199902D01*
X126818655Y-101266941D01*
X126802021Y-101287583D01*
X114958321Y-113131282D01*
X114958319Y-113131285D01*
X114913225Y-113209392D01*
X114913224Y-113209393D01*
X114879263Y-113268214D01*
X114879263Y-113268215D01*
X114838339Y-113420943D01*
X114838339Y-113420945D01*
X114838339Y-113589046D01*
X114838340Y-113589059D01*
X114838340Y-115920234D01*
X114818655Y-115987273D01*
X114817442Y-115989125D01*
X114729449Y-116120814D01*
X114729442Y-116120827D01*
X114669104Y-116266498D01*
X114669101Y-116266510D01*
X114638340Y-116421153D01*
X114638340Y-116578846D01*
X114669101Y-116733489D01*
X114669104Y-116733501D01*
X114729442Y-116879172D01*
X114729449Y-116879185D01*
X114817050Y-117010288D01*
X114817053Y-117010292D01*
X114928547Y-117121786D01*
X114928551Y-117121789D01*
X115059654Y-117209390D01*
X115059667Y-117209397D01*
X115205338Y-117269735D01*
X115205343Y-117269737D01*
X115359993Y-117300499D01*
X115359996Y-117300500D01*
X115359998Y-117300500D01*
X115517684Y-117300500D01*
X115517685Y-117300499D01*
X115672337Y-117269737D01*
X115818019Y-117209394D01*
X115949129Y-117121789D01*
X116060629Y-117010289D01*
X116148234Y-116879179D01*
X116208577Y-116733497D01*
X116239340Y-116578842D01*
X116239340Y-116421158D01*
X116239340Y-116421155D01*
X116239339Y-116421153D01*
X116208578Y-116266510D01*
X116208577Y-116266503D01*
X116191385Y-116224998D01*
X116148237Y-116120827D01*
X116148230Y-116120814D01*
X116060238Y-115989125D01*
X116039360Y-115922447D01*
X116039340Y-115920234D01*
X116039340Y-114386555D01*
X116059025Y-114319516D01*
X116111829Y-114273761D01*
X116180987Y-114263817D01*
X116199251Y-114268840D01*
X116199516Y-114267969D01*
X116205332Y-114269732D01*
X116205343Y-114269737D01*
X116359993Y-114300499D01*
X116359996Y-114300500D01*
X116359998Y-114300500D01*
X116517684Y-114300500D01*
X116517685Y-114300499D01*
X116672337Y-114269737D01*
X116818019Y-114209394D01*
X116949129Y-114121789D01*
X117060629Y-114010289D01*
X117148234Y-113879179D01*
X117208577Y-113733497D01*
X117237308Y-113589059D01*
X117239478Y-113578150D01*
X117271863Y-113516239D01*
X117273358Y-113514716D01*
X132797346Y-97990727D01*
X132797351Y-97990724D01*
X132807554Y-97980520D01*
X132807556Y-97980520D01*
X132919360Y-97868716D01*
X132977383Y-97768216D01*
X132998417Y-97731785D01*
X133039341Y-97579057D01*
X133039341Y-97420943D01*
X133039341Y-97413348D01*
X133039340Y-97413330D01*
X133039340Y-80180300D01*
X133059025Y-80113261D01*
X133111829Y-80067506D01*
X133124322Y-80062599D01*
X133208174Y-80034814D01*
X133357496Y-79942712D01*
X133481552Y-79818656D01*
X133573654Y-79669334D01*
X133628839Y-79502797D01*
X133639340Y-79400009D01*
X133639339Y-78599992D01*
X133628839Y-78497203D01*
X133573654Y-78330666D01*
X133481552Y-78181344D01*
X133387889Y-78087681D01*
X133354404Y-78026358D01*
X133359388Y-77956666D01*
X133387889Y-77912319D01*
X133431495Y-77868713D01*
X133481552Y-77818656D01*
X133573654Y-77669334D01*
X133628839Y-77502797D01*
X133639340Y-77400009D01*
X133639339Y-76599992D01*
X133635210Y-76559576D01*
X133628839Y-76497203D01*
X133628838Y-76497200D01*
X133610782Y-76442712D01*
X133573654Y-76330666D01*
X133481552Y-76181344D01*
X133357496Y-76057288D01*
X133224734Y-75975400D01*
X133208176Y-75965187D01*
X133208171Y-75965185D01*
X133041638Y-75910001D01*
X133041623Y-75909998D01*
X133033221Y-75909140D01*
X132968530Y-75882742D01*
X132938440Y-75847781D01*
X132919362Y-75814736D01*
X132919358Y-75814731D01*
X132376875Y-75272248D01*
X131829835Y-74725209D01*
X131796351Y-74663887D01*
X131801335Y-74594195D01*
X131839709Y-74540979D01*
X131866630Y-74519286D01*
X132570727Y-73815188D01*
X132608347Y-73768505D01*
X132623503Y-73735318D01*
X132669258Y-73682514D01*
X132684775Y-73674040D01*
X132717973Y-73658880D01*
X132764656Y-73621261D01*
X133468753Y-72917163D01*
X133490447Y-72890241D01*
X133547839Y-72850395D01*
X133617664Y-72847902D01*
X133674678Y-72880369D01*
X137552021Y-76757712D01*
X137585506Y-76819035D01*
X137588340Y-76845393D01*
X137588340Y-124877648D01*
X137587693Y-124879850D01*
X137588261Y-124882075D01*
X137577898Y-124913208D01*
X137568655Y-124944687D01*
X137566920Y-124946190D01*
X137566195Y-124948369D01*
X137540638Y-124968963D01*
X137515851Y-124990442D01*
X137513021Y-124991218D01*
X137511791Y-124992210D01*
X137477597Y-125000937D01*
X137477593Y-125000938D01*
X137452095Y-125003679D01*
X137425588Y-125003679D01*
X137386714Y-124999500D01*
X136990972Y-124999500D01*
X136990957Y-124999501D01*
X136965017Y-125002289D01*
X136965010Y-125002291D01*
X136931357Y-125005909D01*
X136796509Y-125056204D01*
X136763148Y-125081177D01*
X136697685Y-125105593D01*
X136629412Y-125090741D01*
X136614534Y-125081179D01*
X136588528Y-125061711D01*
X136552727Y-125013887D01*
X136538840Y-125000000D01*
X136491005Y-125000000D01*
X136454438Y-125003931D01*
X136427932Y-125003931D01*
X136386713Y-124999500D01*
X135990970Y-124999500D01*
X135990959Y-124999501D01*
X135952093Y-125003679D01*
X135925588Y-125003679D01*
X135886714Y-124999500D01*
X135490970Y-124999500D01*
X135490959Y-124999501D01*
X135452093Y-125003679D01*
X135425586Y-125003678D01*
X135400084Y-125000936D01*
X135335533Y-124974198D01*
X135295685Y-124916805D01*
X135289340Y-124877647D01*
X135289340Y-113294836D01*
X135309025Y-113227797D01*
X135344449Y-113191734D01*
X135449129Y-113121789D01*
X135560626Y-113010292D01*
X135560629Y-113010289D01*
X135648234Y-112879179D01*
X135708577Y-112733497D01*
X135739340Y-112578842D01*
X135739340Y-112421158D01*
X135739340Y-112421155D01*
X135739339Y-112421153D01*
X135708578Y-112266510D01*
X135708577Y-112266503D01*
X135708575Y-112266498D01*
X135648237Y-112120827D01*
X135648230Y-112120814D01*
X135560629Y-111989711D01*
X135560626Y-111989707D01*
X135449132Y-111878213D01*
X135449128Y-111878210D01*
X135318025Y-111790609D01*
X135318012Y-111790602D01*
X135172341Y-111730264D01*
X135172329Y-111730261D01*
X135017685Y-111699500D01*
X135017682Y-111699500D01*
X134859998Y-111699500D01*
X134859995Y-111699500D01*
X134705350Y-111730261D01*
X134705338Y-111730264D01*
X134559667Y-111790602D01*
X134559654Y-111790609D01*
X134428551Y-111878210D01*
X134428547Y-111878213D01*
X134317053Y-111989707D01*
X134317050Y-111989711D01*
X134229449Y-112120814D01*
X134229442Y-112120827D01*
X134169104Y-112266498D01*
X134169101Y-112266510D01*
X134138340Y-112421153D01*
X134138340Y-112471636D01*
X134130674Y-112510179D01*
X134131367Y-112510365D01*
X134129264Y-112518213D01*
X134129263Y-112518215D01*
X134088339Y-112670943D01*
X134088339Y-112670945D01*
X134088339Y-112839046D01*
X134088340Y-112839059D01*
X134088340Y-123500902D01*
X134068655Y-123567941D01*
X134015851Y-123613696D01*
X133946693Y-123623640D01*
X133883137Y-123594615D01*
X133876659Y-123588583D01*
X130926430Y-120638355D01*
X130926428Y-120638352D01*
X130807557Y-120519481D01*
X130807556Y-120519480D01*
X130720744Y-120469360D01*
X130720744Y-120469359D01*
X130720740Y-120469358D01*
X130670625Y-120440423D01*
X130517897Y-120399499D01*
X130359783Y-120399499D01*
X130352187Y-120399499D01*
X130352171Y-120399500D01*
X129652425Y-120399500D01*
X129585386Y-120379815D01*
X129539631Y-120327011D01*
X129534719Y-120314504D01*
X129498654Y-120205666D01*
X129406552Y-120056344D01*
X129282496Y-119932288D01*
X129133174Y-119840186D01*
X128966637Y-119785001D01*
X128966635Y-119785000D01*
X128863850Y-119774500D01*
X128088838Y-119774500D01*
X128088820Y-119774501D01*
X127986043Y-119785000D01*
X127986040Y-119785001D01*
X127819508Y-119840185D01*
X127819503Y-119840187D01*
X127670182Y-119932289D01*
X127546128Y-120056343D01*
X127546123Y-120056349D01*
X127544081Y-120059661D01*
X127542087Y-120061453D01*
X127541647Y-120062011D01*
X127541551Y-120061935D01*
X127492131Y-120106383D01*
X127423168Y-120117602D01*
X127359087Y-120089755D01*
X127333008Y-120059656D01*
X127331159Y-120056659D01*
X127331156Y-120056655D01*
X127207185Y-119932684D01*
X127057964Y-119840643D01*
X127057959Y-119840641D01*
X126891537Y-119785494D01*
X126891530Y-119785493D01*
X126788826Y-119775000D01*
X126651340Y-119775000D01*
X126651340Y-124724999D01*
X126788812Y-124724999D01*
X126788826Y-124724998D01*
X126891537Y-124714505D01*
X127057959Y-124659358D01*
X127057964Y-124659356D01*
X127207185Y-124567315D01*
X127331158Y-124443342D01*
X127333005Y-124440348D01*
X127334809Y-124438724D01*
X127335638Y-124437677D01*
X127335816Y-124437818D01*
X127384950Y-124393621D01*
X127453913Y-124382396D01*
X127517996Y-124410236D01*
X127544083Y-124440341D01*
X127546128Y-124443656D01*
X127670184Y-124567712D01*
X127819506Y-124659814D01*
X127986043Y-124714999D01*
X128088831Y-124725500D01*
X128863848Y-124725499D01*
X128863856Y-124725498D01*
X128863859Y-124725498D01*
X128920142Y-124719748D01*
X128966637Y-124714999D01*
X129133174Y-124659814D01*
X129282496Y-124567712D01*
X129406552Y-124443656D01*
X129498654Y-124294334D01*
X129534719Y-124185494D01*
X129574492Y-124128051D01*
X129639007Y-124101228D01*
X129652425Y-124100500D01*
X130359783Y-124100500D01*
X131640743Y-124100500D01*
X131707782Y-124120185D01*
X131728424Y-124136819D01*
X132627906Y-125036301D01*
X132661391Y-125097624D01*
X132656407Y-125167316D01*
X132639492Y-125198292D01*
X132595046Y-125257664D01*
X132595042Y-125257671D01*
X132544748Y-125392517D01*
X132538341Y-125452116D01*
X132538341Y-125452123D01*
X132538340Y-125452135D01*
X132538340Y-126847870D01*
X132538341Y-126847876D01*
X132544748Y-126907483D01*
X132580522Y-127003395D01*
X132588340Y-127046728D01*
X132588340Y-127377756D01*
X132568655Y-127444795D01*
X132515851Y-127490550D01*
X132451087Y-127501045D01*
X132436713Y-127499500D01*
X132436704Y-127499500D01*
X130340969Y-127499500D01*
X130340963Y-127499501D01*
X130281356Y-127505908D01*
X130146511Y-127556202D01*
X130146504Y-127556206D01*
X130031295Y-127642452D01*
X130031292Y-127642455D01*
X129945046Y-127757664D01*
X129945042Y-127757671D01*
X129894748Y-127892517D01*
X129888341Y-127952116D01*
X129888340Y-127952135D01*
X129888340Y-129847870D01*
X129888341Y-129847876D01*
X129894748Y-129907483D01*
X129945042Y-130042328D01*
X129945046Y-130042335D01*
X130031292Y-130157544D01*
X130031295Y-130157547D01*
X130146504Y-130243793D01*
X130146511Y-130243797D01*
X130281357Y-130294091D01*
X130281356Y-130294091D01*
X130288284Y-130294835D01*
X130340967Y-130300500D01*
X132114001Y-130300499D01*
X132181040Y-130320184D01*
X132226795Y-130372987D01*
X132228561Y-130377043D01*
X132229445Y-130379178D01*
X132229447Y-130379181D01*
X132317047Y-130510284D01*
X132317053Y-130510292D01*
X132428547Y-130621786D01*
X132428551Y-130621789D01*
X132559654Y-130709390D01*
X132559667Y-130709397D01*
X132705338Y-130769735D01*
X132705343Y-130769737D01*
X132859993Y-130800499D01*
X132859996Y-130800500D01*
X132859998Y-130800500D01*
X133017684Y-130800500D01*
X133017685Y-130800499D01*
X133172337Y-130769737D01*
X133318019Y-130709394D01*
X133449129Y-130621789D01*
X133560629Y-130510289D01*
X133567985Y-130499279D01*
X133585738Y-130472712D01*
X133639350Y-130427906D01*
X133708675Y-130419199D01*
X133771702Y-130449353D01*
X133791942Y-130472712D01*
X133817047Y-130510284D01*
X133817053Y-130510292D01*
X133928547Y-130621786D01*
X133928551Y-130621789D01*
X134059654Y-130709390D01*
X134059667Y-130709397D01*
X134205338Y-130769735D01*
X134205343Y-130769737D01*
X134359993Y-130800499D01*
X134359996Y-130800500D01*
X134359998Y-130800500D01*
X134517684Y-130800500D01*
X134517685Y-130800499D01*
X134672337Y-130769737D01*
X134818019Y-130709394D01*
X134869950Y-130674694D01*
X134936625Y-130653816D01*
X135004005Y-130672300D01*
X135007703Y-130674676D01*
X135059661Y-130709394D01*
X135059663Y-130709395D01*
X135059665Y-130709396D01*
X135205338Y-130769735D01*
X135205343Y-130769737D01*
X135359993Y-130800499D01*
X135359996Y-130800500D01*
X135359998Y-130800500D01*
X135517684Y-130800500D01*
X135517685Y-130800499D01*
X135672337Y-130769737D01*
X135818019Y-130709394D01*
X135869950Y-130674694D01*
X135936625Y-130653816D01*
X136004005Y-130672300D01*
X136007703Y-130674676D01*
X136059661Y-130709394D01*
X136059663Y-130709395D01*
X136059665Y-130709396D01*
X136205338Y-130769735D01*
X136205343Y-130769737D01*
X136359993Y-130800499D01*
X136359996Y-130800500D01*
X136359998Y-130800500D01*
X136517684Y-130800500D01*
X136517685Y-130800499D01*
X136672337Y-130769737D01*
X136818019Y-130709394D01*
X136949129Y-130621789D01*
X137060629Y-130510289D01*
X137148234Y-130379179D01*
X137208577Y-130233497D01*
X137239340Y-130078842D01*
X137239340Y-129921158D01*
X137239340Y-129921155D01*
X137239339Y-129921153D01*
X137236620Y-129907482D01*
X137208577Y-129766503D01*
X137196652Y-129737713D01*
X137148237Y-129620827D01*
X137148230Y-129620814D01*
X137060629Y-129489711D01*
X137060626Y-129489707D01*
X136949129Y-129378210D01*
X136844449Y-129308266D01*
X136799644Y-129254654D01*
X136789340Y-129205164D01*
X136789340Y-127421846D01*
X136789986Y-127419643D01*
X136789419Y-127417418D01*
X136799784Y-127386276D01*
X136809025Y-127354807D01*
X136810759Y-127353304D01*
X136811485Y-127351124D01*
X136837050Y-127330522D01*
X136861829Y-127309052D01*
X136864658Y-127308275D01*
X136865889Y-127307284D01*
X136900087Y-127298556D01*
X136920628Y-127296348D01*
X136989388Y-127308755D01*
X137021562Y-127331957D01*
X138154979Y-128465374D01*
X138154989Y-128465385D01*
X138159319Y-128469715D01*
X138159320Y-128469716D01*
X138271124Y-128581520D01*
X138335550Y-128618716D01*
X138408055Y-128660577D01*
X138560783Y-128701501D01*
X138560786Y-128701501D01*
X138726493Y-128701501D01*
X138726509Y-128701500D01*
X144699172Y-128701500D01*
X144706779Y-128701500D01*
X144706783Y-128701501D01*
X144864341Y-128701501D01*
X144931380Y-128721186D01*
X144977135Y-128773990D01*
X144977136Y-128774003D01*
X144988340Y-128825501D01*
X144988340Y-129847870D01*
X144988341Y-129847876D01*
X144994748Y-129907483D01*
X145045042Y-130042328D01*
X145045046Y-130042335D01*
X145131292Y-130157544D01*
X145131295Y-130157547D01*
X145246504Y-130243793D01*
X145246511Y-130243797D01*
X145381357Y-130294091D01*
X145381356Y-130294091D01*
X145388284Y-130294835D01*
X145440967Y-130300500D01*
X147536712Y-130300499D01*
X147596323Y-130294091D01*
X147731171Y-130243796D01*
X147846386Y-130157546D01*
X147932636Y-130042331D01*
X147976403Y-129924986D01*
X148713841Y-129924986D01*
X148724334Y-130027697D01*
X148779481Y-130194119D01*
X148779483Y-130194124D01*
X148871524Y-130343345D01*
X148995494Y-130467315D01*
X149144715Y-130559356D01*
X149144720Y-130559358D01*
X149311142Y-130614505D01*
X149311149Y-130614506D01*
X149413859Y-130624999D01*
X149688839Y-130624999D01*
X150188840Y-130624999D01*
X150463812Y-130624999D01*
X150463826Y-130624998D01*
X150566537Y-130614505D01*
X150732959Y-130559358D01*
X150732964Y-130559356D01*
X150882185Y-130467315D01*
X151006155Y-130343345D01*
X151098196Y-130194124D01*
X151098198Y-130194119D01*
X151153345Y-130027697D01*
X151153346Y-130027690D01*
X151163839Y-129924986D01*
X151163840Y-129924973D01*
X151163840Y-129787500D01*
X150188840Y-129787500D01*
X150188840Y-130624999D01*
X149688839Y-130624999D01*
X149688840Y-130624998D01*
X149688840Y-129787500D01*
X148713841Y-129787500D01*
X148713841Y-129924986D01*
X147976403Y-129924986D01*
X147982931Y-129907483D01*
X147989340Y-129847873D01*
X147989339Y-128186999D01*
X148009024Y-128119961D01*
X148061827Y-128074206D01*
X148113339Y-128063000D01*
X148675072Y-128063000D01*
X148742111Y-128082685D01*
X148780609Y-128121901D01*
X148871128Y-128268656D01*
X148995184Y-128392712D01*
X148998468Y-128394737D01*
X148998493Y-128394753D01*
X149000285Y-128396746D01*
X149000851Y-128397193D01*
X149000774Y-128397289D01*
X149045219Y-128446699D01*
X149056443Y-128515661D01*
X149028601Y-128579744D01*
X148998505Y-128605826D01*
X148995500Y-128607679D01*
X148995495Y-128607683D01*
X148871524Y-128731654D01*
X148779483Y-128880875D01*
X148779481Y-128880880D01*
X148724334Y-129047302D01*
X148724333Y-129047309D01*
X148713840Y-129150013D01*
X148713840Y-129287500D01*
X151163839Y-129287500D01*
X151163839Y-129150028D01*
X151163838Y-129150013D01*
X151153345Y-129047302D01*
X151098198Y-128880880D01*
X151098196Y-128880875D01*
X151006155Y-128731654D01*
X150882184Y-128607683D01*
X150882181Y-128607681D01*
X150879179Y-128605829D01*
X150877553Y-128604021D01*
X150876517Y-128603202D01*
X150876657Y-128603024D01*
X150832457Y-128553880D01*
X150821237Y-128484917D01*
X150849083Y-128420836D01*
X150879184Y-128394754D01*
X150882496Y-128392712D01*
X151006552Y-128268656D01*
X151098654Y-128119334D01*
X151098656Y-128119326D01*
X151101704Y-128112791D01*
X151104390Y-128114043D01*
X151136496Y-128067638D01*
X151201002Y-128040793D01*
X151269782Y-128053084D01*
X151302144Y-128076379D01*
X151701021Y-128475256D01*
X151734506Y-128536579D01*
X151737340Y-128562937D01*
X151737340Y-133282439D01*
X151737339Y-133282443D01*
X151737339Y-133345320D01*
X151737339Y-133411458D01*
X151731045Y-133450462D01*
X151723841Y-133472201D01*
X151713340Y-133574983D01*
X151713340Y-134287402D01*
X151693655Y-134354441D01*
X151677021Y-134375083D01*
X150072470Y-135979633D01*
X150072461Y-135979642D01*
X150070126Y-135981978D01*
X150070124Y-135981980D01*
X149958320Y-136093784D01*
X149943926Y-136118716D01*
X149937447Y-136129938D01*
X149885500Y-136219913D01*
X149879263Y-136230715D01*
X149838339Y-136383443D01*
X149838339Y-136383445D01*
X149838339Y-136551546D01*
X149838340Y-136551559D01*
X149838340Y-137920943D01*
X149838340Y-138079057D01*
X149878856Y-138230263D01*
X149879263Y-138231783D01*
X149879266Y-138231790D01*
X149958315Y-138368709D01*
X149958319Y-138368714D01*
X149958320Y-138368716D01*
X150070124Y-138480520D01*
X150070126Y-138480521D01*
X150070130Y-138480524D01*
X150161123Y-138533058D01*
X150207056Y-138559577D01*
X150359783Y-138600500D01*
X152018031Y-138600500D01*
X152085070Y-138620185D01*
X152105712Y-138636819D01*
X152186969Y-138718076D01*
X152186973Y-138718079D01*
X152186975Y-138718081D01*
X152328442Y-138801744D01*
X152370064Y-138813836D01*
X152486266Y-138847597D01*
X152486269Y-138847597D01*
X152486271Y-138847598D01*
X152523146Y-138850500D01*
X152523154Y-138850500D01*
X152954526Y-138850500D01*
X152954534Y-138850500D01*
X152991409Y-138847598D01*
X152991411Y-138847597D01*
X152991413Y-138847597D01*
X153047792Y-138831217D01*
X153149238Y-138801744D01*
X153290705Y-138718081D01*
X153351513Y-138657272D01*
X153412834Y-138623789D01*
X153482526Y-138628773D01*
X153526874Y-138657274D01*
X153587278Y-138717678D01*
X153587287Y-138717685D01*
X153728641Y-138801281D01*
X153886354Y-138847100D01*
X153886351Y-138847100D01*
X153888838Y-138847295D01*
X153888840Y-138847295D01*
X154388840Y-138847295D01*
X154388841Y-138847295D01*
X154391326Y-138847100D01*
X154549038Y-138801281D01*
X154690392Y-138717685D01*
X154690401Y-138717678D01*
X154806518Y-138601561D01*
X154806525Y-138601552D01*
X154890122Y-138460196D01*
X154890123Y-138460193D01*
X154935939Y-138302495D01*
X154935940Y-138302489D01*
X154938839Y-138265649D01*
X154938840Y-138265634D01*
X154938840Y-138250000D01*
X154388840Y-138250000D01*
X154388840Y-138847295D01*
X153888840Y-138847295D01*
X153888840Y-138124000D01*
X153908525Y-138056961D01*
X153961329Y-138011206D01*
X154012840Y-138000000D01*
X154138840Y-138000000D01*
X154138840Y-137874000D01*
X154158525Y-137806961D01*
X154211329Y-137761206D01*
X154262840Y-137750000D01*
X154938840Y-137750000D01*
X154938840Y-137734365D01*
X154938839Y-137734350D01*
X154935940Y-137697510D01*
X154935939Y-137697504D01*
X154890123Y-137539806D01*
X154890122Y-137539803D01*
X154806525Y-137398447D01*
X154806518Y-137398438D01*
X154690401Y-137282321D01*
X154690392Y-137282314D01*
X154549036Y-137198717D01*
X154549033Y-137198716D01*
X154499695Y-137184382D01*
X154440809Y-137146776D01*
X154411603Y-137083304D01*
X154421349Y-137014117D01*
X154446606Y-136977628D01*
X156537416Y-134886819D01*
X156598739Y-134853334D01*
X156625097Y-134850500D01*
X158888743Y-134850500D01*
X158955782Y-134870185D01*
X158976424Y-134886819D01*
X160153021Y-136063416D01*
X160186506Y-136124739D01*
X160189340Y-136151097D01*
X160189340Y-139667648D01*
X160188693Y-139669850D01*
X160189261Y-139672075D01*
X160178898Y-139703208D01*
X160169655Y-139734687D01*
X160167920Y-139736190D01*
X160167195Y-139738369D01*
X160141638Y-139758963D01*
X160116851Y-139780442D01*
X160114021Y-139781218D01*
X160112791Y-139782210D01*
X160078593Y-139790938D01*
X160053095Y-139793679D01*
X160026588Y-139793679D01*
X159987714Y-139789500D01*
X159591972Y-139789500D01*
X159591957Y-139789501D01*
X159566017Y-139792289D01*
X159566010Y-139792291D01*
X159532357Y-139795909D01*
X159397509Y-139846204D01*
X159338149Y-139890640D01*
X159272686Y-139915057D01*
X159204414Y-139900205D01*
X159155008Y-139850800D01*
X159139840Y-139791373D01*
X159139840Y-139790000D01*
X159091995Y-139790000D01*
X159032467Y-139796401D01*
X159032460Y-139796403D01*
X158897753Y-139846645D01*
X158897746Y-139846649D01*
X158782652Y-139932809D01*
X158782649Y-139932812D01*
X158696489Y-140047906D01*
X158696485Y-140047913D01*
X158646243Y-140182620D01*
X158646241Y-140182627D01*
X158639840Y-140242155D01*
X158639840Y-140481609D01*
X158737623Y-140490000D01*
X159015340Y-140490000D01*
X159082379Y-140509685D01*
X159128134Y-140562489D01*
X159139340Y-140613998D01*
X159139341Y-140665998D01*
X159136790Y-140674685D01*
X159138079Y-140683647D01*
X159127101Y-140707683D01*
X159119658Y-140733037D01*
X159112815Y-140738966D01*
X159109054Y-140747203D01*
X159086823Y-140761489D01*
X159066855Y-140778793D01*
X159056338Y-140781080D01*
X159050276Y-140784977D01*
X159015341Y-140790000D01*
X158890720Y-140790000D01*
X158828721Y-140773387D01*
X158811975Y-140763719D01*
X158750336Y-140747203D01*
X158710799Y-140736609D01*
X158710797Y-140736608D01*
X158665606Y-140724500D01*
X158214074Y-140724500D01*
X158067703Y-140763719D01*
X157936475Y-140839485D01*
X157936472Y-140839487D01*
X157829327Y-140946632D01*
X157829325Y-140946635D01*
X157753559Y-141077863D01*
X157714340Y-141224234D01*
X157714340Y-141273430D01*
X157694655Y-141340469D01*
X157641851Y-141386224D01*
X157637793Y-141387991D01*
X157483295Y-141451985D01*
X157483286Y-141451990D01*
X157335805Y-141550535D01*
X157335801Y-141550538D01*
X157210378Y-141675961D01*
X157210375Y-141675965D01*
X157111830Y-141823446D01*
X157111823Y-141823459D01*
X157043946Y-141987332D01*
X157043943Y-141987341D01*
X157009340Y-142161304D01*
X157009340Y-142938695D01*
X157043943Y-143112658D01*
X157043946Y-143112667D01*
X157111823Y-143276540D01*
X157111830Y-143276553D01*
X157210375Y-143424034D01*
X157210378Y-143424038D01*
X157335801Y-143549461D01*
X157335805Y-143549464D01*
X157483286Y-143648009D01*
X157483299Y-143648016D01*
X157606203Y-143698923D01*
X157647174Y-143715894D01*
X157647176Y-143715894D01*
X157647181Y-143715896D01*
X157821144Y-143750499D01*
X157821147Y-143750500D01*
X157821149Y-143750500D01*
X157998533Y-143750500D01*
X157998534Y-143750499D01*
X158056522Y-143738964D01*
X158172498Y-143715896D01*
X158172501Y-143715894D01*
X158172506Y-143715894D01*
X158336387Y-143648013D01*
X158483875Y-143549464D01*
X158609304Y-143424035D01*
X158707853Y-143276547D01*
X158775734Y-143112666D01*
X158785712Y-143062502D01*
X158818096Y-143000593D01*
X158878812Y-142966019D01*
X158948581Y-142969758D01*
X159005253Y-143010624D01*
X159006595Y-143012383D01*
X159032652Y-143047190D01*
X159147746Y-143133350D01*
X159147753Y-143133354D01*
X159282460Y-143183596D01*
X159282467Y-143183598D01*
X159341995Y-143189999D01*
X159342012Y-143190000D01*
X159389840Y-143190000D01*
X159389840Y-143188627D01*
X159393634Y-143175703D01*
X159392674Y-143162268D01*
X159403287Y-143142831D01*
X159409525Y-143121588D01*
X159419702Y-143112769D01*
X159426159Y-143100945D01*
X159445597Y-143090331D01*
X159462329Y-143075833D01*
X159475659Y-143073916D01*
X159487482Y-143067461D01*
X159509568Y-143069040D01*
X159531487Y-143065889D01*
X159545257Y-143071592D01*
X159557174Y-143072445D01*
X159588148Y-143089358D01*
X159640152Y-143128288D01*
X159675951Y-143176111D01*
X159689840Y-143190000D01*
X159737659Y-143190000D01*
X159737673Y-143189999D01*
X159774235Y-143186068D01*
X159800745Y-143186068D01*
X159841967Y-143190500D01*
X160142742Y-143190499D01*
X160209781Y-143210183D01*
X160255536Y-143262987D01*
X160265480Y-143332146D01*
X160236455Y-143395701D01*
X160230423Y-143402180D01*
X159269424Y-144363181D01*
X159208101Y-144396666D01*
X159181743Y-144399500D01*
X155825395Y-144399500D01*
X155758356Y-144379815D01*
X155712601Y-144327011D01*
X155702657Y-144257853D01*
X155707680Y-144239588D01*
X155706809Y-144239324D01*
X155708571Y-144233509D01*
X155708577Y-144233497D01*
X155739340Y-144078842D01*
X155739340Y-143921158D01*
X155739340Y-143921155D01*
X155739339Y-143921153D01*
X155737121Y-143910001D01*
X155708577Y-143766503D01*
X155708575Y-143766498D01*
X155648237Y-143620827D01*
X155648230Y-143620814D01*
X155560629Y-143489711D01*
X155560626Y-143489707D01*
X155449132Y-143378213D01*
X155449128Y-143378210D01*
X155318025Y-143290609D01*
X155318012Y-143290602D01*
X155172341Y-143230264D01*
X155172329Y-143230261D01*
X155017685Y-143199500D01*
X155017682Y-143199500D01*
X154859998Y-143199500D01*
X154859995Y-143199500D01*
X154705350Y-143230261D01*
X154705338Y-143230264D01*
X154559667Y-143290602D01*
X154559654Y-143290609D01*
X154427965Y-143378602D01*
X154361287Y-143399480D01*
X154359074Y-143399500D01*
X123525510Y-143399500D01*
X123525494Y-143399499D01*
X123517898Y-143399499D01*
X123359783Y-143399499D01*
X123283419Y-143419961D01*
X123207054Y-143440423D01*
X123207049Y-143440426D01*
X123070130Y-143519475D01*
X123070122Y-143519481D01*
X122726422Y-143863181D01*
X122665099Y-143896666D01*
X122638741Y-143899500D01*
X121938838Y-143899500D01*
X121938820Y-143899501D01*
X121836043Y-143910000D01*
X121836040Y-143910001D01*
X121669508Y-143965185D01*
X121669503Y-143965187D01*
X121520182Y-144057289D01*
X121396129Y-144181342D01*
X121304027Y-144330663D01*
X121304025Y-144330668D01*
X121287603Y-144380228D01*
X121248841Y-144497203D01*
X121248841Y-144497204D01*
X121248840Y-144497204D01*
X121238340Y-144599983D01*
X121238340Y-145400001D01*
X121238341Y-145400019D01*
X121248840Y-145502796D01*
X121248841Y-145502799D01*
X121304025Y-145669331D01*
X121304027Y-145669336D01*
X121318765Y-145693230D01*
X121388139Y-145805704D01*
X121396129Y-145818657D01*
X121490144Y-145912672D01*
X121523629Y-145973995D01*
X121518645Y-146043687D01*
X121490145Y-146088034D01*
X121396522Y-146181657D01*
X121304483Y-146330875D01*
X121304481Y-146330880D01*
X121249334Y-146497302D01*
X121249333Y-146497309D01*
X121238840Y-146600013D01*
X121238840Y-146750000D01*
X126138839Y-146750000D01*
X126138839Y-146600028D01*
X126138838Y-146600013D01*
X126128345Y-146497302D01*
X126073198Y-146330880D01*
X126073196Y-146330875D01*
X125981155Y-146181654D01*
X125887535Y-146088034D01*
X125854050Y-146026711D01*
X125859034Y-145957019D01*
X125887531Y-145912676D01*
X125981552Y-145818656D01*
X126073654Y-145669334D01*
X126073655Y-145669331D01*
X126077445Y-145663187D01*
X126079239Y-145664293D01*
X126118527Y-145619663D01*
X126184748Y-145600500D01*
X159395171Y-145600500D01*
X159395179Y-145600502D01*
X159395179Y-145600501D01*
X159496560Y-145600501D01*
X159563599Y-145620186D01*
X159609354Y-145672990D01*
X159619298Y-145742148D01*
X159590273Y-145805704D01*
X159565451Y-145827603D01*
X159489712Y-145878210D01*
X159485002Y-145882076D01*
X159484053Y-145880920D01*
X159477573Y-145884660D01*
X159468658Y-145894608D01*
X159452731Y-145898996D01*
X159435466Y-145908961D01*
X159318056Y-145940422D01*
X159318049Y-145940425D01*
X159267936Y-145969359D01*
X159267935Y-145969360D01*
X159259907Y-145973995D01*
X159181125Y-146019479D01*
X159181122Y-146019481D01*
X159069318Y-146131286D01*
X157904407Y-147296196D01*
X157843084Y-147329681D01*
X157792535Y-147330132D01*
X157638535Y-147299500D01*
X157638531Y-147299500D01*
X157461149Y-147299500D01*
X157461146Y-147299500D01*
X157287181Y-147334103D01*
X157287172Y-147334106D01*
X157123299Y-147401983D01*
X157123286Y-147401990D01*
X156975805Y-147500535D01*
X156975801Y-147500538D01*
X156850378Y-147625961D01*
X156850375Y-147625965D01*
X156751830Y-147773446D01*
X156751823Y-147773459D01*
X156683946Y-147937332D01*
X156683943Y-147937341D01*
X156649340Y-148111304D01*
X156649340Y-148888695D01*
X156683943Y-149062658D01*
X156683946Y-149062667D01*
X156751823Y-149226540D01*
X156751830Y-149226553D01*
X156850375Y-149374034D01*
X156850378Y-149374038D01*
X156975801Y-149499461D01*
X156975805Y-149499464D01*
X157123286Y-149598009D01*
X157123299Y-149598016D01*
X157246203Y-149648923D01*
X157287174Y-149665894D01*
X157287176Y-149665894D01*
X157287181Y-149665896D01*
X157461144Y-149700499D01*
X157461147Y-149700500D01*
X157461149Y-149700500D01*
X157638533Y-149700500D01*
X157638534Y-149700499D01*
X157696522Y-149688964D01*
X157812498Y-149665896D01*
X157812501Y-149665894D01*
X157812506Y-149665894D01*
X157976387Y-149598013D01*
X158123875Y-149499464D01*
X158249304Y-149374035D01*
X158347853Y-149226547D01*
X158415734Y-149062666D01*
X158450340Y-148888691D01*
X158450340Y-148500096D01*
X158470025Y-148433057D01*
X158486654Y-148412419D01*
X159610927Y-147288146D01*
X159672248Y-147254663D01*
X159741940Y-147259647D01*
X159746029Y-147261256D01*
X159766503Y-147269737D01*
X159916131Y-147299500D01*
X159921153Y-147300499D01*
X159921156Y-147300500D01*
X159921158Y-147300500D01*
X160078844Y-147300500D01*
X160078845Y-147300499D01*
X160233497Y-147269737D01*
X160379179Y-147209394D01*
X160510289Y-147121789D01*
X160621789Y-147010289D01*
X160709394Y-146879179D01*
X160769737Y-146733497D01*
X160800500Y-146578842D01*
X160800500Y-146421158D01*
X160800500Y-146421155D01*
X160800499Y-146421153D01*
X160791418Y-146375500D01*
X160769737Y-146266503D01*
X160753952Y-146228395D01*
X160709397Y-146120827D01*
X160709390Y-146120814D01*
X160621789Y-145989711D01*
X160621786Y-145989707D01*
X160510292Y-145878213D01*
X160510288Y-145878210D01*
X160379185Y-145790609D01*
X160379172Y-145790602D01*
X160233501Y-145730264D01*
X160233489Y-145730261D01*
X160078845Y-145699500D01*
X160078842Y-145699500D01*
X159930468Y-145699500D01*
X159909117Y-145693230D01*
X159886925Y-145691603D01*
X159876245Y-145683578D01*
X159863429Y-145679815D01*
X159848858Y-145662999D01*
X159831067Y-145649631D01*
X159826420Y-145637105D01*
X159817674Y-145627011D01*
X159814507Y-145604987D01*
X159806768Y-145584123D01*
X159809631Y-145571074D01*
X159807730Y-145557853D01*
X159816973Y-145537611D01*
X159821743Y-145515877D01*
X159832770Y-145503022D01*
X159836755Y-145494297D01*
X159842945Y-145487661D01*
X159849499Y-145481129D01*
X159850556Y-145480520D01*
X159962360Y-145368716D01*
X159962361Y-145368713D01*
X161227660Y-144103413D01*
X161288982Y-144069930D01*
X161358674Y-144074914D01*
X161414607Y-144116786D01*
X161439024Y-144182250D01*
X161439340Y-144191096D01*
X161439340Y-145214694D01*
X161439339Y-145214712D01*
X161439339Y-145380418D01*
X161439338Y-145380418D01*
X161480263Y-145533149D01*
X161509198Y-145583264D01*
X161509199Y-145583268D01*
X161509200Y-145583268D01*
X161558890Y-145669336D01*
X161559319Y-145670078D01*
X161559321Y-145670081D01*
X161678189Y-145788949D01*
X161678195Y-145788954D01*
X162754083Y-146864842D01*
X162787568Y-146926165D01*
X162788019Y-146928331D01*
X162818919Y-147083673D01*
X162818922Y-147083683D01*
X162879260Y-147229354D01*
X162879267Y-147229367D01*
X162966868Y-147360470D01*
X162966871Y-147360474D01*
X163078365Y-147471968D01*
X163078369Y-147471971D01*
X163209472Y-147559572D01*
X163209485Y-147559579D01*
X163350593Y-147618027D01*
X163355161Y-147619919D01*
X163509816Y-147650682D01*
X163510505Y-147650819D01*
X163572416Y-147683204D01*
X163573995Y-147684755D01*
X163669760Y-147780520D01*
X163669762Y-147780521D01*
X163669766Y-147780524D01*
X163756569Y-147830639D01*
X163806692Y-147859577D01*
X163959419Y-147900501D01*
X163959421Y-147900501D01*
X164125130Y-147900501D01*
X164125146Y-147900500D01*
X165520178Y-147900500D01*
X165587217Y-147920185D01*
X165632972Y-147972989D01*
X165642916Y-148042147D01*
X165641795Y-148048692D01*
X165629340Y-148111306D01*
X165629340Y-148888695D01*
X165663943Y-149062658D01*
X165663946Y-149062667D01*
X165731823Y-149226540D01*
X165731830Y-149226553D01*
X165830375Y-149374034D01*
X165830378Y-149374038D01*
X165955801Y-149499461D01*
X165955805Y-149499464D01*
X166103286Y-149598009D01*
X166103299Y-149598016D01*
X166226203Y-149648923D01*
X166267174Y-149665894D01*
X166267176Y-149665894D01*
X166267181Y-149665896D01*
X166441144Y-149700499D01*
X166441147Y-149700500D01*
X166441149Y-149700500D01*
X166618533Y-149700500D01*
X166618534Y-149700499D01*
X166676522Y-149688964D01*
X166792498Y-149665896D01*
X166792501Y-149665894D01*
X166792506Y-149665894D01*
X166956387Y-149598013D01*
X167103875Y-149499464D01*
X167229304Y-149374035D01*
X167327853Y-149226547D01*
X167395734Y-149062666D01*
X167418145Y-148950001D01*
X168091544Y-148950001D01*
X168091739Y-148952486D01*
X168137558Y-149110198D01*
X168221154Y-149251552D01*
X168221161Y-149251561D01*
X168337278Y-149367678D01*
X168337287Y-149367685D01*
X168478643Y-149451282D01*
X168478646Y-149451283D01*
X168636344Y-149497099D01*
X168636350Y-149497100D01*
X168673190Y-149499999D01*
X168673206Y-149500000D01*
X168688840Y-149500000D01*
X169188840Y-149500000D01*
X169204474Y-149500000D01*
X169204489Y-149499999D01*
X169241329Y-149497100D01*
X169241335Y-149497099D01*
X169399033Y-149451283D01*
X169399036Y-149451282D01*
X169540392Y-149367685D01*
X169540401Y-149367678D01*
X169656518Y-149251561D01*
X169656525Y-149251552D01*
X169740121Y-149110198D01*
X169785940Y-148952486D01*
X169786135Y-148950001D01*
X169786135Y-148950000D01*
X169188840Y-148950000D01*
X169188840Y-149500000D01*
X168688840Y-149500000D01*
X168688840Y-148950000D01*
X168091545Y-148950000D01*
X168091544Y-148950001D01*
X167418145Y-148950001D01*
X167430340Y-148888691D01*
X167430340Y-148111309D01*
X167430340Y-148111306D01*
X167417885Y-148048692D01*
X167424112Y-147979100D01*
X167466975Y-147923923D01*
X167532865Y-147900678D01*
X167539502Y-147900500D01*
X168169738Y-147900500D01*
X168236777Y-147920185D01*
X168282532Y-147972989D01*
X168292476Y-148042147D01*
X168263451Y-148105703D01*
X168257419Y-148112181D01*
X168221161Y-148148438D01*
X168221154Y-148148447D01*
X168137558Y-148289801D01*
X168091739Y-148447513D01*
X168091544Y-148449998D01*
X168091545Y-148450000D01*
X169786135Y-148450000D01*
X169786135Y-148449998D01*
X169785940Y-148447513D01*
X169740121Y-148289801D01*
X169656525Y-148148447D01*
X169656518Y-148148438D01*
X169604471Y-148096391D01*
X169604467Y-148096384D01*
X169604458Y-148096379D01*
X169586058Y-148062670D01*
X169570986Y-148035068D01*
X169570986Y-148035059D01*
X169570982Y-148035051D01*
X169573568Y-147998960D01*
X169575970Y-147965376D01*
X169575975Y-147965368D01*
X169575976Y-147965360D01*
X169597294Y-147936890D01*
X169617842Y-147909443D01*
X169617851Y-147909437D01*
X169617856Y-147909432D01*
X169617911Y-147909404D01*
X169648835Y-147892522D01*
X169654355Y-147890463D01*
X169769625Y-147859577D01*
X169819744Y-147830639D01*
X169906556Y-147780520D01*
X170018360Y-147668716D01*
X170018360Y-147668714D01*
X170028568Y-147658507D01*
X170028570Y-147658504D01*
X170196346Y-147490728D01*
X170196351Y-147490724D01*
X170206554Y-147480520D01*
X170206556Y-147480520D01*
X170318360Y-147368716D01*
X170378326Y-147264851D01*
X170397417Y-147231785D01*
X170438340Y-147079057D01*
X170438340Y-146920943D01*
X170438340Y-61420943D01*
X170397417Y-61268216D01*
X170363458Y-61209397D01*
X170318364Y-61131290D01*
X170318358Y-61131282D01*
X170206557Y-61019481D01*
X170206549Y-61019475D01*
X170069630Y-60940426D01*
X170069626Y-60940424D01*
X170069624Y-60940423D01*
X169916897Y-60899500D01*
X139632681Y-60899500D01*
X139474566Y-60899500D01*
X139474563Y-60899500D01*
X139454226Y-60904949D01*
X139429234Y-60904353D01*
X139404491Y-60907911D01*
X139389116Y-60903397D01*
X139384376Y-60903284D01*
X139370626Y-60897968D01*
X139335124Y-60881755D01*
X139282320Y-60836000D01*
X139273841Y-60820471D01*
X139258689Y-60787292D01*
X139258687Y-60787289D01*
X139258686Y-60787287D01*
X139221067Y-60740604D01*
X139221062Y-60740599D01*
X139221058Y-60740594D01*
X138516976Y-60036514D01*
X138516969Y-60036507D01*
X138470286Y-59998887D01*
X138437098Y-59983730D01*
X138384295Y-59937974D01*
X138375820Y-59922454D01*
X138360661Y-59889261D01*
X138323042Y-59842578D01*
X138323037Y-59842573D01*
X138323033Y-59842568D01*
X137618951Y-59138488D01*
X137618944Y-59138481D01*
X137572261Y-59100861D01*
X137572259Y-59100860D01*
X137539071Y-59085703D01*
X137486268Y-59039947D01*
X137477790Y-59024420D01*
X137462638Y-58991241D01*
X137462636Y-58991238D01*
X137462635Y-58991236D01*
X137425016Y-58944553D01*
X137425011Y-58944548D01*
X137425007Y-58944543D01*
X136720925Y-58240463D01*
X136720918Y-58240456D01*
X136674235Y-58202836D01*
X136641047Y-58187679D01*
X136588244Y-58141923D01*
X136579769Y-58126403D01*
X136564610Y-58093210D01*
X136526991Y-58046527D01*
X136526986Y-58046522D01*
X136526982Y-58046517D01*
X135983210Y-57502747D01*
X135901616Y-57421153D01*
X145638340Y-57421153D01*
X145638340Y-57578846D01*
X145669101Y-57733489D01*
X145669104Y-57733501D01*
X145729442Y-57879172D01*
X145729449Y-57879185D01*
X145817050Y-58010288D01*
X145817053Y-58010292D01*
X145928547Y-58121786D01*
X145928551Y-58121789D01*
X146059654Y-58209390D01*
X146059667Y-58209397D01*
X146157693Y-58250000D01*
X146205343Y-58269737D01*
X146359993Y-58300499D01*
X146359996Y-58300500D01*
X146359998Y-58300500D01*
X146517684Y-58300500D01*
X146517685Y-58300499D01*
X146672337Y-58269737D01*
X146818019Y-58209394D01*
X146827835Y-58202835D01*
X146949715Y-58121398D01*
X147016393Y-58100520D01*
X147018606Y-58100500D01*
X147564341Y-58100500D01*
X147631380Y-58120185D01*
X147677135Y-58172989D01*
X147688341Y-58224500D01*
X147688341Y-58800018D01*
X147698840Y-58902796D01*
X147698841Y-58902799D01*
X147728146Y-58991234D01*
X147754026Y-59069334D01*
X147846128Y-59218656D01*
X147970184Y-59342712D01*
X148119506Y-59434814D01*
X148286043Y-59489999D01*
X148388831Y-59500500D01*
X149038848Y-59500499D01*
X149038856Y-59500498D01*
X149038859Y-59500498D01*
X149095142Y-59494748D01*
X149141637Y-59489999D01*
X149308174Y-59434814D01*
X149457496Y-59342712D01*
X149581552Y-59218656D01*
X149673654Y-59069334D01*
X149728839Y-58902797D01*
X149739340Y-58800009D01*
X149739340Y-58799986D01*
X152138841Y-58799986D01*
X152149334Y-58902697D01*
X152204481Y-59069119D01*
X152204483Y-59069124D01*
X152296524Y-59218345D01*
X152420494Y-59342315D01*
X152569715Y-59434356D01*
X152569720Y-59434358D01*
X152736142Y-59489505D01*
X152736149Y-59489506D01*
X152838859Y-59499999D01*
X153413840Y-59499999D01*
X153488812Y-59499999D01*
X153488826Y-59499998D01*
X153591537Y-59489505D01*
X153757959Y-59434358D01*
X153757964Y-59434356D01*
X153907185Y-59342315D01*
X154031155Y-59218345D01*
X154123196Y-59069124D01*
X154123198Y-59069119D01*
X154178345Y-58902697D01*
X154178346Y-58902690D01*
X154188839Y-58799986D01*
X162188841Y-58799986D01*
X162199334Y-58902697D01*
X162254481Y-59069119D01*
X162254483Y-59069124D01*
X162346524Y-59218345D01*
X162470494Y-59342315D01*
X162619715Y-59434356D01*
X162619720Y-59434358D01*
X162786142Y-59489505D01*
X162786149Y-59489506D01*
X162888859Y-59499999D01*
X163463840Y-59499999D01*
X163538812Y-59499999D01*
X163538826Y-59499998D01*
X163641537Y-59489505D01*
X163807959Y-59434358D01*
X163807964Y-59434356D01*
X163957185Y-59342315D01*
X164081155Y-59218345D01*
X164173196Y-59069124D01*
X164173198Y-59069119D01*
X164228345Y-58902697D01*
X164228346Y-58902690D01*
X164238839Y-58799986D01*
X164238840Y-58799973D01*
X164238840Y-58250000D01*
X163463840Y-58250000D01*
X163463840Y-59499999D01*
X162888859Y-59499999D01*
X162963839Y-59499998D01*
X162963840Y-59499998D01*
X162963840Y-58250000D01*
X162188841Y-58250000D01*
X162188841Y-58799986D01*
X154188839Y-58799986D01*
X154188840Y-58799973D01*
X154188840Y-58250000D01*
X153413840Y-58250000D01*
X153413840Y-59499999D01*
X152838859Y-59499999D01*
X152913839Y-59499998D01*
X152913840Y-59499998D01*
X152913840Y-58250000D01*
X152138841Y-58250000D01*
X152138841Y-58799986D01*
X149739340Y-58799986D01*
X149739339Y-57879185D01*
X149739339Y-57200013D01*
X152138840Y-57200013D01*
X152138840Y-57750000D01*
X152913840Y-57750000D01*
X153413840Y-57750000D01*
X154188839Y-57750000D01*
X154188839Y-57200029D01*
X154188838Y-57200013D01*
X162188840Y-57200013D01*
X162188840Y-57750000D01*
X162963840Y-57750000D01*
X163463840Y-57750000D01*
X164238839Y-57750000D01*
X164238839Y-57200024D01*
X164238838Y-57200016D01*
X164238835Y-57199983D01*
X166638340Y-57199983D01*
X166638340Y-58800001D01*
X166638341Y-58800018D01*
X166648840Y-58902796D01*
X166648841Y-58902799D01*
X166678146Y-58991234D01*
X166704026Y-59069334D01*
X166796128Y-59218656D01*
X166920184Y-59342712D01*
X167069506Y-59434814D01*
X167236043Y-59489999D01*
X167338831Y-59500500D01*
X167988848Y-59500499D01*
X167988856Y-59500498D01*
X167988859Y-59500498D01*
X168045142Y-59494748D01*
X168091637Y-59489999D01*
X168258174Y-59434814D01*
X168407496Y-59342712D01*
X168531552Y-59218656D01*
X168623654Y-59069334D01*
X168678839Y-58902797D01*
X168689340Y-58800009D01*
X168689339Y-57199992D01*
X168678839Y-57097203D01*
X168623654Y-56930666D01*
X168531552Y-56781344D01*
X168407496Y-56657288D01*
X168407492Y-56657285D01*
X168323243Y-56605319D01*
X168316420Y-56597733D01*
X168307137Y-56593494D01*
X168293448Y-56572193D01*
X168276518Y-56553371D01*
X168273873Y-56541734D01*
X168269363Y-56534716D01*
X168264340Y-56499781D01*
X168264340Y-56311540D01*
X168284025Y-56244501D01*
X168319450Y-56208438D01*
X168361693Y-56180211D01*
X168449129Y-56121789D01*
X168560629Y-56010289D01*
X168648234Y-55879179D01*
X168708577Y-55733497D01*
X168739340Y-55578842D01*
X168739340Y-55421158D01*
X168739340Y-55421155D01*
X168739339Y-55421153D01*
X168708577Y-55266503D01*
X168708575Y-55266498D01*
X168648237Y-55120827D01*
X168648230Y-55120814D01*
X168560629Y-54989711D01*
X168560626Y-54989707D01*
X168449132Y-54878213D01*
X168449128Y-54878210D01*
X168318025Y-54790609D01*
X168318012Y-54790602D01*
X168172341Y-54730264D01*
X168172329Y-54730261D01*
X168017685Y-54699500D01*
X168017682Y-54699500D01*
X167859998Y-54699500D01*
X167859995Y-54699500D01*
X167705350Y-54730261D01*
X167705338Y-54730264D01*
X167559667Y-54790602D01*
X167559654Y-54790609D01*
X167428551Y-54878210D01*
X167428547Y-54878213D01*
X167317053Y-54989707D01*
X167317050Y-54989711D01*
X167229449Y-55120814D01*
X167229442Y-55120827D01*
X167169104Y-55266498D01*
X167169101Y-55266510D01*
X167138340Y-55421153D01*
X167138340Y-55450966D01*
X167121727Y-55512966D01*
X167104263Y-55543215D01*
X167063339Y-55695943D01*
X167063339Y-55695945D01*
X167063339Y-55864046D01*
X167063340Y-55864059D01*
X167063340Y-56499781D01*
X167043655Y-56566820D01*
X167004437Y-56605319D01*
X166920187Y-56657285D01*
X166920183Y-56657288D01*
X166796129Y-56781342D01*
X166704027Y-56930663D01*
X166704025Y-56930668D01*
X166703955Y-56930880D01*
X166648841Y-57097203D01*
X166648841Y-57097204D01*
X166648840Y-57097204D01*
X166638340Y-57199983D01*
X164238835Y-57199983D01*
X164228345Y-57097302D01*
X164173198Y-56930880D01*
X164173196Y-56930875D01*
X164081155Y-56781654D01*
X163957185Y-56657684D01*
X163807964Y-56565643D01*
X163807959Y-56565641D01*
X163641537Y-56510494D01*
X163641530Y-56510493D01*
X163538826Y-56500000D01*
X163463840Y-56500000D01*
X163463840Y-57750000D01*
X162963840Y-57750000D01*
X162963840Y-56500000D01*
X162963839Y-56499999D01*
X162888868Y-56500000D01*
X162888851Y-56500001D01*
X162786142Y-56510494D01*
X162619720Y-56565641D01*
X162619715Y-56565643D01*
X162470494Y-56657684D01*
X162346524Y-56781654D01*
X162254483Y-56930875D01*
X162254481Y-56930880D01*
X162199334Y-57097302D01*
X162199333Y-57097309D01*
X162188840Y-57200013D01*
X154188838Y-57200013D01*
X154188838Y-57200012D01*
X154178345Y-57097302D01*
X154123198Y-56930880D01*
X154123196Y-56930875D01*
X154031155Y-56781654D01*
X153907185Y-56657684D01*
X153757964Y-56565643D01*
X153757959Y-56565641D01*
X153591537Y-56510494D01*
X153591530Y-56510493D01*
X153488826Y-56500000D01*
X153413840Y-56500000D01*
X153413840Y-57750000D01*
X152913840Y-57750000D01*
X152913840Y-56500000D01*
X152913839Y-56499999D01*
X152838868Y-56500000D01*
X152838851Y-56500001D01*
X152736142Y-56510494D01*
X152569720Y-56565641D01*
X152569715Y-56565643D01*
X152420494Y-56657684D01*
X152296524Y-56781654D01*
X152204483Y-56930875D01*
X152204481Y-56930880D01*
X152149334Y-57097302D01*
X152149333Y-57097309D01*
X152138840Y-57200013D01*
X149739339Y-57200013D01*
X149739339Y-57199998D01*
X149739338Y-57199981D01*
X149728839Y-57097203D01*
X149728838Y-57097200D01*
X149708806Y-57036748D01*
X149673654Y-56930666D01*
X149581552Y-56781344D01*
X149457496Y-56657288D01*
X149354069Y-56593494D01*
X149308176Y-56565187D01*
X149308171Y-56565185D01*
X149306702Y-56564698D01*
X149141637Y-56510001D01*
X149141635Y-56510000D01*
X149038850Y-56499500D01*
X148388838Y-56499500D01*
X148388820Y-56499501D01*
X148286043Y-56510000D01*
X148286040Y-56510001D01*
X148119508Y-56565185D01*
X148119503Y-56565187D01*
X147970182Y-56657289D01*
X147846129Y-56781342D01*
X147809581Y-56840597D01*
X147757633Y-56887321D01*
X147704042Y-56899500D01*
X147018606Y-56899500D01*
X146951567Y-56879815D01*
X146949715Y-56878602D01*
X146818025Y-56790609D01*
X146818012Y-56790602D01*
X146672341Y-56730264D01*
X146672329Y-56730261D01*
X146517685Y-56699500D01*
X146517682Y-56699500D01*
X146359998Y-56699500D01*
X146359995Y-56699500D01*
X146205350Y-56730261D01*
X146205338Y-56730264D01*
X146059667Y-56790602D01*
X146059654Y-56790609D01*
X145928551Y-56878210D01*
X145928547Y-56878213D01*
X145817053Y-56989707D01*
X145817050Y-56989711D01*
X145729449Y-57120814D01*
X145729442Y-57120827D01*
X145669104Y-57266498D01*
X145669101Y-57266510D01*
X145638340Y-57421153D01*
X135901616Y-57421153D01*
X135822900Y-57342437D01*
X135822893Y-57342430D01*
X135776210Y-57304810D01*
X135743019Y-57289652D01*
X135690218Y-57243897D01*
X135681744Y-57228379D01*
X135666584Y-57195184D01*
X135628965Y-57148501D01*
X135628960Y-57148496D01*
X135628956Y-57148491D01*
X134924874Y-56444411D01*
X134924867Y-56444404D01*
X134878184Y-56406784D01*
X134878182Y-56406783D01*
X134844994Y-56391626D01*
X134792191Y-56345870D01*
X134783713Y-56330343D01*
X134768561Y-56297164D01*
X134768559Y-56297161D01*
X134768558Y-56297159D01*
X134730939Y-56250476D01*
X134730934Y-56250471D01*
X134730930Y-56250466D01*
X134026848Y-55546386D01*
X134026841Y-55546379D01*
X133999919Y-55524683D01*
X133960072Y-55467292D01*
X133957579Y-55397467D01*
X133990044Y-55340455D01*
X140419360Y-48911142D01*
X140498417Y-48774211D01*
X140539341Y-48621483D01*
X140539341Y-48463368D01*
X140539341Y-48455773D01*
X140539340Y-48455755D01*
X140539340Y-48397955D01*
X140559025Y-48330916D01*
X140611829Y-48285161D01*
X140639143Y-48276339D01*
X140672337Y-48269737D01*
X140818019Y-48209394D01*
X140949129Y-48121789D01*
X141060629Y-48010289D01*
X141148234Y-47879179D01*
X141208577Y-47733497D01*
X141239340Y-47578842D01*
X141239340Y-47421158D01*
X141239340Y-47421155D01*
X141239339Y-47421153D01*
X141208578Y-47266510D01*
X141208578Y-47266508D01*
X141208577Y-47266503D01*
X141208575Y-47266498D01*
X141148237Y-47120827D01*
X141148230Y-47120814D01*
X141060629Y-46989711D01*
X141060626Y-46989707D01*
X140949132Y-46878213D01*
X140949128Y-46878210D01*
X140818025Y-46790609D01*
X140818012Y-46790602D01*
X140672341Y-46730264D01*
X140672329Y-46730261D01*
X140517685Y-46699500D01*
X140517682Y-46699500D01*
X140359998Y-46699500D01*
X140359995Y-46699500D01*
X140205350Y-46730261D01*
X140205338Y-46730264D01*
X140059667Y-46790602D01*
X140059654Y-46790609D01*
X139928551Y-46878210D01*
X139928547Y-46878213D01*
X139817053Y-46989707D01*
X139817050Y-46989711D01*
X139729449Y-47120814D01*
X139729442Y-47120827D01*
X139669104Y-47266498D01*
X139669101Y-47266508D01*
X139638202Y-47421847D01*
X139629437Y-47438602D01*
X139625418Y-47457081D01*
X139606674Y-47482118D01*
X139605817Y-47483758D01*
X139604267Y-47485335D01*
X139563064Y-47526538D01*
X139563052Y-47526552D01*
X139458318Y-47631286D01*
X139408201Y-47718094D01*
X139408199Y-47718096D01*
X139379265Y-47768209D01*
X139379264Y-47768210D01*
X139379263Y-47768215D01*
X139338339Y-47920943D01*
X139338339Y-47920945D01*
X139338339Y-48089046D01*
X139338340Y-48089059D01*
X139338340Y-48242328D01*
X139318655Y-48309367D01*
X139302021Y-48330009D01*
X133140812Y-54491217D01*
X133079489Y-54524702D01*
X133009797Y-54519718D01*
X132956580Y-54481343D01*
X132934888Y-54454424D01*
X132934883Y-54454419D01*
X132934879Y-54454414D01*
X132230797Y-53750334D01*
X132230790Y-53750327D01*
X132184107Y-53712707D01*
X132184103Y-53712705D01*
X132150919Y-53697550D01*
X132098115Y-53651795D01*
X132089639Y-53636271D01*
X132074482Y-53603082D01*
X132036863Y-53556399D01*
X132036858Y-53556394D01*
X132036854Y-53556389D01*
X131332772Y-52852309D01*
X131332765Y-52852302D01*
X131305841Y-52830605D01*
X131265996Y-52773217D01*
X131263502Y-52703392D01*
X131295967Y-52646378D01*
X133307553Y-50634793D01*
X133307556Y-50634792D01*
X133419360Y-50522988D01*
X133469479Y-50436176D01*
X133498417Y-50386057D01*
X133526712Y-50280455D01*
X133528911Y-50274649D01*
X133541640Y-50257819D01*
X133557193Y-50230880D01*
X138751559Y-45036514D01*
X138812880Y-45003031D01*
X138851754Y-45002717D01*
X138851933Y-45000903D01*
X138857996Y-45001500D01*
X138857998Y-45001500D01*
X139015684Y-45001500D01*
X139015685Y-45001499D01*
X139170337Y-44970737D01*
X139316019Y-44910394D01*
X139447129Y-44822789D01*
X139558629Y-44711289D01*
X139646234Y-44580179D01*
X139706577Y-44434497D01*
X139737340Y-44279842D01*
X139737340Y-44122158D01*
X139737340Y-44122155D01*
X139737339Y-44122153D01*
X139706578Y-43967510D01*
X139706577Y-43967503D01*
X139706575Y-43967498D01*
X139646237Y-43821827D01*
X139646230Y-43821814D01*
X139560420Y-43693391D01*
X139539542Y-43626714D01*
X139558026Y-43559333D01*
X139610005Y-43512643D01*
X139663522Y-43500500D01*
X170814340Y-43500500D01*
X170881379Y-43520185D01*
X170927134Y-43572989D01*
X170938340Y-43624500D01*
X170938340Y-151875500D01*
X170918655Y-151942539D01*
X170865851Y-151988294D01*
X170814340Y-151999500D01*
X108063340Y-151999500D01*
X107996301Y-151979815D01*
X107950546Y-151927011D01*
X107939340Y-151875500D01*
X107939340Y-147399986D01*
X121238841Y-147399986D01*
X121249334Y-147502697D01*
X121304481Y-147669119D01*
X121304483Y-147669124D01*
X121396524Y-147818345D01*
X121520494Y-147942315D01*
X121669715Y-148034356D01*
X121669720Y-148034358D01*
X121836142Y-148089505D01*
X121836149Y-148089506D01*
X121938859Y-148099999D01*
X122188839Y-148099999D01*
X122688840Y-148099999D01*
X122938812Y-148099999D01*
X122938826Y-148099998D01*
X123041537Y-148089505D01*
X123207959Y-148034358D01*
X123207964Y-148034356D01*
X123357185Y-147942315D01*
X123481155Y-147818345D01*
X123573196Y-147669124D01*
X123576248Y-147662579D01*
X123579095Y-147663906D01*
X123610754Y-147618027D01*
X123675227Y-147591102D01*
X123744022Y-147603309D01*
X123795297Y-147650771D01*
X123800837Y-147662856D01*
X123801432Y-147662579D01*
X123804483Y-147669124D01*
X123896524Y-147818345D01*
X124020494Y-147942315D01*
X124169715Y-148034356D01*
X124169720Y-148034358D01*
X124336142Y-148089505D01*
X124336149Y-148089506D01*
X124438859Y-148099999D01*
X124688839Y-148099999D01*
X125188840Y-148099999D01*
X125438812Y-148099999D01*
X125438826Y-148099998D01*
X125541537Y-148089505D01*
X125707959Y-148034358D01*
X125707964Y-148034356D01*
X125857185Y-147942315D01*
X125981155Y-147818345D01*
X126073196Y-147669124D01*
X126073198Y-147669119D01*
X126128345Y-147502697D01*
X126128346Y-147502690D01*
X126138839Y-147399986D01*
X126138840Y-147399973D01*
X126138840Y-147250000D01*
X125188840Y-147250000D01*
X125188840Y-148099999D01*
X124688839Y-148099999D01*
X124688840Y-148099998D01*
X124688840Y-147250000D01*
X122688840Y-147250000D01*
X122688840Y-148099999D01*
X122188839Y-148099999D01*
X122188840Y-148099998D01*
X122188840Y-147250000D01*
X121238841Y-147250000D01*
X121238841Y-147399986D01*
X107939340Y-147399986D01*
X107939340Y-141999986D01*
X127338841Y-141999986D01*
X127349334Y-142102697D01*
X127404481Y-142269119D01*
X127404483Y-142269124D01*
X127496524Y-142418345D01*
X127620494Y-142542315D01*
X127769715Y-142634356D01*
X127769720Y-142634358D01*
X127936142Y-142689505D01*
X127936149Y-142689506D01*
X128038859Y-142699999D01*
X128188839Y-142699999D01*
X128188840Y-142699998D01*
X128188840Y-141750000D01*
X127338841Y-141750000D01*
X127338841Y-141999986D01*
X107939340Y-141999986D01*
X107939340Y-140024986D01*
X127313841Y-140024986D01*
X127324334Y-140127697D01*
X127379481Y-140294119D01*
X127379483Y-140294124D01*
X127471524Y-140443346D01*
X127476001Y-140449007D01*
X127474683Y-140450048D01*
X127503906Y-140503565D01*
X127498922Y-140573257D01*
X127488279Y-140595019D01*
X127404485Y-140730871D01*
X127404481Y-140730880D01*
X127349334Y-140897302D01*
X127349333Y-140897309D01*
X127338840Y-141000013D01*
X127338840Y-141250000D01*
X128188840Y-141250000D01*
X128188840Y-140855000D01*
X128187659Y-140853819D01*
X128154174Y-140792496D01*
X128151340Y-140766138D01*
X128151340Y-139750000D01*
X127313841Y-139750000D01*
X127313841Y-140024986D01*
X107939340Y-140024986D01*
X107939340Y-138975013D01*
X127313840Y-138975013D01*
X127313840Y-139250000D01*
X128151340Y-139250000D01*
X128151340Y-138275000D01*
X128651340Y-138275000D01*
X128651340Y-140170000D01*
X128652521Y-140171181D01*
X128686006Y-140232504D01*
X128688840Y-140258862D01*
X128688840Y-142699999D01*
X128838812Y-142699999D01*
X128838826Y-142699998D01*
X128941537Y-142689505D01*
X129107959Y-142634358D01*
X129107964Y-142634356D01*
X129257182Y-142542317D01*
X129350804Y-142448695D01*
X129412127Y-142415210D01*
X129481819Y-142420194D01*
X129526167Y-142448695D01*
X129620184Y-142542712D01*
X129769506Y-142634814D01*
X129936043Y-142689999D01*
X130038831Y-142700500D01*
X130838848Y-142700499D01*
X130838856Y-142700498D01*
X130838859Y-142700498D01*
X130895142Y-142694748D01*
X130941637Y-142689999D01*
X131108174Y-142634814D01*
X131257496Y-142542712D01*
X131381552Y-142418656D01*
X131473654Y-142269334D01*
X131528839Y-142102797D01*
X131539340Y-142000009D01*
X131539339Y-140999992D01*
X131528839Y-140897203D01*
X131473654Y-140730666D01*
X131439125Y-140674685D01*
X131390033Y-140595093D01*
X131371593Y-140527701D01*
X131390991Y-140463372D01*
X131398284Y-140451923D01*
X131406552Y-140443656D01*
X131497892Y-140295569D01*
X131498321Y-140294896D01*
X131523987Y-140272477D01*
X131549310Y-140249700D01*
X131550236Y-140249549D01*
X131550943Y-140248932D01*
X131584638Y-140243950D01*
X131618273Y-140238477D01*
X131619489Y-140238798D01*
X131620061Y-140238714D01*
X131621318Y-140239282D01*
X131650352Y-140246959D01*
X131705343Y-140269737D01*
X131827919Y-140294119D01*
X131859993Y-140300499D01*
X131859996Y-140300500D01*
X131859998Y-140300500D01*
X132017684Y-140300500D01*
X132017685Y-140300499D01*
X132172337Y-140269737D01*
X132318019Y-140209394D01*
X132449129Y-140121789D01*
X132560629Y-140010289D01*
X132648234Y-139879179D01*
X132708577Y-139733497D01*
X132739340Y-139578842D01*
X132739340Y-139421158D01*
X132739340Y-139421155D01*
X132739339Y-139421153D01*
X132728013Y-139364216D01*
X132708577Y-139266503D01*
X132692333Y-139227286D01*
X132648237Y-139120827D01*
X132648230Y-139120814D01*
X132560629Y-138989711D01*
X132560626Y-138989707D01*
X132449132Y-138878213D01*
X132449128Y-138878210D01*
X132318025Y-138790609D01*
X132318012Y-138790602D01*
X132172341Y-138730264D01*
X132172329Y-138730261D01*
X132017685Y-138699500D01*
X132017682Y-138699500D01*
X131859998Y-138699500D01*
X131859995Y-138699500D01*
X131705350Y-138730261D01*
X131705338Y-138730264D01*
X131650355Y-138753039D01*
X131580885Y-138760508D01*
X131518406Y-138729232D01*
X131497364Y-138703575D01*
X131490146Y-138691872D01*
X131406552Y-138556344D01*
X131282496Y-138432288D01*
X131133174Y-138340186D01*
X130966637Y-138285001D01*
X130966635Y-138285000D01*
X130863850Y-138274500D01*
X130088838Y-138274500D01*
X130088820Y-138274501D01*
X129986043Y-138285000D01*
X129986040Y-138285001D01*
X129819508Y-138340185D01*
X129819503Y-138340187D01*
X129670182Y-138432289D01*
X129546128Y-138556343D01*
X129546123Y-138556349D01*
X129544081Y-138559661D01*
X129542087Y-138561453D01*
X129541647Y-138562011D01*
X129541551Y-138561935D01*
X129492131Y-138606383D01*
X129423168Y-138617602D01*
X129359087Y-138589755D01*
X129333008Y-138559656D01*
X129331159Y-138556659D01*
X129331156Y-138556655D01*
X129207185Y-138432684D01*
X129057964Y-138340643D01*
X129057959Y-138340641D01*
X128891537Y-138285494D01*
X128891530Y-138285493D01*
X128788826Y-138275000D01*
X128651340Y-138275000D01*
X128151340Y-138275000D01*
X128013867Y-138275000D01*
X128013852Y-138275001D01*
X127911142Y-138285494D01*
X127744720Y-138340641D01*
X127744715Y-138340643D01*
X127595494Y-138432684D01*
X127471524Y-138556654D01*
X127379483Y-138705875D01*
X127379481Y-138705880D01*
X127324334Y-138872302D01*
X127324333Y-138872309D01*
X127313840Y-138975013D01*
X107939340Y-138975013D01*
X107939340Y-124024986D01*
X125313841Y-124024986D01*
X125324334Y-124127697D01*
X125379481Y-124294119D01*
X125379483Y-124294124D01*
X125471524Y-124443345D01*
X125595494Y-124567315D01*
X125744715Y-124659356D01*
X125744720Y-124659358D01*
X125911142Y-124714505D01*
X125911149Y-124714506D01*
X126013859Y-124724999D01*
X126151339Y-124724999D01*
X126151340Y-124724998D01*
X126151340Y-123750000D01*
X125313841Y-123750000D01*
X125313841Y-124024986D01*
X107939340Y-124024986D01*
X107939340Y-122975013D01*
X125313840Y-122975013D01*
X125313840Y-123250000D01*
X126151340Y-123250000D01*
X126151340Y-121250000D01*
X125313841Y-121250000D01*
X125313841Y-121524986D01*
X125324334Y-121627697D01*
X125379481Y-121794119D01*
X125379483Y-121794124D01*
X125471524Y-121943345D01*
X125595495Y-122067316D01*
X125595499Y-122067319D01*
X125720566Y-122144462D01*
X125767291Y-122196410D01*
X125778512Y-122265372D01*
X125750669Y-122329454D01*
X125720566Y-122355538D01*
X125595499Y-122432680D01*
X125595495Y-122432683D01*
X125471524Y-122556654D01*
X125379483Y-122705875D01*
X125379481Y-122705880D01*
X125324334Y-122872302D01*
X125324333Y-122872309D01*
X125313840Y-122975013D01*
X107939340Y-122975013D01*
X107939340Y-120475013D01*
X125313840Y-120475013D01*
X125313840Y-120750000D01*
X126151340Y-120750000D01*
X126151340Y-119775000D01*
X126013867Y-119775000D01*
X126013852Y-119775001D01*
X125911142Y-119785494D01*
X125744720Y-119840641D01*
X125744715Y-119840643D01*
X125595494Y-119932684D01*
X125471524Y-120056654D01*
X125379483Y-120205875D01*
X125379481Y-120205880D01*
X125324334Y-120372302D01*
X125324333Y-120372309D01*
X125313840Y-120475013D01*
X107939340Y-120475013D01*
X107939340Y-100147844D01*
X110788840Y-100147844D01*
X110795241Y-100207372D01*
X110795243Y-100207379D01*
X110845485Y-100342086D01*
X110845489Y-100342093D01*
X110931649Y-100457187D01*
X110931652Y-100457190D01*
X111046746Y-100543350D01*
X111046753Y-100543354D01*
X111181460Y-100593596D01*
X111181467Y-100593598D01*
X111240995Y-100599999D01*
X111241012Y-100600000D01*
X112038840Y-100600000D01*
X112538840Y-100600000D01*
X113336668Y-100600000D01*
X113336684Y-100599999D01*
X113396212Y-100593598D01*
X113396219Y-100593596D01*
X113530926Y-100543354D01*
X113530933Y-100543350D01*
X113646027Y-100457190D01*
X113646030Y-100457187D01*
X113732190Y-100342093D01*
X113732194Y-100342086D01*
X113782436Y-100207379D01*
X113782438Y-100207372D01*
X113788839Y-100147844D01*
X119088840Y-100147844D01*
X119095241Y-100207372D01*
X119095243Y-100207379D01*
X119145485Y-100342086D01*
X119145489Y-100342093D01*
X119231649Y-100457187D01*
X119231652Y-100457190D01*
X119346746Y-100543350D01*
X119346753Y-100543354D01*
X119481460Y-100593596D01*
X119481467Y-100593598D01*
X119540995Y-100599999D01*
X119541012Y-100600000D01*
X120338840Y-100600000D01*
X120838840Y-100600000D01*
X121636668Y-100600000D01*
X121636684Y-100599999D01*
X121696212Y-100593598D01*
X121696219Y-100593596D01*
X121830926Y-100543354D01*
X121830933Y-100543350D01*
X121946027Y-100457190D01*
X121946030Y-100457187D01*
X122032190Y-100342093D01*
X122032194Y-100342086D01*
X122082436Y-100207379D01*
X122082438Y-100207372D01*
X122088839Y-100147844D01*
X122088840Y-100147827D01*
X122088840Y-99625000D01*
X120838840Y-99625000D01*
X120838840Y-100600000D01*
X120338840Y-100600000D01*
X120338840Y-99625000D01*
X119088840Y-99625000D01*
X119088840Y-100147844D01*
X113788839Y-100147844D01*
X113788840Y-100147827D01*
X113788840Y-99625000D01*
X112538840Y-99625000D01*
X112538840Y-100600000D01*
X112038840Y-100600000D01*
X112038840Y-99625000D01*
X110788840Y-99625000D01*
X110788840Y-100147844D01*
X107939340Y-100147844D01*
X107939340Y-98602155D01*
X110788840Y-98602155D01*
X110788840Y-99125000D01*
X112038840Y-99125000D01*
X112538840Y-99125000D01*
X113788840Y-99125000D01*
X113788840Y-98602172D01*
X113788839Y-98602155D01*
X119088840Y-98602155D01*
X119088840Y-99125000D01*
X120338840Y-99125000D01*
X120838840Y-99125000D01*
X122088840Y-99125000D01*
X122088840Y-98602172D01*
X122088839Y-98602155D01*
X122082438Y-98542627D01*
X122082436Y-98542620D01*
X122032194Y-98407913D01*
X122032190Y-98407906D01*
X121946030Y-98292812D01*
X121946027Y-98292809D01*
X121830933Y-98206649D01*
X121830926Y-98206645D01*
X121696219Y-98156403D01*
X121696212Y-98156401D01*
X121636684Y-98150000D01*
X120838840Y-98150000D01*
X120838840Y-99125000D01*
X120338840Y-99125000D01*
X120338840Y-98150000D01*
X119540995Y-98150000D01*
X119481467Y-98156401D01*
X119481460Y-98156403D01*
X119346753Y-98206645D01*
X119346746Y-98206649D01*
X119231652Y-98292809D01*
X119231649Y-98292812D01*
X119145489Y-98407906D01*
X119145485Y-98407913D01*
X119095243Y-98542620D01*
X119095241Y-98542627D01*
X119088840Y-98602155D01*
X113788839Y-98602155D01*
X113782438Y-98542627D01*
X113782436Y-98542620D01*
X113732194Y-98407913D01*
X113732190Y-98407906D01*
X113646030Y-98292812D01*
X113646027Y-98292809D01*
X113530933Y-98206649D01*
X113530926Y-98206645D01*
X113396219Y-98156403D01*
X113396212Y-98156401D01*
X113336684Y-98150000D01*
X112538840Y-98150000D01*
X112538840Y-99125000D01*
X112038840Y-99125000D01*
X112038840Y-98150000D01*
X111240995Y-98150000D01*
X111181467Y-98156401D01*
X111181460Y-98156403D01*
X111046753Y-98206645D01*
X111046746Y-98206649D01*
X110931652Y-98292809D01*
X110931649Y-98292812D01*
X110845489Y-98407906D01*
X110845485Y-98407913D01*
X110795243Y-98542620D01*
X110795241Y-98542627D01*
X110788840Y-98602155D01*
X107939340Y-98602155D01*
X107939340Y-92921153D01*
X111238340Y-92921153D01*
X111238340Y-93078846D01*
X111269101Y-93233489D01*
X111269104Y-93233501D01*
X111329442Y-93379172D01*
X111329449Y-93379185D01*
X111417050Y-93510288D01*
X111417053Y-93510292D01*
X111528547Y-93621786D01*
X111528551Y-93621789D01*
X111659654Y-93709390D01*
X111659667Y-93709397D01*
X111805338Y-93769735D01*
X111805343Y-93769737D01*
X111959993Y-93800499D01*
X111959996Y-93800500D01*
X111959998Y-93800500D01*
X112117684Y-93800500D01*
X112117685Y-93800499D01*
X112272337Y-93769737D01*
X112418019Y-93709394D01*
X112549129Y-93621789D01*
X112660629Y-93510289D01*
X112748234Y-93379179D01*
X112749442Y-93376263D01*
X112790538Y-93277048D01*
X112834378Y-93222644D01*
X112900673Y-93200579D01*
X112905099Y-93200500D01*
X113514340Y-93200500D01*
X113581379Y-93220185D01*
X113627134Y-93272989D01*
X113638340Y-93324500D01*
X113638340Y-94147870D01*
X113638341Y-94147876D01*
X113644749Y-94207487D01*
X113646532Y-94215031D01*
X113645278Y-94215327D01*
X113649696Y-94277069D01*
X113645704Y-94290664D01*
X113645241Y-94292624D01*
X113638840Y-94352155D01*
X113638840Y-94550000D01*
X113890771Y-94550000D01*
X113934104Y-94557818D01*
X114031357Y-94594091D01*
X114031356Y-94594091D01*
X114038284Y-94594835D01*
X114090967Y-94600500D01*
X114764841Y-94600499D01*
X114773526Y-94603049D01*
X114782487Y-94601761D01*
X114806523Y-94612738D01*
X114831879Y-94620183D01*
X114837807Y-94627025D01*
X114846043Y-94630786D01*
X114860329Y-94653017D01*
X114877634Y-94672987D01*
X114879921Y-94683502D01*
X114883817Y-94689564D01*
X114888840Y-94724499D01*
X114888840Y-94875500D01*
X114869155Y-94942539D01*
X114816351Y-94988294D01*
X114764840Y-94999500D01*
X114090969Y-94999500D01*
X114090963Y-94999501D01*
X114031356Y-95005908D01*
X113934104Y-95042182D01*
X113890771Y-95050000D01*
X113638840Y-95050000D01*
X113638840Y-95247844D01*
X113645241Y-95307372D01*
X113647027Y-95314930D01*
X113645382Y-95315318D01*
X113649691Y-95375656D01*
X113644783Y-95392371D01*
X113644748Y-95392520D01*
X113638341Y-95452116D01*
X113638340Y-95452135D01*
X113638340Y-96347870D01*
X113638341Y-96347876D01*
X113644748Y-96407479D01*
X113646532Y-96415026D01*
X113645069Y-96415371D01*
X113649425Y-96476371D01*
X113645013Y-96491396D01*
X113644748Y-96492517D01*
X113638341Y-96552116D01*
X113638340Y-96552135D01*
X113638340Y-97447870D01*
X113638341Y-97447876D01*
X113644748Y-97507483D01*
X113695042Y-97642328D01*
X113695046Y-97642335D01*
X113781292Y-97757544D01*
X113781295Y-97757547D01*
X113896504Y-97843793D01*
X113896511Y-97843797D01*
X114031357Y-97894091D01*
X114031356Y-97894091D01*
X114038284Y-97894835D01*
X114090967Y-97900500D01*
X115686712Y-97900499D01*
X115746323Y-97894091D01*
X115881171Y-97843796D01*
X115996386Y-97757546D01*
X116082636Y-97642331D01*
X116132931Y-97507483D01*
X116139340Y-97447873D01*
X116139339Y-97200095D01*
X116159023Y-97133057D01*
X116175653Y-97112420D01*
X124797346Y-88490728D01*
X124797351Y-88490724D01*
X124807554Y-88480520D01*
X124807556Y-88480520D01*
X124919360Y-88368716D01*
X124966203Y-88287582D01*
X124977384Y-88268216D01*
X124977385Y-88268214D01*
X124998414Y-88231790D01*
X124998413Y-88231790D01*
X124998417Y-88231785D01*
X125039340Y-88079057D01*
X125039340Y-87920943D01*
X125039340Y-84579765D01*
X125059025Y-84512726D01*
X125060238Y-84510874D01*
X125148230Y-84379185D01*
X125148230Y-84379184D01*
X125148234Y-84379179D01*
X125208577Y-84233497D01*
X125239340Y-84078842D01*
X125239340Y-83921158D01*
X125239340Y-83921155D01*
X125239339Y-83921153D01*
X125208578Y-83766510D01*
X125208577Y-83766503D01*
X125208575Y-83766498D01*
X125148237Y-83620827D01*
X125148230Y-83620814D01*
X125060629Y-83489711D01*
X125060626Y-83489707D01*
X124949132Y-83378213D01*
X124949128Y-83378210D01*
X124818025Y-83290609D01*
X124818012Y-83290602D01*
X124672341Y-83230264D01*
X124672329Y-83230261D01*
X124517685Y-83199500D01*
X124517682Y-83199500D01*
X124359998Y-83199500D01*
X124359995Y-83199500D01*
X124205350Y-83230261D01*
X124205338Y-83230264D01*
X124059667Y-83290602D01*
X124059654Y-83290609D01*
X124007731Y-83325304D01*
X123941054Y-83346182D01*
X123873673Y-83327698D01*
X123869949Y-83325304D01*
X123818025Y-83290609D01*
X123818012Y-83290602D01*
X123672341Y-83230264D01*
X123672329Y-83230261D01*
X123517685Y-83199500D01*
X123517682Y-83199500D01*
X123359998Y-83199500D01*
X123359995Y-83199500D01*
X123205350Y-83230261D01*
X123205338Y-83230264D01*
X123059667Y-83290602D01*
X123059654Y-83290609D01*
X123007731Y-83325304D01*
X122941054Y-83346182D01*
X122873673Y-83327698D01*
X122869949Y-83325304D01*
X122818025Y-83290609D01*
X122818012Y-83290602D01*
X122672341Y-83230264D01*
X122672329Y-83230261D01*
X122517685Y-83199500D01*
X122517682Y-83199500D01*
X122359998Y-83199500D01*
X122359995Y-83199500D01*
X122205350Y-83230261D01*
X122205338Y-83230264D01*
X122059667Y-83290602D01*
X122059654Y-83290609D01*
X121928551Y-83378210D01*
X121928547Y-83378213D01*
X121817053Y-83489707D01*
X121817050Y-83489711D01*
X121729449Y-83620814D01*
X121729442Y-83620827D01*
X121669104Y-83766498D01*
X121669101Y-83766510D01*
X121638340Y-83921153D01*
X121638340Y-84078846D01*
X121669101Y-84233489D01*
X121670871Y-84239324D01*
X121668290Y-84240106D01*
X121674526Y-84297992D01*
X121643264Y-84360477D01*
X121583183Y-84396142D01*
X121552492Y-84400000D01*
X120838840Y-84400000D01*
X120838840Y-86850000D01*
X121540243Y-86850000D01*
X121607282Y-86869685D01*
X121653037Y-86922489D01*
X121662981Y-86991647D01*
X121633956Y-87055203D01*
X121627924Y-87061681D01*
X116351020Y-92338584D01*
X116333436Y-92348185D01*
X116318761Y-92361828D01*
X116303396Y-92364588D01*
X116289697Y-92372069D01*
X116269713Y-92370639D01*
X116249992Y-92374183D01*
X116235574Y-92368198D01*
X116220005Y-92367085D01*
X116203966Y-92355078D01*
X116185461Y-92347397D01*
X116176567Y-92334567D01*
X116164072Y-92325213D01*
X116157070Y-92306441D01*
X116145655Y-92289974D01*
X116141621Y-92265020D01*
X116139655Y-92259749D01*
X116139415Y-92255237D01*
X116139339Y-92253063D01*
X116139339Y-92152128D01*
X116134107Y-92103462D01*
X116133951Y-92098985D01*
X116141550Y-92069299D01*
X116146992Y-92039145D01*
X116150135Y-92035768D01*
X116151280Y-92031298D01*
X116173727Y-92010430D01*
X116194603Y-91988009D01*
X116195877Y-91987263D01*
X116205027Y-91981980D01*
X116207556Y-91980520D01*
X116319360Y-91868716D01*
X116319360Y-91868714D01*
X116329564Y-91858511D01*
X116329568Y-91858506D01*
X117307553Y-90880521D01*
X117307556Y-90880520D01*
X117419360Y-90768716D01*
X117469479Y-90681904D01*
X117498417Y-90631785D01*
X117539341Y-90479057D01*
X117539341Y-90320943D01*
X117539341Y-90313348D01*
X117539340Y-90313330D01*
X117539340Y-86397844D01*
X119088840Y-86397844D01*
X119095241Y-86457372D01*
X119095243Y-86457379D01*
X119145485Y-86592086D01*
X119145489Y-86592093D01*
X119231649Y-86707187D01*
X119231652Y-86707190D01*
X119346746Y-86793350D01*
X119346753Y-86793354D01*
X119481460Y-86843596D01*
X119481467Y-86843598D01*
X119540995Y-86849999D01*
X119541012Y-86850000D01*
X120338840Y-86850000D01*
X120338840Y-85875000D01*
X119088840Y-85875000D01*
X119088840Y-86397844D01*
X117539340Y-86397844D01*
X117539340Y-84852155D01*
X119088840Y-84852155D01*
X119088840Y-85375000D01*
X120338840Y-85375000D01*
X120338840Y-84400000D01*
X119540995Y-84400000D01*
X119481467Y-84406401D01*
X119481460Y-84406403D01*
X119346753Y-84456645D01*
X119346746Y-84456649D01*
X119231652Y-84542809D01*
X119231649Y-84542812D01*
X119145489Y-84657906D01*
X119145485Y-84657913D01*
X119095243Y-84792620D01*
X119095241Y-84792627D01*
X119088840Y-84852155D01*
X117539340Y-84852155D01*
X117539340Y-84579765D01*
X117559025Y-84512726D01*
X117560238Y-84510874D01*
X117648230Y-84379185D01*
X117648230Y-84379184D01*
X117648234Y-84379179D01*
X117708577Y-84233497D01*
X117739340Y-84078842D01*
X117739340Y-83921158D01*
X117739340Y-83921155D01*
X117739339Y-83921153D01*
X117708578Y-83766510D01*
X117708577Y-83766503D01*
X117708575Y-83766498D01*
X117648237Y-83620827D01*
X117648230Y-83620814D01*
X117560629Y-83489711D01*
X117560626Y-83489707D01*
X117449132Y-83378213D01*
X117449128Y-83378210D01*
X117318025Y-83290609D01*
X117318012Y-83290602D01*
X117172341Y-83230264D01*
X117172329Y-83230261D01*
X117017685Y-83199500D01*
X117017682Y-83199500D01*
X116859998Y-83199500D01*
X116859995Y-83199500D01*
X116705350Y-83230261D01*
X116705338Y-83230264D01*
X116559667Y-83290602D01*
X116559654Y-83290609D01*
X116507731Y-83325304D01*
X116441054Y-83346182D01*
X116373673Y-83327698D01*
X116369949Y-83325304D01*
X116318025Y-83290609D01*
X116318012Y-83290602D01*
X116172341Y-83230264D01*
X116172329Y-83230261D01*
X116017685Y-83199500D01*
X116017682Y-83199500D01*
X115859998Y-83199500D01*
X115859995Y-83199500D01*
X115705350Y-83230261D01*
X115705338Y-83230264D01*
X115559667Y-83290602D01*
X115559654Y-83290609D01*
X115507731Y-83325304D01*
X115441054Y-83346182D01*
X115373673Y-83327698D01*
X115369949Y-83325304D01*
X115318025Y-83290609D01*
X115318012Y-83290602D01*
X115172341Y-83230264D01*
X115172329Y-83230261D01*
X115017685Y-83199500D01*
X115017682Y-83199500D01*
X114859998Y-83199500D01*
X114859995Y-83199500D01*
X114705350Y-83230261D01*
X114705338Y-83230264D01*
X114559667Y-83290602D01*
X114559654Y-83290609D01*
X114428551Y-83378210D01*
X114428547Y-83378213D01*
X114317053Y-83489707D01*
X114317050Y-83489711D01*
X114229449Y-83620814D01*
X114229442Y-83620827D01*
X114169104Y-83766498D01*
X114169101Y-83766510D01*
X114138340Y-83921153D01*
X114138340Y-84078846D01*
X114169101Y-84233489D01*
X114169104Y-84233501D01*
X114229442Y-84379172D01*
X114229446Y-84379179D01*
X114267442Y-84436044D01*
X114288320Y-84502721D01*
X114288340Y-84504935D01*
X114288340Y-88275500D01*
X114268655Y-88342539D01*
X114215851Y-88388294D01*
X114164342Y-88399500D01*
X114090970Y-88399500D01*
X114090963Y-88399501D01*
X114031356Y-88405908D01*
X113896511Y-88456202D01*
X113896504Y-88456206D01*
X113781295Y-88542452D01*
X113781292Y-88542455D01*
X113695046Y-88657664D01*
X113695042Y-88657671D01*
X113644748Y-88792517D01*
X113638341Y-88852116D01*
X113638340Y-88852135D01*
X113638340Y-89747870D01*
X113638341Y-89747876D01*
X113644748Y-89807479D01*
X113646532Y-89815026D01*
X113645069Y-89815371D01*
X113649425Y-89876371D01*
X113645013Y-89891396D01*
X113644748Y-89892517D01*
X113638341Y-89952116D01*
X113638340Y-89952135D01*
X113638340Y-90847870D01*
X113638341Y-90847876D01*
X113644748Y-90907479D01*
X113646532Y-90915026D01*
X113645069Y-90915371D01*
X113649425Y-90976371D01*
X113645013Y-90991396D01*
X113644748Y-90992517D01*
X113638341Y-91052116D01*
X113638340Y-91052135D01*
X113638341Y-91875500D01*
X113618657Y-91942539D01*
X113565853Y-91988294D01*
X113514341Y-91999500D01*
X112359779Y-91999500D01*
X112329988Y-92007482D01*
X112329989Y-92007483D01*
X112207054Y-92040423D01*
X112207049Y-92040426D01*
X112070130Y-92119475D01*
X112070122Y-92119481D01*
X112024176Y-92165427D01*
X111962853Y-92198911D01*
X111960688Y-92199362D01*
X111805348Y-92230261D01*
X111805338Y-92230264D01*
X111659667Y-92290602D01*
X111659654Y-92290609D01*
X111528551Y-92378210D01*
X111528547Y-92378213D01*
X111417053Y-92489707D01*
X111417050Y-92489711D01*
X111329449Y-92620814D01*
X111329442Y-92620827D01*
X111269104Y-92766498D01*
X111269101Y-92766510D01*
X111238340Y-92921153D01*
X107939340Y-92921153D01*
X107939340Y-86397844D01*
X110788840Y-86397844D01*
X110795241Y-86457372D01*
X110795243Y-86457379D01*
X110845485Y-86592086D01*
X110845489Y-86592093D01*
X110931649Y-86707187D01*
X110931652Y-86707190D01*
X111046746Y-86793350D01*
X111046753Y-86793354D01*
X111181460Y-86843596D01*
X111181467Y-86843598D01*
X111240995Y-86849999D01*
X111241012Y-86850000D01*
X112038840Y-86850000D01*
X112538840Y-86850000D01*
X113336668Y-86850000D01*
X113336684Y-86849999D01*
X113396212Y-86843598D01*
X113396219Y-86843596D01*
X113530926Y-86793354D01*
X113530933Y-86793350D01*
X113646027Y-86707190D01*
X113646030Y-86707187D01*
X113732190Y-86592093D01*
X113732194Y-86592086D01*
X113782436Y-86457379D01*
X113782438Y-86457372D01*
X113788839Y-86397844D01*
X113788840Y-86397827D01*
X113788840Y-85875000D01*
X112538840Y-85875000D01*
X112538840Y-86850000D01*
X112038840Y-86850000D01*
X112038840Y-85875000D01*
X110788840Y-85875000D01*
X110788840Y-86397844D01*
X107939340Y-86397844D01*
X107939340Y-84852155D01*
X110788840Y-84852155D01*
X110788840Y-85375000D01*
X112038840Y-85375000D01*
X112538840Y-85375000D01*
X113788840Y-85375000D01*
X113788840Y-84852172D01*
X113788839Y-84852155D01*
X113782438Y-84792627D01*
X113782436Y-84792620D01*
X113732194Y-84657913D01*
X113732190Y-84657906D01*
X113646030Y-84542812D01*
X113646027Y-84542809D01*
X113530933Y-84456649D01*
X113530926Y-84456645D01*
X113396219Y-84406403D01*
X113396212Y-84406401D01*
X113336684Y-84400000D01*
X112538840Y-84400000D01*
X112538840Y-85375000D01*
X112038840Y-85375000D01*
X112038840Y-84400000D01*
X111240995Y-84400000D01*
X111181467Y-84406401D01*
X111181460Y-84406403D01*
X111046753Y-84456645D01*
X111046746Y-84456649D01*
X110931652Y-84542809D01*
X110931649Y-84542812D01*
X110845489Y-84657906D01*
X110845485Y-84657913D01*
X110795243Y-84792620D01*
X110795241Y-84792627D01*
X110788840Y-84852155D01*
X107939340Y-84852155D01*
X107939340Y-57336110D01*
X107959025Y-57269071D01*
X108011829Y-57223316D01*
X108080987Y-57213372D01*
X108144543Y-57242397D01*
X108151021Y-57248429D01*
X109552018Y-58649426D01*
X122987047Y-45214397D01*
X121484831Y-43712181D01*
X121451346Y-43650858D01*
X121456330Y-43581166D01*
X121498202Y-43525233D01*
X121563666Y-43500816D01*
X121572512Y-43500500D01*
X136930137Y-43500500D01*
X136997176Y-43520185D01*
G37*
%TD.AperFunction*%
%TA.AperFunction,Conductor*%
G36*
X162845543Y-144380228D02*
G01*
X162852021Y-144386260D01*
X162887547Y-144421786D01*
X162887551Y-144421789D01*
X163018654Y-144509390D01*
X163018667Y-144509397D01*
X163164338Y-144569735D01*
X163164343Y-144569737D01*
X163316399Y-144599983D01*
X163318993Y-144600499D01*
X163318996Y-144600500D01*
X163318998Y-144600500D01*
X163476684Y-144600500D01*
X163476685Y-144600499D01*
X163631337Y-144569737D01*
X163777019Y-144509394D01*
X163831503Y-144472989D01*
X163908715Y-144421398D01*
X163975393Y-144400520D01*
X163977606Y-144400500D01*
X168169738Y-144400500D01*
X168236777Y-144420185D01*
X168282532Y-144472989D01*
X168292476Y-144542147D01*
X168263451Y-144605703D01*
X168257419Y-144612181D01*
X168221161Y-144648438D01*
X168221154Y-144648447D01*
X168137558Y-144789801D01*
X168091739Y-144947513D01*
X168091544Y-144949998D01*
X168091545Y-144950000D01*
X168814840Y-144950000D01*
X168881879Y-144969685D01*
X168927634Y-145022489D01*
X168938840Y-145074000D01*
X168938840Y-145200000D01*
X169064840Y-145200000D01*
X169131879Y-145219685D01*
X169177634Y-145272489D01*
X169188840Y-145324000D01*
X169188840Y-146000000D01*
X169201021Y-146012181D01*
X169234506Y-146073504D01*
X169237340Y-146099862D01*
X169237340Y-146375500D01*
X169217655Y-146442539D01*
X169164851Y-146488294D01*
X169113340Y-146499500D01*
X168673138Y-146499500D01*
X168636272Y-146502401D01*
X168636266Y-146502402D01*
X168478446Y-146548254D01*
X168478443Y-146548255D01*
X168336977Y-146631917D01*
X168336969Y-146631923D01*
X168305714Y-146663180D01*
X168244392Y-146696666D01*
X168218032Y-146699500D01*
X164475481Y-146699500D01*
X164408442Y-146679815D01*
X164362687Y-146627011D01*
X164360885Y-146622245D01*
X164360726Y-146622312D01*
X164298055Y-146471009D01*
X164298048Y-146470996D01*
X164210447Y-146339893D01*
X164210444Y-146339889D01*
X164098950Y-146228395D01*
X164098946Y-146228392D01*
X163967843Y-146140791D01*
X163967830Y-146140784D01*
X163822159Y-146080446D01*
X163822149Y-146080443D01*
X163666807Y-146049543D01*
X163604896Y-146017158D01*
X163603318Y-146015607D01*
X163037712Y-145450001D01*
X168091544Y-145450001D01*
X168091739Y-145452486D01*
X168137558Y-145610198D01*
X168221154Y-145751552D01*
X168221161Y-145751561D01*
X168337278Y-145867678D01*
X168337287Y-145867685D01*
X168478643Y-145951282D01*
X168478646Y-145951283D01*
X168636344Y-145997099D01*
X168636350Y-145997100D01*
X168673190Y-145999999D01*
X168673206Y-146000000D01*
X168688840Y-146000000D01*
X168688840Y-145450000D01*
X168091545Y-145450000D01*
X168091544Y-145450001D01*
X163037712Y-145450001D01*
X162676659Y-145088948D01*
X162643174Y-145027625D01*
X162640340Y-145001267D01*
X162640340Y-144473941D01*
X162660025Y-144406902D01*
X162712829Y-144361147D01*
X162781987Y-144351203D01*
X162845543Y-144380228D01*
G37*
%TD.AperFunction*%
%TA.AperFunction,Conductor*%
G36*
X165743879Y-132333685D02*
G01*
X165789634Y-132386489D01*
X165800840Y-132438000D01*
X165800840Y-134736232D01*
X165781155Y-134803271D01*
X165741938Y-134841769D01*
X165659354Y-134892708D01*
X165595182Y-134932289D01*
X165471129Y-135056342D01*
X165379027Y-135205663D01*
X165379026Y-135205666D01*
X165323841Y-135372203D01*
X165323841Y-135372204D01*
X165323840Y-135372204D01*
X165313340Y-135474983D01*
X165313340Y-136525001D01*
X165313341Y-136525019D01*
X165323840Y-136627796D01*
X165323841Y-136627799D01*
X165365417Y-136753265D01*
X165379026Y-136794334D01*
X165471128Y-136943656D01*
X165595184Y-137067712D01*
X165741937Y-137158229D01*
X165788661Y-137210175D01*
X165800840Y-137263767D01*
X165800840Y-138375830D01*
X165800839Y-138375848D01*
X165800839Y-138541554D01*
X165800838Y-138541554D01*
X165841763Y-138694286D01*
X165850706Y-138709775D01*
X165855273Y-138717685D01*
X165855500Y-138718077D01*
X165855501Y-138718082D01*
X165855503Y-138718082D01*
X165920819Y-138831214D01*
X165920821Y-138831217D01*
X166104266Y-139014662D01*
X166137751Y-139075985D01*
X166138202Y-139078151D01*
X166169101Y-139233491D01*
X166169104Y-139233501D01*
X166229442Y-139379172D01*
X166229449Y-139379185D01*
X166317050Y-139510288D01*
X166317053Y-139510292D01*
X166428547Y-139621786D01*
X166428551Y-139621789D01*
X166559654Y-139709390D01*
X166559667Y-139709397D01*
X166657693Y-139750000D01*
X166705343Y-139769737D01*
X166814114Y-139791373D01*
X166859993Y-139800499D01*
X166859996Y-139800500D01*
X166859998Y-139800500D01*
X167017684Y-139800500D01*
X167017685Y-139800499D01*
X167172337Y-139769737D01*
X167318019Y-139709394D01*
X167449129Y-139621789D01*
X167560629Y-139510289D01*
X167648234Y-139379179D01*
X167708577Y-139233497D01*
X167739340Y-139078842D01*
X167739340Y-138921158D01*
X167739340Y-138921155D01*
X167739339Y-138921153D01*
X167724708Y-138847597D01*
X167708577Y-138766503D01*
X167703000Y-138753039D01*
X167648237Y-138620827D01*
X167648230Y-138620814D01*
X167560629Y-138489711D01*
X167560626Y-138489707D01*
X167449132Y-138378213D01*
X167449128Y-138378210D01*
X167318025Y-138290609D01*
X167318012Y-138290602D01*
X167172341Y-138230264D01*
X167172331Y-138230261D01*
X167101648Y-138216201D01*
X167039737Y-138183815D01*
X167005163Y-138123099D01*
X167001840Y-138094584D01*
X167001840Y-137263767D01*
X167021525Y-137196728D01*
X167060741Y-137158230D01*
X167207496Y-137067712D01*
X167331552Y-136943656D01*
X167333592Y-136940347D01*
X167335585Y-136938555D01*
X167336033Y-136937989D01*
X167336129Y-136938065D01*
X167385534Y-136893623D01*
X167454496Y-136882395D01*
X167518580Y-136910234D01*
X167544669Y-136940339D01*
X167546521Y-136943341D01*
X167546523Y-136943344D01*
X167670494Y-137067315D01*
X167819715Y-137159356D01*
X167819720Y-137159358D01*
X167986142Y-137214505D01*
X167986149Y-137214506D01*
X168088859Y-137224999D01*
X168229241Y-137224999D01*
X168296281Y-137244683D01*
X168342036Y-137297487D01*
X168353004Y-137356682D01*
X168352233Y-137369087D01*
X168338339Y-137420943D01*
X168338339Y-137579057D01*
X168338340Y-137579060D01*
X168338340Y-137592907D01*
X168338340Y-143075500D01*
X168318655Y-143142539D01*
X168265851Y-143188294D01*
X168214340Y-143199500D01*
X167169556Y-143199500D01*
X167102517Y-143179815D01*
X167056762Y-143127011D01*
X167046818Y-143057853D01*
X167047939Y-143051308D01*
X167070340Y-142938693D01*
X167070340Y-142161306D01*
X167070339Y-142161304D01*
X167035736Y-141987341D01*
X167035733Y-141987332D01*
X166967856Y-141823459D01*
X166967849Y-141823446D01*
X166869304Y-141675965D01*
X166869301Y-141675961D01*
X166743878Y-141550538D01*
X166743874Y-141550535D01*
X166596393Y-141451990D01*
X166596380Y-141451983D01*
X166432507Y-141384106D01*
X166432499Y-141384104D01*
X166315148Y-141360761D01*
X166253237Y-141328376D01*
X166218663Y-141267660D01*
X166215340Y-141239144D01*
X166215340Y-141224236D01*
X166215340Y-141224234D01*
X166176121Y-141077865D01*
X166100355Y-140946635D01*
X165993205Y-140839485D01*
X165905309Y-140788738D01*
X165861976Y-140763719D01*
X165760798Y-140736609D01*
X165715606Y-140724500D01*
X165564074Y-140724500D01*
X165417705Y-140763719D01*
X165400958Y-140773387D01*
X165338960Y-140790000D01*
X165064340Y-140790000D01*
X165055654Y-140787449D01*
X165046695Y-140788738D01*
X165022653Y-140777759D01*
X164997301Y-140770315D01*
X164991374Y-140763475D01*
X164983139Y-140759715D01*
X164968848Y-140737479D01*
X164951546Y-140717511D01*
X164949258Y-140706997D01*
X164945364Y-140700937D01*
X164940340Y-140666002D01*
X164940339Y-140614002D01*
X164960022Y-140546963D01*
X165012825Y-140501207D01*
X165064339Y-140490000D01*
X165439840Y-140490000D01*
X165439840Y-140242172D01*
X165439839Y-140242155D01*
X165433438Y-140182627D01*
X165433436Y-140182620D01*
X165383194Y-140047913D01*
X165383190Y-140047906D01*
X165297030Y-139932812D01*
X165297027Y-139932809D01*
X165181933Y-139846649D01*
X165181920Y-139846642D01*
X165180989Y-139846295D01*
X165180987Y-139846295D01*
X165180984Y-139846293D01*
X165180981Y-139846292D01*
X165180178Y-139845691D01*
X165174144Y-139842396D01*
X165174617Y-139841528D01*
X165149386Y-139822638D01*
X165125054Y-139804423D01*
X165125052Y-139804420D01*
X165125050Y-139804418D01*
X165109596Y-139762978D01*
X165100637Y-139738959D01*
X165100637Y-139738956D01*
X165100636Y-139738953D01*
X165109408Y-139698638D01*
X165115489Y-139670686D01*
X165115492Y-139670680D01*
X165136631Y-139642442D01*
X165292850Y-139486223D01*
X165292855Y-139486220D01*
X165303054Y-139476020D01*
X165303056Y-139476020D01*
X165414860Y-139364216D01*
X165493917Y-139227285D01*
X165534841Y-139074558D01*
X165534841Y-138916443D01*
X165503983Y-138801281D01*
X165498640Y-138781340D01*
X165498640Y-138781339D01*
X165493917Y-138763716D01*
X165493917Y-138763715D01*
X165474008Y-138729232D01*
X165452439Y-138691873D01*
X165414860Y-138626784D01*
X162277429Y-135489354D01*
X162277428Y-135489352D01*
X162158557Y-135370481D01*
X162158556Y-135370480D01*
X162071744Y-135320360D01*
X162071744Y-135320359D01*
X162071740Y-135320358D01*
X162021625Y-135291423D01*
X161868897Y-135250499D01*
X161710783Y-135250499D01*
X161703187Y-135250499D01*
X161703171Y-135250500D01*
X161089937Y-135250500D01*
X161022898Y-135230815D01*
X161002256Y-135214181D01*
X159825659Y-134037584D01*
X159792174Y-133976261D01*
X159789340Y-133949903D01*
X159789340Y-133509507D01*
X159798780Y-133462051D01*
X159799849Y-133459472D01*
X159814340Y-133349401D01*
X159814339Y-132987359D01*
X159834023Y-132920322D01*
X159886827Y-132874567D01*
X159955986Y-132864623D01*
X159978708Y-132875000D01*
X160288203Y-132875000D01*
X160288217Y-132874999D01*
X160398181Y-132860521D01*
X160398182Y-132860521D01*
X160535015Y-132803843D01*
X160652519Y-132713679D01*
X160742683Y-132596175D01*
X160799361Y-132459342D01*
X160799362Y-132459339D01*
X160804302Y-132421816D01*
X160832568Y-132357919D01*
X160890892Y-132319447D01*
X160927241Y-132314000D01*
X165676840Y-132314000D01*
X165743879Y-132333685D01*
G37*
%TD.AperFunction*%
%TA.AperFunction,Conductor*%
G36*
X151633173Y-136219913D02*
G01*
X151689107Y-136261784D01*
X151713524Y-136327249D01*
X151713840Y-136336094D01*
X151713840Y-136424970D01*
X151713841Y-136424987D01*
X151724334Y-136527697D01*
X151779481Y-136694119D01*
X151779483Y-136694124D01*
X151871524Y-136843345D01*
X151995494Y-136967315D01*
X152144715Y-137059356D01*
X152144722Y-137059359D01*
X152154614Y-137062637D01*
X152157229Y-137064448D01*
X152160402Y-137064715D01*
X152185765Y-137084204D01*
X152212060Y-137102409D01*
X152213281Y-137105348D01*
X152215804Y-137107286D01*
X152226599Y-137137381D01*
X152238883Y-137166925D01*
X152238321Y-137170058D01*
X152239396Y-137173052D01*
X152232205Y-137204215D01*
X152226568Y-137235701D01*
X152224189Y-137238961D01*
X152223688Y-137241133D01*
X152216652Y-137249290D01*
X152202183Y-137269120D01*
X152192268Y-137278788D01*
X152186975Y-137281919D01*
X152105166Y-137363727D01*
X152104603Y-137364277D01*
X152074358Y-137380301D01*
X152044389Y-137396666D01*
X152043238Y-137396789D01*
X152042864Y-137396988D01*
X152042039Y-137396918D01*
X152018031Y-137399500D01*
X151163340Y-137399500D01*
X151096301Y-137379815D01*
X151050546Y-137327011D01*
X151039340Y-137275500D01*
X151039340Y-136762596D01*
X151059025Y-136695557D01*
X151075654Y-136674920D01*
X151502162Y-136248411D01*
X151563482Y-136214929D01*
X151633173Y-136219913D01*
G37*
%TD.AperFunction*%
%TA.AperFunction,Conductor*%
G36*
X168795202Y-94014183D02*
G01*
X168831922Y-94073626D01*
X168836340Y-94106432D01*
X168836340Y-134651000D01*
X168816655Y-134718039D01*
X168763851Y-134763794D01*
X168730232Y-134771107D01*
X168726340Y-134775000D01*
X168726340Y-135876000D01*
X168706655Y-135943039D01*
X168653851Y-135988794D01*
X168602340Y-136000000D01*
X168350340Y-136000000D01*
X168283301Y-135980315D01*
X168237546Y-135927511D01*
X168226340Y-135876000D01*
X168226340Y-134775000D01*
X168088867Y-134775000D01*
X168088852Y-134775001D01*
X167986142Y-134785494D01*
X167819720Y-134840641D01*
X167819715Y-134840643D01*
X167670494Y-134932684D01*
X167546523Y-135056655D01*
X167546519Y-135056660D01*
X167544666Y-135059665D01*
X167542858Y-135061290D01*
X167542042Y-135062323D01*
X167541865Y-135062183D01*
X167492714Y-135106385D01*
X167423751Y-135117601D01*
X167359671Y-135089752D01*
X167333593Y-135059653D01*
X167333577Y-135059628D01*
X167331552Y-135056344D01*
X167207496Y-134932288D01*
X167060742Y-134841770D01*
X167014019Y-134789823D01*
X167001840Y-134736232D01*
X167001840Y-131579060D01*
X167001841Y-131579057D01*
X167001841Y-131420942D01*
X167001840Y-131420938D01*
X167001840Y-94324500D01*
X167021525Y-94257461D01*
X167074329Y-94211706D01*
X167125840Y-94200500D01*
X167359074Y-94200500D01*
X167426113Y-94220185D01*
X167427965Y-94221398D01*
X167559654Y-94309390D01*
X167559667Y-94309397D01*
X167705338Y-94369735D01*
X167705343Y-94369737D01*
X167845213Y-94397559D01*
X167859993Y-94400499D01*
X167859996Y-94400500D01*
X167859998Y-94400500D01*
X168017684Y-94400500D01*
X168017685Y-94400499D01*
X168172337Y-94369737D01*
X168318019Y-94309394D01*
X168449129Y-94221789D01*
X168560629Y-94110289D01*
X168609238Y-94037541D01*
X168662850Y-93992736D01*
X168732175Y-93984029D01*
X168795202Y-94014183D01*
G37*
%TD.AperFunction*%
%TA.AperFunction,Conductor*%
G36*
X156476782Y-132859938D02*
G01*
X156479368Y-132861009D01*
X156589439Y-132875500D01*
X156951479Y-132875499D01*
X157018517Y-132895183D01*
X157064272Y-132947987D01*
X157074216Y-133017146D01*
X157063840Y-133039865D01*
X157063840Y-133349377D01*
X157078318Y-133459341D01*
X157078319Y-133459345D01*
X157086066Y-133478048D01*
X157093535Y-133547517D01*
X157062259Y-133609996D01*
X157002170Y-133645648D01*
X156971505Y-133649500D01*
X156411669Y-133649500D01*
X156411653Y-133649499D01*
X156404057Y-133649499D01*
X156245943Y-133649499D01*
X156166010Y-133670917D01*
X156093216Y-133690422D01*
X156052315Y-133714037D01*
X156052314Y-133714036D01*
X155956287Y-133769477D01*
X155956282Y-133769481D01*
X155844478Y-133881286D01*
X154301748Y-135424014D01*
X154240425Y-135457499D01*
X154170733Y-135452515D01*
X154114800Y-135410643D01*
X154102396Y-135386885D01*
X154101248Y-135387421D01*
X154098196Y-135380875D01*
X154006155Y-135231654D01*
X153882184Y-135107683D01*
X153882181Y-135107681D01*
X153879179Y-135105829D01*
X153877553Y-135104021D01*
X153876517Y-135103202D01*
X153876657Y-135103024D01*
X153832457Y-135053880D01*
X153821237Y-134984917D01*
X153849083Y-134920836D01*
X153879184Y-134894754D01*
X153882496Y-134892712D01*
X154006552Y-134768656D01*
X154098654Y-134619334D01*
X154153839Y-134452797D01*
X154164340Y-134350009D01*
X154164339Y-133574992D01*
X154161532Y-133547517D01*
X154153839Y-133472203D01*
X154153838Y-133472200D01*
X154111794Y-133345320D01*
X154098654Y-133305666D01*
X154006552Y-133156344D01*
X153912389Y-133062181D01*
X153878904Y-133000858D01*
X153883888Y-132931166D01*
X153925760Y-132875233D01*
X153991224Y-132850816D01*
X154000070Y-132850500D01*
X156429332Y-132850500D01*
X156476782Y-132859938D01*
G37*
%TD.AperFunction*%
%TA.AperFunction,Conductor*%
G36*
X158471354Y-130984501D02*
G01*
X158471514Y-130983905D01*
X158479364Y-130986008D01*
X158479366Y-130986008D01*
X158479368Y-130986009D01*
X158589439Y-131000500D01*
X158788240Y-131000499D01*
X158800879Y-130998835D01*
X158869913Y-131009600D01*
X158922169Y-131055980D01*
X158941055Y-131123249D01*
X158940004Y-131137952D01*
X158938340Y-131150596D01*
X158938340Y-131349403D01*
X158952829Y-131459468D01*
X158954934Y-131467322D01*
X158951654Y-131468200D01*
X158957421Y-131522073D01*
X158954357Y-131532522D01*
X158954935Y-131532677D01*
X158952830Y-131540529D01*
X158938340Y-131650598D01*
X158938340Y-131849396D01*
X158940073Y-131862555D01*
X158929305Y-131931590D01*
X158912394Y-131958118D01*
X158785101Y-132110875D01*
X158779092Y-132114902D01*
X158765306Y-132129885D01*
X158764306Y-132130652D01*
X158743738Y-132138598D01*
X158727062Y-132149776D01*
X158714165Y-132150024D01*
X158699132Y-132155833D01*
X158674557Y-132150787D01*
X158657205Y-132151122D01*
X158647709Y-132145275D01*
X158630690Y-132141781D01*
X158613374Y-132130652D01*
X158612374Y-132129885D01*
X158603919Y-132118311D01*
X158597710Y-132114488D01*
X158591156Y-132100840D01*
X158571159Y-132073466D01*
X158563840Y-132031494D01*
X158563840Y-132003373D01*
X158479498Y-132014478D01*
X158471646Y-132016582D01*
X158470757Y-132013264D01*
X158416644Y-132018709D01*
X158406284Y-132015630D01*
X158406160Y-132016094D01*
X158398312Y-132013991D01*
X158288241Y-131999500D01*
X158089438Y-131999500D01*
X158076793Y-132001165D01*
X158007758Y-131990395D01*
X157955505Y-131944012D01*
X157936624Y-131876742D01*
X157937676Y-131862039D01*
X157939340Y-131849401D01*
X157939339Y-131650600D01*
X157937975Y-131640241D01*
X157934361Y-131612782D01*
X157924849Y-131540528D01*
X157924848Y-131540525D01*
X157922745Y-131532674D01*
X157926047Y-131531789D01*
X157920232Y-131478075D01*
X157923341Y-131467485D01*
X157922745Y-131467326D01*
X157924848Y-131459475D01*
X157924848Y-131459474D01*
X157924849Y-131459472D01*
X157939340Y-131349401D01*
X157939339Y-131150600D01*
X157939338Y-131150596D01*
X157937675Y-131137960D01*
X157948441Y-131068925D01*
X157994821Y-131016669D01*
X158062089Y-130997784D01*
X158076799Y-130998836D01*
X158077785Y-130998965D01*
X158089439Y-131000500D01*
X158288240Y-131000499D01*
X158288241Y-131000499D01*
X158308864Y-130997784D01*
X158398312Y-130986009D01*
X158398315Y-130986007D01*
X158406166Y-130983905D01*
X158407050Y-130987207D01*
X158460765Y-130981392D01*
X158471354Y-130984501D01*
G37*
%TD.AperFunction*%
%TA.AperFunction,Conductor*%
G36*
X153631879Y-129557185D02*
G01*
X153677634Y-129609989D01*
X153688840Y-129661500D01*
X153688840Y-130624999D01*
X153963812Y-130624999D01*
X153963826Y-130624998D01*
X154066537Y-130614505D01*
X154232959Y-130559358D01*
X154232964Y-130559356D01*
X154382185Y-130467315D01*
X154506155Y-130343345D01*
X154598196Y-130194124D01*
X154598199Y-130194117D01*
X154642217Y-130061277D01*
X154681989Y-130003832D01*
X154746504Y-129977008D01*
X154815280Y-129989322D01*
X154847604Y-130012599D01*
X155626020Y-130791015D01*
X155659505Y-130852338D01*
X155662339Y-130878696D01*
X155662339Y-131090554D01*
X155662338Y-131090554D01*
X155662339Y-131090557D01*
X155703263Y-131243285D01*
X155717657Y-131268216D01*
X155782320Y-131380216D01*
X155846812Y-131444708D01*
X155852538Y-131452584D01*
X155861145Y-131476684D01*
X155873408Y-131499142D01*
X155872700Y-131509038D01*
X155876038Y-131518384D01*
X155870249Y-131543310D01*
X155868424Y-131568834D01*
X155862477Y-131576777D01*
X155860233Y-131586442D01*
X155841887Y-131604281D01*
X155826552Y-131624767D01*
X155817255Y-131628234D01*
X155810142Y-131635152D01*
X155785064Y-131640241D01*
X155761088Y-131649184D01*
X155752242Y-131649500D01*
X153109777Y-131649500D01*
X153094428Y-131653613D01*
X153024578Y-131651947D01*
X152966717Y-131612782D01*
X152939216Y-131548552D01*
X152938340Y-131533837D01*
X152938340Y-130748999D01*
X152958025Y-130681960D01*
X153010829Y-130636205D01*
X153062340Y-130624999D01*
X153188840Y-130624999D01*
X153188840Y-129661500D01*
X153208525Y-129594461D01*
X153261329Y-129548706D01*
X153312840Y-129537500D01*
X153564840Y-129537500D01*
X153631879Y-129557185D01*
G37*
%TD.AperFunction*%
%TA.AperFunction,Conductor*%
G36*
X162205782Y-115620185D02*
G01*
X162226424Y-115636819D01*
X164604265Y-118014660D01*
X164637750Y-118075983D01*
X164638201Y-118078149D01*
X164669101Y-118233491D01*
X164669104Y-118233501D01*
X164729442Y-118379172D01*
X164729449Y-118379185D01*
X164817050Y-118510288D01*
X164817053Y-118510292D01*
X164928547Y-118621786D01*
X164928551Y-118621789D01*
X165059654Y-118709390D01*
X165059667Y-118709397D01*
X165205338Y-118769735D01*
X165205343Y-118769737D01*
X165358817Y-118800265D01*
X165359993Y-118800499D01*
X165359996Y-118800500D01*
X165359998Y-118800500D01*
X165517684Y-118800500D01*
X165583980Y-118787312D01*
X165652649Y-118773653D01*
X165722240Y-118779880D01*
X165777417Y-118822742D01*
X165800662Y-118888632D01*
X165800840Y-118895270D01*
X165800840Y-130989000D01*
X165781155Y-131056039D01*
X165728351Y-131101794D01*
X165676840Y-131113000D01*
X160920311Y-131113000D01*
X160853272Y-131093315D01*
X160807517Y-131040511D01*
X160797573Y-130971353D01*
X160799559Y-130961667D01*
X160799847Y-130959475D01*
X160799849Y-130959472D01*
X160814340Y-130849401D01*
X160814339Y-130712596D01*
X160834023Y-130645557D01*
X160850653Y-130624920D01*
X162238756Y-129236818D01*
X162300079Y-129203333D01*
X162326437Y-129200499D01*
X162838842Y-129200499D01*
X162838848Y-129200499D01*
X162941637Y-129189999D01*
X163108174Y-129134814D01*
X163257496Y-129042712D01*
X163351515Y-128948692D01*
X163412834Y-128915210D01*
X163482526Y-128920194D01*
X163526874Y-128948695D01*
X163620494Y-129042315D01*
X163769715Y-129134356D01*
X163769720Y-129134358D01*
X163936142Y-129189505D01*
X163936149Y-129189506D01*
X164038859Y-129199999D01*
X164188839Y-129199999D01*
X164688840Y-129199999D01*
X164838812Y-129199999D01*
X164838826Y-129199998D01*
X164941537Y-129189505D01*
X165107959Y-129134358D01*
X165107964Y-129134356D01*
X165257185Y-129042315D01*
X165381155Y-128918345D01*
X165473196Y-128769124D01*
X165473198Y-128769119D01*
X165528345Y-128602697D01*
X165528346Y-128602690D01*
X165538839Y-128499986D01*
X165538840Y-128499973D01*
X165538840Y-128250000D01*
X164688840Y-128250000D01*
X164688840Y-129199999D01*
X164188839Y-129199999D01*
X164188840Y-129199998D01*
X164188840Y-127750000D01*
X164688840Y-127750000D01*
X165538839Y-127750000D01*
X165538839Y-127500028D01*
X165538838Y-127500013D01*
X165528345Y-127397302D01*
X165473198Y-127230880D01*
X165473196Y-127230875D01*
X165381155Y-127081654D01*
X165257185Y-126957684D01*
X165107964Y-126865643D01*
X165107959Y-126865641D01*
X164941537Y-126810494D01*
X164941530Y-126810493D01*
X164838826Y-126800000D01*
X164688840Y-126800000D01*
X164688840Y-127750000D01*
X164188840Y-127750000D01*
X164188840Y-126800000D01*
X164038867Y-126800000D01*
X164038852Y-126800001D01*
X163936142Y-126810494D01*
X163769720Y-126865641D01*
X163769715Y-126865643D01*
X163620497Y-126957682D01*
X163526874Y-127051305D01*
X163465550Y-127084789D01*
X163395859Y-127079805D01*
X163351512Y-127051304D01*
X163257497Y-126957289D01*
X163257496Y-126957288D01*
X163139688Y-126884624D01*
X163108176Y-126865187D01*
X163108171Y-126865185D01*
X163098559Y-126862000D01*
X162941637Y-126810001D01*
X162941635Y-126810000D01*
X162838850Y-126799500D01*
X162038838Y-126799500D01*
X162038820Y-126799501D01*
X161936043Y-126810000D01*
X161936040Y-126810001D01*
X161769508Y-126865185D01*
X161769492Y-126865193D01*
X161767876Y-126866190D01*
X161766614Y-126866535D01*
X161762958Y-126868240D01*
X161762666Y-126867614D01*
X161700482Y-126884624D01*
X161633820Y-126863694D01*
X161589056Y-126810048D01*
X161580402Y-126740716D01*
X161610605Y-126677712D01*
X161615086Y-126672987D01*
X162051256Y-126236817D01*
X162112579Y-126203333D01*
X162138937Y-126200499D01*
X162838842Y-126200499D01*
X162838848Y-126200499D01*
X162941637Y-126189999D01*
X163108174Y-126134814D01*
X163257496Y-126042712D01*
X163351515Y-125948692D01*
X163412834Y-125915210D01*
X163482526Y-125920194D01*
X163526874Y-125948695D01*
X163620494Y-126042315D01*
X163769715Y-126134356D01*
X163769720Y-126134358D01*
X163936142Y-126189505D01*
X163936149Y-126189506D01*
X164038859Y-126199999D01*
X164188839Y-126199999D01*
X164688840Y-126199999D01*
X164838812Y-126199999D01*
X164838826Y-126199998D01*
X164941537Y-126189505D01*
X165107959Y-126134358D01*
X165107964Y-126134356D01*
X165257185Y-126042315D01*
X165381155Y-125918345D01*
X165473196Y-125769124D01*
X165473198Y-125769119D01*
X165528345Y-125602697D01*
X165528346Y-125602690D01*
X165538839Y-125499986D01*
X165538840Y-125499973D01*
X165538840Y-125250000D01*
X164688840Y-125250000D01*
X164688840Y-126199999D01*
X164188839Y-126199999D01*
X164188840Y-126199998D01*
X164188840Y-124750000D01*
X164688840Y-124750000D01*
X165538839Y-124750000D01*
X165538839Y-124500028D01*
X165538838Y-124500013D01*
X165528345Y-124397302D01*
X165473198Y-124230880D01*
X165473196Y-124230875D01*
X165381155Y-124081654D01*
X165257185Y-123957684D01*
X165107964Y-123865643D01*
X165107959Y-123865641D01*
X164941537Y-123810494D01*
X164941530Y-123810493D01*
X164838826Y-123800000D01*
X164688840Y-123800000D01*
X164688840Y-124750000D01*
X164188840Y-124750000D01*
X164188840Y-123800000D01*
X164038867Y-123800000D01*
X164038852Y-123800001D01*
X163936142Y-123810494D01*
X163769720Y-123865641D01*
X163769715Y-123865643D01*
X163620497Y-123957682D01*
X163526874Y-124051305D01*
X163465550Y-124084789D01*
X163395859Y-124079805D01*
X163351512Y-124051304D01*
X163257497Y-123957289D01*
X163257496Y-123957288D01*
X163108174Y-123865186D01*
X162941637Y-123810001D01*
X162941635Y-123810000D01*
X162838850Y-123799500D01*
X162038838Y-123799500D01*
X162038820Y-123799501D01*
X161936043Y-123810000D01*
X161936040Y-123810001D01*
X161769508Y-123865185D01*
X161769503Y-123865187D01*
X161620182Y-123957289D01*
X161496129Y-124081342D01*
X161404027Y-124230663D01*
X161404025Y-124230668D01*
X161403955Y-124230880D01*
X161348841Y-124397203D01*
X161348841Y-124397204D01*
X161348840Y-124397204D01*
X161338340Y-124499983D01*
X161338340Y-125199902D01*
X161318655Y-125266941D01*
X161302021Y-125287583D01*
X158708321Y-127881282D01*
X158708319Y-127881285D01*
X158686833Y-127918500D01*
X158665347Y-127955716D01*
X158629263Y-128018215D01*
X158588339Y-128170943D01*
X158588339Y-128170945D01*
X158588339Y-128339046D01*
X158588340Y-128339059D01*
X158588340Y-129015899D01*
X158579769Y-129045085D01*
X158573429Y-129074854D01*
X158570018Y-129078294D01*
X158568655Y-129082938D01*
X158545669Y-129102855D01*
X158524238Y-129124473D01*
X158518571Y-129126335D01*
X158515851Y-129128693D01*
X158491223Y-129136950D01*
X158485911Y-129138129D01*
X158479368Y-129138991D01*
X158476288Y-129140266D01*
X158465723Y-129142613D01*
X158441204Y-129140965D01*
X158416767Y-129143582D01*
X158406319Y-129140510D01*
X158406163Y-129141095D01*
X158398308Y-129138990D01*
X158397144Y-129138837D01*
X158396235Y-129138434D01*
X158390462Y-129136888D01*
X158390703Y-129135987D01*
X158333250Y-129110565D01*
X158294784Y-129052237D01*
X158289340Y-129015899D01*
X158289340Y-123752900D01*
X158289341Y-123752887D01*
X158289341Y-123584784D01*
X158284828Y-123567941D01*
X158248417Y-123432056D01*
X158185159Y-123322489D01*
X158169364Y-123295130D01*
X158169358Y-123295122D01*
X154880590Y-120006355D01*
X154880588Y-120006352D01*
X154761717Y-119887481D01*
X154761709Y-119887475D01*
X154646727Y-119821091D01*
X154646727Y-119821090D01*
X154646722Y-119821089D01*
X154639067Y-119816669D01*
X154624786Y-119808423D01*
X154586603Y-119798192D01*
X154472057Y-119767499D01*
X154338340Y-119767499D01*
X154271301Y-119747814D01*
X154225546Y-119695010D01*
X154214340Y-119643499D01*
X154214339Y-118478901D01*
X154208271Y-118412117D01*
X154208268Y-118412106D01*
X154160371Y-118258398D01*
X154144282Y-118231784D01*
X154077076Y-118120612D01*
X154077074Y-118120610D01*
X154077073Y-118120608D01*
X154025659Y-118069194D01*
X153992174Y-118007871D01*
X153989340Y-117981513D01*
X153989340Y-116297016D01*
X154009025Y-116229977D01*
X154061829Y-116184222D01*
X154074328Y-116179313D01*
X154133174Y-116159814D01*
X154282496Y-116067712D01*
X154406552Y-115943656D01*
X154498654Y-115794334D01*
X154534719Y-115685494D01*
X154574492Y-115628051D01*
X154639007Y-115601228D01*
X154652425Y-115600500D01*
X162138743Y-115600500D01*
X162205782Y-115620185D01*
G37*
%TD.AperFunction*%
%TA.AperFunction,Conductor*%
G36*
X154419542Y-121244223D02*
G01*
X154426020Y-121250255D01*
X155381854Y-122206089D01*
X155415339Y-122267412D01*
X155410355Y-122337104D01*
X155368483Y-122393037D01*
X155333178Y-122411476D01*
X155169718Y-122465642D01*
X155169715Y-122465643D01*
X155020494Y-122557684D01*
X154896524Y-122681654D01*
X154804483Y-122830875D01*
X154804481Y-122830880D01*
X154749334Y-122997302D01*
X154749333Y-122997309D01*
X154738840Y-123100013D01*
X154738840Y-123250000D01*
X155814840Y-123250000D01*
X155881879Y-123269685D01*
X155927634Y-123322489D01*
X155938840Y-123374000D01*
X155938840Y-123626000D01*
X155919155Y-123693039D01*
X155866351Y-123738794D01*
X155814840Y-123750000D01*
X154738841Y-123750000D01*
X154738841Y-123899986D01*
X154749334Y-124002697D01*
X154804481Y-124169119D01*
X154804483Y-124169124D01*
X154896524Y-124318345D01*
X154990144Y-124411965D01*
X155023629Y-124473288D01*
X155018645Y-124542980D01*
X154990145Y-124587327D01*
X154896127Y-124681345D01*
X154804027Y-124830663D01*
X154804026Y-124830666D01*
X154748841Y-124997203D01*
X154748841Y-124997204D01*
X154748840Y-124997204D01*
X154738340Y-125099983D01*
X154738340Y-125900001D01*
X154738341Y-125900019D01*
X154748840Y-126002796D01*
X154748841Y-126002799D01*
X154804025Y-126169331D01*
X154804027Y-126169336D01*
X154822940Y-126199999D01*
X154896128Y-126318656D01*
X155020184Y-126442712D01*
X155169506Y-126534814D01*
X155253345Y-126562595D01*
X155310788Y-126602366D01*
X155337612Y-126666882D01*
X155338340Y-126680300D01*
X155338340Y-128505503D01*
X155318655Y-128572542D01*
X155265851Y-128618297D01*
X155196693Y-128628241D01*
X155133137Y-128599216D01*
X155126659Y-128593184D01*
X154666215Y-128132740D01*
X154632730Y-128071417D01*
X154636189Y-128006057D01*
X154653839Y-127952797D01*
X154664340Y-127850009D01*
X154664339Y-127074992D01*
X154661919Y-127051305D01*
X154653839Y-126972203D01*
X154653838Y-126972200D01*
X154619389Y-126868240D01*
X154598654Y-126805666D01*
X154506552Y-126656344D01*
X154382496Y-126532288D01*
X154289728Y-126475069D01*
X154233176Y-126440187D01*
X154233175Y-126440186D01*
X154233174Y-126440186D01*
X154172141Y-126419961D01*
X154124335Y-126404120D01*
X154066890Y-126364347D01*
X154040068Y-126299831D01*
X154039340Y-126286414D01*
X154039340Y-122968486D01*
X154059025Y-122901447D01*
X154075660Y-122880803D01*
X154077076Y-122879388D01*
X154160371Y-122741602D01*
X154208270Y-122587887D01*
X154214340Y-122521091D01*
X154214339Y-121337935D01*
X154234024Y-121270897D01*
X154286827Y-121225142D01*
X154355986Y-121215198D01*
X154419542Y-121244223D01*
G37*
%TD.AperFunction*%
%TA.AperFunction,Conductor*%
G36*
X152506379Y-121869685D02*
G01*
X152552134Y-121922489D01*
X152563340Y-121974000D01*
X152563340Y-122521098D01*
X152569408Y-122587882D01*
X152569411Y-122587893D01*
X152617307Y-122741598D01*
X152617308Y-122741600D01*
X152617309Y-122741602D01*
X152670957Y-122830347D01*
X152688840Y-122894495D01*
X152688840Y-123126913D01*
X152703119Y-123125617D01*
X152771665Y-123139154D01*
X152822010Y-123187601D01*
X152838340Y-123249108D01*
X152838340Y-125713403D01*
X152818655Y-125780442D01*
X152765851Y-125826197D01*
X152696693Y-125836141D01*
X152633137Y-125807116D01*
X152626659Y-125801084D01*
X152125659Y-125300084D01*
X152092174Y-125238761D01*
X152089340Y-125212403D01*
X152089340Y-123253651D01*
X152109025Y-123186612D01*
X152161829Y-123140857D01*
X152176269Y-123138394D01*
X152188840Y-123126914D01*
X152188840Y-122894495D01*
X152206722Y-122830347D01*
X152260371Y-122741602D01*
X152308270Y-122587887D01*
X152314340Y-122521091D01*
X152314339Y-121973998D01*
X152316889Y-121965313D01*
X152315601Y-121956353D01*
X152326578Y-121932316D01*
X152334023Y-121906961D01*
X152340865Y-121901032D01*
X152344626Y-121892797D01*
X152366857Y-121878510D01*
X152386827Y-121861206D01*
X152397342Y-121858918D01*
X152403404Y-121855023D01*
X152438339Y-121850000D01*
X152439340Y-121850000D01*
X152506379Y-121869685D01*
G37*
%TD.AperFunction*%
%TA.AperFunction,Conductor*%
G36*
X147309194Y-95620185D02*
G01*
X147354949Y-95672989D01*
X147364893Y-95742147D01*
X147359862Y-95763497D01*
X147323841Y-95872203D01*
X147323841Y-95872204D01*
X147323840Y-95872204D01*
X147313340Y-95974983D01*
X147313340Y-97025001D01*
X147313341Y-97025019D01*
X147323840Y-97127796D01*
X147323841Y-97127799D01*
X147358299Y-97231785D01*
X147379026Y-97294334D01*
X147471128Y-97443656D01*
X147595184Y-97567712D01*
X147744506Y-97659814D01*
X147911043Y-97714999D01*
X148013831Y-97725500D01*
X148788848Y-97725499D01*
X148788856Y-97725498D01*
X148788859Y-97725498D01*
X148845142Y-97719748D01*
X148891637Y-97714999D01*
X149058174Y-97659814D01*
X149207496Y-97567712D01*
X149331552Y-97443656D01*
X149333301Y-97440819D01*
X149335009Y-97439283D01*
X149336033Y-97437989D01*
X149336254Y-97438163D01*
X149385246Y-97394096D01*
X149454208Y-97382872D01*
X149518291Y-97410713D01*
X149544377Y-97440817D01*
X149546128Y-97443656D01*
X149670184Y-97567712D01*
X149819506Y-97659814D01*
X149819511Y-97659815D01*
X149819514Y-97659817D01*
X149830583Y-97663485D01*
X149888028Y-97703258D01*
X149903958Y-97728781D01*
X149908545Y-97738618D01*
X149916763Y-97769285D01*
X149945700Y-97819404D01*
X149948403Y-97824086D01*
X149948405Y-97824090D01*
X149995819Y-97906214D01*
X149995821Y-97906217D01*
X150114689Y-98025085D01*
X150114695Y-98025090D01*
X152202021Y-100112416D01*
X152235506Y-100173739D01*
X152238340Y-100200097D01*
X152238340Y-100900001D01*
X152238341Y-100900019D01*
X152248840Y-101002796D01*
X152248841Y-101002799D01*
X152304025Y-101169331D01*
X152304026Y-101169334D01*
X152396128Y-101318656D01*
X152520184Y-101442712D01*
X152669506Y-101534814D01*
X152753345Y-101562595D01*
X152810788Y-101602366D01*
X152837612Y-101666882D01*
X152838340Y-101680300D01*
X152838340Y-103726232D01*
X152818655Y-103793271D01*
X152779438Y-103831769D01*
X152683763Y-103890781D01*
X152632682Y-103922289D01*
X152508628Y-104046343D01*
X152508623Y-104046349D01*
X152506581Y-104049661D01*
X152504587Y-104051453D01*
X152504147Y-104052011D01*
X152504051Y-104051935D01*
X152454631Y-104096383D01*
X152385668Y-104107602D01*
X152321587Y-104079755D01*
X152295508Y-104049656D01*
X152293659Y-104046659D01*
X152293656Y-104046655D01*
X152169685Y-103922684D01*
X152020464Y-103830643D01*
X152020459Y-103830641D01*
X151854037Y-103775494D01*
X151854030Y-103775493D01*
X151751326Y-103765000D01*
X151613840Y-103765000D01*
X151613840Y-106214999D01*
X151751312Y-106214999D01*
X151751326Y-106214998D01*
X151854037Y-106204505D01*
X152020459Y-106149358D01*
X152020464Y-106149356D01*
X152169685Y-106057315D01*
X152293658Y-105933342D01*
X152295505Y-105930348D01*
X152297309Y-105928724D01*
X152298138Y-105927677D01*
X152298316Y-105927818D01*
X152347450Y-105883621D01*
X152416413Y-105872396D01*
X152480496Y-105900236D01*
X152506583Y-105930341D01*
X152508628Y-105933656D01*
X152632684Y-106057712D01*
X152779437Y-106148229D01*
X152826161Y-106200175D01*
X152838340Y-106253767D01*
X152838340Y-106736232D01*
X152818655Y-106803271D01*
X152779438Y-106841769D01*
X152750187Y-106859812D01*
X152632682Y-106932289D01*
X152508628Y-107056343D01*
X152508623Y-107056349D01*
X152506581Y-107059661D01*
X152504587Y-107061453D01*
X152504147Y-107062011D01*
X152504051Y-107061935D01*
X152454631Y-107106383D01*
X152385668Y-107117602D01*
X152321587Y-107089755D01*
X152295508Y-107059656D01*
X152293659Y-107056659D01*
X152293656Y-107056655D01*
X152169685Y-106932684D01*
X152020464Y-106840643D01*
X152020459Y-106840641D01*
X151854037Y-106785494D01*
X151854030Y-106785493D01*
X151751326Y-106775000D01*
X151613840Y-106775000D01*
X151613840Y-109224999D01*
X151751312Y-109224999D01*
X151751326Y-109224998D01*
X151854037Y-109214505D01*
X152020459Y-109159358D01*
X152020464Y-109159356D01*
X152169685Y-109067315D01*
X152293658Y-108943342D01*
X152295505Y-108940348D01*
X152297309Y-108938724D01*
X152298138Y-108937677D01*
X152298316Y-108937818D01*
X152347450Y-108893621D01*
X152416413Y-108882396D01*
X152480496Y-108910236D01*
X152506583Y-108940341D01*
X152508628Y-108943656D01*
X152632684Y-109067712D01*
X152782006Y-109159814D01*
X152790838Y-109162740D01*
X152848284Y-109202508D01*
X152875111Y-109267022D01*
X152875840Y-109280448D01*
X152875840Y-113736232D01*
X152856155Y-113803271D01*
X152816938Y-113841769D01*
X152756288Y-113879179D01*
X152670182Y-113932289D01*
X152546128Y-114056343D01*
X152546123Y-114056349D01*
X152544081Y-114059661D01*
X152542087Y-114061453D01*
X152541647Y-114062011D01*
X152541551Y-114061935D01*
X152492131Y-114106383D01*
X152423168Y-114117602D01*
X152359087Y-114089755D01*
X152333008Y-114059656D01*
X152331159Y-114056659D01*
X152331156Y-114056655D01*
X152207185Y-113932684D01*
X152057964Y-113840643D01*
X152057959Y-113840641D01*
X151891537Y-113785494D01*
X151891530Y-113785493D01*
X151788826Y-113775000D01*
X151651340Y-113775000D01*
X151651340Y-116224999D01*
X151788812Y-116224999D01*
X151788826Y-116224998D01*
X151891537Y-116214505D01*
X152057959Y-116159358D01*
X152057964Y-116159356D01*
X152207185Y-116067315D01*
X152331158Y-115943342D01*
X152333005Y-115940348D01*
X152334809Y-115938724D01*
X152335638Y-115937677D01*
X152335816Y-115937818D01*
X152384950Y-115893621D01*
X152453913Y-115882396D01*
X152517996Y-115910236D01*
X152544083Y-115940341D01*
X152546128Y-115943656D01*
X152670184Y-116067712D01*
X152729436Y-116104258D01*
X152776161Y-116156204D01*
X152788340Y-116209797D01*
X152788340Y-117981513D01*
X152768655Y-118048552D01*
X152752021Y-118069194D01*
X152700607Y-118120607D01*
X152700606Y-118120608D01*
X152617309Y-118258397D01*
X152569409Y-118412116D01*
X152563340Y-118478911D01*
X152563341Y-119643500D01*
X152560790Y-119652185D01*
X152562079Y-119661147D01*
X152551100Y-119685187D01*
X152543656Y-119710539D01*
X152536815Y-119716466D01*
X152533054Y-119724703D01*
X152510821Y-119738990D01*
X152490853Y-119756294D01*
X152480337Y-119758581D01*
X152474276Y-119762477D01*
X152439341Y-119767500D01*
X152438340Y-119767500D01*
X152371301Y-119747815D01*
X152325546Y-119695011D01*
X152314340Y-119643500D01*
X152314339Y-118478901D01*
X152308271Y-118412117D01*
X152308268Y-118412106D01*
X152260371Y-118258398D01*
X152244282Y-118231784D01*
X152177076Y-118120612D01*
X152177074Y-118120610D01*
X152177073Y-118120608D01*
X152063231Y-118006766D01*
X151925442Y-117923469D01*
X151917336Y-117920943D01*
X151771727Y-117875570D01*
X151771725Y-117875569D01*
X151771723Y-117875569D01*
X151724957Y-117871319D01*
X151704931Y-117869500D01*
X151704928Y-117869500D01*
X151272741Y-117869500D01*
X151205957Y-117875568D01*
X151205946Y-117875571D01*
X151052241Y-117923467D01*
X150914448Y-118006766D01*
X150800607Y-118120607D01*
X150800604Y-118120611D01*
X150769456Y-118172136D01*
X150717928Y-118219323D01*
X150649068Y-118231161D01*
X150584740Y-118203891D01*
X150545367Y-118146172D01*
X150539340Y-118107985D01*
X150539340Y-116254854D01*
X150559025Y-116187815D01*
X150611829Y-116142060D01*
X150680987Y-116132116D01*
X150728438Y-116149316D01*
X150744713Y-116159355D01*
X150744720Y-116159358D01*
X150911142Y-116214505D01*
X150911149Y-116214506D01*
X151013859Y-116224999D01*
X151151339Y-116224999D01*
X151151340Y-116224998D01*
X151151340Y-113775000D01*
X151013867Y-113775000D01*
X151013852Y-113775001D01*
X150911142Y-113785494D01*
X150744720Y-113840641D01*
X150744708Y-113840647D01*
X150728434Y-113850685D01*
X150661042Y-113869124D01*
X150594378Y-113848200D01*
X150549610Y-113794557D01*
X150539340Y-113745145D01*
X150539340Y-109275448D01*
X150559025Y-109208409D01*
X150611829Y-109162654D01*
X150680987Y-109152710D01*
X150702344Y-109157742D01*
X150873642Y-109214505D01*
X150873649Y-109214506D01*
X150976359Y-109224999D01*
X151113839Y-109224999D01*
X151113840Y-109224998D01*
X151113840Y-106775000D01*
X150976367Y-106775000D01*
X150976352Y-106775001D01*
X150873642Y-106785494D01*
X150702344Y-106842257D01*
X150632516Y-106844659D01*
X150572474Y-106808927D01*
X150541281Y-106746407D01*
X150539340Y-106724551D01*
X150539340Y-106265448D01*
X150559025Y-106198409D01*
X150611829Y-106152654D01*
X150680987Y-106142710D01*
X150702344Y-106147742D01*
X150873642Y-106204505D01*
X150873649Y-106204506D01*
X150976359Y-106214999D01*
X151113839Y-106214999D01*
X151113840Y-106214998D01*
X151113840Y-103765000D01*
X150976367Y-103765000D01*
X150976352Y-103765001D01*
X150873642Y-103775494D01*
X150702344Y-103832257D01*
X150632516Y-103834659D01*
X150572474Y-103798927D01*
X150541281Y-103736407D01*
X150539340Y-103714551D01*
X150539340Y-101079765D01*
X150559025Y-101012726D01*
X150560238Y-101010874D01*
X150648230Y-100879185D01*
X150648230Y-100879184D01*
X150648234Y-100879179D01*
X150653244Y-100867085D01*
X150708575Y-100733501D01*
X150708577Y-100733497D01*
X150739340Y-100578842D01*
X150739340Y-100421158D01*
X150739340Y-100421155D01*
X150739339Y-100421153D01*
X150708578Y-100266510D01*
X150708577Y-100266503D01*
X150684087Y-100207379D01*
X150648237Y-100120827D01*
X150648230Y-100120814D01*
X150560629Y-99989711D01*
X150560626Y-99989707D01*
X150449132Y-99878213D01*
X150449128Y-99878210D01*
X150318025Y-99790609D01*
X150318012Y-99790602D01*
X150172341Y-99730264D01*
X150172329Y-99730261D01*
X150017685Y-99699500D01*
X150017682Y-99699500D01*
X149859998Y-99699500D01*
X149859995Y-99699500D01*
X149705350Y-99730261D01*
X149705338Y-99730264D01*
X149559667Y-99790602D01*
X149559654Y-99790609D01*
X149428551Y-99878210D01*
X149428547Y-99878213D01*
X149317053Y-99989707D01*
X149317050Y-99989711D01*
X149229449Y-100120814D01*
X149229442Y-100120827D01*
X149169104Y-100266498D01*
X149169101Y-100266510D01*
X149138340Y-100421153D01*
X149138340Y-100578846D01*
X149169101Y-100733489D01*
X149169104Y-100733501D01*
X149229442Y-100879172D01*
X149229449Y-100879185D01*
X149317442Y-101010874D01*
X149338320Y-101077551D01*
X149338340Y-101079765D01*
X149338340Y-107113444D01*
X149318655Y-107180483D01*
X149265851Y-107226238D01*
X149196693Y-107236182D01*
X149178415Y-107231202D01*
X149178164Y-107232031D01*
X149172340Y-107230264D01*
X149172337Y-107230263D01*
X149172332Y-107230262D01*
X149172329Y-107230261D01*
X149017685Y-107199500D01*
X149017682Y-107199500D01*
X148859998Y-107199500D01*
X148859995Y-107199500D01*
X148705350Y-107230261D01*
X148705338Y-107230264D01*
X148559667Y-107290602D01*
X148559654Y-107290609D01*
X148428551Y-107378210D01*
X148428547Y-107378213D01*
X148317053Y-107489707D01*
X148317050Y-107489711D01*
X148229449Y-107620814D01*
X148229442Y-107620827D01*
X148169104Y-107766498D01*
X148169101Y-107766510D01*
X148138340Y-107921153D01*
X148138340Y-108078846D01*
X148169101Y-108233489D01*
X148169104Y-108233501D01*
X148229442Y-108379172D01*
X148229449Y-108379185D01*
X148317442Y-108510874D01*
X148323092Y-108528920D01*
X148333317Y-108544830D01*
X148337768Y-108575789D01*
X148338320Y-108577551D01*
X148338340Y-108579765D01*
X148338340Y-108699901D01*
X148318655Y-108766940D01*
X148302021Y-108787582D01*
X148063054Y-109026548D01*
X148063055Y-109026549D01*
X147958318Y-109131286D01*
X147909989Y-109214997D01*
X147909988Y-109214998D01*
X147879263Y-109268214D01*
X147879263Y-109268215D01*
X147838339Y-109420943D01*
X147838339Y-109420945D01*
X147838339Y-109589046D01*
X147838340Y-109589059D01*
X147838340Y-113996560D01*
X147818655Y-114063599D01*
X147765851Y-114109354D01*
X147696693Y-114119298D01*
X147633137Y-114090273D01*
X147611238Y-114065451D01*
X147560629Y-113989711D01*
X147560626Y-113989707D01*
X147449132Y-113878213D01*
X147449128Y-113878210D01*
X147318025Y-113790609D01*
X147318012Y-113790602D01*
X147172341Y-113730264D01*
X147172329Y-113730261D01*
X147017685Y-113699500D01*
X147017682Y-113699500D01*
X146859998Y-113699500D01*
X146859995Y-113699500D01*
X146705350Y-113730261D01*
X146705338Y-113730264D01*
X146559667Y-113790602D01*
X146559654Y-113790609D01*
X146428551Y-113878210D01*
X146428547Y-113878213D01*
X146317053Y-113989707D01*
X146317050Y-113989711D01*
X146229449Y-114120814D01*
X146229442Y-114120827D01*
X146169104Y-114266498D01*
X146169101Y-114266510D01*
X146138340Y-114421153D01*
X146138340Y-114578846D01*
X146169101Y-114733489D01*
X146169104Y-114733501D01*
X146229442Y-114879172D01*
X146229449Y-114879185D01*
X146317442Y-115010874D01*
X146338320Y-115077551D01*
X146338340Y-115079765D01*
X146338340Y-119199902D01*
X146318655Y-119266941D01*
X146302021Y-119287583D01*
X143208321Y-122381282D01*
X143208319Y-122381285D01*
X143163119Y-122459576D01*
X143163117Y-122459578D01*
X143129265Y-122518209D01*
X143129264Y-122518210D01*
X143128492Y-122521091D01*
X143088339Y-122670943D01*
X143088339Y-122670945D01*
X143088339Y-122839046D01*
X143088340Y-122839059D01*
X143088340Y-124877648D01*
X143087693Y-124879850D01*
X143088261Y-124882075D01*
X143077898Y-124913208D01*
X143068655Y-124944687D01*
X143066920Y-124946190D01*
X143066195Y-124948369D01*
X143040638Y-124968963D01*
X143015851Y-124990442D01*
X143013021Y-124991218D01*
X143011791Y-124992210D01*
X142977597Y-125000937D01*
X142977593Y-125000938D01*
X142952095Y-125003679D01*
X142925588Y-125003679D01*
X142886714Y-124999500D01*
X142490970Y-124999500D01*
X142490959Y-124999501D01*
X142452093Y-125003679D01*
X142425588Y-125003679D01*
X142386714Y-124999500D01*
X141990970Y-124999500D01*
X141990959Y-124999501D01*
X141952093Y-125003679D01*
X141925588Y-125003679D01*
X141886714Y-124999500D01*
X141490972Y-124999500D01*
X141490952Y-124999502D01*
X141475588Y-125001153D01*
X141406829Y-124988744D01*
X141355695Y-124941130D01*
X141338340Y-124877863D01*
X141338340Y-120001096D01*
X141358025Y-119934057D01*
X141374654Y-119913420D01*
X142797346Y-118490727D01*
X142797351Y-118490724D01*
X142807554Y-118480520D01*
X142807556Y-118480520D01*
X142919360Y-118368716D01*
X142983052Y-118258398D01*
X142998417Y-118231785D01*
X143039340Y-118079058D01*
X143039340Y-117920943D01*
X143039340Y-98089060D01*
X143039341Y-98089047D01*
X143039341Y-97920944D01*
X143033863Y-97900499D01*
X142998417Y-97768216D01*
X142977384Y-97731785D01*
X142919364Y-97631290D01*
X142919358Y-97631282D01*
X142075659Y-96787583D01*
X142042174Y-96726260D01*
X142039340Y-96699902D01*
X142039340Y-95886555D01*
X142059025Y-95819516D01*
X142111829Y-95773761D01*
X142180987Y-95763817D01*
X142199251Y-95768840D01*
X142199516Y-95767969D01*
X142205332Y-95769732D01*
X142205343Y-95769737D01*
X142359993Y-95800499D01*
X142359996Y-95800500D01*
X142359998Y-95800500D01*
X142517684Y-95800500D01*
X142517685Y-95800499D01*
X142672337Y-95769737D01*
X142818019Y-95709394D01*
X142823603Y-95705663D01*
X142949715Y-95621398D01*
X143016393Y-95600520D01*
X143018606Y-95600500D01*
X147242155Y-95600500D01*
X147309194Y-95620185D01*
G37*
%TD.AperFunction*%
%TA.AperFunction,Conductor*%
G36*
X165743879Y-94620185D02*
G01*
X165789634Y-94672989D01*
X165800840Y-94724500D01*
X165800840Y-117104729D01*
X165794904Y-117124942D01*
X165793777Y-117145982D01*
X165785257Y-117157796D01*
X165781155Y-117171768D01*
X165765234Y-117185563D01*
X165752910Y-117202654D01*
X165739356Y-117207986D01*
X165728351Y-117217523D01*
X165707496Y-117220521D01*
X165687892Y-117228235D01*
X165663095Y-117226905D01*
X165659193Y-117227467D01*
X165652649Y-117226346D01*
X165516992Y-117199362D01*
X165455081Y-117166977D01*
X165453502Y-117165426D01*
X162926430Y-114638355D01*
X162926428Y-114638352D01*
X162807557Y-114519481D01*
X162807556Y-114519480D01*
X162720744Y-114469360D01*
X162720744Y-114469359D01*
X162720740Y-114469358D01*
X162670625Y-114440423D01*
X162517897Y-114399499D01*
X162359783Y-114399499D01*
X162352187Y-114399499D01*
X162352171Y-114399500D01*
X154652425Y-114399500D01*
X154585386Y-114379815D01*
X154539631Y-114327011D01*
X154534719Y-114314504D01*
X154498654Y-114205666D01*
X154406552Y-114056344D01*
X154282496Y-113932288D01*
X154135742Y-113841770D01*
X154089019Y-113789823D01*
X154076840Y-113736232D01*
X154076840Y-109240638D01*
X154096525Y-109173599D01*
X154135741Y-109135100D01*
X154244996Y-109067712D01*
X154369052Y-108943656D01*
X154461154Y-108794334D01*
X154516339Y-108627797D01*
X154526840Y-108525009D01*
X154526839Y-107474992D01*
X154516339Y-107372203D01*
X154461154Y-107205666D01*
X154369052Y-107056344D01*
X154244996Y-106932288D01*
X154098242Y-106841770D01*
X154051519Y-106789823D01*
X154039340Y-106736232D01*
X154039340Y-106253767D01*
X154059025Y-106186728D01*
X154098241Y-106148230D01*
X154244996Y-106057712D01*
X154369052Y-105933656D01*
X154461154Y-105784334D01*
X154516339Y-105617797D01*
X154526840Y-105515009D01*
X154526839Y-104980521D01*
X154526839Y-104464998D01*
X154526838Y-104464980D01*
X154516339Y-104362203D01*
X154516338Y-104362200D01*
X154481011Y-104255591D01*
X154461154Y-104195666D01*
X154369052Y-104046344D01*
X154244996Y-103922288D01*
X154098242Y-103831770D01*
X154051519Y-103779823D01*
X154039340Y-103726232D01*
X154039340Y-101680300D01*
X154059025Y-101613261D01*
X154111829Y-101567506D01*
X154124322Y-101562599D01*
X154208174Y-101534814D01*
X154357496Y-101442712D01*
X154481552Y-101318656D01*
X154488999Y-101306582D01*
X159038841Y-101306582D01*
X159045248Y-101377102D01*
X159045249Y-101377107D01*
X159095821Y-101539396D01*
X159183767Y-101684877D01*
X159303962Y-101805072D01*
X159449444Y-101893019D01*
X159449443Y-101893019D01*
X159611734Y-101943590D01*
X159611733Y-101943590D01*
X159682248Y-101949998D01*
X159682266Y-101949999D01*
X159688839Y-101949998D01*
X159688840Y-101949998D01*
X159688840Y-100750000D01*
X159038841Y-100750000D01*
X159038841Y-101306582D01*
X154488999Y-101306582D01*
X154573654Y-101169334D01*
X154628839Y-101002797D01*
X154639340Y-100900009D01*
X154639339Y-100457190D01*
X154639339Y-100200097D01*
X154659023Y-100133058D01*
X154675653Y-100112421D01*
X157876659Y-96911416D01*
X157937982Y-96877931D01*
X158007674Y-96882915D01*
X158063607Y-96924787D01*
X158088024Y-96990251D01*
X158088340Y-96999097D01*
X158088340Y-98306613D01*
X158094753Y-98377192D01*
X158094753Y-98377194D01*
X158094754Y-98377196D01*
X158117523Y-98450265D01*
X158145362Y-98539606D01*
X158233370Y-98685188D01*
X158353651Y-98805469D01*
X158353653Y-98805470D01*
X158353655Y-98805472D01*
X158499234Y-98893478D01*
X158661644Y-98944086D01*
X158732224Y-98950500D01*
X158732227Y-98950500D01*
X159245444Y-98950500D01*
X159245456Y-98950500D01*
X159254456Y-98949682D01*
X159322997Y-98963214D01*
X159373346Y-99011658D01*
X159389512Y-99079632D01*
X159366361Y-99145555D01*
X159329833Y-99179287D01*
X159303965Y-99194925D01*
X159303961Y-99194928D01*
X159183767Y-99315122D01*
X159095820Y-99460604D01*
X159045249Y-99622893D01*
X159038840Y-99693427D01*
X159038840Y-100250000D01*
X159688840Y-100250000D01*
X159688840Y-99050000D01*
X159688839Y-99049999D01*
X159682276Y-99050000D01*
X159682269Y-99050000D01*
X159673371Y-99050809D01*
X159604826Y-99037268D01*
X159554483Y-98988819D01*
X159538325Y-98920843D01*
X159561483Y-98854923D01*
X159598002Y-98821203D01*
X159624025Y-98805472D01*
X159744312Y-98685185D01*
X159832318Y-98539606D01*
X159832318Y-98539603D01*
X159832723Y-98538935D01*
X159884251Y-98491747D01*
X159953110Y-98479909D01*
X160017439Y-98507178D01*
X160044957Y-98538935D01*
X160045361Y-98539603D01*
X160045362Y-98539606D01*
X160133368Y-98685185D01*
X160252022Y-98803839D01*
X160266728Y-98830770D01*
X160283317Y-98856584D01*
X160284208Y-98862783D01*
X160285506Y-98865160D01*
X160288340Y-98891519D01*
X160288340Y-98926000D01*
X160268655Y-98993039D01*
X160215851Y-99038794D01*
X160195651Y-99043188D01*
X160188840Y-99050000D01*
X160188840Y-101949999D01*
X160199024Y-101960183D01*
X160231379Y-101969684D01*
X160277134Y-102022488D01*
X160288340Y-102073999D01*
X160288340Y-104071453D01*
X160268655Y-104138492D01*
X160215851Y-104184247D01*
X160206797Y-104185548D01*
X160188840Y-104200884D01*
X160188840Y-105269670D01*
X160169095Y-105249925D01*
X160083585Y-105200556D01*
X159988210Y-105175000D01*
X159889470Y-105175000D01*
X159794095Y-105200556D01*
X159708585Y-105249925D01*
X159688840Y-105269670D01*
X159688840Y-104200884D01*
X159688839Y-104200884D01*
X159681258Y-104202085D01*
X159681250Y-104202087D01*
X159516582Y-104255591D01*
X159362315Y-104334195D01*
X159222237Y-104435967D01*
X159099807Y-104558397D01*
X158998035Y-104698475D01*
X158919431Y-104852742D01*
X158865925Y-105017415D01*
X158838840Y-105188428D01*
X158838840Y-105300000D01*
X159658510Y-105300000D01*
X159638765Y-105319745D01*
X159589396Y-105405255D01*
X159563840Y-105500630D01*
X159563840Y-105599370D01*
X159589396Y-105694745D01*
X159638765Y-105780255D01*
X159658510Y-105800000D01*
X158838840Y-105800000D01*
X158838840Y-105911571D01*
X158865925Y-106082584D01*
X158919431Y-106247257D01*
X158998035Y-106401524D01*
X159099807Y-106541602D01*
X159222237Y-106664032D01*
X159362315Y-106765804D01*
X159516584Y-106844408D01*
X159681255Y-106897914D01*
X159681254Y-106897914D01*
X159688839Y-106899115D01*
X159688840Y-106899114D01*
X159688840Y-105830330D01*
X159708585Y-105850075D01*
X159794095Y-105899444D01*
X159889470Y-105925000D01*
X159988210Y-105925000D01*
X160083585Y-105899444D01*
X160169095Y-105850075D01*
X160188840Y-105830330D01*
X160188840Y-106899115D01*
X160196424Y-106897914D01*
X160361095Y-106844408D01*
X160515364Y-106765804D01*
X160655438Y-106664035D01*
X160763039Y-106556434D01*
X160824362Y-106522949D01*
X160894054Y-106527933D01*
X160949988Y-106569804D01*
X160956258Y-106579016D01*
X160996128Y-106643656D01*
X161120184Y-106767712D01*
X161269506Y-106859814D01*
X161436043Y-106914999D01*
X161538831Y-106925500D01*
X162338848Y-106925499D01*
X162338856Y-106925498D01*
X162338859Y-106925498D01*
X162395142Y-106919748D01*
X162441637Y-106914999D01*
X162608174Y-106859814D01*
X162757496Y-106767712D01*
X162881552Y-106643656D01*
X162973654Y-106494334D01*
X163028839Y-106327797D01*
X163039340Y-106225009D01*
X163039339Y-104874992D01*
X163028839Y-104772203D01*
X162973654Y-104605666D01*
X162881552Y-104456344D01*
X162757496Y-104332288D01*
X162608174Y-104240186D01*
X162441637Y-104185001D01*
X162441635Y-104185000D01*
X162338856Y-104174500D01*
X161613340Y-104174500D01*
X161546301Y-104154815D01*
X161500546Y-104102011D01*
X161489340Y-104050500D01*
X161489340Y-98891519D01*
X161509025Y-98824480D01*
X161525654Y-98803842D01*
X161644312Y-98685185D01*
X161732318Y-98539606D01*
X161782926Y-98377196D01*
X161789340Y-98306616D01*
X161789340Y-96693384D01*
X161782926Y-96622804D01*
X161732318Y-96460394D01*
X161644312Y-96314815D01*
X161644310Y-96314813D01*
X161644309Y-96314811D01*
X161524028Y-96194530D01*
X161422343Y-96133059D01*
X161375155Y-96081531D01*
X161363317Y-96012671D01*
X161390586Y-95948343D01*
X161398801Y-95939272D01*
X162701256Y-94636819D01*
X162762579Y-94603334D01*
X162788937Y-94600500D01*
X165676840Y-94600500D01*
X165743879Y-94620185D01*
G37*
%TD.AperFunction*%
%TA.AperFunction,Conductor*%
G36*
X168779379Y-63120185D02*
G01*
X168825134Y-63172989D01*
X168836340Y-63224500D01*
X168836340Y-92082152D01*
X168816655Y-92149191D01*
X168763851Y-92194946D01*
X168736532Y-92203769D01*
X168603348Y-92230261D01*
X168603338Y-92230264D01*
X168457667Y-92290602D01*
X168457654Y-92290609D01*
X168325965Y-92378602D01*
X168259287Y-92399480D01*
X168257074Y-92399500D01*
X160179478Y-92399500D01*
X160112439Y-92379815D01*
X160073939Y-92340597D01*
X160006552Y-92231344D01*
X159882496Y-92107288D01*
X159879182Y-92105243D01*
X159877386Y-92103248D01*
X159876829Y-92102807D01*
X159876904Y-92102711D01*
X159832458Y-92053297D01*
X159821237Y-91984334D01*
X159849080Y-91920252D01*
X159879188Y-91894165D01*
X159882182Y-91892318D01*
X160006155Y-91768345D01*
X160098196Y-91619124D01*
X160098198Y-91619119D01*
X160153345Y-91452697D01*
X160153346Y-91452690D01*
X160163839Y-91349986D01*
X160163840Y-91349973D01*
X160163840Y-91212500D01*
X157713841Y-91212500D01*
X157713841Y-91349986D01*
X157724334Y-91452697D01*
X157779481Y-91619119D01*
X157779483Y-91619124D01*
X157871524Y-91768345D01*
X157995495Y-91892316D01*
X157995499Y-91892319D01*
X157998496Y-91894168D01*
X158000119Y-91895972D01*
X158001163Y-91896798D01*
X158001021Y-91896976D01*
X158045221Y-91946116D01*
X158056442Y-92015079D01*
X158028599Y-92079161D01*
X157998501Y-92105241D01*
X157995189Y-92107283D01*
X157995183Y-92107288D01*
X157871129Y-92231342D01*
X157779027Y-92380663D01*
X157779025Y-92380668D01*
X157765234Y-92422288D01*
X157723841Y-92547203D01*
X157723841Y-92547204D01*
X157723840Y-92547204D01*
X157713340Y-92649983D01*
X157713340Y-93324901D01*
X157693655Y-93391940D01*
X157677021Y-93412582D01*
X153726422Y-97363181D01*
X153665099Y-97396666D01*
X153638741Y-97399500D01*
X152938838Y-97399500D01*
X152938820Y-97399501D01*
X152836043Y-97410000D01*
X152836040Y-97410001D01*
X152669508Y-97465185D01*
X152669503Y-97465187D01*
X152520182Y-97557289D01*
X152396129Y-97681342D01*
X152304027Y-97830663D01*
X152304026Y-97830666D01*
X152248841Y-97997203D01*
X152248841Y-97997204D01*
X152248840Y-97997204D01*
X152238340Y-98099983D01*
X152238340Y-98150902D01*
X152218655Y-98217941D01*
X152165851Y-98263696D01*
X152096693Y-98273640D01*
X152033137Y-98244615D01*
X152026659Y-98238583D01*
X151406823Y-97618747D01*
X151373338Y-97557424D01*
X151378322Y-97487732D01*
X151402692Y-97449815D01*
X151402071Y-97449324D01*
X151406547Y-97443661D01*
X151406547Y-97443660D01*
X151406552Y-97443656D01*
X151498654Y-97294334D01*
X151553839Y-97127797D01*
X151564340Y-97025009D01*
X151564339Y-95974992D01*
X151553839Y-95872203D01*
X151498654Y-95705666D01*
X151406552Y-95556344D01*
X151282496Y-95432288D01*
X151135742Y-95341770D01*
X151089019Y-95289823D01*
X151076840Y-95236232D01*
X151076840Y-94753767D01*
X151096525Y-94686728D01*
X151135741Y-94648230D01*
X151282496Y-94557712D01*
X151406552Y-94433656D01*
X151498654Y-94284334D01*
X151553839Y-94117797D01*
X151564340Y-94015009D01*
X151564339Y-92964992D01*
X151553839Y-92862203D01*
X151498654Y-92695666D01*
X151406552Y-92546344D01*
X151406550Y-92546342D01*
X151402221Y-92540868D01*
X151376077Y-92476074D01*
X151389113Y-92407432D01*
X151411799Y-92376274D01*
X153213061Y-90575013D01*
X157713840Y-90575013D01*
X157713840Y-90712500D01*
X158688840Y-90712500D01*
X159188840Y-90712500D01*
X160163839Y-90712500D01*
X160163839Y-90575028D01*
X160163838Y-90575013D01*
X160153345Y-90472302D01*
X160098198Y-90305880D01*
X160098196Y-90305875D01*
X160006155Y-90156654D01*
X159882185Y-90032684D01*
X159732964Y-89940643D01*
X159732959Y-89940641D01*
X159566537Y-89885494D01*
X159566530Y-89885493D01*
X159463826Y-89875000D01*
X159188840Y-89875000D01*
X159188840Y-90712500D01*
X158688840Y-90712500D01*
X158688840Y-89875000D01*
X158413869Y-89875000D01*
X158413852Y-89875001D01*
X158311142Y-89885494D01*
X158144720Y-89940641D01*
X158144715Y-89940643D01*
X157995494Y-90032684D01*
X157871524Y-90156654D01*
X157779483Y-90305875D01*
X157779481Y-90305880D01*
X157724334Y-90472302D01*
X157724333Y-90472309D01*
X157713840Y-90575013D01*
X153213061Y-90575013D01*
X154307553Y-89480521D01*
X154307556Y-89480520D01*
X154419360Y-89368716D01*
X154419361Y-89368714D01*
X154919360Y-88868716D01*
X154998417Y-88731784D01*
X155039341Y-88579057D01*
X155039341Y-88420942D01*
X155039341Y-88413347D01*
X155039340Y-88413329D01*
X155039340Y-82420945D01*
X155039340Y-82420943D01*
X154998417Y-82268216D01*
X154997425Y-82266498D01*
X154919364Y-82131290D01*
X154919358Y-82131282D01*
X154807557Y-82019481D01*
X154807549Y-82019475D01*
X154670630Y-81940426D01*
X154670626Y-81940424D01*
X154670624Y-81940423D01*
X154517897Y-81899500D01*
X154517896Y-81899500D01*
X154018606Y-81899500D01*
X153951567Y-81879815D01*
X153949715Y-81878602D01*
X153818025Y-81790609D01*
X153818012Y-81790602D01*
X153672341Y-81730264D01*
X153672329Y-81730261D01*
X153517685Y-81699500D01*
X153517682Y-81699500D01*
X153359998Y-81699500D01*
X153359995Y-81699500D01*
X153205350Y-81730261D01*
X153205338Y-81730264D01*
X153059667Y-81790602D01*
X153059654Y-81790609D01*
X152928551Y-81878210D01*
X152928547Y-81878213D01*
X152817053Y-81989707D01*
X152817050Y-81989711D01*
X152729449Y-82120814D01*
X152729442Y-82120827D01*
X152669104Y-82266498D01*
X152669101Y-82266510D01*
X152638340Y-82421153D01*
X152638340Y-82578846D01*
X152669101Y-82733489D01*
X152669104Y-82733501D01*
X152729442Y-82879172D01*
X152729449Y-82879185D01*
X152817050Y-83010288D01*
X152817053Y-83010292D01*
X152928547Y-83121786D01*
X152928551Y-83121789D01*
X153059654Y-83209390D01*
X153059667Y-83209397D01*
X153205338Y-83269735D01*
X153205343Y-83269737D01*
X153335822Y-83295691D01*
X153359993Y-83300499D01*
X153359996Y-83300500D01*
X153359998Y-83300500D01*
X153517684Y-83300500D01*
X153517685Y-83300499D01*
X153672337Y-83269737D01*
X153672349Y-83269731D01*
X153678164Y-83267969D01*
X153678998Y-83270720D01*
X153736199Y-83264497D01*
X153798718Y-83295691D01*
X153834448Y-83355734D01*
X153838340Y-83386555D01*
X153838340Y-88199901D01*
X153829696Y-88229337D01*
X153823173Y-88259327D01*
X153819417Y-88264344D01*
X153818655Y-88266940D01*
X153802022Y-88287582D01*
X153726424Y-88363181D01*
X153665101Y-88396666D01*
X153638742Y-88399500D01*
X149018606Y-88399500D01*
X148951567Y-88379815D01*
X148949715Y-88378602D01*
X148818025Y-88290609D01*
X148818012Y-88290602D01*
X148672341Y-88230264D01*
X148672329Y-88230261D01*
X148517685Y-88199500D01*
X148517682Y-88199500D01*
X148359998Y-88199500D01*
X148359995Y-88199500D01*
X148205350Y-88230261D01*
X148205338Y-88230264D01*
X148059667Y-88290602D01*
X148059654Y-88290609D01*
X147928551Y-88378210D01*
X147928547Y-88378213D01*
X147817053Y-88489707D01*
X147817050Y-88489711D01*
X147729449Y-88620814D01*
X147729442Y-88620827D01*
X147669104Y-88766498D01*
X147669101Y-88766510D01*
X147638340Y-88921153D01*
X147638340Y-89078846D01*
X147669101Y-89233489D01*
X147669104Y-89233501D01*
X147729442Y-89379172D01*
X147729449Y-89379185D01*
X147817050Y-89510288D01*
X147817053Y-89510292D01*
X147928547Y-89621786D01*
X147928551Y-89621789D01*
X148059654Y-89709390D01*
X148059667Y-89709397D01*
X148152565Y-89747876D01*
X148205343Y-89769737D01*
X148359993Y-89800499D01*
X148359996Y-89800500D01*
X148359998Y-89800500D01*
X148517684Y-89800500D01*
X148517685Y-89800499D01*
X148672337Y-89769737D01*
X148818019Y-89709394D01*
X148872503Y-89672989D01*
X148949715Y-89621398D01*
X149016393Y-89600520D01*
X149018606Y-89600500D01*
X152189743Y-89600500D01*
X152256782Y-89620185D01*
X152302537Y-89672989D01*
X152312481Y-89742147D01*
X152283456Y-89805703D01*
X152277425Y-89812179D01*
X151182125Y-90907479D01*
X150107626Y-91981978D01*
X149995821Y-92093782D01*
X149995819Y-92093785D01*
X149980984Y-92119481D01*
X149945700Y-92180595D01*
X149916763Y-92230715D01*
X149911164Y-92251607D01*
X149905837Y-92262464D01*
X149890071Y-92279666D01*
X149877927Y-92299591D01*
X149864762Y-92307284D01*
X149858631Y-92313975D01*
X149848944Y-92316528D01*
X149833525Y-92325540D01*
X149819508Y-92330184D01*
X149670182Y-92422289D01*
X149546125Y-92546346D01*
X149544377Y-92549182D01*
X149542669Y-92550717D01*
X149541647Y-92552011D01*
X149541425Y-92551836D01*
X149492429Y-92595905D01*
X149423466Y-92607126D01*
X149359384Y-92579282D01*
X149333303Y-92549182D01*
X149331554Y-92546346D01*
X149207497Y-92422289D01*
X149207496Y-92422288D01*
X149075053Y-92340597D01*
X149058176Y-92330187D01*
X149058171Y-92330185D01*
X149044153Y-92325540D01*
X148891637Y-92275001D01*
X148891635Y-92275000D01*
X148788850Y-92264500D01*
X148013838Y-92264500D01*
X148013820Y-92264501D01*
X147911043Y-92275000D01*
X147911040Y-92275001D01*
X147744508Y-92330185D01*
X147744503Y-92330187D01*
X147595182Y-92422289D01*
X147471129Y-92546342D01*
X147379027Y-92695663D01*
X147379026Y-92695666D01*
X147323841Y-92862203D01*
X147323841Y-92862204D01*
X147323840Y-92862204D01*
X147313340Y-92964983D01*
X147313340Y-94015001D01*
X147313341Y-94015019D01*
X147323840Y-94117796D01*
X147323841Y-94117799D01*
X147363174Y-94236496D01*
X147365576Y-94306324D01*
X147329844Y-94366366D01*
X147267324Y-94397559D01*
X147245468Y-94399500D01*
X143018606Y-94399500D01*
X143002826Y-94395210D01*
X142988493Y-94395788D01*
X142962376Y-94384213D01*
X142955824Y-94382432D01*
X142949831Y-94378913D01*
X142949129Y-94378211D01*
X142818019Y-94290606D01*
X142754881Y-94264453D01*
X142747478Y-94260107D01*
X142729194Y-94240649D01*
X142708404Y-94223895D01*
X142705635Y-94215577D01*
X142699633Y-94209189D01*
X142694771Y-94182935D01*
X142686339Y-94157600D01*
X142688506Y-94149105D01*
X142686911Y-94140487D01*
X142697013Y-94115776D01*
X142703618Y-94089901D01*
X142712008Y-94079101D01*
X142713352Y-94075814D01*
X142716009Y-94073950D01*
X142722575Y-94065498D01*
X143297346Y-93490728D01*
X143297351Y-93490724D01*
X143307554Y-93480520D01*
X143307556Y-93480520D01*
X143419360Y-93368716D01*
X143498417Y-93231784D01*
X143539340Y-93079057D01*
X143539340Y-77137002D01*
X143539341Y-77136989D01*
X143539341Y-76968888D01*
X143539341Y-76968886D01*
X143498417Y-76816158D01*
X143456194Y-76743026D01*
X143419360Y-76679227D01*
X143307556Y-76567423D01*
X143307555Y-76567422D01*
X143303225Y-76563092D01*
X143303214Y-76563082D01*
X143276659Y-76536527D01*
X143243174Y-76475204D01*
X143240340Y-76448846D01*
X143240340Y-76340117D01*
X143240341Y-76340104D01*
X143240341Y-76172001D01*
X143240341Y-76172000D01*
X143199417Y-76019273D01*
X143180942Y-75987273D01*
X143120364Y-75882347D01*
X143120358Y-75882339D01*
X143076659Y-75838640D01*
X143043174Y-75777317D01*
X143040340Y-75750959D01*
X143040340Y-73134051D01*
X143040341Y-73134038D01*
X143040341Y-72965935D01*
X143040141Y-72965187D01*
X142999417Y-72813207D01*
X142989215Y-72795537D01*
X142920364Y-72676281D01*
X142920358Y-72676273D01*
X142075659Y-71831574D01*
X142042174Y-71770251D01*
X142039340Y-71743893D01*
X142039340Y-70735985D01*
X142039340Y-70735983D01*
X142006876Y-70614824D01*
X142006876Y-70614823D01*
X142006876Y-70614822D01*
X141998417Y-70583255D01*
X141995869Y-70578842D01*
X141961463Y-70519249D01*
X141919360Y-70446324D01*
X141807556Y-70334520D01*
X141807555Y-70334519D01*
X141803225Y-70330189D01*
X141803214Y-70330179D01*
X139014041Y-67541006D01*
X138980556Y-67479683D01*
X138985540Y-67409991D01*
X139023914Y-67356775D01*
X139050835Y-67335082D01*
X139754932Y-66630984D01*
X139792552Y-66584301D01*
X139807708Y-66551113D01*
X139853461Y-66498311D01*
X139868984Y-66489834D01*
X139902178Y-66474675D01*
X139948861Y-66437056D01*
X140652958Y-65732958D01*
X140690578Y-65686275D01*
X140750366Y-65555359D01*
X140770848Y-65412902D01*
X140750366Y-65270445D01*
X140690578Y-65139529D01*
X140652959Y-65092846D01*
X140652954Y-65092841D01*
X140652950Y-65092836D01*
X139964680Y-64404567D01*
X139931195Y-64343244D01*
X139936179Y-64273553D01*
X139964678Y-64229207D01*
X141017118Y-63176767D01*
X141041354Y-63146692D01*
X141098746Y-63106845D01*
X141137904Y-63100500D01*
X168712340Y-63100500D01*
X168779379Y-63120185D01*
G37*
%TD.AperFunction*%
%TA.AperFunction,Conductor*%
G36*
X128043414Y-51347270D02*
G01*
X128087761Y-51375771D01*
X128195595Y-51483605D01*
X128229080Y-51544928D01*
X128224096Y-51614620D01*
X128195595Y-51658967D01*
X127399393Y-52455169D01*
X127399393Y-52455170D01*
X127574635Y-52630412D01*
X127621269Y-52667991D01*
X127653862Y-52682876D01*
X127706667Y-52728631D01*
X127715145Y-52744157D01*
X127728417Y-52773217D01*
X127730620Y-52778041D01*
X127768239Y-52824724D01*
X127768242Y-52824727D01*
X127768247Y-52824733D01*
X128472321Y-53528805D01*
X128472337Y-53528821D01*
X128519020Y-53566441D01*
X128552207Y-53581597D01*
X128605010Y-53627351D01*
X128613489Y-53642878D01*
X128628645Y-53676064D01*
X128628646Y-53676066D01*
X128666265Y-53722749D01*
X128666268Y-53722752D01*
X128666273Y-53722758D01*
X129370347Y-54426830D01*
X129370363Y-54426846D01*
X129417046Y-54464466D01*
X129450234Y-54479622D01*
X129503036Y-54525376D01*
X129511514Y-54540902D01*
X129526671Y-54574090D01*
X129526676Y-54574097D01*
X129564282Y-54620764D01*
X129564284Y-54620767D01*
X129564286Y-54620769D01*
X129564291Y-54620775D01*
X129701022Y-54757505D01*
X129734506Y-54818826D01*
X129737340Y-54845185D01*
X129737340Y-60312330D01*
X129737339Y-60312348D01*
X129737339Y-60478054D01*
X129737338Y-60478054D01*
X129778263Y-60630785D01*
X129807198Y-60680900D01*
X129807199Y-60680904D01*
X129807200Y-60680904D01*
X129856214Y-60765801D01*
X129857319Y-60767714D01*
X129857321Y-60767717D01*
X129976189Y-60886585D01*
X129976195Y-60886590D01*
X134604265Y-65514660D01*
X134637750Y-65575983D01*
X134638201Y-65578149D01*
X134669101Y-65733491D01*
X134669104Y-65733501D01*
X134729442Y-65879172D01*
X134729449Y-65879185D01*
X134817050Y-66010288D01*
X134817053Y-66010292D01*
X134928547Y-66121786D01*
X134928551Y-66121789D01*
X135059654Y-66209390D01*
X135059667Y-66209397D01*
X135205338Y-66269735D01*
X135205343Y-66269737D01*
X135359993Y-66300499D01*
X135359996Y-66300500D01*
X135359998Y-66300500D01*
X135517684Y-66300500D01*
X135517685Y-66300499D01*
X135672337Y-66269737D01*
X135818019Y-66209394D01*
X135949129Y-66121789D01*
X136060629Y-66010289D01*
X136148234Y-65879179D01*
X136208577Y-65733497D01*
X136239340Y-65578842D01*
X136239340Y-65421158D01*
X136239340Y-65421155D01*
X136226266Y-65355431D01*
X136232493Y-65285840D01*
X136275355Y-65230662D01*
X136300429Y-65216679D01*
X136318019Y-65209394D01*
X136449129Y-65121789D01*
X136560629Y-65010289D01*
X136648234Y-64879179D01*
X136655139Y-64862510D01*
X136684957Y-64790521D01*
X136708577Y-64733497D01*
X136739340Y-64578842D01*
X136739340Y-64421158D01*
X136739340Y-64421155D01*
X136739339Y-64421153D01*
X136729027Y-64369311D01*
X136708577Y-64266503D01*
X136694443Y-64232380D01*
X136648237Y-64120827D01*
X136648230Y-64120814D01*
X136560629Y-63989711D01*
X136560626Y-63989707D01*
X136449132Y-63878213D01*
X136449128Y-63878210D01*
X136318025Y-63790609D01*
X136318012Y-63790602D01*
X136172341Y-63730264D01*
X136172331Y-63730261D01*
X136016989Y-63699361D01*
X135955078Y-63666976D01*
X135953500Y-63665425D01*
X133800256Y-61512181D01*
X133766771Y-61450858D01*
X133771755Y-61381166D01*
X133813627Y-61325233D01*
X133879091Y-61300816D01*
X133887937Y-61300500D01*
X134017684Y-61300500D01*
X134017685Y-61300499D01*
X134172337Y-61269737D01*
X134318019Y-61209394D01*
X134449129Y-61121789D01*
X134560629Y-61010289D01*
X134648234Y-60879179D01*
X134708577Y-60733497D01*
X134739340Y-60578842D01*
X134739340Y-60421158D01*
X134739340Y-60421155D01*
X134739339Y-60421153D01*
X134717696Y-60312348D01*
X134708577Y-60266503D01*
X134665177Y-60161727D01*
X134663040Y-60141851D01*
X134656055Y-60123122D01*
X134659382Y-60107825D01*
X134657709Y-60092259D01*
X134666657Y-60074381D01*
X134670907Y-60054849D01*
X134687592Y-60032560D01*
X134688984Y-60029780D01*
X134692030Y-60026623D01*
X134746521Y-59972132D01*
X134807842Y-59938649D01*
X134877534Y-59943633D01*
X134930749Y-59982007D01*
X134952444Y-60008929D01*
X134952448Y-60008933D01*
X134952453Y-60008939D01*
X135494419Y-60550903D01*
X135656542Y-60713026D01*
X135703225Y-60750646D01*
X135736412Y-60765802D01*
X135789215Y-60811556D01*
X135797694Y-60827083D01*
X135812850Y-60860269D01*
X135812851Y-60860271D01*
X135850470Y-60906954D01*
X135850473Y-60906957D01*
X135850478Y-60906963D01*
X136394375Y-61450858D01*
X136554568Y-61611051D01*
X136601251Y-61648671D01*
X136634434Y-61663825D01*
X136687239Y-61709580D01*
X136695718Y-61725107D01*
X136710876Y-61758297D01*
X136748495Y-61804980D01*
X136748498Y-61804983D01*
X136748503Y-61804989D01*
X137452577Y-62509061D01*
X137452593Y-62509077D01*
X137499276Y-62546697D01*
X137532463Y-62561853D01*
X137585266Y-62607607D01*
X137593745Y-62623134D01*
X137608902Y-62656322D01*
X137646521Y-62703005D01*
X137646524Y-62703008D01*
X137646529Y-62703014D01*
X138180531Y-63237014D01*
X138350619Y-63407102D01*
X138397302Y-63444722D01*
X138430490Y-63459878D01*
X138483292Y-63505632D01*
X138491770Y-63521158D01*
X138506928Y-63554348D01*
X138544547Y-63601031D01*
X138544550Y-63601034D01*
X138544555Y-63601040D01*
X138808561Y-63865045D01*
X138842046Y-63926368D01*
X138837062Y-63996059D01*
X138808561Y-64040407D01*
X138180395Y-64668574D01*
X138180389Y-64668581D01*
X138142767Y-64715266D01*
X138127610Y-64748454D01*
X138081854Y-64801257D01*
X138066331Y-64809733D01*
X138033143Y-64824890D01*
X137986449Y-64862518D01*
X137282369Y-65566600D01*
X137282363Y-65566606D01*
X137282362Y-65566608D01*
X137272500Y-65578846D01*
X137244742Y-65613291D01*
X137229584Y-65646480D01*
X137183827Y-65699283D01*
X137168306Y-65707758D01*
X137135114Y-65722917D01*
X137088423Y-65760543D01*
X136384343Y-66464625D01*
X136384337Y-66464632D01*
X136346715Y-66511316D01*
X136331557Y-66544507D01*
X136285800Y-66597310D01*
X136270279Y-66605785D01*
X136237089Y-66620943D01*
X136190398Y-66658569D01*
X135486318Y-67362651D01*
X135486312Y-67362658D01*
X135448691Y-67409342D01*
X135433533Y-67442531D01*
X135387776Y-67495334D01*
X135372255Y-67503809D01*
X135339063Y-67518968D01*
X135292372Y-67556594D01*
X134588292Y-68260676D01*
X134588286Y-68260683D01*
X134550664Y-68307367D01*
X134535506Y-68340558D01*
X134489749Y-68393361D01*
X134474228Y-68401836D01*
X134441038Y-68416994D01*
X134394347Y-68454620D01*
X133690267Y-69158702D01*
X133690261Y-69158709D01*
X133652639Y-69205394D01*
X133637482Y-69238582D01*
X133591726Y-69291385D01*
X133576203Y-69299861D01*
X133543015Y-69315018D01*
X133496321Y-69352646D01*
X132792241Y-70056728D01*
X132792235Y-70056735D01*
X132754614Y-70103419D01*
X132739456Y-70136608D01*
X132693699Y-70189411D01*
X132678178Y-70197886D01*
X132644986Y-70213045D01*
X132598295Y-70250671D01*
X131894215Y-70954753D01*
X131894209Y-70954760D01*
X131856587Y-71001444D01*
X131841429Y-71034635D01*
X131795672Y-71087438D01*
X131780151Y-71095913D01*
X131746961Y-71111071D01*
X131700270Y-71148697D01*
X130996190Y-71852779D01*
X130996184Y-71852786D01*
X130958563Y-71899470D01*
X130943405Y-71932659D01*
X130897648Y-71985462D01*
X130882127Y-71993937D01*
X130848935Y-72009096D01*
X130802244Y-72046722D01*
X130287082Y-72561885D01*
X130225759Y-72595370D01*
X130156067Y-72590386D01*
X130100134Y-72548514D01*
X130096298Y-72543094D01*
X130060627Y-72489708D01*
X129949132Y-72378213D01*
X129949128Y-72378210D01*
X129818025Y-72290609D01*
X129818012Y-72290602D01*
X129672341Y-72230264D01*
X129672329Y-72230261D01*
X129517685Y-72199500D01*
X129517682Y-72199500D01*
X129359998Y-72199500D01*
X129359995Y-72199500D01*
X129205350Y-72230261D01*
X129205338Y-72230264D01*
X129059667Y-72290602D01*
X129059654Y-72290609D01*
X128928551Y-72378210D01*
X128928547Y-72378213D01*
X128817053Y-72489707D01*
X128817050Y-72489711D01*
X128729449Y-72620814D01*
X128729442Y-72620827D01*
X128669104Y-72766498D01*
X128669101Y-72766510D01*
X128638340Y-72921153D01*
X128638340Y-73078846D01*
X128669102Y-73233496D01*
X128670299Y-73237441D01*
X128670923Y-73307308D01*
X128639320Y-73361118D01*
X127950648Y-74049791D01*
X127889325Y-74083276D01*
X127819634Y-74078292D01*
X127766416Y-74039917D01*
X127744724Y-74012998D01*
X127744719Y-74012993D01*
X127744715Y-74012988D01*
X127040633Y-73308908D01*
X127040626Y-73308901D01*
X126993943Y-73271281D01*
X126960755Y-73256124D01*
X126907952Y-73210368D01*
X126899477Y-73194848D01*
X126884318Y-73161655D01*
X126846699Y-73114972D01*
X126846694Y-73114967D01*
X126846690Y-73114962D01*
X126142608Y-72410882D01*
X126142601Y-72410875D01*
X126095918Y-72373255D01*
X126095916Y-72373254D01*
X126062728Y-72358097D01*
X126009925Y-72312341D01*
X126001447Y-72296814D01*
X125986295Y-72263635D01*
X125986293Y-72263632D01*
X125986292Y-72263630D01*
X125948673Y-72216947D01*
X125948668Y-72216942D01*
X125948664Y-72216937D01*
X125244582Y-71512857D01*
X125244575Y-71512850D01*
X125197892Y-71475230D01*
X125197890Y-71475229D01*
X125194630Y-71473215D01*
X125192635Y-71470994D01*
X125191852Y-71470363D01*
X125191954Y-71470235D01*
X125147943Y-71421234D01*
X125136771Y-71352263D01*
X125164660Y-71288201D01*
X125212347Y-71253164D01*
X125318019Y-71209394D01*
X125449129Y-71121789D01*
X125560629Y-71010289D01*
X125648234Y-70879179D01*
X125708577Y-70733497D01*
X125739340Y-70578842D01*
X125739340Y-70421158D01*
X125739340Y-70421155D01*
X125739339Y-70421153D01*
X125722117Y-70334574D01*
X125708577Y-70266503D01*
X125676645Y-70189411D01*
X125648237Y-70120827D01*
X125648230Y-70120814D01*
X125560629Y-69989711D01*
X125560626Y-69989707D01*
X125449132Y-69878213D01*
X125449128Y-69878210D01*
X125318025Y-69790609D01*
X125318012Y-69790602D01*
X125172341Y-69730264D01*
X125172329Y-69730261D01*
X125017685Y-69699500D01*
X125017682Y-69699500D01*
X124859998Y-69699500D01*
X124859995Y-69699500D01*
X124705350Y-69730261D01*
X124705338Y-69730264D01*
X124559667Y-69790602D01*
X124559654Y-69790609D01*
X124427965Y-69878602D01*
X124361287Y-69899480D01*
X124359074Y-69899500D01*
X123682587Y-69899500D01*
X123615548Y-69879815D01*
X123594906Y-69863181D01*
X123448531Y-69716806D01*
X123448524Y-69716799D01*
X123401841Y-69679179D01*
X123368650Y-69664021D01*
X123315849Y-69618266D01*
X123307375Y-69602748D01*
X123292215Y-69569553D01*
X123254596Y-69522870D01*
X123254591Y-69522865D01*
X123254587Y-69522860D01*
X122550505Y-68818780D01*
X122550498Y-68818773D01*
X122503815Y-68781153D01*
X122470627Y-68765996D01*
X122417824Y-68720240D01*
X122409349Y-68704720D01*
X122394190Y-68671527D01*
X122356571Y-68624844D01*
X122356566Y-68624839D01*
X122356562Y-68624834D01*
X121652480Y-67920754D01*
X121652473Y-67920747D01*
X121605790Y-67883127D01*
X121605788Y-67883126D01*
X121572600Y-67867969D01*
X121519797Y-67822213D01*
X121511319Y-67806686D01*
X121496167Y-67773507D01*
X121496165Y-67773504D01*
X121496164Y-67773502D01*
X121458545Y-67726819D01*
X121458540Y-67726814D01*
X121458536Y-67726809D01*
X120754454Y-67022729D01*
X120754447Y-67022722D01*
X120707764Y-66985102D01*
X120674573Y-66969944D01*
X120621772Y-66924189D01*
X120613298Y-66908671D01*
X120598138Y-66875476D01*
X120560519Y-66828793D01*
X120560514Y-66828788D01*
X120560510Y-66828783D01*
X119856428Y-66124703D01*
X119856421Y-66124696D01*
X119809738Y-66087076D01*
X119809734Y-66087074D01*
X119776550Y-66071919D01*
X119723746Y-66026164D01*
X119715270Y-66010640D01*
X119700113Y-65977451D01*
X119662494Y-65930768D01*
X119662489Y-65930763D01*
X119662485Y-65930758D01*
X118958403Y-65226678D01*
X118958396Y-65226671D01*
X118911713Y-65189051D01*
X118878522Y-65173893D01*
X118825721Y-65128138D01*
X118817247Y-65112620D01*
X118802087Y-65079425D01*
X118764468Y-65032742D01*
X118764463Y-65032737D01*
X118764459Y-65032732D01*
X118060377Y-64328652D01*
X118060370Y-64328645D01*
X118013687Y-64291025D01*
X117980499Y-64275868D01*
X117927696Y-64230112D01*
X117919221Y-64214592D01*
X117904062Y-64181399D01*
X117866443Y-64134716D01*
X117866438Y-64134711D01*
X117866434Y-64134706D01*
X117162352Y-63430626D01*
X117162345Y-63430619D01*
X117115662Y-63392999D01*
X117081778Y-63377524D01*
X117028975Y-63331769D01*
X117020497Y-63316241D01*
X117005612Y-63283648D01*
X116968033Y-63237014D01*
X116792791Y-63061772D01*
X116792790Y-63061772D01*
X115908908Y-63945656D01*
X115025024Y-64829539D01*
X115200266Y-65004781D01*
X115227217Y-65026499D01*
X115236145Y-65039358D01*
X115248678Y-65048740D01*
X115255664Y-65067470D01*
X115267065Y-65083891D01*
X115267623Y-65099535D01*
X115273095Y-65114204D01*
X115268845Y-65133739D01*
X115269559Y-65153716D01*
X115261373Y-65168091D01*
X115258244Y-65182477D01*
X115237093Y-65210732D01*
X115084644Y-65363181D01*
X115023324Y-65396665D01*
X114996965Y-65399499D01*
X114859783Y-65399499D01*
X114757965Y-65426781D01*
X114707055Y-65440423D01*
X114624339Y-65488179D01*
X114556439Y-65504650D01*
X114490412Y-65481798D01*
X114447222Y-65426876D01*
X114438340Y-65380791D01*
X114438340Y-64901192D01*
X114458025Y-64834153D01*
X114474654Y-64813516D01*
X127912401Y-51375769D01*
X127973722Y-51342286D01*
X128043414Y-51347270D01*
G37*
%TD.AperFunction*%
%TD*%
M02*
