%TF.GenerationSoftware,KiCad,Pcbnew,9.0.6*%
%TF.CreationDate,2025-11-23T22:18:04-05:00*%
%TF.ProjectId,EPD_HUB_ESP32,4550445f-4855-4425-9f45-535033322e6b,rev?*%
%TF.SameCoordinates,Original*%
%TF.FileFunction,Copper,L1,Top*%
%TF.FilePolarity,Positive*%
%FSLAX46Y46*%
G04 Gerber Fmt 4.6, Leading zero omitted, Abs format (unit mm)*
G04 Created by KiCad (PCBNEW 9.0.6) date 2025-11-23 22:18:04*
%MOMM*%
%LPD*%
G01*
G04 APERTURE LIST*
G04 Aperture macros list*
%AMRoundRect*
0 Rectangle with rounded corners*
0 $1 Rounding radius*
0 $2 $3 $4 $5 $6 $7 $8 $9 X,Y pos of 4 corners*
0 Add a 4 corners polygon primitive as box body*
4,1,4,$2,$3,$4,$5,$6,$7,$8,$9,$2,$3,0*
0 Add four circle primitives for the rounded corners*
1,1,$1+$1,$2,$3*
1,1,$1+$1,$4,$5*
1,1,$1+$1,$6,$7*
1,1,$1+$1,$8,$9*
0 Add four rect primitives between the rounded corners*
20,1,$1+$1,$2,$3,$4,$5,0*
20,1,$1+$1,$4,$5,$6,$7,0*
20,1,$1+$1,$6,$7,$8,$9,0*
20,1,$1+$1,$8,$9,$2,$3,0*%
G04 Aperture macros list end*
%TA.AperFunction,HeatsinkPad*%
%ADD10C,0.600000*%
%TD*%
%TA.AperFunction,SMDPad,CuDef*%
%ADD11RoundRect,0.250000X-0.275000X-0.750000X0.275000X-0.750000X0.275000X0.750000X-0.275000X0.750000X0*%
%TD*%
%TA.AperFunction,SMDPad,CuDef*%
%ADD12RoundRect,0.250000X0.750000X-0.275000X0.750000X0.275000X-0.750000X0.275000X-0.750000X-0.275000X0*%
%TD*%
%TA.AperFunction,SMDPad,CuDef*%
%ADD13RoundRect,0.250000X-0.750000X0.275000X-0.750000X-0.275000X0.750000X-0.275000X0.750000X0.275000X0*%
%TD*%
%TA.AperFunction,SMDPad,CuDef*%
%ADD14RoundRect,0.250000X0.275000X0.750000X-0.275000X0.750000X-0.275000X-0.750000X0.275000X-0.750000X0*%
%TD*%
%TA.AperFunction,ComponentPad*%
%ADD15O,1.200000X1.750000*%
%TD*%
%TA.AperFunction,ComponentPad*%
%ADD16RoundRect,0.250000X0.350000X0.625000X-0.350000X0.625000X-0.350000X-0.625000X0.350000X-0.625000X0*%
%TD*%
%TA.AperFunction,HeatsinkPad*%
%ADD17O,0.800000X1.400000*%
%TD*%
%TA.AperFunction,SMDPad,CuDef*%
%ADD18RoundRect,0.250000X-0.450000X0.350000X-0.450000X-0.350000X0.450000X-0.350000X0.450000X0.350000X0*%
%TD*%
%TA.AperFunction,SMDPad,CuDef*%
%ADD19RoundRect,0.250000X0.337500X0.475000X-0.337500X0.475000X-0.337500X-0.475000X0.337500X-0.475000X0*%
%TD*%
%TA.AperFunction,SMDPad,CuDef*%
%ADD20RoundRect,0.225000X0.225000X0.375000X-0.225000X0.375000X-0.225000X-0.375000X0.225000X-0.375000X0*%
%TD*%
%TA.AperFunction,SMDPad,CuDef*%
%ADD21RoundRect,0.112500X0.112500X0.637500X-0.112500X0.637500X-0.112500X-0.637500X0.112500X-0.637500X0*%
%TD*%
%TA.AperFunction,SMDPad,CuDef*%
%ADD22RoundRect,0.200000X-0.200000X0.750000X-0.200000X-0.750000X0.200000X-0.750000X0.200000X0.750000X0*%
%TD*%
%TA.AperFunction,SMDPad,CuDef*%
%ADD23RoundRect,0.150000X-0.587500X-0.150000X0.587500X-0.150000X0.587500X0.150000X-0.587500X0.150000X0*%
%TD*%
%TA.AperFunction,SMDPad,CuDef*%
%ADD24RoundRect,0.225000X-0.225000X-0.375000X0.225000X-0.375000X0.225000X0.375000X-0.225000X0.375000X0*%
%TD*%
%TA.AperFunction,SMDPad,CuDef*%
%ADD25RoundRect,0.250000X-0.337500X-0.475000X0.337500X-0.475000X0.337500X0.475000X-0.337500X0.475000X0*%
%TD*%
%TA.AperFunction,SMDPad,CuDef*%
%ADD26RoundRect,0.250000X0.350000X0.450000X-0.350000X0.450000X-0.350000X-0.450000X0.350000X-0.450000X0*%
%TD*%
%TA.AperFunction,SMDPad,CuDef*%
%ADD27RoundRect,0.250000X-0.350000X-0.450000X0.350000X-0.450000X0.350000X0.450000X-0.350000X0.450000X0*%
%TD*%
%TA.AperFunction,SMDPad,CuDef*%
%ADD28RoundRect,0.250000X0.275000X0.350000X-0.275000X0.350000X-0.275000X-0.350000X0.275000X-0.350000X0*%
%TD*%
%TA.AperFunction,SMDPad,CuDef*%
%ADD29RoundRect,0.250000X0.450000X-0.350000X0.450000X0.350000X-0.450000X0.350000X-0.450000X-0.350000X0*%
%TD*%
%TA.AperFunction,SMDPad,CuDef*%
%ADD30RoundRect,0.250000X0.475000X-0.337500X0.475000X0.337500X-0.475000X0.337500X-0.475000X-0.337500X0*%
%TD*%
%TA.AperFunction,SMDPad,CuDef*%
%ADD31RoundRect,0.250000X-0.475000X0.337500X-0.475000X-0.337500X0.475000X-0.337500X0.475000X0.337500X0*%
%TD*%
%TA.AperFunction,ViaPad*%
%ADD32C,0.600000*%
%TD*%
%TA.AperFunction,Conductor*%
%ADD33C,0.200000*%
%TD*%
G04 APERTURE END LIST*
D10*
%TO.P,U4,41,GND*%
%TO.N,GND*%
X126953916Y-62474873D03*
X127943865Y-63464823D03*
X126953916Y-61484924D03*
X127943865Y-62474873D03*
X128933815Y-63464823D03*
X127943865Y-61484924D03*
X128933815Y-62474873D03*
X127943865Y-60494974D03*
X128933815Y-61484924D03*
X129923764Y-62474873D03*
X128933815Y-60494974D03*
X129923764Y-61484924D03*
%TD*%
D11*
%TO.P,SW3,1,1*%
%TO.N,3V3*%
X121713840Y-47000000D03*
%TO.P,SW3,2,2*%
%TO.N,DPAD_RIGHT*%
X126163840Y-47000000D03*
%TD*%
D12*
%TO.P,SW7,1,1*%
%TO.N,3V3*%
X111438840Y-111725000D03*
%TO.P,SW7,2,2*%
%TO.N,BUTTON_B*%
X111438840Y-107275000D03*
%TD*%
D13*
%TO.P,SW5,1,1*%
%TO.N,3V3*%
X111438840Y-128275000D03*
%TO.P,SW5,2,2*%
%TO.N,BUTTON_A*%
X111438840Y-132725000D03*
%TD*%
D12*
%TO.P,SW4,1,1*%
%TO.N,3V3*%
X168438840Y-111725000D03*
%TO.P,SW4,2,2*%
%TO.N,DPAD_DOWN*%
X168438840Y-107275000D03*
%TD*%
D14*
%TO.P,SW2,1,1*%
%TO.N,3V3*%
X157663840Y-47000000D03*
%TO.P,SW2,2,2*%
%TO.N,DPAD_LEFT*%
X153213840Y-47000000D03*
%TD*%
D13*
%TO.P,SW1,1,1*%
%TO.N,3V3*%
X168438840Y-127775000D03*
%TO.P,SW1,2,2*%
%TO.N,DPAD_UP*%
X168438840Y-132225000D03*
%TD*%
D15*
%TO.P,J5,2,Pin_2*%
%TO.N,GND*%
X159938840Y-105550000D03*
D16*
%TO.P,J5,1,Pin_1*%
%TO.N,Net-(J5-Pin_1)*%
X161938840Y-105550000D03*
%TD*%
D17*
%TO.P,J1,S1,SHIELD*%
%TO.N,Net-(J1-SHIELD)*%
X166529840Y-148500000D03*
X166169840Y-142550000D03*
X157909840Y-142550000D03*
X157549840Y-148500000D03*
%TD*%
D18*
%TO.P,R15,2*%
%TO.N,/E_ink_HAT/GDR*%
X146938840Y-107500000D03*
%TO.P,R15,1*%
%TO.N,GND*%
X146938840Y-105500000D03*
%TD*%
D19*
%TO.P,C12,2*%
%TO.N,GND*%
X145401340Y-81000000D03*
%TO.P,C12,1*%
%TO.N,3V3*%
X147476340Y-81000000D03*
%TD*%
D20*
%TO.P,D4,2,A*%
%TO.N,/E_ink_HAT/PREVGL*%
X134788840Y-99500000D03*
%TO.P,D4,1,K*%
%TO.N,Net-(D4-K)*%
X138088840Y-99500000D03*
%TD*%
D21*
%TO.P,Q4,3,D*%
%TO.N,/E_ink_HAT/RESE*%
X143438840Y-110830000D03*
%TO.P,Q4,2,S*%
%TO.N,Net-(D5-K)*%
X142788840Y-108170000D03*
%TO.P,Q4,1,G*%
%TO.N,/E_ink_HAT/GDR*%
X144088840Y-108170000D03*
%TD*%
D18*
%TO.P,R14,2*%
%TO.N,/E_ink_HAT/RESE*%
X146938840Y-112000000D03*
%TO.P,R14,1*%
%TO.N,GND*%
X146938840Y-110000000D03*
%TD*%
D22*
%TO.P,Q5,3,D*%
%TO.N,/E_ink_HAT/VCC_EPD_OUT*%
X146438840Y-96000000D03*
%TO.P,Q5,2,S*%
%TO.N,3V3*%
X145488840Y-93000000D03*
%TO.P,Q5,1,G*%
%TO.N,Net-(Q5-G)*%
X147388840Y-93000000D03*
%TD*%
D18*
%TO.P,R20,2*%
%TO.N,Net-(Q5-G)*%
X150438840Y-86000000D03*
%TO.P,R20,1*%
%TO.N,3V3*%
X150438840Y-84000000D03*
%TD*%
D23*
%TO.P,Q6,3,C*%
%TO.N,Net-(Q5-G)*%
X142376340Y-86000000D03*
%TO.P,Q6,2,E*%
%TO.N,GND*%
X140501340Y-86950000D03*
%TO.P,Q6,1,B*%
%TO.N,Net-(Q6-B)*%
X140501340Y-85050000D03*
%TD*%
D24*
%TO.P,D6,1,K*%
%TO.N,GND*%
X134788840Y-103500000D03*
%TO.P,D6,2,A*%
%TO.N,Net-(D4-K)*%
X138088840Y-103500000D03*
%TD*%
D25*
%TO.P,C11,2*%
%TO.N,Net-(D5-K)*%
X142976340Y-103500000D03*
%TO.P,C11,1*%
%TO.N,Net-(D4-K)*%
X140901340Y-103500000D03*
%TD*%
D26*
%TO.P,R18,2*%
%TO.N,3V3*%
X150438840Y-80500000D03*
%TO.P,R18,1*%
%TO.N,Net-(R18-Pad1)*%
X152438840Y-80500000D03*
%TD*%
%TO.P,R17,2*%
%TO.N,EPD_RST*%
X145438840Y-77500000D03*
%TO.P,R17,1*%
%TO.N,Net-(Q6-B)*%
X147438840Y-77500000D03*
%TD*%
D19*
%TO.P,C10,2*%
%TO.N,/E_ink_HAT/VCC_EPD_OUT*%
X145901340Y-102000000D03*
%TO.P,C10,1*%
%TO.N,GND*%
X147976340Y-102000000D03*
%TD*%
D27*
%TO.P,R16,2*%
%TO.N,3V3*%
X147438840Y-84000000D03*
%TO.P,R16,1*%
%TO.N,EPD_RST*%
X145438840Y-84000000D03*
%TD*%
D20*
%TO.P,D5,2,A*%
%TO.N,/E_ink_HAT/PREVGH*%
X134788840Y-108000000D03*
%TO.P,D5,1,K*%
%TO.N,Net-(D5-K)*%
X138088840Y-108000000D03*
%TD*%
D27*
%TO.P,R19,2*%
%TO.N,Net-(R18-Pad1)*%
X152438840Y-77500000D03*
%TO.P,R19,1*%
%TO.N,Net-(Q6-B)*%
X150438840Y-77500000D03*
%TD*%
D28*
%TO.P,L1,2,2*%
%TO.N,Net-(D5-K)*%
X143788840Y-99500000D03*
%TO.P,L1,1,1*%
%TO.N,/E_ink_HAT/VCC_EPD_OUT*%
X146088840Y-99500000D03*
%TD*%
D27*
%TO.P,R10,2*%
%TO.N,GND*%
X119938840Y-124000000D03*
%TO.P,R10,1*%
%TO.N,BAT_MONIT*%
X117938840Y-124000000D03*
%TD*%
D29*
%TO.P,R12,2*%
%TO.N,BAT_MONIT*%
X118438840Y-130500000D03*
%TO.P,R12,1*%
%TO.N,VBat+*%
X118438840Y-132500000D03*
%TD*%
D25*
%TO.P,C8,2*%
%TO.N,GND*%
X119976340Y-119000000D03*
%TO.P,C8,1*%
%TO.N,BAT_MONIT*%
X117901340Y-119000000D03*
%TD*%
D29*
%TO.P,R11,2*%
%TO.N,CHG_STATUS*%
X122438840Y-126000000D03*
%TO.P,R11,1*%
%TO.N,Net-(U2-~{CHG})*%
X122438840Y-128000000D03*
%TD*%
D30*
%TO.P,C18,1*%
%TO.N,GND*%
X136938840Y-135537500D03*
%TO.P,C18,2*%
%TO.N,Net-(J3-Pin_18)*%
X136938840Y-133462500D03*
%TD*%
%TO.P,C15,2*%
%TO.N,Net-(J3-Pin_22)*%
X129438840Y-133462500D03*
%TO.P,C15,1*%
%TO.N,GND*%
X129438840Y-135537500D03*
%TD*%
D31*
%TO.P,C34,1*%
%TO.N,GND*%
X144438840Y-55462500D03*
%TO.P,C34,2*%
%TO.N,ESP32_IO0*%
X144438840Y-57537500D03*
%TD*%
D30*
%TO.P,C13,1*%
%TO.N,GND*%
X132438840Y-135537500D03*
%TO.P,C13,2*%
%TO.N,Net-(J3-Pin_20)*%
X132438840Y-133462500D03*
%TD*%
%TO.P,C20,1*%
%TO.N,GND*%
X126938840Y-135537500D03*
%TO.P,C20,2*%
%TO.N,Net-(J3-Pin_24)*%
X126938840Y-133462500D03*
%TD*%
%TO.P,C19,1*%
%TO.N,GND*%
X134438840Y-135537500D03*
%TO.P,C19,2*%
%TO.N,Net-(J3-Pin_19)*%
X134438840Y-133462500D03*
%TD*%
D25*
%TO.P,C35,1*%
%TO.N,GND*%
X165901340Y-54000000D03*
%TO.P,C35,2*%
%TO.N,ESP32_EN*%
X167976340Y-54000000D03*
%TD*%
D30*
%TO.P,C21,1*%
%TO.N,GND*%
X142438840Y-135537500D03*
%TO.P,C21,2*%
%TO.N,Net-(J3-Pin_4)*%
X142438840Y-133462500D03*
%TD*%
%TO.P,C17,1*%
%TO.N,GND*%
X139938840Y-135537500D03*
%TO.P,C17,2*%
%TO.N,Net-(J3-Pin_5)*%
X139938840Y-133462500D03*
%TD*%
D32*
%TO.N,GND*%
X167500000Y-134000000D03*
X152000000Y-110000000D03*
X155500000Y-91000000D03*
X151500000Y-137000000D03*
X162500000Y-64000000D03*
X149000000Y-79500000D03*
X134000000Y-67500000D03*
%TO.N,Net-(J1-SHIELD)*%
X160000000Y-146500000D03*
%TO.N,GND*%
X165438840Y-145500000D03*
X158438840Y-117500000D03*
X154438840Y-124500000D03*
X154938840Y-131000000D03*
X152438840Y-124000000D03*
X137438840Y-128500000D03*
X141438840Y-127500000D03*
%TO.N,EPD_RST*%
X142038840Y-76500000D03*
%TO.N,BUTTON_A*%
X133938840Y-60500000D03*
X127438840Y-80000000D03*
X115438840Y-116500000D03*
%TO.N,BUTTON_B*%
X132438840Y-59500000D03*
X126438840Y-80000000D03*
X114438840Y-107000000D03*
%TO.N,3V3*%
X116438840Y-113500000D03*
%TO.N,DPAD_DOWN*%
X135938840Y-64500000D03*
%TO.N,DPAD_UP*%
X135438840Y-65500000D03*
%TO.N,3V3*%
X165438840Y-118000000D03*
%TO.N,DPAD_LEFT*%
X140438840Y-47500000D03*
%TO.N,DPAD_RIGHT*%
X131858078Y-58419238D03*
%TO.N,SD_DAT0*%
X125938840Y-77000000D03*
%TO.N,SD_CMD*%
X119938840Y-72500000D03*
%TO.N,SD_DAT3*%
X117438840Y-72000000D03*
%TO.N,SD_DAT2*%
X114938840Y-69500000D03*
%TO.N,SD_CLK*%
X124938840Y-70500000D03*
X122438840Y-84000000D03*
%TO.N,SD_DAT1*%
X129938840Y-77000000D03*
X124438840Y-84000000D03*
%TO.N,SD_DAT0*%
X123438840Y-84000000D03*
%TO.N,Net-(J7-VDD)*%
X112038840Y-93000000D03*
X142438840Y-95000000D03*
%TO.N,SD_CMD*%
X116938840Y-84000000D03*
%TO.N,SD_DAT3*%
X115938840Y-84000000D03*
%TO.N,SD_DAT2*%
X114938840Y-84000000D03*
%TO.N,Net-(J1-CC1)*%
X154938840Y-144000000D03*
X161438840Y-137000000D03*
%TO.N,ESP32_DP*%
X163588658Y-146850182D03*
X161938840Y-138000000D03*
%TO.N,ESP32_DN*%
X163397840Y-143800000D03*
X161438840Y-139500000D03*
%TO.N,Net-(J1-SHIELD)*%
X131938840Y-139500000D03*
%TO.N,VBat+*%
X166938840Y-139000000D03*
%TO.N,Net-(U2-~{CHG})*%
X152938840Y-132500000D03*
%TO.N,/E_ink_HAT/PREVGL*%
X130438840Y-122500000D03*
%TO.N,/E_ink_HAT/PREVGH*%
X134938840Y-112500000D03*
%TO.N,/E_ink_HAT/VCC_EPD_OUT*%
X149938840Y-100500000D03*
%TO.N,/E_ink_HAT/RESE*%
X146938840Y-114500000D03*
%TO.N,/E_ink_HAT/GDR*%
X148938840Y-108000000D03*
%TO.N,Net-(J3-Pin_24)*%
X132888842Y-129000000D03*
%TO.N,Net-(J3-Pin_22)*%
X132938840Y-130000000D03*
%TO.N,Net-(J3-Pin_20)*%
X134438840Y-130000000D03*
%TO.N,Net-(J3-Pin_19)*%
X135438840Y-130000000D03*
%TO.N,Net-(J3-Pin_18)*%
X136438840Y-130000000D03*
%TO.N,Net-(J3-Pin_5)*%
X142588840Y-127500000D03*
%TO.N,Net-(J3-Pin_4)*%
X143388843Y-127500000D03*
%TO.N,ESP32_EN*%
X167938840Y-55500000D03*
%TO.N,ESP32_IO0*%
X146438840Y-57500000D03*
X129438840Y-73000000D03*
%TO.N,3V3*%
X137837840Y-43800000D03*
X167938840Y-93600000D03*
%TO.N,ESP32_EN*%
X138936840Y-44201000D03*
X168836840Y-93000000D03*
%TO.N,CHG_STATUS*%
X114938840Y-67500000D03*
%TO.N,BAT_MONIT*%
X114438840Y-66500000D03*
%TO.N,3V3*%
X148438840Y-89000000D03*
X153438840Y-82500000D03*
%TD*%
D33*
%TO.N,GND*%
X158438840Y-126938840D02*
X158438840Y-117500000D01*
X165500000Y-134000000D02*
X158438840Y-126938840D01*
X167500000Y-134000000D02*
X165500000Y-134000000D01*
X152000000Y-110000000D02*
X151469420Y-110530580D01*
X151469420Y-110530580D02*
X150938840Y-110000000D01*
X155500000Y-92000000D02*
X155500000Y-91000000D01*
X155500000Y-101000000D02*
X155500000Y-92000000D01*
X159938840Y-105438840D02*
X156000000Y-101500000D01*
X156000000Y-101500000D02*
X155500000Y-101000000D01*
X159938840Y-105550000D02*
X159938840Y-105438840D01*
X151111160Y-105550000D02*
X159938840Y-105550000D01*
X149000000Y-103438840D02*
X151111160Y-105550000D01*
X149000000Y-103023660D02*
X149000000Y-103438840D01*
X149000000Y-103438840D02*
X146938840Y-105500000D01*
X147976340Y-102000000D02*
X149000000Y-103023660D01*
X151500000Y-137000000D02*
X147969420Y-140530580D01*
X143390022Y-147451182D02*
X136469420Y-140530580D01*
X147969420Y-140530580D02*
X136469420Y-140530580D01*
X162500000Y-64000000D02*
X165901340Y-60598660D01*
X165901340Y-60598660D02*
X165901340Y-54000000D01*
X146901340Y-79500000D02*
X149000000Y-79500000D01*
X145401340Y-81000000D02*
X146901340Y-79500000D01*
X137000000Y-72000000D02*
X137000000Y-83448660D01*
X134000000Y-67500000D02*
X134000000Y-69000000D01*
X134000000Y-69000000D02*
X137000000Y-72000000D01*
X137000000Y-83448660D02*
X140501340Y-86950000D01*
%TO.N,Net-(J1-SHIELD)*%
X166169840Y-147669840D02*
X166169840Y-142550000D01*
X166529840Y-148500000D02*
X166529840Y-148029840D01*
X166529840Y-148029840D02*
X166169840Y-147669840D01*
X157549840Y-148500000D02*
X166529840Y-148500000D01*
X157909840Y-144409840D02*
X160000000Y-146500000D01*
X157909840Y-142550000D02*
X157909840Y-144409840D01*
%TO.N,GND*%
X119938840Y-138798000D02*
X119938840Y-124000000D01*
X120039840Y-138899000D02*
X119938840Y-138798000D01*
X134837840Y-138899000D02*
X120039840Y-138899000D01*
X136469420Y-140530580D02*
X134837840Y-138899000D01*
X163837601Y-147451182D02*
X143390022Y-147451182D01*
X165438840Y-145849943D02*
X163837601Y-147451182D01*
X165438840Y-145500000D02*
X165438840Y-145849943D01*
X150938840Y-110000000D02*
X146938840Y-110000000D01*
X158438840Y-117500000D02*
X151469420Y-110530580D01*
X153938840Y-124000000D02*
X152438840Y-124000000D01*
X154438840Y-124500000D02*
X153938840Y-124000000D01*
X144401340Y-135537500D02*
X142438840Y-135537500D01*
X144438840Y-135500000D02*
X144401340Y-135537500D01*
X146500000Y-131000000D02*
X144438840Y-133061160D01*
X154938840Y-131000000D02*
X146500000Y-131000000D01*
X144438840Y-133061160D02*
X144438840Y-135500000D01*
X149438840Y-121000000D02*
X148938840Y-121000000D01*
X148938840Y-121000000D02*
X148938840Y-112000000D01*
X148938840Y-112000000D02*
X146938840Y-110000000D01*
X152438840Y-124000000D02*
X149438840Y-121000000D01*
X138438840Y-129500000D02*
X138438840Y-130500000D01*
X137438840Y-128500000D02*
X138438840Y-129500000D01*
X138438840Y-134037500D02*
X136938840Y-135537500D01*
X138438840Y-130500000D02*
X138438840Y-134037500D01*
X141438840Y-127500000D02*
X138438840Y-130500000D01*
%TO.N,3V3*%
X147438840Y-81037500D02*
X147476340Y-81000000D01*
X147438840Y-84000000D02*
X147438840Y-81037500D01*
X138687897Y-44802000D02*
X137837840Y-43951943D01*
X155465840Y-44802000D02*
X138687897Y-44802000D01*
X137837840Y-43951943D02*
X137837840Y-43800000D01*
X157663840Y-47000000D02*
X155465840Y-44802000D01*
X123213840Y-45500000D02*
X121713840Y-47000000D01*
X136137840Y-45500000D02*
X123213840Y-45500000D01*
X137837840Y-43800000D02*
X136137840Y-45500000D01*
%TO.N,Net-(Q6-B)*%
X140938840Y-76000000D02*
X140938840Y-84612500D01*
X141938840Y-75000000D02*
X140938840Y-76000000D01*
X146438840Y-75000000D02*
X141938840Y-75000000D01*
X147438840Y-76000000D02*
X146438840Y-75000000D01*
X147438840Y-77500000D02*
X147438840Y-76000000D01*
X140938840Y-84612500D02*
X140501340Y-85050000D01*
%TO.N,EPD_RST*%
X143038840Y-77500000D02*
X142038840Y-76500000D01*
X145438840Y-77500000D02*
X143038840Y-77500000D01*
%TO.N,Net-(J3-Pin_4)*%
X143438840Y-132000000D02*
X142438840Y-133000000D01*
X143388843Y-128600003D02*
X143438840Y-128650000D01*
X143388843Y-127500000D02*
X143388843Y-128600003D01*
X143438840Y-128650000D02*
X143438840Y-132000000D01*
%TO.N,Net-(J3-Pin_5)*%
X140938840Y-131500000D02*
X140938840Y-132462500D01*
X142465227Y-129973613D02*
X140938840Y-131500000D01*
X142465227Y-127623613D02*
X142465227Y-129973613D01*
X142588840Y-127500000D02*
X142465227Y-127623613D01*
X140938840Y-132462500D02*
X139938840Y-133462500D01*
%TO.N,BUTTON_A*%
X133938840Y-62067100D02*
X133938840Y-60500000D01*
X127438840Y-68567100D02*
X133938840Y-62067100D01*
X127438840Y-80000000D02*
X127438840Y-68567100D01*
X115438840Y-128725000D02*
X115438840Y-116500000D01*
X111438840Y-132725000D02*
X115438840Y-128725000D01*
%TO.N,BUTTON_B*%
X132438840Y-63000000D02*
X132438840Y-59500000D01*
X130938840Y-64500000D02*
X132438840Y-63000000D01*
X126539840Y-68899000D02*
X130938840Y-64500000D01*
X126539840Y-79899000D02*
X126539840Y-68899000D01*
X126438840Y-80000000D02*
X126539840Y-79899000D01*
X114163840Y-107275000D02*
X114438840Y-107000000D01*
X111438840Y-107275000D02*
X114163840Y-107275000D01*
%TO.N,3V3*%
X114438840Y-115500000D02*
X116438840Y-113500000D01*
X111438840Y-115500000D02*
X114438840Y-115500000D01*
X111438840Y-115500000D02*
X111438840Y-111725000D01*
X111438840Y-128275000D02*
X111438840Y-115500000D01*
%TO.N,BAT_MONIT*%
X117901340Y-111537500D02*
X117901340Y-119000000D01*
X117938840Y-108500000D02*
X117938840Y-111500000D01*
X110401340Y-100962500D02*
X117938840Y-108500000D01*
X117938840Y-111500000D02*
X117901340Y-111537500D01*
X110401340Y-70537500D02*
X110401340Y-100962500D01*
X114438840Y-66500000D02*
X110401340Y-70537500D01*
%TO.N,CHG_STATUS*%
X111438840Y-71000000D02*
X114938840Y-67500000D01*
X111438840Y-92750057D02*
X111438840Y-71000000D01*
X111437840Y-92751057D02*
X111438840Y-92750057D01*
X111437840Y-93248943D02*
X111437840Y-92751057D01*
X111438840Y-93249943D02*
X111437840Y-93248943D01*
X111537840Y-100599000D02*
X111438840Y-100500000D01*
X111438840Y-100500000D02*
X111438840Y-93249943D01*
X111537840Y-101166100D02*
X111537840Y-100599000D01*
X111772740Y-101401000D02*
X111537840Y-101166100D01*
X122438840Y-111500000D02*
X112339840Y-101401000D01*
X122438840Y-126000000D02*
X122438840Y-111500000D01*
X112339840Y-101401000D02*
X111772740Y-101401000D01*
%TO.N,DPAD_RIGHT*%
X128438840Y-57500000D02*
X128438840Y-49275000D01*
X130777316Y-59500000D02*
X130438840Y-59500000D01*
X130438840Y-59500000D02*
X128438840Y-57500000D01*
X131858078Y-58419238D02*
X130777316Y-59500000D01*
X128438840Y-49275000D02*
X126163840Y-47000000D01*
%TO.N,DPAD_DOWN*%
X152505940Y-64500000D02*
X135938840Y-64500000D01*
X164839840Y-76833900D02*
X152505940Y-64500000D01*
X168438840Y-107275000D02*
X164839840Y-103676000D01*
X164839840Y-103676000D02*
X164839840Y-76833900D01*
%TO.N,DPAD_UP*%
X150438840Y-65500000D02*
X135438840Y-65500000D01*
%TO.N,ESP32_IO0*%
X129438840Y-70000000D02*
X129438840Y-73000000D01*
X144401340Y-57500000D02*
X141938840Y-57500000D01*
X141938840Y-57500000D02*
X129438840Y-70000000D01*
%TO.N,DPAD_UP*%
X164438840Y-77000000D02*
X152938840Y-65500000D01*
X164438840Y-128225000D02*
X164438840Y-77000000D01*
X152938840Y-65500000D02*
X150438840Y-65500000D01*
X168438840Y-132225000D02*
X164438840Y-128225000D01*
%TO.N,3V3*%
X168438840Y-118000000D02*
X165438840Y-118000000D01*
X168438840Y-118000000D02*
X168438840Y-127775000D01*
X168438840Y-111725000D02*
X168438840Y-118000000D01*
%TO.N,VBat+*%
X167438840Y-150500000D02*
X167438840Y-139500000D01*
X121039840Y-150601000D02*
X167337840Y-150601000D01*
X167337840Y-150601000D02*
X167438840Y-150500000D01*
X167438840Y-139500000D02*
X166938840Y-139000000D01*
X118438840Y-148000000D02*
X121039840Y-150601000D01*
X118438840Y-132500000D02*
X118438840Y-148000000D01*
%TO.N,BAT_MONIT*%
X117938840Y-130000000D02*
X118438840Y-130500000D01*
X117938840Y-124000000D02*
X117938840Y-130000000D01*
X117938840Y-119037500D02*
X117901340Y-119000000D01*
X117938840Y-124000000D02*
X117938840Y-119037500D01*
%TO.N,Net-(U2-~{CHG})*%
X122438840Y-137500000D02*
X122438840Y-128000000D01*
X147938840Y-137500000D02*
X122438840Y-137500000D01*
X152938840Y-132500000D02*
X147938840Y-137500000D01*
%TO.N,DPAD_LEFT*%
X140938840Y-47000000D02*
X140438840Y-47500000D01*
X153213840Y-47000000D02*
X140938840Y-47000000D01*
%TO.N,SD_DAT0*%
X123438840Y-79500000D02*
X125938840Y-77000000D01*
X123438840Y-82500000D02*
X123438840Y-79500000D01*
%TO.N,SD_CMD*%
X119938840Y-79500000D02*
X119938840Y-72500000D01*
X116938840Y-82500000D02*
X119938840Y-79500000D01*
%TO.N,SD_DAT3*%
X115938840Y-73500000D02*
X117438840Y-72000000D01*
X115938840Y-82500000D02*
X115938840Y-73500000D01*
%TO.N,SD_DAT2*%
X112438840Y-72000000D02*
X114938840Y-69500000D01*
X112438840Y-73500000D02*
X112438840Y-72000000D01*
X112438840Y-80000000D02*
X112438840Y-73500000D01*
X114938840Y-82500000D02*
X112438840Y-80000000D01*
%TO.N,SD_CLK*%
X122438840Y-73000000D02*
X124938840Y-70500000D01*
X122438840Y-84000000D02*
X122438840Y-73000000D01*
%TO.N,SD_DAT1*%
X129938840Y-78500000D02*
X129938840Y-77000000D01*
X124438840Y-84000000D02*
X129938840Y-78500000D01*
%TO.N,SD_DAT0*%
X123438840Y-84000000D02*
X123438840Y-82500000D01*
%TO.N,Net-(J7-VDD)*%
X111938840Y-101000000D02*
X111938840Y-93100000D01*
X142438840Y-95000000D02*
X136938840Y-95000000D01*
X130938840Y-101000000D02*
X111938840Y-101000000D01*
X136938840Y-95000000D02*
X130938840Y-101000000D01*
X111938840Y-93100000D02*
X112038840Y-93000000D01*
%TO.N,SD_CMD*%
X116938840Y-84000000D02*
X116938840Y-82500000D01*
%TO.N,SD_DAT3*%
X115938840Y-84000000D02*
X115938840Y-82500000D01*
%TO.N,SD_DAT2*%
X114938840Y-84000000D02*
X114938840Y-82500000D01*
%TO.N,Net-(J1-CC1)*%
X156438840Y-144000000D02*
X154938840Y-144000000D01*
X156438840Y-139500000D02*
X156438840Y-144000000D01*
X159438840Y-139000000D02*
X156938840Y-139000000D01*
X161438840Y-137000000D02*
X159438840Y-139000000D01*
X156938840Y-139000000D02*
X156438840Y-139500000D01*
%TO.N,ESP32_DP*%
X163998840Y-139560000D02*
X163998840Y-146440000D01*
X163998840Y-146440000D02*
X163588658Y-146850182D01*
X162438840Y-138000000D02*
X163998840Y-139560000D01*
X161938840Y-138000000D02*
X162438840Y-138000000D01*
%TO.N,ESP32_DN*%
X162697840Y-144500000D02*
X163397840Y-143800000D01*
X160938840Y-144500000D02*
X162697840Y-144500000D01*
X161438840Y-139500000D02*
X160938840Y-140000000D01*
X160938840Y-140000000D02*
X160938840Y-144500000D01*
%TO.N,Net-(J1-SHIELD)*%
X131938840Y-139500000D02*
X140938840Y-148500000D01*
X140938840Y-148500000D02*
X157549840Y-148500000D01*
%TO.N,/E_ink_HAT/PREVGL*%
X132938840Y-101350000D02*
X132938840Y-120000000D01*
X134788840Y-99500000D02*
X132938840Y-101350000D01*
X132938840Y-120000000D02*
X130438840Y-122500000D01*
%TO.N,/E_ink_HAT/PREVGH*%
X134788840Y-112350000D02*
X134788840Y-108000000D01*
X134938840Y-112500000D02*
X134788840Y-112350000D01*
%TO.N,/E_ink_HAT/VCC_EPD_OUT*%
X149938840Y-100500000D02*
X148938840Y-99500000D01*
X148938840Y-99500000D02*
X146088840Y-99500000D01*
%TO.N,/E_ink_HAT/GDR*%
X148438840Y-107500000D02*
X146938840Y-107500000D01*
X148938840Y-108000000D02*
X148438840Y-107500000D01*
%TO.N,/E_ink_HAT/RESE*%
X146938840Y-114500000D02*
X146938840Y-112000000D01*
%TO.N,Net-(D5-K)*%
X143788840Y-99500000D02*
X143788840Y-102687500D01*
X142976340Y-103500000D02*
X142976340Y-107982500D01*
X142976340Y-107982500D02*
X142788840Y-108170000D01*
%TO.N,Net-(D4-K)*%
X140901340Y-103500000D02*
X138088840Y-103500000D01*
X138088840Y-99500000D02*
X138088840Y-103500000D01*
%TO.N,/E_ink_HAT/VCC_EPD_OUT*%
X146088840Y-101812500D02*
X145901340Y-102000000D01*
X146088840Y-99500000D02*
X146088840Y-101812500D01*
%TO.N,Net-(D5-K)*%
X143788840Y-102687500D02*
X142976340Y-103500000D01*
%TO.N,/E_ink_HAT/RESE*%
X144608840Y-112000000D02*
X146938840Y-112000000D01*
X143438840Y-110830000D02*
X144608840Y-112000000D01*
%TO.N,/E_ink_HAT/VCC_EPD_OUT*%
X146088840Y-99500000D02*
X146088840Y-96350000D01*
%TO.N,EPD_RST*%
X143938840Y-83500000D02*
X144438840Y-84000000D01*
%TO.N,/E_ink_HAT/VCC_EPD_OUT*%
X146088840Y-96350000D02*
X146438840Y-96000000D01*
%TO.N,EPD_RST*%
X144438840Y-84000000D02*
X145438840Y-84000000D01*
%TO.N,Net-(D5-K)*%
X142618840Y-108000000D02*
X142788840Y-108170000D01*
X138088840Y-108000000D02*
X142618840Y-108000000D01*
%TO.N,Net-(Q5-G)*%
X150438840Y-86000000D02*
X150438840Y-89950000D01*
%TO.N,EPD_RST*%
X143938840Y-79000000D02*
X143938840Y-83500000D01*
%TO.N,Net-(Q5-G)*%
X150438840Y-89950000D02*
X147388840Y-93000000D01*
%TO.N,EPD_RST*%
X145438840Y-77500000D02*
X143938840Y-79000000D01*
%TO.N,Net-(R18-Pad1)*%
X152438840Y-77500000D02*
X152438840Y-80500000D01*
%TO.N,Net-(Q6-B)*%
X150438840Y-77500000D02*
X147438840Y-77500000D01*
%TO.N,3V3*%
X147476340Y-81000000D02*
X149938840Y-81000000D01*
%TO.N,/E_ink_HAT/GDR*%
X144758840Y-107500000D02*
X146938840Y-107500000D01*
%TO.N,3V3*%
X149938840Y-81000000D02*
X150438840Y-80500000D01*
X147438840Y-84000000D02*
X150438840Y-84000000D01*
%TO.N,Net-(Q5-G)*%
X142376340Y-86000000D02*
X150438840Y-86000000D01*
%TO.N,/E_ink_HAT/GDR*%
X144088840Y-108170000D02*
X144758840Y-107500000D01*
%TO.N,Net-(J3-Pin_24)*%
X127901340Y-132500000D02*
X126938840Y-133462500D01*
X128488838Y-131950002D02*
X127938840Y-132500000D01*
X129938840Y-131950002D02*
X128488838Y-131950002D01*
X132888842Y-129000000D02*
X129938840Y-131950002D01*
X127938840Y-132500000D02*
X127901340Y-132500000D01*
%TO.N,Net-(J3-Pin_22)*%
X129976340Y-133462500D02*
X129438840Y-133462500D01*
X132938840Y-130500000D02*
X129976340Y-133462500D01*
X132938840Y-130000000D02*
X132938840Y-130500000D01*
%TO.N,Net-(J3-Pin_20)*%
X132438840Y-132000000D02*
X132438840Y-133462500D01*
X134438840Y-130000000D02*
X132438840Y-132000000D01*
%TO.N,Net-(J3-Pin_19)*%
X134438840Y-131500000D02*
X134438840Y-133462500D01*
X135438840Y-130000000D02*
X135438840Y-130500000D01*
X135438840Y-130500000D02*
X134438840Y-131500000D01*
X134438840Y-133462500D02*
X134901340Y-133000000D01*
%TO.N,Net-(J3-Pin_18)*%
X136438840Y-130000000D02*
X136438840Y-133000000D01*
%TO.N,ESP32_EN*%
X167976340Y-55462500D02*
X167938840Y-55500000D01*
X167976340Y-54000000D02*
X167976340Y-55462500D01*
%TO.N,ESP32_IO0*%
X146401340Y-57537500D02*
X146438840Y-57500000D01*
X144438840Y-57537500D02*
X146401340Y-57537500D01*
%TO.N,ESP32_EN*%
X167976340Y-54000000D02*
X169436840Y-54000000D01*
X169436840Y-54000000D02*
X169436840Y-92400000D01*
X169436840Y-92400000D02*
X168836840Y-93000000D01*
X169436840Y-44500000D02*
X169436840Y-54000000D01*
X168938840Y-44002000D02*
X169436840Y-44500000D01*
X139135840Y-44002000D02*
X168938840Y-44002000D01*
X138936840Y-44201000D02*
X139135840Y-44002000D01*
%TO.N,3V3*%
X169338840Y-93600000D02*
X167938840Y-93600000D01*
X169837840Y-93101000D02*
X169338840Y-93600000D01*
X169837840Y-43899000D02*
X169837840Y-93101000D01*
X169539840Y-43601000D02*
X169837840Y-43899000D01*
X138036840Y-43601000D02*
X169539840Y-43601000D01*
X137837840Y-43800000D02*
X138036840Y-43601000D01*
X145488840Y-93000000D02*
X145488840Y-91950000D01*
X145488840Y-91950000D02*
X148438840Y-89000000D01*
X148976340Y-82500000D02*
X147476340Y-81000000D01*
X153438840Y-82500000D02*
X148976340Y-82500000D01*
%TD*%
%TA.AperFunction,Conductor*%
%TO.N,GND*%
G36*
X149325578Y-78120185D02*
G01*
X149371333Y-78172989D01*
X149376243Y-78185492D01*
X149404026Y-78269334D01*
X149496128Y-78418656D01*
X149620184Y-78542712D01*
X149769506Y-78634814D01*
X149936043Y-78689999D01*
X150038831Y-78700500D01*
X150838848Y-78700499D01*
X150838856Y-78700498D01*
X150838859Y-78700498D01*
X150895142Y-78694748D01*
X150941637Y-78689999D01*
X151108174Y-78634814D01*
X151257496Y-78542712D01*
X151351159Y-78449049D01*
X151412482Y-78415564D01*
X151482174Y-78420548D01*
X151526521Y-78449049D01*
X151620184Y-78542712D01*
X151769506Y-78634814D01*
X151769507Y-78634814D01*
X151775653Y-78638605D01*
X151774546Y-78640399D01*
X151819177Y-78679687D01*
X151838340Y-78745908D01*
X151838340Y-79254091D01*
X151818655Y-79321130D01*
X151774571Y-79359641D01*
X151775653Y-79361395D01*
X151769507Y-79365185D01*
X151769506Y-79365186D01*
X151740466Y-79383098D01*
X151620182Y-79457289D01*
X151526521Y-79550951D01*
X151465198Y-79584436D01*
X151395506Y-79579452D01*
X151351159Y-79550951D01*
X151257497Y-79457289D01*
X151257496Y-79457288D01*
X151119332Y-79372068D01*
X151108176Y-79365187D01*
X151108171Y-79365185D01*
X151106702Y-79364698D01*
X150941637Y-79310001D01*
X150941635Y-79310000D01*
X150838850Y-79299500D01*
X150038838Y-79299500D01*
X150038820Y-79299501D01*
X149936043Y-79310000D01*
X149936040Y-79310001D01*
X149769508Y-79365185D01*
X149769503Y-79365187D01*
X149620182Y-79457289D01*
X149496129Y-79581342D01*
X149404027Y-79730663D01*
X149404025Y-79730668D01*
X149381019Y-79800097D01*
X149348841Y-79897203D01*
X149348841Y-79897204D01*
X149348840Y-79897204D01*
X149338340Y-79999983D01*
X149338340Y-80275500D01*
X149318655Y-80342539D01*
X149265851Y-80388294D01*
X149214340Y-80399500D01*
X148652425Y-80399500D01*
X148585386Y-80379815D01*
X148539631Y-80327011D01*
X148534719Y-80314504D01*
X148498654Y-80205666D01*
X148406552Y-80056344D01*
X148282496Y-79932288D01*
X148146167Y-79848200D01*
X148133176Y-79840187D01*
X148133171Y-79840185D01*
X148131702Y-79839698D01*
X147966637Y-79785001D01*
X147966635Y-79785000D01*
X147863850Y-79774500D01*
X147088838Y-79774500D01*
X147088820Y-79774501D01*
X146986043Y-79785000D01*
X146986040Y-79785001D01*
X146819508Y-79840185D01*
X146819503Y-79840187D01*
X146670182Y-79932289D01*
X146546128Y-80056343D01*
X146546123Y-80056349D01*
X146544081Y-80059661D01*
X146542087Y-80061453D01*
X146541647Y-80062011D01*
X146541551Y-80061935D01*
X146492131Y-80106383D01*
X146423168Y-80117602D01*
X146359087Y-80089755D01*
X146333008Y-80059656D01*
X146331159Y-80056659D01*
X146331156Y-80056655D01*
X146207185Y-79932684D01*
X146057964Y-79840643D01*
X146057959Y-79840641D01*
X145891537Y-79785494D01*
X145891530Y-79785493D01*
X145788826Y-79775000D01*
X145651340Y-79775000D01*
X145651340Y-82224999D01*
X145788812Y-82224999D01*
X145788826Y-82224998D01*
X145891537Y-82214505D01*
X146057959Y-82159358D01*
X146057964Y-82159356D01*
X146207185Y-82067315D01*
X146331158Y-81943342D01*
X146333005Y-81940348D01*
X146334809Y-81938724D01*
X146335638Y-81937677D01*
X146335816Y-81937818D01*
X146384950Y-81893621D01*
X146453913Y-81882396D01*
X146517996Y-81910236D01*
X146544083Y-81940341D01*
X146546128Y-81943656D01*
X146670184Y-82067712D01*
X146779437Y-82135099D01*
X146826161Y-82187047D01*
X146838340Y-82240638D01*
X146838340Y-82754091D01*
X146818655Y-82821130D01*
X146774571Y-82859641D01*
X146775653Y-82861395D01*
X146769507Y-82865185D01*
X146769506Y-82865186D01*
X146671259Y-82925784D01*
X146620182Y-82957289D01*
X146526521Y-83050951D01*
X146465198Y-83084436D01*
X146395506Y-83079452D01*
X146351159Y-83050951D01*
X146257497Y-82957289D01*
X146257496Y-82957288D01*
X146130870Y-82879185D01*
X146108176Y-82865187D01*
X146108171Y-82865185D01*
X146106702Y-82864698D01*
X145941637Y-82810001D01*
X145941635Y-82810000D01*
X145838850Y-82799500D01*
X145038838Y-82799500D01*
X145038820Y-82799501D01*
X144936043Y-82810000D01*
X144936040Y-82810001D01*
X144769508Y-82865185D01*
X144769506Y-82865185D01*
X144769506Y-82865186D01*
X144769502Y-82865187D01*
X144769501Y-82865189D01*
X144728435Y-82890518D01*
X144661042Y-82908957D01*
X144594379Y-82888033D01*
X144549611Y-82834391D01*
X144539340Y-82784978D01*
X144539340Y-82254854D01*
X144559025Y-82187815D01*
X144611829Y-82142060D01*
X144680987Y-82132116D01*
X144728438Y-82149316D01*
X144744713Y-82159355D01*
X144744720Y-82159358D01*
X144911142Y-82214505D01*
X144911149Y-82214506D01*
X145013859Y-82224999D01*
X145151339Y-82224999D01*
X145151340Y-82224998D01*
X145151340Y-79775000D01*
X145013867Y-79775000D01*
X145013852Y-79775001D01*
X144911142Y-79785494D01*
X144744720Y-79840641D01*
X144744708Y-79840647D01*
X144728434Y-79850685D01*
X144661042Y-79869124D01*
X144594378Y-79848200D01*
X144549610Y-79794557D01*
X144539340Y-79745145D01*
X144539340Y-79300096D01*
X144559025Y-79233057D01*
X144575655Y-79212419D01*
X145051256Y-78736817D01*
X145112579Y-78703333D01*
X145138937Y-78700499D01*
X145838842Y-78700499D01*
X145838848Y-78700499D01*
X145941637Y-78689999D01*
X146108174Y-78634814D01*
X146257496Y-78542712D01*
X146351159Y-78449049D01*
X146412482Y-78415564D01*
X146482174Y-78420548D01*
X146526521Y-78449049D01*
X146620184Y-78542712D01*
X146769506Y-78634814D01*
X146936043Y-78689999D01*
X147038831Y-78700500D01*
X147838848Y-78700499D01*
X147838856Y-78700498D01*
X147838859Y-78700498D01*
X147895142Y-78694748D01*
X147941637Y-78689999D01*
X148108174Y-78634814D01*
X148257496Y-78542712D01*
X148381552Y-78418656D01*
X148473654Y-78269334D01*
X148501435Y-78185495D01*
X148541208Y-78128051D01*
X148605724Y-78101228D01*
X148619141Y-78100500D01*
X149258539Y-78100500D01*
X149325578Y-78120185D01*
G37*
%TD.AperFunction*%
%TA.AperFunction,Conductor*%
G36*
X170881379Y-43520185D02*
G01*
X170927134Y-43572989D01*
X170938340Y-43624500D01*
X170938340Y-151875500D01*
X170918655Y-151942539D01*
X170865851Y-151988294D01*
X170814340Y-151999500D01*
X108063340Y-151999500D01*
X107996301Y-151979815D01*
X107950546Y-151927011D01*
X107939340Y-151875500D01*
X107939340Y-101041554D01*
X109800838Y-101041554D01*
X109841763Y-101194286D01*
X109841764Y-101194287D01*
X109863413Y-101231784D01*
X109886021Y-101270943D01*
X109920821Y-101331217D01*
X110039689Y-101450085D01*
X110039695Y-101450090D01*
X114577424Y-105987819D01*
X114610909Y-106049142D01*
X114605925Y-106118834D01*
X114564053Y-106174767D01*
X114498589Y-106199184D01*
X114489743Y-106199500D01*
X114359995Y-106199500D01*
X114205350Y-106230261D01*
X114205338Y-106230264D01*
X114059667Y-106290602D01*
X114059654Y-106290609D01*
X113928551Y-106378210D01*
X113928547Y-106378213D01*
X113817053Y-106489707D01*
X113817050Y-106489711D01*
X113730401Y-106619391D01*
X113676789Y-106664196D01*
X113627299Y-106674500D01*
X112939058Y-106674500D01*
X112872019Y-106654815D01*
X112833519Y-106615597D01*
X112816082Y-106587327D01*
X112781552Y-106531344D01*
X112657496Y-106407288D01*
X112508174Y-106315186D01*
X112341637Y-106260001D01*
X112341635Y-106260000D01*
X112238850Y-106249500D01*
X110638838Y-106249500D01*
X110638821Y-106249501D01*
X110536043Y-106260000D01*
X110536040Y-106260001D01*
X110369508Y-106315185D01*
X110369503Y-106315187D01*
X110220182Y-106407289D01*
X110096129Y-106531342D01*
X110004027Y-106680663D01*
X110004026Y-106680666D01*
X109948841Y-106847203D01*
X109948841Y-106847204D01*
X109948840Y-106847204D01*
X109938340Y-106949983D01*
X109938340Y-107600001D01*
X109938341Y-107600019D01*
X109948840Y-107702796D01*
X109948841Y-107702799D01*
X109992508Y-107834575D01*
X110004026Y-107869334D01*
X110096128Y-108018656D01*
X110220184Y-108142712D01*
X110369506Y-108234814D01*
X110536043Y-108289999D01*
X110638831Y-108300500D01*
X112238848Y-108300499D01*
X112341637Y-108289999D01*
X112508174Y-108234814D01*
X112657496Y-108142712D01*
X112781552Y-108018656D01*
X112833520Y-107934402D01*
X112885467Y-107887679D01*
X112939058Y-107875500D01*
X114077171Y-107875500D01*
X114077187Y-107875501D01*
X114084783Y-107875501D01*
X114242894Y-107875501D01*
X114242897Y-107875501D01*
X114395625Y-107834577D01*
X114425873Y-107817112D01*
X114487874Y-107800500D01*
X114517684Y-107800500D01*
X114517685Y-107800499D01*
X114672337Y-107769737D01*
X114818019Y-107709394D01*
X114949129Y-107621789D01*
X115060629Y-107510289D01*
X115148234Y-107379179D01*
X115208577Y-107233497D01*
X115239340Y-107078842D01*
X115239340Y-106949097D01*
X115259025Y-106882058D01*
X115311829Y-106836303D01*
X115380987Y-106826359D01*
X115444543Y-106855384D01*
X115451021Y-106861416D01*
X117302021Y-108712416D01*
X117335506Y-108773739D01*
X117338340Y-108800097D01*
X117338340Y-111302163D01*
X117334115Y-111334256D01*
X117300839Y-111458443D01*
X117300839Y-111626546D01*
X117300840Y-111626559D01*
X117300840Y-112940438D01*
X117281155Y-113007477D01*
X117228351Y-113053232D01*
X117159193Y-113063176D01*
X117095637Y-113034151D01*
X117073738Y-113009330D01*
X117060626Y-112989707D01*
X116949132Y-112878213D01*
X116949128Y-112878210D01*
X116818025Y-112790609D01*
X116818012Y-112790602D01*
X116672341Y-112730264D01*
X116672329Y-112730261D01*
X116517685Y-112699500D01*
X116517682Y-112699500D01*
X116359998Y-112699500D01*
X116359995Y-112699500D01*
X116205350Y-112730261D01*
X116205338Y-112730264D01*
X116059667Y-112790602D01*
X116059654Y-112790609D01*
X115928551Y-112878210D01*
X115928547Y-112878213D01*
X115817053Y-112989707D01*
X115817050Y-112989711D01*
X115729449Y-113120814D01*
X115729442Y-113120827D01*
X115669104Y-113266498D01*
X115669101Y-113266508D01*
X115638201Y-113421850D01*
X115605816Y-113483761D01*
X115604265Y-113485339D01*
X114226424Y-114863181D01*
X114165101Y-114896666D01*
X114138743Y-114899500D01*
X112163340Y-114899500D01*
X112096301Y-114879815D01*
X112050546Y-114827011D01*
X112039340Y-114775500D01*
X112039340Y-112874499D01*
X112059025Y-112807460D01*
X112111829Y-112761705D01*
X112163340Y-112750499D01*
X112238842Y-112750499D01*
X112238848Y-112750499D01*
X112341637Y-112739999D01*
X112508174Y-112684814D01*
X112657496Y-112592712D01*
X112781552Y-112468656D01*
X112873654Y-112319334D01*
X112928839Y-112152797D01*
X112939340Y-112050009D01*
X112939339Y-111399992D01*
X112932257Y-111330668D01*
X112928839Y-111297203D01*
X112928838Y-111297200D01*
X112890446Y-111181342D01*
X112873654Y-111130666D01*
X112781552Y-110981344D01*
X112657496Y-110857288D01*
X112508174Y-110765186D01*
X112341637Y-110710001D01*
X112341635Y-110710000D01*
X112238850Y-110699500D01*
X110638838Y-110699500D01*
X110638821Y-110699501D01*
X110536043Y-110710000D01*
X110536040Y-110710001D01*
X110369508Y-110765185D01*
X110369503Y-110765187D01*
X110220182Y-110857289D01*
X110096129Y-110981342D01*
X110004027Y-111130663D01*
X110004025Y-111130668D01*
X109976189Y-111214670D01*
X109948841Y-111297203D01*
X109948841Y-111297204D01*
X109948840Y-111297204D01*
X109938340Y-111399983D01*
X109938340Y-112050001D01*
X109938341Y-112050019D01*
X109948840Y-112152796D01*
X109948841Y-112152799D01*
X110004025Y-112319331D01*
X110004027Y-112319336D01*
X110034483Y-112368713D01*
X110096128Y-112468656D01*
X110220184Y-112592712D01*
X110369506Y-112684814D01*
X110536043Y-112739999D01*
X110638831Y-112750500D01*
X110714340Y-112750499D01*
X110781378Y-112770183D01*
X110827134Y-112822986D01*
X110838340Y-112874499D01*
X110838340Y-127125500D01*
X110818655Y-127192539D01*
X110765851Y-127238294D01*
X110714342Y-127249500D01*
X110638839Y-127249500D01*
X110638820Y-127249501D01*
X110536043Y-127260000D01*
X110536040Y-127260001D01*
X110369508Y-127315185D01*
X110369503Y-127315187D01*
X110220182Y-127407289D01*
X110096129Y-127531342D01*
X110004027Y-127680663D01*
X110004025Y-127680668D01*
X109986518Y-127733501D01*
X109948841Y-127847203D01*
X109948841Y-127847204D01*
X109948840Y-127847204D01*
X109938340Y-127949983D01*
X109938340Y-128600001D01*
X109938341Y-128600019D01*
X109948840Y-128702796D01*
X109948841Y-128702799D01*
X109987233Y-128818656D01*
X110004026Y-128869334D01*
X110096128Y-129018656D01*
X110220184Y-129142712D01*
X110369506Y-129234814D01*
X110536043Y-129289999D01*
X110638831Y-129300500D01*
X112238848Y-129300499D01*
X112341637Y-129289999D01*
X112508174Y-129234814D01*
X112657496Y-129142712D01*
X112781552Y-129018656D01*
X112873654Y-128869334D01*
X112928839Y-128702797D01*
X112939340Y-128600009D01*
X112939339Y-127949992D01*
X112928839Y-127847203D01*
X112873654Y-127680666D01*
X112781552Y-127531344D01*
X112657496Y-127407288D01*
X112560077Y-127347200D01*
X112508176Y-127315187D01*
X112508171Y-127315185D01*
X112506702Y-127314698D01*
X112341637Y-127260001D01*
X112341635Y-127260000D01*
X112238856Y-127249500D01*
X112238849Y-127249500D01*
X112163340Y-127249500D01*
X112096301Y-127229815D01*
X112050546Y-127177011D01*
X112039340Y-127125500D01*
X112039340Y-116224500D01*
X112059025Y-116157461D01*
X112111829Y-116111706D01*
X112163340Y-116100500D01*
X114359779Y-116100500D01*
X114359783Y-116100501D01*
X114517897Y-116100501D01*
X114536581Y-116095494D01*
X114551204Y-116095101D01*
X114571402Y-116100445D01*
X114592289Y-116100942D01*
X114604497Y-116109203D01*
X114618749Y-116112975D01*
X114632850Y-116128390D01*
X114650154Y-116140101D01*
X114655958Y-116153653D01*
X114665907Y-116164530D01*
X114669435Y-116185121D01*
X114677661Y-116204328D01*
X114675462Y-116220299D01*
X114677707Y-116233396D01*
X114671719Y-116247498D01*
X114669944Y-116260394D01*
X114670871Y-116260676D01*
X114669101Y-116266510D01*
X114638340Y-116421153D01*
X114638340Y-116578846D01*
X114669101Y-116733489D01*
X114669104Y-116733501D01*
X114729442Y-116879172D01*
X114729449Y-116879185D01*
X114817442Y-117010874D01*
X114838320Y-117077551D01*
X114838340Y-117079765D01*
X114838340Y-128424902D01*
X114818655Y-128491941D01*
X114802021Y-128512583D01*
X111651422Y-131663181D01*
X111590099Y-131696666D01*
X111563741Y-131699500D01*
X110638838Y-131699500D01*
X110638820Y-131699501D01*
X110536043Y-131710000D01*
X110536040Y-131710001D01*
X110369508Y-131765185D01*
X110369503Y-131765187D01*
X110220182Y-131857289D01*
X110096129Y-131981342D01*
X110004027Y-132130663D01*
X110004025Y-132130668D01*
X109980342Y-132202139D01*
X109948841Y-132297203D01*
X109948841Y-132297204D01*
X109948840Y-132297204D01*
X109938340Y-132399983D01*
X109938340Y-133050001D01*
X109938341Y-133050019D01*
X109948840Y-133152796D01*
X109948841Y-133152799D01*
X109982022Y-133252930D01*
X110004026Y-133319334D01*
X110096128Y-133468656D01*
X110220184Y-133592712D01*
X110369506Y-133684814D01*
X110536043Y-133739999D01*
X110638831Y-133750500D01*
X112238848Y-133750499D01*
X112341637Y-133739999D01*
X112508174Y-133684814D01*
X112657496Y-133592712D01*
X112781552Y-133468656D01*
X112873654Y-133319334D01*
X112928839Y-133152797D01*
X112939340Y-133050009D01*
X112939339Y-132399992D01*
X112938082Y-132387690D01*
X112928839Y-132297203D01*
X112918668Y-132266510D01*
X112899889Y-132209840D01*
X112897488Y-132140016D01*
X112929913Y-132083160D01*
X115807553Y-129205521D01*
X115807556Y-129205520D01*
X115919360Y-129093716D01*
X115969479Y-129006904D01*
X115998417Y-128956785D01*
X116039340Y-128804058D01*
X116039340Y-128645943D01*
X116039340Y-117079765D01*
X116059025Y-117012726D01*
X116060238Y-117010874D01*
X116148230Y-116879185D01*
X116148230Y-116879184D01*
X116148234Y-116879179D01*
X116208577Y-116733497D01*
X116239340Y-116578842D01*
X116239340Y-116421158D01*
X116239340Y-116421155D01*
X116239339Y-116421153D01*
X116208578Y-116266510D01*
X116208577Y-116266503D01*
X116189439Y-116220299D01*
X116148237Y-116120827D01*
X116148230Y-116120814D01*
X116060629Y-115989711D01*
X116060626Y-115989707D01*
X115949132Y-115878213D01*
X115949128Y-115878210D01*
X115818025Y-115790609D01*
X115818012Y-115790602D01*
X115672341Y-115730264D01*
X115672329Y-115730261D01*
X115517685Y-115699500D01*
X115517682Y-115699500D01*
X115387936Y-115699500D01*
X115320897Y-115679815D01*
X115275142Y-115627011D01*
X115265198Y-115557853D01*
X115294223Y-115494297D01*
X115300255Y-115487819D01*
X115666288Y-115121786D01*
X116453502Y-114334572D01*
X116514823Y-114301089D01*
X116516990Y-114300638D01*
X116574925Y-114289113D01*
X116672337Y-114269737D01*
X116818019Y-114209394D01*
X116949129Y-114121789D01*
X117060629Y-114010289D01*
X117073737Y-113990670D01*
X117127349Y-113945866D01*
X117196674Y-113937157D01*
X117259702Y-113967312D01*
X117296421Y-114026754D01*
X117300840Y-114059561D01*
X117300840Y-117736232D01*
X117281155Y-117803271D01*
X117241938Y-117841769D01*
X117146263Y-117900781D01*
X117095182Y-117932289D01*
X116971129Y-118056342D01*
X116879027Y-118205663D01*
X116879025Y-118205668D01*
X116878955Y-118205880D01*
X116823841Y-118372203D01*
X116823841Y-118372204D01*
X116823840Y-118372204D01*
X116813340Y-118474983D01*
X116813340Y-119525001D01*
X116813341Y-119525019D01*
X116823840Y-119627796D01*
X116823841Y-119627799D01*
X116864754Y-119751265D01*
X116879026Y-119794334D01*
X116971128Y-119943656D01*
X117095184Y-120067712D01*
X117244506Y-120159814D01*
X117253338Y-120162740D01*
X117310784Y-120202508D01*
X117337611Y-120267022D01*
X117338340Y-120280448D01*
X117338340Y-122754091D01*
X117318655Y-122821130D01*
X117274571Y-122859641D01*
X117275653Y-122861395D01*
X117269507Y-122865185D01*
X117269506Y-122865186D01*
X117246820Y-122879179D01*
X117120182Y-122957289D01*
X116996129Y-123081342D01*
X116904027Y-123230663D01*
X116904025Y-123230668D01*
X116903955Y-123230880D01*
X116848841Y-123397203D01*
X116848841Y-123397204D01*
X116848840Y-123397204D01*
X116838340Y-123499983D01*
X116838340Y-124500001D01*
X116838341Y-124500019D01*
X116848840Y-124602796D01*
X116848841Y-124602799D01*
X116903955Y-124769119D01*
X116904026Y-124769334D01*
X116996128Y-124918656D01*
X117120184Y-125042712D01*
X117269506Y-125134814D01*
X117269507Y-125134814D01*
X117275653Y-125138605D01*
X117274546Y-125140399D01*
X117319177Y-125179687D01*
X117338340Y-125245908D01*
X117338340Y-129739867D01*
X117319880Y-129804961D01*
X117304027Y-129830663D01*
X117304026Y-129830665D01*
X117304026Y-129830666D01*
X117248841Y-129997203D01*
X117248841Y-129997204D01*
X117248840Y-129997204D01*
X117238340Y-130099983D01*
X117238340Y-130900001D01*
X117238341Y-130900019D01*
X117248840Y-131002796D01*
X117248841Y-131002799D01*
X117254369Y-131019480D01*
X117304026Y-131169334D01*
X117392752Y-131313183D01*
X117396129Y-131318657D01*
X117489791Y-131412319D01*
X117523276Y-131473642D01*
X117518292Y-131543334D01*
X117489791Y-131587681D01*
X117396129Y-131681342D01*
X117304027Y-131830663D01*
X117304026Y-131830666D01*
X117248841Y-131997203D01*
X117248841Y-131997204D01*
X117248840Y-131997204D01*
X117238340Y-132099983D01*
X117238340Y-132900001D01*
X117238341Y-132900019D01*
X117248840Y-133002796D01*
X117248841Y-133002799D01*
X117298546Y-133152796D01*
X117304026Y-133169334D01*
X117396128Y-133318656D01*
X117520184Y-133442712D01*
X117669506Y-133534814D01*
X117753345Y-133562595D01*
X117810788Y-133602366D01*
X117837612Y-133666882D01*
X117838340Y-133680300D01*
X117838340Y-147913330D01*
X117838339Y-147913348D01*
X117838339Y-148079054D01*
X117838338Y-148079054D01*
X117879264Y-148231789D01*
X117879265Y-148231790D01*
X117900295Y-148268214D01*
X117900296Y-148268216D01*
X117958315Y-148368709D01*
X117958321Y-148368717D01*
X118077189Y-148487585D01*
X118077195Y-148487590D01*
X120554979Y-150965374D01*
X120554989Y-150965385D01*
X120559319Y-150969715D01*
X120559320Y-150969716D01*
X120671124Y-151081520D01*
X120671126Y-151081521D01*
X120671130Y-151081524D01*
X120808049Y-151160573D01*
X120808056Y-151160577D01*
X120919859Y-151190534D01*
X120960782Y-151201500D01*
X120960783Y-151201500D01*
X167251171Y-151201500D01*
X167251187Y-151201501D01*
X167258783Y-151201501D01*
X167416894Y-151201501D01*
X167416897Y-151201501D01*
X167569625Y-151160577D01*
X167619744Y-151131639D01*
X167706556Y-151081520D01*
X167818360Y-150969716D01*
X167919360Y-150868716D01*
X167998417Y-150731784D01*
X168039341Y-150579057D01*
X168039341Y-150420942D01*
X168039341Y-150413347D01*
X168039340Y-150413329D01*
X168039340Y-139589060D01*
X168039341Y-139589047D01*
X168039341Y-139420944D01*
X168037660Y-139414669D01*
X167998417Y-139268216D01*
X167983425Y-139242248D01*
X167919364Y-139131290D01*
X167919358Y-139131282D01*
X167773413Y-138985337D01*
X167739928Y-138924014D01*
X167739477Y-138921847D01*
X167726173Y-138854965D01*
X167708577Y-138766503D01*
X167697269Y-138739202D01*
X167648237Y-138620827D01*
X167648230Y-138620814D01*
X167560629Y-138489711D01*
X167560626Y-138489707D01*
X167449132Y-138378213D01*
X167449128Y-138378210D01*
X167318025Y-138290609D01*
X167318012Y-138290602D01*
X167172341Y-138230264D01*
X167172329Y-138230261D01*
X167017685Y-138199500D01*
X167017682Y-138199500D01*
X166859998Y-138199500D01*
X166859995Y-138199500D01*
X166705350Y-138230261D01*
X166705338Y-138230264D01*
X166559667Y-138290602D01*
X166559654Y-138290609D01*
X166428551Y-138378210D01*
X166428547Y-138378213D01*
X166317053Y-138489707D01*
X166317050Y-138489711D01*
X166229449Y-138620814D01*
X166229442Y-138620827D01*
X166169104Y-138766498D01*
X166169101Y-138766510D01*
X166138340Y-138921153D01*
X166138340Y-139078846D01*
X166169101Y-139233489D01*
X166169104Y-139233501D01*
X166229442Y-139379172D01*
X166229449Y-139379185D01*
X166317050Y-139510288D01*
X166317053Y-139510292D01*
X166428547Y-139621786D01*
X166428551Y-139621789D01*
X166559654Y-139709390D01*
X166559667Y-139709397D01*
X166647070Y-139745599D01*
X166705343Y-139769737D01*
X166738531Y-139776338D01*
X166800440Y-139808721D01*
X166835016Y-139869436D01*
X166838340Y-139897955D01*
X166838340Y-141381666D01*
X166818655Y-141448705D01*
X166765851Y-141494460D01*
X166696693Y-141504404D01*
X166645450Y-141484769D01*
X166596391Y-141451989D01*
X166596380Y-141451983D01*
X166432507Y-141384106D01*
X166432499Y-141384104D01*
X166315148Y-141360761D01*
X166253237Y-141328376D01*
X166218663Y-141267660D01*
X166215340Y-141239144D01*
X166215340Y-141224236D01*
X166215340Y-141224234D01*
X166176121Y-141077865D01*
X166100355Y-140946635D01*
X165993205Y-140839485D01*
X165927590Y-140801602D01*
X165861976Y-140763719D01*
X165788790Y-140744109D01*
X165715606Y-140724500D01*
X165564074Y-140724500D01*
X165417703Y-140763719D01*
X165286475Y-140839485D01*
X165286472Y-140839487D01*
X165179327Y-140946632D01*
X165179325Y-140946635D01*
X165103559Y-141077863D01*
X165064340Y-141224234D01*
X165064340Y-141375765D01*
X165103559Y-141522136D01*
X165123390Y-141556484D01*
X165179325Y-141653365D01*
X165286475Y-141760515D01*
X165286477Y-141760516D01*
X165292926Y-141765465D01*
X165291300Y-141767583D01*
X165330432Y-141808623D01*
X165343656Y-141877230D01*
X165334779Y-141912895D01*
X165303945Y-141987337D01*
X165303943Y-141987341D01*
X165269340Y-142161304D01*
X165269340Y-142938695D01*
X165303943Y-143112658D01*
X165303946Y-143112667D01*
X165371823Y-143276540D01*
X165371830Y-143276553D01*
X165470374Y-143424033D01*
X165470375Y-143424034D01*
X165470376Y-143424035D01*
X165533022Y-143486681D01*
X165566506Y-143548002D01*
X165569340Y-143574361D01*
X165569340Y-147583170D01*
X165569339Y-147583188D01*
X165569339Y-147748896D01*
X165570400Y-147756954D01*
X165567537Y-147757330D01*
X165566204Y-147813261D01*
X165527039Y-147871122D01*
X165462810Y-147898624D01*
X165448093Y-147899500D01*
X158482917Y-147899500D01*
X158415878Y-147879815D01*
X158370123Y-147827011D01*
X158368367Y-147822978D01*
X158347853Y-147773453D01*
X158347849Y-147773446D01*
X158249304Y-147625965D01*
X158249301Y-147625961D01*
X158123878Y-147500538D01*
X158123874Y-147500535D01*
X157976393Y-147401990D01*
X157976380Y-147401983D01*
X157812507Y-147334106D01*
X157812498Y-147334103D01*
X157638534Y-147299500D01*
X157638531Y-147299500D01*
X157461149Y-147299500D01*
X157461146Y-147299500D01*
X157287181Y-147334103D01*
X157287172Y-147334106D01*
X157123299Y-147401983D01*
X157123286Y-147401990D01*
X156975805Y-147500535D01*
X156975801Y-147500538D01*
X156850378Y-147625961D01*
X156850375Y-147625965D01*
X156751830Y-147773446D01*
X156751826Y-147773453D01*
X156738971Y-147804488D01*
X156731323Y-147822952D01*
X156687484Y-147877355D01*
X156621190Y-147899421D01*
X156616763Y-147899500D01*
X141238937Y-147899500D01*
X141171898Y-147879815D01*
X141151256Y-147863181D01*
X137209228Y-143921153D01*
X154138340Y-143921153D01*
X154138340Y-144078846D01*
X154169101Y-144233489D01*
X154169104Y-144233501D01*
X154229442Y-144379172D01*
X154229449Y-144379185D01*
X154317050Y-144510288D01*
X154317053Y-144510292D01*
X154428547Y-144621786D01*
X154428551Y-144621789D01*
X154559654Y-144709390D01*
X154559667Y-144709397D01*
X154705338Y-144769735D01*
X154705343Y-144769737D01*
X154859993Y-144800499D01*
X154859996Y-144800500D01*
X154859998Y-144800500D01*
X155017684Y-144800500D01*
X155017685Y-144800499D01*
X155172337Y-144769737D01*
X155318019Y-144709394D01*
X155408802Y-144648735D01*
X155449715Y-144621398D01*
X155516393Y-144600520D01*
X155518606Y-144600500D01*
X156517895Y-144600500D01*
X156517897Y-144600500D01*
X156670624Y-144559577D01*
X156807556Y-144480520D01*
X156919360Y-144368716D01*
X156998417Y-144231784D01*
X157039340Y-144079057D01*
X157039340Y-143552361D01*
X157045578Y-143531115D01*
X157047158Y-143509027D01*
X157055230Y-143498243D01*
X157059025Y-143485322D01*
X157075758Y-143470822D01*
X157089030Y-143453094D01*
X157101650Y-143448386D01*
X157111829Y-143439567D01*
X157133746Y-143436415D01*
X157154494Y-143428677D01*
X157167654Y-143431539D01*
X157180987Y-143429623D01*
X157201130Y-143438822D01*
X157222767Y-143443529D01*
X157240492Y-143456797D01*
X157244543Y-143458648D01*
X157251021Y-143464680D01*
X157273021Y-143486680D01*
X157306506Y-143548003D01*
X157309340Y-143574361D01*
X157309340Y-144323170D01*
X157309339Y-144323188D01*
X157309339Y-144488894D01*
X157309338Y-144488894D01*
X157350263Y-144641625D01*
X157379198Y-144691740D01*
X157379199Y-144691744D01*
X157379200Y-144691744D01*
X157424228Y-144769737D01*
X157429319Y-144778554D01*
X157429321Y-144778557D01*
X157548189Y-144897425D01*
X157548195Y-144897430D01*
X159165425Y-146514660D01*
X159198910Y-146575983D01*
X159199361Y-146578149D01*
X159230261Y-146733491D01*
X159230264Y-146733501D01*
X159290602Y-146879172D01*
X159290609Y-146879185D01*
X159378210Y-147010288D01*
X159378213Y-147010292D01*
X159489707Y-147121786D01*
X159489711Y-147121789D01*
X159620814Y-147209390D01*
X159620827Y-147209397D01*
X159669040Y-147229367D01*
X159766503Y-147269737D01*
X159916131Y-147299500D01*
X159921153Y-147300499D01*
X159921156Y-147300500D01*
X159921158Y-147300500D01*
X160078844Y-147300500D01*
X160078845Y-147300499D01*
X160233497Y-147269737D01*
X160379179Y-147209394D01*
X160510289Y-147121789D01*
X160621789Y-147010289D01*
X160709394Y-146879179D01*
X160769737Y-146733497D01*
X160800500Y-146578842D01*
X160800500Y-146421158D01*
X160800500Y-146421155D01*
X160800499Y-146421153D01*
X160788522Y-146360943D01*
X160769737Y-146266503D01*
X160753952Y-146228395D01*
X160709397Y-146120827D01*
X160709390Y-146120814D01*
X160621789Y-145989711D01*
X160621786Y-145989707D01*
X160510292Y-145878213D01*
X160510288Y-145878210D01*
X160379185Y-145790609D01*
X160379172Y-145790602D01*
X160233501Y-145730264D01*
X160233491Y-145730261D01*
X160078151Y-145699362D01*
X160016241Y-145666977D01*
X160014662Y-145665426D01*
X158546659Y-144197423D01*
X158513174Y-144136100D01*
X158510340Y-144109742D01*
X158510340Y-143574361D01*
X158530025Y-143507322D01*
X158546654Y-143486684D01*
X158609304Y-143424035D01*
X158707853Y-143276547D01*
X158775734Y-143112666D01*
X158780122Y-143090609D01*
X158810339Y-142938695D01*
X158810340Y-142938693D01*
X158810340Y-142161306D01*
X158810339Y-142161304D01*
X158775736Y-141987341D01*
X158775735Y-141987339D01*
X158775734Y-141987338D01*
X158775734Y-141987334D01*
X158773850Y-141982786D01*
X158766379Y-141913322D01*
X158797651Y-141850841D01*
X158826405Y-141827949D01*
X158943205Y-141760515D01*
X159050355Y-141653365D01*
X159126121Y-141522135D01*
X159165340Y-141375766D01*
X159165340Y-141224234D01*
X159126121Y-141077865D01*
X159050355Y-140946635D01*
X158943205Y-140839485D01*
X158877590Y-140801602D01*
X158811976Y-140763719D01*
X158738790Y-140744109D01*
X158665606Y-140724500D01*
X158214074Y-140724500D01*
X158067703Y-140763719D01*
X157936475Y-140839485D01*
X157936472Y-140839487D01*
X157829327Y-140946632D01*
X157829325Y-140946635D01*
X157753559Y-141077863D01*
X157714340Y-141224234D01*
X157714340Y-141273430D01*
X157694655Y-141340469D01*
X157641851Y-141386224D01*
X157637793Y-141387991D01*
X157483295Y-141451985D01*
X157483286Y-141451990D01*
X157335805Y-141550535D01*
X157335801Y-141550538D01*
X157251021Y-141635319D01*
X157189698Y-141668804D01*
X157120006Y-141663820D01*
X157064073Y-141621948D01*
X157039656Y-141556484D01*
X157039340Y-141547638D01*
X157039340Y-139800098D01*
X157047984Y-139770660D01*
X157054508Y-139740670D01*
X157058263Y-139735653D01*
X157059025Y-139733059D01*
X157075659Y-139712416D01*
X157151258Y-139636818D01*
X157212582Y-139603334D01*
X157238939Y-139600500D01*
X159352171Y-139600500D01*
X159352187Y-139600501D01*
X159359783Y-139600501D01*
X159517894Y-139600501D01*
X159517897Y-139600501D01*
X159670625Y-139559577D01*
X159720744Y-139530639D01*
X159807556Y-139480520D01*
X159919360Y-139368716D01*
X159919360Y-139368714D01*
X159929568Y-139358507D01*
X159929570Y-139358504D01*
X161004336Y-138283737D01*
X161065657Y-138250254D01*
X161135349Y-138255238D01*
X161191282Y-138297110D01*
X161206576Y-138323967D01*
X161229444Y-138379175D01*
X161229449Y-138379185D01*
X161317050Y-138510288D01*
X161317053Y-138510292D01*
X161317954Y-138511193D01*
X161318275Y-138511780D01*
X161320916Y-138514999D01*
X161320305Y-138515499D01*
X161351439Y-138572516D01*
X161346455Y-138642208D01*
X161304583Y-138698141D01*
X161254466Y-138720491D01*
X161205347Y-138730261D01*
X161205338Y-138730264D01*
X161059667Y-138790602D01*
X161059654Y-138790609D01*
X160928551Y-138878210D01*
X160928547Y-138878213D01*
X160817053Y-138989707D01*
X160817050Y-138989711D01*
X160729449Y-139120814D01*
X160729442Y-139120827D01*
X160669104Y-139266498D01*
X160669101Y-139266508D01*
X160638202Y-139421847D01*
X160629437Y-139438602D01*
X160625418Y-139457081D01*
X160606674Y-139482118D01*
X160605817Y-139483758D01*
X160604267Y-139485335D01*
X160563064Y-139526538D01*
X160563052Y-139526552D01*
X160458318Y-139631286D01*
X160413225Y-139709392D01*
X160413224Y-139709393D01*
X160379263Y-139768214D01*
X160379263Y-139768215D01*
X160338339Y-139920943D01*
X160338339Y-139920945D01*
X160338339Y-140089046D01*
X160338340Y-140089059D01*
X160338340Y-144579057D01*
X160373265Y-144709397D01*
X160379263Y-144731783D01*
X160379266Y-144731790D01*
X160458315Y-144868709D01*
X160458318Y-144868713D01*
X160458320Y-144868716D01*
X160570124Y-144980520D01*
X160570126Y-144980521D01*
X160570130Y-144980524D01*
X160707049Y-145059573D01*
X160707056Y-145059577D01*
X160859783Y-145100500D01*
X161017897Y-145100500D01*
X162611171Y-145100500D01*
X162611187Y-145100501D01*
X162618783Y-145100501D01*
X162776894Y-145100501D01*
X162776897Y-145100501D01*
X162929625Y-145059577D01*
X162979744Y-145030639D01*
X163066556Y-144980520D01*
X163178360Y-144868716D01*
X163178360Y-144868714D01*
X163186658Y-144860417D01*
X163247981Y-144826932D01*
X163317673Y-144831916D01*
X163373607Y-144873787D01*
X163398024Y-144939251D01*
X163398340Y-144948098D01*
X163398340Y-145979705D01*
X163378655Y-146046744D01*
X163325851Y-146092499D01*
X163321793Y-146094266D01*
X163209481Y-146140786D01*
X163209472Y-146140791D01*
X163078369Y-146228392D01*
X163078365Y-146228395D01*
X162966871Y-146339889D01*
X162966868Y-146339893D01*
X162879267Y-146470996D01*
X162879260Y-146471009D01*
X162818922Y-146616680D01*
X162818919Y-146616692D01*
X162788158Y-146771335D01*
X162788158Y-146929028D01*
X162818919Y-147083671D01*
X162818922Y-147083683D01*
X162879260Y-147229354D01*
X162879267Y-147229367D01*
X162966868Y-147360470D01*
X162966871Y-147360474D01*
X163078365Y-147471968D01*
X163078369Y-147471971D01*
X163209472Y-147559572D01*
X163209485Y-147559579D01*
X163355156Y-147619917D01*
X163355161Y-147619919D01*
X163509811Y-147650681D01*
X163509814Y-147650682D01*
X163509816Y-147650682D01*
X163667502Y-147650682D01*
X163667503Y-147650681D01*
X163822155Y-147619919D01*
X163967837Y-147559576D01*
X164098947Y-147471971D01*
X164210447Y-147360471D01*
X164298052Y-147229361D01*
X164358395Y-147083679D01*
X164389158Y-146929024D01*
X164389158Y-146929022D01*
X164389295Y-146928334D01*
X164410273Y-146880084D01*
X164416132Y-146871943D01*
X164479360Y-146808716D01*
X164548048Y-146689744D01*
X164558417Y-146671785D01*
X164599341Y-146519057D01*
X164599341Y-146360943D01*
X164599341Y-146353348D01*
X164599340Y-146353330D01*
X164599340Y-139480945D01*
X164599340Y-139480943D01*
X164581582Y-139414669D01*
X164558417Y-139328215D01*
X164502742Y-139231784D01*
X164479360Y-139191284D01*
X164367556Y-139079480D01*
X164367553Y-139079478D01*
X162926430Y-137638355D01*
X162926428Y-137638352D01*
X162807557Y-137519481D01*
X162807556Y-137519480D01*
X162720744Y-137469360D01*
X162720744Y-137469359D01*
X162720740Y-137469358D01*
X162670625Y-137440423D01*
X162597926Y-137420943D01*
X162517894Y-137399498D01*
X162509837Y-137398438D01*
X162510021Y-137397036D01*
X162501853Y-137394693D01*
X162485151Y-137394901D01*
X162456266Y-137381615D01*
X162452867Y-137380640D01*
X162449374Y-137378456D01*
X162449129Y-137378211D01*
X162318019Y-137290606D01*
X162290898Y-137279372D01*
X162282146Y-137273900D01*
X162265519Y-137255187D01*
X162246026Y-137239478D01*
X162242710Y-137229516D01*
X162235738Y-137221669D01*
X162231867Y-137196937D01*
X162223962Y-137173184D01*
X162225384Y-137155512D01*
X162224935Y-137152639D01*
X162225767Y-137150753D01*
X162226265Y-137144571D01*
X162239340Y-137078842D01*
X162239340Y-136921158D01*
X162239340Y-136921155D01*
X162239339Y-136921153D01*
X162231116Y-136879815D01*
X162208577Y-136766503D01*
X162149965Y-136624999D01*
X162148237Y-136620827D01*
X162148230Y-136620814D01*
X162060629Y-136489711D01*
X162060626Y-136489707D01*
X161949132Y-136378213D01*
X161949128Y-136378210D01*
X161818025Y-136290609D01*
X161818012Y-136290602D01*
X161672341Y-136230264D01*
X161672329Y-136230261D01*
X161517685Y-136199500D01*
X161517682Y-136199500D01*
X161359998Y-136199500D01*
X161359995Y-136199500D01*
X161205350Y-136230261D01*
X161205338Y-136230264D01*
X161059667Y-136290602D01*
X161059654Y-136290609D01*
X160928551Y-136378210D01*
X160928547Y-136378213D01*
X160817053Y-136489707D01*
X160817050Y-136489711D01*
X160729449Y-136620814D01*
X160729442Y-136620827D01*
X160669104Y-136766498D01*
X160669101Y-136766508D01*
X160638201Y-136921850D01*
X160605816Y-136983761D01*
X160604265Y-136985339D01*
X159226424Y-138363181D01*
X159165101Y-138396666D01*
X159138743Y-138399500D01*
X157025510Y-138399500D01*
X157025494Y-138399499D01*
X157017898Y-138399499D01*
X156859783Y-138399499D01*
X156783419Y-138419961D01*
X156707054Y-138440423D01*
X156707049Y-138440426D01*
X156570130Y-138519475D01*
X156570122Y-138519481D01*
X156063057Y-139026546D01*
X156063054Y-139026548D01*
X156063055Y-139026549D01*
X155958318Y-139131286D01*
X155908201Y-139218094D01*
X155908199Y-139218096D01*
X155879265Y-139268209D01*
X155879264Y-139268210D01*
X155863384Y-139327472D01*
X155838339Y-139420943D01*
X155838339Y-139420944D01*
X155838339Y-139420945D01*
X155838339Y-139589046D01*
X155838340Y-139589059D01*
X155838340Y-143275500D01*
X155835789Y-143284185D01*
X155837078Y-143293147D01*
X155826099Y-143317187D01*
X155818655Y-143342539D01*
X155811814Y-143348466D01*
X155808053Y-143356703D01*
X155785818Y-143370992D01*
X155765851Y-143388294D01*
X155755336Y-143390581D01*
X155749275Y-143394477D01*
X155714340Y-143399500D01*
X155518606Y-143399500D01*
X155451567Y-143379815D01*
X155449715Y-143378602D01*
X155318025Y-143290609D01*
X155318012Y-143290602D01*
X155172341Y-143230264D01*
X155172329Y-143230261D01*
X155017685Y-143199500D01*
X155017682Y-143199500D01*
X154859998Y-143199500D01*
X154859995Y-143199500D01*
X154705350Y-143230261D01*
X154705338Y-143230264D01*
X154559667Y-143290602D01*
X154559654Y-143290609D01*
X154428551Y-143378210D01*
X154428547Y-143378213D01*
X154317053Y-143489707D01*
X154317050Y-143489711D01*
X154229449Y-143620814D01*
X154229442Y-143620827D01*
X154169104Y-143766498D01*
X154169101Y-143766510D01*
X154138340Y-143921153D01*
X137209228Y-143921153D01*
X132773414Y-139485339D01*
X132739929Y-139424016D01*
X132739478Y-139421849D01*
X132720852Y-139328213D01*
X132708577Y-139266503D01*
X132694196Y-139231784D01*
X132648237Y-139120827D01*
X132648230Y-139120814D01*
X132560629Y-138989711D01*
X132560626Y-138989707D01*
X132449132Y-138878213D01*
X132449128Y-138878210D01*
X132318025Y-138790609D01*
X132318012Y-138790602D01*
X132172341Y-138730264D01*
X132172329Y-138730261D01*
X132017685Y-138699500D01*
X132017682Y-138699500D01*
X131859998Y-138699500D01*
X131859995Y-138699500D01*
X131705350Y-138730261D01*
X131705338Y-138730264D01*
X131559667Y-138790602D01*
X131559654Y-138790609D01*
X131428551Y-138878210D01*
X131428547Y-138878213D01*
X131317053Y-138989707D01*
X131317050Y-138989711D01*
X131229449Y-139120814D01*
X131229442Y-139120827D01*
X131169104Y-139266498D01*
X131169101Y-139266510D01*
X131138340Y-139421153D01*
X131138340Y-139578846D01*
X131169101Y-139733489D01*
X131169104Y-139733501D01*
X131229442Y-139879172D01*
X131229449Y-139879185D01*
X131317050Y-140010288D01*
X131317053Y-140010292D01*
X131428547Y-140121786D01*
X131428551Y-140121789D01*
X131559654Y-140209390D01*
X131559667Y-140209397D01*
X131705338Y-140269735D01*
X131705343Y-140269737D01*
X131769987Y-140282595D01*
X131860689Y-140300638D01*
X131922600Y-140333023D01*
X131924179Y-140334574D01*
X140453979Y-148864374D01*
X140453989Y-148864385D01*
X140458319Y-148868715D01*
X140458320Y-148868716D01*
X140570124Y-148980520D01*
X140656935Y-149030639D01*
X140656937Y-149030641D01*
X140694991Y-149052611D01*
X140707055Y-149059577D01*
X140859783Y-149100500D01*
X156616763Y-149100500D01*
X156683802Y-149120185D01*
X156729557Y-149172989D01*
X156731312Y-149177021D01*
X156741654Y-149201988D01*
X156751826Y-149226546D01*
X156751830Y-149226553D01*
X156850375Y-149374034D01*
X156850378Y-149374038D01*
X156975801Y-149499461D01*
X156975805Y-149499464D01*
X157123286Y-149598009D01*
X157123299Y-149598016D01*
X157241340Y-149646909D01*
X157287174Y-149665894D01*
X157287176Y-149665894D01*
X157287181Y-149665896D01*
X157461144Y-149700499D01*
X157461147Y-149700500D01*
X157461149Y-149700500D01*
X157638533Y-149700500D01*
X157638534Y-149700499D01*
X157710150Y-149686254D01*
X157812498Y-149665896D01*
X157812501Y-149665894D01*
X157812506Y-149665894D01*
X157976387Y-149598013D01*
X158123875Y-149499464D01*
X158249304Y-149374035D01*
X158347853Y-149226547D01*
X158368356Y-149177047D01*
X158412196Y-149122645D01*
X158478490Y-149100579D01*
X158482917Y-149100500D01*
X165596763Y-149100500D01*
X165663802Y-149120185D01*
X165709557Y-149172989D01*
X165711312Y-149177021D01*
X165721654Y-149201988D01*
X165731826Y-149226546D01*
X165731830Y-149226553D01*
X165830375Y-149374034D01*
X165830378Y-149374038D01*
X165955801Y-149499461D01*
X165955805Y-149499464D01*
X166103286Y-149598009D01*
X166103299Y-149598016D01*
X166221340Y-149646909D01*
X166267174Y-149665894D01*
X166267176Y-149665894D01*
X166267181Y-149665896D01*
X166441144Y-149700499D01*
X166441147Y-149700500D01*
X166441149Y-149700500D01*
X166618532Y-149700500D01*
X166636341Y-149696957D01*
X166690149Y-149686254D01*
X166759739Y-149692481D01*
X166814917Y-149735343D01*
X166838162Y-149801232D01*
X166838340Y-149807871D01*
X166838340Y-149876500D01*
X166818655Y-149943539D01*
X166765851Y-149989294D01*
X166714340Y-150000500D01*
X121339937Y-150000500D01*
X121272898Y-149980815D01*
X121252256Y-149964181D01*
X119075659Y-147787584D01*
X119042174Y-147726261D01*
X119039340Y-147699903D01*
X119039340Y-133680300D01*
X119059025Y-133613261D01*
X119111829Y-133567506D01*
X119124322Y-133562599D01*
X119208174Y-133534814D01*
X119357496Y-133442712D01*
X119481552Y-133318656D01*
X119573654Y-133169334D01*
X119628839Y-133002797D01*
X119639340Y-132900009D01*
X119639339Y-132099992D01*
X119637619Y-132083158D01*
X119628839Y-131997203D01*
X119628838Y-131997200D01*
X119615421Y-131956710D01*
X119573654Y-131830666D01*
X119481552Y-131681344D01*
X119387889Y-131587681D01*
X119354404Y-131526358D01*
X119359388Y-131456666D01*
X119387889Y-131412319D01*
X119409783Y-131390425D01*
X119481552Y-131318656D01*
X119573654Y-131169334D01*
X119628839Y-131002797D01*
X119639340Y-130900009D01*
X119639339Y-130099992D01*
X119628839Y-129997203D01*
X119573654Y-129830666D01*
X119481552Y-129681344D01*
X119357496Y-129557288D01*
X119247929Y-129489707D01*
X119208176Y-129465187D01*
X119208171Y-129465185D01*
X119156666Y-129448118D01*
X119041637Y-129410001D01*
X119041635Y-129410000D01*
X118938856Y-129399500D01*
X118938849Y-129399500D01*
X118663340Y-129399500D01*
X118596301Y-129379815D01*
X118550546Y-129327011D01*
X118539340Y-129275500D01*
X118539340Y-125245908D01*
X118559025Y-125178869D01*
X118603111Y-125140363D01*
X118602027Y-125138605D01*
X118608172Y-125134814D01*
X118608174Y-125134814D01*
X118757496Y-125042712D01*
X118851515Y-124948692D01*
X118912834Y-124915210D01*
X118982526Y-124920194D01*
X119026874Y-124948695D01*
X119120494Y-125042315D01*
X119269715Y-125134356D01*
X119269720Y-125134358D01*
X119436142Y-125189505D01*
X119436149Y-125189506D01*
X119538859Y-125199999D01*
X119688839Y-125199999D01*
X120188840Y-125199999D01*
X120338812Y-125199999D01*
X120338826Y-125199998D01*
X120441537Y-125189505D01*
X120607959Y-125134358D01*
X120607964Y-125134356D01*
X120757185Y-125042315D01*
X120881155Y-124918345D01*
X120973196Y-124769124D01*
X120973198Y-124769119D01*
X121028345Y-124602697D01*
X121028346Y-124602690D01*
X121038839Y-124499986D01*
X121038840Y-124499973D01*
X121038840Y-124250000D01*
X120188840Y-124250000D01*
X120188840Y-125199999D01*
X119688839Y-125199999D01*
X119688840Y-125199998D01*
X119688840Y-123750000D01*
X120188840Y-123750000D01*
X121038839Y-123750000D01*
X121038839Y-123500028D01*
X121038838Y-123500013D01*
X121028345Y-123397302D01*
X120973198Y-123230880D01*
X120973196Y-123230875D01*
X120881155Y-123081654D01*
X120757185Y-122957684D01*
X120607964Y-122865643D01*
X120607959Y-122865641D01*
X120441537Y-122810494D01*
X120441530Y-122810493D01*
X120338826Y-122800000D01*
X120188840Y-122800000D01*
X120188840Y-123750000D01*
X119688840Y-123750000D01*
X119688840Y-122800000D01*
X119538867Y-122800000D01*
X119538852Y-122800001D01*
X119436142Y-122810494D01*
X119269720Y-122865641D01*
X119269715Y-122865643D01*
X119120497Y-122957682D01*
X119026874Y-123051305D01*
X118965550Y-123084789D01*
X118895859Y-123079805D01*
X118851512Y-123051304D01*
X118757497Y-122957289D01*
X118757496Y-122957288D01*
X118608174Y-122865186D01*
X118608172Y-122865185D01*
X118602027Y-122861395D01*
X118603130Y-122859605D01*
X118558489Y-122820290D01*
X118539340Y-122754091D01*
X118539340Y-120240638D01*
X118559025Y-120173599D01*
X118598241Y-120135100D01*
X118707496Y-120067712D01*
X118831552Y-119943656D01*
X118833592Y-119940347D01*
X118835585Y-119938555D01*
X118836033Y-119937989D01*
X118836129Y-119938065D01*
X118885534Y-119893623D01*
X118954496Y-119882395D01*
X119018580Y-119910234D01*
X119044669Y-119940339D01*
X119046521Y-119943341D01*
X119046523Y-119943344D01*
X119170494Y-120067315D01*
X119319715Y-120159356D01*
X119319720Y-120159358D01*
X119486142Y-120214505D01*
X119486149Y-120214506D01*
X119588859Y-120224999D01*
X119726339Y-120224999D01*
X120226340Y-120224999D01*
X120363812Y-120224999D01*
X120363826Y-120224998D01*
X120466537Y-120214505D01*
X120632959Y-120159358D01*
X120632964Y-120159356D01*
X120782185Y-120067315D01*
X120906155Y-119943345D01*
X120998196Y-119794124D01*
X120998198Y-119794119D01*
X121053345Y-119627697D01*
X121053346Y-119627690D01*
X121063839Y-119524986D01*
X121063840Y-119524973D01*
X121063840Y-119250000D01*
X120226340Y-119250000D01*
X120226340Y-120224999D01*
X119726339Y-120224999D01*
X119726340Y-120224998D01*
X119726340Y-118750000D01*
X120226340Y-118750000D01*
X121063839Y-118750000D01*
X121063839Y-118475028D01*
X121063838Y-118475013D01*
X121053345Y-118372302D01*
X120998198Y-118205880D01*
X120998196Y-118205875D01*
X120906155Y-118056654D01*
X120782185Y-117932684D01*
X120632964Y-117840643D01*
X120632959Y-117840641D01*
X120466537Y-117785494D01*
X120466530Y-117785493D01*
X120363826Y-117775000D01*
X120226340Y-117775000D01*
X120226340Y-118750000D01*
X119726340Y-118750000D01*
X119726340Y-117775000D01*
X119588867Y-117775000D01*
X119588852Y-117775001D01*
X119486142Y-117785494D01*
X119319720Y-117840641D01*
X119319715Y-117840643D01*
X119170494Y-117932684D01*
X119046523Y-118056655D01*
X119046519Y-118056660D01*
X119044666Y-118059665D01*
X119042858Y-118061290D01*
X119042042Y-118062323D01*
X119041865Y-118062183D01*
X118992714Y-118106385D01*
X118923751Y-118117601D01*
X118859671Y-118089752D01*
X118833593Y-118059653D01*
X118833577Y-118059628D01*
X118831552Y-118056344D01*
X118707496Y-117932288D01*
X118560742Y-117841770D01*
X118514019Y-117789823D01*
X118501840Y-117736232D01*
X118501840Y-111735336D01*
X118506065Y-111703242D01*
X118539341Y-111579057D01*
X118539341Y-111420943D01*
X118539341Y-111413348D01*
X118539340Y-111413330D01*
X118539340Y-108749097D01*
X118559025Y-108682058D01*
X118611829Y-108636303D01*
X118680987Y-108626359D01*
X118744543Y-108655384D01*
X118751021Y-108661416D01*
X121802021Y-111712416D01*
X121835506Y-111773739D01*
X121838340Y-111800097D01*
X121838340Y-124819699D01*
X121818655Y-124886738D01*
X121765851Y-124932493D01*
X121753347Y-124937403D01*
X121720802Y-124948188D01*
X121669508Y-124965185D01*
X121669503Y-124965187D01*
X121520182Y-125057289D01*
X121396129Y-125181342D01*
X121304027Y-125330663D01*
X121304026Y-125330666D01*
X121248841Y-125497203D01*
X121248841Y-125497204D01*
X121248840Y-125497204D01*
X121238340Y-125599983D01*
X121238340Y-126400001D01*
X121238341Y-126400019D01*
X121248840Y-126502796D01*
X121248841Y-126502799D01*
X121289501Y-126625500D01*
X121304026Y-126669334D01*
X121393988Y-126815187D01*
X121396129Y-126818657D01*
X121489791Y-126912319D01*
X121523276Y-126973642D01*
X121518292Y-127043334D01*
X121489791Y-127087681D01*
X121396129Y-127181342D01*
X121304027Y-127330663D01*
X121304026Y-127330666D01*
X121248841Y-127497203D01*
X121248841Y-127497204D01*
X121248840Y-127497204D01*
X121238340Y-127599983D01*
X121238340Y-128400001D01*
X121238341Y-128400019D01*
X121248840Y-128502796D01*
X121248841Y-128502799D01*
X121304025Y-128669331D01*
X121304027Y-128669336D01*
X121326346Y-128705521D01*
X121396128Y-128818656D01*
X121520184Y-128942712D01*
X121669506Y-129034814D01*
X121753345Y-129062595D01*
X121810788Y-129102366D01*
X121837612Y-129166882D01*
X121838340Y-129180300D01*
X121838340Y-137579056D01*
X121879263Y-137731783D01*
X121879266Y-137731790D01*
X121958315Y-137868709D01*
X121958318Y-137868713D01*
X121958320Y-137868716D01*
X122070124Y-137980520D01*
X122070126Y-137980521D01*
X122070130Y-137980524D01*
X122207049Y-138059573D01*
X122207056Y-138059577D01*
X122359783Y-138100500D01*
X147852171Y-138100500D01*
X147852187Y-138100501D01*
X147859783Y-138100501D01*
X148017894Y-138100501D01*
X148017897Y-138100501D01*
X148170625Y-138059577D01*
X148220744Y-138030639D01*
X148307556Y-137980520D01*
X148419360Y-137868716D01*
X148419360Y-137868714D01*
X148429568Y-137858507D01*
X148429569Y-137858504D01*
X152953502Y-133334572D01*
X153014823Y-133301089D01*
X153016990Y-133300638D01*
X153074925Y-133289113D01*
X153172337Y-133269737D01*
X153318019Y-133209394D01*
X153449129Y-133121789D01*
X153560629Y-133010289D01*
X153648234Y-132879179D01*
X153708577Y-132733497D01*
X153739340Y-132578842D01*
X153739340Y-132421158D01*
X153739340Y-132421155D01*
X153739339Y-132421153D01*
X153729495Y-132371666D01*
X153708577Y-132266503D01*
X153708575Y-132266498D01*
X153648237Y-132120827D01*
X153648230Y-132120814D01*
X153560629Y-131989711D01*
X153560626Y-131989707D01*
X153449132Y-131878213D01*
X153449128Y-131878210D01*
X153318025Y-131790609D01*
X153318012Y-131790602D01*
X153172341Y-131730264D01*
X153172329Y-131730261D01*
X153017685Y-131699500D01*
X153017682Y-131699500D01*
X152859998Y-131699500D01*
X152859995Y-131699500D01*
X152705350Y-131730261D01*
X152705338Y-131730264D01*
X152559667Y-131790602D01*
X152559654Y-131790609D01*
X152428551Y-131878210D01*
X152428547Y-131878213D01*
X152317053Y-131989707D01*
X152317050Y-131989711D01*
X152229449Y-132120814D01*
X152229442Y-132120827D01*
X152169104Y-132266498D01*
X152169101Y-132266508D01*
X152138201Y-132421850D01*
X152105816Y-132483761D01*
X152104265Y-132485339D01*
X147726424Y-136863181D01*
X147665101Y-136896666D01*
X147638743Y-136899500D01*
X123163340Y-136899500D01*
X123096301Y-136879815D01*
X123050546Y-136827011D01*
X123039340Y-136775500D01*
X123039340Y-135924986D01*
X125713841Y-135924986D01*
X125724334Y-136027697D01*
X125779481Y-136194119D01*
X125779483Y-136194124D01*
X125871524Y-136343345D01*
X125995494Y-136467315D01*
X126144715Y-136559356D01*
X126144720Y-136559358D01*
X126311142Y-136614505D01*
X126311149Y-136614506D01*
X126413859Y-136624999D01*
X126688839Y-136624999D01*
X127188840Y-136624999D01*
X127463812Y-136624999D01*
X127463826Y-136624998D01*
X127566537Y-136614505D01*
X127732959Y-136559358D01*
X127732964Y-136559356D01*
X127882185Y-136467315D01*
X128006155Y-136343345D01*
X128083301Y-136218273D01*
X128135249Y-136171549D01*
X128204212Y-136160326D01*
X128268294Y-136188170D01*
X128294379Y-136218273D01*
X128371524Y-136343345D01*
X128495494Y-136467315D01*
X128644715Y-136559356D01*
X128644720Y-136559358D01*
X128811142Y-136614505D01*
X128811149Y-136614506D01*
X128913859Y-136624999D01*
X129188839Y-136624999D01*
X129688840Y-136624999D01*
X129963812Y-136624999D01*
X129963826Y-136624998D01*
X130066537Y-136614505D01*
X130232959Y-136559358D01*
X130232964Y-136559356D01*
X130382185Y-136467315D01*
X130506155Y-136343345D01*
X130598196Y-136194124D01*
X130598198Y-136194119D01*
X130653345Y-136027697D01*
X130653346Y-136027690D01*
X130663839Y-135924986D01*
X131213841Y-135924986D01*
X131224334Y-136027697D01*
X131279481Y-136194119D01*
X131279483Y-136194124D01*
X131371524Y-136343345D01*
X131495494Y-136467315D01*
X131644715Y-136559356D01*
X131644720Y-136559358D01*
X131811142Y-136614505D01*
X131811149Y-136614506D01*
X131913859Y-136624999D01*
X132188839Y-136624999D01*
X132688840Y-136624999D01*
X132963812Y-136624999D01*
X132963826Y-136624998D01*
X133066537Y-136614505D01*
X133232959Y-136559358D01*
X133232970Y-136559353D01*
X133373743Y-136472523D01*
X133441135Y-136454082D01*
X133503937Y-136472523D01*
X133644709Y-136559353D01*
X133644720Y-136559358D01*
X133811142Y-136614505D01*
X133811149Y-136614506D01*
X133913859Y-136624999D01*
X134188839Y-136624999D01*
X134688840Y-136624999D01*
X134963812Y-136624999D01*
X134963826Y-136624998D01*
X135066537Y-136614505D01*
X135232959Y-136559358D01*
X135232964Y-136559356D01*
X135382185Y-136467315D01*
X135506155Y-136343345D01*
X135583301Y-136218273D01*
X135635249Y-136171549D01*
X135704212Y-136160326D01*
X135768294Y-136188170D01*
X135794379Y-136218273D01*
X135871524Y-136343345D01*
X135995494Y-136467315D01*
X136144715Y-136559356D01*
X136144720Y-136559358D01*
X136311142Y-136614505D01*
X136311149Y-136614506D01*
X136413859Y-136624999D01*
X136688839Y-136624999D01*
X137188840Y-136624999D01*
X137463812Y-136624999D01*
X137463826Y-136624998D01*
X137566537Y-136614505D01*
X137732959Y-136559358D01*
X137732964Y-136559356D01*
X137882185Y-136467315D01*
X138006155Y-136343345D01*
X138098196Y-136194124D01*
X138098198Y-136194119D01*
X138153345Y-136027697D01*
X138153346Y-136027690D01*
X138163839Y-135924986D01*
X138713841Y-135924986D01*
X138724334Y-136027697D01*
X138779481Y-136194119D01*
X138779483Y-136194124D01*
X138871524Y-136343345D01*
X138995494Y-136467315D01*
X139144715Y-136559356D01*
X139144720Y-136559358D01*
X139311142Y-136614505D01*
X139311149Y-136614506D01*
X139413859Y-136624999D01*
X139688839Y-136624999D01*
X140188840Y-136624999D01*
X140463812Y-136624999D01*
X140463826Y-136624998D01*
X140566537Y-136614505D01*
X140732959Y-136559358D01*
X140732964Y-136559356D01*
X140882185Y-136467315D01*
X141006155Y-136343345D01*
X141083301Y-136218273D01*
X141135249Y-136171549D01*
X141204212Y-136160326D01*
X141268294Y-136188170D01*
X141294379Y-136218273D01*
X141371524Y-136343345D01*
X141495494Y-136467315D01*
X141644715Y-136559356D01*
X141644720Y-136559358D01*
X141811142Y-136614505D01*
X141811149Y-136614506D01*
X141913859Y-136624999D01*
X142188839Y-136624999D01*
X142688840Y-136624999D01*
X142963812Y-136624999D01*
X142963826Y-136624998D01*
X143066537Y-136614505D01*
X143232959Y-136559358D01*
X143232964Y-136559356D01*
X143382185Y-136467315D01*
X143506155Y-136343345D01*
X143598196Y-136194124D01*
X143598198Y-136194119D01*
X143653345Y-136027697D01*
X143653346Y-136027690D01*
X143663839Y-135924986D01*
X143663840Y-135924973D01*
X143663840Y-135787500D01*
X142688840Y-135787500D01*
X142688840Y-136624999D01*
X142188839Y-136624999D01*
X142188840Y-136624998D01*
X142188840Y-135787500D01*
X140188840Y-135787500D01*
X140188840Y-136624999D01*
X139688839Y-136624999D01*
X139688840Y-136624998D01*
X139688840Y-135787500D01*
X138713841Y-135787500D01*
X138713841Y-135924986D01*
X138163839Y-135924986D01*
X138163840Y-135924973D01*
X138163840Y-135787500D01*
X137188840Y-135787500D01*
X137188840Y-136624999D01*
X136688839Y-136624999D01*
X136688840Y-136624998D01*
X136688840Y-135787500D01*
X134688840Y-135787500D01*
X134688840Y-136624999D01*
X134188839Y-136624999D01*
X134188840Y-136624998D01*
X134188840Y-135787500D01*
X132688840Y-135787500D01*
X132688840Y-136624999D01*
X132188839Y-136624999D01*
X132188840Y-136624998D01*
X132188840Y-135787500D01*
X131213841Y-135787500D01*
X131213841Y-135924986D01*
X130663839Y-135924986D01*
X130663840Y-135924973D01*
X130663840Y-135787500D01*
X129688840Y-135787500D01*
X129688840Y-136624999D01*
X129188839Y-136624999D01*
X129188840Y-136624998D01*
X129188840Y-135787500D01*
X127188840Y-135787500D01*
X127188840Y-136624999D01*
X126688839Y-136624999D01*
X126688840Y-136624998D01*
X126688840Y-135787500D01*
X125713841Y-135787500D01*
X125713841Y-135924986D01*
X123039340Y-135924986D01*
X123039340Y-133074983D01*
X125713340Y-133074983D01*
X125713340Y-133850001D01*
X125713341Y-133850019D01*
X125723840Y-133952796D01*
X125723841Y-133952799D01*
X125768072Y-134086277D01*
X125779026Y-134119334D01*
X125871128Y-134268656D01*
X125995184Y-134392712D01*
X125998468Y-134394737D01*
X125998493Y-134394753D01*
X126000285Y-134396746D01*
X126000851Y-134397193D01*
X126000774Y-134397289D01*
X126045219Y-134446699D01*
X126056443Y-134515661D01*
X126028601Y-134579744D01*
X125998505Y-134605826D01*
X125995500Y-134607679D01*
X125995495Y-134607683D01*
X125871524Y-134731654D01*
X125779483Y-134880875D01*
X125779481Y-134880880D01*
X125724334Y-135047302D01*
X125724333Y-135047309D01*
X125713840Y-135150013D01*
X125713840Y-135287500D01*
X130663839Y-135287500D01*
X130663839Y-135150028D01*
X130663838Y-135150013D01*
X130653345Y-135047302D01*
X130598198Y-134880880D01*
X130598196Y-134880875D01*
X130506155Y-134731654D01*
X130382184Y-134607683D01*
X130382181Y-134607681D01*
X130379179Y-134605829D01*
X130377553Y-134604021D01*
X130376517Y-134603202D01*
X130376657Y-134603024D01*
X130332457Y-134553880D01*
X130321237Y-134484917D01*
X130349083Y-134420836D01*
X130379184Y-134394754D01*
X130382496Y-134392712D01*
X130506552Y-134268656D01*
X130598654Y-134119334D01*
X130653839Y-133952797D01*
X130664340Y-133850009D01*
X130664339Y-133675096D01*
X130684023Y-133608057D01*
X130700653Y-133587420D01*
X131001660Y-133286414D01*
X131062982Y-133252930D01*
X131132674Y-133257914D01*
X131188607Y-133299786D01*
X131213024Y-133365250D01*
X131213340Y-133374096D01*
X131213340Y-133850001D01*
X131213341Y-133850019D01*
X131223840Y-133952796D01*
X131223841Y-133952799D01*
X131268072Y-134086277D01*
X131279026Y-134119334D01*
X131371128Y-134268656D01*
X131495184Y-134392712D01*
X131498468Y-134394737D01*
X131498493Y-134394753D01*
X131500285Y-134396746D01*
X131500851Y-134397193D01*
X131500774Y-134397289D01*
X131545219Y-134446699D01*
X131556443Y-134515661D01*
X131528601Y-134579744D01*
X131498505Y-134605826D01*
X131495500Y-134607679D01*
X131495495Y-134607683D01*
X131371524Y-134731654D01*
X131279483Y-134880875D01*
X131279481Y-134880880D01*
X131224334Y-135047302D01*
X131224333Y-135047309D01*
X131213840Y-135150013D01*
X131213840Y-135287500D01*
X138163839Y-135287500D01*
X138163839Y-135150028D01*
X138163838Y-135150013D01*
X138153345Y-135047302D01*
X138098198Y-134880880D01*
X138098196Y-134880875D01*
X138006155Y-134731654D01*
X137882184Y-134607683D01*
X137882181Y-134607681D01*
X137879179Y-134605829D01*
X137877553Y-134604021D01*
X137876517Y-134603202D01*
X137876657Y-134603024D01*
X137832457Y-134553880D01*
X137821237Y-134484917D01*
X137849083Y-134420836D01*
X137879184Y-134394754D01*
X137882496Y-134392712D01*
X138006552Y-134268656D01*
X138098654Y-134119334D01*
X138153839Y-133952797D01*
X138164340Y-133850009D01*
X138164339Y-133074992D01*
X138164338Y-133074983D01*
X138713340Y-133074983D01*
X138713340Y-133850001D01*
X138713341Y-133850019D01*
X138723840Y-133952796D01*
X138723841Y-133952799D01*
X138768072Y-134086277D01*
X138779026Y-134119334D01*
X138871128Y-134268656D01*
X138995184Y-134392712D01*
X138998468Y-134394737D01*
X138998493Y-134394753D01*
X139000285Y-134396746D01*
X139000851Y-134397193D01*
X139000774Y-134397289D01*
X139045219Y-134446699D01*
X139056443Y-134515661D01*
X139028601Y-134579744D01*
X138998505Y-134605826D01*
X138995500Y-134607679D01*
X138995495Y-134607683D01*
X138871524Y-134731654D01*
X138779483Y-134880875D01*
X138779481Y-134880880D01*
X138724334Y-135047302D01*
X138724333Y-135047309D01*
X138713840Y-135150013D01*
X138713840Y-135287500D01*
X143663839Y-135287500D01*
X143663839Y-135150028D01*
X143663838Y-135150013D01*
X143653345Y-135047302D01*
X143598198Y-134880880D01*
X143598196Y-134880875D01*
X143506155Y-134731654D01*
X143382184Y-134607683D01*
X143382181Y-134607681D01*
X143379179Y-134605829D01*
X143377553Y-134604021D01*
X143376517Y-134603202D01*
X143376657Y-134603024D01*
X143332457Y-134553880D01*
X143321237Y-134484917D01*
X143349083Y-134420836D01*
X143379184Y-134394754D01*
X143382496Y-134392712D01*
X143506552Y-134268656D01*
X143598654Y-134119334D01*
X143653839Y-133952797D01*
X143664340Y-133850009D01*
X143664339Y-133074992D01*
X143657729Y-133010288D01*
X143653839Y-132972203D01*
X143653838Y-132972200D01*
X143652664Y-132968656D01*
X143598654Y-132805666D01*
X143598653Y-132805664D01*
X143598652Y-132805661D01*
X143598379Y-132805076D01*
X143598312Y-132804635D01*
X143596382Y-132798811D01*
X143597377Y-132798481D01*
X143587888Y-132735999D01*
X143616409Y-132672215D01*
X143623054Y-132665020D01*
X143919360Y-132368716D01*
X143998417Y-132231784D01*
X144039341Y-132079057D01*
X144039341Y-131920942D01*
X144039341Y-131913347D01*
X144039340Y-131913329D01*
X144039340Y-128570945D01*
X144039340Y-128570943D01*
X143998417Y-128418216D01*
X143998416Y-128418214D01*
X143996313Y-128410365D01*
X143997006Y-128410179D01*
X143989343Y-128371644D01*
X143989343Y-128079765D01*
X144009028Y-128012726D01*
X144010241Y-128010874D01*
X144098233Y-127879185D01*
X144098233Y-127879184D01*
X144098237Y-127879179D01*
X144158580Y-127733497D01*
X144189343Y-127578842D01*
X144189343Y-127421158D01*
X144189343Y-127421155D01*
X144189342Y-127421153D01*
X144186584Y-127407288D01*
X144158580Y-127266503D01*
X144146896Y-127238294D01*
X144098240Y-127120827D01*
X144098233Y-127120814D01*
X144010632Y-126989711D01*
X144010629Y-126989707D01*
X143899135Y-126878213D01*
X143899131Y-126878210D01*
X143768028Y-126790609D01*
X143768015Y-126790602D01*
X143622344Y-126730264D01*
X143622332Y-126730261D01*
X143467688Y-126699500D01*
X143467685Y-126699500D01*
X143310001Y-126699500D01*
X143309998Y-126699500D01*
X143155353Y-126730261D01*
X143155341Y-126730264D01*
X143036293Y-126779575D01*
X142966823Y-126787044D01*
X142941389Y-126779575D01*
X142822341Y-126730264D01*
X142822329Y-126730261D01*
X142667685Y-126699500D01*
X142667682Y-126699500D01*
X142509998Y-126699500D01*
X142509995Y-126699500D01*
X142355350Y-126730261D01*
X142355338Y-126730264D01*
X142209667Y-126790602D01*
X142209654Y-126790609D01*
X142078551Y-126878210D01*
X142078547Y-126878213D01*
X141967053Y-126989707D01*
X141967050Y-126989711D01*
X141879449Y-127120814D01*
X141879442Y-127120827D01*
X141819104Y-127266498D01*
X141819101Y-127266510D01*
X141788340Y-127421153D01*
X141788340Y-127578846D01*
X141819101Y-127733489D01*
X141819103Y-127733497D01*
X141855288Y-127820855D01*
X141864727Y-127868308D01*
X141864727Y-129673515D01*
X141845042Y-129740554D01*
X141828408Y-129761196D01*
X140458321Y-131131282D01*
X140458319Y-131131284D01*
X140436354Y-131169331D01*
X140418936Y-131199500D01*
X140379263Y-131268215D01*
X140338339Y-131420943D01*
X140338339Y-131420945D01*
X140338339Y-131589046D01*
X140338340Y-131589059D01*
X140338340Y-132162402D01*
X140329695Y-132191841D01*
X140323172Y-132221829D01*
X140319417Y-132226844D01*
X140318655Y-132229441D01*
X140302025Y-132250078D01*
X140254901Y-132297203D01*
X140213922Y-132338182D01*
X140152598Y-132371666D01*
X140126241Y-132374500D01*
X139413838Y-132374500D01*
X139413820Y-132374501D01*
X139311043Y-132385000D01*
X139311040Y-132385001D01*
X139144508Y-132440185D01*
X139144503Y-132440187D01*
X138995182Y-132532289D01*
X138871129Y-132656342D01*
X138779027Y-132805663D01*
X138779026Y-132805666D01*
X138723841Y-132972203D01*
X138723841Y-132972204D01*
X138723840Y-132972204D01*
X138713340Y-133074983D01*
X138164338Y-133074983D01*
X138157729Y-133010288D01*
X138153839Y-132972203D01*
X138153838Y-132972200D01*
X138152664Y-132968656D01*
X138098654Y-132805666D01*
X138006552Y-132656344D01*
X137882496Y-132532288D01*
X137733174Y-132440186D01*
X137566637Y-132385001D01*
X137566635Y-132385000D01*
X137463856Y-132374500D01*
X137463849Y-132374500D01*
X137163340Y-132374500D01*
X137096301Y-132354815D01*
X137050546Y-132302011D01*
X137039340Y-132250500D01*
X137039340Y-130579765D01*
X137059025Y-130512726D01*
X137060238Y-130510874D01*
X137148230Y-130379185D01*
X137148230Y-130379184D01*
X137148234Y-130379179D01*
X137208577Y-130233497D01*
X137239340Y-130078842D01*
X137239340Y-129921158D01*
X137239340Y-129921155D01*
X137239339Y-129921153D01*
X137221340Y-129830666D01*
X137208577Y-129766503D01*
X137197544Y-129739867D01*
X137148237Y-129620827D01*
X137148230Y-129620814D01*
X137060629Y-129489711D01*
X137060626Y-129489707D01*
X136949132Y-129378213D01*
X136949128Y-129378210D01*
X136818025Y-129290609D01*
X136818012Y-129290602D01*
X136672341Y-129230264D01*
X136672329Y-129230261D01*
X136517685Y-129199500D01*
X136517682Y-129199500D01*
X136359998Y-129199500D01*
X136359995Y-129199500D01*
X136205350Y-129230261D01*
X136205338Y-129230264D01*
X136059667Y-129290602D01*
X136059654Y-129290609D01*
X136007731Y-129325304D01*
X135941054Y-129346182D01*
X135873673Y-129327698D01*
X135869949Y-129325304D01*
X135818025Y-129290609D01*
X135818012Y-129290602D01*
X135672341Y-129230264D01*
X135672329Y-129230261D01*
X135517685Y-129199500D01*
X135517682Y-129199500D01*
X135359998Y-129199500D01*
X135359995Y-129199500D01*
X135205350Y-129230261D01*
X135205338Y-129230264D01*
X135059667Y-129290602D01*
X135059654Y-129290609D01*
X135007731Y-129325304D01*
X134941054Y-129346182D01*
X134873673Y-129327698D01*
X134869949Y-129325304D01*
X134818025Y-129290609D01*
X134818012Y-129290602D01*
X134672341Y-129230264D01*
X134672329Y-129230261D01*
X134517685Y-129199500D01*
X134517682Y-129199500D01*
X134359998Y-129199500D01*
X134359995Y-129199500D01*
X134205350Y-129230261D01*
X134205338Y-129230264D01*
X134059667Y-129290602D01*
X134059654Y-129290609D01*
X133928551Y-129378210D01*
X133928547Y-129378213D01*
X133817053Y-129489707D01*
X133813187Y-129494419D01*
X133811060Y-129492673D01*
X133766207Y-129529802D01*
X133696842Y-129538184D01*
X133633957Y-129507733D01*
X133597517Y-129448118D01*
X133599093Y-129378266D01*
X133602686Y-129368435D01*
X133658579Y-129233497D01*
X133689342Y-129078842D01*
X133689342Y-128921158D01*
X133689342Y-128921155D01*
X133689341Y-128921153D01*
X133665341Y-128800498D01*
X133658579Y-128766503D01*
X133632192Y-128702799D01*
X133598239Y-128620827D01*
X133598232Y-128620814D01*
X133510630Y-128489709D01*
X133399134Y-128378213D01*
X133399130Y-128378210D01*
X133268027Y-128290609D01*
X133268014Y-128290602D01*
X133122343Y-128230264D01*
X133122331Y-128230261D01*
X132967687Y-128199500D01*
X132967684Y-128199500D01*
X132810000Y-128199500D01*
X132809997Y-128199500D01*
X132655352Y-128230261D01*
X132655340Y-128230264D01*
X132509669Y-128290602D01*
X132509656Y-128290609D01*
X132378553Y-128378210D01*
X132378549Y-128378213D01*
X132267055Y-128489707D01*
X132267054Y-128489709D01*
X132179451Y-128620814D01*
X132179444Y-128620827D01*
X132119106Y-128766498D01*
X132119103Y-128766508D01*
X132088203Y-128921850D01*
X132055818Y-128983761D01*
X132054267Y-128985339D01*
X129726424Y-131313183D01*
X129665101Y-131346668D01*
X129638743Y-131349502D01*
X128575508Y-131349502D01*
X128575492Y-131349501D01*
X128567896Y-131349501D01*
X128409781Y-131349501D01*
X128333417Y-131369963D01*
X128257052Y-131390425D01*
X128257047Y-131390428D01*
X128120128Y-131469477D01*
X128120120Y-131469483D01*
X127632893Y-131956710D01*
X127607213Y-131976416D01*
X127532624Y-132019480D01*
X127532621Y-132019482D01*
X127213922Y-132338181D01*
X127152599Y-132371666D01*
X127126241Y-132374500D01*
X126413838Y-132374500D01*
X126413820Y-132374501D01*
X126311043Y-132385000D01*
X126311040Y-132385001D01*
X126144508Y-132440185D01*
X126144503Y-132440187D01*
X125995182Y-132532289D01*
X125871129Y-132656342D01*
X125779027Y-132805663D01*
X125779026Y-132805666D01*
X125723841Y-132972203D01*
X125723841Y-132972204D01*
X125723840Y-132972204D01*
X125713340Y-133074983D01*
X123039340Y-133074983D01*
X123039340Y-129180300D01*
X123059025Y-129113261D01*
X123111829Y-129067506D01*
X123124322Y-129062599D01*
X123208174Y-129034814D01*
X123357496Y-128942712D01*
X123481552Y-128818656D01*
X123573654Y-128669334D01*
X123628839Y-128502797D01*
X123639340Y-128400009D01*
X123639339Y-127599992D01*
X123628839Y-127497203D01*
X123573654Y-127330666D01*
X123481552Y-127181344D01*
X123387889Y-127087681D01*
X123354404Y-127026358D01*
X123359388Y-126956666D01*
X123387889Y-126912319D01*
X123421998Y-126878210D01*
X123481552Y-126818656D01*
X123573654Y-126669334D01*
X123628839Y-126502797D01*
X123639340Y-126400009D01*
X123639339Y-125599992D01*
X123628839Y-125497203D01*
X123573654Y-125330666D01*
X123481552Y-125181344D01*
X123357496Y-125057288D01*
X123208174Y-124965186D01*
X123124335Y-124937404D01*
X123066891Y-124897632D01*
X123040068Y-124833116D01*
X123039340Y-124819699D01*
X123039340Y-111589060D01*
X123039341Y-111589047D01*
X123039341Y-111420944D01*
X123037301Y-111413330D01*
X122998417Y-111268216D01*
X122998413Y-111268209D01*
X122919364Y-111131290D01*
X122919358Y-111131282D01*
X118261364Y-106473288D01*
X113600255Y-101812180D01*
X113566771Y-101750858D01*
X113571755Y-101681166D01*
X113613627Y-101625233D01*
X113679091Y-101600816D01*
X113687937Y-101600500D01*
X130852171Y-101600500D01*
X130852187Y-101600501D01*
X130859783Y-101600501D01*
X131017894Y-101600501D01*
X131017897Y-101600501D01*
X131170625Y-101559577D01*
X131220744Y-101530639D01*
X131307556Y-101480520D01*
X131419360Y-101368716D01*
X131419360Y-101368714D01*
X131429568Y-101358507D01*
X131429570Y-101358504D01*
X133626659Y-99161415D01*
X133687982Y-99127930D01*
X133757674Y-99132914D01*
X133813607Y-99174786D01*
X133838024Y-99240250D01*
X133838340Y-99249096D01*
X133838340Y-99549902D01*
X133818655Y-99616941D01*
X133802021Y-99637583D01*
X132458321Y-100981282D01*
X132458320Y-100981284D01*
X132414803Y-101056660D01*
X132413119Y-101059576D01*
X132413117Y-101059578D01*
X132379265Y-101118209D01*
X132379264Y-101118210D01*
X132379263Y-101118215D01*
X132338339Y-101270943D01*
X132338339Y-101270945D01*
X132338339Y-101439046D01*
X132338340Y-101439059D01*
X132338340Y-119699903D01*
X132318655Y-119766942D01*
X132302021Y-119787584D01*
X130424179Y-121665425D01*
X130362856Y-121698910D01*
X130360690Y-121699361D01*
X130205348Y-121730261D01*
X130205338Y-121730264D01*
X130059667Y-121790602D01*
X130059654Y-121790609D01*
X129928551Y-121878210D01*
X129928547Y-121878213D01*
X129817053Y-121989707D01*
X129817050Y-121989711D01*
X129729449Y-122120814D01*
X129729442Y-122120827D01*
X129669104Y-122266498D01*
X129669101Y-122266510D01*
X129638340Y-122421153D01*
X129638340Y-122578846D01*
X129669101Y-122733489D01*
X129669104Y-122733501D01*
X129729442Y-122879172D01*
X129729449Y-122879185D01*
X129817050Y-123010288D01*
X129817053Y-123010292D01*
X129928547Y-123121786D01*
X129928551Y-123121789D01*
X130059654Y-123209390D01*
X130059667Y-123209397D01*
X130205338Y-123269735D01*
X130205343Y-123269737D01*
X130359993Y-123300499D01*
X130359996Y-123300500D01*
X130359998Y-123300500D01*
X130517684Y-123300500D01*
X130517685Y-123300499D01*
X130672337Y-123269737D01*
X130818019Y-123209394D01*
X130949129Y-123121789D01*
X131060629Y-123010289D01*
X131148234Y-122879179D01*
X131208577Y-122733497D01*
X131227953Y-122636085D01*
X131239478Y-122578150D01*
X131271863Y-122516239D01*
X131273359Y-122514715D01*
X133307553Y-120480521D01*
X133307556Y-120480520D01*
X133419360Y-120368716D01*
X133469479Y-120281904D01*
X133498417Y-120231785D01*
X133539341Y-120079057D01*
X133539341Y-119920943D01*
X133539341Y-119913348D01*
X133539340Y-119913330D01*
X133539340Y-107576647D01*
X133838340Y-107576647D01*
X133838340Y-108423337D01*
X133838341Y-108423355D01*
X133848490Y-108522707D01*
X133848491Y-108522710D01*
X133901836Y-108683694D01*
X133901841Y-108683705D01*
X133990869Y-108828040D01*
X133990871Y-108828043D01*
X133990872Y-108828044D01*
X134110796Y-108947968D01*
X134129436Y-108959465D01*
X134176161Y-109011412D01*
X134188340Y-109065004D01*
X134188340Y-112195396D01*
X134178902Y-112242844D01*
X134169105Y-112266498D01*
X134169102Y-112266506D01*
X134169100Y-112266511D01*
X134138340Y-112421153D01*
X134138340Y-112578846D01*
X134169101Y-112733489D01*
X134169104Y-112733501D01*
X134229442Y-112879172D01*
X134229449Y-112879185D01*
X134317050Y-113010288D01*
X134317053Y-113010292D01*
X134428547Y-113121786D01*
X134428551Y-113121789D01*
X134559654Y-113209390D01*
X134559667Y-113209397D01*
X134697523Y-113266498D01*
X134705343Y-113269737D01*
X134859993Y-113300499D01*
X134859996Y-113300500D01*
X134859998Y-113300500D01*
X135017684Y-113300500D01*
X135017685Y-113300499D01*
X135172337Y-113269737D01*
X135318019Y-113209394D01*
X135449129Y-113121789D01*
X135560629Y-113010289D01*
X135648234Y-112879179D01*
X135708577Y-112733497D01*
X135739340Y-112578842D01*
X135739340Y-112421158D01*
X135739340Y-112421155D01*
X135739339Y-112421153D01*
X135735133Y-112400009D01*
X135708577Y-112266503D01*
X135708575Y-112266498D01*
X135648237Y-112120827D01*
X135648230Y-112120814D01*
X135560629Y-111989711D01*
X135560626Y-111989707D01*
X135449132Y-111878213D01*
X135449124Y-111878207D01*
X135444445Y-111875080D01*
X135399642Y-111821466D01*
X135389340Y-111771981D01*
X135389340Y-109065004D01*
X135409025Y-108997965D01*
X135448243Y-108959465D01*
X135466884Y-108947968D01*
X135586808Y-108828044D01*
X135675843Y-108683697D01*
X135729189Y-108522708D01*
X135739340Y-108423345D01*
X135739339Y-107576656D01*
X135729189Y-107477292D01*
X135675843Y-107316303D01*
X135675839Y-107316297D01*
X135675838Y-107316294D01*
X135586810Y-107171959D01*
X135586807Y-107171955D01*
X135466884Y-107052032D01*
X135466880Y-107052029D01*
X135322545Y-106963001D01*
X135322539Y-106962998D01*
X135322537Y-106962997D01*
X135306968Y-106957838D01*
X135161549Y-106909651D01*
X135062186Y-106899500D01*
X134515502Y-106899500D01*
X134515484Y-106899501D01*
X134416132Y-106909650D01*
X134416129Y-106909651D01*
X134255145Y-106962996D01*
X134255134Y-106963001D01*
X134110799Y-107052029D01*
X134110795Y-107052032D01*
X133990872Y-107171955D01*
X133990869Y-107171959D01*
X133901841Y-107316294D01*
X133901836Y-107316305D01*
X133848491Y-107477290D01*
X133838340Y-107576647D01*
X133539340Y-107576647D01*
X133539340Y-103923322D01*
X133838841Y-103923322D01*
X133848984Y-104022607D01*
X133902292Y-104183481D01*
X133902297Y-104183492D01*
X133991264Y-104327728D01*
X133991267Y-104327732D01*
X134111107Y-104447572D01*
X134111111Y-104447575D01*
X134255347Y-104536542D01*
X134255358Y-104536547D01*
X134416233Y-104589855D01*
X134515523Y-104599999D01*
X135038840Y-104599999D01*
X135062148Y-104599999D01*
X135062162Y-104599998D01*
X135161447Y-104589855D01*
X135322321Y-104536547D01*
X135322332Y-104536542D01*
X135466568Y-104447575D01*
X135466572Y-104447572D01*
X135586412Y-104327732D01*
X135586415Y-104327728D01*
X135675382Y-104183492D01*
X135675387Y-104183481D01*
X135728695Y-104022606D01*
X135738839Y-103923322D01*
X135738840Y-103923309D01*
X135738840Y-103750000D01*
X135038840Y-103750000D01*
X135038840Y-104599999D01*
X134515523Y-104599999D01*
X134538840Y-104599998D01*
X134538840Y-103750000D01*
X133838841Y-103750000D01*
X133838841Y-103923322D01*
X133539340Y-103923322D01*
X133539340Y-103076677D01*
X133838840Y-103076677D01*
X133838840Y-103250000D01*
X134538840Y-103250000D01*
X135038840Y-103250000D01*
X135738839Y-103250000D01*
X135738839Y-103076692D01*
X135738838Y-103076677D01*
X135728695Y-102977392D01*
X135675387Y-102816518D01*
X135675382Y-102816507D01*
X135586415Y-102672271D01*
X135586412Y-102672267D01*
X135466572Y-102552427D01*
X135466568Y-102552424D01*
X135322332Y-102463457D01*
X135322321Y-102463452D01*
X135161446Y-102410144D01*
X135062162Y-102400000D01*
X135038840Y-102400000D01*
X135038840Y-103250000D01*
X134538840Y-103250000D01*
X134538840Y-102399999D01*
X134515533Y-102400000D01*
X134515514Y-102400001D01*
X134416232Y-102410144D01*
X134255358Y-102463452D01*
X134255347Y-102463457D01*
X134111111Y-102552424D01*
X134111107Y-102552427D01*
X133991267Y-102672267D01*
X133991264Y-102672271D01*
X133902297Y-102816507D01*
X133902292Y-102816518D01*
X133848984Y-102977393D01*
X133838840Y-103076677D01*
X133539340Y-103076677D01*
X133539340Y-101650096D01*
X133559025Y-101583057D01*
X133575655Y-101562419D01*
X134501256Y-100636817D01*
X134562579Y-100603333D01*
X134588937Y-100600499D01*
X135062178Y-100600499D01*
X135062184Y-100600499D01*
X135062192Y-100600498D01*
X135062195Y-100600498D01*
X135116600Y-100594940D01*
X135161548Y-100590349D01*
X135322537Y-100537003D01*
X135466884Y-100447968D01*
X135586808Y-100328044D01*
X135675843Y-100183697D01*
X135729189Y-100022708D01*
X135739340Y-99923345D01*
X135739339Y-99076656D01*
X135739338Y-99076647D01*
X137138340Y-99076647D01*
X137138340Y-99923337D01*
X137138341Y-99923355D01*
X137148490Y-100022707D01*
X137148491Y-100022710D01*
X137201836Y-100183694D01*
X137201841Y-100183705D01*
X137290869Y-100328040D01*
X137290872Y-100328044D01*
X137410796Y-100447968D01*
X137429436Y-100459465D01*
X137476161Y-100511412D01*
X137488340Y-100565004D01*
X137488340Y-102434995D01*
X137468655Y-102502034D01*
X137429440Y-102540532D01*
X137410794Y-102552033D01*
X137290869Y-102671959D01*
X137201841Y-102816294D01*
X137201836Y-102816305D01*
X137148491Y-102977290D01*
X137138340Y-103076647D01*
X137138340Y-103923337D01*
X137138341Y-103923355D01*
X137148490Y-104022707D01*
X137148491Y-104022710D01*
X137201836Y-104183694D01*
X137201841Y-104183705D01*
X137290869Y-104328040D01*
X137290872Y-104328044D01*
X137410795Y-104447967D01*
X137410799Y-104447970D01*
X137555134Y-104536998D01*
X137555137Y-104536999D01*
X137555143Y-104537003D01*
X137716132Y-104590349D01*
X137815495Y-104600500D01*
X138362184Y-104600499D01*
X138362192Y-104600498D01*
X138362195Y-104600498D01*
X138416600Y-104594940D01*
X138461548Y-104590349D01*
X138622537Y-104537003D01*
X138766884Y-104447968D01*
X138886808Y-104328044D01*
X138975843Y-104183697D01*
X138975844Y-104183692D01*
X138978893Y-104177155D01*
X138980501Y-104177904D01*
X139015024Y-104128047D01*
X139079541Y-104101227D01*
X139092953Y-104100500D01*
X139725255Y-104100500D01*
X139792294Y-104120185D01*
X139838049Y-104172989D01*
X139842958Y-104185489D01*
X139879026Y-104294334D01*
X139971128Y-104443656D01*
X140095184Y-104567712D01*
X140244506Y-104659814D01*
X140411043Y-104714999D01*
X140513831Y-104725500D01*
X141288848Y-104725499D01*
X141288856Y-104725498D01*
X141288859Y-104725498D01*
X141345142Y-104719748D01*
X141391637Y-104714999D01*
X141558174Y-104659814D01*
X141707496Y-104567712D01*
X141831552Y-104443656D01*
X141833301Y-104440819D01*
X141835009Y-104439283D01*
X141836033Y-104437989D01*
X141836254Y-104438163D01*
X141885246Y-104394096D01*
X141954208Y-104382872D01*
X142018291Y-104410713D01*
X142044377Y-104440817D01*
X142046128Y-104443656D01*
X142170184Y-104567712D01*
X142316937Y-104658229D01*
X142363661Y-104710175D01*
X142375840Y-104763767D01*
X142375840Y-106927310D01*
X142356155Y-106994349D01*
X142314965Y-107034039D01*
X142297642Y-107044285D01*
X142297637Y-107044288D01*
X142188129Y-107153796D01*
X142188122Y-107153805D01*
X142109285Y-107287112D01*
X142109285Y-107287113D01*
X142102608Y-107310095D01*
X142065003Y-107368980D01*
X142001530Y-107398187D01*
X141983532Y-107399500D01*
X139092953Y-107399500D01*
X139025914Y-107379815D01*
X138980159Y-107327011D01*
X138976544Y-107317807D01*
X138975840Y-107316297D01*
X138886808Y-107171956D01*
X138766884Y-107052032D01*
X138766880Y-107052029D01*
X138622545Y-106963001D01*
X138622539Y-106962998D01*
X138622537Y-106962997D01*
X138606968Y-106957838D01*
X138461549Y-106909651D01*
X138362186Y-106899500D01*
X137815502Y-106899500D01*
X137815484Y-106899501D01*
X137716132Y-106909650D01*
X137716129Y-106909651D01*
X137555145Y-106962996D01*
X137555134Y-106963001D01*
X137410799Y-107052029D01*
X137410795Y-107052032D01*
X137290872Y-107171955D01*
X137290869Y-107171959D01*
X137201841Y-107316294D01*
X137201836Y-107316305D01*
X137148491Y-107477290D01*
X137138340Y-107576647D01*
X137138340Y-108423337D01*
X137138341Y-108423355D01*
X137148490Y-108522707D01*
X137148491Y-108522710D01*
X137201836Y-108683694D01*
X137201841Y-108683705D01*
X137290869Y-108828040D01*
X137290872Y-108828044D01*
X137410795Y-108947967D01*
X137410799Y-108947970D01*
X137555134Y-109036998D01*
X137555137Y-109036999D01*
X137555143Y-109037003D01*
X137716132Y-109090349D01*
X137815495Y-109100500D01*
X138362184Y-109100499D01*
X138362192Y-109100498D01*
X138362195Y-109100498D01*
X138416600Y-109094940D01*
X138461548Y-109090349D01*
X138622537Y-109037003D01*
X138766884Y-108947968D01*
X138886808Y-108828044D01*
X138975843Y-108683697D01*
X138975844Y-108683692D01*
X138978893Y-108677155D01*
X138980501Y-108677904D01*
X139015024Y-108628047D01*
X139079541Y-108601227D01*
X139092953Y-108600500D01*
X141939341Y-108600500D01*
X142006380Y-108620185D01*
X142052135Y-108672989D01*
X142063341Y-108724500D01*
X142063341Y-108869415D01*
X142066074Y-108904152D01*
X142066074Y-108904155D01*
X142066075Y-108904156D01*
X142109285Y-109052887D01*
X142131440Y-109090349D01*
X142188122Y-109186194D01*
X142188129Y-109186203D01*
X142297636Y-109295710D01*
X142297640Y-109295713D01*
X142297642Y-109295715D01*
X142430953Y-109374555D01*
X142579684Y-109417765D01*
X142614435Y-109420500D01*
X142963244Y-109420499D01*
X142965440Y-109420326D01*
X143033816Y-109434690D01*
X143083573Y-109483741D01*
X143098912Y-109551907D01*
X143074963Y-109617544D01*
X143038289Y-109650676D01*
X142947645Y-109704282D01*
X142947636Y-109704289D01*
X142838129Y-109813796D01*
X142838122Y-109813805D01*
X142759286Y-109947111D01*
X142716074Y-110095847D01*
X142716074Y-110095849D01*
X142713340Y-110130589D01*
X142713340Y-111529393D01*
X142713341Y-111529415D01*
X142716074Y-111564152D01*
X142716074Y-111564155D01*
X142716075Y-111564156D01*
X142759285Y-111712887D01*
X142790170Y-111765111D01*
X142838122Y-111846194D01*
X142838129Y-111846203D01*
X142947636Y-111955710D01*
X142947640Y-111955713D01*
X142947642Y-111955715D01*
X143080953Y-112034555D01*
X143229684Y-112077765D01*
X143264435Y-112080500D01*
X143613244Y-112080499D01*
X143647996Y-112077765D01*
X143724317Y-112055591D01*
X143794183Y-112055790D01*
X143846591Y-112086986D01*
X144123979Y-112364374D01*
X144123989Y-112364385D01*
X144128319Y-112368715D01*
X144128320Y-112368716D01*
X144240124Y-112480520D01*
X144278710Y-112502797D01*
X144326935Y-112530639D01*
X144326937Y-112530641D01*
X144364991Y-112552611D01*
X144377055Y-112559577D01*
X144529783Y-112600501D01*
X144529786Y-112600501D01*
X144695493Y-112600501D01*
X144695509Y-112600500D01*
X145692932Y-112600500D01*
X145759971Y-112620185D01*
X145798476Y-112664271D01*
X145800235Y-112663187D01*
X145804025Y-112669331D01*
X145804026Y-112669334D01*
X145896128Y-112818656D01*
X146020184Y-112942712D01*
X146169506Y-113034814D01*
X146253345Y-113062595D01*
X146310788Y-113102366D01*
X146337612Y-113166882D01*
X146338340Y-113180300D01*
X146338340Y-113920234D01*
X146318655Y-113987273D01*
X146317442Y-113989125D01*
X146229449Y-114120814D01*
X146229442Y-114120827D01*
X146169104Y-114266498D01*
X146169101Y-114266510D01*
X146138340Y-114421153D01*
X146138340Y-114578846D01*
X146169101Y-114733489D01*
X146169104Y-114733501D01*
X146229442Y-114879172D01*
X146229449Y-114879185D01*
X146317050Y-115010288D01*
X146317053Y-115010292D01*
X146428547Y-115121786D01*
X146428551Y-115121789D01*
X146559654Y-115209390D01*
X146559667Y-115209397D01*
X146705338Y-115269735D01*
X146705343Y-115269737D01*
X146859993Y-115300499D01*
X146859996Y-115300500D01*
X146859998Y-115300500D01*
X147017684Y-115300500D01*
X147017685Y-115300499D01*
X147172337Y-115269737D01*
X147318019Y-115209394D01*
X147449129Y-115121789D01*
X147560629Y-115010289D01*
X147648234Y-114879179D01*
X147708577Y-114733497D01*
X147739340Y-114578842D01*
X147739340Y-114421158D01*
X147739340Y-114421155D01*
X147739339Y-114421153D01*
X147722117Y-114334574D01*
X147708577Y-114266503D01*
X147648634Y-114121786D01*
X147648237Y-114120827D01*
X147648230Y-114120814D01*
X147560238Y-113989125D01*
X147539360Y-113922447D01*
X147539340Y-113920234D01*
X147539340Y-113180300D01*
X147559025Y-113113261D01*
X147611829Y-113067506D01*
X147624322Y-113062599D01*
X147708174Y-113034814D01*
X147857496Y-112942712D01*
X147981552Y-112818656D01*
X148073654Y-112669334D01*
X148128839Y-112502797D01*
X148139340Y-112400009D01*
X148139339Y-111599992D01*
X148137200Y-111579057D01*
X148128839Y-111497203D01*
X148128838Y-111497200D01*
X148103569Y-111420943D01*
X148073654Y-111330666D01*
X147981552Y-111181344D01*
X147887535Y-111087327D01*
X147854050Y-111026004D01*
X147859034Y-110956312D01*
X147887535Y-110911964D01*
X147981157Y-110818342D01*
X148073196Y-110669124D01*
X148073198Y-110669119D01*
X148128345Y-110502697D01*
X148128346Y-110502690D01*
X148138839Y-110399986D01*
X148138840Y-110399973D01*
X148138840Y-110250000D01*
X145738841Y-110250000D01*
X145738841Y-110399986D01*
X145749334Y-110502697D01*
X145804481Y-110669119D01*
X145804483Y-110669124D01*
X145896524Y-110818345D01*
X145990144Y-110911965D01*
X146023629Y-110973288D01*
X146018645Y-111042980D01*
X145990145Y-111087327D01*
X145896128Y-111181344D01*
X145824666Y-111297204D01*
X145800235Y-111336813D01*
X145798440Y-111335706D01*
X145759153Y-111380337D01*
X145692932Y-111399500D01*
X144908937Y-111399500D01*
X144841898Y-111379815D01*
X144821256Y-111363181D01*
X144200658Y-110742583D01*
X144167173Y-110681260D01*
X144164339Y-110654902D01*
X144164339Y-110130606D01*
X144164338Y-110130584D01*
X144161605Y-110095847D01*
X144161605Y-110095844D01*
X144118395Y-109947113D01*
X144039555Y-109813802D01*
X144039553Y-109813800D01*
X144039550Y-109813796D01*
X143930043Y-109704289D01*
X143930034Y-109704282D01*
X143928875Y-109703597D01*
X143928873Y-109703596D01*
X143839392Y-109650677D01*
X143792086Y-109600013D01*
X145738840Y-109600013D01*
X145738840Y-109750000D01*
X146688840Y-109750000D01*
X147188840Y-109750000D01*
X148138839Y-109750000D01*
X148138839Y-109600028D01*
X148138838Y-109600013D01*
X148128345Y-109497302D01*
X148073198Y-109330880D01*
X148073196Y-109330875D01*
X147981155Y-109181654D01*
X147857185Y-109057684D01*
X147707964Y-108965643D01*
X147707959Y-108965641D01*
X147541537Y-108910494D01*
X147541530Y-108910493D01*
X147438826Y-108900000D01*
X147188840Y-108900000D01*
X147188840Y-109750000D01*
X146688840Y-109750000D01*
X146688840Y-108900000D01*
X146438869Y-108900000D01*
X146438852Y-108900001D01*
X146336142Y-108910494D01*
X146169720Y-108965641D01*
X146169715Y-108965643D01*
X146020494Y-109057684D01*
X145896524Y-109181654D01*
X145804483Y-109330875D01*
X145804481Y-109330880D01*
X145749334Y-109497302D01*
X145749333Y-109497309D01*
X145738840Y-109600013D01*
X143792086Y-109600013D01*
X143791708Y-109599608D01*
X143779205Y-109530866D01*
X143805850Y-109466277D01*
X143863186Y-109426347D01*
X143912250Y-109420328D01*
X143914435Y-109420500D01*
X144263244Y-109420499D01*
X144297996Y-109417765D01*
X144446727Y-109374555D01*
X144580038Y-109295715D01*
X144689555Y-109186198D01*
X144768395Y-109052887D01*
X144811605Y-108904156D01*
X144814340Y-108869405D01*
X144814339Y-108345096D01*
X144822985Y-108315650D01*
X144829507Y-108285670D01*
X144833260Y-108280656D01*
X144834023Y-108278058D01*
X144850653Y-108257421D01*
X144971257Y-108136817D01*
X145032579Y-108103334D01*
X145058937Y-108100500D01*
X145692932Y-108100500D01*
X145759971Y-108120185D01*
X145798476Y-108164271D01*
X145800235Y-108163187D01*
X145804025Y-108169332D01*
X145804026Y-108169334D01*
X145896128Y-108318656D01*
X146020184Y-108442712D01*
X146169506Y-108534814D01*
X146336043Y-108589999D01*
X146438831Y-108600500D01*
X147438848Y-108600499D01*
X147438856Y-108600498D01*
X147438859Y-108600498D01*
X147495142Y-108594748D01*
X147541637Y-108589999D01*
X147708174Y-108534814D01*
X147857496Y-108442712D01*
X147981552Y-108318656D01*
X147987554Y-108308924D01*
X148039501Y-108262200D01*
X148108463Y-108250977D01*
X148172546Y-108278820D01*
X148207654Y-108326569D01*
X148229442Y-108379172D01*
X148229449Y-108379185D01*
X148317050Y-108510288D01*
X148317053Y-108510292D01*
X148428547Y-108621786D01*
X148428551Y-108621789D01*
X148559654Y-108709390D01*
X148559667Y-108709397D01*
X148654639Y-108748735D01*
X148705343Y-108769737D01*
X148857972Y-108800097D01*
X148859993Y-108800499D01*
X148859996Y-108800500D01*
X148859998Y-108800500D01*
X149017684Y-108800500D01*
X149017685Y-108800499D01*
X149172337Y-108769737D01*
X149318019Y-108709394D01*
X149449129Y-108621789D01*
X149560629Y-108510289D01*
X149648234Y-108379179D01*
X149708577Y-108233497D01*
X149739340Y-108078842D01*
X149739340Y-107921158D01*
X149739340Y-107921155D01*
X149739339Y-107921153D01*
X149708577Y-107766503D01*
X149682190Y-107702799D01*
X149648237Y-107620827D01*
X149648230Y-107620814D01*
X149560629Y-107489711D01*
X149560626Y-107489707D01*
X149449132Y-107378213D01*
X149449128Y-107378210D01*
X149318025Y-107290609D01*
X149318012Y-107290602D01*
X149172341Y-107230264D01*
X149172331Y-107230261D01*
X149016991Y-107199362D01*
X149000234Y-107190596D01*
X148981756Y-107186577D01*
X148956715Y-107167831D01*
X148955081Y-107166977D01*
X148953504Y-107165428D01*
X148953500Y-107165425D01*
X148941880Y-107153805D01*
X148919361Y-107131285D01*
X148919360Y-107131284D01*
X148807556Y-107019480D01*
X148807554Y-107019479D01*
X148807549Y-107019475D01*
X148709725Y-106962997D01*
X148709723Y-106962996D01*
X148670630Y-106940425D01*
X148670629Y-106940424D01*
X148614932Y-106925500D01*
X148517897Y-106899499D01*
X148359783Y-106899499D01*
X148352187Y-106899499D01*
X148352171Y-106899500D01*
X148184748Y-106899500D01*
X148117709Y-106879815D01*
X148079203Y-106835728D01*
X148077445Y-106836813D01*
X148070997Y-106826359D01*
X147981552Y-106681344D01*
X147887535Y-106587327D01*
X147854050Y-106526004D01*
X147859034Y-106456312D01*
X147887535Y-106411964D01*
X147981157Y-106318342D01*
X148073196Y-106169124D01*
X148073198Y-106169119D01*
X148128345Y-106002697D01*
X148128346Y-106002690D01*
X148138839Y-105899986D01*
X148138840Y-105899973D01*
X148138840Y-105750000D01*
X145738841Y-105750000D01*
X145738841Y-105899986D01*
X145749334Y-106002697D01*
X145804481Y-106169119D01*
X145804483Y-106169124D01*
X145896524Y-106318345D01*
X145990144Y-106411965D01*
X146023629Y-106473288D01*
X146018645Y-106542980D01*
X145990145Y-106587327D01*
X145896127Y-106681345D01*
X145800235Y-106836813D01*
X145798440Y-106835706D01*
X145759153Y-106880337D01*
X145692932Y-106899500D01*
X144837897Y-106899500D01*
X144679783Y-106899500D01*
X144527055Y-106940423D01*
X144527054Y-106940423D01*
X144527052Y-106940424D01*
X144527051Y-106940424D01*
X144517134Y-106946150D01*
X144449234Y-106962620D01*
X144420543Y-106957838D01*
X144297996Y-106922235D01*
X144297994Y-106922234D01*
X144297990Y-106922234D01*
X144267752Y-106919854D01*
X144263245Y-106919500D01*
X144263244Y-106919500D01*
X143914446Y-106919500D01*
X143914424Y-106919501D01*
X143879686Y-106922234D01*
X143735434Y-106964143D01*
X143665565Y-106963943D01*
X143606895Y-106926000D01*
X143578052Y-106862362D01*
X143576840Y-106845066D01*
X143576840Y-105100013D01*
X145738840Y-105100013D01*
X145738840Y-105250000D01*
X146688840Y-105250000D01*
X147188840Y-105250000D01*
X148138839Y-105250000D01*
X148138839Y-105188428D01*
X158838840Y-105188428D01*
X158838840Y-105300000D01*
X159658510Y-105300000D01*
X159638765Y-105319745D01*
X159589396Y-105405255D01*
X159563840Y-105500630D01*
X159563840Y-105599370D01*
X159589396Y-105694745D01*
X159638765Y-105780255D01*
X159658510Y-105800000D01*
X158838840Y-105800000D01*
X158838840Y-105911571D01*
X158865925Y-106082584D01*
X158919431Y-106247257D01*
X158998035Y-106401524D01*
X159099807Y-106541602D01*
X159222237Y-106664032D01*
X159362315Y-106765804D01*
X159516584Y-106844408D01*
X159681255Y-106897914D01*
X159681254Y-106897914D01*
X159688839Y-106899115D01*
X159688840Y-106899114D01*
X159688840Y-105830330D01*
X159708585Y-105850075D01*
X159794095Y-105899444D01*
X159889470Y-105925000D01*
X159988210Y-105925000D01*
X160083585Y-105899444D01*
X160169095Y-105850075D01*
X160188840Y-105830330D01*
X160188840Y-106899115D01*
X160196424Y-106897914D01*
X160361095Y-106844408D01*
X160515364Y-106765804D01*
X160655438Y-106664035D01*
X160763039Y-106556434D01*
X160824362Y-106522949D01*
X160894054Y-106527933D01*
X160949988Y-106569804D01*
X160956258Y-106579016D01*
X160996128Y-106643656D01*
X161120184Y-106767712D01*
X161269506Y-106859814D01*
X161436043Y-106914999D01*
X161538831Y-106925500D01*
X162338848Y-106925499D01*
X162338856Y-106925498D01*
X162338859Y-106925498D01*
X162397575Y-106919500D01*
X162441637Y-106914999D01*
X162608174Y-106859814D01*
X162757496Y-106767712D01*
X162881552Y-106643656D01*
X162973654Y-106494334D01*
X163028839Y-106327797D01*
X163039340Y-106225009D01*
X163039339Y-104874992D01*
X163028839Y-104772203D01*
X162973654Y-104605666D01*
X162881552Y-104456344D01*
X162757496Y-104332288D01*
X162633150Y-104255591D01*
X162608176Y-104240187D01*
X162608171Y-104240185D01*
X162606702Y-104239698D01*
X162441637Y-104185001D01*
X162441635Y-104185000D01*
X162338850Y-104174500D01*
X161538838Y-104174500D01*
X161538820Y-104174501D01*
X161436043Y-104185000D01*
X161436040Y-104185001D01*
X161269508Y-104240185D01*
X161269503Y-104240187D01*
X161120182Y-104332289D01*
X160996129Y-104456342D01*
X160956260Y-104520981D01*
X160904312Y-104567705D01*
X160835349Y-104578928D01*
X160771267Y-104551084D01*
X160763040Y-104543565D01*
X160655442Y-104435967D01*
X160515364Y-104334195D01*
X160361097Y-104255591D01*
X160196429Y-104202087D01*
X160196421Y-104202085D01*
X160188840Y-104200884D01*
X160188840Y-105269670D01*
X160169095Y-105249925D01*
X160083585Y-105200556D01*
X159988210Y-105175000D01*
X159889470Y-105175000D01*
X159794095Y-105200556D01*
X159708585Y-105249925D01*
X159688840Y-105269670D01*
X159688840Y-104200884D01*
X159688839Y-104200884D01*
X159681258Y-104202085D01*
X159681250Y-104202087D01*
X159516582Y-104255591D01*
X159362315Y-104334195D01*
X159222237Y-104435967D01*
X159099807Y-104558397D01*
X158998035Y-104698475D01*
X158919431Y-104852742D01*
X158865925Y-105017415D01*
X158838840Y-105188428D01*
X148138839Y-105188428D01*
X148138839Y-105100028D01*
X148138838Y-105100013D01*
X148128345Y-104997302D01*
X148073198Y-104830880D01*
X148073196Y-104830875D01*
X147981155Y-104681654D01*
X147857185Y-104557684D01*
X147707964Y-104465643D01*
X147707959Y-104465641D01*
X147541537Y-104410494D01*
X147541530Y-104410493D01*
X147438826Y-104400000D01*
X147188840Y-104400000D01*
X147188840Y-105250000D01*
X146688840Y-105250000D01*
X146688840Y-104400000D01*
X146438869Y-104400000D01*
X146438852Y-104400001D01*
X146336142Y-104410494D01*
X146169720Y-104465641D01*
X146169715Y-104465643D01*
X146020494Y-104557684D01*
X145896524Y-104681654D01*
X145804483Y-104830875D01*
X145804481Y-104830880D01*
X145749334Y-104997302D01*
X145749333Y-104997309D01*
X145738840Y-105100013D01*
X143576840Y-105100013D01*
X143576840Y-104763767D01*
X143596525Y-104696728D01*
X143635741Y-104658230D01*
X143782496Y-104567712D01*
X143906552Y-104443656D01*
X143998654Y-104294334D01*
X144053839Y-104127797D01*
X144064340Y-104025009D01*
X144064339Y-103312597D01*
X144084023Y-103245559D01*
X144100658Y-103224917D01*
X144166219Y-103159356D01*
X144269360Y-103056216D01*
X144348417Y-102919284D01*
X144389341Y-102766557D01*
X144389341Y-102608442D01*
X144389341Y-102600847D01*
X144389340Y-102600829D01*
X144389340Y-100600217D01*
X144409025Y-100533178D01*
X144448245Y-100494678D01*
X144523971Y-100447970D01*
X144532496Y-100442712D01*
X144656552Y-100318656D01*
X144748654Y-100169334D01*
X144803839Y-100002797D01*
X144814340Y-99900009D01*
X144814339Y-99099992D01*
X144803839Y-98997203D01*
X144748654Y-98830666D01*
X144656552Y-98681344D01*
X144532496Y-98557288D01*
X144389340Y-98468989D01*
X144383176Y-98465187D01*
X144383171Y-98465185D01*
X144376565Y-98462996D01*
X144216637Y-98410001D01*
X144216635Y-98410000D01*
X144113850Y-98399500D01*
X143463838Y-98399500D01*
X143463820Y-98399501D01*
X143361043Y-98410000D01*
X143361040Y-98410001D01*
X143194508Y-98465185D01*
X143194503Y-98465187D01*
X143045182Y-98557289D01*
X142921129Y-98681342D01*
X142829027Y-98830663D01*
X142829025Y-98830668D01*
X142806217Y-98899499D01*
X142773841Y-98997203D01*
X142773841Y-98997204D01*
X142773840Y-98997204D01*
X142763340Y-99099983D01*
X142763340Y-99900001D01*
X142763341Y-99900019D01*
X142773840Y-100002796D01*
X142773841Y-100002799D01*
X142826989Y-100163187D01*
X142829026Y-100169334D01*
X142894509Y-100275500D01*
X142921129Y-100318657D01*
X143045185Y-100442713D01*
X143045188Y-100442715D01*
X143129435Y-100494678D01*
X143176161Y-100546625D01*
X143188340Y-100600217D01*
X143188340Y-102150500D01*
X143168655Y-102217539D01*
X143115851Y-102263294D01*
X143064340Y-102274500D01*
X142588838Y-102274500D01*
X142588820Y-102274501D01*
X142486043Y-102285000D01*
X142486040Y-102285001D01*
X142319508Y-102340185D01*
X142319503Y-102340187D01*
X142170182Y-102432289D01*
X142046125Y-102556346D01*
X142044377Y-102559182D01*
X142042669Y-102560717D01*
X142041647Y-102562011D01*
X142041425Y-102561836D01*
X141992429Y-102605905D01*
X141923466Y-102617126D01*
X141859384Y-102589282D01*
X141833303Y-102559182D01*
X141831554Y-102556346D01*
X141707497Y-102432289D01*
X141707496Y-102432288D01*
X141558174Y-102340186D01*
X141391637Y-102285001D01*
X141391635Y-102285000D01*
X141288850Y-102274500D01*
X140513838Y-102274500D01*
X140513820Y-102274501D01*
X140411043Y-102285000D01*
X140411040Y-102285001D01*
X140244508Y-102340185D01*
X140244503Y-102340187D01*
X140095182Y-102432289D01*
X139971129Y-102556342D01*
X139879027Y-102705663D01*
X139879026Y-102705666D01*
X139849645Y-102794334D01*
X139842961Y-102814504D01*
X139803188Y-102871949D01*
X139738673Y-102898772D01*
X139725255Y-102899500D01*
X139092953Y-102899500D01*
X139025914Y-102879815D01*
X138980159Y-102827011D01*
X138976544Y-102817807D01*
X138975840Y-102816297D01*
X138886809Y-102671958D01*
X138886808Y-102671956D01*
X138766884Y-102552032D01*
X138748239Y-102540531D01*
X138701517Y-102488582D01*
X138689340Y-102434995D01*
X138689340Y-100565004D01*
X138709025Y-100497965D01*
X138748243Y-100459465D01*
X138766884Y-100447968D01*
X138886808Y-100328044D01*
X138975843Y-100183697D01*
X139029189Y-100022708D01*
X139039340Y-99923345D01*
X139039339Y-99076656D01*
X139033498Y-99019480D01*
X139029189Y-98977292D01*
X139029188Y-98977289D01*
X139010501Y-98920896D01*
X138975843Y-98816303D01*
X138975839Y-98816297D01*
X138975838Y-98816294D01*
X138886810Y-98671959D01*
X138886807Y-98671955D01*
X138766884Y-98552032D01*
X138766880Y-98552029D01*
X138622545Y-98463001D01*
X138622539Y-98462998D01*
X138622537Y-98462997D01*
X138622534Y-98462996D01*
X138461549Y-98409651D01*
X138362186Y-98399500D01*
X137815502Y-98399500D01*
X137815484Y-98399501D01*
X137716132Y-98409650D01*
X137716129Y-98409651D01*
X137555145Y-98462996D01*
X137555134Y-98463001D01*
X137410799Y-98552029D01*
X137410795Y-98552032D01*
X137290872Y-98671955D01*
X137290869Y-98671959D01*
X137201841Y-98816294D01*
X137201836Y-98816305D01*
X137148491Y-98977290D01*
X137138340Y-99076647D01*
X135739338Y-99076647D01*
X135733498Y-99019480D01*
X135729189Y-98977292D01*
X135729188Y-98977289D01*
X135710501Y-98920896D01*
X135675843Y-98816303D01*
X135675839Y-98816297D01*
X135675838Y-98816294D01*
X135586810Y-98671959D01*
X135586807Y-98671955D01*
X135466884Y-98552032D01*
X135466880Y-98552029D01*
X135322545Y-98463001D01*
X135322539Y-98462998D01*
X135322537Y-98462997D01*
X135322534Y-98462996D01*
X135161549Y-98409651D01*
X135062192Y-98399500D01*
X134687935Y-98399500D01*
X134620896Y-98379815D01*
X134575141Y-98327011D01*
X134565197Y-98257853D01*
X134594222Y-98194297D01*
X134600239Y-98187834D01*
X137151256Y-95636819D01*
X137212579Y-95603334D01*
X137238937Y-95600500D01*
X141859074Y-95600500D01*
X141926113Y-95620185D01*
X141927965Y-95621398D01*
X142059654Y-95709390D01*
X142059667Y-95709397D01*
X142205338Y-95769735D01*
X142205343Y-95769737D01*
X142359993Y-95800499D01*
X142359996Y-95800500D01*
X142359998Y-95800500D01*
X142517684Y-95800500D01*
X142517685Y-95800499D01*
X142672337Y-95769737D01*
X142818019Y-95709394D01*
X142949129Y-95621789D01*
X143060629Y-95510289D01*
X143148234Y-95379179D01*
X143208577Y-95233497D01*
X143239340Y-95078842D01*
X143239340Y-94921158D01*
X143239340Y-94921155D01*
X143239339Y-94921153D01*
X143208578Y-94766510D01*
X143208577Y-94766503D01*
X143151152Y-94627865D01*
X143148237Y-94620827D01*
X143148230Y-94620814D01*
X143060629Y-94489711D01*
X143060626Y-94489707D01*
X142949132Y-94378213D01*
X142949128Y-94378210D01*
X142818025Y-94290609D01*
X142818012Y-94290602D01*
X142672341Y-94230264D01*
X142672329Y-94230261D01*
X142517685Y-94199500D01*
X142517682Y-94199500D01*
X142359998Y-94199500D01*
X142359995Y-94199500D01*
X142205350Y-94230261D01*
X142205338Y-94230264D01*
X142059667Y-94290602D01*
X142059654Y-94290609D01*
X141927965Y-94378602D01*
X141861287Y-94399480D01*
X141859074Y-94399500D01*
X136859780Y-94399500D01*
X136818859Y-94410464D01*
X136818859Y-94410465D01*
X136782356Y-94420246D01*
X136707054Y-94440423D01*
X136707049Y-94440426D01*
X136570130Y-94519475D01*
X136570122Y-94519481D01*
X136458318Y-94631286D01*
X130726424Y-100363181D01*
X130665101Y-100396666D01*
X130638743Y-100399500D01*
X112663340Y-100399500D01*
X112596301Y-100379815D01*
X112550546Y-100327011D01*
X112539340Y-100275500D01*
X112539340Y-93682940D01*
X112559025Y-93615901D01*
X112575654Y-93595263D01*
X112660629Y-93510289D01*
X112748234Y-93379179D01*
X112808577Y-93233497D01*
X112839340Y-93078842D01*
X112839340Y-92921158D01*
X112839340Y-92921155D01*
X112839339Y-92921153D01*
X112821259Y-92830261D01*
X112808577Y-92766503D01*
X112790538Y-92722952D01*
X112748237Y-92620827D01*
X112748230Y-92620814D01*
X112660629Y-92489711D01*
X112660626Y-92489707D01*
X112549132Y-92378213D01*
X112549128Y-92378210D01*
X112418025Y-92290609D01*
X112418012Y-92290602D01*
X112272341Y-92230264D01*
X112272331Y-92230261D01*
X112139148Y-92203769D01*
X112077237Y-92171384D01*
X112042663Y-92110668D01*
X112039340Y-92082152D01*
X112039340Y-87200001D01*
X139266544Y-87200001D01*
X139266739Y-87202486D01*
X139312558Y-87360198D01*
X139396154Y-87501552D01*
X139396161Y-87501561D01*
X139512278Y-87617678D01*
X139512287Y-87617685D01*
X139653643Y-87701282D01*
X139653646Y-87701283D01*
X139811344Y-87747099D01*
X139811350Y-87747100D01*
X139848190Y-87749999D01*
X139848206Y-87750000D01*
X140251340Y-87750000D01*
X140751340Y-87750000D01*
X141154474Y-87750000D01*
X141154489Y-87749999D01*
X141191329Y-87747100D01*
X141191335Y-87747099D01*
X141349033Y-87701283D01*
X141349036Y-87701282D01*
X141490392Y-87617685D01*
X141490401Y-87617678D01*
X141606518Y-87501561D01*
X141606525Y-87501552D01*
X141690121Y-87360198D01*
X141735940Y-87202486D01*
X141736135Y-87200001D01*
X141736135Y-87200000D01*
X140751340Y-87200000D01*
X140751340Y-87750000D01*
X140251340Y-87750000D01*
X140251340Y-87200000D01*
X139266545Y-87200000D01*
X139266544Y-87200001D01*
X112039340Y-87200001D01*
X112039340Y-86699998D01*
X139266544Y-86699998D01*
X139266545Y-86700000D01*
X140251340Y-86700000D01*
X140251340Y-86150000D01*
X139848190Y-86150000D01*
X139811350Y-86152899D01*
X139811344Y-86152900D01*
X139653646Y-86198716D01*
X139653643Y-86198717D01*
X139512287Y-86282314D01*
X139512278Y-86282321D01*
X139396161Y-86398438D01*
X139396154Y-86398447D01*
X139312558Y-86539801D01*
X139266739Y-86697513D01*
X139266544Y-86699998D01*
X112039340Y-86699998D01*
X112039340Y-84834298D01*
X139263340Y-84834298D01*
X139263340Y-85265701D01*
X139266241Y-85302567D01*
X139266242Y-85302573D01*
X139312094Y-85460393D01*
X139312095Y-85460396D01*
X139395757Y-85601862D01*
X139395763Y-85601870D01*
X139511969Y-85718076D01*
X139511973Y-85718079D01*
X139511975Y-85718081D01*
X139653442Y-85801744D01*
X139695064Y-85813836D01*
X139811266Y-85847597D01*
X139811269Y-85847597D01*
X139811271Y-85847598D01*
X139848146Y-85850500D01*
X141014340Y-85850500D01*
X141023025Y-85853050D01*
X141031987Y-85851762D01*
X141056027Y-85862740D01*
X141081379Y-85870185D01*
X141087306Y-85877025D01*
X141095543Y-85880787D01*
X141109832Y-85903021D01*
X141127134Y-85922989D01*
X141129421Y-85933503D01*
X141133317Y-85939565D01*
X141138340Y-85974500D01*
X141138340Y-86026000D01*
X141118655Y-86093039D01*
X141065851Y-86138794D01*
X141014340Y-86150000D01*
X140751340Y-86150000D01*
X140751340Y-86700000D01*
X141407025Y-86700000D01*
X141470146Y-86717268D01*
X141528442Y-86751744D01*
X141570064Y-86763836D01*
X141686266Y-86797597D01*
X141686269Y-86797597D01*
X141686271Y-86797598D01*
X141723146Y-86800500D01*
X141723154Y-86800500D01*
X143029526Y-86800500D01*
X143029534Y-86800500D01*
X143066409Y-86797598D01*
X143066411Y-86797597D01*
X143066413Y-86797597D01*
X143108031Y-86785505D01*
X143224238Y-86751744D01*
X143365705Y-86668081D01*
X143396966Y-86636820D01*
X143458288Y-86603334D01*
X143484648Y-86600500D01*
X149192932Y-86600500D01*
X149259971Y-86620185D01*
X149298476Y-86664271D01*
X149300235Y-86663187D01*
X149304025Y-86669331D01*
X149304026Y-86669334D01*
X149396128Y-86818656D01*
X149520184Y-86942712D01*
X149669506Y-87034814D01*
X149753345Y-87062595D01*
X149810788Y-87102366D01*
X149837612Y-87166882D01*
X149838340Y-87180300D01*
X149838340Y-89649902D01*
X149818655Y-89716941D01*
X149802021Y-89737583D01*
X147973106Y-91566497D01*
X147911783Y-91599982D01*
X147848536Y-91597202D01*
X147716036Y-91555914D01*
X147645456Y-91549500D01*
X147132224Y-91549500D01*
X147096934Y-91552707D01*
X147061641Y-91555914D01*
X147055209Y-91557194D01*
X147054879Y-91555535D01*
X146993436Y-91556536D01*
X146934050Y-91519724D01*
X146903995Y-91456649D01*
X146912811Y-91387338D01*
X146938745Y-91349329D01*
X148453502Y-89834572D01*
X148514823Y-89801089D01*
X148516990Y-89800638D01*
X148574925Y-89789113D01*
X148672337Y-89769737D01*
X148818019Y-89709394D01*
X148949129Y-89621789D01*
X149060629Y-89510289D01*
X149148234Y-89379179D01*
X149208577Y-89233497D01*
X149239340Y-89078842D01*
X149239340Y-88921158D01*
X149239340Y-88921155D01*
X149239339Y-88921153D01*
X149208578Y-88766510D01*
X149208578Y-88766508D01*
X149208577Y-88766503D01*
X149208575Y-88766498D01*
X149148237Y-88620827D01*
X149148230Y-88620814D01*
X149060629Y-88489711D01*
X149060626Y-88489707D01*
X148949132Y-88378213D01*
X148949128Y-88378210D01*
X148818025Y-88290609D01*
X148818012Y-88290602D01*
X148672341Y-88230264D01*
X148672329Y-88230261D01*
X148517685Y-88199500D01*
X148517682Y-88199500D01*
X148359998Y-88199500D01*
X148359995Y-88199500D01*
X148205350Y-88230261D01*
X148205338Y-88230264D01*
X148059667Y-88290602D01*
X148059654Y-88290609D01*
X147928551Y-88378210D01*
X147928547Y-88378213D01*
X147817053Y-88489707D01*
X147817050Y-88489711D01*
X147729449Y-88620814D01*
X147729442Y-88620827D01*
X147669104Y-88766498D01*
X147669101Y-88766508D01*
X147638201Y-88921850D01*
X147605816Y-88983761D01*
X147604265Y-88985339D01*
X145121275Y-91468328D01*
X145121256Y-91468347D01*
X145120126Y-91469478D01*
X145120124Y-91469480D01*
X145008320Y-91581284D01*
X144999413Y-91596710D01*
X144989301Y-91607364D01*
X144976665Y-91614697D01*
X144963517Y-91628112D01*
X144853654Y-91694528D01*
X144853650Y-91694531D01*
X144733370Y-91814811D01*
X144645362Y-91960393D01*
X144594753Y-92122807D01*
X144588340Y-92193386D01*
X144588340Y-93806613D01*
X144594753Y-93877192D01*
X144594753Y-93877194D01*
X144594754Y-93877196D01*
X144645362Y-94039606D01*
X144717887Y-94159577D01*
X144733370Y-94185188D01*
X144853651Y-94305469D01*
X144853653Y-94305470D01*
X144853655Y-94305472D01*
X144999234Y-94393478D01*
X145161644Y-94444086D01*
X145232224Y-94450500D01*
X145232227Y-94450500D01*
X145745451Y-94450500D01*
X145745456Y-94450500D01*
X145753319Y-94449785D01*
X145821863Y-94463320D01*
X145872210Y-94511766D01*
X145888372Y-94579740D01*
X145865220Y-94645663D01*
X145828693Y-94679392D01*
X145803651Y-94694530D01*
X145683370Y-94814811D01*
X145595362Y-94960393D01*
X145544753Y-95122807D01*
X145538340Y-95193386D01*
X145538340Y-96071636D01*
X145530674Y-96110179D01*
X145531367Y-96110365D01*
X145529264Y-96118213D01*
X145529263Y-96118215D01*
X145488339Y-96270943D01*
X145488339Y-96270945D01*
X145488339Y-96439046D01*
X145488340Y-96439059D01*
X145488340Y-98399781D01*
X145468655Y-98466820D01*
X145429437Y-98505319D01*
X145345187Y-98557285D01*
X145345183Y-98557288D01*
X145221129Y-98681342D01*
X145129027Y-98830663D01*
X145129025Y-98830668D01*
X145106217Y-98899499D01*
X145073841Y-98997203D01*
X145073841Y-98997204D01*
X145073840Y-98997204D01*
X145063340Y-99099983D01*
X145063340Y-99900001D01*
X145063341Y-99900019D01*
X145073840Y-100002796D01*
X145073841Y-100002799D01*
X145126989Y-100163187D01*
X145129026Y-100169334D01*
X145194509Y-100275500D01*
X145221129Y-100318657D01*
X145345185Y-100442713D01*
X145345188Y-100442715D01*
X145429435Y-100494678D01*
X145436258Y-100502263D01*
X145445543Y-100506504D01*
X145459231Y-100527803D01*
X145476161Y-100546625D01*
X145478805Y-100558261D01*
X145483317Y-100565282D01*
X145488340Y-100600217D01*
X145488340Y-100669845D01*
X145468655Y-100736884D01*
X145415851Y-100782639D01*
X145403345Y-100787551D01*
X145244506Y-100840186D01*
X145244503Y-100840187D01*
X145095182Y-100932289D01*
X144971129Y-101056342D01*
X144879027Y-101205663D01*
X144879025Y-101205668D01*
X144870371Y-101231784D01*
X144823841Y-101372203D01*
X144823841Y-101372204D01*
X144823840Y-101372204D01*
X144813340Y-101474983D01*
X144813340Y-102525001D01*
X144813341Y-102525019D01*
X144823840Y-102627796D01*
X144823841Y-102627799D01*
X144879025Y-102794331D01*
X144879027Y-102794336D01*
X144892578Y-102816305D01*
X144971128Y-102943656D01*
X145095184Y-103067712D01*
X145244506Y-103159814D01*
X145411043Y-103214999D01*
X145513831Y-103225500D01*
X146288848Y-103225499D01*
X146288856Y-103225498D01*
X146288859Y-103225498D01*
X146345142Y-103219748D01*
X146391637Y-103214999D01*
X146558174Y-103159814D01*
X146707496Y-103067712D01*
X146831552Y-102943656D01*
X146833592Y-102940347D01*
X146835585Y-102938555D01*
X146836033Y-102937989D01*
X146836129Y-102938065D01*
X146885534Y-102893623D01*
X146954496Y-102882395D01*
X147018580Y-102910234D01*
X147044669Y-102940339D01*
X147046521Y-102943341D01*
X147046523Y-102943344D01*
X147170494Y-103067315D01*
X147319715Y-103159356D01*
X147319720Y-103159358D01*
X147486142Y-103214505D01*
X147486149Y-103214506D01*
X147588859Y-103224999D01*
X147726339Y-103224999D01*
X148226340Y-103224999D01*
X148363812Y-103224999D01*
X148363826Y-103224998D01*
X148466537Y-103214505D01*
X148632959Y-103159358D01*
X148632964Y-103159356D01*
X148782185Y-103067315D01*
X148906155Y-102943345D01*
X148998196Y-102794124D01*
X148998198Y-102794119D01*
X149053345Y-102627697D01*
X149053346Y-102627690D01*
X149063839Y-102524986D01*
X149063840Y-102524973D01*
X149063840Y-102250000D01*
X148226340Y-102250000D01*
X148226340Y-103224999D01*
X147726339Y-103224999D01*
X147726340Y-103224998D01*
X147726340Y-101750000D01*
X148226340Y-101750000D01*
X149063839Y-101750000D01*
X149063839Y-101475028D01*
X149063838Y-101475013D01*
X149053345Y-101372302D01*
X148998198Y-101205880D01*
X148998196Y-101205875D01*
X148906155Y-101056654D01*
X148782185Y-100932684D01*
X148632964Y-100840643D01*
X148632959Y-100840641D01*
X148466537Y-100785494D01*
X148466530Y-100785493D01*
X148363826Y-100775000D01*
X148226340Y-100775000D01*
X148226340Y-101750000D01*
X147726340Y-101750000D01*
X147726340Y-100775000D01*
X147588867Y-100775000D01*
X147588852Y-100775001D01*
X147486142Y-100785494D01*
X147319720Y-100840641D01*
X147319715Y-100840643D01*
X147170494Y-100932684D01*
X147046523Y-101056655D01*
X147046519Y-101056660D01*
X147044666Y-101059665D01*
X147042858Y-101061290D01*
X147042042Y-101062323D01*
X147041865Y-101062183D01*
X146992714Y-101106385D01*
X146923751Y-101117601D01*
X146859671Y-101089752D01*
X146849435Y-101080176D01*
X146840437Y-101070749D01*
X146831552Y-101056344D01*
X146724648Y-100949440D01*
X146723642Y-100948386D01*
X146708254Y-100918577D01*
X146692174Y-100889127D01*
X146691942Y-100886977D01*
X146691593Y-100886300D01*
X146691722Y-100884931D01*
X146689340Y-100862769D01*
X146689340Y-100600217D01*
X146709025Y-100533178D01*
X146748245Y-100494678D01*
X146823971Y-100447970D01*
X146832496Y-100442712D01*
X146956552Y-100318656D01*
X147048654Y-100169334D01*
X147048655Y-100169331D01*
X147052445Y-100163187D01*
X147054239Y-100164293D01*
X147093527Y-100119663D01*
X147159748Y-100100500D01*
X148638743Y-100100500D01*
X148705782Y-100120185D01*
X148726424Y-100136819D01*
X149104265Y-100514660D01*
X149137750Y-100575983D01*
X149138201Y-100578149D01*
X149169101Y-100733491D01*
X149169104Y-100733501D01*
X149229442Y-100879172D01*
X149229449Y-100879185D01*
X149317050Y-101010288D01*
X149317053Y-101010292D01*
X149428547Y-101121786D01*
X149428551Y-101121789D01*
X149559654Y-101209390D01*
X149559667Y-101209397D01*
X149705338Y-101269735D01*
X149705343Y-101269737D01*
X149859993Y-101300499D01*
X149859996Y-101300500D01*
X149859998Y-101300500D01*
X150017684Y-101300500D01*
X150017685Y-101300499D01*
X150172337Y-101269737D01*
X150318019Y-101209394D01*
X150449129Y-101121789D01*
X150560629Y-101010289D01*
X150648234Y-100879179D01*
X150708577Y-100733497D01*
X150739340Y-100578842D01*
X150739340Y-100421158D01*
X150739340Y-100421155D01*
X150739339Y-100421153D01*
X150731116Y-100379815D01*
X150708577Y-100266503D01*
X150708575Y-100266498D01*
X150648237Y-100120827D01*
X150648230Y-100120814D01*
X150560629Y-99989711D01*
X150560626Y-99989707D01*
X150449132Y-99878213D01*
X150449128Y-99878210D01*
X150318025Y-99790609D01*
X150318012Y-99790602D01*
X150172341Y-99730264D01*
X150172331Y-99730261D01*
X150016991Y-99699362D01*
X149955081Y-99666977D01*
X149953502Y-99665426D01*
X149426430Y-99138355D01*
X149426428Y-99138352D01*
X149307557Y-99019481D01*
X149307556Y-99019480D01*
X149220744Y-98969360D01*
X149220744Y-98969359D01*
X149220740Y-98969358D01*
X149170625Y-98940423D01*
X149017897Y-98899499D01*
X148859783Y-98899499D01*
X148852187Y-98899499D01*
X148852171Y-98899500D01*
X147159748Y-98899500D01*
X147092709Y-98879815D01*
X147054203Y-98835728D01*
X147052445Y-98836813D01*
X147039796Y-98816305D01*
X146956552Y-98681344D01*
X146832496Y-98557288D01*
X146832492Y-98557285D01*
X146748243Y-98505319D01*
X146701518Y-98453371D01*
X146689340Y-98399781D01*
X146689340Y-97559226D01*
X146709025Y-97492187D01*
X146761829Y-97446432D01*
X146776442Y-97440843D01*
X146928446Y-97393478D01*
X147074025Y-97305472D01*
X147194312Y-97185185D01*
X147282318Y-97039606D01*
X147332926Y-96877196D01*
X147339340Y-96806616D01*
X147339340Y-95193384D01*
X147332926Y-95122804D01*
X147282318Y-94960394D01*
X147194312Y-94814815D01*
X147194310Y-94814813D01*
X147194309Y-94814811D01*
X147074028Y-94694530D01*
X147074025Y-94694528D01*
X147048987Y-94679391D01*
X147001800Y-94627865D01*
X146989962Y-94559005D01*
X147017231Y-94494677D01*
X147074950Y-94455303D01*
X147124358Y-94449785D01*
X147132224Y-94450500D01*
X147132228Y-94450500D01*
X147645453Y-94450500D01*
X147645456Y-94450500D01*
X147716036Y-94444086D01*
X147878446Y-94393478D01*
X148024025Y-94305472D01*
X148144312Y-94185185D01*
X148232318Y-94039606D01*
X148282926Y-93877196D01*
X148289340Y-93806616D01*
X148289340Y-93000096D01*
X148309025Y-92933057D01*
X148325654Y-92912420D01*
X150797346Y-90440727D01*
X150797351Y-90440724D01*
X150807554Y-90430520D01*
X150807556Y-90430520D01*
X150919360Y-90318716D01*
X150998417Y-90181784D01*
X151039340Y-90029057D01*
X151039340Y-87180300D01*
X151059025Y-87113261D01*
X151111829Y-87067506D01*
X151124322Y-87062599D01*
X151208174Y-87034814D01*
X151357496Y-86942712D01*
X151481552Y-86818656D01*
X151573654Y-86669334D01*
X151628839Y-86502797D01*
X151639340Y-86400009D01*
X151639339Y-85599992D01*
X151628839Y-85497203D01*
X151573654Y-85330666D01*
X151481552Y-85181344D01*
X151387889Y-85087681D01*
X151354404Y-85026358D01*
X151359388Y-84956666D01*
X151387889Y-84912319D01*
X151481552Y-84818656D01*
X151573654Y-84669334D01*
X151628839Y-84502797D01*
X151639340Y-84400009D01*
X151639339Y-83599992D01*
X151637200Y-83579057D01*
X151628839Y-83497203D01*
X151628838Y-83497200D01*
X151626162Y-83489125D01*
X151573654Y-83330666D01*
X151548321Y-83289595D01*
X151529882Y-83222204D01*
X151550805Y-83155541D01*
X151604447Y-83110771D01*
X151653861Y-83100500D01*
X152859074Y-83100500D01*
X152926113Y-83120185D01*
X152927965Y-83121398D01*
X153059654Y-83209390D01*
X153059667Y-83209397D01*
X153138734Y-83242147D01*
X153205343Y-83269737D01*
X153310258Y-83290606D01*
X153359993Y-83300499D01*
X153359996Y-83300500D01*
X153359998Y-83300500D01*
X153517684Y-83300500D01*
X153517685Y-83300499D01*
X153672337Y-83269737D01*
X153818019Y-83209394D01*
X153949129Y-83121789D01*
X154060629Y-83010289D01*
X154148234Y-82879179D01*
X154154031Y-82865185D01*
X154176889Y-82810000D01*
X154208577Y-82733497D01*
X154239340Y-82578842D01*
X154239340Y-82421158D01*
X154239340Y-82421155D01*
X154239339Y-82421153D01*
X154208578Y-82266510D01*
X154208577Y-82266503D01*
X154203752Y-82254854D01*
X154148237Y-82120827D01*
X154148230Y-82120814D01*
X154060629Y-81989711D01*
X154060626Y-81989707D01*
X153949132Y-81878213D01*
X153949128Y-81878210D01*
X153818025Y-81790609D01*
X153818012Y-81790602D01*
X153672341Y-81730264D01*
X153672329Y-81730261D01*
X153517685Y-81699500D01*
X153517682Y-81699500D01*
X153400070Y-81699500D01*
X153333031Y-81679815D01*
X153287276Y-81627011D01*
X153277332Y-81557853D01*
X153306357Y-81494297D01*
X153312389Y-81487819D01*
X153381552Y-81418656D01*
X153473654Y-81269334D01*
X153528839Y-81102797D01*
X153539340Y-81000009D01*
X153539339Y-79999992D01*
X153528839Y-79897203D01*
X153473654Y-79730666D01*
X153381552Y-79581344D01*
X153257496Y-79457288D01*
X153108174Y-79365186D01*
X153108172Y-79365185D01*
X153102027Y-79361395D01*
X153103130Y-79359605D01*
X153058489Y-79320290D01*
X153039340Y-79254091D01*
X153039340Y-78745908D01*
X153059025Y-78678869D01*
X153103111Y-78640363D01*
X153102027Y-78638605D01*
X153108172Y-78634814D01*
X153108174Y-78634814D01*
X153257496Y-78542712D01*
X153381552Y-78418656D01*
X153473654Y-78269334D01*
X153528839Y-78102797D01*
X153539340Y-78000009D01*
X153539339Y-76999992D01*
X153534361Y-76951265D01*
X153528839Y-76897203D01*
X153528838Y-76897200D01*
X153517565Y-76863181D01*
X153473654Y-76730666D01*
X153381552Y-76581344D01*
X153257496Y-76457288D01*
X153129291Y-76378211D01*
X153108176Y-76365187D01*
X153108171Y-76365185D01*
X153106702Y-76364698D01*
X152941637Y-76310001D01*
X152941635Y-76310000D01*
X152838850Y-76299500D01*
X152038838Y-76299500D01*
X152038820Y-76299501D01*
X151936043Y-76310000D01*
X151936040Y-76310001D01*
X151769508Y-76365185D01*
X151769503Y-76365187D01*
X151620182Y-76457289D01*
X151526521Y-76550951D01*
X151465198Y-76584436D01*
X151395506Y-76579452D01*
X151351159Y-76550951D01*
X151257497Y-76457289D01*
X151257496Y-76457288D01*
X151129291Y-76378211D01*
X151108176Y-76365187D01*
X151108171Y-76365185D01*
X151106702Y-76364698D01*
X150941637Y-76310001D01*
X150941635Y-76310000D01*
X150838850Y-76299500D01*
X150038838Y-76299500D01*
X150038820Y-76299501D01*
X149936043Y-76310000D01*
X149936040Y-76310001D01*
X149769508Y-76365185D01*
X149769503Y-76365187D01*
X149620182Y-76457289D01*
X149496129Y-76581342D01*
X149404027Y-76730663D01*
X149404025Y-76730668D01*
X149376245Y-76814504D01*
X149336472Y-76871949D01*
X149271956Y-76898772D01*
X149258539Y-76899500D01*
X148619141Y-76899500D01*
X148552102Y-76879815D01*
X148506347Y-76827011D01*
X148501435Y-76814504D01*
X148473654Y-76730666D01*
X148381552Y-76581344D01*
X148257496Y-76457288D01*
X148108174Y-76365186D01*
X148108172Y-76365185D01*
X148102027Y-76361395D01*
X148103130Y-76359605D01*
X148097909Y-76355006D01*
X148082137Y-76347804D01*
X148072234Y-76332395D01*
X148058489Y-76320290D01*
X148053605Y-76303407D01*
X148044363Y-76289026D01*
X148039340Y-76254091D01*
X148039340Y-76089060D01*
X148039341Y-76089047D01*
X148039341Y-75920944D01*
X148027891Y-75878213D01*
X147998417Y-75768216D01*
X147958744Y-75699499D01*
X147919364Y-75631290D01*
X147919358Y-75631282D01*
X146926430Y-74638355D01*
X146926428Y-74638352D01*
X146807557Y-74519481D01*
X146807556Y-74519480D01*
X146720744Y-74469360D01*
X146720744Y-74469359D01*
X146720740Y-74469358D01*
X146670625Y-74440423D01*
X146517897Y-74399499D01*
X146359783Y-74399499D01*
X146352187Y-74399499D01*
X146352171Y-74399500D01*
X142025510Y-74399500D01*
X142025494Y-74399499D01*
X142017898Y-74399499D01*
X141859783Y-74399499D01*
X141783419Y-74419961D01*
X141707054Y-74440423D01*
X141707049Y-74440426D01*
X141570130Y-74519475D01*
X141570122Y-74519481D01*
X140458319Y-75631284D01*
X140430637Y-75679232D01*
X140418936Y-75699500D01*
X140379263Y-75768215D01*
X140338339Y-75920943D01*
X140338339Y-75920944D01*
X140338339Y-75920945D01*
X140338339Y-76089046D01*
X140338340Y-76089059D01*
X140338340Y-84125500D01*
X140318655Y-84192539D01*
X140265851Y-84238294D01*
X140214340Y-84249500D01*
X139848138Y-84249500D01*
X139811272Y-84252401D01*
X139811266Y-84252402D01*
X139653446Y-84298254D01*
X139653443Y-84298255D01*
X139511977Y-84381917D01*
X139511969Y-84381923D01*
X139395763Y-84498129D01*
X139395757Y-84498137D01*
X139312095Y-84639603D01*
X139312094Y-84639606D01*
X139266242Y-84797426D01*
X139266241Y-84797432D01*
X139263340Y-84834298D01*
X112039340Y-84834298D01*
X112039340Y-80749097D01*
X112059025Y-80682058D01*
X112111829Y-80636303D01*
X112180987Y-80626359D01*
X112244543Y-80655384D01*
X112251021Y-80661416D01*
X114302021Y-82712416D01*
X114335506Y-82773739D01*
X114338340Y-82800097D01*
X114338340Y-83420234D01*
X114318655Y-83487273D01*
X114317442Y-83489125D01*
X114229449Y-83620814D01*
X114229442Y-83620827D01*
X114169104Y-83766498D01*
X114169101Y-83766510D01*
X114138340Y-83921153D01*
X114138340Y-84078846D01*
X114169101Y-84233489D01*
X114169104Y-84233501D01*
X114229442Y-84379172D01*
X114229449Y-84379185D01*
X114317050Y-84510288D01*
X114317053Y-84510292D01*
X114428547Y-84621786D01*
X114428551Y-84621789D01*
X114559654Y-84709390D01*
X114559667Y-84709397D01*
X114704370Y-84769334D01*
X114705343Y-84769737D01*
X114844544Y-84797426D01*
X114859993Y-84800499D01*
X114859996Y-84800500D01*
X114859998Y-84800500D01*
X115017684Y-84800500D01*
X115017685Y-84800499D01*
X115172337Y-84769737D01*
X115318019Y-84709394D01*
X115369950Y-84674694D01*
X115436625Y-84653816D01*
X115504005Y-84672300D01*
X115507703Y-84674676D01*
X115559661Y-84709394D01*
X115559663Y-84709395D01*
X115559665Y-84709396D01*
X115704370Y-84769334D01*
X115705343Y-84769737D01*
X115844544Y-84797426D01*
X115859993Y-84800499D01*
X115859996Y-84800500D01*
X115859998Y-84800500D01*
X116017684Y-84800500D01*
X116017685Y-84800499D01*
X116172337Y-84769737D01*
X116318019Y-84709394D01*
X116369950Y-84674694D01*
X116436625Y-84653816D01*
X116504005Y-84672300D01*
X116507703Y-84674676D01*
X116559661Y-84709394D01*
X116559663Y-84709395D01*
X116559665Y-84709396D01*
X116704370Y-84769334D01*
X116705343Y-84769737D01*
X116844544Y-84797426D01*
X116859993Y-84800499D01*
X116859996Y-84800500D01*
X116859998Y-84800500D01*
X117017684Y-84800500D01*
X117017685Y-84800499D01*
X117172337Y-84769737D01*
X117318019Y-84709394D01*
X117449129Y-84621789D01*
X117560629Y-84510289D01*
X117648234Y-84379179D01*
X117708577Y-84233497D01*
X117739340Y-84078842D01*
X117739340Y-83921158D01*
X117739340Y-83921155D01*
X117739339Y-83921153D01*
X117708577Y-83766503D01*
X117708575Y-83766498D01*
X117648237Y-83620827D01*
X117648230Y-83620814D01*
X117560238Y-83489125D01*
X117539360Y-83422447D01*
X117539340Y-83420234D01*
X117539340Y-82800097D01*
X117559025Y-82733058D01*
X117575659Y-82712416D01*
X118962299Y-81325776D01*
X120419360Y-79868716D01*
X120498417Y-79731784D01*
X120539341Y-79579057D01*
X120539341Y-79420942D01*
X120539341Y-79413347D01*
X120539340Y-79413329D01*
X120539340Y-73079765D01*
X120559025Y-73012726D01*
X120560238Y-73010874D01*
X120620187Y-72921155D01*
X120648234Y-72879179D01*
X120708577Y-72733497D01*
X120739340Y-72578842D01*
X120739340Y-72421158D01*
X120739340Y-72421155D01*
X120739339Y-72421153D01*
X120708578Y-72266510D01*
X120708577Y-72266503D01*
X120686174Y-72212416D01*
X120648237Y-72120827D01*
X120648230Y-72120814D01*
X120560629Y-71989711D01*
X120560626Y-71989707D01*
X120449132Y-71878213D01*
X120449128Y-71878210D01*
X120318025Y-71790609D01*
X120318012Y-71790602D01*
X120172341Y-71730264D01*
X120172329Y-71730261D01*
X120017685Y-71699500D01*
X120017682Y-71699500D01*
X119859998Y-71699500D01*
X119859995Y-71699500D01*
X119705350Y-71730261D01*
X119705338Y-71730264D01*
X119559667Y-71790602D01*
X119559654Y-71790609D01*
X119428551Y-71878210D01*
X119428547Y-71878213D01*
X119317053Y-71989707D01*
X119317050Y-71989711D01*
X119229449Y-72120814D01*
X119229442Y-72120827D01*
X119169104Y-72266498D01*
X119169101Y-72266510D01*
X119138340Y-72421153D01*
X119138340Y-72578846D01*
X119169101Y-72733489D01*
X119169104Y-72733501D01*
X119229442Y-72879172D01*
X119229449Y-72879185D01*
X119317442Y-73010874D01*
X119338320Y-73077551D01*
X119338340Y-73079765D01*
X119338340Y-79199902D01*
X119318655Y-79266941D01*
X119302021Y-79287583D01*
X116751021Y-81838583D01*
X116689698Y-81872068D01*
X116620006Y-81867084D01*
X116564073Y-81825212D01*
X116539656Y-81759748D01*
X116539340Y-81750902D01*
X116539340Y-73800097D01*
X116559025Y-73733058D01*
X116575659Y-73712416D01*
X116987978Y-73300097D01*
X117453502Y-72834572D01*
X117514823Y-72801089D01*
X117516990Y-72800638D01*
X117574925Y-72789113D01*
X117672337Y-72769737D01*
X117818019Y-72709394D01*
X117949129Y-72621789D01*
X118060629Y-72510289D01*
X118148234Y-72379179D01*
X118208577Y-72233497D01*
X118239340Y-72078842D01*
X118239340Y-71921158D01*
X118239340Y-71921155D01*
X118239339Y-71921153D01*
X118213371Y-71790606D01*
X118208577Y-71766503D01*
X118208575Y-71766498D01*
X118148237Y-71620827D01*
X118148230Y-71620814D01*
X118060629Y-71489711D01*
X118060626Y-71489707D01*
X117949132Y-71378213D01*
X117949128Y-71378210D01*
X117818025Y-71290609D01*
X117818012Y-71290602D01*
X117672341Y-71230264D01*
X117672329Y-71230261D01*
X117517685Y-71199500D01*
X117517682Y-71199500D01*
X117359998Y-71199500D01*
X117359995Y-71199500D01*
X117205350Y-71230261D01*
X117205338Y-71230264D01*
X117059667Y-71290602D01*
X117059654Y-71290609D01*
X116928551Y-71378210D01*
X116928547Y-71378213D01*
X116817053Y-71489707D01*
X116817050Y-71489711D01*
X116729449Y-71620814D01*
X116729442Y-71620827D01*
X116669104Y-71766498D01*
X116669101Y-71766508D01*
X116638201Y-71921850D01*
X116605816Y-71983761D01*
X116604265Y-71985339D01*
X115458321Y-73131282D01*
X115458319Y-73131285D01*
X115413225Y-73209392D01*
X115413224Y-73209393D01*
X115379263Y-73268214D01*
X115379263Y-73268215D01*
X115338339Y-73420943D01*
X115338339Y-73420945D01*
X115338339Y-73589046D01*
X115338340Y-73589059D01*
X115338340Y-81750903D01*
X115318655Y-81817942D01*
X115265851Y-81863697D01*
X115196693Y-81873641D01*
X115133137Y-81844616D01*
X115126659Y-81838584D01*
X113075659Y-79787584D01*
X113042174Y-79726261D01*
X113039340Y-79699903D01*
X113039340Y-72300097D01*
X113059025Y-72233058D01*
X113075659Y-72212416D01*
X113997473Y-71290602D01*
X114953502Y-70334572D01*
X115014823Y-70301089D01*
X115016990Y-70300638D01*
X115074925Y-70289113D01*
X115172337Y-70269737D01*
X115318019Y-70209394D01*
X115449129Y-70121789D01*
X115560629Y-70010289D01*
X115648234Y-69879179D01*
X115708577Y-69733497D01*
X115739340Y-69578842D01*
X115739340Y-69421158D01*
X115739340Y-69421155D01*
X115739339Y-69421153D01*
X115708578Y-69266510D01*
X115708577Y-69266503D01*
X115708575Y-69266498D01*
X115648237Y-69120827D01*
X115648230Y-69120814D01*
X115560629Y-68989711D01*
X115560626Y-68989707D01*
X115449132Y-68878213D01*
X115449128Y-68878210D01*
X115318025Y-68790609D01*
X115318012Y-68790602D01*
X115172341Y-68730264D01*
X115172329Y-68730261D01*
X115017685Y-68699500D01*
X115017682Y-68699500D01*
X114887937Y-68699500D01*
X114866691Y-68693261D01*
X114844604Y-68691682D01*
X114833820Y-68683609D01*
X114820898Y-68679815D01*
X114806399Y-68663083D01*
X114788670Y-68649811D01*
X114783962Y-68637188D01*
X114775143Y-68627011D01*
X114771991Y-68605094D01*
X114764253Y-68584346D01*
X114767115Y-68571185D01*
X114765199Y-68557853D01*
X114774398Y-68537709D01*
X114779105Y-68516073D01*
X114792374Y-68498345D01*
X114794224Y-68494297D01*
X114800241Y-68487833D01*
X114953503Y-68334571D01*
X115014823Y-68301089D01*
X115016990Y-68300638D01*
X115074925Y-68289113D01*
X115172337Y-68269737D01*
X115318019Y-68209394D01*
X115449129Y-68121789D01*
X115560629Y-68010289D01*
X115648234Y-67879179D01*
X115708577Y-67733497D01*
X115739340Y-67578842D01*
X115739340Y-67421158D01*
X115739340Y-67421155D01*
X115739339Y-67421153D01*
X115708578Y-67266510D01*
X115708577Y-67266503D01*
X115708575Y-67266498D01*
X115648237Y-67120827D01*
X115648230Y-67120814D01*
X115560629Y-66989711D01*
X115560626Y-66989707D01*
X115449132Y-66878213D01*
X115449128Y-66878210D01*
X115318025Y-66790609D01*
X115318019Y-66790606D01*
X115300429Y-66783320D01*
X115246026Y-66739478D01*
X115223962Y-66673184D01*
X115226265Y-66644571D01*
X115239340Y-66578842D01*
X115239340Y-66421158D01*
X115239340Y-66421155D01*
X115239339Y-66421153D01*
X115208578Y-66266510D01*
X115208578Y-66266508D01*
X115208577Y-66266503D01*
X115148634Y-66121786D01*
X115148237Y-66120827D01*
X115148230Y-66120814D01*
X115060629Y-65989711D01*
X115060626Y-65989707D01*
X114949132Y-65878213D01*
X114949128Y-65878210D01*
X114818025Y-65790609D01*
X114818012Y-65790602D01*
X114672341Y-65730264D01*
X114672329Y-65730261D01*
X114517685Y-65699500D01*
X114517682Y-65699500D01*
X114359998Y-65699500D01*
X114359995Y-65699500D01*
X114205350Y-65730261D01*
X114205338Y-65730264D01*
X114059667Y-65790602D01*
X114059654Y-65790609D01*
X113928551Y-65878210D01*
X113928547Y-65878213D01*
X113817053Y-65989707D01*
X113817050Y-65989711D01*
X113729449Y-66120814D01*
X113729442Y-66120827D01*
X113669104Y-66266498D01*
X113669101Y-66266508D01*
X113638201Y-66421850D01*
X113605816Y-66483761D01*
X113604265Y-66485339D01*
X109920821Y-70168782D01*
X109920815Y-70168790D01*
X109884447Y-70231783D01*
X109884447Y-70231785D01*
X109841763Y-70305714D01*
X109834030Y-70334574D01*
X109800839Y-70458443D01*
X109800839Y-70616557D01*
X109800839Y-70616559D01*
X109800840Y-70626553D01*
X109800840Y-100875830D01*
X109800839Y-100875848D01*
X109800839Y-101041554D01*
X109800838Y-101041554D01*
X107939340Y-101041554D01*
X107939340Y-57336110D01*
X107959025Y-57269071D01*
X108011829Y-57223316D01*
X108080987Y-57213372D01*
X108144543Y-57242397D01*
X108151021Y-57248429D01*
X109552017Y-58649425D01*
X109552018Y-58649426D01*
X120477230Y-47724212D01*
X120538551Y-47690729D01*
X120608243Y-47695713D01*
X120664176Y-47737585D01*
X120688267Y-47799293D01*
X120698841Y-47902797D01*
X120698841Y-47902799D01*
X120734460Y-48010288D01*
X120754026Y-48069334D01*
X120846128Y-48218656D01*
X120970184Y-48342712D01*
X121119506Y-48434814D01*
X121286043Y-48489999D01*
X121388831Y-48500500D01*
X122038848Y-48500499D01*
X122038856Y-48500498D01*
X122038859Y-48500498D01*
X122095142Y-48494748D01*
X122141637Y-48489999D01*
X122308174Y-48434814D01*
X122457496Y-48342712D01*
X122581552Y-48218656D01*
X122673654Y-48069334D01*
X122728839Y-47902797D01*
X122739340Y-47800009D01*
X122739339Y-46875095D01*
X122759023Y-46808057D01*
X122775653Y-46787420D01*
X123426256Y-46136819D01*
X123487579Y-46103334D01*
X123513937Y-46100500D01*
X125014340Y-46100500D01*
X125081379Y-46120185D01*
X125127134Y-46172989D01*
X125138340Y-46224500D01*
X125138340Y-47800001D01*
X125138341Y-47800018D01*
X125148840Y-47902796D01*
X125148841Y-47902799D01*
X125184460Y-48010288D01*
X125204026Y-48069334D01*
X125296128Y-48218656D01*
X125420184Y-48342712D01*
X125569506Y-48434814D01*
X125736043Y-48489999D01*
X125838831Y-48500500D01*
X126488848Y-48500499D01*
X126488856Y-48500498D01*
X126488859Y-48500498D01*
X126545142Y-48494748D01*
X126591637Y-48489999D01*
X126678996Y-48461051D01*
X126748824Y-48458649D01*
X126805681Y-48491076D01*
X127802021Y-49487416D01*
X127835506Y-49548739D01*
X127838340Y-49575097D01*
X127838340Y-57413330D01*
X127838339Y-57413348D01*
X127838339Y-57579054D01*
X127838338Y-57579054D01*
X127879264Y-57731789D01*
X127879265Y-57731790D01*
X127900597Y-57768737D01*
X127900598Y-57768739D01*
X127958315Y-57868709D01*
X127958321Y-57868717D01*
X128077189Y-57987585D01*
X128077195Y-57987590D01*
X129953979Y-59864374D01*
X129953989Y-59864385D01*
X129958319Y-59868715D01*
X129958320Y-59868716D01*
X130070124Y-59980520D01*
X130121687Y-60010289D01*
X130156935Y-60030639D01*
X130156937Y-60030641D01*
X130194991Y-60052611D01*
X130207055Y-60059577D01*
X130359783Y-60100500D01*
X130517897Y-60100500D01*
X130690647Y-60100500D01*
X130690663Y-60100501D01*
X130698259Y-60100501D01*
X130856370Y-60100501D01*
X130856373Y-60100501D01*
X131009101Y-60059577D01*
X131059220Y-60030639D01*
X131146032Y-59980520D01*
X131257836Y-59868716D01*
X131257836Y-59868714D01*
X131268044Y-59858507D01*
X131268045Y-59858504D01*
X131459264Y-59667286D01*
X131520586Y-59633802D01*
X131590278Y-59638786D01*
X131646211Y-59680658D01*
X131667193Y-59727707D01*
X131667334Y-59727665D01*
X131667672Y-59728781D01*
X131668560Y-59730771D01*
X131669100Y-59733488D01*
X131669104Y-59733501D01*
X131729442Y-59879172D01*
X131729449Y-59879185D01*
X131817442Y-60010874D01*
X131838320Y-60077551D01*
X131838340Y-60079765D01*
X131838340Y-62699903D01*
X131818655Y-62766942D01*
X131802021Y-62787584D01*
X130570124Y-64019481D01*
X126171126Y-68418478D01*
X126059321Y-68530282D01*
X126059319Y-68530285D01*
X126009201Y-68617094D01*
X126009199Y-68617096D01*
X125980265Y-68667209D01*
X125980264Y-68667210D01*
X125980263Y-68667215D01*
X125939339Y-68819943D01*
X125939339Y-68819945D01*
X125939339Y-68988046D01*
X125939340Y-68988059D01*
X125939340Y-70200224D01*
X125919655Y-70267263D01*
X125866851Y-70313018D01*
X125797693Y-70322962D01*
X125734137Y-70293937D01*
X125700779Y-70247676D01*
X125648237Y-70120827D01*
X125648230Y-70120814D01*
X125560629Y-69989711D01*
X125560626Y-69989707D01*
X125449132Y-69878213D01*
X125449128Y-69878210D01*
X125318025Y-69790609D01*
X125318012Y-69790602D01*
X125172341Y-69730264D01*
X125172329Y-69730261D01*
X125017685Y-69699500D01*
X125017682Y-69699500D01*
X124859998Y-69699500D01*
X124859995Y-69699500D01*
X124705350Y-69730261D01*
X124705338Y-69730264D01*
X124559667Y-69790602D01*
X124559654Y-69790609D01*
X124428551Y-69878210D01*
X124428547Y-69878213D01*
X124317053Y-69989707D01*
X124317050Y-69989711D01*
X124229449Y-70120814D01*
X124229442Y-70120827D01*
X124169104Y-70266498D01*
X124169101Y-70266508D01*
X124138201Y-70421850D01*
X124105816Y-70483761D01*
X124104265Y-70485339D01*
X121958321Y-72631282D01*
X121958319Y-72631285D01*
X121913225Y-72709392D01*
X121913224Y-72709393D01*
X121879263Y-72768214D01*
X121879263Y-72768215D01*
X121838339Y-72920943D01*
X121838339Y-72920945D01*
X121838339Y-73089046D01*
X121838340Y-73089059D01*
X121838340Y-83420234D01*
X121818655Y-83487273D01*
X121817442Y-83489125D01*
X121729449Y-83620814D01*
X121729442Y-83620827D01*
X121669104Y-83766498D01*
X121669101Y-83766510D01*
X121638340Y-83921153D01*
X121638340Y-84078846D01*
X121669101Y-84233489D01*
X121669104Y-84233501D01*
X121729442Y-84379172D01*
X121729449Y-84379185D01*
X121817050Y-84510288D01*
X121817053Y-84510292D01*
X121928547Y-84621786D01*
X121928551Y-84621789D01*
X122059654Y-84709390D01*
X122059667Y-84709397D01*
X122204370Y-84769334D01*
X122205343Y-84769737D01*
X122344544Y-84797426D01*
X122359993Y-84800499D01*
X122359996Y-84800500D01*
X122359998Y-84800500D01*
X122517684Y-84800500D01*
X122517685Y-84800499D01*
X122672337Y-84769737D01*
X122818019Y-84709394D01*
X122869950Y-84674694D01*
X122936625Y-84653816D01*
X123004005Y-84672300D01*
X123007703Y-84674676D01*
X123059661Y-84709394D01*
X123059663Y-84709395D01*
X123059665Y-84709396D01*
X123204370Y-84769334D01*
X123205343Y-84769737D01*
X123344544Y-84797426D01*
X123359993Y-84800499D01*
X123359996Y-84800500D01*
X123359998Y-84800500D01*
X123517684Y-84800500D01*
X123517685Y-84800499D01*
X123672337Y-84769737D01*
X123818019Y-84709394D01*
X123869950Y-84674694D01*
X123936625Y-84653816D01*
X124004005Y-84672300D01*
X124007703Y-84674676D01*
X124059661Y-84709394D01*
X124059663Y-84709395D01*
X124059665Y-84709396D01*
X124204370Y-84769334D01*
X124205343Y-84769737D01*
X124344544Y-84797426D01*
X124359993Y-84800499D01*
X124359996Y-84800500D01*
X124359998Y-84800500D01*
X124517684Y-84800500D01*
X124517685Y-84800499D01*
X124672337Y-84769737D01*
X124727857Y-84746740D01*
X124798909Y-84717310D01*
X124818013Y-84709397D01*
X124818016Y-84709395D01*
X124818019Y-84709394D01*
X124949129Y-84621789D01*
X125060629Y-84510289D01*
X125148234Y-84379179D01*
X125208577Y-84233497D01*
X125230059Y-84125500D01*
X125239478Y-84078150D01*
X125271863Y-84016239D01*
X125273358Y-84014716D01*
X130419360Y-78868716D01*
X130498417Y-78731784D01*
X130539341Y-78579057D01*
X130539341Y-78420942D01*
X130539341Y-78413347D01*
X130539340Y-78413329D01*
X130539340Y-77579765D01*
X130559025Y-77512726D01*
X130560238Y-77510874D01*
X130648230Y-77379185D01*
X130648230Y-77379184D01*
X130648234Y-77379179D01*
X130708577Y-77233497D01*
X130739340Y-77078842D01*
X130739340Y-76921158D01*
X130739340Y-76921155D01*
X130739339Y-76921153D01*
X130708577Y-76766503D01*
X130670354Y-76674223D01*
X130648237Y-76620827D01*
X130648230Y-76620814D01*
X130560629Y-76489711D01*
X130560626Y-76489707D01*
X130449132Y-76378213D01*
X130449128Y-76378210D01*
X130318025Y-76290609D01*
X130318012Y-76290602D01*
X130172341Y-76230264D01*
X130172329Y-76230261D01*
X130017685Y-76199500D01*
X130017682Y-76199500D01*
X129859998Y-76199500D01*
X129859995Y-76199500D01*
X129705350Y-76230261D01*
X129705338Y-76230264D01*
X129559667Y-76290602D01*
X129559654Y-76290609D01*
X129428551Y-76378210D01*
X129428547Y-76378213D01*
X129317053Y-76489707D01*
X129317050Y-76489711D01*
X129229449Y-76620814D01*
X129229442Y-76620827D01*
X129169104Y-76766498D01*
X129169101Y-76766510D01*
X129138340Y-76921153D01*
X129138340Y-77078846D01*
X129169101Y-77233489D01*
X129169104Y-77233501D01*
X129229442Y-77379172D01*
X129229449Y-77379185D01*
X129317442Y-77510874D01*
X129338320Y-77577551D01*
X129338340Y-77579765D01*
X129338340Y-78199902D01*
X129318655Y-78266941D01*
X129302021Y-78287583D01*
X128251021Y-79338583D01*
X128189698Y-79372068D01*
X128120006Y-79367084D01*
X128064073Y-79325212D01*
X128039656Y-79259748D01*
X128039340Y-79250902D01*
X128039340Y-72921153D01*
X128638340Y-72921153D01*
X128638340Y-73078846D01*
X128669101Y-73233489D01*
X128669104Y-73233501D01*
X128729442Y-73379172D01*
X128729449Y-73379185D01*
X128817050Y-73510288D01*
X128817053Y-73510292D01*
X128928547Y-73621786D01*
X128928551Y-73621789D01*
X129059654Y-73709390D01*
X129059667Y-73709397D01*
X129116791Y-73733058D01*
X129205343Y-73769737D01*
X129357972Y-73800097D01*
X129359993Y-73800499D01*
X129359996Y-73800500D01*
X129359998Y-73800500D01*
X129517684Y-73800500D01*
X129517685Y-73800499D01*
X129672337Y-73769737D01*
X129818019Y-73709394D01*
X129949129Y-73621789D01*
X130060629Y-73510289D01*
X130148234Y-73379179D01*
X130208577Y-73233497D01*
X130239340Y-73078842D01*
X130239340Y-72921158D01*
X130239340Y-72921155D01*
X130239339Y-72921153D01*
X130222117Y-72834574D01*
X130208577Y-72766503D01*
X130184922Y-72709394D01*
X130148237Y-72620827D01*
X130148230Y-72620814D01*
X130060238Y-72489125D01*
X130039360Y-72422447D01*
X130039340Y-72420234D01*
X130039340Y-70300097D01*
X130059025Y-70233058D01*
X130075659Y-70212416D01*
X132277787Y-68010288D01*
X134504336Y-65783738D01*
X134565657Y-65750255D01*
X134635349Y-65755239D01*
X134691282Y-65797111D01*
X134706576Y-65823967D01*
X134729446Y-65879178D01*
X134729449Y-65879185D01*
X134817050Y-66010288D01*
X134817053Y-66010292D01*
X134928547Y-66121786D01*
X134928551Y-66121789D01*
X135059654Y-66209390D01*
X135059667Y-66209397D01*
X135197523Y-66266498D01*
X135205343Y-66269737D01*
X135359993Y-66300499D01*
X135359996Y-66300500D01*
X135359998Y-66300500D01*
X135517684Y-66300500D01*
X135517685Y-66300499D01*
X135672337Y-66269737D01*
X135818019Y-66209394D01*
X135818025Y-66209390D01*
X135949715Y-66121398D01*
X136016393Y-66100520D01*
X136018606Y-66100500D01*
X150359783Y-66100500D01*
X152638743Y-66100500D01*
X152705782Y-66120185D01*
X152726424Y-66136819D01*
X163802021Y-77212416D01*
X163835506Y-77273739D01*
X163838340Y-77300097D01*
X163838340Y-128138330D01*
X163838339Y-128138348D01*
X163838339Y-128304054D01*
X163838338Y-128304054D01*
X163838339Y-128304057D01*
X163868928Y-128418216D01*
X163879264Y-128456787D01*
X163898272Y-128489709D01*
X163898273Y-128489712D01*
X163958315Y-128593709D01*
X163958321Y-128593717D01*
X164077189Y-128712585D01*
X164077195Y-128712590D01*
X166947763Y-131583158D01*
X166981248Y-131644481D01*
X166977788Y-131709842D01*
X166948841Y-131797199D01*
X166938340Y-131899983D01*
X166938340Y-132550001D01*
X166938341Y-132550019D01*
X166948840Y-132652796D01*
X166948841Y-132652799D01*
X167004025Y-132819331D01*
X167004027Y-132819336D01*
X167038909Y-132875888D01*
X167096128Y-132968656D01*
X167220184Y-133092712D01*
X167369506Y-133184814D01*
X167536043Y-133239999D01*
X167638831Y-133250500D01*
X169238848Y-133250499D01*
X169341637Y-133239999D01*
X169508174Y-133184814D01*
X169657496Y-133092712D01*
X169781552Y-132968656D01*
X169873654Y-132819334D01*
X169928839Y-132652797D01*
X169939340Y-132550009D01*
X169939339Y-131899992D01*
X169932257Y-131830668D01*
X169928839Y-131797203D01*
X169928838Y-131797200D01*
X169918230Y-131765187D01*
X169873654Y-131630666D01*
X169781552Y-131481344D01*
X169657496Y-131357288D01*
X169508174Y-131265186D01*
X169341637Y-131210001D01*
X169341635Y-131210000D01*
X169238856Y-131199500D01*
X169238849Y-131199500D01*
X168313937Y-131199500D01*
X168246898Y-131179815D01*
X168226256Y-131163181D01*
X165075659Y-128012584D01*
X165042174Y-127951261D01*
X165039340Y-127924903D01*
X165039340Y-118886555D01*
X165059025Y-118819516D01*
X165111829Y-118773761D01*
X165180987Y-118763817D01*
X165199251Y-118768840D01*
X165199516Y-118767969D01*
X165205332Y-118769732D01*
X165205343Y-118769737D01*
X165359993Y-118800499D01*
X165359996Y-118800500D01*
X165359998Y-118800500D01*
X165517684Y-118800500D01*
X165517685Y-118800499D01*
X165672337Y-118769737D01*
X165818019Y-118709394D01*
X165818025Y-118709390D01*
X165949715Y-118621398D01*
X166016393Y-118600520D01*
X166018606Y-118600500D01*
X167714340Y-118600500D01*
X167781379Y-118620185D01*
X167827134Y-118672989D01*
X167838340Y-118724500D01*
X167838340Y-126625500D01*
X167818655Y-126692539D01*
X167765851Y-126738294D01*
X167714342Y-126749500D01*
X167638839Y-126749500D01*
X167638820Y-126749501D01*
X167536043Y-126760000D01*
X167536040Y-126760001D01*
X167369508Y-126815185D01*
X167369503Y-126815187D01*
X167220182Y-126907289D01*
X167096129Y-127031342D01*
X167004027Y-127180663D01*
X167004025Y-127180668D01*
X166984930Y-127238294D01*
X166948841Y-127347203D01*
X166948841Y-127347204D01*
X166948840Y-127347204D01*
X166938340Y-127449983D01*
X166938340Y-128100001D01*
X166938341Y-128100019D01*
X166948840Y-128202796D01*
X166948841Y-128202799D01*
X167004025Y-128369331D01*
X167004027Y-128369336D01*
X167024482Y-128402499D01*
X167096128Y-128518656D01*
X167220184Y-128642712D01*
X167369506Y-128734814D01*
X167536043Y-128789999D01*
X167638831Y-128800500D01*
X169238848Y-128800499D01*
X169341637Y-128789999D01*
X169508174Y-128734814D01*
X169657496Y-128642712D01*
X169781552Y-128518656D01*
X169873654Y-128369334D01*
X169928839Y-128202797D01*
X169939340Y-128100009D01*
X169939339Y-127449992D01*
X169928839Y-127347203D01*
X169873654Y-127180666D01*
X169781552Y-127031344D01*
X169657496Y-126907288D01*
X169564728Y-126850069D01*
X169508176Y-126815187D01*
X169508171Y-126815185D01*
X169475983Y-126804519D01*
X169341637Y-126760001D01*
X169341635Y-126760000D01*
X169238856Y-126749500D01*
X169238849Y-126749500D01*
X169163340Y-126749500D01*
X169096301Y-126729815D01*
X169050546Y-126677011D01*
X169039340Y-126625500D01*
X169039340Y-112874499D01*
X169059025Y-112807460D01*
X169111829Y-112761705D01*
X169163340Y-112750499D01*
X169238842Y-112750499D01*
X169238848Y-112750499D01*
X169341637Y-112739999D01*
X169508174Y-112684814D01*
X169657496Y-112592712D01*
X169781552Y-112468656D01*
X169873654Y-112319334D01*
X169928839Y-112152797D01*
X169939340Y-112050009D01*
X169939339Y-111399992D01*
X169932257Y-111330668D01*
X169928839Y-111297203D01*
X169928838Y-111297200D01*
X169890446Y-111181342D01*
X169873654Y-111130666D01*
X169781552Y-110981344D01*
X169657496Y-110857288D01*
X169508174Y-110765186D01*
X169341637Y-110710001D01*
X169341635Y-110710000D01*
X169238850Y-110699500D01*
X167638838Y-110699500D01*
X167638821Y-110699501D01*
X167536043Y-110710000D01*
X167536040Y-110710001D01*
X167369508Y-110765185D01*
X167369503Y-110765187D01*
X167220182Y-110857289D01*
X167096129Y-110981342D01*
X167004027Y-111130663D01*
X167004025Y-111130668D01*
X166976189Y-111214670D01*
X166948841Y-111297203D01*
X166948841Y-111297204D01*
X166948840Y-111297204D01*
X166938340Y-111399983D01*
X166938340Y-112050001D01*
X166938341Y-112050019D01*
X166948840Y-112152796D01*
X166948841Y-112152799D01*
X167004025Y-112319331D01*
X167004027Y-112319336D01*
X167034483Y-112368713D01*
X167096128Y-112468656D01*
X167220184Y-112592712D01*
X167369506Y-112684814D01*
X167536043Y-112739999D01*
X167638831Y-112750500D01*
X167714340Y-112750499D01*
X167781378Y-112770183D01*
X167827134Y-112822986D01*
X167838340Y-112874499D01*
X167838340Y-117275500D01*
X167818655Y-117342539D01*
X167765851Y-117388294D01*
X167714340Y-117399500D01*
X166018606Y-117399500D01*
X165951567Y-117379815D01*
X165949715Y-117378602D01*
X165818025Y-117290609D01*
X165818012Y-117290602D01*
X165672341Y-117230264D01*
X165672329Y-117230261D01*
X165517685Y-117199500D01*
X165517682Y-117199500D01*
X165359998Y-117199500D01*
X165359995Y-117199500D01*
X165205350Y-117230261D01*
X165199516Y-117232031D01*
X165198713Y-117229385D01*
X165140896Y-117235396D01*
X165078527Y-117203902D01*
X165043085Y-117143689D01*
X165039340Y-117113444D01*
X165039340Y-105024097D01*
X165059025Y-104957058D01*
X165111829Y-104911303D01*
X165180987Y-104901359D01*
X165244543Y-104930384D01*
X165251019Y-104936414D01*
X166114604Y-105800000D01*
X166947763Y-106633159D01*
X166981248Y-106694482D01*
X166977788Y-106759843D01*
X166948841Y-106847199D01*
X166938340Y-106949983D01*
X166938340Y-107600001D01*
X166938341Y-107600019D01*
X166948840Y-107702796D01*
X166948841Y-107702799D01*
X166992508Y-107834575D01*
X167004026Y-107869334D01*
X167096128Y-108018656D01*
X167220184Y-108142712D01*
X167369506Y-108234814D01*
X167536043Y-108289999D01*
X167638831Y-108300500D01*
X169238848Y-108300499D01*
X169341637Y-108289999D01*
X169508174Y-108234814D01*
X169657496Y-108142712D01*
X169781552Y-108018656D01*
X169873654Y-107869334D01*
X169928839Y-107702797D01*
X169939340Y-107600009D01*
X169939339Y-106949992D01*
X169936503Y-106922234D01*
X169928839Y-106847203D01*
X169928838Y-106847200D01*
X169902498Y-106767712D01*
X169873654Y-106680666D01*
X169781552Y-106531344D01*
X169657496Y-106407288D01*
X169508174Y-106315186D01*
X169341637Y-106260001D01*
X169341635Y-106260000D01*
X169238856Y-106249500D01*
X169238849Y-106249500D01*
X168313938Y-106249500D01*
X168246899Y-106229815D01*
X168226257Y-106213181D01*
X165476659Y-103463583D01*
X165443174Y-103402260D01*
X165440340Y-103375902D01*
X165440340Y-76922960D01*
X165440341Y-76922947D01*
X165440341Y-76754844D01*
X165433863Y-76730668D01*
X165399417Y-76602116D01*
X165389210Y-76584436D01*
X165320364Y-76465190D01*
X165320358Y-76465182D01*
X159160890Y-70305714D01*
X152993529Y-64138354D01*
X152993528Y-64138352D01*
X152874657Y-64019481D01*
X152874656Y-64019480D01*
X152787844Y-63969360D01*
X152787844Y-63969359D01*
X152787840Y-63969358D01*
X152737725Y-63940423D01*
X152584997Y-63899499D01*
X152426883Y-63899499D01*
X152419287Y-63899499D01*
X152419271Y-63899500D01*
X136687936Y-63899500D01*
X136620897Y-63879815D01*
X136575142Y-63827011D01*
X136565198Y-63757853D01*
X136594223Y-63694297D01*
X136600255Y-63687819D01*
X137939060Y-62349015D01*
X142151257Y-58136819D01*
X142212580Y-58103334D01*
X142238938Y-58100500D01*
X143158391Y-58100500D01*
X143225430Y-58120185D01*
X143271185Y-58172989D01*
X143276096Y-58185493D01*
X143277615Y-58190078D01*
X143279026Y-58194334D01*
X143371128Y-58343656D01*
X143495184Y-58467712D01*
X143644506Y-58559814D01*
X143811043Y-58614999D01*
X143913831Y-58625500D01*
X144963848Y-58625499D01*
X144963856Y-58625498D01*
X144963859Y-58625498D01*
X145020142Y-58619748D01*
X145066637Y-58614999D01*
X145233174Y-58559814D01*
X145382496Y-58467712D01*
X145506552Y-58343656D01*
X145597069Y-58196902D01*
X145604656Y-58190078D01*
X145608895Y-58180797D01*
X145630194Y-58167108D01*
X145649017Y-58150179D01*
X145660652Y-58147534D01*
X145667673Y-58143023D01*
X145702608Y-58138000D01*
X145915197Y-58138000D01*
X145982236Y-58157685D01*
X145984087Y-58158898D01*
X146059659Y-58209393D01*
X146059662Y-58209395D01*
X146205338Y-58269735D01*
X146205343Y-58269737D01*
X146359993Y-58300499D01*
X146359996Y-58300500D01*
X146359998Y-58300500D01*
X146517684Y-58300500D01*
X146517685Y-58300499D01*
X146672337Y-58269737D01*
X146818019Y-58209394D01*
X146949129Y-58121789D01*
X147060629Y-58010289D01*
X147148234Y-57879179D01*
X147152568Y-57868717D01*
X147161907Y-57846166D01*
X147208577Y-57733497D01*
X147239340Y-57578842D01*
X147239340Y-57421158D01*
X147239340Y-57421155D01*
X147239339Y-57421153D01*
X147212770Y-57287584D01*
X147208577Y-57266503D01*
X147198592Y-57242397D01*
X147148237Y-57120827D01*
X147148230Y-57120814D01*
X147060629Y-56989711D01*
X147060626Y-56989707D01*
X146949132Y-56878213D01*
X146949128Y-56878210D01*
X146818025Y-56790609D01*
X146818012Y-56790602D01*
X146672341Y-56730264D01*
X146672329Y-56730261D01*
X146517685Y-56699500D01*
X146517682Y-56699500D01*
X146359998Y-56699500D01*
X146359995Y-56699500D01*
X146205350Y-56730261D01*
X146205338Y-56730264D01*
X146059667Y-56790602D01*
X146059654Y-56790609D01*
X145928551Y-56878210D01*
X145928547Y-56878213D01*
X145906080Y-56900681D01*
X145879152Y-56915384D01*
X145853334Y-56931977D01*
X145847133Y-56932868D01*
X145844757Y-56934166D01*
X145818399Y-56937000D01*
X145702608Y-56937000D01*
X145635569Y-56917315D01*
X145597069Y-56878097D01*
X145573939Y-56840597D01*
X145506552Y-56731344D01*
X145382496Y-56607288D01*
X145379182Y-56605243D01*
X145377386Y-56603248D01*
X145376829Y-56602807D01*
X145376904Y-56602711D01*
X145332458Y-56553297D01*
X145321237Y-56484334D01*
X145349080Y-56420252D01*
X145379188Y-56394165D01*
X145382182Y-56392318D01*
X145506155Y-56268345D01*
X145598196Y-56119124D01*
X145598198Y-56119119D01*
X145653345Y-55952697D01*
X145653346Y-55952690D01*
X145663839Y-55849986D01*
X145663840Y-55849973D01*
X145663840Y-55712500D01*
X143213841Y-55712500D01*
X143213841Y-55849986D01*
X143224334Y-55952697D01*
X143279481Y-56119119D01*
X143279483Y-56119124D01*
X143371524Y-56268345D01*
X143495495Y-56392316D01*
X143495499Y-56392319D01*
X143498496Y-56394168D01*
X143500119Y-56395972D01*
X143501163Y-56396798D01*
X143501021Y-56396976D01*
X143545221Y-56446116D01*
X143556442Y-56515079D01*
X143528599Y-56579161D01*
X143498501Y-56605241D01*
X143495189Y-56607283D01*
X143495183Y-56607288D01*
X143371129Y-56731342D01*
X143303741Y-56840597D01*
X143251793Y-56887321D01*
X143198202Y-56899500D01*
X142025510Y-56899500D01*
X142025494Y-56899499D01*
X142017898Y-56899499D01*
X141859783Y-56899499D01*
X141783419Y-56919961D01*
X141707054Y-56940423D01*
X141707049Y-56940426D01*
X141570130Y-57019475D01*
X141570122Y-57019481D01*
X128958319Y-69631284D01*
X128930637Y-69679232D01*
X128918936Y-69699500D01*
X128879263Y-69768215D01*
X128838339Y-69920943D01*
X128838339Y-69920945D01*
X128838339Y-70089046D01*
X128838340Y-70089059D01*
X128838340Y-72420234D01*
X128818655Y-72487273D01*
X128817442Y-72489125D01*
X128729449Y-72620814D01*
X128729442Y-72620827D01*
X128669104Y-72766498D01*
X128669101Y-72766510D01*
X128638340Y-72921153D01*
X128039340Y-72921153D01*
X128039340Y-68867196D01*
X128059025Y-68800157D01*
X128075654Y-68779520D01*
X134307553Y-62547621D01*
X134307556Y-62547620D01*
X134419360Y-62435816D01*
X134469479Y-62349004D01*
X134498417Y-62298885D01*
X134539340Y-62146157D01*
X134539340Y-61988043D01*
X134539340Y-61079765D01*
X134559025Y-61012726D01*
X134560238Y-61010874D01*
X134586915Y-60970950D01*
X134648234Y-60879179D01*
X134708577Y-60733497D01*
X134739340Y-60578842D01*
X134739340Y-60421158D01*
X134739340Y-60421155D01*
X134739339Y-60421153D01*
X134708578Y-60266510D01*
X134708577Y-60266503D01*
X134708575Y-60266498D01*
X134648237Y-60120827D01*
X134648230Y-60120814D01*
X134560629Y-59989711D01*
X134560626Y-59989707D01*
X134449132Y-59878213D01*
X134449128Y-59878210D01*
X134318025Y-59790609D01*
X134318012Y-59790602D01*
X134172341Y-59730264D01*
X134172329Y-59730261D01*
X134017685Y-59699500D01*
X134017682Y-59699500D01*
X133859998Y-59699500D01*
X133859995Y-59699500D01*
X133705350Y-59730261D01*
X133705338Y-59730264D01*
X133559667Y-59790602D01*
X133559654Y-59790609D01*
X133428551Y-59878210D01*
X133428546Y-59878214D01*
X133391506Y-59915254D01*
X133330183Y-59948739D01*
X133260491Y-59943753D01*
X133204558Y-59901881D01*
X133180142Y-59836417D01*
X133189264Y-59780121D01*
X133208577Y-59733497D01*
X133239340Y-59578842D01*
X133239340Y-59421158D01*
X133239340Y-59421155D01*
X133239339Y-59421153D01*
X133208578Y-59266510D01*
X133208577Y-59266503D01*
X133208575Y-59266498D01*
X133148237Y-59120827D01*
X133148230Y-59120814D01*
X133060629Y-58989711D01*
X133060626Y-58989707D01*
X132949132Y-58878213D01*
X132949128Y-58878210D01*
X132818025Y-58790609D01*
X132818012Y-58790602D01*
X132710975Y-58746267D01*
X132656571Y-58702427D01*
X132634506Y-58636132D01*
X132636810Y-58607514D01*
X132658578Y-58498082D01*
X132658578Y-58340393D01*
X132658577Y-58340391D01*
X132644523Y-58269737D01*
X132627815Y-58185741D01*
X132620097Y-58167108D01*
X132567475Y-58040065D01*
X132567468Y-58040052D01*
X132479867Y-57908949D01*
X132479864Y-57908945D01*
X132368370Y-57797451D01*
X132368366Y-57797448D01*
X132237263Y-57709847D01*
X132237250Y-57709840D01*
X132091579Y-57649502D01*
X132091567Y-57649499D01*
X131936923Y-57618738D01*
X131936920Y-57618738D01*
X131779236Y-57618738D01*
X131779233Y-57618738D01*
X131624588Y-57649499D01*
X131624576Y-57649502D01*
X131478905Y-57709840D01*
X131478892Y-57709847D01*
X131347789Y-57797448D01*
X131347785Y-57797451D01*
X131236291Y-57908945D01*
X131236288Y-57908949D01*
X131148687Y-58040052D01*
X131148680Y-58040065D01*
X131088342Y-58185736D01*
X131088339Y-58185746D01*
X131057439Y-58341088D01*
X131025054Y-58402999D01*
X131023503Y-58404577D01*
X130695759Y-58732322D01*
X130634436Y-58765807D01*
X130564745Y-58760823D01*
X130520397Y-58732322D01*
X129075659Y-57287584D01*
X129042174Y-57226261D01*
X129039340Y-57199903D01*
X129039340Y-55075013D01*
X143213840Y-55075013D01*
X143213840Y-55212500D01*
X144188840Y-55212500D01*
X144688840Y-55212500D01*
X145663839Y-55212500D01*
X145663839Y-55075028D01*
X145663838Y-55075013D01*
X145653345Y-54972302D01*
X145598198Y-54805880D01*
X145598196Y-54805875D01*
X145506155Y-54656654D01*
X145382185Y-54532684D01*
X145369705Y-54524986D01*
X164813841Y-54524986D01*
X164824334Y-54627697D01*
X164879481Y-54794119D01*
X164879483Y-54794124D01*
X164971524Y-54943345D01*
X165095494Y-55067315D01*
X165244715Y-55159356D01*
X165244720Y-55159358D01*
X165411142Y-55214505D01*
X165411149Y-55214506D01*
X165513859Y-55224999D01*
X165651339Y-55224999D01*
X165651340Y-55224998D01*
X165651340Y-54250000D01*
X164813841Y-54250000D01*
X164813841Y-54524986D01*
X145369705Y-54524986D01*
X145232964Y-54440643D01*
X145232959Y-54440641D01*
X145066537Y-54385494D01*
X145066530Y-54385493D01*
X144963826Y-54375000D01*
X144688840Y-54375000D01*
X144688840Y-55212500D01*
X144188840Y-55212500D01*
X144188840Y-54375000D01*
X143913869Y-54375000D01*
X143913852Y-54375001D01*
X143811142Y-54385494D01*
X143644720Y-54440641D01*
X143644715Y-54440643D01*
X143495494Y-54532684D01*
X143371524Y-54656654D01*
X143279483Y-54805875D01*
X143279481Y-54805880D01*
X143224334Y-54972302D01*
X143224333Y-54972309D01*
X143213840Y-55075013D01*
X129039340Y-55075013D01*
X129039340Y-53475013D01*
X164813840Y-53475013D01*
X164813840Y-53750000D01*
X165651340Y-53750000D01*
X165651340Y-52775000D01*
X165513867Y-52775000D01*
X165513852Y-52775001D01*
X165411142Y-52785494D01*
X165244720Y-52840641D01*
X165244715Y-52840643D01*
X165095494Y-52932684D01*
X164971524Y-53056654D01*
X164879483Y-53205875D01*
X164879481Y-53205880D01*
X164824334Y-53372302D01*
X164824333Y-53372309D01*
X164813840Y-53475013D01*
X129039340Y-53475013D01*
X129039340Y-49364059D01*
X129039341Y-49364046D01*
X129039341Y-49195945D01*
X129039341Y-49195943D01*
X128998417Y-49043215D01*
X128969479Y-48993095D01*
X128919360Y-48906284D01*
X128807556Y-48794480D01*
X128807555Y-48794479D01*
X128803225Y-48790149D01*
X128803214Y-48790139D01*
X127225658Y-47212583D01*
X127192173Y-47151260D01*
X127189339Y-47124902D01*
X127189339Y-46224500D01*
X127209024Y-46157461D01*
X127261828Y-46111706D01*
X127313339Y-46100500D01*
X136051171Y-46100500D01*
X136051187Y-46100501D01*
X136058783Y-46100501D01*
X136216894Y-46100501D01*
X136216897Y-46100501D01*
X136369625Y-46059577D01*
X136419744Y-46030639D01*
X136506556Y-45980520D01*
X136618360Y-45868716D01*
X136618360Y-45868714D01*
X136628568Y-45858507D01*
X136628570Y-45858504D01*
X137674187Y-44812887D01*
X137735510Y-44779402D01*
X137805202Y-44784386D01*
X137849549Y-44812887D01*
X138203036Y-45166374D01*
X138203046Y-45166385D01*
X138207376Y-45170715D01*
X138207377Y-45170716D01*
X138319181Y-45282520D01*
X138405992Y-45332639D01*
X138405994Y-45332641D01*
X138444048Y-45354611D01*
X138456112Y-45361577D01*
X138608840Y-45402500D01*
X152446023Y-45402500D01*
X152513062Y-45422185D01*
X152558817Y-45474989D01*
X152568761Y-45544147D01*
X152539736Y-45607703D01*
X152511121Y-45632037D01*
X152485844Y-45647628D01*
X152470182Y-45657289D01*
X152346129Y-45781342D01*
X152254027Y-45930663D01*
X152254026Y-45930666D01*
X152198841Y-46097203D01*
X152198841Y-46097204D01*
X152198840Y-46097204D01*
X152188340Y-46199983D01*
X152188340Y-46275500D01*
X152168655Y-46342539D01*
X152115851Y-46388294D01*
X152064340Y-46399500D01*
X141025510Y-46399500D01*
X141025494Y-46399499D01*
X141017898Y-46399499D01*
X140859783Y-46399499D01*
X140783419Y-46419961D01*
X140707054Y-46440423D01*
X140707049Y-46440426D01*
X140570130Y-46519475D01*
X140570126Y-46519478D01*
X140424177Y-46665427D01*
X140362854Y-46698911D01*
X140360688Y-46699362D01*
X140205348Y-46730261D01*
X140205338Y-46730264D01*
X140059667Y-46790602D01*
X140059654Y-46790609D01*
X139928551Y-46878210D01*
X139928547Y-46878213D01*
X139817053Y-46989707D01*
X139817050Y-46989711D01*
X139729449Y-47120814D01*
X139729442Y-47120827D01*
X139669104Y-47266498D01*
X139669101Y-47266510D01*
X139638340Y-47421153D01*
X139638340Y-47578846D01*
X139669101Y-47733489D01*
X139669104Y-47733501D01*
X139729442Y-47879172D01*
X139729449Y-47879185D01*
X139817050Y-48010288D01*
X139817053Y-48010292D01*
X139928547Y-48121786D01*
X139928551Y-48121789D01*
X140059654Y-48209390D01*
X140059667Y-48209397D01*
X140205338Y-48269735D01*
X140205343Y-48269737D01*
X140359993Y-48300499D01*
X140359996Y-48300500D01*
X140359998Y-48300500D01*
X140517684Y-48300500D01*
X140517685Y-48300499D01*
X140672337Y-48269737D01*
X140818019Y-48209394D01*
X140949129Y-48121789D01*
X141060629Y-48010289D01*
X141148234Y-47879179D01*
X141208577Y-47733497D01*
X141215179Y-47700309D01*
X141247564Y-47638398D01*
X141308279Y-47603824D01*
X141336796Y-47600500D01*
X152064341Y-47600500D01*
X152131380Y-47620185D01*
X152177135Y-47672989D01*
X152188341Y-47724500D01*
X152188341Y-47800018D01*
X152198840Y-47902796D01*
X152198841Y-47902799D01*
X152234460Y-48010288D01*
X152254026Y-48069334D01*
X152346128Y-48218656D01*
X152470184Y-48342712D01*
X152619506Y-48434814D01*
X152786043Y-48489999D01*
X152888831Y-48500500D01*
X153538848Y-48500499D01*
X153538856Y-48500498D01*
X153538859Y-48500498D01*
X153595142Y-48494748D01*
X153641637Y-48489999D01*
X153808174Y-48434814D01*
X153957496Y-48342712D01*
X154081552Y-48218656D01*
X154173654Y-48069334D01*
X154228839Y-47902797D01*
X154239340Y-47800009D01*
X154239339Y-46199992D01*
X154230320Y-46111706D01*
X154228839Y-46097203D01*
X154228838Y-46097200D01*
X154216371Y-46059577D01*
X154173654Y-45930666D01*
X154081552Y-45781344D01*
X153957496Y-45657288D01*
X153916559Y-45632038D01*
X153869836Y-45580091D01*
X153858613Y-45511128D01*
X153886457Y-45447046D01*
X153944525Y-45408190D01*
X153981657Y-45402500D01*
X155165743Y-45402500D01*
X155232782Y-45422185D01*
X155253424Y-45438819D01*
X156602021Y-46787416D01*
X156635506Y-46848739D01*
X156638340Y-46875097D01*
X156638340Y-47800001D01*
X156638341Y-47800019D01*
X156648840Y-47902796D01*
X156648841Y-47902799D01*
X156684460Y-48010288D01*
X156704026Y-48069334D01*
X156796128Y-48218656D01*
X156920184Y-48342712D01*
X157069506Y-48434814D01*
X157236043Y-48489999D01*
X157338831Y-48500500D01*
X157988848Y-48500499D01*
X157988856Y-48500498D01*
X157988859Y-48500498D01*
X158045142Y-48494748D01*
X158091637Y-48489999D01*
X158258174Y-48434814D01*
X158407496Y-48342712D01*
X158531552Y-48218656D01*
X158623654Y-48069334D01*
X158678839Y-47902797D01*
X158689340Y-47800009D01*
X158689339Y-46199992D01*
X158680320Y-46111706D01*
X158678839Y-46097203D01*
X158678838Y-46097200D01*
X158666371Y-46059577D01*
X158623654Y-45930666D01*
X158531552Y-45781344D01*
X158407496Y-45657288D01*
X158258174Y-45565186D01*
X158091637Y-45510001D01*
X158091635Y-45510000D01*
X157988850Y-45499500D01*
X157338838Y-45499500D01*
X157338820Y-45499501D01*
X157236043Y-45510000D01*
X157236036Y-45510002D01*
X157148682Y-45538948D01*
X157078853Y-45541349D01*
X157021998Y-45508923D01*
X156327256Y-44814181D01*
X156293771Y-44752858D01*
X156298755Y-44683166D01*
X156340627Y-44627233D01*
X156406091Y-44602816D01*
X156414937Y-44602500D01*
X168638743Y-44602500D01*
X168668183Y-44611144D01*
X168698170Y-44617668D01*
X168703185Y-44621422D01*
X168705782Y-44622185D01*
X168726424Y-44638819D01*
X168800021Y-44712416D01*
X168833506Y-44773739D01*
X168836340Y-44800097D01*
X168836340Y-52743325D01*
X168816655Y-52810364D01*
X168763851Y-52856119D01*
X168694693Y-52866063D01*
X168647244Y-52848864D01*
X168639250Y-52843934D01*
X168633174Y-52840186D01*
X168466637Y-52785001D01*
X168466635Y-52785000D01*
X168363850Y-52774500D01*
X167588838Y-52774500D01*
X167588820Y-52774501D01*
X167486043Y-52785000D01*
X167486040Y-52785001D01*
X167319508Y-52840185D01*
X167319503Y-52840187D01*
X167170182Y-52932289D01*
X167046128Y-53056343D01*
X167046123Y-53056349D01*
X167044081Y-53059661D01*
X167042087Y-53061453D01*
X167041647Y-53062011D01*
X167041551Y-53061935D01*
X166992131Y-53106383D01*
X166923168Y-53117602D01*
X166859087Y-53089755D01*
X166833008Y-53059656D01*
X166831159Y-53056659D01*
X166831156Y-53056655D01*
X166707185Y-52932684D01*
X166557964Y-52840643D01*
X166557959Y-52840641D01*
X166391537Y-52785494D01*
X166391530Y-52785493D01*
X166288826Y-52775000D01*
X166151340Y-52775000D01*
X166151340Y-55224999D01*
X166288812Y-55224999D01*
X166288826Y-55224998D01*
X166391537Y-55214505D01*
X166557959Y-55159358D01*
X166557964Y-55159356D01*
X166707185Y-55067315D01*
X166831158Y-54943342D01*
X166833005Y-54940348D01*
X166834809Y-54938724D01*
X166835638Y-54937677D01*
X166835816Y-54937818D01*
X166884950Y-54893621D01*
X166953913Y-54882396D01*
X167017996Y-54910236D01*
X167028011Y-54919579D01*
X167037152Y-54929104D01*
X167046128Y-54943656D01*
X167169983Y-55067511D01*
X167170841Y-55068405D01*
X167186391Y-55098330D01*
X167202542Y-55127908D01*
X167202447Y-55129229D01*
X167203058Y-55130404D01*
X167199962Y-55163972D01*
X167197558Y-55197600D01*
X167196649Y-55199908D01*
X167196643Y-55199978D01*
X167196600Y-55200032D01*
X167195937Y-55201718D01*
X167169104Y-55266498D01*
X167169101Y-55266510D01*
X167138340Y-55421153D01*
X167138340Y-55578846D01*
X167169101Y-55733489D01*
X167169104Y-55733501D01*
X167229442Y-55879172D01*
X167229449Y-55879185D01*
X167317050Y-56010288D01*
X167317053Y-56010292D01*
X167428547Y-56121786D01*
X167428551Y-56121789D01*
X167559654Y-56209390D01*
X167559667Y-56209397D01*
X167701982Y-56268345D01*
X167705343Y-56269737D01*
X167859993Y-56300499D01*
X167859996Y-56300500D01*
X167859998Y-56300500D01*
X168017684Y-56300500D01*
X168017685Y-56300499D01*
X168172337Y-56269737D01*
X168318019Y-56209394D01*
X168449129Y-56121789D01*
X168560629Y-56010289D01*
X168599111Y-55952697D01*
X168609238Y-55937541D01*
X168662850Y-55892736D01*
X168732175Y-55884029D01*
X168795202Y-55914183D01*
X168831922Y-55973626D01*
X168836340Y-56006432D01*
X168836340Y-92082152D01*
X168816655Y-92149191D01*
X168763851Y-92194946D01*
X168736532Y-92203769D01*
X168603348Y-92230261D01*
X168603338Y-92230264D01*
X168457667Y-92290602D01*
X168457654Y-92290609D01*
X168326551Y-92378210D01*
X168326547Y-92378213D01*
X168215053Y-92489707D01*
X168215050Y-92489711D01*
X168127449Y-92620814D01*
X168127442Y-92620827D01*
X168085142Y-92722952D01*
X168041302Y-92777356D01*
X167975007Y-92799421D01*
X167970581Y-92799500D01*
X167859995Y-92799500D01*
X167705350Y-92830261D01*
X167705338Y-92830264D01*
X167559667Y-92890602D01*
X167559654Y-92890609D01*
X167428551Y-92978210D01*
X167428547Y-92978213D01*
X167317053Y-93089707D01*
X167317050Y-93089711D01*
X167229449Y-93220814D01*
X167229442Y-93220827D01*
X167169104Y-93366498D01*
X167169101Y-93366510D01*
X167138340Y-93521153D01*
X167138340Y-93678846D01*
X167169101Y-93833489D01*
X167169104Y-93833501D01*
X167229442Y-93979172D01*
X167229449Y-93979185D01*
X167317050Y-94110288D01*
X167317053Y-94110292D01*
X167428547Y-94221786D01*
X167428551Y-94221789D01*
X167559654Y-94309390D01*
X167559667Y-94309397D01*
X167668137Y-94354326D01*
X167705343Y-94369737D01*
X167854870Y-94399480D01*
X167859993Y-94400499D01*
X167859996Y-94400500D01*
X167859998Y-94400500D01*
X168017684Y-94400500D01*
X168017685Y-94400499D01*
X168172337Y-94369737D01*
X168318019Y-94309394D01*
X168346143Y-94290602D01*
X168449715Y-94221398D01*
X168516393Y-94200520D01*
X168518606Y-94200500D01*
X169252171Y-94200500D01*
X169252187Y-94200501D01*
X169259783Y-94200501D01*
X169417894Y-94200501D01*
X169417897Y-94200501D01*
X169570625Y-94159577D01*
X169620744Y-94130639D01*
X169707556Y-94080520D01*
X169819360Y-93968716D01*
X169819361Y-93968714D01*
X170318360Y-93469716D01*
X170397417Y-93332784D01*
X170438341Y-93180057D01*
X170438341Y-93021942D01*
X170438341Y-93014347D01*
X170438340Y-93014329D01*
X170438340Y-43988060D01*
X170438341Y-43988047D01*
X170438341Y-43819944D01*
X170438341Y-43819943D01*
X170397417Y-43667216D01*
X170397415Y-43667214D01*
X170395313Y-43659366D01*
X170397948Y-43658659D01*
X170391912Y-43602476D01*
X170423190Y-43539999D01*
X170483281Y-43504350D01*
X170513940Y-43500500D01*
X170814340Y-43500500D01*
X170881379Y-43520185D01*
G37*
%TD.AperFunction*%
%TD*%
M02*
